<?xml version="1.0" encoding="utf-8" standalone="no"?>
<!DOCTYPE svg PUBLIC "-//W3C//DTD SVG 1.1//EN"
  "http://www.w3.org/Graphics/SVG/1.1/DTD/svg11.dtd">
<!-- Created with matplotlib (https://matplotlib.org/) -->
<svg height="155.836261pt" version="1.1" viewBox="0 0 208.755 155.836261" width="208.755pt" xmlns="http://www.w3.org/2000/svg" xmlns:xlink="http://www.w3.org/1999/xlink">
 <defs>
  <style type="text/css">
*{stroke-linecap:butt;stroke-linejoin:round;}
  </style>
 </defs>
 <g id="figure_1">
  <g id="patch_1">
   <path d="M 0 155.836261 
L 208.755 155.836261 
L 208.755 0 
L 0 0 
z
" style="fill:#ffffff;"/>
  </g>
  <g id="axes_1">
   <g id="patch_2">
    <path d="M 21.935 145.675765 
L 184.085 145.675765 
L 184.085 30.685 
L 21.935 30.685 
z
" style="fill:#ffffff;"/>
   </g>
   <g id="patch_3">
    <path clip-path="url(#pe6254fd58d)" d="M 45.841731 131.958136 
L 45.841731 96.001049 
L 45.841731 96.001049 
L 47.920577 92.821004 
L 49.999423 89.89122 
L 52.078269 87.203069 
L 54.157115 84.747919 
L 56.235962 82.517141 
L 58.314808 80.502106 
L 60.393654 78.694184 
L 62.4725 77.084744 
L 64.551346 75.665159 
L 66.630192 74.426796 
L 68.709038 73.361028 
L 70.787885 72.459225 
L 72.866731 71.712756 
L 74.945577 71.112991 
L 77.024423 70.651302 
L 79.103269 70.319059 
L 81.182115 70.107631 
L 83.260962 70.00839 
L 85.339808 70.012704 
L 87.418654 70.111946 
L 89.4975 70.297485 
L 91.576346 70.56069 
L 93.655192 70.892934 
L 95.734038 71.285585 
L 97.812885 71.730015 
L 99.891731 72.217593 
L 101.970577 72.73969 
L 104.049423 73.287676 
L 106.128269 73.852921 
L 108.207115 74.426796 
L 110.285962 75.000672 
L 112.364808 75.565917 
L 114.443654 76.113903 
L 116.5225 76.636 
L 118.601346 77.123578 
L 120.680192 77.568008 
L 122.759038 77.960659 
L 124.837885 78.292902 
L 126.916731 78.556108 
L 128.995577 78.741647 
L 131.074423 78.840888 
L 133.153269 78.845203 
L 135.232115 78.745962 
L 137.310962 78.534534 
L 139.389808 78.202291 
L 141.468654 77.740602 
L 143.5475 77.140837 
L 145.626346 76.394368 
L 147.705192 75.492565 
L 149.784038 74.426796 
L 151.862885 73.188434 
L 153.941731 71.768849 
L 156.020577 70.159409 
L 158.099423 68.351487 
L 160.178269 66.336452 
L 162.257115 64.105674 
L 164.335962 61.650524 
L 166.414808 58.962372 
L 168.493654 56.032589 
L 170.5725 52.852544 
L 170.5725 131.958136 
z
" style="fill:#cccccc;"/>
   </g>
   <g id="matplotlib.axis_1">
    <g id="xtick_1">
     <g id="line2d_1">
      <defs>
       <path d="M 0 0 
L 0 3.5 
" id="m3791eca4df" style="stroke:#000000;stroke-width:0.8;"/>
      </defs>
      <g>
       <use style="stroke:#000000;stroke-width:0.8;" x="45.841731" xlink:href="#m3791eca4df" y="131.958136"/>
      </g>
     </g>
     <g id="text_1">
      <!-- a -->
      <defs>
       <path d="M 34.28125 27.484375 
Q 23.390625 27.484375 19.1875 25 
Q 14.984375 22.515625 14.984375 16.5 
Q 14.984375 11.71875 18.140625 8.90625 
Q 21.296875 6.109375 26.703125 6.109375 
Q 34.1875 6.109375 38.703125 11.40625 
Q 43.21875 16.703125 43.21875 25.484375 
L 43.21875 27.484375 
z
M 52.203125 31.203125 
L 52.203125 0 
L 43.21875 0 
L 43.21875 8.296875 
Q 40.140625 3.328125 35.546875 0.953125 
Q 30.953125 -1.421875 24.3125 -1.421875 
Q 15.921875 -1.421875 10.953125 3.296875 
Q 6 8.015625 6 15.921875 
Q 6 25.140625 12.171875 29.828125 
Q 18.359375 34.515625 30.609375 34.515625 
L 43.21875 34.515625 
L 43.21875 35.40625 
Q 43.21875 41.609375 39.140625 45 
Q 35.0625 48.390625 27.6875 48.390625 
Q 23 48.390625 18.546875 47.265625 
Q 14.109375 46.140625 10.015625 43.890625 
L 10.015625 52.203125 
Q 14.9375 54.109375 19.578125 55.046875 
Q 24.21875 56 28.609375 56 
Q 40.484375 56 46.34375 49.84375 
Q 52.203125 43.703125 52.203125 31.203125 
z
" id="DejaVuSans-97"/>
      </defs>
      <g transform="translate(42.777668 146.556573)scale(0.1 -0.1)">
       <use xlink:href="#DejaVuSans-97"/>
      </g>
     </g>
    </g>
    <g id="xtick_2">
     <g id="line2d_2">
      <g>
       <use style="stroke:#000000;stroke-width:0.8;" x="170.5725" xlink:href="#m3791eca4df" y="131.958136"/>
      </g>
     </g>
     <g id="text_2">
      <!-- b -->
      <defs>
       <path d="M 48.6875 27.296875 
Q 48.6875 37.203125 44.609375 42.84375 
Q 40.53125 48.484375 33.40625 48.484375 
Q 26.265625 48.484375 22.1875 42.84375 
Q 18.109375 37.203125 18.109375 27.296875 
Q 18.109375 17.390625 22.1875 11.75 
Q 26.265625 6.109375 33.40625 6.109375 
Q 40.53125 6.109375 44.609375 11.75 
Q 48.6875 17.390625 48.6875 27.296875 
z
M 18.109375 46.390625 
Q 20.953125 51.265625 25.265625 53.625 
Q 29.59375 56 35.59375 56 
Q 45.5625 56 51.78125 48.09375 
Q 58.015625 40.1875 58.015625 27.296875 
Q 58.015625 14.40625 51.78125 6.484375 
Q 45.5625 -1.421875 35.59375 -1.421875 
Q 29.59375 -1.421875 25.265625 0.953125 
Q 20.953125 3.328125 18.109375 8.203125 
L 18.109375 0 
L 9.078125 0 
L 9.078125 75.984375 
L 18.109375 75.984375 
z
" id="DejaVuSans-98"/>
      </defs>
      <g transform="translate(167.398281 146.556573)scale(0.1 -0.1)">
       <use xlink:href="#DejaVuSans-98"/>
      </g>
     </g>
    </g>
    <g id="text_3">
     <!-- x -->
     <defs>
      <path d="M 54.890625 54.6875 
L 35.109375 28.078125 
L 55.90625 0 
L 45.3125 0 
L 29.390625 21.484375 
L 13.484375 0 
L 2.875 0 
L 24.125 28.609375 
L 4.6875 54.6875 
L 15.28125 54.6875 
L 29.78125 35.203125 
L 44.28125 54.6875 
z
" id="DejaVuSans-120"/>
     </defs>
     <g transform="translate(192.085 131.958136)scale(0.16 -0.16)">
      <use xlink:href="#DejaVuSans-120"/>
     </g>
    </g>
   </g>
   <g id="matplotlib.axis_2">
    <g id="text_4">
     <!-- y -->
     <defs>
      <path d="M 32.171875 -5.078125 
Q 28.375 -14.84375 24.75 -17.8125 
Q 21.140625 -20.796875 15.09375 -20.796875 
L 7.90625 -20.796875 
L 7.90625 -13.28125 
L 13.1875 -13.28125 
Q 16.890625 -13.28125 18.9375 -11.515625 
Q 21 -9.765625 23.484375 -3.21875 
L 25.09375 0.875 
L 2.984375 54.6875 
L 12.5 54.6875 
L 29.59375 11.921875 
L 46.6875 54.6875 
L 56.203125 54.6875 
z
" id="DejaVuSans-121"/>
     </defs>
     <g transform="translate(7.2 19.3575)scale(0.16 -0.16)">
      <use xlink:href="#DejaVuSans-121"/>
     </g>
    </g>
   </g>
   <g id="line2d_3">
    <path clip-path="url(#pe6254fd58d)" d="M 45.841731 131.958136 
L 45.841731 96.001049 
" style="fill:none;stroke:#000000;stroke-linecap:square;"/>
   </g>
   <g id="line2d_4">
    <path clip-path="url(#pe6254fd58d)" d="M 170.5725 131.958136 
L 170.5725 52.852544 
" style="fill:none;stroke:#000000;stroke-linecap:square;"/>
   </g>
   <g id="line2d_5">
    <path clip-path="url(#pe6254fd58d)" d="M 25.053269 143.464404 
L 27.966435 134.931084 
L 30.914936 126.960225 
L 33.847525 119.672667 
L 36.657576 113.266252 
L 39.421121 107.495285 
L 42.261019 102.090402 
L 44.899203 97.527629 
L 47.456471 93.508951 
L 50.094204 89.763467 
L 52.646327 86.509411 
L 55.2166 83.583509 
L 57.828139 80.95495 
L 60.237436 78.823037 
L 62.720581 76.90553 
L 65.365497 75.159059 
L 67.839803 73.78622 
L 70.458269 72.591627 
L 73.080653 71.644412 
L 75.725991 70.923946 
L 78.446925 70.410497 
L 81.371115 70.094102 
L 84.491618 69.998991 
L 87.683493 70.130967 
L 91.166144 70.503014 
L 95.086176 71.157259 
L 99.509861 72.125185 
L 105.372592 73.645998 
L 117.871095 76.956776 
L 122.608921 77.934225 
L 126.499314 78.509213 
L 129.914988 78.796693 
L 133.140688 78.84548 
L 136.055064 78.67616 
L 138.993769 78.275303 
L 141.861287 77.638162 
L 144.459927 76.831779 
L 146.963271 75.832779 
L 149.593942 74.531293 
L 152.054314 73.06542 
L 154.595573 71.283519 
L 156.994149 69.337954 
L 159.463648 67.053036 
L 161.85596 64.553352 
L 164.418184 61.548685 
L 166.900626 58.299647 
L 169.413197 54.657327 
L 171.994578 50.528568 
L 174.650102 45.855007 
L 177.443992 40.451739 
L 180.206662 34.598454 
L 180.966731 32.896361 
L 180.966731 32.896361 
" style="fill:none;stroke:#0000ff;stroke-linecap:square;stroke-width:2;"/>
   </g>
   <g id="patch_4">
    <path d="M 11.935 145.675765 
L 11.935 30.685 
" style="fill:none;stroke:#000000;stroke-linecap:square;stroke-linejoin:miter;stroke-width:0.8;"/>
   </g>
   <g id="patch_5">
    <path d="M 21.935 131.958136 
L 184.085 131.958136 
" style="fill:none;stroke:#000000;stroke-linecap:square;stroke-linejoin:miter;stroke-width:0.8;"/>
   </g>
   <g id="text_5">
    <!-- Ãrea = $\int_{a}^b f(x) dx$ -->
    <defs>
     <path d="M 34.1875 63.1875 
L 20.796875 26.90625 
L 47.609375 26.90625 
z
M 28.609375 72.90625 
L 39.796875 72.90625 
L 67.578125 0 
L 57.328125 0 
L 50.6875 18.703125 
L 17.828125 18.703125 
L 11.1875 0 
L 0.78125 0 
z
M 36.859375 92.734375 
L 45.90625 92.734375 
L 34.765625 79.84375 
L 27.296875 79.84375 
z
" id="DejaVuSans-193"/>
     <path d="M 41.109375 46.296875 
Q 39.59375 47.171875 37.8125 47.578125 
Q 36.03125 48 33.890625 48 
Q 26.265625 48 22.1875 43.046875 
Q 18.109375 38.09375 18.109375 28.8125 
L 18.109375 0 
L 9.078125 0 
L 9.078125 54.6875 
L 18.109375 54.6875 
L 18.109375 46.1875 
Q 20.953125 51.171875 25.484375 53.578125 
Q 30.03125 56 36.53125 56 
Q 37.453125 56 38.578125 55.875 
Q 39.703125 55.765625 41.0625 55.515625 
z
" id="DejaVuSans-114"/>
     <path d="M 56.203125 29.59375 
L 56.203125 25.203125 
L 14.890625 25.203125 
Q 15.484375 15.921875 20.484375 11.0625 
Q 25.484375 6.203125 34.421875 6.203125 
Q 39.59375 6.203125 44.453125 7.46875 
Q 49.3125 8.734375 54.109375 11.28125 
L 54.109375 2.78125 
Q 49.265625 0.734375 44.1875 -0.34375 
Q 39.109375 -1.421875 33.890625 -1.421875 
Q 20.796875 -1.421875 13.15625 6.1875 
Q 5.515625 13.8125 5.515625 26.8125 
Q 5.515625 40.234375 12.765625 48.109375 
Q 20.015625 56 32.328125 56 
Q 43.359375 56 49.78125 48.890625 
Q 56.203125 41.796875 56.203125 29.59375 
z
M 47.21875 32.234375 
Q 47.125 39.59375 43.09375 43.984375 
Q 39.0625 48.390625 32.421875 48.390625 
Q 24.90625 48.390625 20.390625 44.140625 
Q 15.875 39.890625 15.1875 32.171875 
z
" id="DejaVuSans-101"/>
     <path id="DejaVuSans-32"/>
     <path d="M 10.59375 45.40625 
L 73.1875 45.40625 
L 73.1875 37.203125 
L 10.59375 37.203125 
z
M 10.59375 25.484375 
L 73.1875 25.484375 
L 73.1875 17.1875 
L 10.59375 17.1875 
z
" id="DejaVuSans-61"/>
     <path d="M 10.59375 -217.09375 
Q 13.09375 -219.578125 16.703125 -219.578125 
Q 20.3125 -219.578125 23.28125 -214.625 
Q 26.265625 -209.671875 28.515625 -202.25 
Q 30.765625 -194.828125 31.8125 -189.8125 
Q 32.859375 -184.8125 34.421875 -176.90625 
Q 35.84375 -169.53125 37.15625 -162.109375 
Q 38.484375 -154.6875 39.875 -146.3125 
Q 41.265625 -137.9375 42.796875 -129.3125 
Q 44.34375 -120.703125 46.296875 -110.984375 
Q 48.921875 -98.1875 50.0625 -92.6875 
Q 51.21875 -87.203125 53.5625 -76.828125 
Q 55.90625 -66.453125 56.65625 -63.15625 
Q 57.421875 -59.859375 60.984375 -45.125 
L 62.3125 -39.890625 
Q 64.546875 -31.109375 65.765625 -26.59375 
Q 67 -22.078125 69.5625 -15.546875 
Q 72.125 -9.03125 75.578125 -4.515625 
Q 79.046875 0 83.203125 0 
Q 86.140625 0 88.640625 -1.3125 
Q 91.15625 -2.640625 92.71875 -4.9375 
Q 94.28125 -7.234375 94.28125 -10.203125 
Q 94.28125 -12.359375 92.859375 -13.765625 
Q 91.453125 -15.1875 89.3125 -15.1875 
Q 87.109375 -15.1875 85.640625 -13.765625 
Q 84.1875 -12.359375 84.1875 -10.203125 
Q 84.1875 -8.015625 85.640625 -6.546875 
Q 87.109375 -5.078125 89.3125 -5.078125 
Q 86.71875 -2.59375 83.296875 -2.59375 
Q 81.453125 -2.59375 79.21875 -8 
Q 77 -13.421875 75.125 -20.765625 
Q 73.25 -28.125 72.234375 -33.03125 
Q 71.234375 -37.9375 69.828125 -45.3125 
Q 68.171875 -53.65625 67.0625 -59.859375 
Q 65.96875 -66.0625 64.40625 -75.1875 
Q 62.84375 -84.328125 61.34375 -92.578125 
Q 59.859375 -100.828125 57.8125 -111.1875 
Q 56.5 -117.71875 54 -129.5625 
Q 51.515625 -141.40625 50.703125 -144.96875 
Q 49.90625 -148.53125 46.609375 -162.390625 
Q 43.3125 -176.265625 43.109375 -177.09375 
L 41.890625 -181.6875 
Q 39.3125 -192.28125 36.6875 -200.3125 
Q 34.078125 -208.34375 29.015625 -215.28125 
Q 23.96875 -222.21875 16.703125 -222.21875 
Q 12.359375 -222.21875 8.984375 -219.28125 
Q 5.609375 -216.359375 5.609375 -212.109375 
Q 5.609375 -209.90625 7.078125 -208.4375 
Q 8.546875 -206.984375 10.6875 -206.984375 
Q 12.109375 -206.984375 13.25 -207.65625 
Q 14.40625 -208.34375 15.0625 -209.515625 
Q 15.71875 -210.6875 15.71875 -212.109375 
Q 15.71875 -214.265625 14.25 -215.671875 
Q 12.796875 -217.09375 10.59375 -217.09375 
z
" id="Cmex10-90"/>
     <path d="M 17.28125 -1.125 
Q 11.234375 -1.125 7.859375 3.609375 
Q 4.5 8.34375 4.5 14.703125 
Q 4.5 15.625 4.953125 18.328125 
Q 5.421875 21.046875 5.421875 21.6875 
L 15.09375 60.5 
Q 15.484375 62.203125 15.578125 63.1875 
Q 15.578125 64.796875 9.078125 64.796875 
Q 8.109375 64.796875 8.109375 66.109375 
Q 8.15625 66.359375 8.328125 66.984375 
Q 8.5 67.625 8.765625 67.96875 
Q 9.03125 68.3125 9.515625 68.3125 
L 23 69.390625 
Q 24.21875 69.390625 24.21875 68.109375 
L 16.796875 38.625 
Q 22.46875 44.1875 28.21875 44.1875 
Q 32.46875 44.1875 35.515625 41.9375 
Q 38.578125 39.703125 40.09375 36.03125 
Q 41.609375 32.375 41.609375 28.21875 
Q 41.609375 23.390625 39.71875 18.234375 
Q 37.84375 13.09375 34.515625 8.671875 
Q 31.203125 4.25 26.75 1.5625 
Q 22.3125 -1.125 17.28125 -1.125 
z
M 17.484375 1.515625 
Q 20.90625 1.515625 23.875 4.375 
Q 26.859375 7.234375 28.71875 10.796875 
Q 30.71875 14.796875 32.453125 21.65625 
Q 34.1875 28.515625 34.1875 32.625 
Q 34.1875 36.1875 32.6875 38.890625 
Q 31.203125 41.609375 27.984375 41.609375 
Q 24.359375 41.609375 21.0625 38.9375 
Q 17.78125 36.28125 15.28125 32.625 
L 12.5 21.296875 
Q 10.890625 14.984375 10.796875 11.1875 
Q 10.796875 7.421875 12.421875 4.46875 
Q 14.0625 1.515625 17.484375 1.515625 
z
" id="Cmmi10-98"/>
     <path d="M 17.390625 -1.125 
Q 11.078125 -1.125 7.4375 3.640625 
Q 3.8125 8.40625 3.8125 14.890625 
Q 3.8125 21.296875 7.125 28.171875 
Q 10.453125 35.0625 16.09375 39.625 
Q 21.734375 44.1875 28.21875 44.1875 
Q 31.203125 44.1875 33.546875 42.578125 
Q 35.890625 40.96875 37.203125 38.1875 
Q 38.328125 42.1875 41.609375 42.1875 
Q 42.875 42.1875 43.71875 41.421875 
Q 44.578125 40.671875 44.578125 39.40625 
Q 44.578125 39.109375 44.546875 38.953125 
Q 44.53125 38.8125 44.484375 38.625 
L 37.5 10.6875 
Q 36.8125 7.71875 36.8125 5.8125 
Q 36.8125 1.515625 39.703125 1.515625 
Q 42.828125 1.515625 44.453125 5.484375 
Q 46.09375 9.46875 47.21875 14.703125 
Q 47.40625 15.28125 48 15.28125 
L 49.21875 15.28125 
Q 49.609375 15.28125 49.84375 14.9375 
Q 50.09375 14.59375 50.09375 14.3125 
Q 48.34375 7.328125 46.265625 3.09375 
Q 44.1875 -1.125 39.5 -1.125 
Q 36.140625 -1.125 33.546875 0.84375 
Q 30.953125 2.828125 30.328125 6.109375 
Q 23.875 -1.125 17.390625 -1.125 
z
M 17.484375 1.515625 
Q 21.09375 1.515625 24.484375 4.21875 
Q 27.875 6.9375 30.328125 10.59375 
Q 30.421875 10.6875 30.421875 10.890625 
L 35.796875 32.625 
L 35.890625 32.90625 
Q 35.296875 36.46875 33.3125 39.03125 
Q 31.34375 41.609375 27.984375 41.609375 
Q 24.609375 41.609375 21.703125 38.84375 
Q 18.796875 36.078125 16.796875 32.328125 
Q 14.84375 28.328125 13.0625 21.34375 
Q 11.28125 14.359375 11.28125 10.5 
Q 11.28125 7.03125 12.765625 4.265625 
Q 14.265625 1.515625 17.484375 1.515625 
z
" id="Cmmi10-97"/>
     <path d="M 9.71875 -16.5 
Q 11.578125 -17.921875 14.203125 -17.921875 
Q 17.78125 -17.921875 20.015625 -10.015625 
Q 20.953125 -6.203125 25.09375 15.09375 
L 29.6875 39.59375 
L 21.09375 39.59375 
Q 20.125 39.59375 20.125 40.921875 
Q 20.515625 43.109375 21.390625 43.109375 
L 30.328125 43.109375 
L 31.5 49.609375 
Q 32.078125 52.640625 32.5625 54.8125 
Q 33.0625 56.984375 33.625 58.828125 
Q 34.1875 60.6875 35.296875 62.984375 
Q 37.015625 66.265625 39.921875 68.390625 
Q 42.828125 70.515625 46.1875 70.515625 
Q 48.390625 70.515625 50.46875 69.703125 
Q 52.546875 68.890625 53.859375 67.28125 
Q 55.171875 65.671875 55.171875 63.484375 
Q 55.171875 60.9375 53.484375 59.046875 
Q 51.8125 57.171875 49.421875 57.171875 
Q 47.796875 57.171875 46.65625 58.171875 
Q 45.515625 59.1875 45.515625 60.796875 
Q 45.515625 62.984375 47 64.625 
Q 48.484375 66.265625 50.6875 66.5 
Q 48.828125 67.921875 46.09375 67.921875 
Q 44.578125 67.921875 43.234375 66.5 
Q 41.890625 65.09375 41.5 63.484375 
Q 40.875 60.9375 38.71875 49.703125 
L 37.5 43.109375 
L 47.796875 43.109375 
Q 48.78125 43.109375 48.78125 41.796875 
Q 48.734375 41.546875 48.578125 40.9375 
Q 48.4375 40.328125 48.171875 39.953125 
Q 47.90625 39.59375 47.515625 39.59375 
L 36.8125 39.59375 
L 32.171875 15.1875 
Q 31.296875 9.859375 30.140625 4.359375 
Q 29 -1.125 26.921875 -6.90625 
Q 24.859375 -12.703125 21.625 -16.609375 
Q 18.40625 -20.515625 14.015625 -20.515625 
Q 10.640625 -20.515625 7.984375 -18.578125 
Q 5.328125 -16.65625 5.328125 -13.484375 
Q 5.328125 -10.9375 6.953125 -9.046875 
Q 8.59375 -7.171875 11.078125 -7.171875 
Q 12.75 -7.171875 13.859375 -8.171875 
Q 14.984375 -9.1875 14.984375 -10.796875 
Q 14.984375 -12.9375 13.390625 -14.71875 
Q 11.8125 -16.5 9.71875 -16.5 
z
" id="Cmmi10-102"/>
     <path d="M 31 -24.8125 
Q 25.4375 -20.40625 21.40625 -14.71875 
Q 17.390625 -9.03125 14.8125 -2.578125 
Q 12.25 3.859375 10.984375 10.890625 
Q 9.71875 17.921875 9.71875 25 
Q 9.71875 32.171875 10.984375 39.203125 
Q 12.25 46.234375 14.859375 52.734375 
Q 17.484375 59.234375 21.53125 64.890625 
Q 25.59375 70.5625 31 74.8125 
Q 31 75 31.5 75 
L 32.421875 75 
Q 32.71875 75 32.953125 74.734375 
Q 33.203125 74.46875 33.203125 74.125 
Q 33.203125 73.6875 33.015625 73.484375 
Q 28.125 68.703125 24.875 63.234375 
Q 21.625 57.765625 19.640625 51.578125 
Q 17.671875 45.40625 16.796875 38.78125 
Q 15.921875 32.171875 15.921875 25 
Q 15.921875 -6.78125 32.90625 -23.296875 
Q 33.203125 -23.578125 33.203125 -24.125 
Q 33.203125 -24.359375 32.9375 -24.671875 
Q 32.671875 -25 32.421875 -25 
L 31.5 -25 
Q 31 -25 31 -24.8125 
z
" id="Cmr10-40"/>
     <path d="M 7.8125 2.875 
Q 9.578125 1.515625 12.796875 1.515625 
Q 15.921875 1.515625 18.3125 4.515625 
Q 20.703125 7.515625 21.578125 11.078125 
L 26.125 28.8125 
Q 27.203125 33.640625 27.203125 35.40625 
Q 27.203125 37.890625 25.8125 39.75 
Q 24.421875 41.609375 21.921875 41.609375 
Q 18.75 41.609375 15.96875 39.625 
Q 13.1875 37.640625 11.28125 34.59375 
Q 9.375 31.546875 8.59375 28.421875 
Q 8.40625 27.78125 7.8125 27.78125 
L 6.59375 27.78125 
Q 5.8125 27.78125 5.8125 28.71875 
L 5.8125 29 
Q 6.78125 32.71875 9.125 36.25 
Q 11.46875 39.796875 14.859375 41.984375 
Q 18.265625 44.1875 22.125 44.1875 
Q 25.78125 44.1875 28.734375 42.234375 
Q 31.6875 40.28125 32.90625 36.921875 
Q 34.625 39.984375 37.28125 42.078125 
Q 39.9375 44.1875 43.109375 44.1875 
Q 45.265625 44.1875 47.5 43.421875 
Q 49.75 42.671875 51.171875 41.109375 
Q 52.59375 39.546875 52.59375 37.203125 
Q 52.59375 34.671875 50.953125 32.828125 
Q 49.3125 31 46.78125 31 
Q 45.171875 31 44.09375 32.03125 
Q 43.015625 33.0625 43.015625 34.625 
Q 43.015625 36.71875 44.453125 38.296875 
Q 45.90625 39.890625 47.90625 40.1875 
Q 46.09375 41.609375 42.921875 41.609375 
Q 39.703125 41.609375 37.328125 38.625 
Q 34.96875 35.640625 33.984375 31.984375 
L 29.59375 14.3125 
Q 28.515625 10.296875 28.515625 7.71875 
Q 28.515625 5.171875 29.953125 3.34375 
Q 31.390625 1.515625 33.796875 1.515625 
Q 38.484375 1.515625 42.15625 5.640625 
Q 45.84375 9.765625 47.015625 14.703125 
Q 47.21875 15.28125 47.796875 15.28125 
L 49.03125 15.28125 
Q 49.421875 15.28125 49.65625 15.015625 
Q 49.90625 14.75 49.90625 14.40625 
Q 49.90625 14.3125 49.8125 14.109375 
Q 48.390625 8.15625 43.84375 3.515625 
Q 39.3125 -1.125 33.59375 -1.125 
Q 29.9375 -1.125 26.984375 0.84375 
Q 24.03125 2.828125 22.796875 6.203125 
Q 21.234375 3.265625 18.46875 1.0625 
Q 15.71875 -1.125 12.59375 -1.125 
Q 10.453125 -1.125 8.171875 -0.359375 
Q 5.90625 0.390625 4.484375 1.953125 
Q 3.078125 3.515625 3.078125 5.90625 
Q 3.078125 8.25 4.703125 10.171875 
Q 6.34375 12.109375 8.796875 12.109375 
Q 10.453125 12.109375 11.578125 11.109375 
Q 12.703125 10.109375 12.703125 8.5 
Q 12.703125 6.390625 11.296875 4.828125 
Q 9.90625 3.265625 7.8125 2.875 
z
" id="Cmmi10-120"/>
     <path d="M 6.5 -25 
Q 5.609375 -25 5.609375 -24.125 
Q 5.609375 -23.6875 5.8125 -23.484375 
Q 22.90625 -6.78125 22.90625 25 
Q 22.90625 56.78125 6 73.296875 
Q 5.609375 73.53125 5.609375 74.125 
Q 5.609375 74.46875 5.875 74.734375 
Q 6.15625 75 6.5 75 
L 7.421875 75 
Q 7.71875 75 7.90625 74.8125 
Q 15.09375 69.140625 19.875 61.03125 
Q 24.65625 52.9375 26.875 43.75 
Q 29.109375 34.578125 29.109375 25 
Q 29.109375 17.921875 27.90625 11.0625 
Q 26.703125 4.203125 24.09375 -2.453125 
Q 21.484375 -9.125 17.484375 -14.765625 
Q 13.484375 -20.40625 7.90625 -24.8125 
Q 7.71875 -25 7.421875 -25 
z
" id="Cmr10-41"/>
     <path d="M 17.390625 -1.125 
Q 11.078125 -1.125 7.4375 3.640625 
Q 3.8125 8.40625 3.8125 14.890625 
Q 3.8125 21.296875 7.125 28.171875 
Q 10.453125 35.0625 16.09375 39.625 
Q 21.734375 44.1875 28.21875 44.1875 
Q 31.15625 44.1875 33.515625 42.546875 
Q 35.890625 40.921875 37.203125 38.1875 
L 42.828125 60.5 
Q 43.21875 62.203125 43.3125 63.1875 
Q 43.3125 64.796875 36.8125 64.796875 
Q 35.796875 64.796875 35.796875 66.109375 
Q 35.84375 66.359375 36.015625 66.984375 
Q 36.1875 67.625 36.453125 67.96875 
Q 36.71875 68.3125 37.203125 68.3125 
L 50.6875 69.390625 
Q 51.90625 69.390625 51.90625 68.109375 
L 37.5 10.59375 
Q 36.8125 8.9375 36.8125 5.8125 
Q 36.8125 1.515625 39.703125 1.515625 
Q 42.828125 1.515625 44.453125 5.484375 
Q 46.09375 9.46875 47.21875 14.703125 
Q 47.40625 15.28125 48 15.28125 
L 49.21875 15.28125 
Q 49.609375 15.28125 49.84375 14.9375 
Q 50.09375 14.59375 50.09375 14.3125 
Q 48.34375 7.328125 46.265625 3.09375 
Q 44.1875 -1.125 39.5 -1.125 
Q 36.140625 -1.125 33.546875 0.84375 
Q 30.953125 2.828125 30.328125 6.109375 
Q 23.875 -1.125 17.390625 -1.125 
z
M 17.484375 1.515625 
Q 21.09375 1.515625 24.484375 4.21875 
Q 27.875 6.9375 30.328125 10.59375 
Q 30.421875 10.6875 30.421875 10.984375 
L 35.890625 33.015625 
Q 35.296875 36.53125 33.296875 39.0625 
Q 31.296875 41.609375 27.984375 41.609375 
Q 24.609375 41.609375 21.703125 38.84375 
Q 18.796875 36.078125 16.796875 32.328125 
Q 14.84375 28.328125 13.0625 21.34375 
Q 11.28125 14.359375 11.28125 10.5 
Q 11.28125 7.03125 12.765625 4.265625 
Q 14.265625 1.515625 17.484375 1.515625 
z
" id="Cmmi10-100"/>
    </defs>
    <g transform="translate(59.487115 108.052466)scale(0.12 -0.12)">
     <use transform="translate(0 0.990104)" xlink:href="#DejaVuSans-193"/>
     <use transform="translate(68.408203 0.990104)" xlink:href="#DejaVuSans-114"/>
     <use transform="translate(109.521484 0.990104)" xlink:href="#DejaVuSans-101"/>
     <use transform="translate(171.044922 0.990104)" xlink:href="#DejaVuSans-97"/>
     <use transform="translate(232.324219 0.990104)" xlink:href="#DejaVuSans-32"/>
     <use transform="translate(264.111328 0.990104)" xlink:href="#DejaVuSans-61"/>
     <use transform="translate(347.900391 0.990104)" xlink:href="#DejaVuSans-32"/>
     <use transform="translate(379.6875 145.432813)" xlink:href="#Cmex10-90"/>
     <use transform="translate(488.287773 128.426562)scale(0.7)" xlink:href="#Cmmi10-98"/>
     <use transform="translate(427.621836 -93.792187)scale(0.7)" xlink:href="#Cmmi10-97"/>
     <use transform="translate(518.331719 0.990104)" xlink:href="#Cmmi10-102"/>
     <use transform="translate(567.208672 0.990104)" xlink:href="#Cmr10-40"/>
     <use transform="translate(606.027031 0.990104)" xlink:href="#Cmmi10-120"/>
     <use transform="translate(663.107109 0.990104)" xlink:href="#Cmr10-41"/>
     <use transform="translate(701.925469 0.990104)" xlink:href="#Cmmi10-100"/>
     <use transform="translate(753.927422 0.990104)" xlink:href="#Cmmi10-120"/>
    </g>
   </g>
  </g>
 </g>
 <defs>
  <clipPath id="pe6254fd58d">
   <rect height="114.990765" width="162.15" x="21.935" y="30.685"/>
  </clipPath>
 </defs>
</svg>
