<?xml version="1.0" encoding="utf-8" standalone="no"?>
<!DOCTYPE svg PUBLIC "-//W3C//DTD SVG 1.1//EN"
  "http://www.w3.org/Graphics/SVG/1.1/DTD/svg11.dtd">
<!-- Created with matplotlib (https://matplotlib.org/) -->
<svg height="280.710403pt" version="1.1" viewBox="0 0 243.838373 280.710403" width="243.838373pt" xmlns="http://www.w3.org/2000/svg" xmlns:xlink="http://www.w3.org/1999/xlink">
 <defs>
  <style type="text/css">
*{stroke-linecap:butt;stroke-linejoin:round;}
  </style>
 </defs>
 <g id="figure_1">
  <g id="patch_1">
   <path d="M 0 280.710403 
L 243.838373 280.710403 
L 243.838373 0 
L 0 0 
z
" style="fill:#ffffff;"/>
  </g>
  <g id="axes_1">
   <g id="patch_2">
    <path d="M 23.732333 261.266538 
L 189.75104 261.266538 
L 189.75104 30.685 
L 23.732333 30.685 
z
" style="fill:#ffffff;"/>
   </g>
   <g id="patch_3">
    <path clip-path="url(#p9a0d112e4b)" d="M 26.925 256.832278 
L 26.925 247.963757 
L 27.084669 247.835562 
L 27.244338 247.706448 
L 27.404006 247.576413 
L 27.563675 247.445458 
L 27.768085 247.276466 
L 27.972494 247.105966 
L 28.067878 247.02589 
L 28.257639 246.865606 
L 28.4474 246.704023 
L 28.637161 246.541141 
L 28.826922 246.376959 
L 29.083806 246.152632 
L 29.340691 245.925923 
L 29.579931 245.712646 
L 29.81917 245.497303 
L 30.004435 245.329125 
L 30.1897 245.159708 
L 30.380602 244.983841 
L 30.571504 244.806659 
L 30.803727 244.589352 
L 30.984328 244.419008 
L 31.164928 244.247486 
L 31.345528 244.074788 
L 31.526128 243.900913 
L 31.750214 243.683535 
L 31.974301 243.464345 
L 32.208467 243.233359 
L 32.442634 243.000394 
L 32.746211 242.69543 
L 33.035463 242.401764 
L 33.233895 242.198557 
L 33.432328 241.993928 
L 33.635332 241.783117 
L 33.838335 241.570818 
L 34.021814 241.377659 
L 34.205292 241.183285 
L 34.38877 240.987696 
L 34.572249 240.790893 
L 34.861687 240.477966 
L 35.151125 240.162016 
L 35.312772 239.984246 
L 35.47442 239.805533 
L 35.634121 239.628046 
L 35.793823 239.449639 
L 36.051038 239.160362 
L 36.308253 238.868697 
L 36.556322 238.585143 
L 36.80439 238.299368 
L 36.962592 238.11596 
L 37.120794 237.931649 
L 37.300762 237.720881 
L 37.48073 237.508945 
L 37.724638 237.219846 
L 37.968546 236.9286 
L 38.252447 236.586897 
L 38.536347 236.242285 
L 38.719348 236.018608 
L 38.902349 235.793723 
L 39.202112 235.422742 
L 39.501875 235.048518 
L 39.751559 234.734338 
L 40.001242 234.417909 
L 40.164406 234.209913 
L 40.345604 233.977801 
L 40.526802 233.744505 
L 40.74278 233.464881 
L 40.958759 233.183574 
L 41.174737 232.900584 
L 41.390715 232.615911 
L 41.608357 232.327341 
L 41.894706 231.945071 
L 42.181054 231.559843 
L 42.368419 231.306177 
L 42.571541 231.029748 
L 42.774663 230.751829 
L 42.977785 230.472422 
L 43.180907 230.191527 
L 43.283721 230.048778 
L 43.514484 229.726995 
L 43.745248 229.40329 
L 44.024598 229.008858 
L 44.303949 228.611611 
L 44.467702 228.377438 
L 44.631455 228.142298 
L 44.795209 227.90619 
L 44.958962 227.669114 
L 45.147293 227.395261 
L 45.335623 227.120128 
L 45.542359 226.816632 
L 45.716146 226.560314 
L 45.889933 226.302906 
L 46.06372 226.044408 
L 46.237507 225.784821 
L 46.36389 225.595356 
L 46.674393 225.127425 
L 46.984896 224.656016 
L 47.253838 224.244892 
L 47.522781 223.831159 
L 47.681056 223.586454 
L 47.83933 223.340844 
L 48.115588 222.909985 
L 48.391845 222.476373 
L 48.638398 222.087058 
L 48.884951 221.69555 
L 49.090854 221.366911 
L 49.282539 221.05959 
L 49.474225 220.750942 
L 49.636591 220.488465 
L 49.798958 220.225038 
L 49.961325 219.960658 
L 50.123692 219.695328 
L 50.348651 219.326141 
L 50.55657 218.983295 
L 50.764489 218.638889 
L 50.972408 218.292923 
L 51.180328 217.945398 
L 51.339224 217.678759 
L 51.49812 217.41121 
L 51.772127 216.947699 
L 51.950788 216.644014 
L 52.12945 216.339178 
L 52.308112 216.03319 
L 52.486773 215.72605 
L 52.663155 215.421699 
L 52.82827 215.135773 
L 52.993385 214.848863 
L 53.1585 214.560969 
L 53.323615 214.272092 
L 53.541589 213.889228 
L 53.759563 213.504651 
L 53.997512 213.082872 
L 54.235462 212.65905 
L 54.493765 212.196663 
L 54.752068 211.731869 
L 54.950373 211.373402 
L 55.148678 211.013516 
L 55.31658 210.707697 
L 55.484482 210.400861 
L 55.654368 210.089363 
L 55.824254 209.776824 
L 56.044938 209.369277 
L 56.265623 208.959972 
L 56.449009 208.618507 
L 56.632395 208.275829 
L 56.83274 207.900076 
L 57.033084 207.522874 
L 57.201982 207.203754 
L 57.370879 206.883606 
L 57.539776 206.562428 
L 57.708674 206.24022 
L 57.916971 205.841433 
L 58.122113 205.447155 
L 58.327255 205.051358 
L 58.532398 204.654043 
L 58.73754 204.255209 
L 58.878117 203.981025 
L 59.081174 203.583721 
L 59.28423 203.184929 
L 59.477089 202.804788 
L 59.669947 202.423305 
L 59.862806 202.040479 
L 60.055665 201.656312 
L 60.235641 201.296594 
L 60.415618 200.935707 
L 60.608016 200.548621 
L 60.784979 200.191411 
L 60.961941 199.833071 
L 61.138903 199.473601 
L 61.315866 199.113001 
L 61.570049 198.593068 
L 61.824232 198.070805 
L 62.015672 197.67592 
L 62.207112 197.279713 
L 62.493481 196.68457 
L 62.77985 196.086467 
L 62.818172 196.006205 
L 63.094995 195.424844 
L 63.371818 194.840719 
L 63.67772 194.192016 
L 63.983623 193.539936 
L 64.216495 193.041269 
L 64.459847 192.518072 
L 64.703198 191.992737 
L 65.00488 191.338517 
L 65.306561 190.681013 
L 65.573217 190.09711 
L 65.839873 189.510642 
L 66.135418 188.857639 
L 66.311352 188.46742 
L 66.487286 188.076084 
L 66.718283 187.560573 
L 66.94928 187.043136 
L 67.144669 186.603958 
L 67.340058 186.163403 
L 67.60295 185.56847 
L 67.865843 184.971044 
L 68.040966 184.57169 
L 68.216089 184.17123 
L 68.474446 183.578416 
L 68.732803 182.983194 
L 68.919868 182.550715 
L 69.106934 182.116973 
L 69.305944 181.654151 
L 69.504953 181.189899 
L 69.703963 180.724219 
L 69.902972 180.257109 
L 69.994283 180.04231 
L 70.272957 179.384894 
L 70.551632 178.724676 
L 70.710004 178.348221 
L 70.868376 177.970862 
L 71.026749 177.592597 
L 71.185121 177.213427 
L 71.464633 176.542021 
L 71.689468 175.999907 
L 71.914302 175.45597 
L 72.164868 174.847632 
L 72.415434 174.23703 
L 72.65262 173.656944 
L 72.889806 173.074829 
L 73.049383 172.682046 
L 73.208959 172.288344 
L 73.44285 171.709634 
L 73.676741 171.12895 
L 73.838305 170.726681 
L 73.99987 170.32347 
L 74.161434 169.919316 
L 74.322998 169.514221 
L 74.532103 168.988528 
L 74.741207 168.461258 
L 75.022462 167.749568 
L 75.233495 167.213693 
L 75.444529 166.67621 
L 75.620105 166.227808 
L 75.795681 165.778295 
L 75.971258 165.327669 
L 76.146834 164.87593 
L 76.340178 164.377192 
L 76.533522 163.877104 
L 76.749521 163.316823 
L 77.044768 162.548256 
L 77.340016 161.776543 
L 77.550242 161.225139 
L 77.715601 160.7903 
L 77.880959 160.354475 
L 78.046317 159.917663 
L 78.211675 159.479864 
L 78.504057 158.703345 
L 78.74056 158.072976 
L 78.977063 157.440588 
L 79.137655 157.010029 
L 79.298247 156.57854 
L 79.458839 156.14612 
L 79.619431 155.712769 
L 79.769741 155.30632 
L 80.056175 154.529526 
L 80.342609 153.749771 
L 80.510149 153.292307 
L 80.677689 152.83383 
L 80.84523 152.374341 
L 81.01277 151.913838 
L 81.289499 151.151001 
L 81.50853 150.545254 
L 81.727561 149.937777 
L 81.981023 149.232649 
L 82.234484 148.525202 
L 82.510041 147.753453 
L 82.785599 146.978963 
L 83.033517 146.279815 
L 83.281435 145.57845 
L 83.466116 145.054544 
L 83.650797 144.529406 
L 83.893556 143.837251 
L 84.136316 143.142968 
L 84.302509 142.666438 
L 84.562855 141.917934 
L 84.823201 141.166984 
L 85.081187 140.420432 
L 85.339172 139.671478 
L 85.569101 139.001951 
L 85.79903 138.330516 
L 85.992953 137.762742 
L 86.186876 137.193612 
L 86.436823 136.45806 
L 86.662896 135.790821 
L 86.888969 135.121738 
L 87.076017 134.566762 
L 87.263064 134.010523 
L 87.450112 133.453022 
L 87.637159 132.894258 
L 87.756971 132.535682 
L 87.931364 132.012832 
L 88.105756 131.488885 
L 88.280148 130.963841 
L 88.45454 130.437699 
L 88.707585 129.67231 
L 88.96063 128.904611 
L 89.197003 128.185402 
L 89.433377 127.464177 
L 89.667606 126.747509 
L 89.901834 126.028861 
L 90.16104 125.231274 
L 90.420245 124.431262 
L 90.615443 123.8272 
L 90.810642 123.221764 
L 90.974101 122.713714 
L 91.13756 122.2047 
L 91.355879 121.52335 
L 91.539012 120.950482 
L 91.722146 120.376404 
L 91.90528 119.801115 
L 92.088413 119.224617 
L 92.332289 118.455025 
L 92.51216 117.886037 
L 92.692031 117.315882 
L 92.857081 116.791679 
L 93.02213 116.266493 
L 93.18718 115.740324 
L 93.35223 115.213172 
L 93.603803 114.407784 
L 93.855376 113.600113 
L 94.105798 112.793868 
L 94.35622 111.98536 
L 94.554602 111.343259 
L 94.745816 110.723018 
L 94.937029 110.101458 
L 95.128243 109.478579 
L 95.319457 108.85438 
L 95.540242 108.132004 
L 95.761028 107.40787 
L 95.896231 106.963563 
L 96.130393 106.192494 
L 96.364554 105.419447 
L 96.524529 104.89018 
L 96.684503 104.359989 
L 96.867699 103.751703 
L 97.050894 103.142206 
L 97.23409 102.531498 
L 97.417286 101.919579 
L 97.679294 101.042304 
L 97.941302 100.162552 
L 98.118461 99.566294 
L 98.295621 98.968904 
L 98.51006 98.244288 
L 98.695547 97.616171 
L 98.881033 96.986813 
L 99.066519 96.356214 
L 99.252005 95.724373 
L 99.429166 95.11973 
L 99.606328 94.513955 
L 99.798244 93.856448 
L 99.990161 93.197613 
L 100.246264 92.316361 
L 100.477869 91.517367 
L 100.709475 90.716437 
L 100.969487 89.814967 
L 101.229499 88.911056 
L 101.420356 88.246009 
L 101.611212 87.579647 
L 101.802068 86.911971 
L 101.992924 86.24298 
L 102.202155 85.50807 
L 102.411387 84.77158 
L 102.607356 84.080339 
L 102.803326 83.387713 
L 103.024449 82.604521 
L 103.277321 81.706714 
L 103.530194 80.8066 
L 103.826892 79.747543 
L 104.123591 78.685309 
L 104.314744 77.999262 
L 104.505898 77.311897 
L 104.791936 76.280876 
L 105.077974 75.246903 
L 105.219543 74.734067 
L 105.438625 73.939013 
L 105.657707 73.142226 
L 105.925554 72.165729 
L 106.193402 71.186644 
L 106.355209 70.593922 
L 106.517016 70.000256 
L 106.678823 69.405645 
L 106.84063 68.810089 
L 107.096833 67.865167 
L 107.353035 66.917875 
L 107.53758 66.234063 
L 107.722125 65.549022 
L 107.911609 64.844371 
L 108.101093 64.138424 
L 108.305184 63.376604 
L 108.509276 62.613282 
L 108.717415 61.833275 
L 108.925554 61.051705 
L 109.197367 60.028681 
L 109.355264 59.433178 
L 109.513161 58.836777 
L 109.671058 58.239475 
L 109.828955 57.641274 
L 109.991329 57.025176 
L 110.153702 56.408127 
L 110.316076 55.790126 
L 110.478449 55.171174 
L 110.529831 54.975113 
L 110.734597 54.19283 
L 110.939362 53.409035 
L 111.144128 52.623727 
L 111.348894 51.836906 
L 111.585242 50.926845 
L 111.82159 50.014768 
L 112.092266 48.967748 
L 112.349296 47.971062 
L 112.606326 46.971992 
L 112.85749 45.99342 
L 113.108655 45.012571 
L 113.403426 43.858525 
L 113.611767 43.040967 
L 113.820108 42.221843 
L 113.999748 41.514304 
L 114.179388 40.805601 
L 114.343772 40.156066 
L 114.508155 39.505557 
L 114.76316 38.494504 
L 115.018165 37.481105 
L 115.314186 36.301764 
L 115.610207 35.11926 
L 115.610207 256.832278 
z
" style="fill:#808080;opacity:0.5;"/>
   </g>
   <g id="matplotlib.axis_1">
    <g id="xtick_1">
     <g id="line2d_1">
      <defs>
       <path d="M 0 0 
L 0 3.5 
" id="ma189f3170d" style="stroke:#000000;stroke-width:0.8;"/>
      </defs>
      <g>
       <use style="stroke:#000000;stroke-width:0.8;" x="26.925" xlink:href="#ma189f3170d" y="256.832278"/>
      </g>
     </g>
    </g>
    <g id="xtick_2">
     <g id="line2d_2">
      <g>
       <use style="stroke:#000000;stroke-width:0.8;" x="115.610207" xlink:href="#ma189f3170d" y="256.832278"/>
      </g>
     </g>
     <g id="text_1">
      <!-- 1 -->
      <defs>
       <path d="M 12.40625 8.296875 
L 28.515625 8.296875 
L 28.515625 63.921875 
L 10.984375 60.40625 
L 10.984375 69.390625 
L 28.421875 72.90625 
L 38.28125 72.90625 
L 38.28125 8.296875 
L 54.390625 8.296875 
L 54.390625 0 
L 12.40625 0 
z
" id="DejaVuSans-49"/>
      </defs>
      <g transform="translate(112.428957 271.430716)scale(0.1 -0.1)">
       <use xlink:href="#DejaVuSans-49"/>
      </g>
     </g>
    </g>
    <g id="text_2">
     <!-- x -->
     <defs>
      <path d="M 54.890625 54.6875 
L 35.109375 28.078125 
L 55.90625 0 
L 45.3125 0 
L 29.390625 21.484375 
L 13.484375 0 
L 2.875 0 
L 24.125 28.609375 
L 4.6875 54.6875 
L 15.28125 54.6875 
L 29.78125 35.203125 
L 44.28125 54.6875 
z
" id="DejaVuSans-120"/>
     </defs>
     <g transform="translate(197.75104 256.832278)scale(0.16 -0.16)">
      <use xlink:href="#DejaVuSans-120"/>
     </g>
    </g>
   </g>
   <g id="matplotlib.axis_2">
    <g id="ytick_1">
     <g id="line2d_3">
      <defs>
       <path d="M 0 0 
L -3.5 0 
" id="md864af86da" style="stroke:#000000;stroke-width:0.8;"/>
      </defs>
      <g>
       <use style="stroke:#000000;stroke-width:0.8;" x="26.925" xlink:href="#md864af86da" y="212.489675"/>
      </g>
     </g>
     <g id="text_3">
      <!-- 5 -->
      <defs>
       <path d="M 10.796875 72.90625 
L 49.515625 72.90625 
L 49.515625 64.59375 
L 19.828125 64.59375 
L 19.828125 46.734375 
Q 21.96875 47.46875 24.109375 47.828125 
Q 26.265625 48.1875 28.421875 48.1875 
Q 40.625 48.1875 47.75 41.5 
Q 54.890625 34.8125 54.890625 23.390625 
Q 54.890625 11.625 47.5625 5.09375 
Q 40.234375 -1.421875 26.90625 -1.421875 
Q 22.3125 -1.421875 17.546875 -0.640625 
Q 12.796875 0.140625 7.71875 1.703125 
L 7.71875 11.625 
Q 12.109375 9.234375 16.796875 8.0625 
Q 21.484375 6.890625 26.703125 6.890625 
Q 35.15625 6.890625 40.078125 11.328125 
Q 45.015625 15.765625 45.015625 23.390625 
Q 45.015625 31 40.078125 35.4375 
Q 35.15625 39.890625 26.703125 39.890625 
Q 22.75 39.890625 18.8125 39.015625 
Q 14.890625 38.140625 10.796875 36.28125 
z
" id="DejaVuSans-53"/>
      </defs>
      <g transform="translate(13.5625 216.288893)scale(0.1 -0.1)">
       <use xlink:href="#DejaVuSans-53"/>
      </g>
     </g>
    </g>
    <g id="ytick_2">
     <g id="line2d_4">
      <g>
       <use style="stroke:#000000;stroke-width:0.8;" x="26.925" xlink:href="#md864af86da" y="168.147071"/>
      </g>
     </g>
     <g id="text_4">
      <!-- 10 -->
      <defs>
       <path d="M 31.78125 66.40625 
Q 24.171875 66.40625 20.328125 58.90625 
Q 16.5 51.421875 16.5 36.375 
Q 16.5 21.390625 20.328125 13.890625 
Q 24.171875 6.390625 31.78125 6.390625 
Q 39.453125 6.390625 43.28125 13.890625 
Q 47.125 21.390625 47.125 36.375 
Q 47.125 51.421875 43.28125 58.90625 
Q 39.453125 66.40625 31.78125 66.40625 
z
M 31.78125 74.21875 
Q 44.046875 74.21875 50.515625 64.515625 
Q 56.984375 54.828125 56.984375 36.375 
Q 56.984375 17.96875 50.515625 8.265625 
Q 44.046875 -1.421875 31.78125 -1.421875 
Q 19.53125 -1.421875 13.0625 8.265625 
Q 6.59375 17.96875 6.59375 36.375 
Q 6.59375 54.828125 13.0625 64.515625 
Q 19.53125 74.21875 31.78125 74.21875 
z
" id="DejaVuSans-48"/>
      </defs>
      <g transform="translate(7.2 171.94629)scale(0.1 -0.1)">
       <use xlink:href="#DejaVuSans-49"/>
       <use x="63.623047" xlink:href="#DejaVuSans-48"/>
      </g>
     </g>
    </g>
    <g id="ytick_3">
     <g id="line2d_5">
      <g>
       <use style="stroke:#000000;stroke-width:0.8;" x="26.925" xlink:href="#md864af86da" y="123.804467"/>
      </g>
     </g>
     <g id="text_5">
      <!-- 15 -->
      <g transform="translate(7.2 127.603686)scale(0.1 -0.1)">
       <use xlink:href="#DejaVuSans-49"/>
       <use x="63.623047" xlink:href="#DejaVuSans-53"/>
      </g>
     </g>
    </g>
    <g id="ytick_4">
     <g id="line2d_6">
      <g>
       <use style="stroke:#000000;stroke-width:0.8;" x="26.925" xlink:href="#md864af86da" y="79.461864"/>
      </g>
     </g>
     <g id="text_6">
      <!-- 20 -->
      <defs>
       <path d="M 19.1875 8.296875 
L 53.609375 8.296875 
L 53.609375 0 
L 7.328125 0 
L 7.328125 8.296875 
Q 12.9375 14.109375 22.625 23.890625 
Q 32.328125 33.6875 34.8125 36.53125 
Q 39.546875 41.84375 41.421875 45.53125 
Q 43.3125 49.21875 43.3125 52.78125 
Q 43.3125 58.59375 39.234375 62.25 
Q 35.15625 65.921875 28.609375 65.921875 
Q 23.96875 65.921875 18.8125 64.3125 
Q 13.671875 62.703125 7.8125 59.421875 
L 7.8125 69.390625 
Q 13.765625 71.78125 18.9375 73 
Q 24.125 74.21875 28.421875 74.21875 
Q 39.75 74.21875 46.484375 68.546875 
Q 53.21875 62.890625 53.21875 53.421875 
Q 53.21875 48.921875 51.53125 44.890625 
Q 49.859375 40.875 45.40625 35.40625 
Q 44.1875 33.984375 37.640625 27.21875 
Q 31.109375 20.453125 19.1875 8.296875 
z
" id="DejaVuSans-50"/>
      </defs>
      <g transform="translate(7.2 83.261083)scale(0.1 -0.1)">
       <use xlink:href="#DejaVuSans-50"/>
       <use x="63.623047" xlink:href="#DejaVuSans-48"/>
      </g>
     </g>
    </g>
    <g id="ytick_5">
     <g id="line2d_7">
      <g>
       <use style="stroke:#000000;stroke-width:0.8;" x="26.925" xlink:href="#md864af86da" y="35.11926"/>
      </g>
     </g>
     <g id="text_7">
      <!-- 25 -->
      <g transform="translate(7.2 38.918479)scale(0.1 -0.1)">
       <use xlink:href="#DejaVuSans-50"/>
       <use x="63.623047" xlink:href="#DejaVuSans-53"/>
      </g>
     </g>
    </g>
    <g id="text_8">
     <!-- y -->
     <defs>
      <path d="M 32.171875 -5.078125 
Q 28.375 -14.84375 24.75 -17.8125 
Q 21.140625 -20.796875 15.09375 -20.796875 
L 7.90625 -20.796875 
L 7.90625 -13.28125 
L 13.1875 -13.28125 
Q 16.890625 -13.28125 18.9375 -11.515625 
Q 21 -9.765625 23.484375 -3.21875 
L 25.09375 0.875 
L 2.984375 54.6875 
L 12.5 54.6875 
L 29.59375 11.921875 
L 46.6875 54.6875 
L 56.203125 54.6875 
z
" id="DejaVuSans-121"/>
     </defs>
     <g transform="translate(22.19 19.3575)scale(0.16 -0.16)">
      <use xlink:href="#DejaVuSans-121"/>
     </g>
    </g>
   </g>
   <g id="patch_4">
    <path clip-path="url(#p9a0d112e4b)" d="M 133.347249 212.489675 
Q 115.610207 212.489675 98.9912 212.489675 
" style="fill:none;stroke:#0000ff;stroke-dasharray:3.7,1.6;stroke-dashoffset:0;stroke-linecap:round;"/>
    <path clip-path="url(#p9a0d112e4b)" d="M 102.9912 214.489675 
L 98.9912 212.489675 
L 102.9912 210.489675 
L 102.9912 214.489675 
z
" style="fill:#0000ff;stroke:#0000ff;stroke-linecap:round;"/>
    <g id="line2d_8">
     <path clip-path="url(#p9a0d112e4b)" d="M 26.925 247.963757 
L 29.579931 245.712646 
L 32.442634 243.000394 
L 35.47442 239.805533 
L 38.536347 236.242285 
L 41.608357 232.327341 
L 44.958962 227.669114 
L 48.115588 222.909985 
L 51.49812 217.41121 
L 54.950373 211.373402 
L 58.532398 204.654043 
L 62.207112 197.279713 
L 65.839873 189.510642 
L 69.703963 180.724219 
L 73.676741 171.12895 
L 77.715601 160.7903 
L 81.727561 149.937777 
L 85.992953 137.762742 
L 90.420245 124.431262 
L 94.937029 110.101458 
L 99.606328 94.513955 
L 104.314744 77.999262 
L 109.197367 60.028681 
L 113.999748 41.514304 
L 115.610207 35.11926 
L 115.610207 35.11926 
" style="fill:none;stroke:#0000ff;stroke-linecap:square;"/>
    </g>
    <g id="line2d_9">
     <path clip-path="url(#p9a0d112e4b)" d="M 26.925 247.963757 
L 29.712894 245.593219 
L 32.541746 242.901196 
L 35.458316 239.82338 
L 38.285585 236.546822 
L 41.431906 232.561427 
L 44.688253 228.060514 
L 47.961217 223.151087 
L 51.290458 217.760689 
L 54.817132 211.614413 
L 58.360552 204.986972 
L 62.011642 197.684247 
L 65.742002 189.726192 
L 69.53061 181.129942 
L 73.465105 171.654467 
L 77.507163 161.338262 
L 81.673288 150.088463 
L 85.89568 138.047712 
L 90.050525 125.571629 
L 94.618088 111.137477 
L 99.161183 96.033905 
L 103.702938 80.190381 
L 108.49287 62.674699 
L 113.449796 43.6767 
L 115.610207 35.11926 
L 115.610207 35.11926 
" style="fill:none;stroke:#0000ff;stroke-linecap:square;"/>
    </g>
    <g id="patch_5">
     <path d="M 26.925 261.266538 
L 26.925 30.685 
" style="fill:none;stroke:#000000;stroke-linecap:square;stroke-linejoin:miter;stroke-width:0.8;"/>
    </g>
    <g id="patch_6">
     <path d="M 23.732333 256.832278 
L 189.75104 256.832278 
" style="fill:none;stroke:#000000;stroke-linecap:square;stroke-linejoin:miter;stroke-width:0.8;"/>
    </g>
    <g id="text_9">
     <!-- $\int_0^1(4t+1)^2dx$ -->
     <defs>
      <path d="M 10.59375 -217.09375 
Q 13.09375 -219.578125 16.703125 -219.578125 
Q 20.3125 -219.578125 23.28125 -214.625 
Q 26.265625 -209.671875 28.515625 -202.25 
Q 30.765625 -194.828125 31.8125 -189.8125 
Q 32.859375 -184.8125 34.421875 -176.90625 
Q 35.84375 -169.53125 37.15625 -162.109375 
Q 38.484375 -154.6875 39.875 -146.3125 
Q 41.265625 -137.9375 42.796875 -129.3125 
Q 44.34375 -120.703125 46.296875 -110.984375 
Q 48.921875 -98.1875 50.0625 -92.6875 
Q 51.21875 -87.203125 53.5625 -76.828125 
Q 55.90625 -66.453125 56.65625 -63.15625 
Q 57.421875 -59.859375 60.984375 -45.125 
L 62.3125 -39.890625 
Q 64.546875 -31.109375 65.765625 -26.59375 
Q 67 -22.078125 69.5625 -15.546875 
Q 72.125 -9.03125 75.578125 -4.515625 
Q 79.046875 0 83.203125 0 
Q 86.140625 0 88.640625 -1.3125 
Q 91.15625 -2.640625 92.71875 -4.9375 
Q 94.28125 -7.234375 94.28125 -10.203125 
Q 94.28125 -12.359375 92.859375 -13.765625 
Q 91.453125 -15.1875 89.3125 -15.1875 
Q 87.109375 -15.1875 85.640625 -13.765625 
Q 84.1875 -12.359375 84.1875 -10.203125 
Q 84.1875 -8.015625 85.640625 -6.546875 
Q 87.109375 -5.078125 89.3125 -5.078125 
Q 86.71875 -2.59375 83.296875 -2.59375 
Q 81.453125 -2.59375 79.21875 -8 
Q 77 -13.421875 75.125 -20.765625 
Q 73.25 -28.125 72.234375 -33.03125 
Q 71.234375 -37.9375 69.828125 -45.3125 
Q 68.171875 -53.65625 67.0625 -59.859375 
Q 65.96875 -66.0625 64.40625 -75.1875 
Q 62.84375 -84.328125 61.34375 -92.578125 
Q 59.859375 -100.828125 57.8125 -111.1875 
Q 56.5 -117.71875 54 -129.5625 
Q 51.515625 -141.40625 50.703125 -144.96875 
Q 49.90625 -148.53125 46.609375 -162.390625 
Q 43.3125 -176.265625 43.109375 -177.09375 
L 41.890625 -181.6875 
Q 39.3125 -192.28125 36.6875 -200.3125 
Q 34.078125 -208.34375 29.015625 -215.28125 
Q 23.96875 -222.21875 16.703125 -222.21875 
Q 12.359375 -222.21875 8.984375 -219.28125 
Q 5.609375 -216.359375 5.609375 -212.109375 
Q 5.609375 -209.90625 7.078125 -208.4375 
Q 8.546875 -206.984375 10.6875 -206.984375 
Q 12.109375 -206.984375 13.25 -207.65625 
Q 14.40625 -208.34375 15.0625 -209.515625 
Q 15.71875 -210.6875 15.71875 -212.109375 
Q 15.71875 -214.265625 14.25 -215.671875 
Q 12.796875 -217.09375 10.59375 -217.09375 
z
" id="Cmex10-90"/>
      <path d="M 9.28125 0 
L 9.28125 3.515625 
Q 21.78125 3.515625 21.78125 6.6875 
L 21.78125 59.1875 
Q 16.609375 56.6875 8.6875 56.6875 
L 8.6875 60.203125 
Q 20.953125 60.203125 27.203125 66.609375 
L 28.609375 66.609375 
Q 28.953125 66.609375 29.265625 66.328125 
Q 29.59375 66.0625 29.59375 65.71875 
L 29.59375 6.6875 
Q 29.59375 3.515625 42.09375 3.515625 
L 42.09375 0 
z
" id="Cmr10-49"/>
      <path d="M 25 -2.203125 
Q 12.75 -2.203125 8.328125 7.875 
Q 3.90625 17.96875 3.90625 31.890625 
Q 3.90625 40.578125 5.484375 48.234375 
Q 7.078125 55.90625 11.78125 61.25 
Q 16.5 66.609375 25 66.609375 
Q 31.59375 66.609375 35.78125 63.375 
Q 39.984375 60.15625 42.1875 55.046875 
Q 44.390625 49.953125 45.1875 44.109375 
Q 46 38.28125 46 31.890625 
Q 46 23.296875 44.40625 15.796875 
Q 42.828125 8.296875 38.1875 3.046875 
Q 33.546875 -2.203125 25 -2.203125 
z
M 25 0.390625 
Q 30.5625 0.390625 33.296875 6.09375 
Q 36.03125 11.8125 36.671875 18.75 
Q 37.3125 25.6875 37.3125 33.5 
Q 37.3125 41.015625 36.671875 47.359375 
Q 36.03125 53.71875 33.3125 58.859375 
Q 30.609375 64.015625 25 64.015625 
Q 19.34375 64.015625 16.609375 58.828125 
Q 13.875 53.65625 13.234375 47.328125 
Q 12.59375 41.015625 12.59375 33.5 
Q 12.59375 27.9375 12.859375 23 
Q 13.140625 18.0625 14.3125 12.8125 
Q 15.484375 7.5625 18.09375 3.96875 
Q 20.703125 0.390625 25 0.390625 
z
" id="Cmr10-48"/>
      <path d="M 31 -24.8125 
Q 25.4375 -20.40625 21.40625 -14.71875 
Q 17.390625 -9.03125 14.8125 -2.578125 
Q 12.25 3.859375 10.984375 10.890625 
Q 9.71875 17.921875 9.71875 25 
Q 9.71875 32.171875 10.984375 39.203125 
Q 12.25 46.234375 14.859375 52.734375 
Q 17.484375 59.234375 21.53125 64.890625 
Q 25.59375 70.5625 31 74.8125 
Q 31 75 31.5 75 
L 32.421875 75 
Q 32.71875 75 32.953125 74.734375 
Q 33.203125 74.46875 33.203125 74.125 
Q 33.203125 73.6875 33.015625 73.484375 
Q 28.125 68.703125 24.875 63.234375 
Q 21.625 57.765625 19.640625 51.578125 
Q 17.671875 45.40625 16.796875 38.78125 
Q 15.921875 32.171875 15.921875 25 
Q 15.921875 -6.78125 32.90625 -23.296875 
Q 33.203125 -23.578125 33.203125 -24.125 
Q 33.203125 -24.359375 32.9375 -24.671875 
Q 32.671875 -25 32.421875 -25 
L 31.5 -25 
Q 31 -25 31 -24.8125 
z
" id="Cmr10-40"/>
      <path d="M 2.78125 16.5 
L 2.78125 20.015625 
L 33.6875 66.109375 
Q 34.03125 66.609375 34.71875 66.609375 
L 36.1875 66.609375 
Q 37.3125 66.609375 37.3125 65.484375 
L 37.3125 20.015625 
L 47.125 20.015625 
L 47.125 16.5 
L 37.3125 16.5 
L 37.3125 6.6875 
Q 37.3125 4.640625 40.234375 4.078125 
Q 43.171875 3.515625 47.015625 3.515625 
L 47.015625 0 
L 19.484375 0 
L 19.484375 3.515625 
Q 23.34375 3.515625 26.265625 4.078125 
Q 29.203125 4.640625 29.203125 6.6875 
L 29.203125 16.5 
z
M 6.109375 20.015625 
L 29.78125 20.015625 
L 29.78125 55.421875 
z
" id="Cmr10-52"/>
      <path d="M 6.203125 8.109375 
Q 6.203125 9.578125 6.5 10.890625 
L 13.71875 39.59375 
L 3.21875 39.59375 
Q 2.203125 39.59375 2.203125 40.921875 
Q 2.59375 43.109375 3.515625 43.109375 
L 14.59375 43.109375 
L 18.609375 59.421875 
Q 19 60.75 20.171875 61.671875 
Q 21.34375 62.59375 22.796875 62.59375 
Q 24.078125 62.59375 24.921875 61.828125 
Q 25.78125 61.078125 25.78125 59.8125 
Q 25.78125 59.515625 25.75 59.34375 
Q 25.734375 59.1875 25.6875 58.984375 
L 21.6875 43.109375 
L 31.984375 43.109375 
Q 33.015625 43.109375 33.015625 41.796875 
Q 32.953125 41.546875 32.8125 40.953125 
Q 32.671875 40.375 32.421875 39.984375 
Q 32.171875 39.59375 31.6875 39.59375 
L 20.796875 39.59375 
L 13.625 10.6875 
Q 12.890625 7.859375 12.890625 5.8125 
Q 12.890625 1.515625 15.828125 1.515625 
Q 20.21875 1.515625 23.609375 5.640625 
Q 27 9.765625 28.8125 14.703125 
Q 29.203125 15.28125 29.59375 15.28125 
L 30.8125 15.28125 
Q 31.203125 15.28125 31.4375 15.015625 
Q 31.6875 14.75 31.6875 14.40625 
Q 31.6875 14.203125 31.59375 14.109375 
Q 29.390625 8.0625 25.1875 3.46875 
Q 21 -1.125 15.578125 -1.125 
Q 11.625 -1.125 8.90625 1.453125 
Q 6.203125 4.046875 6.203125 8.109375 
z
" id="Cmmi10-116"/>
      <path d="M 7.515625 23 
Q 6.6875 23 6.140625 23.625 
Q 5.609375 24.265625 5.609375 25 
Q 5.609375 25.734375 6.140625 26.359375 
Q 6.6875 27 7.515625 27 
L 36.921875 27 
L 36.921875 56.5 
Q 36.921875 57.28125 37.5 57.78125 
Q 38.09375 58.296875 38.921875 58.296875 
Q 39.65625 58.296875 40.28125 57.78125 
Q 40.921875 57.28125 40.921875 56.5 
L 40.921875 27 
L 70.3125 27 
Q 71.046875 27 71.578125 26.359375 
Q 72.125 25.734375 72.125 25 
Q 72.125 24.265625 71.578125 23.625 
Q 71.046875 23 70.3125 23 
L 40.921875 23 
L 40.921875 -6.5 
Q 40.921875 -7.28125 40.28125 -7.78125 
Q 39.65625 -8.296875 38.921875 -8.296875 
Q 38.09375 -8.296875 37.5 -7.78125 
Q 36.921875 -7.28125 36.921875 -6.5 
L 36.921875 23 
z
" id="Cmr10-43"/>
      <path d="M 6.5 -25 
Q 5.609375 -25 5.609375 -24.125 
Q 5.609375 -23.6875 5.8125 -23.484375 
Q 22.90625 -6.78125 22.90625 25 
Q 22.90625 56.78125 6 73.296875 
Q 5.609375 73.53125 5.609375 74.125 
Q 5.609375 74.46875 5.875 74.734375 
Q 6.15625 75 6.5 75 
L 7.421875 75 
Q 7.71875 75 7.90625 74.8125 
Q 15.09375 69.140625 19.875 61.03125 
Q 24.65625 52.9375 26.875 43.75 
Q 29.109375 34.578125 29.109375 25 
Q 29.109375 17.921875 27.90625 11.0625 
Q 26.703125 4.203125 24.09375 -2.453125 
Q 21.484375 -9.125 17.484375 -14.765625 
Q 13.484375 -20.40625 7.90625 -24.8125 
Q 7.71875 -25 7.421875 -25 
z
" id="Cmr10-41"/>
      <path d="M 4.984375 0 
L 4.984375 2.6875 
Q 4.984375 2.9375 5.171875 3.21875 
L 20.703125 20.40625 
Q 24.21875 24.21875 26.40625 26.796875 
Q 28.609375 29.390625 30.75 32.765625 
Q 32.90625 36.140625 34.15625 39.625 
Q 35.40625 43.109375 35.40625 47.015625 
Q 35.40625 51.125 33.890625 54.859375 
Q 32.375 58.59375 29.375 60.84375 
Q 26.375 63.09375 22.125 63.09375 
Q 17.78125 63.09375 14.3125 60.46875 
Q 10.84375 57.859375 9.421875 53.71875 
Q 9.8125 53.8125 10.5 53.8125 
Q 12.75 53.8125 14.328125 52.296875 
Q 15.921875 50.78125 15.921875 48.390625 
Q 15.921875 46.09375 14.328125 44.5 
Q 12.75 42.921875 10.5 42.921875 
Q 8.15625 42.921875 6.5625 44.546875 
Q 4.984375 46.1875 4.984375 48.390625 
Q 4.984375 52.15625 6.390625 55.4375 
Q 7.8125 58.734375 10.46875 61.296875 
Q 13.140625 63.875 16.484375 65.234375 
Q 19.828125 66.609375 23.578125 66.609375 
Q 29.296875 66.609375 34.21875 64.1875 
Q 39.15625 61.765625 42.03125 57.34375 
Q 44.921875 52.9375 44.921875 47.015625 
Q 44.921875 42.671875 43.015625 38.765625 
Q 41.109375 34.859375 38.125 31.65625 
Q 35.15625 28.46875 30.515625 24.40625 
Q 25.875 20.359375 24.421875 19 
L 13.09375 8.109375 
L 22.703125 8.109375 
Q 29.78125 8.109375 34.546875 8.21875 
Q 39.3125 8.34375 39.59375 8.59375 
Q 40.765625 9.859375 42 17.828125 
L 44.921875 17.828125 
L 42.09375 0 
z
" id="Cmr10-50"/>
      <path d="M 17.390625 -1.125 
Q 11.078125 -1.125 7.4375 3.640625 
Q 3.8125 8.40625 3.8125 14.890625 
Q 3.8125 21.296875 7.125 28.171875 
Q 10.453125 35.0625 16.09375 39.625 
Q 21.734375 44.1875 28.21875 44.1875 
Q 31.15625 44.1875 33.515625 42.546875 
Q 35.890625 40.921875 37.203125 38.1875 
L 42.828125 60.5 
Q 43.21875 62.203125 43.3125 63.1875 
Q 43.3125 64.796875 36.8125 64.796875 
Q 35.796875 64.796875 35.796875 66.109375 
Q 35.84375 66.359375 36.015625 66.984375 
Q 36.1875 67.625 36.453125 67.96875 
Q 36.71875 68.3125 37.203125 68.3125 
L 50.6875 69.390625 
Q 51.90625 69.390625 51.90625 68.109375 
L 37.5 10.59375 
Q 36.8125 8.9375 36.8125 5.8125 
Q 36.8125 1.515625 39.703125 1.515625 
Q 42.828125 1.515625 44.453125 5.484375 
Q 46.09375 9.46875 47.21875 14.703125 
Q 47.40625 15.28125 48 15.28125 
L 49.21875 15.28125 
Q 49.609375 15.28125 49.84375 14.9375 
Q 50.09375 14.59375 50.09375 14.3125 
Q 48.34375 7.328125 46.265625 3.09375 
Q 44.1875 -1.125 39.5 -1.125 
Q 36.140625 -1.125 33.546875 0.84375 
Q 30.953125 2.828125 30.328125 6.109375 
Q 23.875 -1.125 17.390625 -1.125 
z
M 17.484375 1.515625 
Q 21.09375 1.515625 24.484375 4.21875 
Q 27.875 6.9375 30.328125 10.59375 
Q 30.421875 10.6875 30.421875 10.984375 
L 35.890625 33.015625 
Q 35.296875 36.53125 33.296875 39.0625 
Q 31.296875 41.609375 27.984375 41.609375 
Q 24.609375 41.609375 21.703125 38.84375 
Q 18.796875 36.078125 16.796875 32.328125 
Q 14.84375 28.328125 13.0625 21.34375 
Q 11.28125 14.359375 11.28125 10.5 
Q 11.28125 7.03125 12.765625 4.265625 
Q 14.265625 1.515625 17.484375 1.515625 
z
" id="Cmmi10-100"/>
      <path d="M 7.8125 2.875 
Q 9.578125 1.515625 12.796875 1.515625 
Q 15.921875 1.515625 18.3125 4.515625 
Q 20.703125 7.515625 21.578125 11.078125 
L 26.125 28.8125 
Q 27.203125 33.640625 27.203125 35.40625 
Q 27.203125 37.890625 25.8125 39.75 
Q 24.421875 41.609375 21.921875 41.609375 
Q 18.75 41.609375 15.96875 39.625 
Q 13.1875 37.640625 11.28125 34.59375 
Q 9.375 31.546875 8.59375 28.421875 
Q 8.40625 27.78125 7.8125 27.78125 
L 6.59375 27.78125 
Q 5.8125 27.78125 5.8125 28.71875 
L 5.8125 29 
Q 6.78125 32.71875 9.125 36.25 
Q 11.46875 39.796875 14.859375 41.984375 
Q 18.265625 44.1875 22.125 44.1875 
Q 25.78125 44.1875 28.734375 42.234375 
Q 31.6875 40.28125 32.90625 36.921875 
Q 34.625 39.984375 37.28125 42.078125 
Q 39.9375 44.1875 43.109375 44.1875 
Q 45.265625 44.1875 47.5 43.421875 
Q 49.75 42.671875 51.171875 41.109375 
Q 52.59375 39.546875 52.59375 37.203125 
Q 52.59375 34.671875 50.953125 32.828125 
Q 49.3125 31 46.78125 31 
Q 45.171875 31 44.09375 32.03125 
Q 43.015625 33.0625 43.015625 34.625 
Q 43.015625 36.71875 44.453125 38.296875 
Q 45.90625 39.890625 47.90625 40.1875 
Q 46.09375 41.609375 42.921875 41.609375 
Q 39.703125 41.609375 37.328125 38.625 
Q 34.96875 35.640625 33.984375 31.984375 
L 29.59375 14.3125 
Q 28.515625 10.296875 28.515625 7.71875 
Q 28.515625 5.171875 29.953125 3.34375 
Q 31.390625 1.515625 33.796875 1.515625 
Q 38.484375 1.515625 42.15625 5.640625 
Q 45.84375 9.765625 47.015625 14.703125 
Q 47.21875 15.28125 47.796875 15.28125 
L 49.03125 15.28125 
Q 49.421875 15.28125 49.65625 15.015625 
Q 49.90625 14.75 49.90625 14.40625 
Q 49.90625 14.3125 49.8125 14.109375 
Q 48.390625 8.15625 43.84375 3.515625 
Q 39.3125 -1.125 33.59375 -1.125 
Q 29.9375 -1.125 26.984375 0.84375 
Q 24.03125 2.828125 22.796875 6.203125 
Q 21.234375 3.265625 18.46875 1.0625 
Q 15.71875 -1.125 12.59375 -1.125 
Q 10.453125 -1.125 8.171875 -0.359375 
Q 5.90625 0.390625 4.484375 1.953125 
Q 3.078125 3.515625 3.078125 5.90625 
Q 3.078125 8.25 4.703125 10.171875 
Q 6.34375 12.109375 8.796875 12.109375 
Q 10.453125 12.109375 11.578125 11.109375 
Q 12.703125 10.109375 12.703125 8.5 
Q 12.703125 6.390625 11.296875 4.828125 
Q 9.90625 3.265625 7.8125 2.875 
z
" id="Cmmi10-120"/>
     </defs>
     <g transform="translate(136.478373 218.729675)scale(0.16 -0.16)">
      <use transform="translate(0 145.379688)" xlink:href="#Cmex10-90"/>
      <use transform="translate(108.600273 128.373437)scale(0.7)" xlink:href="#Cmr10-49"/>
      <use transform="translate(47.934336 -93.845312)scale(0.7)" xlink:href="#Cmr10-48"/>
      <use transform="translate(143.600273 0.936979)" xlink:href="#Cmr10-40"/>
      <use transform="translate(182.418633 0.936979)" xlink:href="#Cmr10-52"/>
      <use transform="translate(232.418633 0.936979)" xlink:href="#Cmmi10-116"/>
      <use transform="translate(286.061211 0.936979)" xlink:href="#Cmr10-43"/>
      <use transform="translate(381.305352 0.936979)" xlink:href="#Cmr10-49"/>
      <use transform="translate(431.305352 0.936979)" xlink:href="#Cmr10-41"/>
      <use transform="translate(474.587852 39.201042)scale(0.7)" xlink:href="#Cmr10-50"/>
      <use transform="translate(515.965195 0.936979)" xlink:href="#Cmmi10-100"/>
      <use transform="translate(567.967148 0.936979)" xlink:href="#Cmmi10-120"/>
     </g>
    </g>
   </g>
  </g>
  <defs>
   <clipPath id="p9a0d112e4b">
    <rect height="230.581538" width="166.018708" x="23.732333" y="30.685"/>
   </clipPath>
  </defs>
 </g>
</svg>
