<?xml version="1.0" encoding="utf-8" standalone="no"?>
<!DOCTYPE svg PUBLIC "-//W3C//DTD SVG 1.1//EN"
  "http://www.w3.org/Graphics/SVG/1.1/DTD/svg11.dtd">
<!-- Created with matplotlib (https://matplotlib.org/) -->
<svg height="244.636004pt" version="1.1" viewBox="0 0 193.263053 244.636004" width="193.263053pt" xmlns="http://www.w3.org/2000/svg" xmlns:xlink="http://www.w3.org/1999/xlink">
 <defs>
  <style type="text/css">
*{stroke-linecap:butt;stroke-linejoin:round;}
  </style>
 </defs>
 <g id="figure_1">
  <g id="patch_1">
   <path d="M 0 244.636004 
L 193.263053 244.636004 
L 193.263053 0 
L 0 0 
z
" style="fill:#ffffff;"/>
  </g>
  <g id="axes_1">
   <g id="patch_2">
    <path d="M 19.365822 219.399038 
L 164.143053 219.399038 
L 164.143053 38.4275 
L 19.365822 38.4275 
z
" style="fill:#ffffff;"/>
   </g>
   <g id="patch_3">
    <path clip-path="url(#p7d247d834d)" d="M 161.358876 41.907722 
L 160.864184 44.36803 
L 160.369491 46.802155 
L 160.144242 47.901868 
L 159.557593 50.74083 
L 158.970945 53.543662 
L 158.696771 54.841281 
L 158.093987 57.666802 
L 157.518338 60.33027 
L 156.942689 62.959975 
L 156.160413 66.479999 
L 155.696202 68.539884 
L 155.281434 70.362291 
L 154.784747 72.522338 
L 154.288059 74.658254 
L 153.831489 76.600523 
L 153.364432 78.566606 
L 152.897375 80.511807 
L 152.439496 82.398654 
L 151.981617 84.265714 
L 151.428286 86.495782 
L 150.627809 89.671627 
L 149.962242 92.267412 
L 149.145159 95.399154 
L 149.066324 95.698138 
L 148.240928 98.795165 
L 147.64871 100.980118 
L 147.056491 103.134357 
L 146.395231 105.5038 
L 145.942548 107.1042 
L 145.459338 108.793256 
L 144.976129 110.462573 
L 144.293149 112.788658 
L 143.567476 115.217758 
L 142.999256 117.089644 
L 142.257447 119.493965 
L 141.894491 120.65425 
L 141.360791 122.341299 
L 140.814914 124.043562 
L 140.269037 125.722495 
L 139.405994 128.32984 
L 138.7856 130.168891 
L 138.326721 131.510412 
L 137.715803 133.27191 
L 136.936601 135.478455 
L 136.316027 137.203947 
L 135.783034 138.66363 
L 135.250041 140.102917 
L 135.114532 140.465617 
L 134.354212 142.476584 
L 133.703299 144.166008 
L 133.052386 145.826116 
L 132.679824 146.763249 
L 131.704416 149.172273 
L 131.14013 150.536859 
L 130.901642 151.10725 
L 130.218143 152.721304 
L 129.534644 154.305021 
L 129.508413 154.365202 
L 128.879943 155.79392 
L 128.251473 157.197622 
L 128.071439 157.595163 
L 127.424962 159.006061 
L 126.596115 160.77734 
L 125.862063 162.31122 
L 125.321754 163.41964 
L 124.757423 164.558894 
L 124.193092 165.679505 
L 123.412889 167.198456 
L 122.825859 168.318416 
L 122.439935 169.044103 
L 121.440371 170.885103 
L 121.112714 171.47661 
L 119.999356 173.44306 
L 119.156629 174.887553 
L 118.862011 175.38375 
L 118.25759 176.387619 
L 117.653168 177.372725 
L 117.262635 177.999362 
L 116.663201 178.946291 
L 115.569378 180.628372 
L 115.196924 181.187814 
L 114.424331 182.327048 
L 113.910113 183.069602 
L 112.979183 184.382507 
L 112.371636 185.217851 
L 111.948537 185.789708 
L 111.303402 186.646242 
L 110.658268 187.484382 
L 110.155989 188.124363 
L 109.679787 188.721082 
L 108.717175 189.897922 
L 108.015802 190.731021 
L 107.473907 191.360863 
L 106.503592 192.459057 
L 106.257844 192.731247 
L 105.44903 193.610386 
L 104.509054 194.600415 
L 103.931236 195.192415 
L 103.434769 195.691142 
L 102.76301 196.351567 
L 102.091106 196.995823 
L 101.210604 197.81585 
L 100.290357 198.644105 
L 99.751681 199.115549 
L 98.86773 199.868182 
L 98.552385 200.130461 
L 97.496244 200.985521 
L 97.260863 201.171254 
L 96.556823 201.716465 
L 95.924128 202.193399 
L 94.649741 203.117488 
L 94.044503 203.539634 
L 93.627817 203.824137 
L 92.521322 204.555841 
L 92.33204 204.677603 
L 91.087893 205.453768 
L 90.725665 205.671991 
L 90.219029 205.971465 
L 89.113139 206.602324 
L 88.577003 206.897127 
L 88.163458 207.119698 
L 87.494135 207.471171 
L 86.173858 208.133494 
L 85.688295 208.366999 
L 85.283656 208.557543 
L 84.445224 208.940861 
L 83.68567 209.27501 
L 82.663233 209.705683 
L 82.390091 209.817105 
L 81.582777 210.137679 
L 80.785669 210.441639 
L 80.447256 210.566994 
L 79.346192 210.960004 
L 78.54819 211.231007 
L 78.039269 211.397937 
L 77.756138 211.488853 
L 76.867609 211.765283 
L 76.291541 211.937455 
L 75.250198 212.235036 
L 74.300339 212.49163 
L 73.695528 212.647872 
L 73.53234 212.689097 
L 72.465916 212.948992 
L 71.69299 213.127314 
L 71.088856 213.261003 
L 70.519042 213.382642 
L 69.859838 213.518099 
L 69.178427 213.652341 
L 68.373944 213.803491 
L 67.868139 213.89457 
L 67.023079 214.040137 
L 66.481477 214.129208 
L 65.222209 214.324047 
L 65.138247 214.336446 
L 64.276069 214.459623 
L 63.310117 214.588927 
L 62.77111 214.657232 
L 61.680448 214.787364 
L 61.171275 214.844543 
L 60.323056 214.934948 
L 59.600308 215.007371 
L 58.960701 215.068059 
L 58.582286 215.102507 
L 57.739627 215.17545 
L 56.805241 215.250496 
L 56.158017 215.299041 
L 55.589965 215.339425 
L 54.804925 215.391946 
L 54.148969 215.433021 
L 53.792788 215.454293 
L 53.206588 215.48777 
L 52.027282 215.549606 
L 51.749159 215.563163 
L 50.773707 215.607779 
L 49.991566 215.640407 
L 49.387091 215.66381 
L 48.642226 215.690581 
L 47.697413 215.721439 
L 47.54773 215.726025 
L 46.893137 215.745145 
L 46.178964 215.764345 
L 45.215938 215.787659 
L 44.529098 215.802597 
L 43.806523 215.816895 
L 43.054735 215.830328 
L 42.126561 215.845027 
L 42.067243 215.8459 
L 41.323108 215.856201 
L 40.143024 215.870251 
L 39.651576 215.875344 
L 38.60884 215.884814 
L 37.892945 215.890355 
L 37.830071 215.890807 
L 36.554522 215.898868 
L 36.005664 215.901739 
L 35.37648 215.904636 
L 34.765477 215.90708 
L 34.370165 215.908484 
L 33.438 215.911294 
L 32.379054 215.913744 
L 31.840162 215.914731 
L 31.125272 215.91581 
L 30.343393 215.916728 
L 29.917639 215.91713 
L 29.448908 215.917502 
L 28.182238 215.918203 
L 27.947752 215.918293 
L 27.100237 215.918538 
L 26.224507 215.918689 
L 25.470002 215.91876 
L 24.726471 215.918796 
L 24.332607 215.918806 
L 23.494145 215.918815 
L 22.582863 215.918817 
L 22.15 215.918817 
L 22.15 215.918817 
L 22.863621 215.026791 
L 23.554842 214.162764 
L 24.128433 213.445775 
L 25.158926 212.157659 
L 25.880715 211.255422 
L 26.069949 211.01888 
L 26.719797 210.20657 
L 27.599331 209.107153 
L 28.346666 208.172984 
L 28.830509 207.568181 
L 29.847556 206.296872 
L 30.437711 205.559178 
L 31.370592 204.393076 
L 31.610841 204.092766 
L 32.382231 203.128528 
L 33.610975 201.592598 
L 34.07175 201.01663 
L 35.091218 199.742294 
L 35.625746 199.074134 
L 36.352467 198.165732 
L 36.624783 197.825338 
L 37.790186 196.368584 
L 38.031611 196.066803 
L 39.157048 194.660006 
L 39.859449 193.782005 
L 40.644444 192.800762 
L 40.8293 192.569692 
L 41.667712 191.521676 
L 42.699038 190.232519 
L 42.903491 189.976953 
L 43.866091 188.773703 
L 44.315347 188.212133 
L 45.533953 186.688875 
L 45.591734 186.616649 
L 46.791884 185.116462 
L 47.43783 184.30903 
L 48.343254 183.177249 
L 48.43204 183.066267 
L 49.548109 181.671181 
L 50.041091 181.054952 
L 50.731677 180.191721 
L 51.263903 179.526438 
L 52.28626 178.248491 
L 52.684488 177.750706 
L 53.827289 176.322206 
L 54.424655 175.575498 
L 54.854032 175.038777 
L 55.584832 174.125277 
L 56.406516 173.098171 
L 57.363466 171.901984 
L 57.598023 171.608788 
L 58.26921 170.769804 
L 59.253298 169.539695 
L 60.148835 168.420273 
L 60.941155 167.429872 
L 61.030869 167.317731 
L 62.195389 165.86208 
L 62.963446 164.902009 
L 63.711628 163.966781 
L 63.928828 163.695281 
L 64.941074 162.429974 
L 65.869171 161.269853 
L 65.993872 161.113977 
L 67.018374 159.833349 
L 67.535559 159.186867 
L 67.983931 158.626403 
L 69.023375 157.327098 
L 69.633171 156.564853 
L 70.110574 155.9681 
L 70.789207 155.119808 
L 71.484936 154.250146 
L 72.713497 152.714445 
L 73.126066 152.198734 
L 74.044138 151.051144 
L 74.376132 150.636151 
L 75.246797 149.54782 
L 75.831032 148.817526 
L 76.802089 147.603706 
L 77.472641 146.765515 
L 78.282409 145.753305 
L 79.141609 144.679305 
L 79.286145 144.498635 
L 80.385819 143.124043 
L 81.153699 142.164193 
L 81.304732 141.975402 
L 82.588781 140.37034 
L 83.225898 139.573944 
L 83.538944 139.182637 
L 84.491234 137.992274 
L 84.931472 137.441977 
L 85.764541 136.400641 
L 86.581484 135.379461 
L 87.355701 134.411691 
L 88.21056 133.343117 
L 88.733412 132.689552 
L 88.984948 132.375131 
L 90.019725 131.08166 
L 90.374043 130.638763 
L 91.613187 129.089833 
L 91.969952 128.643876 
L 92.52074 127.955392 
L 93.737472 126.434476 
L 94.279654 125.756749 
L 94.639126 125.307409 
L 95.921984 123.703837 
L 96.295559 123.236868 
L 97.116609 122.210555 
L 98.023563 121.076863 
L 98.124812 120.950302 
L 99.224363 119.575863 
L 99.843838 118.801519 
L 100.381828 118.129031 
L 101.51209 116.716204 
L 102.206473 115.848225 
L 102.350535 115.668147 
L 103.136352 114.685877 
L 103.995599 113.611818 
L 104.830984 112.567587 
L 105.64837 111.545855 
L 106.120484 110.955712 
L 106.957511 109.909428 
L 107.793062 108.86499 
L 108.444477 108.05072 
L 109.15643 107.160779 
L 109.411407 106.842058 
L 110.444983 105.550088 
L 111.201118 104.604919 
L 111.636931 104.060153 
L 112.420499 103.080693 
L 113.078641 102.258016 
L 114.014718 101.087919 
L 114.799623 100.106788 
L 114.988656 99.870496 
L 116.095928 98.486406 
L 116.601063 97.854988 
L 117.555118 96.662419 
L 117.904758 96.225369 
L 118.669942 95.268889 
L 119.433238 94.314769 
L 120.240381 93.30584 
L 120.576571 92.885603 
L 121.630878 91.567719 
L 121.8679 91.271442 
L 122.697178 90.234844 
L 123.383146 89.377384 
L 124.208402 88.345814 
L 125.175202 87.137315 
L 125.451247 86.792258 
L 126.511389 85.467081 
L 127.383494 84.376949 
L 128.017419 83.584543 
L 128.281017 83.255045 
L 129.057472 82.284476 
L 129.611898 81.591444 
L 130.380651 80.630503 
L 130.968672 79.895476 
L 132.076579 78.510593 
L 133.006227 77.348533 
L 133.052431 77.290778 
L 134.302046 75.728759 
L 134.576261 75.38599 
L 135.628107 74.071183 
L 136.028525 73.570661 
L 136.83401 72.563804 
L 137.844686 71.300459 
L 138.288228 70.746032 
L 138.666393 70.273325 
L 139.502852 69.227752 
L 140.247245 68.29726 
L 141.0495 67.294441 
L 141.952836 66.165272 
L 142.813073 65.089975 
L 143.200284 64.605962 
L 144.060247 63.531008 
L 144.914508 62.463182 
L 144.945737 62.424145 
L 145.868239 61.271018 
L 146.744706 60.175434 
L 147.317801 59.459066 
L 147.949383 58.669588 
L 149.096482 57.235714 
L 149.644974 56.5501 
L 149.825062 56.324989 
L 150.642674 55.302975 
L 151.345244 54.424762 
L 152.394016 53.113797 
L 153.128336 52.195897 
L 153.970503 51.143187 
L 154.151185 50.917336 
L 154.97907 49.882479 
L 155.468059 49.271242 
L 156.337336 48.184647 
L 157.080913 47.255175 
L 158.132418 45.940794 
L 158.744608 45.175556 
L 159.476414 44.2608 
L 160.018417 43.583296 
L 160.73894 42.682641 
z
" style="fill:#cde0eb;opacity:0.5;"/>
   </g>
   <g id="matplotlib.axis_1">
    <g id="xtick_1">
     <g id="line2d_1">
      <defs>
       <path d="M 0 0 
L 0 3.5 
" id="mbcbca18175" style="stroke:#000000;stroke-width:0.8;"/>
      </defs>
      <g>
       <use style="stroke:#000000;stroke-width:0.8;" x="22.010791" xlink:href="#mbcbca18175" y="215.918817"/>
      </g>
     </g>
     <g id="text_1">
      <!-- $c$ -->
      <defs>
       <path d="M 11.71875 11.921875 
Q 11.71875 7.5625 13.9375 4.53125 
Q 16.15625 1.515625 20.3125 1.515625 
Q 26.265625 1.515625 31.75 4.25 
Q 37.25 6.984375 40.71875 11.8125 
Q 41.015625 12.109375 41.5 12.109375 
Q 42 12.109375 42.5 11.546875 
Q 43.015625 10.984375 43.015625 10.5 
Q 43.015625 10.109375 42.828125 9.90625 
Q 39.15625 4.78125 32.953125 1.828125 
Q 26.765625 -1.125 20.125 -1.125 
Q 15.328125 -1.125 11.671875 1.140625 
Q 8.015625 3.421875 6 7.21875 
Q 4 11.03125 4 15.828125 
Q 4 22.5625 7.765625 29.203125 
Q 11.53125 35.84375 17.78125 40.015625 
Q 24.03125 44.1875 30.90625 44.1875 
Q 35.40625 44.1875 38.984375 42.015625 
Q 42.578125 39.84375 42.578125 35.59375 
Q 42.578125 32.859375 40.984375 30.921875 
Q 39.40625 29 36.71875 29 
Q 35.109375 29 34 30 
Q 32.90625 31 32.90625 32.625 
Q 32.90625 34.96875 34.609375 36.625 
Q 36.328125 38.28125 38.625 38.28125 
L 38.8125 38.28125 
Q 37.640625 39.984375 35.421875 40.796875 
Q 33.203125 41.609375 30.8125 41.609375 
Q 24.953125 41.609375 20.546875 36.59375 
Q 16.15625 31.59375 13.9375 24.625 
Q 11.71875 17.671875 11.71875 11.921875 
z
" id="Cmmi10-99"/>
      </defs>
      <g transform="translate(18.710791 234.316473)scale(0.15 -0.15)">
       <use transform="translate(0 0.8125)" xlink:href="#Cmmi10-99"/>
      </g>
     </g>
    </g>
    <g id="xtick_2">
     <g id="line2d_2">
      <g>
       <use style="stroke:#000000;stroke-width:0.8;" x="22.289209" xlink:href="#mbcbca18175" y="215.918817"/>
      </g>
     </g>
     <g id="text_2">
      <!-- $c$ -->
      <g transform="translate(18.989209 234.316473)scale(0.15 -0.15)">
       <use transform="translate(0 0.8125)" xlink:href="#Cmmi10-99"/>
      </g>
     </g>
    </g>
    <g id="text_3">
     <!-- $x$ -->
     <defs>
      <path d="M 7.8125 2.875 
Q 9.578125 1.515625 12.796875 1.515625 
Q 15.921875 1.515625 18.3125 4.515625 
Q 20.703125 7.515625 21.578125 11.078125 
L 26.125 28.8125 
Q 27.203125 33.640625 27.203125 35.40625 
Q 27.203125 37.890625 25.8125 39.75 
Q 24.421875 41.609375 21.921875 41.609375 
Q 18.75 41.609375 15.96875 39.625 
Q 13.1875 37.640625 11.28125 34.59375 
Q 9.375 31.546875 8.59375 28.421875 
Q 8.40625 27.78125 7.8125 27.78125 
L 6.59375 27.78125 
Q 5.8125 27.78125 5.8125 28.71875 
L 5.8125 29 
Q 6.78125 32.71875 9.125 36.25 
Q 11.46875 39.796875 14.859375 41.984375 
Q 18.265625 44.1875 22.125 44.1875 
Q 25.78125 44.1875 28.734375 42.234375 
Q 31.6875 40.28125 32.90625 36.921875 
Q 34.625 39.984375 37.28125 42.078125 
Q 39.9375 44.1875 43.109375 44.1875 
Q 45.265625 44.1875 47.5 43.421875 
Q 49.75 42.671875 51.171875 41.109375 
Q 52.59375 39.546875 52.59375 37.203125 
Q 52.59375 34.671875 50.953125 32.828125 
Q 49.3125 31 46.78125 31 
Q 45.171875 31 44.09375 32.03125 
Q 43.015625 33.0625 43.015625 34.625 
Q 43.015625 36.71875 44.453125 38.296875 
Q 45.90625 39.890625 47.90625 40.1875 
Q 46.09375 41.609375 42.921875 41.609375 
Q 39.703125 41.609375 37.328125 38.625 
Q 34.96875 35.640625 33.984375 31.984375 
L 29.59375 14.3125 
Q 28.515625 10.296875 28.515625 7.71875 
Q 28.515625 5.171875 29.953125 3.34375 
Q 31.390625 1.515625 33.796875 1.515625 
Q 38.484375 1.515625 42.15625 5.640625 
Q 45.84375 9.765625 47.015625 14.703125 
Q 47.21875 15.28125 47.796875 15.28125 
L 49.03125 15.28125 
Q 49.421875 15.28125 49.65625 15.015625 
Q 49.90625 14.75 49.90625 14.40625 
Q 49.90625 14.3125 49.8125 14.109375 
Q 48.390625 8.15625 43.84375 3.515625 
Q 39.3125 -1.125 33.59375 -1.125 
Q 29.9375 -1.125 26.984375 0.84375 
Q 24.03125 2.828125 22.796875 6.203125 
Q 21.234375 3.265625 18.46875 1.0625 
Q 15.71875 -1.125 12.59375 -1.125 
Q 10.453125 -1.125 8.171875 -0.359375 
Q 5.90625 0.390625 4.484375 1.953125 
Q 3.078125 3.515625 3.078125 5.90625 
Q 3.078125 8.25 4.703125 10.171875 
Q 6.34375 12.109375 8.796875 12.109375 
Q 10.453125 12.109375 11.578125 11.109375 
Q 12.703125 10.109375 12.703125 8.5 
Q 12.703125 6.390625 11.296875 4.828125 
Q 9.90625 3.265625 7.8125 2.875 
z
" id="Cmmi10-120"/>
     </defs>
     <g transform="translate(172.143053 215.918817)scale(0.24 -0.24)">
      <use transform="translate(0 0.8125)" xlink:href="#Cmmi10-120"/>
     </g>
    </g>
   </g>
   <g id="matplotlib.axis_2">
    <g id="ytick_1">
     <g id="line2d_3">
      <defs>
       <path d="M 0 0 
L -3.5 0 
" id="mc95b26336b" style="stroke:#000000;stroke-width:0.8;"/>
      </defs>
      <g>
       <use style="stroke:#000000;stroke-width:0.8;" x="22.15" xlink:href="#mc95b26336b" y="215.918817"/>
      </g>
     </g>
    </g>
    <g id="ytick_2">
     <g id="line2d_4">
      <g>
       <use style="stroke:#000000;stroke-width:0.8;" x="22.15" xlink:href="#mc95b26336b" y="41.907722"/>
      </g>
     </g>
     <g id="text_4">
      <!-- $d$ -->
      <defs>
       <path d="M 17.390625 -1.125 
Q 11.078125 -1.125 7.4375 3.640625 
Q 3.8125 8.40625 3.8125 14.890625 
Q 3.8125 21.296875 7.125 28.171875 
Q 10.453125 35.0625 16.09375 39.625 
Q 21.734375 44.1875 28.21875 44.1875 
Q 31.15625 44.1875 33.515625 42.546875 
Q 35.890625 40.921875 37.203125 38.1875 
L 42.828125 60.5 
Q 43.21875 62.203125 43.3125 63.1875 
Q 43.3125 64.796875 36.8125 64.796875 
Q 35.796875 64.796875 35.796875 66.109375 
Q 35.84375 66.359375 36.015625 66.984375 
Q 36.1875 67.625 36.453125 67.96875 
Q 36.71875 68.3125 37.203125 68.3125 
L 50.6875 69.390625 
Q 51.90625 69.390625 51.90625 68.109375 
L 37.5 10.59375 
Q 36.8125 8.9375 36.8125 5.8125 
Q 36.8125 1.515625 39.703125 1.515625 
Q 42.828125 1.515625 44.453125 5.484375 
Q 46.09375 9.46875 47.21875 14.703125 
Q 47.40625 15.28125 48 15.28125 
L 49.21875 15.28125 
Q 49.609375 15.28125 49.84375 14.9375 
Q 50.09375 14.59375 50.09375 14.3125 
Q 48.34375 7.328125 46.265625 3.09375 
Q 44.1875 -1.125 39.5 -1.125 
Q 36.140625 -1.125 33.546875 0.84375 
Q 30.953125 2.828125 30.328125 6.109375 
Q 23.875 -1.125 17.390625 -1.125 
z
M 17.484375 1.515625 
Q 21.09375 1.515625 24.484375 4.21875 
Q 27.875 6.9375 30.328125 10.59375 
Q 30.421875 10.6875 30.421875 10.984375 
L 35.890625 33.015625 
Q 35.296875 36.53125 33.296875 39.0625 
Q 31.296875 41.609375 27.984375 41.609375 
Q 24.609375 41.609375 21.703125 38.84375 
Q 18.796875 36.078125 16.796875 32.328125 
Q 14.84375 28.328125 13.0625 21.34375 
Q 11.28125 14.359375 11.28125 10.5 
Q 11.28125 7.03125 12.765625 4.265625 
Q 14.265625 1.515625 17.484375 1.515625 
z
" id="Cmmi10-100"/>
      </defs>
      <g transform="translate(7.2 47.60655)scale(0.15 -0.15)">
       <use transform="translate(0 0.609375)" xlink:href="#Cmmi10-100"/>
      </g>
     </g>
    </g>
    <g id="text_5">
     <!-- $y$ -->
     <defs>
      <path d="M 8.40625 -14.3125 
Q 10.5 -17.921875 15.71875 -17.921875 
Q 20.453125 -17.921875 23.921875 -14.59375 
Q 27.390625 -11.28125 29.515625 -6.5625 
Q 31.640625 -1.859375 32.8125 3.078125 
Q 28.375 -1.125 23.1875 -1.125 
Q 19.234375 -1.125 16.453125 0.234375 
Q 13.671875 1.609375 12.125 4.3125 
Q 10.59375 7.03125 10.59375 10.890625 
Q 10.59375 14.15625 11.46875 17.59375 
Q 12.359375 21.046875 13.9375 25.265625 
Q 15.53125 29.5 16.703125 32.625 
Q 18.015625 36.28125 18.015625 38.625 
Q 18.015625 41.609375 15.828125 41.609375 
Q 11.859375 41.609375 9.296875 37.53125 
Q 6.734375 33.453125 5.515625 28.421875 
Q 5.328125 27.78125 4.6875 27.78125 
L 3.515625 27.78125 
Q 2.6875 27.78125 2.6875 28.71875 
L 2.6875 29 
Q 4.296875 34.96875 7.609375 39.578125 
Q 10.9375 44.1875 16.015625 44.1875 
Q 19.578125 44.1875 22.046875 41.84375 
Q 24.515625 39.5 24.515625 35.890625 
Q 24.515625 34.03125 23.6875 31.984375 
Q 23.25 30.765625 21.6875 26.65625 
Q 20.125 22.5625 19.28125 19.875 
Q 18.453125 17.1875 17.921875 14.59375 
Q 17.390625 12.015625 17.390625 9.421875 
Q 17.390625 6.109375 18.796875 3.8125 
Q 20.21875 1.515625 23.296875 1.515625 
Q 29.5 1.515625 34.421875 9.078125 
L 42 39.890625 
Q 42.328125 41.21875 43.546875 42.15625 
Q 44.78125 43.109375 46.1875 43.109375 
Q 47.40625 43.109375 48.3125 42.328125 
Q 49.21875 41.546875 49.21875 40.28125 
Q 49.21875 39.703125 49.125 39.5 
L 39.203125 -0.296875 
Q 37.890625 -5.421875 34.375 -10.109375 
Q 30.859375 -14.796875 25.90625 -17.65625 
Q 20.953125 -20.515625 15.578125 -20.515625 
Q 12.984375 -20.515625 10.4375 -19.5 
Q 7.90625 -18.5 6.34375 -16.5 
Q 4.78125 -14.5 4.78125 -11.8125 
Q 4.78125 -9.078125 6.390625 -7.078125 
Q 8.015625 -5.078125 10.6875 -5.078125 
Q 12.3125 -5.078125 13.40625 -6.078125 
Q 14.5 -7.078125 14.5 -8.6875 
Q 14.5 -10.984375 12.78125 -12.6875 
Q 11.078125 -14.40625 8.796875 -14.40625 
Q 8.6875 -14.359375 8.59375 -14.328125 
Q 8.5 -14.3125 8.40625 -14.3125 
z
" id="Cmmi10-121"/>
     </defs>
     <g transform="translate(16.15 25.3875)scale(0.24 -0.24)">
      <use transform="translate(0 0.8125)" xlink:href="#Cmmi10-121"/>
     </g>
    </g>
   </g>
   <g id="line2d_5">
    <path clip-path="url(#p7d247d834d)" d="M 22.15 215.918817 
L 161.358876 41.907722 
L 161.358876 41.907722 
" style="fill:none;stroke:#ff0000;stroke-linecap:square;stroke-width:1.5;"/>
   </g>
   <g id="line2d_6">
    <path clip-path="url(#p7d247d834d)" d="M 22.15 215.918817 
L 44.225548 215.808775 
L 52.505821 215.525378 
L 58.721899 215.089922 
L 63.990219 214.498827 
L 68.543611 213.772262 
L 72.214415 213.007926 
L 76.684202 211.820693 
L 80.144143 210.677435 
L 83.424011 209.387294 
L 86.761586 207.843662 
L 90.167478 206.001565 
L 93.320125 204.031053 
L 96.957865 201.407785 
L 99.654232 199.199794 
L 102.810636 196.305285 
L 106.051054 192.958446 
L 108.712075 189.904054 
L 111.377714 186.548523 
L 114.389369 182.377931 
L 116.95627 178.485572 
L 119.758053 173.860504 
L 122.534983 168.866151 
L 125.340778 163.380908 
L 128.648453 156.313853 
L 131.758748 149.039764 
L 134.569319 141.911776 
L 137.721128 133.256678 
L 140.320087 125.566466 
L 142.950602 117.248704 
L 146.401482 105.481578 
L 149.749281 93.089468 
L 152.956081 80.268449 
L 156.201511 66.2966 
L 159.401392 51.490629 
L 161.358876 41.907722 
L 161.358876 41.907722 
" style="fill:none;stroke:#0000ff;stroke-linecap:square;stroke-width:1.5;"/>
   </g>
   <g id="line2d_7">
    <path clip-path="url(#p7d247d834d)" d="M 22.15 215.918817 
L 22.15 215.918817 
" style="fill:none;stroke:#000000;stroke-linecap:square;"/>
   </g>
   <g id="line2d_8">
    <path clip-path="url(#p7d247d834d)" d="M 161.358876 41.907722 
L 161.358876 41.907722 
" style="fill:none;stroke:#000000;stroke-linecap:square;"/>
   </g>
   <g id="line2d_9">
    <path clip-path="url(#p7d247d834d)" d="M 22.15 215.918817 
L 22.15 215.918817 
" style="fill:none;stroke:#d3d3d3;stroke-dasharray:3.7,1.6;stroke-dashoffset:0;"/>
   </g>
   <g id="line2d_10">
    <path clip-path="url(#p7d247d834d)" d="M 22.15 41.907722 
L 161.358876 41.907722 
" style="fill:none;stroke:#d3d3d3;stroke-dasharray:3.7,1.6;stroke-dashoffset:0;"/>
   </g>
   <g id="patch_4">
    <path d="M 22.15 219.399038 
L 22.15 38.4275 
" style="fill:none;stroke:#000000;stroke-linecap:square;stroke-linejoin:miter;stroke-width:0.8;"/>
   </g>
   <g id="patch_5">
    <path d="M 19.365822 215.918817 
L 164.143053 215.918817 
" style="fill:none;stroke:#000000;stroke-linecap:square;stroke-linejoin:miter;stroke-width:0.8;"/>
   </g>
   <g id="text_6">
    <!-- $x=f(y)$ -->
    <defs>
     <path d="M 7.515625 13.28125 
Q 6.6875 13.28125 6.140625 13.90625 
Q 5.609375 14.546875 5.609375 15.28125 
Q 5.609375 16.109375 6.140625 16.6875 
Q 6.6875 17.28125 7.515625 17.28125 
L 70.3125 17.28125 
Q 71.046875 17.28125 71.578125 16.6875 
Q 72.125 16.109375 72.125 15.28125 
Q 72.125 14.546875 71.578125 13.90625 
Q 71.046875 13.28125 70.3125 13.28125 
z
M 7.515625 32.71875 
Q 6.6875 32.71875 6.140625 33.296875 
Q 5.609375 33.890625 5.609375 34.71875 
Q 5.609375 35.453125 6.140625 36.078125 
Q 6.6875 36.71875 7.515625 36.71875 
L 70.3125 36.71875 
Q 71.046875 36.71875 71.578125 36.078125 
Q 72.125 35.453125 72.125 34.71875 
Q 72.125 33.890625 71.578125 33.296875 
Q 71.046875 32.71875 70.3125 32.71875 
z
" id="Cmr10-61"/>
     <path d="M 9.71875 -16.5 
Q 11.578125 -17.921875 14.203125 -17.921875 
Q 17.78125 -17.921875 20.015625 -10.015625 
Q 20.953125 -6.203125 25.09375 15.09375 
L 29.6875 39.59375 
L 21.09375 39.59375 
Q 20.125 39.59375 20.125 40.921875 
Q 20.515625 43.109375 21.390625 43.109375 
L 30.328125 43.109375 
L 31.5 49.609375 
Q 32.078125 52.640625 32.5625 54.8125 
Q 33.0625 56.984375 33.625 58.828125 
Q 34.1875 60.6875 35.296875 62.984375 
Q 37.015625 66.265625 39.921875 68.390625 
Q 42.828125 70.515625 46.1875 70.515625 
Q 48.390625 70.515625 50.46875 69.703125 
Q 52.546875 68.890625 53.859375 67.28125 
Q 55.171875 65.671875 55.171875 63.484375 
Q 55.171875 60.9375 53.484375 59.046875 
Q 51.8125 57.171875 49.421875 57.171875 
Q 47.796875 57.171875 46.65625 58.171875 
Q 45.515625 59.1875 45.515625 60.796875 
Q 45.515625 62.984375 47 64.625 
Q 48.484375 66.265625 50.6875 66.5 
Q 48.828125 67.921875 46.09375 67.921875 
Q 44.578125 67.921875 43.234375 66.5 
Q 41.890625 65.09375 41.5 63.484375 
Q 40.875 60.9375 38.71875 49.703125 
L 37.5 43.109375 
L 47.796875 43.109375 
Q 48.78125 43.109375 48.78125 41.796875 
Q 48.734375 41.546875 48.578125 40.9375 
Q 48.4375 40.328125 48.171875 39.953125 
Q 47.90625 39.59375 47.515625 39.59375 
L 36.8125 39.59375 
L 32.171875 15.1875 
Q 31.296875 9.859375 30.140625 4.359375 
Q 29 -1.125 26.921875 -6.90625 
Q 24.859375 -12.703125 21.625 -16.609375 
Q 18.40625 -20.515625 14.015625 -20.515625 
Q 10.640625 -20.515625 7.984375 -18.578125 
Q 5.328125 -16.65625 5.328125 -13.484375 
Q 5.328125 -10.9375 6.953125 -9.046875 
Q 8.59375 -7.171875 11.078125 -7.171875 
Q 12.75 -7.171875 13.859375 -8.171875 
Q 14.984375 -9.1875 14.984375 -10.796875 
Q 14.984375 -12.9375 13.390625 -14.71875 
Q 11.8125 -16.5 9.71875 -16.5 
z
" id="Cmmi10-102"/>
     <path d="M 31 -24.8125 
Q 25.4375 -20.40625 21.40625 -14.71875 
Q 17.390625 -9.03125 14.8125 -2.578125 
Q 12.25 3.859375 10.984375 10.890625 
Q 9.71875 17.921875 9.71875 25 
Q 9.71875 32.171875 10.984375 39.203125 
Q 12.25 46.234375 14.859375 52.734375 
Q 17.484375 59.234375 21.53125 64.890625 
Q 25.59375 70.5625 31 74.8125 
Q 31 75 31.5 75 
L 32.421875 75 
Q 32.71875 75 32.953125 74.734375 
Q 33.203125 74.46875 33.203125 74.125 
Q 33.203125 73.6875 33.015625 73.484375 
Q 28.125 68.703125 24.875 63.234375 
Q 21.625 57.765625 19.640625 51.578125 
Q 17.671875 45.40625 16.796875 38.78125 
Q 15.921875 32.171875 15.921875 25 
Q 15.921875 -6.78125 32.90625 -23.296875 
Q 33.203125 -23.578125 33.203125 -24.125 
Q 33.203125 -24.359375 32.9375 -24.671875 
Q 32.671875 -25 32.421875 -25 
L 31.5 -25 
Q 31 -25 31 -24.8125 
z
" id="Cmr10-40"/>
     <path d="M 6.5 -25 
Q 5.609375 -25 5.609375 -24.125 
Q 5.609375 -23.6875 5.8125 -23.484375 
Q 22.90625 -6.78125 22.90625 25 
Q 22.90625 56.78125 6 73.296875 
Q 5.609375 73.53125 5.609375 74.125 
Q 5.609375 74.46875 5.875 74.734375 
Q 6.15625 75 6.5 75 
L 7.421875 75 
Q 7.71875 75 7.90625 74.8125 
Q 15.09375 69.140625 19.875 61.03125 
Q 24.65625 52.9375 26.875 43.75 
Q 29.109375 34.578125 29.109375 25 
Q 29.109375 17.921875 27.90625 11.0625 
Q 26.703125 4.203125 24.09375 -2.453125 
Q 21.484375 -9.125 17.484375 -14.765625 
Q 13.484375 -20.40625 7.90625 -24.8125 
Q 7.71875 -25 7.421875 -25 
z
" id="Cmr10-41"/>
    </defs>
    <g style="fill:#ff0000;" transform="translate(24.041771 132.663274)scale(0.15 -0.15)">
     <use xlink:href="#Cmmi10-120"/>
     <use transform="translate(74.638672 0)" xlink:href="#Cmr10-61"/>
     <use transform="translate(169.882812 0)" xlink:href="#Cmmi10-102"/>
     <use transform="translate(218.759766 0)" xlink:href="#Cmr10-40"/>
     <use transform="translate(257.578125 0)" xlink:href="#Cmmi10-121"/>
     <use transform="translate(306.601562 0)" xlink:href="#Cmr10-41"/>
    </g>
   </g>
   <g id="text_7">
    <!-- $x=g(y)$ -->
    <defs>
     <path d="M 1.421875 -14.3125 
Q 1.421875 -11.859375 3.09375 -10.03125 
Q 4.78125 -8.203125 7.171875 -8.203125 
Q 8.796875 -8.203125 9.890625 -9.203125 
Q 10.984375 -10.203125 10.984375 -11.8125 
Q 10.984375 -13.625 9.953125 -15.0625 
Q 8.9375 -16.5 7.328125 -17.09375 
Q 10.015625 -17.921875 15.71875 -17.921875 
Q 20.3125 -17.921875 24.125 -14.375 
Q 27.9375 -10.84375 29.109375 -6.203125 
L 31.984375 5.515625 
Q 26.5625 0 20.703125 0 
Q 16.40625 0 13.34375 2.1875 
Q 10.296875 4.390625 8.6875 8.046875 
Q 7.078125 11.71875 7.078125 15.828125 
Q 7.078125 20.40625 8.953125 25.4375 
Q 10.84375 30.46875 14.234375 34.765625 
Q 17.625 39.0625 22.015625 41.625 
Q 26.421875 44.1875 31.296875 44.1875 
Q 34.234375 44.1875 36.578125 42.578125 
Q 38.921875 40.96875 40.28125 38.28125 
Q 41.265625 42.1875 44.578125 42.1875 
Q 45.84375 42.1875 46.71875 41.421875 
Q 47.609375 40.671875 47.609375 39.40625 
Q 47.609375 39.109375 47.578125 38.953125 
Q 47.5625 38.8125 47.515625 38.625 
L 36.078125 -6.78125 
Q 35.296875 -9.90625 33.203125 -12.5 
Q 31.109375 -15.09375 28.265625 -16.828125 
Q 25.4375 -18.5625 22.0625 -19.53125 
Q 18.703125 -20.515625 15.578125 -20.515625 
Q 9.859375 -20.515625 5.640625 -19.40625 
Q 1.421875 -18.3125 1.421875 -14.3125 
z
M 20.90625 2.59375 
Q 27.296875 2.59375 33.5 11.375 
L 39.015625 33.203125 
Q 38.328125 36.671875 36.28125 39.140625 
Q 34.234375 41.609375 31.109375 41.609375 
Q 27.78125 41.609375 24.828125 38.890625 
Q 21.875 36.1875 19.921875 32.421875 
Q 18.0625 28.8125 16.328125 22.046875 
Q 14.59375 15.28125 14.59375 11.375 
Q 14.59375 7.953125 16.15625 5.265625 
Q 17.71875 2.59375 20.90625 2.59375 
z
" id="Cmmi10-103"/>
    </defs>
    <g style="fill:#0000ff;" transform="translate(121.562989 193.567152)scale(0.15 -0.15)">
     <use xlink:href="#Cmmi10-120"/>
     <use transform="translate(74.638672 0)" xlink:href="#Cmr10-61"/>
     <use transform="translate(169.882812 0)" xlink:href="#Cmmi10-103"/>
     <use transform="translate(217.587891 0)" xlink:href="#Cmr10-40"/>
     <use transform="translate(256.40625 0)" xlink:href="#Cmmi10-121"/>
     <use transform="translate(305.429688 0)" xlink:href="#Cmr10-41"/>
    </g>
   </g>
  </g>
 </g>
 <defs>
  <clipPath id="p7d247d834d">
   <rect height="180.971538" width="144.777231" x="19.365822" y="38.4275"/>
  </clipPath>
 </defs>
</svg>
