<?xml version="1.0" encoding="utf-8" standalone="no"?>
<!DOCTYPE svg PUBLIC "-//W3C//DTD SVG 1.1//EN"
  "http://www.w3.org/Graphics/SVG/1.1/DTD/svg11.dtd">
<!-- Created with matplotlib (https://matplotlib.org/) -->
<svg height="244.636004pt" version="1.1" viewBox="0 0 244.68 244.636004" width="244.68pt" xmlns="http://www.w3.org/2000/svg" xmlns:xlink="http://www.w3.org/1999/xlink">
 <defs>
  <style type="text/css">
*{stroke-linecap:butt;stroke-linejoin:round;}
  </style>
 </defs>
 <g id="figure_1">
  <g id="patch_1">
   <path d="M 0 244.636004 
L 244.68 244.636004 
L 244.68 0 
L 0 0 
z
" style="fill:#ffffff;"/>
  </g>
  <g id="axes_1">
   <g id="patch_2">
    <path d="M 7.2 219.399038 
L 215.56 219.399038 
L 215.56 38.4275 
L 7.2 38.4275 
z
" style="fill:#ffffff;"/>
   </g>
   <g id="patch_3">
    <path clip-path="url(#p3b287c08be)" d="M 173.649751 133.056391 
L 172.882755 134.225972 
L 172.791178 134.365062 
L 172.144421 135.343995 
L 171.567381 136.212417 
L 171.127377 136.871442 
L 170.209507 138.237396 
L 169.589325 139.153597 
L 169.292454 139.590244 
L 168.979424 140.049309 
L 168.157244 141.24846 
L 167.931439 141.576125 
L 166.853274 143.130714 
L 166.305906 143.913668 
L 166.157148 144.12572 
L 165.383439 145.223584 
L 165.124126 145.589647 
L 164.495592 146.472983 
L 163.717569 147.558677 
L 163.188624 148.291911 
L 162.574404 149.138393 
L 162.339289 149.461003 
L 161.753954 150.260773 
L 161.372389 150.779515 
L 160.777029 151.584805 
L 160.080379 152.52074 
L 159.36689 153.472191 
L 158.887982 154.106789 
L 158.618915 154.461906 
L 157.987303 155.291494 
L 157.455008 155.986257 
L 156.63348 157.050675 
L 156.107435 157.727239 
L 155.434641 158.586844 
L 155.416025 158.610538 
L 154.608402 159.633749 
L 154.017346 160.376742 
L 153.449189 161.086295 
L 153.235619 161.351836 
L 152.598833 162.139755 
L 151.857035 163.050385 
L 151.393002 163.616076 
L 151.006659 164.084738 
L 149.989423 165.308628 
L 149.631111 165.736249 
L 149.135763 166.324427 
L 148.507598 167.065325 
L 148.328731 167.275272 
L 147.430007 168.323317 
L 146.784038 169.069562 
L 146.457676 169.444345 
L 146.020807 169.943675 
L 145.587912 170.4358 
L 144.660011 171.481741 
L 144.379971 171.795016 
L 143.581401 172.682273 
L 143.239732 173.059133 
L 142.521178 173.846316 
L 141.901011 174.519849 
L 141.685574 174.752552 
L 140.93076 175.562687 
L 140.64964 175.862354 
L 139.906179 176.64948 
L 139.30693 177.278239 
L 139.032736 177.564245 
L 138.367713 178.2535 
L 137.54674 179.095769 
L 137.016048 179.635159 
L 136.733161 179.921056 
L 135.950998 180.705657 
L 135.660411 180.994946 
L 135.164298 181.486087 
L 134.402547 182.233435 
L 133.952176 182.671433 
L 133.20448 183.392257 
L 132.603543 183.965872 
L 132.36932 184.188064 
L 131.783855 184.740065 
L 131.013589 185.458924 
L 130.440046 185.988745 
L 130.071768 186.326497 
L 129.452005 186.890563 
L 128.852284 187.431222 
L 128.244207 187.974224 
L 127.90729 188.272836 
L 127.187804 188.90515 
L 127.042129 189.032284 
L 126.276017 189.695957 
L 125.776278 190.124405 
L 125.459601 190.394079 
L 124.932784 190.839564 
L 124.17352 191.474709 
L 123.454864 192.068382 
L 122.882215 192.536214 
L 122.542888 192.811245 
L 122.171462 193.110428 
L 121.630178 193.54294 
L 121.020039 194.025507 
L 120.455357 194.467435 
L 119.581652 195.142327 
L 119.005413 195.58154 
L 118.674237 195.831841 
L 118.021685 196.3205 
L 117.691958 196.565126 
L 116.831725 197.196103 
L 116.487413 197.445724 
L 116.175849 197.67016 
L 115.650336 198.045605 
L 115.107967 198.429001 
L 114.219266 199.048231 
L 113.631363 199.451737 
L 113.455037 199.571806 
L 112.780568 200.027029 
L 112.273946 200.36474 
L 111.399558 200.939068 
L 111.113036 201.124915 
L 110.782797 201.33768 
L 109.982147 201.847121 
L 109.238465 202.3122 
L 108.666086 202.664828 
L 108.315553 202.878496 
L 107.934153 203.109007 
L 107.047709 203.636817 
L 106.855779 203.749635 
L 105.987713 204.253387 
L 105.365813 204.607739 
L 105.303215 204.643104 
L 104.539351 205.07019 
L 104.128943 205.296249 
L 103.231002 205.782549 
L 103.091203 205.857235 
L 102.624398 206.10462 
L 101.9786 206.441787 
L 101.38868 206.744629 
L 100.772044 207.05593 
L 100.241493 207.319472 
L 99.495038 207.683525 
L 99.115515 207.865602 
L 98.295631 208.251997 
L 97.922012 208.424925 
L 97.641034 208.553676 
L 96.962276 208.860095 
L 96.494253 209.067587 
L 96.048783 209.262206 
L 95.453916 209.517721 
L 94.536969 209.901786 
L 94.407397 209.9551 
L 93.550537 210.30169 
L 92.874393 210.567858 
L 92.490999 210.715914 
L 92.182633 210.833489 
L 91.58056 211.059176 
L 90.771803 211.354278 
L 90.217837 211.551076 
L 89.785333 211.701711 
L 89.44232 211.819297 
L 88.530369 212.123833 
L 88.163068 212.243169 
L 87.455794 212.467592 
L 87.087518 212.58165 
L 86.833083 212.659331 
L 85.811823 212.961925 
L 85.688357 212.997509 
L 84.989809 213.194779 
L 84.437611 213.345839 
L 83.972712 213.469677 
L 83.443647 213.606892 
L 82.684423 213.796888 
L 82.208582 213.911815 
L 81.734891 214.023045 
L 81.115723 214.163655 
L 80.731518 214.248182 
L 79.879805 214.428125 
L 79.353973 214.534101 
L 78.714637 214.65769 
L 78.211982 214.750801 
L 78.055111 214.779128 
L 77.163354 214.933553 
L 76.621927 215.02183 
L 76.50765 215.039932 
L 75.592883 215.17819 
L 75.361768 215.21125 
L 74.534145 215.323445 
L 73.952939 215.39645 
L 73.606463 215.4377 
L 73.13793 215.490783 
L 72.346108 215.573443 
L 71.958508 215.610675 
L 71.58473 215.644569 
L 70.964074 215.696489 
L 70.050047 215.763039 
L 69.528307 215.795734 
L 69.182157 215.815303 
L 68.721587 215.838715 
L 68.218868 215.860849 
L 67.599841 215.883197 
L 66.861382 215.902774 
L 66.692306 215.906172 
L 65.83202 215.917206 
L 65.354532 215.918817 
L 65.354532 91.625178 
L 66.098721 91.340468 
L 66.252156 91.281768 
L 67.02837 90.984806 
L 67.389413 90.84668 
L 67.866158 90.664288 
L 68.437515 90.4457 
L 69.005484 90.228409 
L 69.916778 89.879769 
L 70.079386 89.817559 
L 70.788081 89.546429 
L 71.256506 89.367221 
L 72.093928 89.046843 
L 72.623032 88.84442 
L 72.859753 88.753856 
L 73.753656 88.411869 
L 73.796243 88.395577 
L 74.452918 88.144348 
L 75.11702 87.890278 
L 75.548318 87.725274 
L 76.211736 87.471466 
L 76.749995 87.26554 
L 77.279587 87.062931 
L 77.871799 86.836365 
L 78.312122 86.667907 
L 78.730763 86.507745 
L 79.522546 86.204827 
L 80.296857 85.908594 
L 80.346191 85.88972 
L 80.999449 85.639799 
L 81.76937 85.345245 
L 82.327133 85.131858 
L 82.561277 85.04228 
L 83.38604 84.726745 
L 83.768817 84.580304 
L 84.507351 84.297758 
L 85.037043 84.09511 
L 85.249768 84.013726 
L 85.911302 83.760639 
L 86.557038 83.513596 
L 87.288562 83.233732 
L 87.519392 83.145422 
L 88.317757 82.839986 
L 88.825333 82.645799 
L 89.136119 82.5269 
L 89.795873 82.274493 
L 90.608235 81.963702 
L 90.993726 81.816223 
L 91.422447 81.652204 
L 92.13661 81.378982 
L 92.488479 81.244365 
L 92.981801 81.055632 
L 93.41111 80.891388 
L 93.931453 80.692317 
L 94.901436 80.321224 
L 95.081557 80.252314 
L 95.974517 79.910689 
L 96.345853 79.768625 
L 97.16158 79.456546 
L 97.353439 79.383146 
L 97.75301 79.230279 
L 98.522843 78.935759 
L 98.923103 78.782629 
L 99.531482 78.549877 
L 100.071573 78.343251 
L 100.767122 78.07715 
L 101.142726 77.933453 
L 101.929078 77.632613 
L 102.170265 77.540341 
L 102.772964 77.309762 
L 103.366747 77.082595 
L 103.752815 76.934894 
L 104.38797 76.691899 
L 105.083249 76.425902 
L 105.8202 76.143961 
L 105.927444 76.102932 
L 106.726997 75.797042 
L 107.262092 75.592327 
L 107.767086 75.399128 
L 108.122761 75.263055 
L 109.131146 74.877271 
L 109.630506 74.686228 
L 110.144551 74.489566 
L 110.710435 74.273072 
L 111.281132 74.054737 
L 111.345819 74.029989 
L 112.161275 73.718014 
L 112.58637 73.555383 
L 113.065 73.372271 
L 113.898377 73.05344 
L 114.274642 72.90949 
L 114.91217 72.665586 
L 115.173548 72.565589 
L 116.113828 72.20586 
L 116.677961 71.990036 
L 117.138083 71.814004 
L 117.606942 71.63463 
L 118.244599 71.390677 
L 118.516054 71.286825 
L 119.25064 71.00579 
L 119.829213 70.784441 
L 120.189784 70.646495 
L 120.735638 70.437664 
L 121.590934 70.110448 
L 121.942704 69.975869 
L 122.605225 69.722404 
L 122.821756 69.639564 
L 123.564388 69.355451 
L 124.205349 69.110234 
L 124.809667 68.879036 
L 125.417894 68.646343 
L 126.013201 68.418592 
L 126.107541 68.3825 
L 126.942734 68.062975 
L 127.199143 67.964878 
L 127.825425 67.725278 
L 128.741928 67.374645 
L 129.296716 67.162396 
L 129.411041 67.118658 
L 129.880498 66.939055 
L 130.714054 66.620156 
L 130.95406 66.528335 
L 131.730352 66.231344 
L 132.479084 65.944897 
L 132.745291 65.843052 
L 133.480437 65.561803 
L 134.021508 65.354802 
L 134.196072 65.288017 
L 135.176101 64.913081 
L 135.541023 64.773471 
L 135.983221 64.604296 
L 136.644379 64.351353 
L 137.404135 64.060688 
L 137.546858 64.006085 
L 138.524152 63.632195 
L 138.649605 63.5842 
L 139.473559 63.268975 
L 139.91765 63.099076 
L 140.432141 62.902244 
L 141.208963 62.60505 
L 141.698342 62.417825 
L 141.86929 62.352424 
L 142.728552 62.02369 
L 143.19783 61.844156 
L 143.858479 61.591407 
L 144.080338 61.506529 
L 145.076071 61.125585 
L 145.488296 60.967877 
L 145.897223 60.811431 
L 146.637446 60.528239 
L 147.172834 60.323412 
L 147.551867 60.178403 
L 147.90163 60.044592 
L 148.578677 59.78557 
L 148.908662 59.659325 
L 149.698821 59.357029 
L 150.451028 59.069252 
L 150.867366 58.909971 
L 151.212528 58.77792 
L 151.643024 58.613222 
L 152.589745 58.251029 
L 152.923457 58.123359 
L 153.60286 57.863435 
L 153.920948 57.741742 
L 154.478235 57.528537 
L 154.93104 57.355305 
L 155.750191 57.041917 
L 156.485971 56.760424 
L 156.549339 56.736181 
L 157.574541 56.343963 
L 157.787121 56.262635 
L 158.266477 56.079244 
L 158.716925 55.906913 
L 159.769653 55.504164 
L 159.861575 55.468997 
L 160.543421 55.208139 
L 161.258716 54.934484 
L 161.635694 54.790261 
L 162.215702 54.568363 
L 162.874907 54.316167 
L 163.423511 54.106284 
L 163.796573 53.963559 
L 164.275563 53.780309 
L 164.922426 53.532834 
L 165.473152 53.322139 
L 166.091908 53.085418 
L 166.5318 52.917126 
L 167.34867 52.60461 
L 167.832407 52.419544 
L 167.967495 52.367862 
L 168.771289 52.06035 
L 169.504356 51.779895 
L 169.618335 51.736289 
L 170.380228 51.444807 
L 170.834256 51.271107 
L 171.334177 51.079849 
L 172.220242 50.740861 
L 172.330979 50.698496 
L 173.107152 50.40155 
L 173.649751 50.193964 
z
" style="fill:#cde0eb;opacity:0.5;"/>
   </g>
   <g id="matplotlib.axis_1">
    <g id="xtick_1">
     <g id="line2d_1">
      <defs>
       <path d="M 0 0 
L 0 3.5 
" id="m7fff2f9552" style="stroke:#000000;stroke-width:0.8;"/>
      </defs>
      <g>
       <use style="stroke:#000000;stroke-width:0.8;" x="65.354532" xlink:href="#m7fff2f9552" y="215.918817"/>
      </g>
     </g>
    </g>
    <g id="xtick_2">
     <g id="line2d_2">
      <g>
       <use style="stroke:#000000;stroke-width:0.8;" x="173.649751" xlink:href="#m7fff2f9552" y="215.918817"/>
      </g>
     </g>
     <g id="text_1">
      <!-- 2 -->
      <defs>
       <path d="M 19.1875 8.296875 
L 53.609375 8.296875 
L 53.609375 0 
L 7.328125 0 
L 7.328125 8.296875 
Q 12.9375 14.109375 22.625 23.890625 
Q 32.328125 33.6875 34.8125 36.53125 
Q 39.546875 41.84375 41.421875 45.53125 
Q 43.3125 49.21875 43.3125 52.78125 
Q 43.3125 58.59375 39.234375 62.25 
Q 35.15625 65.921875 28.609375 65.921875 
Q 23.96875 65.921875 18.8125 64.3125 
Q 13.671875 62.703125 7.8125 59.421875 
L 7.8125 69.390625 
Q 13.765625 71.78125 18.9375 73 
Q 24.125 74.21875 28.421875 74.21875 
Q 39.75 74.21875 46.484375 68.546875 
Q 53.21875 62.890625 53.21875 53.421875 
Q 53.21875 48.921875 51.53125 44.890625 
Q 49.859375 40.875 45.40625 35.40625 
Q 44.1875 33.984375 37.640625 27.21875 
Q 31.109375 20.453125 19.1875 8.296875 
z
" id="DejaVuSans-50"/>
      </defs>
      <g transform="translate(168.877876 234.316473)scale(0.15 -0.15)">
       <use xlink:href="#DejaVuSans-50"/>
      </g>
     </g>
    </g>
    <g id="text_2">
     <!-- $x$ -->
     <defs>
      <path d="M 7.8125 2.875 
Q 9.578125 1.515625 12.796875 1.515625 
Q 15.921875 1.515625 18.3125 4.515625 
Q 20.703125 7.515625 21.578125 11.078125 
L 26.125 28.8125 
Q 27.203125 33.640625 27.203125 35.40625 
Q 27.203125 37.890625 25.8125 39.75 
Q 24.421875 41.609375 21.921875 41.609375 
Q 18.75 41.609375 15.96875 39.625 
Q 13.1875 37.640625 11.28125 34.59375 
Q 9.375 31.546875 8.59375 28.421875 
Q 8.40625 27.78125 7.8125 27.78125 
L 6.59375 27.78125 
Q 5.8125 27.78125 5.8125 28.71875 
L 5.8125 29 
Q 6.78125 32.71875 9.125 36.25 
Q 11.46875 39.796875 14.859375 41.984375 
Q 18.265625 44.1875 22.125 44.1875 
Q 25.78125 44.1875 28.734375 42.234375 
Q 31.6875 40.28125 32.90625 36.921875 
Q 34.625 39.984375 37.28125 42.078125 
Q 39.9375 44.1875 43.109375 44.1875 
Q 45.265625 44.1875 47.5 43.421875 
Q 49.75 42.671875 51.171875 41.109375 
Q 52.59375 39.546875 52.59375 37.203125 
Q 52.59375 34.671875 50.953125 32.828125 
Q 49.3125 31 46.78125 31 
Q 45.171875 31 44.09375 32.03125 
Q 43.015625 33.0625 43.015625 34.625 
Q 43.015625 36.71875 44.453125 38.296875 
Q 45.90625 39.890625 47.90625 40.1875 
Q 46.09375 41.609375 42.921875 41.609375 
Q 39.703125 41.609375 37.328125 38.625 
Q 34.96875 35.640625 33.984375 31.984375 
L 29.59375 14.3125 
Q 28.515625 10.296875 28.515625 7.71875 
Q 28.515625 5.171875 29.953125 3.34375 
Q 31.390625 1.515625 33.796875 1.515625 
Q 38.484375 1.515625 42.15625 5.640625 
Q 45.84375 9.765625 47.015625 14.703125 
Q 47.21875 15.28125 47.796875 15.28125 
L 49.03125 15.28125 
Q 49.421875 15.28125 49.65625 15.015625 
Q 49.90625 14.75 49.90625 14.40625 
Q 49.90625 14.3125 49.8125 14.109375 
Q 48.390625 8.15625 43.84375 3.515625 
Q 39.3125 -1.125 33.59375 -1.125 
Q 29.9375 -1.125 26.984375 0.84375 
Q 24.03125 2.828125 22.796875 6.203125 
Q 21.234375 3.265625 18.46875 1.0625 
Q 15.71875 -1.125 12.59375 -1.125 
Q 10.453125 -1.125 8.171875 -0.359375 
Q 5.90625 0.390625 4.484375 1.953125 
Q 3.078125 3.515625 3.078125 5.90625 
Q 3.078125 8.25 4.703125 10.171875 
Q 6.34375 12.109375 8.796875 12.109375 
Q 10.453125 12.109375 11.578125 11.109375 
Q 12.703125 10.109375 12.703125 8.5 
Q 12.703125 6.390625 11.296875 4.828125 
Q 9.90625 3.265625 7.8125 2.875 
z
" id="Cmmi10-120"/>
     </defs>
     <g transform="translate(223.56 215.918817)scale(0.24 -0.24)">
      <use transform="translate(0 0.8125)" xlink:href="#Cmmi10-120"/>
     </g>
    </g>
   </g>
   <g id="matplotlib.axis_2">
    <g id="ytick_1">
     <g id="line2d_3">
      <defs>
       <path d="M 0 0 
L -3.5 0 
" id="m11dad15194" style="stroke:#000000;stroke-width:0.8;"/>
      </defs>
      <g>
       <use style="stroke:#000000;stroke-width:0.8;" x="65.354532" xlink:href="#m11dad15194" y="215.918817"/>
      </g>
     </g>
    </g>
    <g id="ytick_2">
     <g id="line2d_4">
      <g>
       <use style="stroke:#000000;stroke-width:0.8;" x="65.354532" xlink:href="#m11dad15194" y="91.625178"/>
      </g>
     </g>
     <g id="text_3">
      <!-- 6 -->
      <defs>
       <path d="M 33.015625 40.375 
Q 26.375 40.375 22.484375 35.828125 
Q 18.609375 31.296875 18.609375 23.390625 
Q 18.609375 15.53125 22.484375 10.953125 
Q 26.375 6.390625 33.015625 6.390625 
Q 39.65625 6.390625 43.53125 10.953125 
Q 47.40625 15.53125 47.40625 23.390625 
Q 47.40625 31.296875 43.53125 35.828125 
Q 39.65625 40.375 33.015625 40.375 
z
M 52.59375 71.296875 
L 52.59375 62.3125 
Q 48.875 64.0625 45.09375 64.984375 
Q 41.3125 65.921875 37.59375 65.921875 
Q 27.828125 65.921875 22.671875 59.328125 
Q 17.53125 52.734375 16.796875 39.40625 
Q 19.671875 43.65625 24.015625 45.921875 
Q 28.375 48.1875 33.59375 48.1875 
Q 44.578125 48.1875 50.953125 41.515625 
Q 57.328125 34.859375 57.328125 23.390625 
Q 57.328125 12.15625 50.6875 5.359375 
Q 44.046875 -1.421875 33.015625 -1.421875 
Q 20.359375 -1.421875 13.671875 8.265625 
Q 6.984375 17.96875 6.984375 36.375 
Q 6.984375 53.65625 15.1875 63.9375 
Q 23.390625 74.21875 37.203125 74.21875 
Q 40.921875 74.21875 44.703125 73.484375 
Q 48.484375 72.75 52.59375 71.296875 
z
" id="DejaVuSans-54"/>
      </defs>
      <g transform="translate(48.810782 97.324006)scale(0.15 -0.15)">
       <use xlink:href="#DejaVuSans-54"/>
      </g>
     </g>
    </g>
    <g id="text_4">
     <!-- $y$ -->
     <defs>
      <path d="M 8.40625 -14.3125 
Q 10.5 -17.921875 15.71875 -17.921875 
Q 20.453125 -17.921875 23.921875 -14.59375 
Q 27.390625 -11.28125 29.515625 -6.5625 
Q 31.640625 -1.859375 32.8125 3.078125 
Q 28.375 -1.125 23.1875 -1.125 
Q 19.234375 -1.125 16.453125 0.234375 
Q 13.671875 1.609375 12.125 4.3125 
Q 10.59375 7.03125 10.59375 10.890625 
Q 10.59375 14.15625 11.46875 17.59375 
Q 12.359375 21.046875 13.9375 25.265625 
Q 15.53125 29.5 16.703125 32.625 
Q 18.015625 36.28125 18.015625 38.625 
Q 18.015625 41.609375 15.828125 41.609375 
Q 11.859375 41.609375 9.296875 37.53125 
Q 6.734375 33.453125 5.515625 28.421875 
Q 5.328125 27.78125 4.6875 27.78125 
L 3.515625 27.78125 
Q 2.6875 27.78125 2.6875 28.71875 
L 2.6875 29 
Q 4.296875 34.96875 7.609375 39.578125 
Q 10.9375 44.1875 16.015625 44.1875 
Q 19.578125 44.1875 22.046875 41.84375 
Q 24.515625 39.5 24.515625 35.890625 
Q 24.515625 34.03125 23.6875 31.984375 
Q 23.25 30.765625 21.6875 26.65625 
Q 20.125 22.5625 19.28125 19.875 
Q 18.453125 17.1875 17.921875 14.59375 
Q 17.390625 12.015625 17.390625 9.421875 
Q 17.390625 6.109375 18.796875 3.8125 
Q 20.21875 1.515625 23.296875 1.515625 
Q 29.5 1.515625 34.421875 9.078125 
L 42 39.890625 
Q 42.328125 41.21875 43.546875 42.15625 
Q 44.78125 43.109375 46.1875 43.109375 
Q 47.40625 43.109375 48.3125 42.328125 
Q 49.21875 41.546875 49.21875 40.28125 
Q 49.21875 39.703125 49.125 39.5 
L 39.203125 -0.296875 
Q 37.890625 -5.421875 34.375 -10.109375 
Q 30.859375 -14.796875 25.90625 -17.65625 
Q 20.953125 -20.515625 15.578125 -20.515625 
Q 12.984375 -20.515625 10.4375 -19.5 
Q 7.90625 -18.5 6.34375 -16.5 
Q 4.78125 -14.5 4.78125 -11.8125 
Q 4.78125 -9.078125 6.390625 -7.078125 
Q 8.015625 -5.078125 10.6875 -5.078125 
Q 12.3125 -5.078125 13.40625 -6.078125 
Q 14.5 -7.078125 14.5 -8.6875 
Q 14.5 -10.984375 12.78125 -12.6875 
Q 11.078125 -14.40625 8.796875 -14.40625 
Q 8.6875 -14.359375 8.59375 -14.328125 
Q 8.5 -14.3125 8.40625 -14.3125 
z
" id="Cmmi10-121"/>
     </defs>
     <g transform="translate(59.354532 25.3875)scale(0.24 -0.24)">
      <use transform="translate(0 0.8125)" xlink:href="#Cmmi10-121"/>
     </g>
    </g>
   </g>
   <g id="line2d_5">
    <path clip-path="url(#p3b287c08be)" d="M 65.354532 91.625178 
L 173.649751 50.193964 
L 173.649751 50.193964 
" style="fill:none;stroke:#0000cc;stroke-linecap:square;stroke-width:1.5;"/>
   </g>
   <g id="line2d_6">
    <path clip-path="url(#p3b287c08be)" d="M 65.354532 215.918817 
L 69.009781 215.824416 
L 73.371839 215.46467 
L 77.639327 214.852528 
L 81.868676 213.991952 
L 85.941014 212.924461 
L 89.974011 211.636322 
L 93.612736 210.27688 
L 97.898968 208.435526 
L 102.143694 206.356153 
L 106.1491 204.160538 
L 110.682858 201.401764 
L 115.042507 198.474994 
L 119.167149 195.458737 
L 123.956147 191.655048 
L 128.719031 187.550662 
L 133.407701 183.197122 
L 137.878576 178.756472 
L 142.717933 173.631494 
L 147.740969 167.96198 
L 152.778364 161.918195 
L 157.727965 155.630487 
L 162.728657 148.926311 
L 167.724258 141.876132 
L 173.011019 134.030963 
L 173.649751 133.056391 
L 173.649751 133.056391 
" style="fill:none;stroke:#3ccc00;stroke-linecap:square;stroke-width:1.5;"/>
   </g>
   <g id="line2d_7">
    <path clip-path="url(#p3b287c08be)" d="M 11.206923 195.20321 
L 15.711341 198.506424 
L 20.038066 201.40936 
L 24.278472 203.997708 
L 28.375622 206.257256 
L 32.303909 208.20093 
L 36.824667 210.167881 
L 41.302487 211.831454 
L 45.721233 213.195327 
L 49.730941 214.194167 
L 54.142821 215.030674 
L 58.465446 215.583494 
L 62.531231 215.862498 
L 66.316052 215.912284 
L 70.560864 215.727302 
L 74.584562 215.316887 
L 77.858432 214.814153 
L 82.354276 213.876966 
L 86.471748 212.768078 
L 90.170913 211.567547 
L 94.245421 210.021412 
L 98.120472 208.333314 
L 102.007446 206.426852 
L 106.469318 203.975219 
L 110.395776 201.585066 
L 115.112951 198.425497 
L 119.28094 195.372117 
L 122.822648 192.584612 
L 127.756457 188.406 
L 131.801841 184.723178 
L 136.672205 179.982512 
L 141.260572 175.209693 
L 145.859863 170.126948 
L 151.02888 164.057839 
L 156.254582 157.538382 
L 161.772045 150.236127 
L 166.528276 143.596102 
L 172.059467 135.472144 
L 177.782079 126.612012 
L 183.696914 116.96793 
L 189.310298 107.358139 
L 195.308794 96.596923 
L 195.308794 96.596923 
" style="fill:none;stroke:#0000ff;stroke-linecap:square;stroke-width:1.5;"/>
   </g>
   <g id="line2d_8">
    <path clip-path="url(#p3b287c08be)" d="M 11.206923 112.340784 
L 195.308794 41.907722 
L 195.308794 41.907722 
" style="fill:none;stroke:#ff0000;stroke-linecap:square;stroke-width:1.5;"/>
   </g>
   <g id="line2d_9">
    <path clip-path="url(#p3b287c08be)" d="M 65.354532 215.918817 
L 65.354532 91.625178 
" style="fill:none;stroke:#000000;stroke-linecap:square;"/>
   </g>
   <g id="line2d_10">
    <path clip-path="url(#p3b287c08be)" d="M 173.649751 133.056391 
L 173.649751 50.193964 
" style="fill:none;stroke:#000000;stroke-linecap:square;"/>
   </g>
   <g id="line2d_11">
    <path clip-path="url(#p3b287c08be)" d="M 65.354532 215.918817 
L 65.354532 215.918817 
" style="fill:none;stroke:#d3d3d3;stroke-dasharray:3.7,1.6;stroke-dashoffset:0;"/>
   </g>
   <g id="line2d_12">
    <path clip-path="url(#p3b287c08be)" d="M 173.649751 215.918817 
L 173.649751 133.056391 
" style="fill:none;stroke:#d3d3d3;stroke-dasharray:3.7,1.6;stroke-dashoffset:0;"/>
   </g>
   <g id="patch_4">
    <path d="M 65.354532 219.399038 
L 65.354532 38.4275 
" style="fill:none;stroke:#000000;stroke-linecap:square;stroke-linejoin:miter;stroke-width:0.8;"/>
   </g>
   <g id="patch_5">
    <path d="M 7.2 215.918817 
L 215.56 215.918817 
" style="fill:none;stroke:#000000;stroke-linecap:square;stroke-linejoin:miter;stroke-width:0.8;"/>
   </g>
   <g id="text_5">
    <!-- $y=x+6$ -->
    <defs>
     <path d="M 7.515625 13.28125 
Q 6.6875 13.28125 6.140625 13.90625 
Q 5.609375 14.546875 5.609375 15.28125 
Q 5.609375 16.109375 6.140625 16.6875 
Q 6.6875 17.28125 7.515625 17.28125 
L 70.3125 17.28125 
Q 71.046875 17.28125 71.578125 16.6875 
Q 72.125 16.109375 72.125 15.28125 
Q 72.125 14.546875 71.578125 13.90625 
Q 71.046875 13.28125 70.3125 13.28125 
z
M 7.515625 32.71875 
Q 6.6875 32.71875 6.140625 33.296875 
Q 5.609375 33.890625 5.609375 34.71875 
Q 5.609375 35.453125 6.140625 36.078125 
Q 6.6875 36.71875 7.515625 36.71875 
L 70.3125 36.71875 
Q 71.046875 36.71875 71.578125 36.078125 
Q 72.125 35.453125 72.125 34.71875 
Q 72.125 33.890625 71.578125 33.296875 
Q 71.046875 32.71875 70.3125 32.71875 
z
" id="Cmr10-61"/>
     <path d="M 7.515625 23 
Q 6.6875 23 6.140625 23.625 
Q 5.609375 24.265625 5.609375 25 
Q 5.609375 25.734375 6.140625 26.359375 
Q 6.6875 27 7.515625 27 
L 36.921875 27 
L 36.921875 56.5 
Q 36.921875 57.28125 37.5 57.78125 
Q 38.09375 58.296875 38.921875 58.296875 
Q 39.65625 58.296875 40.28125 57.78125 
Q 40.921875 57.28125 40.921875 56.5 
L 40.921875 27 
L 70.3125 27 
Q 71.046875 27 71.578125 26.359375 
Q 72.125 25.734375 72.125 25 
Q 72.125 24.265625 71.578125 23.625 
Q 71.046875 23 70.3125 23 
L 40.921875 23 
L 40.921875 -6.5 
Q 40.921875 -7.28125 40.28125 -7.78125 
Q 39.65625 -8.296875 38.921875 -8.296875 
Q 38.09375 -8.296875 37.5 -7.78125 
Q 36.921875 -7.28125 36.921875 -6.5 
L 36.921875 23 
z
" id="Cmr10-43"/>
     <path d="M 25 -2.203125 
Q 18.796875 -2.203125 14.640625 1.09375 
Q 10.5 4.390625 8.21875 9.640625 
Q 5.953125 14.890625 5.078125 20.65625 
Q 4.203125 26.421875 4.203125 32.328125 
Q 4.203125 40.234375 7.28125 48.1875 
Q 10.359375 56.15625 16.328125 61.375 
Q 22.3125 66.609375 30.515625 66.609375 
Q 33.9375 66.609375 36.890625 65.3125 
Q 39.84375 64.015625 41.53125 61.5 
Q 43.21875 58.984375 43.21875 55.421875 
Q 43.21875 53.375 41.828125 51.984375 
Q 40.4375 50.59375 38.375 50.59375 
Q 36.421875 50.59375 35 52 
Q 33.59375 53.421875 33.59375 55.421875 
Q 33.59375 57.375 35 58.78125 
Q 36.421875 60.203125 38.375 60.203125 
L 38.921875 60.203125 
Q 37.640625 62.015625 35.328125 62.859375 
Q 33.015625 63.71875 30.515625 63.71875 
Q 27.484375 63.71875 24.921875 62.390625 
Q 22.359375 61.078125 20.3125 58.828125 
Q 18.265625 56.59375 16.890625 53.875 
Q 15.53125 51.171875 14.765625 47.703125 
Q 14.015625 44.234375 13.8125 41.203125 
Q 13.625 38.1875 13.625 33.59375 
Q 15.375 37.703125 18.59375 40.3125 
Q 21.828125 42.921875 25.875 42.921875 
Q 30.328125 42.921875 33.984375 41.109375 
Q 37.640625 39.3125 40.28125 36.109375 
Q 42.921875 32.90625 44.3125 28.796875 
Q 45.703125 24.703125 45.703125 20.515625 
Q 45.703125 14.65625 43.09375 9.34375 
Q 40.484375 4.046875 35.734375 0.921875 
Q 31 -2.203125 25 -2.203125 
z
M 25 0.984375 
Q 28.859375 0.984375 31.203125 2.734375 
Q 33.546875 4.5 34.640625 7.390625 
Q 35.75 10.296875 36.015625 13.25 
Q 36.28125 16.21875 36.28125 20.515625 
Q 36.28125 26.171875 35.734375 30.171875 
Q 35.203125 34.1875 32.8125 37.234375 
Q 30.421875 40.28125 25.484375 40.28125 
Q 21.4375 40.28125 18.828125 37.546875 
Q 16.21875 34.8125 15.015625 30.640625 
Q 13.8125 26.46875 13.8125 22.609375 
Q 13.8125 21.296875 13.921875 20.609375 
Q 13.921875 20.453125 13.890625 20.359375 
Q 13.875 20.265625 13.8125 20.125 
Q 13.8125 15.828125 14.6875 11.421875 
Q 15.578125 7.03125 18.0625 4 
Q 20.5625 0.984375 25 0.984375 
z
" id="Cmr10-54"/>
    </defs>
    <g style="fill:#ff0000;" transform="translate(90.852141 54.302558)scale(0.15 -0.15)">
     <use transform="translate(0 0.390625)" xlink:href="#Cmmi10-121"/>
     <use transform="translate(66.582031 0.390625)" xlink:href="#Cmr10-61"/>
     <use transform="translate(161.826172 0.390625)" xlink:href="#Cmmi10-120"/>
     <use transform="translate(236.464844 0.390625)" xlink:href="#Cmr10-43"/>
     <use transform="translate(331.708984 0.390625)" xlink:href="#Cmr10-54"/>
    </g>
   </g>
   <g id="text_6">
    <!-- $y=x^2$ -->
    <defs>
     <path d="M 4.984375 0 
L 4.984375 2.6875 
Q 4.984375 2.9375 5.171875 3.21875 
L 20.703125 20.40625 
Q 24.21875 24.21875 26.40625 26.796875 
Q 28.609375 29.390625 30.75 32.765625 
Q 32.90625 36.140625 34.15625 39.625 
Q 35.40625 43.109375 35.40625 47.015625 
Q 35.40625 51.125 33.890625 54.859375 
Q 32.375 58.59375 29.375 60.84375 
Q 26.375 63.09375 22.125 63.09375 
Q 17.78125 63.09375 14.3125 60.46875 
Q 10.84375 57.859375 9.421875 53.71875 
Q 9.8125 53.8125 10.5 53.8125 
Q 12.75 53.8125 14.328125 52.296875 
Q 15.921875 50.78125 15.921875 48.390625 
Q 15.921875 46.09375 14.328125 44.5 
Q 12.75 42.921875 10.5 42.921875 
Q 8.15625 42.921875 6.5625 44.546875 
Q 4.984375 46.1875 4.984375 48.390625 
Q 4.984375 52.15625 6.390625 55.4375 
Q 7.8125 58.734375 10.46875 61.296875 
Q 13.140625 63.875 16.484375 65.234375 
Q 19.828125 66.609375 23.578125 66.609375 
Q 29.296875 66.609375 34.21875 64.1875 
Q 39.15625 61.765625 42.03125 57.34375 
Q 44.921875 52.9375 44.921875 47.015625 
Q 44.921875 42.671875 43.015625 38.765625 
Q 41.109375 34.859375 38.125 31.65625 
Q 35.15625 28.46875 30.515625 24.40625 
Q 25.875 20.359375 24.421875 19 
L 13.09375 8.109375 
L 22.703125 8.109375 
Q 29.78125 8.109375 34.546875 8.21875 
Q 39.3125 8.34375 39.59375 8.59375 
Q 40.765625 9.859375 42 17.828125 
L 44.921875 17.828125 
L 42.09375 0 
z
" id="Cmr10-50"/>
    </defs>
    <g style="fill:#0000ff;" transform="translate(191.528077 137.856391)scale(0.15 -0.15)">
     <use transform="translate(0 0.109375)" xlink:href="#Cmmi10-121"/>
     <use transform="translate(66.582031 0.109375)" xlink:href="#Cmr10-61"/>
     <use transform="translate(161.826172 0.109375)" xlink:href="#Cmmi10-120"/>
     <use transform="translate(225.209531 38.373438)scale(0.7)" xlink:href="#Cmr10-50"/>
    </g>
   </g>
  </g>
 </g>
 <defs>
  <clipPath id="p3b287c08be">
   <rect height="180.971538" width="208.36" x="7.2" y="38.4275"/>
  </clipPath>
 </defs>
</svg>
