<?xml version="1.0" encoding="utf-8" standalone="no"?>
<!DOCTYPE svg PUBLIC "-//W3C//DTD SVG 1.1//EN"
  "http://www.w3.org/Graphics/SVG/1.1/DTD/svg11.dtd">
<!-- Created with matplotlib (https://matplotlib.org/) -->
<svg height="207.725pt" version="1.1" viewBox="0 0 244.522959 207.725" width="244.522959pt" xmlns="http://www.w3.org/2000/svg" xmlns:xlink="http://www.w3.org/1999/xlink">
 <defs>
  <style type="text/css">
*{stroke-linecap:butt;stroke-linejoin:round;}
  </style>
 </defs>
 <g id="figure_1">
  <g id="patch_1">
   <path d="M 0 207.725 
L 244.522959 207.725 
L 244.522959 0 
L 0 0 
z
" style="fill:#ffffff;"/>
  </g>
  <g id="axes_1">
   <g id="patch_2">
    <path d="M 30.267202 200.525 
L 220.042959 200.525 
L 220.042959 30.685 
L 30.267202 30.685 
z
" style="fill:#ffffff;"/>
   </g>
   <g id="patch_3">
    <path clip-path="url(#p8fb055eedb)" d="M 200.696506 101.188533 
L 199.628067 100.880177 
L 198.94611 100.687811 
L 198.376562 100.529811 
L 197.654328 100.332932 
L 196.683368 100.07438 
L 196.317696 99.978829 
L 195.321574 99.723597 
L 194.212576 99.448146 
L 193.806047 99.34947 
L 193.010952 99.16004 
L 192.06574 98.940977 
L 191.403537 98.791473 
L 190.742805 98.645559 
L 190.082073 98.502901 
L 189.780615 98.438894 
L 189.228116 98.323345 
L 188.476417 98.169789 
L 187.724719 98.020447 
L 187.385716 97.954475 
L 186.770756 97.836987 
L 186.155795 97.722318 
L 185.428156 97.59028 
L 184.540327 97.434521 
L 184.096937 97.358934 
L 183.68669 97.290303 
L 183.094433 97.193436 
L 182.502176 97.099184 
L 181.551119 96.953305 
L 181.193302 96.900167 
L 180.506758 96.800883 
L 179.820215 96.705114 
L 179.357603 96.642564 
L 178.62949 96.547347 
L 177.539496 96.412195 
L 177.367352 96.39166 
L 176.38626 96.278845 
L 175.784385 96.213187 
L 175.182509 96.15023 
L 174.364123 96.06896 
L 173.696062 96.006319 
L 173.164123 95.958822 
L 172.596418 95.910458 
L 172.028714 95.864497 
L 171.496392 95.823584 
L 170.922721 95.781858 
L 170.34905 95.742586 
L 170.274459 95.73766 
L 169.573507 95.693394 
L 168.872556 95.652793 
L 168.105329 95.612551 
L 167.907059 95.602866 
L 167.168039 95.569346 
L 166.470442 95.541441 
L 165.772844 95.517165 
L 164.908533 95.49212 
L 164.366438 95.479253 
L 163.553418 95.464064 
L 162.576306 95.45233 
L 161.821713 95.44814 
L 161.243902 95.447801 
L 160.161669 95.453864 
L 159.360204 95.463983 
L 158.577934 95.478477 
L 157.842189 95.496274 
L 156.920427 95.524265 
L 156.518978 95.538436 
L 155.665409 95.572561 
L 154.640944 95.62069 
L 154.535672 95.626079 
L 153.843097 95.663593 
L 153.150521 95.704683 
L 152.691441 95.733891 
L 152.11883 95.772525 
L 151.546219 95.813603 
L 151.109047 95.846611 
L 150.502493 95.894767 
L 149.89594 95.945667 
L 149.745817 95.958688 
L 149.111214 96.015589 
L 148.47661 96.075491 
L 147.913296 96.13118 
L 146.811388 96.246955 
L 145.968343 96.341645 
L 145.096002 96.445203 
L 144.997884 96.457206 
L 144.000954 96.583232 
L 143.427084 96.659137 
L 142.506391 96.786046 
L 141.90994 96.871635 
L 141.313489 96.959876 
L 141.021062 97.004108 
L 140.371929 97.104573 
L 139.722796 97.208179 
L 139.533093 97.239051 
L 138.821966 97.357164 
L 138.110839 97.479048 
L 137.330798 97.617079 
L 136.647223 97.74177 
L 136.026931 97.857933 
L 135.377154 97.982694 
L 134.474305 98.161272 
L 133.705125 98.318206 
L 132.706894 98.528449 
L 132.363884 98.602408 
L 131.536914 98.784323 
L 130.96704 98.91265 
L 130.397166 99.043399 
L 130.086997 99.11558 
L 129.372194 99.284656 
L 128.657392 99.457542 
L 128.100652 99.594837 
L 127.492009 99.747576 
L 126.872991 99.905752 
L 126.253974 100.066785 
L 125.720582 100.207834 
L 124.64889 100.497643 
L 123.998814 100.677611 
L 123.229095 100.894774 
L 122.876979 100.99559 
L 121.788329 101.313136 
L 120.988024 101.55221 
L 120.283081 101.766752 
L 119.839247 101.903729 
L 119.227405 102.094966 
L 118.615562 102.288994 
L 118.143453 102.440617 
L 117.31128 102.711925 
L 116.74807 102.898474 
L 116.18486 103.087389 
L 115.563908 103.298413 
L 114.617421 103.625597 
L 113.722703 103.941026 
L 112.768327 104.284067 
L 112.014631 104.559774 
L 111.875513 104.611128 
L 111.157575 104.878439 
L 110.439637 105.149592 
L 110.296706 105.204034 
L 109.546285 105.492363 
L 108.83321 105.770233 
L 108.120136 106.051895 
L 107.93549 106.125447 
L 107.028265 106.490526 
L 106.077168 106.879849 
L 105.342682 107.185119 
L 104.52762 107.528587 
L 103.960474 107.770506 
L 103.393329 108.014822 
L 102.798812 108.273504 
L 101.957709 108.643981 
L 101.378486 108.902175 
L 100.451955 109.320386 
L 99.481346 109.765358 
L 99.2202 109.886279 
L 98.364181 110.286213 
L 97.682818 110.608452 
L 97.001455 110.934153 
L 96.478888 111.186293 
L 95.853289 111.490824 
L 94.814596 112.002886 
L 93.995146 112.41254 
L 93.605064 112.609307 
L 93.02242 112.905319 
L 92.439776 113.203862 
L 91.797255 113.53602 
L 91.117436 113.890811 
L 90.141391 114.406225 
L 89.663058 114.661409 
L 88.854338 115.096729 
L 88.197324 115.453979 
L 87.540311 115.814447 
L 87.358582 115.914719 
L 86.760221 116.246619 
L 86.16186 116.581188 
L 85.432377 116.992684 
L 84.369017 117.599625 
L 83.725082 117.971266 
L 83.144485 118.309003 
L 82.128142 118.906266 
L 81.952732 119.010127 
L 81.310414 119.392403 
L 80.668096 119.777756 
L 80.336904 119.977652 
L 79.660319 120.38856 
L 78.983733 120.802881 
L 78.826922 120.899395 
L 77.741341 121.572573 
L 77.0203 122.024553 
L 75.917944 122.723052 
L 75.672445 122.879843 
L 74.617682 123.558598 
L 73.783418 124.101333 
L 73.012063 124.607759 
L 72.257225 125.107637 
L 71.627578 125.527858 
L 70.997931 125.951035 
L 70.777881 126.099625 
L 69.700692 126.832211 
L 68.78796 127.459723 
L 68.445494 127.696773 
L 67.754968 128.177407 
L 67.064441 128.661595 
L 66.73529 128.893643 
L 65.861479 129.513589 
L 65.415308 129.832331 
L 64.70474 130.343021 
L 63.994171 130.857476 
L 63.054045 131.543917 
L 63.049066 131.54757 
L 62.180302 132.187796 
L 61.574069 132.637886 
L 60.967836 133.090717 
L 60.087304 133.753317 
L 59.616241 134.110165 
L 58.844856 134.698092 
L 58.043022 135.313929 
L 57.420677 135.795217 
L 56.717929 136.342155 
L 56.015181 136.892775 
L 55.213745 137.525214 
L 54.638361 137.982221 
L 53.600066 138.813148 
L 52.94325 139.342935 
L 52.690934 139.547309 
L 51.619016 140.420842 
L 51.213055 140.753907 
L 50.516599 141.328166 
L 49.820143 141.906041 
L 49.522067 142.154471 
L 48.837771 142.727301 
L 48.075818 143.369245 
L 47.313865 144.015519 
L 46.962155 144.315292 
L 46.150718 145.010424 
L 45.408446 145.650604 
L 44.762968 146.210642 
L 43.72731 147.115704 
L 43.72731 147.115704 
L 43.888424 146.410446 
L 44.049537 145.708857 
L 44.210651 145.010932 
L 44.371764 144.316662 
L 44.508934 143.728446 
L 44.646103 143.142872 
L 44.783273 142.559932 
L 44.920443 141.979625 
L 45.137567 141.066431 
L 45.354691 140.159802 
L 45.571815 139.259721 
L 45.788939 138.366169 
L 45.967398 137.636617 
L 46.145857 136.911455 
L 46.324315 136.190673 
L 46.502774 135.474262 
L 46.681233 134.76221 
L 46.859691 134.05451 
L 47.03815 133.35115 
L 47.216609 132.652122 
L 47.422485 131.851066 
L 47.628361 131.055747 
L 47.834237 130.26615 
L 48.040113 129.482259 
L 48.282462 128.566788 
L 48.441364 127.970806 
L 48.600266 127.378197 
L 48.759168 126.788955 
L 48.91807 126.203073 
L 49.116644 125.47563 
L 49.315218 124.75341 
L 49.513792 124.036399 
L 49.712366 123.324584 
L 49.970952 122.405413 
L 50.229538 121.495001 
L 50.488124 120.593319 
L 50.74671 119.700335 
L 50.999532 118.835638 
L 51.252354 117.979201 
L 51.482562 117.206531 
L 51.712771 116.440666 
L 51.942979 115.681584 
L 52.173187 114.929266 
L 52.366752 114.301915 
L 52.560317 113.679318 
L 52.753883 113.061463 
L 52.947448 112.448337 
L 53.179938 111.718149 
L 53.412429 110.994743 
L 53.644919 110.2781 
L 53.87741 109.568197 
L 54.038184 109.08121 
L 54.198957 108.597429 
L 54.359731 108.116848 
L 54.520505 107.639458 
L 54.681278 107.165252 
L 54.842052 106.694224 
L 55.002826 106.226367 
L 55.163599 105.761673 
L 55.343323 105.245942 
L 55.523047 104.734146 
L 55.702771 104.226273 
L 55.882494 103.722315 
L 56.078695 103.176612 
L 56.274896 102.63555 
L 56.471096 102.099115 
L 56.667297 101.567294 
L 56.863178 101.040928 
L 57.05906 100.519136 
L 57.254941 100.001905 
L 57.450823 99.489222 
L 57.637686 99.004371 
L 57.824548 98.523635 
L 58.011411 98.047004 
L 58.198274 97.574466 
L 58.470249 96.893992 
L 58.742223 96.222131 
L 59.022587 95.538525 
L 59.302952 94.863998 
L 59.472353 94.460821 
L 59.641755 94.060936 
L 59.811157 93.664335 
L 59.980558 93.27101 
L 60.126065 92.935775 
L 60.271572 92.602944 
L 60.417079 92.272514 
L 60.562586 91.944479 
L 60.708093 91.618834 
L 60.8536 91.295574 
L 60.999107 90.974693 
L 61.144614 90.656185 
L 61.382889 90.139729 
L 61.621163 89.6296 
L 61.859437 89.125778 
L 62.097711 88.628238 
L 62.245203 88.323399 
L 62.392695 88.020952 
L 62.540187 87.720893 
L 62.687679 87.423216 
L 62.911969 86.975092 
L 63.136259 86.532445 
L 63.360549 86.095254 
L 63.584839 85.663501 
L 63.845327 85.168867 
L 64.105816 84.68151 
L 64.366304 84.201402 
L 64.626793 83.728511 
L 64.803356 83.412067 
L 64.979919 83.098915 
L 65.190806 82.729189 
L 65.401693 82.36413 
L 65.612581 82.003724 
L 65.823468 81.647953 
L 66.019767 81.320945 
L 66.216065 80.997928 
L 66.495194 80.545454 
L 66.774323 80.100985 
L 67.053452 79.664482 
L 67.332581 79.235909 
L 67.622979 78.798409 
L 67.913377 78.369411 
L 68.125326 78.061646 
L 68.337275 77.75837 
L 68.549224 77.459568 
L 68.761172 77.165223 
L 69.060776 76.756718 
L 69.360379 76.357041 
L 69.659983 75.966146 
L 69.959587 75.583986 
L 70.159261 75.334118 
L 70.358936 75.088097 
L 70.558611 74.845908 
L 70.758286 74.607537 
L 71.042197 74.275156 
L 71.326107 73.950428 
L 71.61846 73.624001 
L 71.910814 73.305606 
L 72.203167 72.9952 
L 72.49552 72.69274 
L 72.731512 72.454356 
L 72.967504 72.221099 
L 73.141448 72.052441 
L 73.315393 71.886546 
L 73.489337 71.723407 
L 73.663282 71.563015 
L 73.936726 71.316405 
L 74.21017 71.076525 
L 74.483614 70.84334 
L 74.757058 70.616815 
L 74.956011 70.456165 
L 75.154963 70.29901 
L 75.353915 70.145334 
L 75.552867 69.995125 
L 75.779411 69.828289 
L 76.005954 69.66591 
L 76.232497 69.507969 
L 76.459041 69.354445 
L 76.732522 69.17497 
L 77.006003 69.00187 
L 77.274499 68.838091 
L 77.542995 68.68039 
L 77.747861 68.564129 
L 77.952726 68.451372 
L 78.157592 68.342104 
L 78.362458 68.236311 
L 78.600939 68.117516 
L 78.83942 68.003386 
L 79.119302 67.875362 
L 79.399184 67.753694 
L 79.679066 67.638345 
L 79.958948 67.529277 
L 80.172678 67.450194 
L 80.386408 67.374736 
L 80.600138 67.302886 
L 80.813869 67.234627 
L 81.055604 67.16173 
L 81.297339 67.093381 
L 81.504465 67.038418 
L 81.711592 66.98676 
L 81.918719 66.938394 
L 82.125846 66.893303 
L 82.335918 66.850902 
L 82.54599 66.811839 
L 82.756062 66.776098 
L 82.966134 66.743663 
L 83.258058 66.704051 
L 83.549982 66.670751 
L 83.841906 66.64372 
L 84.13383 66.622916 
L 84.323931 66.612695 
L 84.514032 66.605086 
L 84.842228 66.598059 
L 85.170425 66.598718 
L 85.498621 66.607002 
L 85.826817 66.622852 
L 85.936635 66.629834 
L 86.125386 66.643792 
L 86.314137 66.660213 
L 86.502887 66.679087 
L 86.691638 66.700402 
L 86.880389 66.724147 
L 87.069139 66.75031 
L 87.25789 66.778879 
L 87.446641 66.809843 
L 87.646514 66.84523 
L 87.945959 66.903218 
L 88.245403 66.967128 
L 88.544847 67.036915 
L 88.844291 67.112532 
L 89.207702 67.212069 
L 89.571113 67.320044 
L 89.920512 67.431735 
L 90.269911 67.551077 
L 90.558191 67.655253 
L 90.84647 67.764546 
L 91.13475 67.878915 
L 91.423029 67.998321 
L 91.468737 68.017713 
L 91.813372 68.167955 
L 92.158008 68.325256 
L 92.502643 68.489547 
L 92.847279 68.660757 
L 93.077691 68.779047 
L 93.308103 68.900378 
L 93.538516 69.024729 
L 93.768928 69.152079 
L 93.931891 69.243949 
L 94.270613 69.439635 
L 94.609335 69.641658 
L 94.948057 69.849953 
L 95.286779 70.064451 
L 95.612923 70.276786 
L 95.969567 70.515421 
L 96.32621 70.760711 
L 96.668244 71.002134 
L 97.010277 71.249539 
L 97.35231 71.502857 
L 97.694343 71.762021 
L 97.986081 71.987644 
L 98.212131 72.165327 
L 98.438182 72.345489 
L 98.664232 72.52811 
L 98.890282 72.713168 
L 99.1231 72.906296 
L 99.355917 73.101967 
L 99.588735 73.300161 
L 99.821553 73.500856 
L 100.077341 73.72421 
L 100.33313 73.950529 
L 100.588919 74.179783 
L 100.844707 74.411944 
L 101.17954 74.720193 
L 101.427118 74.95125 
L 101.674697 75.184942 
L 101.922276 75.421244 
L 102.169854 75.660129 
L 102.419337 75.903439 
L 102.66882 76.14932 
L 102.918303 76.397744 
L 103.167785 76.648686 
L 103.389609 76.873901 
L 103.861146 77.359102 
L 104.332683 77.852938 
L 104.795276 78.345624 
L 105.257868 78.846278 
L 105.693293 79.324659 
L 106.060988 79.733904 
L 106.428682 80.147892 
L 106.796376 80.566536 
L 107.164071 80.989752 
L 107.420598 81.287677 
L 107.716151 81.633596 
L 108.011705 81.982332 
L 108.307258 82.33384 
L 108.602812 82.688077 
L 108.994183 83.161279 
L 109.305557 83.54105 
L 109.616931 83.923685 
L 109.928305 84.30913 
L 110.239679 84.697335 
L 110.530825 85.06277 
L 110.82197 85.43053 
L 111.172482 85.876305 
L 111.529965 86.334277 
L 111.887449 86.795537 
L 112.244933 87.260006 
L 112.602416 87.727605 
L 112.907459 88.129028 
L 113.302604 88.652245 
L 113.697748 89.179005 
L 114.127193 89.755385 
L 114.556639 90.33569 
L 115.052138 91.009953 
L 115.547637 91.689052 
L 115.917331 92.198757 
L 116.287025 92.710952 
L 116.721158 93.315486 
L 117.15529 93.923195 
L 117.602983 94.553063 
L 118.050676 95.186005 
L 118.501184 95.825875 
L 118.951691 96.468545 
L 119.752906 97.617949 
L 120.564252 98.789513 
L 121.409191 100.016759 
L 121.745555 100.507128 
L 122.462412 101.555233 
L 123.280877 102.756277 
L 124.515007 104.574111 
L 124.853323 105.073512 
L 125.841978 106.534584 
L 126.258982 107.15131 
L 127.607329 109.145448 
L 128.42757 110.357236 
L 129.103553 111.354341 
L 129.33282 111.692098 
L 130.020394 112.703462 
L 130.707968 113.712039 
L 131.041402 114.199971 
L 131.585071 114.993701 
L 132.12874 115.784898 
L 132.648846 116.539179 
L 133.168952 117.290649 
L 133.795124 118.191298 
L 134.558823 119.283159 
L 135.005557 119.918213 
L 135.407681 120.487393 
L 135.809804 121.054131 
L 136.216573 121.624815 
L 136.623341 122.192771 
L 137.22982 123.03426 
L 137.836299 123.869045 
L 138.076537 124.197781 
L 138.423764 124.670908 
L 138.770992 125.141591 
L 139.11822 125.609759 
L 139.465448 126.075341 
L 140.005803 126.794565 
L 140.424812 127.347671 
L 140.843821 127.896619 
L 141.332613 128.531567 
L 141.642342 128.930801 
L 141.952071 129.327563 
L 142.2618 129.721802 
L 142.571529 130.113467 
L 142.81576 130.420458 
L 143.317644 131.046086 
L 143.819529 131.664501 
L 144.185413 132.110668 
L 144.551296 132.552803 
L 144.827503 132.88385 
L 145.103709 133.212516 
L 145.373772 133.531533 
L 145.643834 133.848206 
L 145.913896 134.1625 
L 146.183959 134.474382 
L 146.696046 135.059023 
L 147.060023 135.469096 
L 147.423999 135.874528 
L 147.787975 136.275235 
L 148.151952 136.671137 
L 148.536879 137.084507 
L 148.921806 137.492311 
L 149.36128 137.950976 
L 149.800755 138.402114 
L 150.156734 138.761925 
L 150.411562 139.016361 
L 150.66639 139.26815 
L 150.921217 139.517263 
L 151.176045 139.763673 
L 151.525257 140.096907 
L 151.87447 140.424937 
L 152.234191 140.757321 
L 152.503046 141.00204 
L 152.771901 141.243555 
L 153.040756 141.481831 
L 153.309611 141.716836 
L 153.582497 141.951984 
L 153.855383 142.183694 
L 154.12827 142.411929 
L 154.401156 142.636655 
L 154.62914 142.821688 
L 155.049603 143.156383 
L 155.470066 143.482469 
L 155.710264 143.664839 
L 155.950461 143.844334 
L 156.190658 144.020931 
L 156.430855 144.194605 
L 156.709973 144.39272 
L 156.989091 144.586819 
L 157.268209 144.776867 
L 157.547327 144.962825 
L 157.74646 145.092975 
L 158.082834 145.308014 
L 158.419209 145.516957 
L 158.755583 145.719738 
L 159.091957 145.916292 
L 159.30091 146.035226 
L 159.544335 146.170698 
L 159.787761 146.30283 
L 160.031186 146.431596 
L 160.274611 146.556972 
L 160.615379 146.726742 
L 160.956147 146.889752 
L 161.296915 147.045935 
L 161.637682 147.195222 
L 161.979072 147.3378 
L 162.320461 147.473321 
L 162.693478 147.613251 
L 162.912474 147.691404 
L 163.13147 147.766577 
L 163.350466 147.838752 
L 163.569461 147.907911 
L 163.801278 147.977813 
L 164.033095 148.044293 
L 164.264913 148.107331 
L 164.49673 148.166906 
L 164.714583 148.219716 
L 164.932437 148.26943 
L 165.225213 148.331336 
L 165.517988 148.387576 
L 165.810764 148.438107 
L 166.10354 148.482887 
L 166.447334 148.528071 
L 166.791129 148.565195 
L 167.017103 148.585173 
L 167.243077 148.60162 
L 167.514353 148.616672 
L 167.785629 148.626572 
L 168.056905 148.631285 
L 168.328181 148.630778 
L 168.658506 148.623063 
L 168.988832 148.607495 
L 169.231114 148.591049 
L 169.473396 148.57032 
L 169.715678 148.545286 
L 169.95796 148.515921 
L 170.242066 148.475937 
L 170.526172 148.429926 
L 170.810279 148.377849 
L 171.094385 148.319665 
L 171.278201 148.278749 
L 171.570476 148.208368 
L 171.862752 148.131413 
L 172.155027 148.047843 
L 172.447302 147.957614 
L 172.698815 147.874606 
L 172.950327 147.786609 
L 173.201839 147.693595 
L 173.453352 147.595537 
L 173.638593 147.520075 
L 173.823834 147.441852 
L 174.009076 147.360856 
L 174.194317 147.277076 
L 174.455912 147.154002 
L 174.736392 147.015817 
L 175.016872 146.871153 
L 175.297353 146.719973 
L 175.577833 146.562237 
L 175.853301 146.400904 
L 176.055878 146.278183 
L 176.258455 146.151989 
L 176.461032 146.022308 
L 176.663609 145.889127 
L 176.829783 145.777255 
L 176.995957 145.663009 
L 177.162131 145.546383 
L 177.328305 145.427368 
L 177.494479 145.305956 
L 177.660653 145.18214 
L 177.826827 145.055911 
L 177.993001 144.927263 
L 178.23074 144.738985 
L 178.46848 144.545715 
L 178.714364 144.340547 
L 178.960248 144.129989 
L 179.206132 143.914015 
L 179.452016 143.692599 
L 179.639549 143.520055 
L 179.827081 143.344319 
L 180.036581 143.144211 
L 180.24608 142.94009 
L 180.455579 142.731941 
L 180.665078 142.519748 
L 180.920046 142.256023 
L 181.175014 141.986257 
L 181.429982 141.710421 
L 181.68495 141.428486 
L 181.88219 141.206184 
L 182.079429 140.980203 
L 182.276669 140.750529 
L 182.473909 140.517149 
L 182.694249 140.252038 
L 182.914589 139.982268 
L 183.134929 139.707821 
L 183.35527 139.428677 
L 183.545621 139.183732 
L 183.735972 138.935256 
L 183.926323 138.683238 
L 184.116674 138.427667 
L 184.361522 138.093684 
L 184.606369 137.753776 
L 184.851217 137.407919 
L 185.096064 137.056088 
L 185.312897 136.739503 
L 185.52973 136.418196 
L 185.811048 135.994266 
L 186.092367 135.56232 
L 186.373685 135.12232 
L 186.655003 134.674226 
L 186.808647 134.426066 
L 186.962291 134.175474 
L 187.115936 133.922445 
L 187.26958 133.666971 
L 187.419935 133.414594 
L 187.57029 133.159865 
L 187.720646 132.902778 
L 187.871001 132.643327 
L 188.132916 132.185707 
L 188.394831 131.720866 
L 188.656747 131.248773 
L 188.918662 130.769398 
L 189.147409 130.344747 
L 189.376156 129.914498 
L 189.604903 129.478629 
L 189.833649 129.03712 
L 190.026993 128.659531 
L 190.220337 128.277886 
L 190.486959 127.744917 
L 190.753581 127.20418 
L 191.020204 126.655641 
L 191.286826 126.099267 
L 191.48125 125.688596 
L 191.675673 125.27373 
L 191.870097 124.854655 
L 192.064521 124.431359 
L 192.260375 124.000671 
L 192.456228 123.565673 
L 192.652082 123.126354 
L 192.847935 122.682701 
L 193.124058 122.049832 
L 193.400181 121.408288 
L 193.555856 121.042751 
L 193.711532 120.674438 
L 193.867208 120.303344 
L 194.022883 119.92946 
L 194.178559 119.552781 
L 194.334235 119.173301 
L 194.489911 118.791012 
L 194.645586 118.405909 
L 194.794297 118.035403 
L 194.943007 117.662317 
L 195.091717 117.286645 
L 195.240427 116.908382 
L 195.384197 116.540216 
L 195.527967 116.169618 
L 195.671737 115.796583 
L 195.815507 115.421105 
L 195.973591 115.00542 
L 196.131674 114.58677 
L 196.289758 114.165148 
L 196.447841 113.740546 
L 196.605925 113.312958 
L 196.764008 112.882378 
L 196.922091 112.448798 
L 197.080175 112.012211 
L 197.214309 111.639403 
L 197.377471 111.182987 
L 197.540633 110.723348 
L 197.703795 110.260478 
L 197.866957 109.79437 
L 198.03012 109.325016 
L 198.193282 108.85241 
L 198.356444 108.376543 
L 198.519606 107.897408 
L 198.730356 107.273679 
L 198.941106 106.644469 
L 199.151857 106.009763 
L 199.362607 105.369545 
L 199.569265 104.73639 
L 199.775923 104.097905 
L 199.982581 103.454074 
L 200.189238 102.804882 
L 200.442872 102.00077 
z
" style="fill:#cde0eb;opacity:0.5;"/>
   </g>
   <g id="matplotlib.axis_1">
    <g id="xtick_1">
     <g id="line2d_1">
      <defs>
       <path d="M 0 0 
L 0 3.5 
" id="m3b21d93fc4" style="stroke:#000000;stroke-width:0.8;"/>
      </defs>
      <g>
       <use style="stroke:#000000;stroke-width:0.8;" x="43.72731" xlink:href="#m3b21d93fc4" y="101.188533"/>
      </g>
     </g>
     <g id="text_1">
      <!-- -2 -->
      <defs>
       <path d="M 4.890625 31.390625 
L 31.203125 31.390625 
L 31.203125 23.390625 
L 4.890625 23.390625 
z
" id="DejaVuSans-45"/>
       <path d="M 19.1875 8.296875 
L 53.609375 8.296875 
L 53.609375 0 
L 7.328125 0 
L 7.328125 8.296875 
Q 12.9375 14.109375 22.625 23.890625 
Q 32.328125 33.6875 34.8125 36.53125 
Q 39.546875 41.84375 41.421875 45.53125 
Q 43.3125 49.21875 43.3125 52.78125 
Q 43.3125 58.59375 39.234375 62.25 
Q 35.15625 65.921875 28.609375 65.921875 
Q 23.96875 65.921875 18.8125 64.3125 
Q 13.671875 62.703125 7.8125 59.421875 
L 7.8125 69.390625 
Q 13.765625 71.78125 18.9375 73 
Q 24.125 74.21875 28.421875 74.21875 
Q 39.75 74.21875 46.484375 68.546875 
Q 53.21875 62.890625 53.21875 53.421875 
Q 53.21875 48.921875 51.53125 44.890625 
Q 49.859375 40.875 45.40625 35.40625 
Q 44.1875 33.984375 37.640625 27.21875 
Q 31.109375 20.453125 19.1875 8.296875 
z
" id="DejaVuSans-50"/>
      </defs>
      <g transform="translate(38.742154 115.78697)scale(0.1 -0.1)">
       <use xlink:href="#DejaVuSans-45"/>
       <use x="36.083984" xlink:href="#DejaVuSans-50"/>
      </g>
     </g>
    </g>
    <g id="xtick_2">
     <g id="line2d_2">
      <g>
       <use style="stroke:#000000;stroke-width:0.8;" x="200.696506" xlink:href="#m3b21d93fc4" y="101.188533"/>
      </g>
     </g>
     <g id="text_2">
      <!-- 2 -->
      <g transform="translate(197.515256 115.78697)scale(0.1 -0.1)">
       <use xlink:href="#DejaVuSans-50"/>
      </g>
     </g>
    </g>
    <g id="text_3">
     <!-- $x$ -->
     <defs>
      <path d="M 7.8125 2.875 
Q 9.578125 1.515625 12.796875 1.515625 
Q 15.921875 1.515625 18.3125 4.515625 
Q 20.703125 7.515625 21.578125 11.078125 
L 26.125 28.8125 
Q 27.203125 33.640625 27.203125 35.40625 
Q 27.203125 37.890625 25.8125 39.75 
Q 24.421875 41.609375 21.921875 41.609375 
Q 18.75 41.609375 15.96875 39.625 
Q 13.1875 37.640625 11.28125 34.59375 
Q 9.375 31.546875 8.59375 28.421875 
Q 8.40625 27.78125 7.8125 27.78125 
L 6.59375 27.78125 
Q 5.8125 27.78125 5.8125 28.71875 
L 5.8125 29 
Q 6.78125 32.71875 9.125 36.25 
Q 11.46875 39.796875 14.859375 41.984375 
Q 18.265625 44.1875 22.125 44.1875 
Q 25.78125 44.1875 28.734375 42.234375 
Q 31.6875 40.28125 32.90625 36.921875 
Q 34.625 39.984375 37.28125 42.078125 
Q 39.9375 44.1875 43.109375 44.1875 
Q 45.265625 44.1875 47.5 43.421875 
Q 49.75 42.671875 51.171875 41.109375 
Q 52.59375 39.546875 52.59375 37.203125 
Q 52.59375 34.671875 50.953125 32.828125 
Q 49.3125 31 46.78125 31 
Q 45.171875 31 44.09375 32.03125 
Q 43.015625 33.0625 43.015625 34.625 
Q 43.015625 36.71875 44.453125 38.296875 
Q 45.90625 39.890625 47.90625 40.1875 
Q 46.09375 41.609375 42.921875 41.609375 
Q 39.703125 41.609375 37.328125 38.625 
Q 34.96875 35.640625 33.984375 31.984375 
L 29.59375 14.3125 
Q 28.515625 10.296875 28.515625 7.71875 
Q 28.515625 5.171875 29.953125 3.34375 
Q 31.390625 1.515625 33.796875 1.515625 
Q 38.484375 1.515625 42.15625 5.640625 
Q 45.84375 9.765625 47.015625 14.703125 
Q 47.21875 15.28125 47.796875 15.28125 
L 49.03125 15.28125 
Q 49.421875 15.28125 49.65625 15.015625 
Q 49.90625 14.75 49.90625 14.40625 
Q 49.90625 14.3125 49.8125 14.109375 
Q 48.390625 8.15625 43.84375 3.515625 
Q 39.3125 -1.125 33.59375 -1.125 
Q 29.9375 -1.125 26.984375 0.84375 
Q 24.03125 2.828125 22.796875 6.203125 
Q 21.234375 3.265625 18.46875 1.0625 
Q 15.71875 -1.125 12.59375 -1.125 
Q 10.453125 -1.125 8.171875 -0.359375 
Q 5.90625 0.390625 4.484375 1.953125 
Q 3.078125 3.515625 3.078125 5.90625 
Q 3.078125 8.25 4.703125 10.171875 
Q 6.34375 12.109375 8.796875 12.109375 
Q 10.453125 12.109375 11.578125 11.109375 
Q 12.703125 10.109375 12.703125 8.5 
Q 12.703125 6.390625 11.296875 4.828125 
Q 9.90625 3.265625 7.8125 2.875 
z
" id="Cmmi10-120"/>
     </defs>
     <g transform="translate(228.042959 101.188533)scale(0.16 -0.16)">
      <use transform="translate(0 0.8125)" xlink:href="#Cmmi10-120"/>
     </g>
    </g>
   </g>
   <g id="matplotlib.axis_2">
    <g id="ytick_1">
     <g id="line2d_3">
      <defs>
       <path d="M 0 0 
L -3.5 0 
" id="m05f5a3ef2f" style="stroke:#000000;stroke-width:0.8;"/>
      </defs>
      <g>
       <use style="stroke:#000000;stroke-width:0.8;" x="122.211908" xlink:href="#m05f5a3ef2f" y="147.115704"/>
      </g>
     </g>
     <g id="text_4">
      <!-- -8 -->
      <defs>
       <path d="M 31.78125 34.625 
Q 24.75 34.625 20.71875 30.859375 
Q 16.703125 27.09375 16.703125 20.515625 
Q 16.703125 13.921875 20.71875 10.15625 
Q 24.75 6.390625 31.78125 6.390625 
Q 38.8125 6.390625 42.859375 10.171875 
Q 46.921875 13.96875 46.921875 20.515625 
Q 46.921875 27.09375 42.890625 30.859375 
Q 38.875 34.625 31.78125 34.625 
z
M 21.921875 38.8125 
Q 15.578125 40.375 12.03125 44.71875 
Q 8.5 49.078125 8.5 55.328125 
Q 8.5 64.0625 14.71875 69.140625 
Q 20.953125 74.21875 31.78125 74.21875 
Q 42.671875 74.21875 48.875 69.140625 
Q 55.078125 64.0625 55.078125 55.328125 
Q 55.078125 49.078125 51.53125 44.71875 
Q 48 40.375 41.703125 38.8125 
Q 48.828125 37.15625 52.796875 32.3125 
Q 56.78125 27.484375 56.78125 20.515625 
Q 56.78125 9.90625 50.3125 4.234375 
Q 43.84375 -1.421875 31.78125 -1.421875 
Q 19.734375 -1.421875 13.25 4.234375 
Q 6.78125 9.90625 6.78125 20.515625 
Q 6.78125 27.484375 10.78125 32.3125 
Q 14.796875 37.15625 21.921875 38.8125 
z
M 18.3125 54.390625 
Q 18.3125 48.734375 21.84375 45.5625 
Q 25.390625 42.390625 31.78125 42.390625 
Q 38.140625 42.390625 41.71875 45.5625 
Q 45.3125 48.734375 45.3125 54.390625 
Q 45.3125 60.0625 41.71875 63.234375 
Q 38.140625 66.40625 31.78125 66.40625 
Q 25.390625 66.40625 21.84375 63.234375 
Q 18.3125 60.0625 18.3125 54.390625 
z
" id="DejaVuSans-56"/>
      </defs>
      <g transform="translate(105.241596 150.914923)scale(0.1 -0.1)">
       <use xlink:href="#DejaVuSans-45"/>
       <use x="36.083984" xlink:href="#DejaVuSans-56"/>
      </g>
     </g>
    </g>
    <g id="ytick_2">
     <g id="line2d_4">
      <g>
       <use style="stroke:#000000;stroke-width:0.8;" x="122.211908" xlink:href="#m05f5a3ef2f" y="101.188533"/>
      </g>
     </g>
    </g>
    <g id="text_5">
     <!-- $y$ -->
     <defs>
      <path d="M 8.40625 -14.3125 
Q 10.5 -17.921875 15.71875 -17.921875 
Q 20.453125 -17.921875 23.921875 -14.59375 
Q 27.390625 -11.28125 29.515625 -6.5625 
Q 31.640625 -1.859375 32.8125 3.078125 
Q 28.375 -1.125 23.1875 -1.125 
Q 19.234375 -1.125 16.453125 0.234375 
Q 13.671875 1.609375 12.125 4.3125 
Q 10.59375 7.03125 10.59375 10.890625 
Q 10.59375 14.15625 11.46875 17.59375 
Q 12.359375 21.046875 13.9375 25.265625 
Q 15.53125 29.5 16.703125 32.625 
Q 18.015625 36.28125 18.015625 38.625 
Q 18.015625 41.609375 15.828125 41.609375 
Q 11.859375 41.609375 9.296875 37.53125 
Q 6.734375 33.453125 5.515625 28.421875 
Q 5.328125 27.78125 4.6875 27.78125 
L 3.515625 27.78125 
Q 2.6875 27.78125 2.6875 28.71875 
L 2.6875 29 
Q 4.296875 34.96875 7.609375 39.578125 
Q 10.9375 44.1875 16.015625 44.1875 
Q 19.578125 44.1875 22.046875 41.84375 
Q 24.515625 39.5 24.515625 35.890625 
Q 24.515625 34.03125 23.6875 31.984375 
Q 23.25 30.765625 21.6875 26.65625 
Q 20.125 22.5625 19.28125 19.875 
Q 18.453125 17.1875 17.921875 14.59375 
Q 17.390625 12.015625 17.390625 9.421875 
Q 17.390625 6.109375 18.796875 3.8125 
Q 20.21875 1.515625 23.296875 1.515625 
Q 29.5 1.515625 34.421875 9.078125 
L 42 39.890625 
Q 42.328125 41.21875 43.546875 42.15625 
Q 44.78125 43.109375 46.1875 43.109375 
Q 47.40625 43.109375 48.3125 42.328125 
Q 49.21875 41.546875 49.21875 40.28125 
Q 49.21875 39.703125 49.125 39.5 
L 39.203125 -0.296875 
Q 37.890625 -5.421875 34.375 -10.109375 
Q 30.859375 -14.796875 25.90625 -17.65625 
Q 20.953125 -20.515625 15.578125 -20.515625 
Q 12.984375 -20.515625 10.4375 -19.5 
Q 7.90625 -18.5 6.34375 -16.5 
Q 4.78125 -14.5 4.78125 -11.8125 
Q 4.78125 -9.078125 6.390625 -7.078125 
Q 8.015625 -5.078125 10.6875 -5.078125 
Q 12.3125 -5.078125 13.40625 -6.078125 
Q 14.5 -7.078125 14.5 -8.6875 
Q 14.5 -10.984375 12.78125 -12.6875 
Q 11.078125 -14.40625 8.796875 -14.40625 
Q 8.6875 -14.359375 8.59375 -14.328125 
Q 8.5 -14.3125 8.40625 -14.3125 
z
" id="Cmmi10-121"/>
     </defs>
     <g transform="translate(118.211908 19.325)scale(0.16 -0.16)">
      <use transform="translate(0 0.8125)" xlink:href="#Cmmi10-121"/>
     </g>
    </g>
   </g>
   <g id="line2d_5">
    <path clip-path="url(#p8fb055eedb)" d="M 43.72731 147.115704 
L 46.324315 136.190673 
L 48.91807 126.203073 
L 51.482562 117.206531 
L 54.038184 109.08121 
L 56.471096 102.099115 
L 58.742223 96.222131 
L 61.144614 90.656185 
L 63.360549 86.095254 
L 65.401693 82.36413 
L 67.332581 79.235909 
L 69.360379 76.357041 
L 71.326107 73.950428 
L 73.315393 71.886546 
L 75.154963 70.29901 
L 77.006003 69.00187 
L 78.83942 68.003386 
L 80.600138 67.302886 
L 82.335918 66.850902 
L 84.13383 66.622916 
L 85.936635 66.629834 
L 87.646514 66.84523 
L 89.571113 67.320044 
L 91.468737 68.017713 
L 93.538516 69.024729 
L 95.612923 70.276786 
L 97.986081 71.987644 
L 100.33313 73.950529 
L 102.918303 76.397744 
L 105.693293 79.324659 
L 108.994183 83.161279 
L 112.602416 87.727605 
L 116.721158 93.315486 
L 121.745555 100.507128 
L 138.076537 124.197781 
L 142.2618 129.721802 
L 145.913896 134.1625 
L 148.921806 137.492311 
L 151.87447 140.424937 
L 154.62914 142.821688 
L 156.989091 144.586819 
L 159.30091 146.035226 
L 161.296915 147.045935 
L 163.350466 147.838752 
L 165.225213 148.331336 
L 167.017103 148.585173 
L 168.658506 148.623063 
L 170.526172 148.429926 
L 172.155027 148.047843 
L 174.009076 147.360856 
L 175.577833 146.562237 
L 177.328305 145.427368 
L 178.960248 144.129989 
L 180.665078 142.519748 
L 182.473909 140.517149 
L 184.361522 138.093684 
L 186.373685 135.12232 
L 188.394831 131.720866 
L 190.486959 127.744917 
L 192.652082 123.126354 
L 194.943007 117.662317 
L 197.214309 111.639403 
L 199.569265 104.73639 
L 200.696506 101.188533 
L 200.696506 101.188533 
" style="fill:none;stroke:#0000cc;stroke-linecap:square;stroke-width:1.5;"/>
   </g>
   <g id="line2d_6">
    <path clip-path="url(#p8fb055eedb)" d="M 43.72731 147.115704 
L 50.049586 141.715265 
L 56.380234 136.606288 
L 62.429339 132.003696 
L 68.588107 127.597952 
L 74.923868 123.360708 
L 80.691998 119.763361 
L 86.351153 116.475058 
L 92.173721 113.341029 
L 98.23466 110.347201 
L 104.079677 107.71946 
L 109.865406 105.369236 
L 115.682427 103.257913 
L 121.777316 101.316393 
L 127.763562 99.679089 
L 133.358846 98.390296 
L 138.897134 97.344501 
L 144.345816 96.538798 
L 149.862442 95.948558 
L 155.657864 95.572887 
L 161.026569 95.448318 
L 166.633354 95.547633 
L 171.975523 95.860314 
L 177.643785 96.424743 
L 183.217052 97.213276 
L 188.93317 98.262592 
L 194.187105 99.441928 
L 199.963993 100.976209 
L 200.696506 101.188533 
L 200.696506 101.188533 
" style="fill:none;stroke:#3ccc00;stroke-linecap:square;stroke-width:1.5;"/>
   </g>
   <g id="line2d_7">
    <path clip-path="url(#p8fb055eedb)" d="M 33.916736 156.085855 
L 40.365959 150.10829 
L 46.883057 144.382837 
L 53.588284 138.822624 
L 59.541622 134.166844 
L 65.811917 129.548923 
L 71.982027 125.290938 
L 78.132122 121.329234 
L 84.206663 117.693035 
L 89.784461 114.59648 
L 95.916627 111.459859 
L 101.523359 108.837362 
L 107.761276 106.195077 
L 113.490171 104.023982 
L 119.233487 102.093051 
L 125.103662 100.373617 
L 130.61291 98.993615 
L 136.018764 97.859482 
L 141.598176 96.917428 
L 147.109523 96.214738 
L 152.513674 95.745624 
L 158.035477 95.491208 
L 163.814997 95.468413 
L 169.187452 95.67058 
L 174.265709 96.059523 
L 179.512663 96.663352 
L 185.332773 97.573265 
L 190.642223 98.623632 
L 196.134572 99.931353 
L 201.464221 101.415354 
L 206.899032 103.146732 
L 212.348229 105.103794 
L 216.393426 106.699793 
L 216.393426 106.699793 
" style="fill:none;stroke:#0000ff;stroke-linecap:square;stroke-width:1.5;"/>
   </g>
   <g id="line2d_8">
    <path clip-path="url(#p8fb055eedb)" d="M 33.916736 197.258846 
L 36.840402 180.7936 
L 39.594479 166.48384 
L 42.268826 153.668266 
L 44.854718 142.257348 
L 47.475671 131.645053 
L 50.114535 121.898815 
L 52.451275 114.029466 
L 54.892519 106.547023 
L 57.368863 99.703185 
L 59.5889 94.185351 
L 61.893248 89.054795 
L 64.103533 84.68575 
L 66.180075 81.056852 
L 68.350045 77.740239 
L 70.273995 75.192285 
L 72.157567 73.043092 
L 73.95698 71.298407 
L 75.644558 69.927062 
L 77.467939 68.723864 
L 79.254473 67.81581 
L 80.897433 67.208911 
L 82.673773 66.789703 
L 84.289749 66.61434 
L 85.934012 66.629658 
L 87.704425 66.855981 
L 89.718848 67.366331 
L 91.632181 68.088081 
L 93.867843 69.207665 
L 95.99423 70.53217 
L 98.38374 72.301874 
L 100.688759 74.270056 
L 103.322628 76.805689 
L 106.412962 80.130097 
L 109.676902 83.997705 
L 113.389306 88.767526 
L 117.814021 94.851053 
L 123.648534 103.297073 
L 136.103191 121.466014 
L 140.867107 127.927001 
L 144.476808 132.463123 
L 147.816315 136.306234 
L 150.567789 139.171041 
L 153.192746 141.615089 
L 155.795053 143.72853 
L 158.124446 145.334193 
L 160.38005 146.610219 
L 162.344452 147.482578 
L 164.270308 148.108757 
L 166.19696 148.495959 
L 167.980963 148.63049 
L 169.843318 148.530357 
L 171.559985 148.211008 
L 173.264146 147.669775 
L 175.069946 146.843048 
L 176.804336 145.79454 
L 178.591274 144.443927 
L 180.459384 142.728123 
L 182.209989 140.828588 
L 184.170338 138.354973 
L 186.070641 135.595965 
L 188.096719 132.24938 
L 190.086919 128.541676 
L 192.263599 123.993543 
L 194.437304 118.920512 
L 196.583359 113.374177 
L 198.953274 106.607975 
L 201.248384 99.392986 
L 203.667781 91.058625 
L 206.177201 81.598557 
L 208.719695 71.139474 
L 211.366028 59.288401 
L 214.098405 45.986168 
L 216.393426 33.951154 
L 216.393426 33.951154 
" style="fill:none;stroke:#ff0000;stroke-linecap:square;stroke-width:1.5;"/>
   </g>
   <g id="patch_4">
    <path d="M 122.211908 200.525 
L 122.211908 30.685 
" style="fill:none;stroke:#000000;stroke-linecap:square;stroke-linejoin:miter;stroke-width:0.8;"/>
   </g>
   <g id="patch_5">
    <path d="M 30.267202 101.188533 
L 220.042959 101.188533 
" style="fill:none;stroke:#000000;stroke-linecap:square;stroke-linejoin:miter;stroke-width:0.8;"/>
   </g>
   <g id="text_6">
    <!-- $y= 3x^3-x^2-10x$ -->
    <defs>
     <path d="M 7.515625 13.28125 
Q 6.6875 13.28125 6.140625 13.90625 
Q 5.609375 14.546875 5.609375 15.28125 
Q 5.609375 16.109375 6.140625 16.6875 
Q 6.6875 17.28125 7.515625 17.28125 
L 70.3125 17.28125 
Q 71.046875 17.28125 71.578125 16.6875 
Q 72.125 16.109375 72.125 15.28125 
Q 72.125 14.546875 71.578125 13.90625 
Q 71.046875 13.28125 70.3125 13.28125 
z
M 7.515625 32.71875 
Q 6.6875 32.71875 6.140625 33.296875 
Q 5.609375 33.890625 5.609375 34.71875 
Q 5.609375 35.453125 6.140625 36.078125 
Q 6.6875 36.71875 7.515625 36.71875 
L 70.3125 36.71875 
Q 71.046875 36.71875 71.578125 36.078125 
Q 72.125 35.453125 72.125 34.71875 
Q 72.125 33.890625 71.578125 33.296875 
Q 71.046875 32.71875 70.3125 32.71875 
z
" id="Cmr10-61"/>
     <path d="M 9.515625 7.71875 
Q 11.859375 4.296875 15.8125 2.640625 
Q 19.78125 0.984375 24.3125 0.984375 
Q 30.125 0.984375 32.5625 5.9375 
Q 35.015625 10.890625 35.015625 17.1875 
Q 35.015625 20.015625 34.5 22.84375 
Q 33.984375 25.6875 32.765625 28.125 
Q 31.546875 30.5625 29.421875 32.03125 
Q 27.296875 33.5 24.21875 33.5 
L 17.578125 33.5 
Q 16.703125 33.5 16.703125 34.421875 
L 16.703125 35.296875 
Q 16.703125 36.078125 17.578125 36.078125 
L 23.09375 36.53125 
Q 26.609375 36.53125 28.921875 39.15625 
Q 31.25 41.796875 32.328125 45.578125 
Q 33.40625 49.359375 33.40625 52.78125 
Q 33.40625 57.5625 31.15625 60.640625 
Q 28.90625 63.71875 24.3125 63.71875 
Q 20.515625 63.71875 17.046875 62.28125 
Q 13.578125 60.84375 11.53125 57.90625 
Q 11.71875 57.953125 11.859375 57.984375 
Q 12.015625 58.015625 12.203125 58.015625 
Q 14.453125 58.015625 15.96875 56.453125 
Q 17.484375 54.890625 17.484375 52.6875 
Q 17.484375 50.53125 15.96875 48.96875 
Q 14.453125 47.40625 12.203125 47.40625 
Q 10.015625 47.40625 8.453125 48.96875 
Q 6.890625 50.53125 6.890625 52.6875 
Q 6.890625 56.984375 9.46875 60.15625 
Q 12.0625 63.328125 16.140625 64.96875 
Q 20.21875 66.609375 24.3125 66.609375 
Q 27.34375 66.609375 30.703125 65.703125 
Q 34.078125 64.796875 36.8125 63.109375 
Q 39.546875 61.421875 41.28125 58.78125 
Q 43.015625 56.15625 43.015625 52.78125 
Q 43.015625 48.578125 41.140625 45.015625 
Q 39.265625 41.453125 35.984375 38.859375 
Q 32.71875 36.28125 28.8125 35.015625 
Q 33.15625 34.1875 37.0625 31.734375 
Q 40.96875 29.296875 43.328125 25.484375 
Q 45.703125 21.6875 45.703125 17.28125 
Q 45.703125 11.765625 42.671875 7.296875 
Q 39.65625 2.828125 34.71875 0.3125 
Q 29.78125 -2.203125 24.3125 -2.203125 
Q 19.625 -2.203125 14.90625 -0.40625 
Q 10.203125 1.375 7.203125 4.9375 
Q 4.203125 8.5 4.203125 13.484375 
Q 4.203125 15.96875 5.859375 17.625 
Q 7.515625 19.28125 10.015625 19.28125 
Q 11.625 19.28125 12.96875 18.53125 
Q 14.3125 17.78125 15.0625 16.40625 
Q 15.828125 15.046875 15.828125 13.484375 
Q 15.828125 11.03125 14.109375 9.375 
Q 12.40625 7.71875 10.015625 7.71875 
z
" id="Cmr10-51"/>
     <path d="M 10.203125 23 
Q 9.375 23 8.828125 23.625 
Q 8.296875 24.265625 8.296875 25 
Q 8.296875 25.734375 8.828125 26.359375 
Q 9.375 27 10.203125 27 
L 67.578125 27 
Q 68.359375 27 68.875 26.359375 
Q 69.390625 25.734375 69.390625 25 
Q 69.390625 24.265625 68.875 23.625 
Q 68.359375 23 67.578125 23 
z
" id="Cmsy10-161"/>
     <path d="M 4.984375 0 
L 4.984375 2.6875 
Q 4.984375 2.9375 5.171875 3.21875 
L 20.703125 20.40625 
Q 24.21875 24.21875 26.40625 26.796875 
Q 28.609375 29.390625 30.75 32.765625 
Q 32.90625 36.140625 34.15625 39.625 
Q 35.40625 43.109375 35.40625 47.015625 
Q 35.40625 51.125 33.890625 54.859375 
Q 32.375 58.59375 29.375 60.84375 
Q 26.375 63.09375 22.125 63.09375 
Q 17.78125 63.09375 14.3125 60.46875 
Q 10.84375 57.859375 9.421875 53.71875 
Q 9.8125 53.8125 10.5 53.8125 
Q 12.75 53.8125 14.328125 52.296875 
Q 15.921875 50.78125 15.921875 48.390625 
Q 15.921875 46.09375 14.328125 44.5 
Q 12.75 42.921875 10.5 42.921875 
Q 8.15625 42.921875 6.5625 44.546875 
Q 4.984375 46.1875 4.984375 48.390625 
Q 4.984375 52.15625 6.390625 55.4375 
Q 7.8125 58.734375 10.46875 61.296875 
Q 13.140625 63.875 16.484375 65.234375 
Q 19.828125 66.609375 23.578125 66.609375 
Q 29.296875 66.609375 34.21875 64.1875 
Q 39.15625 61.765625 42.03125 57.34375 
Q 44.921875 52.9375 44.921875 47.015625 
Q 44.921875 42.671875 43.015625 38.765625 
Q 41.109375 34.859375 38.125 31.65625 
Q 35.15625 28.46875 30.515625 24.40625 
Q 25.875 20.359375 24.421875 19 
L 13.09375 8.109375 
L 22.703125 8.109375 
Q 29.78125 8.109375 34.546875 8.21875 
Q 39.3125 8.34375 39.59375 8.59375 
Q 40.765625 9.859375 42 17.828125 
L 44.921875 17.828125 
L 42.09375 0 
z
" id="Cmr10-50"/>
     <path d="M 9.28125 0 
L 9.28125 3.515625 
Q 21.78125 3.515625 21.78125 6.6875 
L 21.78125 59.1875 
Q 16.609375 56.6875 8.6875 56.6875 
L 8.6875 60.203125 
Q 20.953125 60.203125 27.203125 66.609375 
L 28.609375 66.609375 
Q 28.953125 66.609375 29.265625 66.328125 
Q 29.59375 66.0625 29.59375 65.71875 
L 29.59375 6.6875 
Q 29.59375 3.515625 42.09375 3.515625 
L 42.09375 0 
z
" id="Cmr10-49"/>
     <path d="M 25 -2.203125 
Q 12.75 -2.203125 8.328125 7.875 
Q 3.90625 17.96875 3.90625 31.890625 
Q 3.90625 40.578125 5.484375 48.234375 
Q 7.078125 55.90625 11.78125 61.25 
Q 16.5 66.609375 25 66.609375 
Q 31.59375 66.609375 35.78125 63.375 
Q 39.984375 60.15625 42.1875 55.046875 
Q 44.390625 49.953125 45.1875 44.109375 
Q 46 38.28125 46 31.890625 
Q 46 23.296875 44.40625 15.796875 
Q 42.828125 8.296875 38.1875 3.046875 
Q 33.546875 -2.203125 25 -2.203125 
z
M 25 0.390625 
Q 30.5625 0.390625 33.296875 6.09375 
Q 36.03125 11.8125 36.671875 18.75 
Q 37.3125 25.6875 37.3125 33.5 
Q 37.3125 41.015625 36.671875 47.359375 
Q 36.03125 53.71875 33.3125 58.859375 
Q 30.609375 64.015625 25 64.015625 
Q 19.34375 64.015625 16.609375 58.828125 
Q 13.875 53.65625 13.234375 47.328125 
Q 12.59375 41.015625 12.59375 33.5 
Q 12.59375 27.9375 12.859375 23 
Q 13.140625 18.0625 14.3125 12.8125 
Q 15.484375 7.5625 18.09375 3.96875 
Q 20.703125 0.390625 25 0.390625 
z
" id="Cmr10-48"/>
    </defs>
    <g style="fill:#ff0000;" transform="translate(7.2 62.74109)scale(0.12 -0.12)">
     <use transform="translate(0 0.109375)" xlink:href="#Cmmi10-121"/>
     <use transform="translate(66.582031 0.109375)" xlink:href="#Cmr10-61"/>
     <use transform="translate(161.826172 0.109375)" xlink:href="#Cmr10-51"/>
     <use transform="translate(211.826172 0.109375)" xlink:href="#Cmmi10-120"/>
     <use transform="translate(275.209531 38.373438)scale(0.7)" xlink:href="#Cmr10-51"/>
     <use transform="translate(334.145469 0.109375)" xlink:href="#Cmsy10-161"/>
     <use transform="translate(429.389609 0.109375)" xlink:href="#Cmmi10-120"/>
     <use transform="translate(492.772969 38.373438)scale(0.7)" xlink:href="#Cmr10-50"/>
     <use transform="translate(551.708906 0.109375)" xlink:href="#Cmsy10-161"/>
     <use transform="translate(646.953047 0.109375)" xlink:href="#Cmr10-49"/>
     <use transform="translate(696.953047 0.109375)" xlink:href="#Cmr10-48"/>
     <use transform="translate(746.953047 0.109375)" xlink:href="#Cmmi10-120"/>
    </g>
   </g>
   <g id="text_7">
    <!-- $y= -x^2+2x$ -->
    <defs>
     <path d="M 7.515625 23 
Q 6.6875 23 6.140625 23.625 
Q 5.609375 24.265625 5.609375 25 
Q 5.609375 25.734375 6.140625 26.359375 
Q 6.6875 27 7.515625 27 
L 36.921875 27 
L 36.921875 56.5 
Q 36.921875 57.28125 37.5 57.78125 
Q 38.09375 58.296875 38.921875 58.296875 
Q 39.65625 58.296875 40.28125 57.78125 
Q 40.921875 57.28125 40.921875 56.5 
L 40.921875 27 
L 70.3125 27 
Q 71.046875 27 71.578125 26.359375 
Q 72.125 25.734375 72.125 25 
Q 72.125 24.265625 71.578125 23.625 
Q 71.046875 23 70.3125 23 
L 40.921875 23 
L 40.921875 -6.5 
Q 40.921875 -7.28125 40.28125 -7.78125 
Q 39.65625 -8.296875 38.921875 -8.296875 
Q 38.09375 -8.296875 37.5 -7.78125 
Q 36.921875 -7.28125 36.921875 -6.5 
L 36.921875 23 
z
" id="Cmr10-43"/>
    </defs>
    <g style="fill:#0000ff;" transform="translate(125.454207 87.805843)scale(0.12 -0.12)">
     <use transform="translate(0 0.109375)" xlink:href="#Cmmi10-121"/>
     <use transform="translate(66.582031 0.109375)" xlink:href="#Cmr10-61"/>
     <use transform="translate(179.384766 0.109375)" xlink:href="#Cmsy10-161"/>
     <use transform="translate(274.628906 0.109375)" xlink:href="#Cmmi10-120"/>
     <use transform="translate(338.012266 38.373438)scale(0.7)" xlink:href="#Cmr10-50"/>
     <use transform="translate(396.948203 0.109375)" xlink:href="#Cmr10-43"/>
     <use transform="translate(492.192344 0.109375)" xlink:href="#Cmr10-50"/>
     <use transform="translate(542.192344 0.109375)" xlink:href="#Cmmi10-120"/>
    </g>
   </g>
  </g>
 </g>
 <defs>
  <clipPath id="p8fb055eedb">
   <rect height="169.84" width="189.775758" x="30.267202" y="30.685"/>
  </clipPath>
 </defs>
</svg>
