<?xml version="1.0" encoding="utf-8" standalone="no"?>
<!DOCTYPE svg PUBLIC "-//W3C//DTD SVG 1.1//EN"
  "http://www.w3.org/Graphics/SVG/1.1/DTD/svg11.dtd">
<!-- Created with matplotlib (https://matplotlib.org/) -->
<svg height="243.352903pt" version="1.1" viewBox="0 0 244.27 243.352903" width="244.27pt" xmlns="http://www.w3.org/2000/svg" xmlns:xlink="http://www.w3.org/1999/xlink">
 <defs>
  <style type="text/css">
*{stroke-linecap:butt;stroke-linejoin:round;}
  </style>
 </defs>
 <g id="figure_1">
  <g id="patch_1">
   <path d="M 0 243.352903 
L 244.27 243.352903 
L 244.27 0 
L 0 0 
z
" style="fill:#ffffff;"/>
  </g>
  <g id="axes_1">
   <g id="patch_2">
    <path d="M 7.2 223.176538 
L 219.79 223.176538 
L 219.79 30.685 
L 7.2 30.685 
z
" style="fill:#ffffff;"/>
   </g>
   <g id="patch_3">
    <path clip-path="url(#pcdcba2a3ae)" d="M 191.653088 131.337627 
L 191.257587 131.916471 
L 190.42744 133.125248 
L 189.903523 133.883797 
L 189.132314 134.994299 
L 188.518988 135.872281 
L 187.90991 136.739644 
L 187.380909 137.489302 
L 186.7816 138.334473 
L 186.178939 139.179956 
L 185.855885 139.631351 
L 185.038452 140.767843 
L 184.624671 141.340026 
L 183.501586 142.882522 
L 183.12006 143.403029 
L 182.826263 143.802638 
L 181.85348 145.118265 
L 181.466925 145.637854 
L 180.969385 146.30394 
L 180.085104 147.480332 
L 179.665804 148.034811 
L 178.812453 149.156655 
L 178.312461 149.809836 
L 177.56146 150.785204 
L 177.04077 151.457416 
L 176.64946 151.960424 
L 176.080232 152.688803 
L 175.463398 153.473637 
L 174.696953 154.442368 
L 174.004882 155.310943 
L 173.429573 156.028532 
L 172.792252 156.818759 
L 172.21833 157.526138 
L 171.841138 157.988853 
L 171.181563 158.79381 
L 170.327488 159.828257 
L 170.193317 159.989955 
L 169.316367 161.04142 
L 168.411546 162.116475 
L 168.004723 162.596585 
L 167.33779 163.379297 
L 166.981397 163.795337 
L 166.109352 164.806799 
L 165.394336 165.629209 
L 164.913736 166.178492 
L 164.60905 166.525262 
L 163.626976 167.63528 
L 163.293043 168.010038 
L 162.477011 168.920116 
L 162.227591 169.19666 
L 161.660756 169.822319 
L 160.698222 170.875768 
L 160.297553 171.310952 
L 159.483784 172.188797 
L 158.723004 173.002179 
L 158.368062 173.379248 
L 157.981663 173.787989 
L 156.990409 174.828234 
L 156.602172 175.232394 
L 156.13702 175.714204 
L 155.12157 176.756855 
L 154.630584 177.256483 
L 154.260361 177.631281 
L 153.290477 178.605222 
L 152.680125 179.212249 
L 152.138975 179.746652 
L 152.003164 179.880209 
L 151.118223 180.744959 
L 150.393935 181.445615 
L 150.233904 181.599562 
L 149.115252 182.666966 
L 148.989046 182.786433 
L 147.901215 183.808122 
L 147.67292 184.020705 
L 146.643341 184.971528 
L 146.355381 185.235149 
L 145.956715 185.598449 
L 145.38808 186.113288 
L 144.675347 186.753025 
L 143.872079 187.466601 
L 143.126708 188.121708 
L 142.417457 188.738781 
L 142.00157 189.097764 
L 141.797554 189.273095 
L 140.888084 190.048516 
L 140.470907 190.400832 
L 139.494183 191.217396 
L 139.381461 191.310886 
L 138.525254 192.015953 
L 138.177805 192.29952 
L 137.574689 192.788252 
L 136.971572 193.272549 
L 136.517746 193.634044 
L 136.34975 193.767224 
L 135.443833 194.479467 
L 135.011126 194.816135 
L 134.253391 195.400193 
L 133.926305 195.650146 
L 133.004288 196.347714 
L 132.429683 196.777199 
L 131.686476 197.326735 
L 131.321873 197.593864 
L 130.481002 198.203755 
L 129.977974 198.564485 
L 129.17409 199.13456 
L 128.750639 199.431682 
L 128.397064 199.6781 
L 127.617226 200.216206 
L 127.23301 200.478597 
L 126.435029 201.017808 
L 125.999926 201.308546 
L 125.343528 201.742786 
L 124.537827 202.268616 
L 124.238705 202.46182 
L 123.667845 202.827511 
L 122.649054 203.470275 
L 122.354402 203.653815 
L 121.778085 204.009744 
L 120.708519 204.659569 
L 120.548779 204.755423 
L 119.473949 205.392302 
L 118.885992 205.734731 
L 118.384867 206.02326 
L 118.00775 206.238372 
L 117.59975 206.469147 
L 116.943729 206.835954 
L 116.243949 207.221444 
L 115.412783 207.671555 
L 114.9305 207.92887 
L 114.215025 208.305377 
L 113.878495 208.480312 
L 112.986294 208.937413 
L 112.235974 209.314312 
L 112.132697 209.365652 
L 111.576304 209.640006 
L 110.972075 209.933672 
L 109.967462 210.412079 
L 109.592626 210.587428 
L 108.593199 211.046589 
L 108.389687 211.138595 
L 107.781579 211.410507 
L 106.959746 211.77082 
L 106.358026 212.029408 
L 105.815252 212.258878 
L 105.128946 212.543887 
L 104.942663 212.620256 
L 103.981951 213.007393 
L 103.389227 213.240629 
L 102.977656 213.400062 
L 101.955431 213.787114 
L 101.552639 213.936127 
L 100.815267 214.203793 
L 100.479477 214.323488 
L 99.850748 214.543906 
L 99.266796 214.744311 
L 98.443561 215.019771 
L 98.058236 215.145865 
L 97.091737 215.454178 
L 96.654723 215.589846 
L 96.01525 215.784171 
L 95.613665 215.903657 
L 95.162365 216.035588 
L 94.196883 216.309496 
L 93.939844 216.380502 
L 93.455737 216.512049 
L 92.288723 216.817415 
L 91.822211 216.934839 
L 91.452364 217.026047 
L 90.978387 217.140495 
L 89.903793 217.389828 
L 89.268859 217.530532 
L 88.757127 217.640356 
L 88.333265 217.728905 
L 87.848975 217.827398 
L 87.187737 217.957259 
L 86.631224 218.062422 
L 85.739465 218.223063 
L 85.394164 218.282662 
L 84.439337 218.439896 
L 83.880922 218.526701 
L 83.483675 218.586138 
L 82.609064 218.710219 
L 82.239308 218.759872 
L 81.653127 218.835171 
L 81.090226 218.903536 
L 80.265364 218.99674 
L 79.800248 219.045637 
L 79.307906 219.094523 
L 78.699965 219.150809 
L 77.865326 219.220745 
L 77.456183 219.251925 
L 76.819576 219.296382 
L 75.985098 219.347175 
L 75.421871 219.376658 
L 74.75635 219.406511 
L 74.354376 219.421926 
L 73.667852 219.443698 
L 73.029676 219.458784 
L 72.516206 219.467317 
L 72.011835 219.472569 
L 71.409876 219.474778 
L 71.409876 87.269051 
L 71.969325 87.064016 
L 72.697859 86.797011 
L 73.312059 86.57191 
L 73.742155 86.414282 
L 74.702023 86.062495 
L 74.916313 85.983958 
L 75.490086 85.773673 
L 76.488019 85.407935 
L 77.010402 85.216484 
L 77.607481 84.997658 
L 78.072374 84.827277 
L 78.501286 84.670082 
L 79.090893 84.453994 
L 79.926875 84.147611 
L 80.551309 83.918758 
L 81.269735 83.655459 
L 81.399107 83.608044 
L 82.461061 83.218843 
L 83.135673 82.971601 
L 83.384301 82.88048 
L 84.393877 82.510475 
L 84.694305 82.40037 
L 85.024791 82.279248 
L 86.03485 81.909066 
L 86.226488 81.838832 
L 86.828962 81.618028 
L 87.473175 81.381927 
L 88.090159 81.155805 
L 89.091529 80.788808 
L 89.682153 80.572347 
L 90.344268 80.329685 
L 90.81089 80.15867 
L 91.147769 80.035206 
L 91.930375 79.748384 
L 92.565354 79.515667 
L 93.353383 79.226858 
L 93.709624 79.096298 
L 94.277297 78.888248 
L 95.201921 78.549378 
L 95.640308 78.388711 
L 96.387746 78.114778 
L 97.004837 77.888617 
L 97.18224 77.8236 
L 98.242999 77.434837 
L 98.761857 77.244678 
L 99.101418 77.12023 
L 100.046125 76.774 
L 100.592 76.573939 
L 101.045382 76.407776 
L 101.668154 76.179534 
L 102.418502 75.904535 
L 103.005405 75.689437 
L 103.581549 75.478283 
L 103.901593 75.360988 
L 104.933498 74.9828 
L 105.395779 74.813376 
L 105.720145 74.694498 
L 106.422757 74.436994 
L 106.813868 74.293653 
L 107.690933 73.972213 
L 108.340555 73.73413 
L 108.636425 73.625695 
L 109.560702 73.286951 
L 110.302801 73.014976 
L 110.535342 72.929751 
L 111.347039 72.632267 
L 111.92249 72.421367 
L 112.762232 72.113606 
L 113.310707 71.912592 
L 113.948223 71.678946 
L 114.033201 71.647802 
L 114.72396 71.394641 
L 115.425616 71.137488 
L 115.927368 70.953598 
L 116.994093 70.562648 
L 117.589538 70.34442 
L 118.025935 70.184483 
L 118.793165 69.903297 
L 118.974457 69.836854 
L 119.910132 69.493934 
L 120.50259 69.276801 
L 120.825995 69.158274 
L 121.510357 68.907459 
L 121.953305 68.74512 
L 122.846151 68.417896 
L 123.538823 68.164035 
L 123.917204 68.025361 
L 124.481826 67.818429 
L 124.985544 67.633819 
L 125.639898 67.394001 
L 126.408991 67.112132 
L 126.707107 67.002874 
L 127.754769 66.618911 
L 128.489168 66.349757 
L 128.682347 66.278958 
L 129.610088 65.938945 
L 129.848532 65.851557 
L 130.639435 65.561694 
L 131.481479 65.253089 
L 131.829771 65.125442 
L 132.348897 64.935185 
L 133.113683 64.654894 
L 133.691548 64.443109 
L 134.003041 64.328948 
L 134.626096 64.100602 
L 135.361071 63.831237 
L 135.963767 63.610352 
L 136.471255 63.42436 
L 137.541422 63.032148 
L 137.61823 63.003999 
L 138.732959 62.595456 
L 138.914986 62.528743 
L 139.964391 62.144142 
L 140.307656 62.018337 
L 140.91726 61.79492 
L 141.446595 61.600921 
L 142.24512 61.308265 
L 142.952972 61.04884 
L 143.176458 60.966934 
L 143.659498 60.789902 
L 144.751601 60.389652 
L 144.993046 60.301163 
L 145.711539 60.037839 
L 146.532479 59.736968 
L 147.083692 59.534951 
L 147.44446 59.402731 
L 147.928351 59.225388 
L 148.71521 58.937007 
L 149.181067 58.766273 
L 149.988776 58.470251 
L 150.711856 58.205246 
L 151.280667 57.996779 
L 152.00173 57.732513 
L 152.092674 57.699182 
L 152.860743 57.417689 
L 153.303692 57.25535 
L 154.491234 56.820121 
L 154.540778 56.801964 
L 155.310023 56.520039 
L 155.892157 56.30669 
L 156.816953 55.967756 
L 157.368726 55.765534 
L 157.700231 55.644039 
L 158.231879 55.449193 
L 159.302707 55.056739 
L 159.600184 54.947715 
L 160.323391 54.682663 
L 160.643938 54.565184 
L 161.155758 54.377605 
L 162.149435 54.013427 
L 162.475309 53.893995 
L 163.494768 53.520368 
L 164.144092 53.282394 
L 164.30804 53.222308 
L 165.187232 52.900088 
L 165.384317 52.827858 
L 166.14868 52.547722 
L 167.140329 52.184287 
L 167.317766 52.119257 
L 167.979006 51.876916 
L 168.412812 51.717928 
L 169.118568 51.459272 
L 169.658703 51.261315 
L 170.317856 51.019738 
L 170.945435 50.789734 
L 171.444383 50.606872 
L 172.295967 50.29477 
L 172.832219 50.098236 
L 173.359172 49.90511 
L 174.00083 49.669946 
L 174.556563 49.466272 
L 175.345567 49.177106 
L 175.981582 48.944009 
L 176.549737 48.735783 
L 176.99479 48.572673 
L 178.005434 48.202277 
L 178.494553 48.023017 
L 179.031535 47.826216 
L 179.338091 47.713864 
L 180.044239 47.455064 
L 180.722064 47.206645 
L 181.478546 46.929398 
L 182.213227 46.660141 
L 182.417291 46.585352 
L 182.963451 46.385187 
L 184.012255 46.000805 
L 184.210619 45.928106 
L 184.824724 45.703039 
L 185.319185 45.521822 
L 186.265594 45.174967 
L 186.625201 45.043173 
L 187.635188 44.673017 
L 187.840393 44.59781 
L 188.432768 44.380708 
L 189.202743 44.098516 
L 189.940157 43.828257 
L 190.735722 43.536686 
L 190.774918 43.522321 
L 191.653088 43.200475 
z
" style="fill:#cde0eb;opacity:0.5;"/>
   </g>
   <g id="matplotlib.axis_1">
    <g id="xtick_1">
     <g id="line2d_1">
      <defs>
       <path d="M 0 0 
L 0 3.5 
" id="m8bb7688f7f" style="stroke:#000000;stroke-width:0.8;"/>
      </defs>
      <g>
       <use style="stroke:#000000;stroke-width:0.8;" x="71.409876" xlink:href="#m8bb7688f7f" y="219.474778"/>
      </g>
     </g>
    </g>
    <g id="xtick_2">
     <g id="line2d_2">
      <g>
       <use style="stroke:#000000;stroke-width:0.8;" x="191.653088" xlink:href="#m8bb7688f7f" y="219.474778"/>
      </g>
     </g>
     <g id="text_1">
      <!-- 2 -->
      <defs>
       <path d="M 19.1875 8.296875 
L 53.609375 8.296875 
L 53.609375 0 
L 7.328125 0 
L 7.328125 8.296875 
Q 12.9375 14.109375 22.625 23.890625 
Q 32.328125 33.6875 34.8125 36.53125 
Q 39.546875 41.84375 41.421875 45.53125 
Q 43.3125 49.21875 43.3125 52.78125 
Q 43.3125 58.59375 39.234375 62.25 
Q 35.15625 65.921875 28.609375 65.921875 
Q 23.96875 65.921875 18.8125 64.3125 
Q 13.671875 62.703125 7.8125 59.421875 
L 7.8125 69.390625 
Q 13.765625 71.78125 18.9375 73 
Q 24.125 74.21875 28.421875 74.21875 
Q 39.75 74.21875 46.484375 68.546875 
Q 53.21875 62.890625 53.21875 53.421875 
Q 53.21875 48.921875 51.53125 44.890625 
Q 49.859375 40.875 45.40625 35.40625 
Q 44.1875 33.984375 37.640625 27.21875 
Q 31.109375 20.453125 19.1875 8.296875 
z
" id="DejaVuSans-50"/>
      </defs>
      <g transform="translate(188.471838 234.073216)scale(0.1 -0.1)">
       <use xlink:href="#DejaVuSans-50"/>
      </g>
     </g>
    </g>
    <g id="text_2">
     <!-- $x$ -->
     <defs>
      <path d="M 7.8125 2.875 
Q 9.578125 1.515625 12.796875 1.515625 
Q 15.921875 1.515625 18.3125 4.515625 
Q 20.703125 7.515625 21.578125 11.078125 
L 26.125 28.8125 
Q 27.203125 33.640625 27.203125 35.40625 
Q 27.203125 37.890625 25.8125 39.75 
Q 24.421875 41.609375 21.921875 41.609375 
Q 18.75 41.609375 15.96875 39.625 
Q 13.1875 37.640625 11.28125 34.59375 
Q 9.375 31.546875 8.59375 28.421875 
Q 8.40625 27.78125 7.8125 27.78125 
L 6.59375 27.78125 
Q 5.8125 27.78125 5.8125 28.71875 
L 5.8125 29 
Q 6.78125 32.71875 9.125 36.25 
Q 11.46875 39.796875 14.859375 41.984375 
Q 18.265625 44.1875 22.125 44.1875 
Q 25.78125 44.1875 28.734375 42.234375 
Q 31.6875 40.28125 32.90625 36.921875 
Q 34.625 39.984375 37.28125 42.078125 
Q 39.9375 44.1875 43.109375 44.1875 
Q 45.265625 44.1875 47.5 43.421875 
Q 49.75 42.671875 51.171875 41.109375 
Q 52.59375 39.546875 52.59375 37.203125 
Q 52.59375 34.671875 50.953125 32.828125 
Q 49.3125 31 46.78125 31 
Q 45.171875 31 44.09375 32.03125 
Q 43.015625 33.0625 43.015625 34.625 
Q 43.015625 36.71875 44.453125 38.296875 
Q 45.90625 39.890625 47.90625 40.1875 
Q 46.09375 41.609375 42.921875 41.609375 
Q 39.703125 41.609375 37.328125 38.625 
Q 34.96875 35.640625 33.984375 31.984375 
L 29.59375 14.3125 
Q 28.515625 10.296875 28.515625 7.71875 
Q 28.515625 5.171875 29.953125 3.34375 
Q 31.390625 1.515625 33.796875 1.515625 
Q 38.484375 1.515625 42.15625 5.640625 
Q 45.84375 9.765625 47.015625 14.703125 
Q 47.21875 15.28125 47.796875 15.28125 
L 49.03125 15.28125 
Q 49.421875 15.28125 49.65625 15.015625 
Q 49.90625 14.75 49.90625 14.40625 
Q 49.90625 14.3125 49.8125 14.109375 
Q 48.390625 8.15625 43.84375 3.515625 
Q 39.3125 -1.125 33.59375 -1.125 
Q 29.9375 -1.125 26.984375 0.84375 
Q 24.03125 2.828125 22.796875 6.203125 
Q 21.234375 3.265625 18.46875 1.0625 
Q 15.71875 -1.125 12.59375 -1.125 
Q 10.453125 -1.125 8.171875 -0.359375 
Q 5.90625 0.390625 4.484375 1.953125 
Q 3.078125 3.515625 3.078125 5.90625 
Q 3.078125 8.25 4.703125 10.171875 
Q 6.34375 12.109375 8.796875 12.109375 
Q 10.453125 12.109375 11.578125 11.109375 
Q 12.703125 10.109375 12.703125 8.5 
Q 12.703125 6.390625 11.296875 4.828125 
Q 9.90625 3.265625 7.8125 2.875 
z
" id="Cmmi10-120"/>
     </defs>
     <g transform="translate(227.79 219.474778)scale(0.16 -0.16)">
      <use transform="translate(0 0.8125)" xlink:href="#Cmmi10-120"/>
     </g>
    </g>
   </g>
   <g id="matplotlib.axis_2">
    <g id="ytick_1">
     <g id="line2d_3">
      <defs>
       <path d="M 0 0 
L -3.5 0 
" id="m9d49b5c327" style="stroke:#000000;stroke-width:0.8;"/>
      </defs>
      <g>
       <use style="stroke:#000000;stroke-width:0.8;" x="71.409876" xlink:href="#m9d49b5c327" y="219.474778"/>
      </g>
     </g>
    </g>
    <g id="ytick_2">
     <g id="line2d_4">
      <g>
       <use style="stroke:#000000;stroke-width:0.8;" x="71.409876" xlink:href="#m9d49b5c327" y="87.269051"/>
      </g>
     </g>
     <g id="text_3">
      <!-- 6 -->
      <defs>
       <path d="M 33.015625 40.375 
Q 26.375 40.375 22.484375 35.828125 
Q 18.609375 31.296875 18.609375 23.390625 
Q 18.609375 15.53125 22.484375 10.953125 
Q 26.375 6.390625 33.015625 6.390625 
Q 39.65625 6.390625 43.53125 10.953125 
Q 47.40625 15.53125 47.40625 23.390625 
Q 47.40625 31.296875 43.53125 35.828125 
Q 39.65625 40.375 33.015625 40.375 
z
M 52.59375 71.296875 
L 52.59375 62.3125 
Q 48.875 64.0625 45.09375 64.984375 
Q 41.3125 65.921875 37.59375 65.921875 
Q 27.828125 65.921875 22.671875 59.328125 
Q 17.53125 52.734375 16.796875 39.40625 
Q 19.671875 43.65625 24.015625 45.921875 
Q 28.375 48.1875 33.59375 48.1875 
Q 44.578125 48.1875 50.953125 41.515625 
Q 57.328125 34.859375 57.328125 23.390625 
Q 57.328125 12.15625 50.6875 5.359375 
Q 44.046875 -1.421875 33.015625 -1.421875 
Q 20.359375 -1.421875 13.671875 8.265625 
Q 6.984375 17.96875 6.984375 36.375 
Q 6.984375 53.65625 15.1875 63.9375 
Q 23.390625 74.21875 37.203125 74.21875 
Q 40.921875 74.21875 44.703125 73.484375 
Q 48.484375 72.75 52.59375 71.296875 
z
" id="DejaVuSans-54"/>
      </defs>
      <g transform="translate(58.047376 91.06827)scale(0.1 -0.1)">
       <use xlink:href="#DejaVuSans-54"/>
      </g>
     </g>
    </g>
    <g id="text_4">
     <!-- $y$ -->
     <defs>
      <path d="M 8.40625 -14.3125 
Q 10.5 -17.921875 15.71875 -17.921875 
Q 20.453125 -17.921875 23.921875 -14.59375 
Q 27.390625 -11.28125 29.515625 -6.5625 
Q 31.640625 -1.859375 32.8125 3.078125 
Q 28.375 -1.125 23.1875 -1.125 
Q 19.234375 -1.125 16.453125 0.234375 
Q 13.671875 1.609375 12.125 4.3125 
Q 10.59375 7.03125 10.59375 10.890625 
Q 10.59375 14.15625 11.46875 17.59375 
Q 12.359375 21.046875 13.9375 25.265625 
Q 15.53125 29.5 16.703125 32.625 
Q 18.015625 36.28125 18.015625 38.625 
Q 18.015625 41.609375 15.828125 41.609375 
Q 11.859375 41.609375 9.296875 37.53125 
Q 6.734375 33.453125 5.515625 28.421875 
Q 5.328125 27.78125 4.6875 27.78125 
L 3.515625 27.78125 
Q 2.6875 27.78125 2.6875 28.71875 
L 2.6875 29 
Q 4.296875 34.96875 7.609375 39.578125 
Q 10.9375 44.1875 16.015625 44.1875 
Q 19.578125 44.1875 22.046875 41.84375 
Q 24.515625 39.5 24.515625 35.890625 
Q 24.515625 34.03125 23.6875 31.984375 
Q 23.25 30.765625 21.6875 26.65625 
Q 20.125 22.5625 19.28125 19.875 
Q 18.453125 17.1875 17.921875 14.59375 
Q 17.390625 12.015625 17.390625 9.421875 
Q 17.390625 6.109375 18.796875 3.8125 
Q 20.21875 1.515625 23.296875 1.515625 
Q 29.5 1.515625 34.421875 9.078125 
L 42 39.890625 
Q 42.328125 41.21875 43.546875 42.15625 
Q 44.78125 43.109375 46.1875 43.109375 
Q 47.40625 43.109375 48.3125 42.328125 
Q 49.21875 41.546875 49.21875 40.28125 
Q 49.21875 39.703125 49.125 39.5 
L 39.203125 -0.296875 
Q 37.890625 -5.421875 34.375 -10.109375 
Q 30.859375 -14.796875 25.90625 -17.65625 
Q 20.953125 -20.515625 15.578125 -20.515625 
Q 12.984375 -20.515625 10.4375 -19.5 
Q 7.90625 -18.5 6.34375 -16.5 
Q 4.78125 -14.5 4.78125 -11.8125 
Q 4.78125 -9.078125 6.390625 -7.078125 
Q 8.015625 -5.078125 10.6875 -5.078125 
Q 12.3125 -5.078125 13.40625 -6.078125 
Q 14.5 -7.078125 14.5 -8.6875 
Q 14.5 -10.984375 12.78125 -12.6875 
Q 11.078125 -14.40625 8.796875 -14.40625 
Q 8.6875 -14.359375 8.59375 -14.328125 
Q 8.5 -14.3125 8.40625 -14.3125 
z
" id="Cmmi10-121"/>
     </defs>
     <g transform="translate(67.409876 19.325)scale(0.16 -0.16)">
      <use transform="translate(0 0.8125)" xlink:href="#Cmmi10-121"/>
     </g>
    </g>
   </g>
   <g id="line2d_5">
    <path clip-path="url(#pcdcba2a3ae)" d="M 71.409876 87.269051 
L 191.653088 43.200475 
L 191.653088 43.200475 
" style="fill:none;stroke:#0000cc;stroke-linecap:square;"/>
   </g>
   <g id="line2d_6">
    <path clip-path="url(#pcdcba2a3ae)" d="M 71.409876 219.474778 
L 75.476919 219.373947 
L 80.109273 219.013443 
L 83.92475 218.520026 
L 88.53067 217.687938 
L 92.455341 216.774833 
L 96.498714 215.637715 
L 101.069479 214.112263 
L 105.168019 212.527815 
L 109.661078 210.555534 
L 113.405599 208.723799 
L 118.315917 206.06272 
L 122.744768 203.410427 
L 127.603215 200.225806 
L 132.698049 196.577112 
L 137.472996 192.870221 
L 142.27354 188.863245 
L 147.179234 184.47824 
L 151.732637 180.145576 
L 157.081152 174.733504 
L 161.916561 169.540452 
L 166.724322 164.094476 
L 172.497674 157.182338 
L 176.914429 151.620025 
L 182.931121 143.660136 
L 188.334001 136.136193 
L 191.653088 131.337627 
L 191.653088 131.337627 
" style="fill:none;stroke:#3ccc00;stroke-linecap:square;"/>
   </g>
   <g id="line2d_7">
    <path clip-path="url(#pcdcba2a3ae)" d="M 11.288269 197.44049 
L 16.707712 201.233852 
L 20.918814 203.934211 
L 25.120325 206.412955 
L 29.76424 208.902298 
L 34.433078 211.139953 
L 39.267776 213.177014 
L 43.786913 214.823435 
L 48.609184 216.305693 
L 53.058855 217.421923 
L 57.07608 218.222328 
L 61.607028 218.888988 
L 66.162465 219.306926 
L 70.315351 219.467475 
L 74.458367 219.418127 
L 78.922977 219.130685 
L 83.256192 218.619309 
L 87.850296 217.827133 
L 92.300674 216.814372 
L 96.049502 215.773889 
L 101.082809 214.107441 
L 105.731056 212.294152 
L 109.575194 210.595541 
L 114.179806 208.323749 
L 119.063072 205.632042 
L 123.32483 203.045336 
L 127.494854 200.299972 
L 132.51573 196.713141 
L 137.557271 192.802301 
L 142.281613 188.85627 
L 147.026652 184.619047 
L 151.538552 180.33541 
L 156.452718 175.387488 
L 161.406234 170.10198 
L 166.961418 163.818614 
L 172.781876 156.831583 
L 177.626188 150.701408 
L 182.64887 144.043412 
L 187.71428 137.017273 
L 193.728514 128.268834 
L 198.846293 120.477108 
L 204.358343 111.727939 
L 210.193216 102.062763 
L 215.701731 92.55728 
L 215.701731 92.55728 
" style="fill:none;stroke:#0000ff;stroke-linecap:square;"/>
   </g>
   <g id="line2d_8">
    <path clip-path="url(#pcdcba2a3ae)" d="M 11.288269 109.303339 
L 215.701731 34.38676 
L 215.701731 34.38676 
" style="fill:none;stroke:#ff0000;stroke-linecap:square;"/>
   </g>
   <g id="line2d_9">
    <path clip-path="url(#pcdcba2a3ae)" d="M 71.409876 219.474778 
L 71.409876 87.269051 
" style="fill:none;stroke:#000000;stroke-linecap:square;"/>
   </g>
   <g id="line2d_10">
    <path clip-path="url(#pcdcba2a3ae)" d="M 191.653088 131.337627 
L 191.653088 43.200475 
" style="fill:none;stroke:#000000;stroke-linecap:square;"/>
   </g>
   <g id="line2d_11">
    <path clip-path="url(#pcdcba2a3ae)" d="M 71.409876 219.474778 
L 71.409876 219.474778 
" style="fill:none;stroke:#d3d3d3;stroke-dasharray:3.7,1.6;stroke-dashoffset:0;"/>
   </g>
   <g id="line2d_12">
    <path clip-path="url(#pcdcba2a3ae)" d="M 191.653088 219.474778 
L 191.653088 131.337627 
" style="fill:none;stroke:#d3d3d3;stroke-dasharray:3.7,1.6;stroke-dashoffset:0;"/>
   </g>
   <g id="patch_4">
    <path d="M 71.409876 223.176538 
L 71.409876 30.685 
" style="fill:none;stroke:#000000;stroke-linecap:square;stroke-linejoin:miter;stroke-width:0.8;"/>
   </g>
   <g id="patch_5">
    <path d="M 7.2 219.474778 
L 219.79 219.474778 
" style="fill:none;stroke:#000000;stroke-linecap:square;stroke-linejoin:miter;stroke-width:0.8;"/>
   </g>
  </g>
 </g>
 <defs>
  <clipPath id="pcdcba2a3ae">
   <rect height="192.491538" width="212.59" x="7.2" y="30.685"/>
  </clipPath>
 </defs>
</svg>
