<?xml version="1.0" encoding="utf-8" standalone="no"?>
<!DOCTYPE svg PUBLIC "-//W3C//DTD SVG 1.1//EN"
  "http://www.w3.org/Graphics/SVG/1.1/DTD/svg11.dtd">
<!-- Created with matplotlib (https://matplotlib.org/) -->
<svg height="207.725pt" version="1.1" viewBox="0 0 208.426673 207.725" width="208.426673pt" xmlns="http://www.w3.org/2000/svg" xmlns:xlink="http://www.w3.org/1999/xlink">
 <defs>
  <style type="text/css">
*{stroke-linecap:butt;stroke-linejoin:round;}
  </style>
 </defs>
 <g id="figure_1">
  <g id="patch_1">
   <path d="M 0 207.725 
L 208.426673 207.725 
L 208.426673 0 
L 0 0 
z
" style="fill:#ffffff;"/>
  </g>
  <g id="axes_1">
   <g id="patch_2">
    <path d="M 21.037443 200.525 
L 183.946673 200.525 
L 183.946673 30.685 
L 21.037443 30.685 
z
" style="fill:#ffffff;"/>
   </g>
   <g id="patch_3">
    <path clip-path="url(#pa6d040d1ae)" d="M 163.408971 54.364615 
L 162.787423 54.547067 
L 162.37293 54.668966 
L 162.026521 54.770982 
L 161.502837 54.925449 
L 160.576373 55.199444 
L 160.471236 55.230597 
L 159.668909 55.468724 
L 159.198561 55.608649 
L 158.87385 55.705391 
L 158.344408 55.863378 
L 157.662968 56.067182 
L 157.245449 56.19231 
L 156.402282 56.445602 
L 155.895495 56.598233 
L 155.744539 56.643753 
L 154.792806 56.93135 
L 154.585674 56.99408 
L 154.157064 57.124044 
L 153.318804 57.378843 
L 152.871326 57.515198 
L 152.53957 57.616443 
L 152.016047 57.776478 
L 151.349378 57.980746 
L 151.064364 58.068239 
L 150.165586 58.344786 
L 149.777187 58.464598 
L 149.328432 58.60326 
L 148.655225 58.811744 
L 148.111763 58.980458 
L 147.838816 59.065333 
L 147.073515 59.303807 
L 146.622218 59.444784 
L 146.00632 59.637599 
L 145.812629 59.698337 
L 145.060239 59.934733 
L 144.503628 60.110091 
L 144.188826 60.209447 
L 143.26933 60.500402 
L 142.918613 60.611675 
L 142.570522 60.722278 
L 141.675474 61.007419 
L 141.372871 61.104066 
L 140.833245 61.276727 
L 140.30839 61.445044 
L 139.722413 61.633413 
L 139.462822 61.717014 
L 138.946529 61.883566 
L 137.996364 62.191063 
L 137.569864 62.329506 
L 137.103315 62.481248 
L 136.623169 62.63774 
L 136.146769 62.793342 
L 135.729767 62.929815 
L 135.268151 63.081186 
L 134.345578 63.384659 
L 133.829712 63.554902 
L 133.465547 63.675324 
L 132.943834 63.848193 
L 132.458583 64.009352 
L 132.089552 64.132155 
L 131.298214 64.3962 
L 131.096655 64.46361 
L 130.256165 64.745392 
L 129.877227 64.872799 
L 129.129318 65.124934 
L 128.881509 65.208674 
L 128.154625 65.454875 
L 127.680382 65.61597 
L 127.256186 65.760376 
L 126.892395 65.884457 
L 125.966888 66.201119 
L 125.878128 66.231564 
L 124.857844 66.58248 
L 124.569716 66.681901 
L 123.824714 66.939632 
L 123.619968 67.010631 
L 123.213915 67.151655 
L 122.504477 67.398741 
L 121.867399 67.621385 
L 121.201457 67.854895 
L 120.983074 67.931644 
L 120.304762 68.170586 
L 119.834359 68.336785 
L 119.537746 68.441793 
L 118.732451 68.727711 
L 118.15224 68.934469 
L 117.674548 69.105173 
L 116.967044 69.358805 
L 116.962982 69.360264 
L 116.331059 69.587625 
L 115.785876 69.784404 
L 115.342243 69.944963 
L 114.622137 70.206415 
L 114.094414 70.398679 
L 113.763236 70.519625 
L 112.796689 70.873891 
L 112.423199 71.011302 
L 112.006886 71.164812 
L 111.419876 71.381883 
L 110.918818 71.567748 
L 110.643507 71.670102 
L 110.019955 71.902527 
L 109.524073 72.087968 
L 108.830876 72.348101 
L 108.235453 72.572395 
L 107.866982 72.711595 
L 107.519209 72.843257 
L 106.966784 73.052963 
L 106.149932 73.364335 
L 105.449454 73.632585 
L 104.96885 73.817302 
L 104.417561 74.029865 
L 104.344091 74.058248 
L 103.328841 74.451802 
L 102.887798 74.623556 
L 102.61958 74.728242 
L 102.054468 74.949394 
L 101.626576 75.11738 
L 100.8709 75.415189 
L 100.440152 75.585602 
L 99.740146 75.863568 
L 99.480168 75.967131 
L 99.050373 76.138733 
L 98.320259 76.431375 
L 97.71735 76.674119 
L 97.027437 76.953117 
L 96.538148 77.151784 
L 96.046752 77.351985 
L 95.758914 77.469571 
L 95.058549 77.756672 
L 94.603891 77.943811 
L 94.283658 78.075982 
L 93.392251 78.445495 
L 93.090377 78.571169 
L 92.79298 78.695248 
L 91.872144 79.081152 
L 91.382486 79.287428 
L 90.80719 79.530741 
L 90.207685 79.785414 
L 90.012704 79.868492 
L 89.636404 80.029175 
L 88.695376 80.433034 
L 88.548643 80.496272 
L 87.705631 80.860992 
L 87.536908 80.934278 
L 86.722372 81.289459 
L 86.23951 81.501104 
L 86.000834 81.606023 
L 85.409965 81.866638 
L 84.66944 82.195042 
L 84.270835 82.372646 
L 83.427322 82.750436 
L 83.147309 82.876442 
L 82.849879 83.010613 
L 82.320999 83.250034 
L 81.682978 83.540316 
L 81.064823 83.8231 
L 80.450438 84.105685 
L 80.109393 84.263214 
L 79.338372 84.621128 
L 78.789632 84.877384 
L 78.350671 85.083302 
L 77.939155 85.277105 
L 77.171782 85.640489 
L 76.701573 85.864454 
L 76.169922 86.118895 
L 75.733192 86.328883 
L 75.320461 86.528151 
L 74.953587 86.705955 
L 74.067696 87.137964 
L 73.81504 87.261875 
L 73.365795 87.48298 
L 72.399697 87.961912 
L 72.263747 88.029691 
L 71.547423 88.388414 
L 71.199099 88.563829 
L 70.645609 88.843906 
L 69.854435 89.247169 
L 69.230629 89.567592 
L 69.047871 89.661887 
L 68.454643 89.969295 
L 68.002432 90.205015 
L 67.36067 90.541637 
L 66.888355 90.79098 
L 66.41023 91.044798 
L 65.698986 91.425044 
L 65.055663 91.771791 
L 64.510301 92.067881 
L 64.358281 92.150772 
L 63.499862 92.62181 
L 63.390873 92.681982 
L 62.833445 92.991047 
L 61.86941 93.530861 
L 61.571593 93.699016 
L 61.302647 93.851447 
L 60.534592 94.289822 
L 59.881003 94.666525 
L 59.72671 94.755955 
L 58.979977 95.191538 
L 58.979977 176.845385 
L 59.702602 175.997846 
L 60.252925 175.352393 
L 60.714303 174.81126 
L 61.204298 174.236564 
L 61.448166 173.95054 
L 62.040518 173.255793 
L 62.593588 172.607119 
L 62.941633 172.19891 
L 63.707493 171.300662 
L 64.097975 170.842681 
L 64.659429 170.184173 
L 65.533325 169.159213 
L 65.857353 168.779173 
L 66.122076 168.46869 
L 66.919992 167.532845 
L 67.16442 167.246165 
L 68.056129 166.200314 
L 68.222925 166.004685 
L 68.780392 165.350853 
L 69.446366 164.569758 
L 70.106838 163.795116 
L 70.557105 163.267015 
L 71.237813 162.468638 
L 71.384296 162.296834 
L 71.946016 161.638014 
L 72.369759 161.141023 
L 73.329446 160.015442 
L 73.913173 159.330811 
L 74.17575 159.022844 
L 74.967738 158.093952 
L 75.419926 157.563598 
L 76.015819 156.864698 
L 76.431115 156.377613 
L 77.015794 155.691866 
L 77.112417 155.578541 
L 77.92654 154.623686 
L 78.210534 154.290601 
L 79.036832 153.321468 
L 79.435156 152.854288 
L 79.776514 152.453922 
L 80.719082 151.348421 
L 81.260877 150.71297 
L 81.56557 150.355608 
L 82.302307 149.491517 
L 82.695835 149.029963 
L 83.19239 148.447573 
L 83.597282 147.97269 
L 84.135655 147.341253 
L 84.454171 146.967678 
L 84.964146 146.369548 
L 85.844685 145.336797 
L 86.47725 144.594887 
L 86.630529 144.415111 
L 87.4948 143.401441 
L 87.604278 143.273039 
L 88.405171 142.333701 
L 88.999687 141.636417 
L 89.638781 140.886847 
L 90.13776 140.301615 
L 90.244351 140.176598 
L 90.984751 139.308211 
L 91.40744 138.812455 
L 92.094476 138.006656 
L 92.762897 137.222692 
L 93.092653 136.835933 
L 93.460036 136.405043 
L 94.260287 135.46646 
L 94.481215 135.207342 
L 95.294134 134.2539 
L 95.815524 133.642382 
L 96.177769 133.217519 
L 96.608158 132.712732 
L 97.46445 131.708419 
L 97.945036 131.144759 
L 98.499144 130.494867 
L 98.998844 129.908788 
L 99.262019 129.60012 
L 99.902851 128.848512 
L 100.499364 128.148886 
L 100.770274 127.831145 
L 101.454287 127.028893 
L 102.07697 126.298572 
L 102.314693 126.019756 
L 103.124673 125.069761 
L 103.812997 124.262451 
L 104.305964 123.68427 
L 104.845033 123.052017 
L 105.142203 122.703478 
L 105.511822 122.269966 
L 105.975709 121.72589 
L 106.483084 121.13081 
L 107.309055 120.16206 
L 107.864062 119.511113 
L 108.100777 119.233479 
L 108.978686 118.203814 
L 109.547412 117.536777 
L 109.861048 117.168925 
L 110.221486 116.746181 
L 111.140895 115.667841 
L 111.568168 115.166709 
L 112.216374 114.406453 
L 112.735771 113.797272 
L 113.045482 113.434024 
L 113.709376 112.655368 
L 113.858842 112.480065 
L 114.742311 111.443878 
L 115.290053 110.801453 
L 115.747702 110.264694 
L 116.18889 109.74724 
L 116.526278 109.351531 
L 117.419553 108.303844 
L 118.005975 107.616051 
L 118.212442 107.373894 
L 118.547115 106.98137 
L 119.327058 106.066604 
L 120.11178 105.146234 
L 120.603822 104.569137 
L 120.915827 104.203198 
L 121.431146 103.598799 
L 121.769587 103.201855 
L 122.623272 102.200601 
L 123.241797 101.475156 
L 123.273118 101.438421 
L 123.945637 100.64965 
L 124.369634 100.152359 
L 125.181576 99.200064 
L 125.855694 98.409416 
L 126.114366 98.10603 
L 126.741934 97.369979 
L 127.292593 96.724132 
L 127.730411 96.210633 
L 128.500963 95.306882 
L 128.989531 94.733859 
L 129.09236 94.613255 
L 129.767016 93.821977 
L 130.370271 93.114442 
L 130.769489 92.646214 
L 131.191594 92.151144 
L 131.835479 91.395956 
L 132.566801 90.538216 
L 133.0668 89.951786 
L 133.689966 89.220899 
L 134.206394 88.6152 
L 134.747873 87.98012 
L 135.151711 87.506474 
L 135.344273 87.280625 
L 136.184684 86.29494 
L 136.546822 85.870202 
L 137.099182 85.22236 
L 137.499743 84.752557 
L 138.003535 84.161678 
L 138.945699 83.056651 
L 139.21118 82.745278 
L 139.817353 82.034321 
L 140.478287 81.259137 
L 140.895165 80.770197 
L 141.152198 80.468733 
L 142.000125 79.474232 
L 142.593641 78.778119 
L 142.826598 78.504893 
L 143.222116 78.041005 
L 144.064877 77.052564 
L 144.673901 76.338262 
L 145.164163 75.763252 
L 145.62273 75.225417 
L 146.071711 74.698824 
L 146.544395 74.144432 
L 147.167653 73.413436 
L 147.805269 72.6656 
L 147.988603 72.450576 
L 148.816773 71.479246 
L 149.119867 71.123759 
L 149.655665 70.495342 
L 150.283711 69.75873 
L 150.732109 69.232821 
L 151.594519 68.221334 
L 151.616124 68.195994 
L 152.38212 67.297588 
L 152.752761 66.862876 
L 153.408597 66.093672 
L 153.838594 65.589344 
L 154.267956 65.085762 
L 155.250636 63.933214 
L 155.728278 63.373006 
L 156.299955 62.702509 
L 156.607531 62.341765 
L 156.861479 62.043918 
L 157.669449 61.096281 
L 158.001361 60.706995 
L 158.544539 60.069922 
L 159.366236 59.106185 
L 159.688766 58.727901 
L 160.507757 57.767338 
L 160.640519 57.611627 
L 161.387647 56.735349 
L 161.911796 56.120594 
L 162.218498 55.760875 
L 162.887903 54.975756 
z
" style="fill:#cde0eb;opacity:0.5;"/>
   </g>
   <g id="patch_4">
    <path clip-path="url(#pa6d040d1ae)" d="M 24.170313 136.018462 
L 24.170313 136.018462 
L 24.176878 135.457761 
L 24.183444 135.225512 
L 24.190009 135.0473 
L 24.196575 134.897061 
L 24.20314 134.764698 
L 24.209706 134.645032 
L 24.216271 134.534988 
L 24.222837 134.432562 
L 24.229402 134.336361 
L 24.235968 134.245372 
L 24.249099 134.076139 
L 24.26223 133.920514 
L 24.275361 133.775661 
L 24.288492 133.639612 
L 24.301623 133.510934 
L 24.314754 133.388545 
L 24.327885 133.271603 
L 24.341016 133.15944 
L 24.354147 133.051515 
L 24.380409 132.846662 
L 24.40397 132.673532 
L 24.427532 132.508931 
L 24.451094 132.351712 
L 24.474656 132.200963 
L 24.513403 131.965231 
L 24.55215 131.742476 
L 24.590897 131.530764 
L 24.629644 131.328599 
L 24.68596 131.049416 
L 24.742275 130.785105 
L 24.79859 130.533515 
L 24.854905 130.292971 
L 24.912578 130.056674 
L 24.970252 129.829392 
L 25.029665 129.60367 
L 25.089079 129.385625 
L 25.148492 129.174524 
L 25.207906 128.969742 
L 25.309335 128.63325 
L 25.410765 128.311435 
L 25.51584 127.99165 
L 25.620916 127.684125 
L 25.707473 127.439073 
L 25.79403 127.200828 
L 25.870403 126.995839 
L 25.946776 126.795405 
L 26.052383 126.525216 
L 26.203591 126.151233 
L 26.354799 125.790915 
L 26.519287 125.412845 
L 26.703487 125.004862 
L 26.751163 124.901704 
L 26.937029 124.508362 
L 27.052797 124.270021 
L 27.168565 124.036421 
L 27.241432 123.891693 
L 27.420774 123.542636 
L 27.64537 123.118818 
L 27.841005 122.760684 
L 28.056199 122.3776 
L 28.211406 122.107851 
L 28.382414 121.816571 
L 28.495106 121.627844 
L 28.703023 121.285987 
L 28.952181 120.886489 
L 29.015995 120.785855 
L 29.182084 120.527001 
L 29.413714 120.173059 
L 29.65021 119.819658 
L 29.743006 119.683078 
L 29.887151 119.47316 
L 30.163123 119.078516 
L 30.246664 118.960852 
L 30.490244 118.622321 
L 30.597476 118.475359 
L 30.887102 118.084444 
L 30.982058 117.958121 
L 31.141394 117.748114 
L 31.34841 117.478817 
L 31.564678 117.2016 
L 31.663847 117.07584 
L 31.815795 116.884752 
L 32.09879 116.533855 
L 32.206679 116.401732 
L 32.386364 116.183639 
L 32.535321 116.004644 
L 32.787234 115.705521 
L 32.842419 115.640581 
L 33.016678 115.43686 
L 33.221218 115.200282 
L 33.39948 114.99627 
L 33.630223 114.735099 
L 33.833511 114.50763 
L 33.927838 114.402897 
L 34.10955 114.202556 
L 34.375073 113.913074 
L 34.457475 113.824004 
L 34.630201 113.638452 
L 34.866504 113.387067 
L 34.999422 113.246885 
L 35.119779 113.120691 
L 35.356649 112.874342 
L 35.570752 112.653906 
L 35.79969 112.420474 
L 35.850979 112.368494 
L 36.014525 112.203504 
L 36.2982 111.92 
L 36.435599 111.783877 
L 36.635261 111.587421 
L 36.742393 111.482657 
L 36.889678 111.339354 
L 37.160853 111.077664 
L 37.353601 110.893315 
L 37.525161 110.730361 
L 37.702689 110.562836 
L 37.810004 110.462101 
L 37.959359 110.32256 
L 38.237572 110.06463 
L 38.396421 109.918504 
L 38.590303 109.741253 
L 38.721475 109.622008 
L 38.777707 109.571054 
L 39.049827 109.325847 
L 39.210701 109.181937 
L 39.434338 108.983157 
L 39.497367 108.927397 
L 39.746591 108.708029 
L 39.865012 108.604409 
L 40.142791 108.362874 
L 40.192635 108.319757 
L 40.49223 108.061992 
L 40.614176 107.957751 
L 40.846659 107.760086 
L 41.050107 107.588236 
L 41.176025 107.482393 
L 41.295973 107.381931 
L 41.425138 107.274143 
L 41.693394 107.051565 
L 41.852073 106.920707 
L 41.992691 106.805233 
L 42.12999 106.692923 
L 42.287125 106.564913 
L 42.608312 106.304974 
L 42.658664 106.26443 
L 42.824603 106.131202 
L 43.039326 105.959683 
L 43.182895 105.845545 
L 43.440473 105.641845 
L 43.576584 105.534754 
L 43.843154 105.326102 
L 43.868854 105.306061 
L 44.08363 105.139084 
L 44.342843 104.938754 
L 44.390247 104.902258 
L 44.723088 104.647201 
L 44.773473 104.608772 
L 45.055202 104.394751 
L 45.154308 104.319807 
L 45.381759 104.148475 
L 45.5174 104.046738 
L 45.635468 103.958444 
L 45.914131 103.751012 
L 45.985321 103.698233 
L 46.290665 103.472826 
L 46.353644 103.426529 
L 46.607371 103.24067 
L 46.77662 103.117276 
L 46.985511 102.965616 
L 47.121655 102.867145 
L 47.22708 102.791094 
L 47.445306 102.63422 
L 47.690977 102.458494 
L 47.710565 102.444523 
L 47.995982 102.2416 
L 48.093905 102.172261 
L 48.389937 101.963497 
L 48.420544 101.941986 
L 48.686114 101.755904 
L 48.876235 101.623307 
L 48.966643 101.560432 
L 49.136743 101.442445 
L 49.30966 101.322915 
L 49.512409 101.183286 
L 49.684056 101.065512 
L 49.846601 100.954349 
L 49.983216 100.86119 
L 50.27825 100.660842 
L 50.365305 100.601943 
L 50.511098 100.503521 
L 50.728834 100.357038 
L 50.961035 100.201483 
L 51.133246 100.086552 
L 51.351148 99.941651 
L 51.517325 99.831537 
L 51.706118 99.706841 
L 51.783452 99.655887 
L 51.95335 99.544193 
L 52.075232 99.464276 
L 52.280292 99.330211 
L 52.499376 99.187518 
L 52.660264 99.08308 
L 52.898125 98.929215 
L 53.077334 98.813711 
L 53.179043 98.748316 
L 53.306846 98.666306 
L 53.636852 98.455373 
L 53.712383 98.407261 
L 53.842057 98.324805 
L 54.00706 98.220144 
L 54.187477 98.106036 
L 54.40699 97.967664 
L 54.654921 97.81198 
L 54.712271 97.776059 
L 54.943313 97.631684 
L 55.065315 97.555666 
L 55.369324 97.366891 
L 55.467143 97.306346 
L 55.711754 97.155356 
L 55.856705 97.066159 
L 56.083428 96.927052 
L 56.20532 96.852468 
L 56.331448 96.775442 
L 56.551833 96.641215 
L 56.74201 96.525753 
L 56.948389 96.400834 
L 57.138064 96.286373 
L 57.242211 96.223665 
L 57.374499 96.144154 
L 57.584164 96.018461 
L 57.809601 95.883751 
L 58.016987 95.760226 
L 58.070664 95.728316 
L 58.221017 95.639069 
L 58.429572 95.515599 
L 58.559586 95.438817 
L 58.763374 95.318759 
L 58.979977 95.191538 
L 58.979977 136.018462 
z
" style="fill:#cde0eb;opacity:0.5;"/>
   </g>
   <g id="patch_5">
    <path clip-path="url(#pa6d040d1ae)" d="M 24.170313 136.018462 
L 24.170313 136.018462 
L 24.173344 136.399451 
L 24.176375 136.557262 
L 24.179406 136.678355 
L 24.182438 136.780441 
L 24.185469 136.87038 
L 24.1885 136.951692 
L 24.191532 137.026466 
L 24.194563 137.096063 
L 24.200626 137.223257 
L 24.206688 137.338249 
L 24.212751 137.443995 
L 24.218814 137.54242 
L 24.224876 137.634864 
L 24.230939 137.722299 
L 24.243064 137.884922 
L 24.25519 138.03447 
L 24.267315 138.173665 
L 24.277935 138.288582 
L 24.288556 138.397955 
L 24.299176 138.502518 
L 24.309796 138.602853 
L 24.331037 138.792658 
L 24.352277 138.970284 
L 24.373518 139.137812 
L 24.394758 139.29679 
L 24.415999 139.448407 
L 24.437239 139.5936 
L 24.472173 139.820354 
L 24.507107 140.034326 
L 24.54204 140.23746 
L 24.576974 140.431252 
L 24.611908 140.616885 
L 24.646842 140.79531 
L 24.681775 140.967305 
L 24.716709 141.133521 
L 24.776785 141.40739 
L 24.836862 141.667999 
L 24.910771 141.972985 
L 24.984679 142.263093 
L 25.04381 142.485831 
L 25.102941 142.70115 
L 25.162072 142.909744 
L 25.221203 143.112206 
L 25.284884 143.323973 
L 25.348564 143.529772 
L 25.41792 143.747684 
L 25.487277 143.959618 
L 25.556634 144.166042 
L 25.62599 144.367363 
L 25.677748 144.514494 
L 25.757404 144.736078 
L 25.83706 144.952167 
L 25.916716 145.163152 
L 25.996372 145.369378 
L 26.021801 145.434261 
L 26.102819 145.638066 
L 26.183838 145.837642 
L 26.345875 146.225094 
L 26.390908 146.33019 
L 26.494489 146.567947 
L 26.59807 146.800463 
L 26.774414 147.185182 
L 26.890392 147.431138 
L 27.06067 147.782935 
L 27.230948 148.124514 
L 27.353745 148.364982 
L 27.415105 148.483401 
L 27.637032 148.902621 
L 27.767488 149.142803 
L 27.9287 149.433672 
L 28.089911 149.718366 
L 28.21805 149.940502 
L 28.357555 150.178381 
L 28.510046 150.433913 
L 28.711277 150.764345 
L 28.96735 151.174416 
L 29.068217 151.332929 
L 29.218198 151.565636 
L 29.380071 151.812949 
L 29.57879 152.111359 
L 29.791317 152.4245 
L 29.890024 152.56792 
L 30.153844 152.945287 
L 30.280064 153.122887 
L 30.499507 153.427346 
L 30.590652 153.552248 
L 30.864026 153.921647 
L 30.954593 154.042356 
L 31.101545 154.236515 
L 31.264439 154.449347 
L 31.500748 154.753803 
L 31.715884 155.02674 
L 31.781809 155.109597 
L 32.001756 155.383468 
L 32.217863 155.648836 
L 32.374799 155.839319 
L 32.530339 156.026318 
L 32.774212 156.316047 
L 32.993035 156.572541 
L 33.164318 156.771099 
L 33.263934 156.885709 
L 33.365797 157.002257 
L 33.537176 157.196895 
L 33.722755 157.405662 
L 33.882839 157.584126 
L 34.211617 157.946096 
L 34.387982 158.137826 
L 34.492298 158.250452 
L 34.672987 158.444196 
L 34.781057 158.559279 
L 35.051533 158.844763 
L 35.265485 159.068081 
L 35.314135 159.118559 
L 35.464369 159.273748 
L 35.785125 159.601667 
L 35.948906 159.767359 
L 36.046932 159.865978 
L 36.241099 160.060125 
L 36.358793 160.177048 
L 36.651544 160.465454 
L 36.841108 160.650405 
L 36.917174 160.72423 
L 37.189992 160.987216 
L 37.29008 161.083005 
L 37.411139 161.198378 
L 37.668637 161.442039 
L 37.886697 161.64657 
L 37.973337 161.727384 
L 38.133719 161.876313 
L 38.253439 161.986926 
L 38.542804 162.252356 
L 38.724582 162.417732 
L 38.800231 162.486252 
L 39.044243 162.706067 
L 39.160923 162.810539 
L 39.304634 162.938657 
L 39.624271 163.221449 
L 39.756612 163.337678 
L 39.945243 163.502494 
L 40.137702 163.669642 
L 40.208427 163.730814 
L 40.49921 163.980908 
L 40.576887 164.047338 
L 40.834268 164.266336 
L 40.919435 164.33843 
L 41.210731 164.583635 
L 41.244472 164.611901 
L 41.451526 164.784751 
L 41.708496 164.997838 
L 41.900865 165.156335 
L 42.061337 165.287897 
L 42.124028 165.339132 
L 42.298026 165.48087 
L 42.53567 165.673358 
L 42.686987 165.795275 
L 42.950118 166.006101 
L 43.1301 166.149456 
L 43.311819 166.293506 
L 43.457016 166.408114 
L 43.604674 166.524223 
L 43.798805 166.676206 
L 43.851675 166.717467 
L 44.171099 166.965583 
L 44.237799 167.017143 
L 44.478751 167.202689 
L 44.5539 167.260333 
L 44.759816 167.41774 
L 44.942032 167.556375 
L 45.229688 167.773999 
L 45.415184 167.913548 
L 45.486549 167.967074 
L 45.765262 168.175261 
L 45.910243 168.283026 
L 46.019507 168.364005 
L 46.211927 168.506121 
L 46.37343 168.624926 
L 46.605819 168.79512 
L 46.669348 168.841492 
L 46.845973 168.970076 
L 47.066382 169.129835 
L 47.314406 169.308693 
L 47.393088 169.365233 
L 47.620253 169.527935 
L 47.814836 169.666675 
L 47.974862 169.780349 
L 48.132124 169.891687 
L 48.294823 170.006491 
L 48.407965 170.086098 
L 48.704338 170.293751 
L 48.876874 170.414061 
L 48.952824 170.466888 
L 49.203048 170.64036 
L 49.284723 170.696795 
L 49.575308 170.896841 
L 49.633396 170.936692 
L 49.877988 171.103999 
L 50.013072 171.196059 
L 50.281955 171.37859 
L 50.467577 171.50405 
L 50.611698 171.601156 
L 50.727188 171.67878 
L 50.955683 171.831862 
L 51.033382 171.883768 
L 51.268536 172.040405 
L 51.469099 172.173465 
L 51.648312 172.291947 
L 51.890905 172.451718 
L 52.069082 172.568619 
L 52.176527 172.638933 
L 52.373066 172.767204 
L 52.464781 172.826909 
L 52.636624 172.938516 
L 52.914682 173.118394 
L 52.948741 173.140367 
L 53.212187 173.309893 
L 53.330322 173.385662 
L 53.511301 173.501441 
L 53.815179 173.695042 
L 53.873644 173.732176 
L 54.127217 173.892813 
L 54.211052 173.945772 
L 54.42728 174.082024 
L 54.650009 174.221865 
L 54.698438 174.252203 
L 54.974371 174.424605 
L 55.182609 174.554201 
L 55.353951 174.660509 
L 55.401159 174.689747 
L 55.606847 174.816884 
L 55.878185 174.983964 
L 56.076086 175.105374 
L 56.16558 175.160154 
L 56.43656 175.325558 
L 56.485014 175.35506 
L 56.761686 175.523097 
L 56.899627 175.60661 
L 57.013974 175.675704 
L 57.157137 175.762041 
L 57.360455 175.884336 
L 57.648798 176.05713 
L 57.686923 176.079922 
L 57.901631 176.208034 
L 58.094273 176.322634 
L 58.328838 176.461734 
L 58.467146 176.543529 
L 58.589288 176.615626 
L 58.770645 176.72244 
L 58.979977 176.845385 
L 58.979977 136.018462 
z
" style="fill:#cde0eb;opacity:0.5;"/>
   </g>
   <g id="matplotlib.axis_1">
    <g id="xtick_1">
     <g id="line2d_1">
      <defs>
       <path d="M 0 0 
L 0 3.5 
" id="m54d60b2b7f" style="stroke:#000000;stroke-width:0.8;"/>
      </defs>
      <g>
       <use style="stroke:#000000;stroke-width:0.8;" x="24.170313" xlink:href="#m54d60b2b7f" y="136.018462"/>
      </g>
     </g>
    </g>
    <g id="xtick_2">
     <g id="line2d_2">
      <g>
       <use style="stroke:#000000;stroke-width:0.8;" x="163.408971" xlink:href="#m54d60b2b7f" y="136.018462"/>
      </g>
     </g>
     <g id="text_1">
      <!-- 4 -->
      <defs>
       <path d="M 37.796875 64.3125 
L 12.890625 25.390625 
L 37.796875 25.390625 
z
M 35.203125 72.90625 
L 47.609375 72.90625 
L 47.609375 25.390625 
L 58.015625 25.390625 
L 58.015625 17.1875 
L 47.609375 17.1875 
L 47.609375 0 
L 37.796875 0 
L 37.796875 17.1875 
L 4.890625 17.1875 
L 4.890625 26.703125 
z
" id="DejaVuSans-52"/>
      </defs>
      <g transform="translate(160.227721 150.616899)scale(0.1 -0.1)">
       <use xlink:href="#DejaVuSans-52"/>
      </g>
     </g>
    </g>
    <g id="text_2">
     <!-- $x$ -->
     <defs>
      <path d="M 7.8125 2.875 
Q 9.578125 1.515625 12.796875 1.515625 
Q 15.921875 1.515625 18.3125 4.515625 
Q 20.703125 7.515625 21.578125 11.078125 
L 26.125 28.8125 
Q 27.203125 33.640625 27.203125 35.40625 
Q 27.203125 37.890625 25.8125 39.75 
Q 24.421875 41.609375 21.921875 41.609375 
Q 18.75 41.609375 15.96875 39.625 
Q 13.1875 37.640625 11.28125 34.59375 
Q 9.375 31.546875 8.59375 28.421875 
Q 8.40625 27.78125 7.8125 27.78125 
L 6.59375 27.78125 
Q 5.8125 27.78125 5.8125 28.71875 
L 5.8125 29 
Q 6.78125 32.71875 9.125 36.25 
Q 11.46875 39.796875 14.859375 41.984375 
Q 18.265625 44.1875 22.125 44.1875 
Q 25.78125 44.1875 28.734375 42.234375 
Q 31.6875 40.28125 32.90625 36.921875 
Q 34.625 39.984375 37.28125 42.078125 
Q 39.9375 44.1875 43.109375 44.1875 
Q 45.265625 44.1875 47.5 43.421875 
Q 49.75 42.671875 51.171875 41.109375 
Q 52.59375 39.546875 52.59375 37.203125 
Q 52.59375 34.671875 50.953125 32.828125 
Q 49.3125 31 46.78125 31 
Q 45.171875 31 44.09375 32.03125 
Q 43.015625 33.0625 43.015625 34.625 
Q 43.015625 36.71875 44.453125 38.296875 
Q 45.90625 39.890625 47.90625 40.1875 
Q 46.09375 41.609375 42.921875 41.609375 
Q 39.703125 41.609375 37.328125 38.625 
Q 34.96875 35.640625 33.984375 31.984375 
L 29.59375 14.3125 
Q 28.515625 10.296875 28.515625 7.71875 
Q 28.515625 5.171875 29.953125 3.34375 
Q 31.390625 1.515625 33.796875 1.515625 
Q 38.484375 1.515625 42.15625 5.640625 
Q 45.84375 9.765625 47.015625 14.703125 
Q 47.21875 15.28125 47.796875 15.28125 
L 49.03125 15.28125 
Q 49.421875 15.28125 49.65625 15.015625 
Q 49.90625 14.75 49.90625 14.40625 
Q 49.90625 14.3125 49.8125 14.109375 
Q 48.390625 8.15625 43.84375 3.515625 
Q 39.3125 -1.125 33.59375 -1.125 
Q 29.9375 -1.125 26.984375 0.84375 
Q 24.03125 2.828125 22.796875 6.203125 
Q 21.234375 3.265625 18.46875 1.0625 
Q 15.71875 -1.125 12.59375 -1.125 
Q 10.453125 -1.125 8.171875 -0.359375 
Q 5.90625 0.390625 4.484375 1.953125 
Q 3.078125 3.515625 3.078125 5.90625 
Q 3.078125 8.25 4.703125 10.171875 
Q 6.34375 12.109375 8.796875 12.109375 
Q 10.453125 12.109375 11.578125 11.109375 
Q 12.703125 10.109375 12.703125 8.5 
Q 12.703125 6.390625 11.296875 4.828125 
Q 9.90625 3.265625 7.8125 2.875 
z
" id="Cmmi10-120"/>
     </defs>
     <g transform="translate(191.946673 136.018462)scale(0.16 -0.16)">
      <use transform="translate(0 0.8125)" xlink:href="#Cmmi10-120"/>
     </g>
    </g>
   </g>
   <g id="matplotlib.axis_2">
    <g id="ytick_1">
     <g id="line2d_3">
      <defs>
       <path d="M 0 0 
L -3.5 0 
" id="m9adc7b9344" style="stroke:#000000;stroke-width:0.8;"/>
      </defs>
      <g>
       <use style="stroke:#000000;stroke-width:0.8;" x="24.170313" xlink:href="#m9adc7b9344" y="176.845385"/>
      </g>
     </g>
     <g id="text_3">
      <!-- -1 -->
      <defs>
       <path d="M 4.890625 31.390625 
L 31.203125 31.390625 
L 31.203125 23.390625 
L 4.890625 23.390625 
z
" id="DejaVuSans-45"/>
       <path d="M 12.40625 8.296875 
L 28.515625 8.296875 
L 28.515625 63.921875 
L 10.984375 60.40625 
L 10.984375 69.390625 
L 28.421875 72.90625 
L 38.28125 72.90625 
L 38.28125 8.296875 
L 54.390625 8.296875 
L 54.390625 0 
L 12.40625 0 
z
" id="DejaVuSans-49"/>
      </defs>
      <g transform="translate(7.2 180.644603)scale(0.1 -0.1)">
       <use xlink:href="#DejaVuSans-45"/>
       <use x="36.083984" xlink:href="#DejaVuSans-49"/>
      </g>
     </g>
    </g>
    <g id="ytick_2">
     <g id="line2d_4">
      <g>
       <use style="stroke:#000000;stroke-width:0.8;" x="24.170313" xlink:href="#m9adc7b9344" y="54.364615"/>
      </g>
     </g>
     <g id="text_4">
      <!-- 2 -->
      <defs>
       <path d="M 19.1875 8.296875 
L 53.609375 8.296875 
L 53.609375 0 
L 7.328125 0 
L 7.328125 8.296875 
Q 12.9375 14.109375 22.625 23.890625 
Q 32.328125 33.6875 34.8125 36.53125 
Q 39.546875 41.84375 41.421875 45.53125 
Q 43.3125 49.21875 43.3125 52.78125 
Q 43.3125 58.59375 39.234375 62.25 
Q 35.15625 65.921875 28.609375 65.921875 
Q 23.96875 65.921875 18.8125 64.3125 
Q 13.671875 62.703125 7.8125 59.421875 
L 7.8125 69.390625 
Q 13.765625 71.78125 18.9375 73 
Q 24.125 74.21875 28.421875 74.21875 
Q 39.75 74.21875 46.484375 68.546875 
Q 53.21875 62.890625 53.21875 53.421875 
Q 53.21875 48.921875 51.53125 44.890625 
Q 49.859375 40.875 45.40625 35.40625 
Q 44.1875 33.984375 37.640625 27.21875 
Q 31.109375 20.453125 19.1875 8.296875 
z
" id="DejaVuSans-50"/>
      </defs>
      <g transform="translate(10.807813 58.163834)scale(0.1 -0.1)">
       <use xlink:href="#DejaVuSans-50"/>
      </g>
     </g>
    </g>
    <g id="text_5">
     <!-- $y$ -->
     <defs>
      <path d="M 8.40625 -14.3125 
Q 10.5 -17.921875 15.71875 -17.921875 
Q 20.453125 -17.921875 23.921875 -14.59375 
Q 27.390625 -11.28125 29.515625 -6.5625 
Q 31.640625 -1.859375 32.8125 3.078125 
Q 28.375 -1.125 23.1875 -1.125 
Q 19.234375 -1.125 16.453125 0.234375 
Q 13.671875 1.609375 12.125 4.3125 
Q 10.59375 7.03125 10.59375 10.890625 
Q 10.59375 14.15625 11.46875 17.59375 
Q 12.359375 21.046875 13.9375 25.265625 
Q 15.53125 29.5 16.703125 32.625 
Q 18.015625 36.28125 18.015625 38.625 
Q 18.015625 41.609375 15.828125 41.609375 
Q 11.859375 41.609375 9.296875 37.53125 
Q 6.734375 33.453125 5.515625 28.421875 
Q 5.328125 27.78125 4.6875 27.78125 
L 3.515625 27.78125 
Q 2.6875 27.78125 2.6875 28.71875 
L 2.6875 29 
Q 4.296875 34.96875 7.609375 39.578125 
Q 10.9375 44.1875 16.015625 44.1875 
Q 19.578125 44.1875 22.046875 41.84375 
Q 24.515625 39.5 24.515625 35.890625 
Q 24.515625 34.03125 23.6875 31.984375 
Q 23.25 30.765625 21.6875 26.65625 
Q 20.125 22.5625 19.28125 19.875 
Q 18.453125 17.1875 17.921875 14.59375 
Q 17.390625 12.015625 17.390625 9.421875 
Q 17.390625 6.109375 18.796875 3.8125 
Q 20.21875 1.515625 23.296875 1.515625 
Q 29.5 1.515625 34.421875 9.078125 
L 42 39.890625 
Q 42.328125 41.21875 43.546875 42.15625 
Q 44.78125 43.109375 46.1875 43.109375 
Q 47.40625 43.109375 48.3125 42.328125 
Q 49.21875 41.546875 49.21875 40.28125 
Q 49.21875 39.703125 49.125 39.5 
L 39.203125 -0.296875 
Q 37.890625 -5.421875 34.375 -10.109375 
Q 30.859375 -14.796875 25.90625 -17.65625 
Q 20.953125 -20.515625 15.578125 -20.515625 
Q 12.984375 -20.515625 10.4375 -19.5 
Q 7.90625 -18.5 6.34375 -16.5 
Q 4.78125 -14.5 4.78125 -11.8125 
Q 4.78125 -9.078125 6.390625 -7.078125 
Q 8.015625 -5.078125 10.6875 -5.078125 
Q 12.3125 -5.078125 13.40625 -6.078125 
Q 14.5 -7.078125 14.5 -8.6875 
Q 14.5 -10.984375 12.78125 -12.6875 
Q 11.078125 -14.40625 8.796875 -14.40625 
Q 8.6875 -14.359375 8.59375 -14.328125 
Q 8.5 -14.3125 8.40625 -14.3125 
z
" id="Cmmi10-121"/>
     </defs>
     <g transform="translate(20.170313 19.325)scale(0.16 -0.16)">
      <use transform="translate(0 0.8125)" xlink:href="#Cmmi10-121"/>
     </g>
    </g>
   </g>
   <g id="line2d_5">
    <path clip-path="url(#pa6d040d1ae)" d="M 24.170313 136.018462 
L 24.325143 133.295603 
L 24.686415 131.047224 
L 25.208271 128.968501 
L 26.085131 126.442981 
L 27.078553 124.21765 
L 28.516482 121.592325 
L 29.941555 119.39462 
L 32.174279 116.441317 
L 34.567422 113.705714 
L 37.741342 110.526507 
L 41.221713 107.444085 
L 43.857765 105.314706 
L 48.437745 101.929902 
L 53.445739 98.577384 
L 57.876457 95.843888 
L 63.737888 92.490688 
L 70.019802 89.162594 
L 76.904271 85.767784 
L 84.929708 82.079392 
L 93.238172 78.509606 
L 102.748913 74.677741 
L 112.841755 70.85733 
L 123.295701 67.123227 
L 134.93733 63.189862 
L 147.959666 59.027742 
L 161.999817 54.778852 
L 177.332837 50.379185 
L 177.332837 50.379185 
" style="fill:none;stroke:#ff0000;stroke-linecap:square;stroke-width:1.5;"/>
   </g>
   <g id="line2d_6">
    <path clip-path="url(#pa6d040d1ae)" d="M 24.170313 136.018462 
L 24.306527 138.57239 
L 24.679955 140.958493 
L 25.213047 143.084625 
L 26.102009 145.636048 
L 27.057267 147.776009 
L 28.264982 150.020981 
L 29.94447 152.646501 
L 31.927259 155.291142 
L 34.337941 158.083595 
L 36.94975 160.755779 
L 39.850154 163.419534 
L 43.354861 166.327526 
L 47.332559 169.321746 
L 51.656889 172.297607 
L 56.680184 175.473672 
L 62.29843 178.747135 
L 68.261955 181.967335 
L 75.139313 185.42106 
L 76.38481 186.021026 
L 76.38481 186.021026 
" style="fill:none;stroke:#ff0000;stroke-linecap:square;stroke-width:1.5;"/>
   </g>
   <g id="line2d_7">
    <path clip-path="url(#pa6d040d1ae)" d="M 41.575145 197.258846 
L 180.813804 33.951154 
L 180.813804 33.951154 
" style="fill:none;stroke:#0000ff;stroke-linecap:square;stroke-width:1.5;"/>
   </g>
   <g id="line2d_8">
    <path clip-path="url(#pa6d040d1ae)" d="M 58.979977 176.845385 
L 163.408971 54.364615 
L 163.408971 54.364615 
" style="fill:none;stroke:#0000ff;stroke-linecap:square;stroke-width:1.5;"/>
   </g>
   <g id="line2d_9">
    <path clip-path="url(#pa6d040d1ae)" d="M 24.170313 136.018462 
L 24.301623 133.510934 
L 24.629644 131.328599 
L 25.207906 128.969742 
L 26.052383 126.525216 
L 27.168565 124.036421 
L 28.495106 121.627844 
L 30.246664 118.960852 
L 32.206679 116.401732 
L 34.457475 113.824004 
L 37.160853 111.077664 
L 40.192635 108.319757 
L 43.576584 105.534754 
L 47.445306 102.63422 
L 51.95335 99.544193 
L 56.948389 96.400834 
L 58.979977 95.191538 
L 58.979977 95.191538 
" style="fill:none;stroke:#ff0000;stroke-linecap:square;stroke-width:1.5;"/>
   </g>
   <g id="line2d_10">
    <path clip-path="url(#pa6d040d1ae)" d="M 24.170313 136.018462 
L 24.299176 138.502518 
L 24.646842 140.79531 
L 25.221203 143.112206 
L 26.021801 145.434261 
L 27.06067 147.782935 
L 28.357555 150.178381 
L 29.890024 152.56792 
L 31.781809 155.109597 
L 33.882839 157.584126 
L 36.358793 160.177048 
L 39.304634 162.938657 
L 42.686987 165.795275 
L 46.605819 168.79512 
L 50.727188 171.67878 
L 55.606847 174.816884 
L 58.979977 176.845385 
L 58.979977 176.845385 
" style="fill:none;stroke:#ff0000;stroke-linecap:square;stroke-width:1.5;"/>
   </g>
   <g id="patch_6">
    <path d="M 24.170313 200.525 
L 24.170313 30.685 
" style="fill:none;stroke:#000000;stroke-linecap:square;stroke-linejoin:miter;stroke-width:0.8;"/>
   </g>
   <g id="patch_7">
    <path d="M 21.037443 136.018462 
L 183.946673 136.018462 
" style="fill:none;stroke:#000000;stroke-linecap:square;stroke-linejoin:miter;stroke-width:0.8;"/>
   </g>
   <g id="text_6">
    <!-- $x=y^2$ -->
    <defs>
     <path d="M 7.515625 13.28125 
Q 6.6875 13.28125 6.140625 13.90625 
Q 5.609375 14.546875 5.609375 15.28125 
Q 5.609375 16.109375 6.140625 16.6875 
Q 6.6875 17.28125 7.515625 17.28125 
L 70.3125 17.28125 
Q 71.046875 17.28125 71.578125 16.6875 
Q 72.125 16.109375 72.125 15.28125 
Q 72.125 14.546875 71.578125 13.90625 
Q 71.046875 13.28125 70.3125 13.28125 
z
M 7.515625 32.71875 
Q 6.6875 32.71875 6.140625 33.296875 
Q 5.609375 33.890625 5.609375 34.71875 
Q 5.609375 35.453125 6.140625 36.078125 
Q 6.6875 36.71875 7.515625 36.71875 
L 70.3125 36.71875 
Q 71.046875 36.71875 71.578125 36.078125 
Q 72.125 35.453125 72.125 34.71875 
Q 72.125 33.890625 71.578125 33.296875 
Q 71.046875 32.71875 70.3125 32.71875 
z
" id="Cmr10-61"/>
     <path d="M 4.984375 0 
L 4.984375 2.6875 
Q 4.984375 2.9375 5.171875 3.21875 
L 20.703125 20.40625 
Q 24.21875 24.21875 26.40625 26.796875 
Q 28.609375 29.390625 30.75 32.765625 
Q 32.90625 36.140625 34.15625 39.625 
Q 35.40625 43.109375 35.40625 47.015625 
Q 35.40625 51.125 33.890625 54.859375 
Q 32.375 58.59375 29.375 60.84375 
Q 26.375 63.09375 22.125 63.09375 
Q 17.78125 63.09375 14.3125 60.46875 
Q 10.84375 57.859375 9.421875 53.71875 
Q 9.8125 53.8125 10.5 53.8125 
Q 12.75 53.8125 14.328125 52.296875 
Q 15.921875 50.78125 15.921875 48.390625 
Q 15.921875 46.09375 14.328125 44.5 
Q 12.75 42.921875 10.5 42.921875 
Q 8.15625 42.921875 6.5625 44.546875 
Q 4.984375 46.1875 4.984375 48.390625 
Q 4.984375 52.15625 6.390625 55.4375 
Q 7.8125 58.734375 10.46875 61.296875 
Q 13.140625 63.875 16.484375 65.234375 
Q 19.828125 66.609375 23.578125 66.609375 
Q 29.296875 66.609375 34.21875 64.1875 
Q 39.15625 61.765625 42.03125 57.34375 
Q 44.921875 52.9375 44.921875 47.015625 
Q 44.921875 42.671875 43.015625 38.765625 
Q 41.109375 34.859375 38.125 31.65625 
Q 35.15625 28.46875 30.515625 24.40625 
Q 25.875 20.359375 24.421875 19 
L 13.09375 8.109375 
L 22.703125 8.109375 
Q 29.78125 8.109375 34.546875 8.21875 
Q 39.3125 8.34375 39.59375 8.59375 
Q 40.765625 9.859375 42 17.828125 
L 44.921875 17.828125 
L 42.09375 0 
z
" id="Cmr10-50"/>
    </defs>
    <g style="fill:#ff0000;" transform="translate(77.769642 58.204615)scale(0.12 -0.12)">
     <use transform="translate(0 0.109375)" xlink:href="#Cmmi10-120"/>
     <use transform="translate(74.638672 0.109375)" xlink:href="#Cmr10-61"/>
     <use transform="translate(169.882812 0.109375)" xlink:href="#Cmmi10-121"/>
     <use transform="translate(225.209531 38.373438)scale(0.7)" xlink:href="#Cmr10-50"/>
    </g>
   </g>
   <g id="text_7">
    <!-- $x=y+2$ -->
    <defs>
     <path d="M 7.515625 23 
Q 6.6875 23 6.140625 23.625 
Q 5.609375 24.265625 5.609375 25 
Q 5.609375 25.734375 6.140625 26.359375 
Q 6.6875 27 7.515625 27 
L 36.921875 27 
L 36.921875 56.5 
Q 36.921875 57.28125 37.5 57.78125 
Q 38.09375 58.296875 38.921875 58.296875 
Q 39.65625 58.296875 40.28125 57.78125 
Q 40.921875 57.28125 40.921875 56.5 
L 40.921875 27 
L 70.3125 27 
Q 71.046875 27 71.578125 26.359375 
Q 72.125 25.734375 72.125 25 
Q 72.125 24.265625 71.578125 23.625 
Q 71.046875 23 70.3125 23 
L 40.921875 23 
L 40.921875 -6.5 
Q 40.921875 -7.28125 40.28125 -7.78125 
Q 39.65625 -8.296875 38.921875 -8.296875 
Q 38.09375 -8.296875 37.5 -7.78125 
Q 36.921875 -7.28125 36.921875 -6.5 
L 36.921875 23 
z
" id="Cmr10-43"/>
    </defs>
    <g style="fill:#0000ff;" transform="translate(88.274474 180.13226)scale(0.12 -0.12)">
     <use transform="translate(0 0.390625)" xlink:href="#Cmmi10-120"/>
     <use transform="translate(74.638672 0.390625)" xlink:href="#Cmr10-61"/>
     <use transform="translate(169.882812 0.390625)" xlink:href="#Cmmi10-121"/>
     <use transform="translate(236.464844 0.390625)" xlink:href="#Cmr10-43"/>
     <use transform="translate(331.708984 0.390625)" xlink:href="#Cmr10-50"/>
    </g>
   </g>
  </g>
 </g>
 <defs>
  <clipPath id="pa6d040d1ae">
   <rect height="169.84" width="162.909231" x="21.037443" y="30.685"/>
  </clipPath>
 </defs>
</svg>
