<?xml version="1.0" encoding="utf-8" standalone="no"?>
<!DOCTYPE svg PUBLIC "-//W3C//DTD SVG 1.1//EN"
  "http://www.w3.org/Graphics/SVG/1.1/DTD/svg11.dtd">
<!-- Created with matplotlib (https://matplotlib.org/) -->
<svg height="243.725pt" version="1.1" viewBox="0 0 244.27 243.725" width="244.27pt" xmlns="http://www.w3.org/2000/svg" xmlns:xlink="http://www.w3.org/1999/xlink">
 <defs>
  <style type="text/css">
*{stroke-linecap:butt;stroke-linejoin:round;}
  </style>
 </defs>
 <g id="figure_1">
  <g id="patch_1">
   <path d="M 0 243.725 
L 244.27 243.725 
L 244.27 0 
L 0 0 
z
" style="fill:#ffffff;"/>
  </g>
  <g id="axes_1">
   <g id="patch_2">
    <path d="M 7.2 236.525 
L 219.79 236.525 
L 219.79 30.685 
L 7.2 30.685 
z
" style="fill:#ffffff;"/>
   </g>
   <g id="patch_3">
    <path clip-path="url(#p0b62875d9d)" d="M 203.851675 73.73933 
L 203.379818 74.050682 
L 202.379927 74.710454 
L 201.482297 75.30275 
L 200.346918 76.051923 
L 199.538966 76.585045 
L 198.165079 77.491596 
L 197.32533 78.045698 
L 196.773675 78.409705 
L 195.999036 78.920846 
L 194.849278 79.679506 
L 194.019586 80.226973 
L 193.379058 80.649621 
L 192.23656 81.403492 
L 191.334266 81.998865 
L 190.778069 82.365868 
L 189.818886 82.998779 
L 189.006771 83.534648 
L 187.653127 84.427842 
L 186.7196 85.043823 
L 186.328973 85.301576 
L 184.76968 86.330466 
L 184.31781 86.628629 
L 183.414449 87.224707 
L 182.116397 88.081218 
L 181.151196 88.7181 
L 180.76977 88.969781 
L 179.495332 89.810712 
L 178.975783 90.153533 
L 177.544207 91.09815 
L 177.197348 91.327022 
L 175.765308 92.271945 
L 175.098514 92.711925 
L 174.008612 93.43109 
L 173.230451 93.944554 
L 172.947015 94.131578 
L 171.631778 94.999429 
L 170.599838 95.680348 
L 169.684763 96.284155 
L 169.010873 96.728817 
L 167.947512 97.430469 
L 167.244527 97.894329 
L 166.089552 98.656432 
L 165.029343 99.356005 
L 164.311268 99.829822 
L 163.502183 100.363692 
L 162.512034 101.017035 
L 162.271243 101.17592 
L 161.40183 101.749597 
L 159.712623 102.86421 
L 159.621945 102.924043 
L 158.560963 103.624125 
L 157.113439 104.579265 
L 156.605546 104.914395 
L 155.816501 105.435041 
L 154.932347 106.018445 
L 153.935792 106.676015 
L 153.249937 107.128572 
L 152.072937 107.905209 
L 151.009177 108.607124 
L 150.047197 109.24188 
L 149.353402 109.699677 
L 148.336867 110.370431 
L 147.365852 111.01115 
L 146.530541 111.562324 
L 145.459189 112.269249 
L 144.745901 112.739908 
L 143.908321 113.29258 
L 143.073852 113.843199 
L 142.232362 114.398451 
L 141.55275 114.846889 
L 140.372799 115.625472 
L 139.09475 116.468785 
L 138.960911 116.557098 
L 137.445131 117.557276 
L 137.285661 117.662501 
L 136.408205 118.241485 
L 134.75413 119.332916 
L 134.424554 119.550385 
L 133.619094 120.081862 
L 132.337542 120.927487 
L 131.467581 121.501525 
L 130.781488 121.954239 
L 129.938587 122.510422 
L 128.73915 123.301863 
L 127.79611 123.924122 
L 127.056441 124.412188 
L 126.230137 124.95742 
L 125.512741 125.430789 
L 124.631324 126.012386 
L 123.455125 126.788494 
L 122.872822 127.172723 
L 121.941872 127.787005 
L 120.438677 128.778879 
L 119.958951 129.095423 
L 118.598783 129.992921 
L 117.709518 130.579697 
L 117.623626 130.636373 
L 116.257175 131.538017 
L 114.981535 132.37974 
L 114.67796 132.580052 
L 113.615508 133.281104 
L 112.497956 134.018514 
L 111.583498 134.621913 
L 110.914552 135.063313 
L 110.26167 135.494114 
L 109.057161 136.288901 
L 107.953716 137.017002 
L 107.249911 137.481404 
L 106.837635 137.753442 
L 106.031101 138.285628 
L 104.741272 139.136714 
L 103.577676 139.904505 
L 102.908167 140.346277 
L 101.991535 140.951111 
L 100.937646 141.646513 
L 100.312209 142.059204 
L 98.933908 142.968667 
L 98.527649 143.236734 
L 97.367285 144.002393 
L 96.545118 144.544895 
L 95.749717 145.069735 
L 95.309028 145.360521 
L 94.203382 146.090075 
L 93.431499 146.599397 
L 92.341626 147.318543 
L 91.304314 148.003007 
L 90.580256 148.480772 
L 89.461618 149.218899 
L 88.418235 149.907369 
L 87.361233 150.604824 
L 87.066591 150.799242 
L 85.971059 151.522122 
L 84.767246 152.31645 
L 83.94335 152.860093 
L 82.958873 153.509695 
L 82.089354 154.083441 
L 81.713885 154.331192 
L 80.845932 154.903906 
L 79.673156 155.677754 
L 79.150753 156.022458 
L 77.983793 156.79247 
L 77.19684 157.311736 
L 76.165674 157.992144 
L 74.874522 158.844103 
L 74.578429 159.039478 
L 73.161182 159.97464 
L 72.196606 160.61111 
L 71.558363 161.03225 
L 71.0091 161.394678 
L 69.752033 162.224146 
L 68.53828 163.025033 
L 67.652933 163.609224 
L 66.807467 164.167099 
L 66.64039 164.277344 
L 65.523645 165.014221 
L 64.49604 165.69228 
L 63.754684 166.181459 
L 62.430632 167.055127 
L 61.725307 167.520531 
L 61.332758 167.779552 
L 59.625156 168.906303 
L 59.151445 169.218878 
L 58.541096 169.621613 
L 57.516753 170.297519 
L 56.455345 170.997882 
L 55.376714 171.70961 
L 54.387342 172.362441 
L 53.933262 172.662063 
L 52.594498 173.545438 
L 52.412229 173.665708 
L 50.858206 174.69112 
L 50.596855 174.863571 
L 49.754854 175.41916 
L 48.473576 176.264603 
L 47.718635 176.762746 
L 46.752545 177.400215 
L 46.022284 177.882073 
L 44.686895 178.763221 
L 43.523922 179.530602 
L 42.692039 180.079515 
L 42.351577 180.304166 
L 41.500949 180.865448 
L 40.269217 181.678199 
L 39.63535 182.096452 
L 38.767779 182.668913 
L 37.77312 183.325233 
L 37.210829 183.696257 
L 35.598106 184.760402 
L 34.763689 185.310987 
L 33.721907 185.9984 
L 32.984234 186.48515 
L 32.761541 186.632092 
L 31.63498 187.375446 
L 30.432158 188.169121 
L 29.28926 188.923255 
L 28.383172 189.521132 
L 27.712891 189.963412 
L 27.385656 190.179336 
L 26.100839 191.027115 
L 26.100839 191.027115 
L 27.432668 187.531673 
L 28.208473 185.513748 
L 29.023024 183.409468 
L 29.48433 182.224305 
L 30.434182 179.798918 
L 31.325739 177.540666 
L 32.334648 175.006526 
L 33.368159 172.434095 
L 33.945228 171.00811 
L 34.693952 169.169005 
L 35.442676 167.342387 
L 35.690819 166.739764 
L 36.858036 163.923529 
L 38.055351 161.066202 
L 38.689996 159.564603 
L 39.540975 157.565231 
L 40.001308 156.490402 
L 41.314627 153.44988 
L 42.527825 150.675289 
L 42.76758 150.130846 
L 43.552245 148.357961 
L 44.46586 146.311004 
L 45.721908 143.527173 
L 46.389398 142.062087 
L 47.304508 140.069622 
L 48.466303 137.566924 
L 48.984679 136.459956 
L 49.876395 134.569739 
L 50.675317 132.891266 
L 51.675119 130.810788 
L 52.810569 128.475041 
L 54.072374 125.913053 
L 54.759905 124.532006 
L 55.531571 122.994498 
L 56.827207 120.442828 
L 57.403381 119.320103 
L 58.624502 116.965086 
L 58.775477 116.676227 
L 60.043396 114.270363 
L 60.499574 113.413529 
L 61.376359 111.77969 
L 62.253143 110.162974 
L 62.675732 109.38987 
L 63.636028 107.647851 
L 64.528044 106.048095 
L 65.346203 104.596378 
L 66.324146 102.880705 
L 67.073201 101.580993 
L 67.92508 100.118057 
L 68.95644 98.368525 
L 69.860445 96.854516 
L 71.141499 94.740205 
L 72.096555 93.18772 
L 72.229737 92.97284 
L 73.404236 91.094979 
L 74.653558 89.131209 
L 75.659539 87.575206 
L 76.521597 86.259749 
L 77.177158 85.270477 
L 78.174955 83.783125 
L 78.371226 83.493166 
L 79.181514 82.305181 
L 79.991802 81.13182 
L 80.200967 80.831307 
L 81.225517 79.373384 
L 81.92935 78.385387 
L 83.079668 76.794393 
L 84.339124 75.086251 
L 85.444927 73.615629 
L 85.796947 73.153188 
L 86.966103 71.6371 
L 87.664888 70.745496 
L 89.01535 69.053214 
L 89.11645 68.928159 
L 89.892663 67.975607 
L 90.668877 67.036475 
L 91.346548 66.22754 
L 92.159146 65.27103 
L 93.523426 63.698209 
L 93.92769 63.240112 
L 94.543794 62.548967 
L 95.311472 61.699616 
L 96.07915 60.863392 
L 96.767075 60.125194 
L 97.802733 59.033729 
L 98.38834 58.427141 
L 99.736949 57.059261 
L 100.120664 56.677465 
L 101.268795 55.554664 
L 101.65527 55.183321 
L 102.706326 54.190243 
L 103.668366 53.302839 
L 104.708358 52.366717 
L 105.719713 51.479477 
L 106.907683 50.466393 
L 107.668019 49.834486 
L 108.493962 49.162646 
L 109.484019 48.377334 
L 110.132971 47.874431 
L 111.089245 47.150465 
L 112.233397 46.311027 
L 112.631205 46.025995 
L 113.750065 45.243224 
L 114.420401 44.787603 
L 115.16863 44.29086 
L 116.464692 43.459922 
L 117.532784 42.803262 
L 117.781772 42.653837 
L 118.700056 42.114686 
L 119.989198 41.389483 
L 120.855817 40.922775 
L 121.322241 40.678512 
L 122.400446 40.13241 
L 123.135388 39.775008 
L 123.870331 39.429636 
L 124.32289 39.222951 
L 125.195619 38.837251 
L 126.320524 38.36513 
L 126.609246 38.248499 
L 127.895989 37.751286 
L 128.844061 37.408537 
L 130.146292 36.970385 
L 130.534662 36.847025 
L 131.739226 36.485782 
L 131.971598 36.419814 
L 133.209191 36.08873 
L 134.191098 35.850318 
L 134.679837 35.739654 
L 135.826539 35.500896 
L 136.47384 35.379051 
L 137.800904 35.158431 
L 138.504109 35.057425 
L 139.869873 34.89272 
L 140.253089 34.853969 
L 141.011531 34.78692 
L 141.769973 34.732683 
L 142.300379 34.702367 
L 143.307107 34.662058 
L 143.897389 34.648922 
L 145.281295 34.64855 
L 145.948247 34.663604 
L 146.97506 34.706148 
L 147.407629 34.731102 
L 148.145866 34.783314 
L 148.884103 34.847664 
L 149.63836 34.925947 
L 149.883161 34.954079 
L 151.21048 35.129846 
L 152.447611 35.329002 
L 152.71464 35.376462 
L 154.078866 35.643714 
L 154.642603 35.766254 
L 155.751911 36.028054 
L 156.619962 36.252031 
L 157.634767 36.535154 
L 158.047264 36.656794 
L 159.231747 37.027149 
L 160.099304 37.318236 
L 160.779862 37.558314 
L 161.451658 37.805418 
L 162.281239 38.12443 
L 163.110819 38.458771 
L 163.3742 38.568125 
L 164.40512 39.011018 
L 165.173442 39.356492 
L 166.121156 39.80074 
L 167.408338 40.436152 
L 168.543056 41.026908 
L 168.952761 41.247254 
L 169.552361 41.576469 
L 170.637341 42.192541 
L 172.086369 43.056217 
L 172.370645 43.231144 
L 173.128535 43.706302 
L 173.886426 44.194253 
L 174.443124 44.560821 
L 175.509206 45.282068 
L 176.523129 45.991515 
L 177.271195 46.529619 
L 177.718116 46.857049 
L 178.778707 47.65188 
L 179.980683 48.582956 
L 180.921153 49.333902 
L 181.925856 50.157902 
L 182.457425 50.602959 
L 183.617511 51.596098 
L 184.642253 52.498304 
L 185.340514 53.126466 
L 185.958971 53.691905 
L 186.686237 54.367725 
L 187.958273 55.5781 
L 188.899708 56.497107 
L 189.882102 57.477145 
L 190.44255 58.045878 
L 191.218826 58.845186 
L 191.916289 59.57479 
L 192.938494 60.663676 
L 194.01254 61.832859 
L 195.177068 63.129571 
L 196.17711 64.267233 
L 197.129612 65.371525 
L 197.227496 65.486153 
L 198.525225 67.026036 
L 199.218703 67.864295 
L 200.263114 69.146965 
L 200.92699 69.974919 
L 201.650713 70.888697 
L 203.016323 72.644698 
z
" style="fill:#cde0eb;opacity:0.5;"/>
   </g>
   <g id="matplotlib.axis_1">
    <g id="xtick_1">
     <g id="line2d_1">
      <defs>
       <path d="M 0 0 
L 0 3.5 
" id="m730c677b27" style="stroke:#000000;stroke-width:0.8;"/>
      </defs>
      <g>
       <use style="stroke:#000000;stroke-width:0.8;" x="26.100839" xlink:href="#m730c677b27" y="112.835258"/>
      </g>
     </g>
     <g id="text_1">
      <!-- -2 -->
      <defs>
       <path d="M 4.890625 31.390625 
L 31.203125 31.390625 
L 31.203125 23.390625 
L 4.890625 23.390625 
z
" id="DejaVuSans-45"/>
       <path d="M 19.1875 8.296875 
L 53.609375 8.296875 
L 53.609375 0 
L 7.328125 0 
L 7.328125 8.296875 
Q 12.9375 14.109375 22.625 23.890625 
Q 32.328125 33.6875 34.8125 36.53125 
Q 39.546875 41.84375 41.421875 45.53125 
Q 43.3125 49.21875 43.3125 52.78125 
Q 43.3125 58.59375 39.234375 62.25 
Q 35.15625 65.921875 28.609375 65.921875 
Q 23.96875 65.921875 18.8125 64.3125 
Q 13.671875 62.703125 7.8125 59.421875 
L 7.8125 69.390625 
Q 13.765625 71.78125 18.9375 73 
Q 24.125 74.21875 28.421875 74.21875 
Q 39.75 74.21875 46.484375 68.546875 
Q 53.21875 62.890625 53.21875 53.421875 
Q 53.21875 48.921875 51.53125 44.890625 
Q 49.859375 40.875 45.40625 35.40625 
Q 44.1875 33.984375 37.640625 27.21875 
Q 31.109375 20.453125 19.1875 8.296875 
z
" id="DejaVuSans-50"/>
      </defs>
      <g transform="translate(21.115683 127.433696)scale(0.1 -0.1)">
       <use xlink:href="#DejaVuSans-45"/>
       <use x="36.083984" xlink:href="#DejaVuSans-50"/>
      </g>
     </g>
    </g>
    <g id="xtick_2">
     <g id="line2d_2">
      <g>
       <use style="stroke:#000000;stroke-width:0.8;" x="203.851675" xlink:href="#m730c677b27" y="112.835258"/>
      </g>
     </g>
     <g id="text_2">
      <!-- 1 -->
      <defs>
       <path d="M 12.40625 8.296875 
L 28.515625 8.296875 
L 28.515625 63.921875 
L 10.984375 60.40625 
L 10.984375 69.390625 
L 28.421875 72.90625 
L 38.28125 72.90625 
L 38.28125 8.296875 
L 54.390625 8.296875 
L 54.390625 0 
L 12.40625 0 
z
" id="DejaVuSans-49"/>
      </defs>
      <g transform="translate(200.670425 127.433696)scale(0.1 -0.1)">
       <use xlink:href="#DejaVuSans-49"/>
      </g>
     </g>
    </g>
    <g id="text_3">
     <!-- $x$ -->
     <defs>
      <path d="M 7.8125 2.875 
Q 9.578125 1.515625 12.796875 1.515625 
Q 15.921875 1.515625 18.3125 4.515625 
Q 20.703125 7.515625 21.578125 11.078125 
L 26.125 28.8125 
Q 27.203125 33.640625 27.203125 35.40625 
Q 27.203125 37.890625 25.8125 39.75 
Q 24.421875 41.609375 21.921875 41.609375 
Q 18.75 41.609375 15.96875 39.625 
Q 13.1875 37.640625 11.28125 34.59375 
Q 9.375 31.546875 8.59375 28.421875 
Q 8.40625 27.78125 7.8125 27.78125 
L 6.59375 27.78125 
Q 5.8125 27.78125 5.8125 28.71875 
L 5.8125 29 
Q 6.78125 32.71875 9.125 36.25 
Q 11.46875 39.796875 14.859375 41.984375 
Q 18.265625 44.1875 22.125 44.1875 
Q 25.78125 44.1875 28.734375 42.234375 
Q 31.6875 40.28125 32.90625 36.921875 
Q 34.625 39.984375 37.28125 42.078125 
Q 39.9375 44.1875 43.109375 44.1875 
Q 45.265625 44.1875 47.5 43.421875 
Q 49.75 42.671875 51.171875 41.109375 
Q 52.59375 39.546875 52.59375 37.203125 
Q 52.59375 34.671875 50.953125 32.828125 
Q 49.3125 31 46.78125 31 
Q 45.171875 31 44.09375 32.03125 
Q 43.015625 33.0625 43.015625 34.625 
Q 43.015625 36.71875 44.453125 38.296875 
Q 45.90625 39.890625 47.90625 40.1875 
Q 46.09375 41.609375 42.921875 41.609375 
Q 39.703125 41.609375 37.328125 38.625 
Q 34.96875 35.640625 33.984375 31.984375 
L 29.59375 14.3125 
Q 28.515625 10.296875 28.515625 7.71875 
Q 28.515625 5.171875 29.953125 3.34375 
Q 31.390625 1.515625 33.796875 1.515625 
Q 38.484375 1.515625 42.15625 5.640625 
Q 45.84375 9.765625 47.015625 14.703125 
Q 47.21875 15.28125 47.796875 15.28125 
L 49.03125 15.28125 
Q 49.421875 15.28125 49.65625 15.015625 
Q 49.90625 14.75 49.90625 14.40625 
Q 49.90625 14.3125 49.8125 14.109375 
Q 48.390625 8.15625 43.84375 3.515625 
Q 39.3125 -1.125 33.59375 -1.125 
Q 29.9375 -1.125 26.984375 0.84375 
Q 24.03125 2.828125 22.796875 6.203125 
Q 21.234375 3.265625 18.46875 1.0625 
Q 15.71875 -1.125 12.59375 -1.125 
Q 10.453125 -1.125 8.171875 -0.359375 
Q 5.90625 0.390625 4.484375 1.953125 
Q 3.078125 3.515625 3.078125 5.90625 
Q 3.078125 8.25 4.703125 10.171875 
Q 6.34375 12.109375 8.796875 12.109375 
Q 10.453125 12.109375 11.578125 11.109375 
Q 12.703125 10.109375 12.703125 8.5 
Q 12.703125 6.390625 11.296875 4.828125 
Q 9.90625 3.265625 7.8125 2.875 
z
" id="Cmmi10-120"/>
     </defs>
     <g transform="translate(227.79 112.835258)scale(0.16 -0.16)">
      <use transform="translate(0 0.8125)" xlink:href="#Cmmi10-120"/>
     </g>
    </g>
   </g>
   <g id="matplotlib.axis_2">
    <g id="ytick_1">
     <g id="line2d_3">
      <defs>
       <path d="M 0 0 
L -3.5 0 
" id="mac7c8c87a1" style="stroke:#000000;stroke-width:0.8;"/>
      </defs>
      <g>
       <use style="stroke:#000000;stroke-width:0.8;" x="144.601396" xlink:href="#mac7c8c87a1" y="191.027115"/>
      </g>
     </g>
     <g id="text_4">
      <!-- -2 -->
      <g transform="translate(127.631084 194.826334)scale(0.1 -0.1)">
       <use xlink:href="#DejaVuSans-45"/>
       <use x="36.083984" xlink:href="#DejaVuSans-50"/>
      </g>
     </g>
    </g>
    <g id="ytick_2">
     <g id="line2d_4">
      <g>
       <use style="stroke:#000000;stroke-width:0.8;" x="144.601396" xlink:href="#mac7c8c87a1" y="73.73933"/>
      </g>
     </g>
     <g id="text_5">
      <!-- 1 -->
      <g transform="translate(131.238896 77.538549)scale(0.1 -0.1)">
       <use xlink:href="#DejaVuSans-49"/>
      </g>
     </g>
    </g>
    <g id="text_6">
     <!-- $y$ -->
     <defs>
      <path d="M 8.40625 -14.3125 
Q 10.5 -17.921875 15.71875 -17.921875 
Q 20.453125 -17.921875 23.921875 -14.59375 
Q 27.390625 -11.28125 29.515625 -6.5625 
Q 31.640625 -1.859375 32.8125 3.078125 
Q 28.375 -1.125 23.1875 -1.125 
Q 19.234375 -1.125 16.453125 0.234375 
Q 13.671875 1.609375 12.125 4.3125 
Q 10.59375 7.03125 10.59375 10.890625 
Q 10.59375 14.15625 11.46875 17.59375 
Q 12.359375 21.046875 13.9375 25.265625 
Q 15.53125 29.5 16.703125 32.625 
Q 18.015625 36.28125 18.015625 38.625 
Q 18.015625 41.609375 15.828125 41.609375 
Q 11.859375 41.609375 9.296875 37.53125 
Q 6.734375 33.453125 5.515625 28.421875 
Q 5.328125 27.78125 4.6875 27.78125 
L 3.515625 27.78125 
Q 2.6875 27.78125 2.6875 28.71875 
L 2.6875 29 
Q 4.296875 34.96875 7.609375 39.578125 
Q 10.9375 44.1875 16.015625 44.1875 
Q 19.578125 44.1875 22.046875 41.84375 
Q 24.515625 39.5 24.515625 35.890625 
Q 24.515625 34.03125 23.6875 31.984375 
Q 23.25 30.765625 21.6875 26.65625 
Q 20.125 22.5625 19.28125 19.875 
Q 18.453125 17.1875 17.921875 14.59375 
Q 17.390625 12.015625 17.390625 9.421875 
Q 17.390625 6.109375 18.796875 3.8125 
Q 20.21875 1.515625 23.296875 1.515625 
Q 29.5 1.515625 34.421875 9.078125 
L 42 39.890625 
Q 42.328125 41.21875 43.546875 42.15625 
Q 44.78125 43.109375 46.1875 43.109375 
Q 47.40625 43.109375 48.3125 42.328125 
Q 49.21875 41.546875 49.21875 40.28125 
Q 49.21875 39.703125 49.125 39.5 
L 39.203125 -0.296875 
Q 37.890625 -5.421875 34.375 -10.109375 
Q 30.859375 -14.796875 25.90625 -17.65625 
Q 20.953125 -20.515625 15.578125 -20.515625 
Q 12.984375 -20.515625 10.4375 -19.5 
Q 7.90625 -18.5 6.34375 -16.5 
Q 4.78125 -14.5 4.78125 -11.8125 
Q 4.78125 -9.078125 6.390625 -7.078125 
Q 8.015625 -5.078125 10.6875 -5.078125 
Q 12.3125 -5.078125 13.40625 -6.078125 
Q 14.5 -7.078125 14.5 -8.6875 
Q 14.5 -10.984375 12.78125 -12.6875 
Q 11.078125 -14.40625 8.796875 -14.40625 
Q 8.6875 -14.359375 8.59375 -14.328125 
Q 8.5 -14.3125 8.40625 -14.3125 
z
" id="Cmmi10-121"/>
     </defs>
     <g transform="translate(140.601396 19.325)scale(0.16 -0.16)">
      <use transform="translate(0 0.8125)" xlink:href="#Cmmi10-121"/>
     </g>
    </g>
   </g>
   <g id="line2d_5">
    <path clip-path="url(#p0b62875d9d)" d="M 26.100839 191.027115 
L 31.325739 177.540666 
L 36.858036 163.923529 
L 42.527825 150.675289 
L 47.304508 140.069622 
L 51.675119 130.810788 
L 56.827207 120.442828 
L 61.376359 111.77969 
L 66.324146 102.880705 
L 71.141499 94.740205 
L 75.659539 87.575206 
L 80.200967 80.831307 
L 84.339124 75.086251 
L 87.664888 70.745496 
L 92.159146 65.27103 
L 96.767075 60.125194 
L 100.120664 56.677465 
L 103.668366 53.302839 
L 107.668019 49.834486 
L 111.089245 47.150465 
L 115.16863 44.29086 
L 118.700056 42.114686 
L 122.400446 40.13241 
L 125.195619 38.837251 
L 128.844061 37.408537 
L 131.971598 36.419814 
L 135.826539 35.500896 
L 138.504109 35.057425 
L 142.300379 34.702367 
L 145.948247 34.663604 
L 149.63836 34.925947 
L 152.71464 35.376462 
L 156.619962 36.252031 
L 160.099304 37.318236 
L 163.3742 38.568125 
L 166.121156 39.80074 
L 169.552361 41.576469 
L 173.128535 43.706302 
L 176.523129 45.991515 
L 179.980683 48.582956 
L 183.617511 51.596098 
L 186.686237 54.367725 
L 190.44255 58.045878 
L 194.01254 61.832859 
L 197.227496 65.486153 
L 201.650713 70.888697 
L 203.851675 73.73933 
L 203.851675 73.73933 
" style="fill:none;stroke:#0000cc;stroke-linecap:square;stroke-width:1.5;"/>
   </g>
   <g id="line2d_6">
    <path clip-path="url(#p0b62875d9d)" d="M 26.100839 191.027115 
L 203.851675 73.73933 
L 203.851675 73.73933 
" style="fill:none;stroke:#3ccc00;stroke-linecap:square;stroke-width:1.5;"/>
   </g>
   <g id="line2d_7">
    <path clip-path="url(#p0b62875d9d)" d="M 11.288269 200.801097 
L 215.701731 65.920145 
L 215.701731 65.920145 
" style="fill:none;stroke:#0000ff;stroke-linecap:square;stroke-width:1.5;"/>
   </g>
   <g id="line2d_8">
    <path clip-path="url(#p0b62875d9d)" d="M 11.288269 232.566538 
L 17.146303 215.554464 
L 22.38621 200.98508 
L 27.765761 186.663631 
L 33.166115 172.935115 
L 38.656208 159.644323 
L 43.022811 149.552668 
L 48.484789 137.527344 
L 53.693679 126.678238 
L 58.355693 117.480651 
L 63.310884 108.235376 
L 67.516707 100.817341 
L 72.121815 93.146934 
L 76.683272 86.014885 
L 81.117544 79.525927 
L 85.167117 73.982531 
L 89.500512 68.45517 
L 93.263138 63.995085 
L 97.471497 59.380216 
L 101.771177 55.072601 
L 106.044656 51.199247 
L 109.341368 48.489138 
L 112.476776 46.136226 
L 115.969499 43.772986 
L 119.513656 41.652689 
L 122.880157 39.897763 
L 126.596477 38.253617 
L 130.009535 37.014624 
L 133.439564 36.030866 
L 136.607717 35.355015 
L 140.514277 34.829433 
L 144.027776 34.647066 
L 147.273253 34.722904 
L 150.471358 35.027128 
L 153.762703 35.578088 
L 157.202829 36.411843 
L 160.642257 37.508939 
L 163.815985 38.755022 
L 166.787759 40.125199 
L 170.154152 41.914939 
L 173.861029 44.177695 
L 177.015198 46.344071 
L 180.319291 48.851058 
L 184.156444 52.067671 
L 188.170022 55.783085 
L 191.925208 59.58419 
L 196.039139 64.108951 
L 200.279526 69.167315 
L 203.402687 73.149051 
L 207.429587 78.60362 
L 211.664181 84.729119 
L 215.701731 90.941539 
L 215.701731 90.941539 
" style="fill:none;stroke:#ff0000;stroke-linecap:square;stroke-width:1.5;"/>
   </g>
   <g id="patch_4">
    <path d="M 144.601396 236.525 
L 144.601396 30.685 
" style="fill:none;stroke:#000000;stroke-linecap:square;stroke-linejoin:miter;stroke-width:0.8;"/>
   </g>
   <g id="patch_5">
    <path d="M 7.2 112.835258 
L 219.79 112.835258 
" style="fill:none;stroke:#000000;stroke-linecap:square;stroke-linejoin:miter;stroke-width:0.8;"/>
   </g>
   <g id="text_7">
    <!-- $y=2-x^2$ -->
    <defs>
     <path d="M 7.515625 13.28125 
Q 6.6875 13.28125 6.140625 13.90625 
Q 5.609375 14.546875 5.609375 15.28125 
Q 5.609375 16.109375 6.140625 16.6875 
Q 6.6875 17.28125 7.515625 17.28125 
L 70.3125 17.28125 
Q 71.046875 17.28125 71.578125 16.6875 
Q 72.125 16.109375 72.125 15.28125 
Q 72.125 14.546875 71.578125 13.90625 
Q 71.046875 13.28125 70.3125 13.28125 
z
M 7.515625 32.71875 
Q 6.6875 32.71875 6.140625 33.296875 
Q 5.609375 33.890625 5.609375 34.71875 
Q 5.609375 35.453125 6.140625 36.078125 
Q 6.6875 36.71875 7.515625 36.71875 
L 70.3125 36.71875 
Q 71.046875 36.71875 71.578125 36.078125 
Q 72.125 35.453125 72.125 34.71875 
Q 72.125 33.890625 71.578125 33.296875 
Q 71.046875 32.71875 70.3125 32.71875 
z
" id="Cmr10-61"/>
     <path d="M 4.984375 0 
L 4.984375 2.6875 
Q 4.984375 2.9375 5.171875 3.21875 
L 20.703125 20.40625 
Q 24.21875 24.21875 26.40625 26.796875 
Q 28.609375 29.390625 30.75 32.765625 
Q 32.90625 36.140625 34.15625 39.625 
Q 35.40625 43.109375 35.40625 47.015625 
Q 35.40625 51.125 33.890625 54.859375 
Q 32.375 58.59375 29.375 60.84375 
Q 26.375 63.09375 22.125 63.09375 
Q 17.78125 63.09375 14.3125 60.46875 
Q 10.84375 57.859375 9.421875 53.71875 
Q 9.8125 53.8125 10.5 53.8125 
Q 12.75 53.8125 14.328125 52.296875 
Q 15.921875 50.78125 15.921875 48.390625 
Q 15.921875 46.09375 14.328125 44.5 
Q 12.75 42.921875 10.5 42.921875 
Q 8.15625 42.921875 6.5625 44.546875 
Q 4.984375 46.1875 4.984375 48.390625 
Q 4.984375 52.15625 6.390625 55.4375 
Q 7.8125 58.734375 10.46875 61.296875 
Q 13.140625 63.875 16.484375 65.234375 
Q 19.828125 66.609375 23.578125 66.609375 
Q 29.296875 66.609375 34.21875 64.1875 
Q 39.15625 61.765625 42.03125 57.34375 
Q 44.921875 52.9375 44.921875 47.015625 
Q 44.921875 42.671875 43.015625 38.765625 
Q 41.109375 34.859375 38.125 31.65625 
Q 35.15625 28.46875 30.515625 24.40625 
Q 25.875 20.359375 24.421875 19 
L 13.09375 8.109375 
L 22.703125 8.109375 
Q 29.78125 8.109375 34.546875 8.21875 
Q 39.3125 8.34375 39.59375 8.59375 
Q 40.765625 9.859375 42 17.828125 
L 44.921875 17.828125 
L 42.09375 0 
z
" id="Cmr10-50"/>
     <path d="M 10.203125 23 
Q 9.375 23 8.828125 23.625 
Q 8.296875 24.265625 8.296875 25 
Q 8.296875 25.734375 8.828125 26.359375 
Q 9.375 27 10.203125 27 
L 67.578125 27 
Q 68.359375 27 68.875 26.359375 
Q 69.390625 25.734375 69.390625 25 
Q 69.390625 24.265625 68.875 23.625 
Q 68.359375 23 67.578125 23 
z
" id="Cmsy10-161"/>
    </defs>
    <g style="fill:#ff0000;" transform="translate(29.925978 71.323982)scale(0.12 -0.12)">
     <use transform="translate(0 0.109375)" xlink:href="#Cmmi10-121"/>
     <use transform="translate(66.582031 0.109375)" xlink:href="#Cmr10-61"/>
     <use transform="translate(161.826172 0.109375)" xlink:href="#Cmr10-50"/>
     <use transform="translate(229.384766 0.109375)" xlink:href="#Cmsy10-161"/>
     <use transform="translate(324.628906 0.109375)" xlink:href="#Cmmi10-120"/>
     <use transform="translate(388.012266 38.373438)scale(0.7)" xlink:href="#Cmr10-50"/>
    </g>
   </g>
   <g id="text_8">
    <!-- $y=x$ -->
    <g style="fill:#0000ff;" transform="translate(72.211118 180.630415)scale(0.12 -0.12)">
     <use transform="translate(0 0.8125)" xlink:href="#Cmmi10-121"/>
     <use transform="translate(66.582031 0.8125)" xlink:href="#Cmr10-61"/>
     <use transform="translate(161.826172 0.8125)" xlink:href="#Cmmi10-120"/>
    </g>
   </g>
  </g>
 </g>
 <defs>
  <clipPath id="p0b62875d9d">
   <rect height="205.84" width="212.59" x="7.2" y="30.685"/>
  </clipPath>
 </defs>
</svg>
