<?xml version="1.0" encoding="utf-8" standalone="no"?>
<!DOCTYPE svg PUBLIC "-//W3C//DTD SVG 1.1//EN"
  "http://www.w3.org/Graphics/SVG/1.1/DTD/svg11.dtd">
<!-- Created with matplotlib (https://matplotlib.org/) -->
<svg height="207.725pt" version="1.1" viewBox="0 0 244.522959 207.725" width="244.522959pt" xmlns="http://www.w3.org/2000/svg" xmlns:xlink="http://www.w3.org/1999/xlink">
 <defs>
  <style type="text/css">
*{stroke-linecap:butt;stroke-linejoin:round;}
  </style>
 </defs>
 <g id="figure_1">
  <g id="patch_1">
   <path d="M 0 207.725 
L 244.522959 207.725 
L 244.522959 0 
L 0 0 
z
" style="fill:#ffffff;"/>
  </g>
  <g id="axes_1">
   <g id="patch_2">
    <path d="M 30.267202 200.525 
L 220.042959 200.525 
L 220.042959 30.685 
L 30.267202 30.685 
z
" style="fill:#ffffff;"/>
   </g>
   <g id="patch_3">
    <path clip-path="url(#p6e1e7929eb)" d="M 200.696506 101.188533 
L 200.119907 101.021067 
L 199.543307 100.856079 
L 199.38884 100.812301 
L 198.810536 100.649982 
L 198.232233 100.490156 
L 197.525652 100.298264 
L 196.829115 100.112742 
L 196.323057 99.980222 
L 195.298472 99.717765 
L 194.65467 99.556854 
L 194.05985 99.410931 
L 193.46503 99.267646 
L 192.48542 99.03742 
L 192.201333 98.971993 
L 191.616033 98.839092 
L 191.030733 98.708744 
L 190.395415 98.570148 
L 189.400582 98.35917 
L 188.799341 98.235239 
L 187.884521 98.051843 
L 187.235942 97.925601 
L 186.141945 97.719768 
L 185.584151 97.618255 
L 184.531781 97.43305 
L 184.434224 97.4163 
L 183.705691 97.293454 
L 182.977158 97.174565 
L 182.313738 97.069745 
L 181.483502 96.94319 
L 180.943347 96.863613 
L 180.404991 96.786465 
L 179.821264 96.705258 
L 179.237537 96.626591 
L 178.276224 96.502574 
L 177.664875 96.42729 
L 176.892582 96.33617 
L 176.395169 96.279837 
L 175.819055 96.216896 
L 175.24294 96.156429 
L 174.782868 96.10992 
L 173.678927 96.004756 
L 173.097547 95.953026 
L 172.501972 95.902645 
L 171.906396 95.854909 
L 171.345546 95.812374 
L 170.345563 95.742354 
L 170.022212 95.721308 
L 169.378755 95.681746 
L 168.698643 95.643286 
L 168.018531 95.608275 
L 167.940599 95.604484 
L 166.884089 95.55755 
L 166.185378 95.531083 
L 165.213327 95.500316 
L 164.630265 95.485241 
L 164.047204 95.472702 
L 163.797906 95.468114 
L 163.165007 95.458547 
L 162.532108 95.451968 
L 161.998518 95.448741 
L 161.371409 95.447662 
L 160.749565 95.449487 
L 160.12772 95.454196 
L 159.343116 95.464251 
L 158.519847 95.479736 
L 157.74951 95.498802 
L 157.077183 95.519058 
L 156.861124 95.526283 
L 156.178956 95.551379 
L 155.496787 95.579945 
L 155.320932 95.587871 
L 154.222617 95.642593 
L 153.304589 95.695233 
L 152.92018 95.719142 
L 151.930833 95.785742 
L 151.368107 95.826879 
L 150.480044 95.896602 
L 149.910459 95.944417 
L 149.340874 95.99465 
L 148.740315 96.050235 
L 147.860148 96.136557 
L 146.768828 96.251609 
L 145.952307 96.343497 
L 145.711206 96.371581 
L 144.947565 96.46339 
L 143.856806 96.602067 
L 143.290634 96.677546 
L 142.724462 96.755416 
L 142.053724 96.85076 
L 141.243867 96.970349 
L 141.093067 96.993158 
L 140.526287 97.080399 
L 139.959506 97.170035 
L 139.217905 97.290936 
L 138.459401 97.418835 
L 137.8921 97.517297 
L 137.267404 97.628496 
L 136.642708 97.742605 
L 136.162874 97.832229 
L 135.484242 97.961916 
L 134.781416 98.099845 
L 134.078591 98.241458 
L 133.689596 98.32142 
L 132.676919 98.534877 
L 132.326498 98.610522 
L 131.448006 98.804184 
L 130.769294 98.957745 
L 130.014323 99.132596 
L 129.263809 99.310626 
L 128.336783 99.536324 
L 127.302688 99.79565 
L 126.738603 99.940469 
L 126.174518 100.087661 
L 125.489638 100.269562 
L 125.013835 100.397992 
L 124.290538 100.59646 
L 123.661518 100.772229 
L 122.814818 101.013484 
L 122.254972 101.17594 
L 121.695126 101.340732 
L 121.338186 101.447018 
L 120.42519 101.723204 
L 119.817869 101.910364 
L 119.210548 102.100274 
L 118.446755 102.343017 
L 117.6493 102.601099 
L 117.115275 102.776578 
L 116.015353 103.144709 
L 115.855446 103.198978 
L 115.260271 103.402647 
L 114.665096 103.608957 
L 114.010339 103.83897 
L 113.101844 104.163416 
L 112.088386 104.532608 
L 111.856563 104.618134 
L 111.292695 104.827836 
L 110.728827 105.039908 
L 109.878343 105.36426 
L 109.074407 105.67582 
L 108.056117 106.077367 
L 107.743128 106.202343 
L 107.217491 106.413872 
L 106.529842 106.69371 
L 105.842193 106.977073 
L 105.410324 107.156837 
L 104.761815 107.42939 
L 104.113306 107.705078 
L 103.917271 107.789032 
L 103.305439 108.052898 
L 102.693606 108.319555 
L 101.94047 108.651629 
L 101.362484 108.909343 
L 100.768904 109.176604 
L 100.174933 109.44667 
L 99.580963 109.719366 
L 99.241417 109.876435 
L 98.536876 110.205089 
L 97.832336 110.537444 
L 97.007249 110.931369 
L 96.785901 111.037912 
L 96.14631 111.347823 
L 95.245971 111.789247 
L 94.53737 112.140915 
L 93.431599 112.697171 
L 92.496649 113.174609 
L 92.047732 113.406167 
L 90.954201 113.976515 
L 89.966559 114.499297 
L 89.17299 114.924622 
L 89.016777 115.008899 
L 88.362444 115.363893 
L 87.70811 115.722078 
L 87.212655 115.995417 
L 86.225668 116.545383 
L 85.583826 116.906927 
L 84.981825 117.248819 
L 84.379824 117.593414 
L 84.315448 117.630424 
L 83.481194 118.112831 
L 82.81046 118.504446 
L 82.139727 118.899415 
L 81.274816 119.413679 
L 80.933436 119.618194 
L 80.335603 119.978439 
L 79.706852 120.36019 
L 79.0781 120.744889 
L 78.417152 121.152464 
L 77.717451 121.587486 
L 76.67789 122.240548 
L 76.423413 122.401641 
L 75.666796 122.883457 
L 74.910179 123.369541 
L 74.853286 123.406264 
L 74.288106 123.772385 
L 73.722926 124.140888 
L 72.920701 124.668036 
L 71.957555 125.307265 
L 71.242383 125.786391 
L 70.396201 126.358212 
L 69.435668 127.013777 
L 69.022923 127.29759 
L 68.237203 127.841378 
L 67.511978 128.347383 
L 66.477057 129.07626 
L 65.683972 129.640222 
L 65.310743 129.907246 
L 64.349842 130.599498 
L 63.719964 131.05701 
L 63.090087 131.517479 
L 62.584693 131.889085 
L 61.738542 132.515505 
L 61.013489 133.05652 
L 60.513542 133.431851 
L 59.478466 134.214848 
L 58.372686 135.060156 
L 58.058741 135.301811 
L 57.486865 135.743894 
L 56.914989 136.188415 
L 56.022922 136.88669 
L 55.402763 137.375623 
L 54.931693 137.748929 
L 54.011897 138.482606 
L 53.009411 139.289425 
L 52.299226 139.865528 
L 51.360475 140.632816 
L 50.672254 141.199508 
L 49.928544 141.81586 
L 48.957755 142.626609 
L 48.276356 143.199872 
L 48.016702 143.419231 
L 47.280633 144.043804 
L 46.544564 144.672416 
L 45.832523 145.284351 
L 45.136386 145.886273 
L 44.282436 146.629585 
L 43.72731 147.115704 
L 43.72731 147.115704 
L 43.920211 146.271735 
L 44.113111 145.433025 
L 44.306011 144.599562 
L 44.498912 143.771333 
L 44.715084 142.849391 
L 44.931256 141.933991 
L 45.075962 141.324863 
L 45.220669 140.718653 
L 45.365376 140.115356 
L 45.510083 139.514966 
L 45.654789 138.91748 
L 45.799496 138.32289 
L 45.944203 137.731193 
L 46.088909 137.142383 
L 46.228974 136.575207 
L 46.369038 136.010726 
L 46.509103 135.448935 
L 46.649167 134.88983 
L 46.804244 134.273926 
L 46.959321 133.661303 
L 47.114399 133.051953 
L 47.269476 132.445871 
L 47.424553 131.84305 
L 47.57963 131.243484 
L 47.734707 130.647166 
L 47.889784 130.05409 
L 48.090659 129.290673 
L 48.291534 128.532671 
L 48.49241 127.78007 
L 48.693285 127.032857 
L 48.920297 126.194887 
L 49.147309 125.363761 
L 49.324632 124.719301 
L 49.501955 124.078994 
L 49.679278 123.442832 
L 49.856601 122.810804 
L 50.002181 122.294999 
L 50.147761 121.78197 
L 50.293341 121.27171 
L 50.438922 120.764214 
L 50.584502 120.259478 
L 50.730082 119.757495 
L 50.875662 119.258261 
L 51.021242 118.76177 
L 51.209578 118.123527 
L 51.397913 117.489855 
L 51.586249 116.860742 
L 51.774584 116.236177 
L 51.973754 115.58062 
L 52.172923 114.930123 
L 52.372093 114.284672 
L 52.571263 113.644255 
L 52.79911 112.917779 
L 53.026958 112.197853 
L 53.254806 111.484455 
L 53.482654 110.777566 
L 53.62457 110.340558 
L 53.766485 109.906062 
L 53.908401 109.474074 
L 54.050317 109.044588 
L 54.208847 108.567776 
L 54.367376 108.094074 
L 54.525906 107.623475 
L 54.684435 107.155973 
L 54.864174 106.629662 
L 55.043912 106.107312 
L 55.223651 105.588913 
L 55.403389 105.074456 
L 55.616072 104.470781 
L 55.828755 103.872594 
L 56.041439 103.279879 
L 56.254122 102.692619 
L 56.40511 102.279013 
L 56.556099 101.868142 
L 56.707087 101.46 
L 56.858076 101.054582 
L 57.009064 100.651882 
L 57.160052 100.251894 
L 57.311041 99.854611 
L 57.462029 99.460028 
L 57.68519 98.881769 
L 57.90835 98.309376 
L 58.122943 97.764471 
L 58.337536 97.224957 
L 58.55213 96.690815 
L 58.766723 96.16203 
L 58.992482 95.611494 
L 59.218241 95.066848 
L 59.444 94.528072 
L 59.669759 93.995146 
L 59.869023 93.529609 
L 60.068288 93.068601 
L 60.267552 92.612108 
L 60.466816 92.160117 
L 60.613094 91.831173 
L 60.759371 91.504643 
L 60.946958 91.089421 
L 61.134546 90.678149 
L 61.322133 90.270814 
L 61.50972 89.867405 
L 61.698548 89.465281 
L 61.887377 89.067113 
L 62.076205 88.672889 
L 62.265033 88.282597 
L 62.526487 87.748664 
L 62.787941 87.222217 
L 63.049395 86.703226 
L 63.310849 86.19166 
L 63.46878 85.886234 
L 63.626711 85.583498 
L 63.784643 85.283448 
L 63.942574 84.986075 
L 64.101141 84.690193 
L 64.259707 84.396997 
L 64.418274 84.10648 
L 64.576841 83.818635 
L 64.735407 83.533456 
L 64.893974 83.250935 
L 65.052541 82.971067 
L 65.211108 82.693843 
L 65.480269 82.229302 
L 65.74943 81.772329 
L 65.92864 81.472253 
L 66.10785 81.175508 
L 66.28706 80.882083 
L 66.466269 80.59197 
L 66.731462 80.168715 
L 66.996655 79.752657 
L 67.261848 79.343763 
L 67.527041 78.942002 
L 67.712238 78.665646 
L 67.897435 78.392742 
L 68.082632 78.123279 
L 68.267829 77.857246 
L 68.503669 77.523413 
L 68.73951 77.195103 
L 69.021693 76.809505 
L 69.303876 76.431744 
L 69.58606 76.06178 
L 69.868243 75.699576 
L 70.034297 75.490044 
L 70.20035 75.283179 
L 70.403092 75.03421 
L 70.605834 74.789189 
L 70.808576 74.548102 
L 71.011319 74.310934 
L 71.236712 74.051852 
L 71.462106 73.797577 
L 71.6875 73.54809 
L 71.912893 73.30337 
L 72.087109 73.117471 
L 72.261325 72.934399 
L 72.435541 72.754146 
L 72.609757 72.576703 
L 72.783973 72.40206 
L 72.958189 72.230209 
L 73.132405 72.061141 
L 73.306621 71.894846 
L 73.475881 71.735929 
L 73.645141 71.579614 
L 73.812829 71.427307 
L 73.980516 71.277538 
L 74.148204 71.130297 
L 74.315891 70.985577 
L 74.477223 70.848714 
L 74.638555 70.714169 
L 74.961218 70.452007 
L 75.13314 70.316077 
L 75.305063 70.182747 
L 75.476985 70.052008 
L 75.648907 69.923852 
L 75.820829 69.798269 
L 75.992752 69.675251 
L 76.164674 69.55479 
L 76.336596 69.436876 
L 76.506992 69.322514 
L 76.671773 69.214286 
L 76.836554 69.108374 
L 77.166116 68.90347 
L 77.495677 68.707743 
L 77.825239 68.52113 
L 78.046719 68.400808 
L 78.268199 68.284556 
L 78.53945 68.147698 
L 78.8107 68.016884 
L 79.081951 67.892078 
L 79.353202 67.773248 
L 79.62668 67.659456 
L 79.844304 67.573196 
L 80.061928 67.49072 
L 80.279552 67.41201 
L 80.497176 67.33705 
L 80.767473 67.24914 
L 81.03777 67.166952 
L 81.308068 67.090453 
L 81.578365 67.019609 
L 81.854463 66.953047 
L 82.130562 66.892315 
L 82.40666 66.837375 
L 82.682759 66.788193 
L 82.900809 66.753396 
L 83.118859 66.722149 
L 83.336908 66.694436 
L 83.554958 66.670237 
L 83.654677 66.660338 
L 83.998114 66.631816 
L 84.341551 66.61188 
L 84.684988 66.600463 
L 85.028425 66.597493 
L 85.183326 66.5989 
L 85.517561 66.607712 
L 85.851796 66.624367 
L 86.186032 66.6488 
L 86.520267 66.680948 
L 86.820144 66.716305 
L 87.120021 66.757775 
L 87.403347 66.80253 
L 87.686674 66.852662 
L 87.97 66.908131 
L 88.253327 66.968899 
L 88.62892 67.057559 
L 89.004513 67.155371 
L 89.102352 67.182342 
L 89.362686 67.25709 
L 89.62302 67.33615 
L 89.883354 67.419492 
L 90.143688 67.507086 
L 90.431609 67.608877 
L 90.71953 67.715792 
L 91.078801 67.856323 
L 91.438071 68.004689 
L 91.797341 68.160809 
L 92.156611 68.324604 
L 92.406219 68.44288 
L 92.655828 68.564796 
L 92.942616 68.709331 
L 93.229404 68.858596 
L 93.585044 69.050205 
L 93.940685 69.248948 
L 94.310054 69.462834 
L 94.679423 69.684246 
L 94.999251 69.881975 
L 95.319079 70.085227 
L 95.638908 70.293946 
L 95.958736 70.508075 
L 96.285799 70.732586 
L 96.637397 70.980115 
L 96.988994 71.233971 
L 97.248843 71.425607 
L 97.508692 71.620629 
L 97.768541 71.819007 
L 98.02839 72.02071 
L 98.32137 72.252082 
L 98.614351 72.487601 
L 98.907331 72.727224 
L 99.200311 72.970907 
L 99.490714 73.216411 
L 99.781117 73.465821 
L 100.026509 73.679587 
L 100.271901 73.896086 
L 100.517293 74.115293 
L 100.762685 74.337183 
L 101.010239 74.563721 
L 101.261321 74.796223 
L 101.512402 75.031453 
L 101.763483 75.269385 
L 102.014565 75.509991 
L 102.253093 75.741021 
L 102.491622 75.974417 
L 102.73015 76.210155 
L 102.968679 76.448213 
L 103.286104 76.76857 
L 103.60353 77.092939 
L 104.07024 77.577029 
L 104.53695 78.069499 
L 104.950395 78.512627 
L 105.363841 78.962075 
L 105.653811 79.281001 
L 105.943781 79.602934 
L 106.360191 80.070422 
L 106.7766 80.543902 
L 107.267511 81.109624 
L 107.788125 81.718263 
L 108.308738 82.335607 
L 108.595564 82.679358 
L 108.882391 83.025637 
L 109.169217 83.374405 
L 109.456043 83.725622 
L 109.796211 84.145273 
L 110.136379 84.568243 
L 110.44407 84.953633 
L 110.791596 85.392057 
L 111.139123 85.833739 
L 111.486649 86.278608 
L 111.834175 86.726593 
L 112.25946 87.278947 
L 112.684744 87.835728 
L 113.218973 88.541209 
L 113.839805 89.369224 
L 114.341565 90.044581 
L 114.843325 90.725204 
L 115.221125 91.241023 
L 115.598926 91.759613 
L 116.149314 92.519874 
L 116.527434 93.045323 
L 116.905554 93.573229 
L 117.580708 94.52165 
L 118.056573 95.194362 
L 118.532438 95.870372 
L 119.124518 96.715801 
L 119.716597 97.565694 
L 120.093859 98.109394 
L 120.605298 98.84897 
L 121.116738 99.591215 
L 121.762742 100.532209 
L 122.594483 101.748745 
L 123.165747 102.587082 
L 123.882612 103.641742 
L 124.975263 105.253597 
L 126.030216 106.812958 
L 126.529345 107.55122 
L 127.648273 109.205972 
L 128.041801 109.787526 
L 129.280999 111.615775 
L 129.397055 111.786685 
L 130.419625 113.289454 
L 130.983978 114.115998 
L 131.548331 114.94014 
L 131.832868 115.354649 
L 132.517425 116.348842 
L 133.201982 117.338272 
L 133.659609 117.996776 
L 134.089088 118.612473 
L 134.518568 119.2258 
L 135.102168 120.055177 
L 135.622279 120.790151 
L 136.14239 121.520939 
L 136.811637 122.454726 
L 137.339064 123.185134 
L 137.866491 123.910421 
L 138.298847 124.500974 
L 138.731202 125.087779 
L 138.97479 125.416682 
L 139.600372 126.255542 
L 140.225954 127.085683 
L 140.511134 127.461107 
L 140.848341 127.902517 
L 141.185547 128.341152 
L 141.522754 128.776945 
L 141.85996 129.209831 
L 142.097138 129.512529 
L 142.657353 130.221532 
L 143.217567 130.921903 
L 143.530878 131.309724 
L 143.909496 131.774579 
L 144.288114 132.235184 
L 144.666732 132.691446 
L 145.04535 133.143273 
L 145.393369 133.554592 
L 145.741387 133.962013 
L 146.161147 134.448132 
L 146.579583 134.926844 
L 146.99802 135.399566 
L 147.46317 135.917879 
L 147.92832 136.428463 
L 148.360092 136.895342 
L 148.791864 137.355275 
L 149.18289 137.765695 
L 149.573915 138.170203 
L 149.830198 138.432066 
L 150.086481 138.691317 
L 150.342763 138.947928 
L 150.599046 139.201868 
L 150.922106 139.518128 
L 151.245167 139.830042 
L 151.445232 140.021 
L 151.789364 140.345477 
L 152.133497 140.664848 
L 152.477629 140.979042 
L 152.821762 141.28799 
L 153.183073 141.60664 
L 153.544385 141.919349 
L 153.876665 142.201619 
L 154.208945 142.478734 
L 154.585394 142.786377 
L 154.961843 143.087232 
L 155.351283 143.391227 
L 155.740722 143.68776 
L 156.001772 143.882303 
L 156.262821 144.073416 
L 156.493342 144.239305 
L 156.723864 144.402475 
L 156.954385 144.562905 
L 157.184907 144.720574 
L 157.427271 144.883343 
L 157.669635 145.043013 
L 157.911999 145.199559 
L 158.154363 145.352958 
L 158.402722 145.506859 
L 158.65108 145.657403 
L 158.899439 145.804563 
L 159.147797 145.948314 
L 159.508976 146.151227 
L 159.870155 146.346793 
L 160.099215 146.466977 
L 160.328275 146.584153 
L 160.557336 146.6983 
L 160.786396 146.809399 
L 161.098012 146.955606 
L 161.395747 147.089945 
L 161.693481 147.219006 
L 161.991216 147.342742 
L 162.288951 147.46111 
L 162.585448 147.573606 
L 162.881944 147.680687 
L 163.138985 147.769104 
L 163.396026 147.853389 
L 163.597611 147.916581 
L 163.799196 147.9772 
L 164.00078 148.035232 
L 164.202365 148.090663 
L 164.552699 148.180768 
L 164.903034 148.262902 
L 165.270803 148.340467 
L 165.638573 148.409082 
L 166.006342 148.468661 
L 166.374112 148.51912 
L 166.58385 148.543781 
L 166.775385 148.563672 
L 166.96692 148.581041 
L 167.158456 148.595876 
L 167.349991 148.608165 
L 167.639444 148.621879 
L 167.928897 148.629709 
L 168.218349 148.631614 
L 168.507802 148.627553 
L 168.721559 148.620699 
L 168.935315 148.610553 
L 169.149072 148.597096 
L 169.362828 148.580313 
L 169.575473 148.560299 
L 169.788117 148.536961 
L 170.000761 148.510281 
L 170.213406 148.480244 
L 170.391837 148.452436 
L 170.570268 148.422242 
L 170.782614 148.383188 
L 170.994961 148.340724 
L 171.207307 148.294835 
L 171.419654 148.245505 
L 171.65598 148.186537 
L 171.892307 148.123264 
L 172.128633 148.055663 
L 172.364959 147.98371 
L 172.706899 147.871856 
L 172.877868 147.812474 
L 173.048838 147.750777 
L 173.288001 147.660573 
L 173.527165 147.565798 
L 173.766328 147.466432 
L 174.005492 147.362449 
L 174.296379 147.229723 
L 174.587266 147.090092 
L 174.853763 146.956071 
L 175.12026 146.816187 
L 175.378045 146.675267 
L 175.63583 146.5288 
L 175.893615 146.376758 
L 176.151399 146.219112 
L 176.377558 146.076168 
L 176.603716 145.928868 
L 176.829874 145.777193 
L 177.056033 145.621122 
L 177.270863 145.468779 
L 177.485693 145.312436 
L 177.672359 145.173327 
L 177.859024 145.031174 
L 178.045689 144.885965 
L 178.232355 144.73769 
L 178.41902 144.586336 
L 178.605686 144.431893 
L 178.792351 144.27435 
L 178.979017 144.113695 
L 179.156562 143.957992 
L 179.322107 143.810261 
L 179.487652 143.660057 
L 179.653196 143.507374 
L 179.818741 143.352203 
L 180.065858 143.115926 
L 180.312976 142.874064 
L 180.560094 142.626589 
L 180.807212 142.373477 
L 180.972631 142.200881 
L 181.138051 142.025741 
L 181.303471 141.848047 
L 181.468891 141.667792 
L 181.63431 141.484968 
L 181.79973 141.299568 
L 181.96515 141.111584 
L 182.13057 140.921008 
L 182.347791 140.666804 
L 182.565012 140.408099 
L 182.801567 140.121228 
L 183.038123 139.828976 
L 183.274679 139.531322 
L 183.511234 139.228241 
L 183.674662 139.015673 
L 183.83809 138.800497 
L 184.031069 138.543044 
L 184.224049 138.281931 
L 184.417028 138.017148 
L 184.610008 137.74868 
L 184.892912 137.348427 
L 185.175817 136.940193 
L 185.458722 136.523938 
L 185.741627 136.099623 
L 185.961199 135.76472 
L 186.180771 135.42492 
L 186.406046 135.071187 
L 186.631321 134.712261 
L 186.856596 134.348123 
L 187.081871 133.978754 
L 187.251937 133.696431 
L 187.422003 133.411107 
L 187.592069 133.122773 
L 187.762135 132.831421 
L 187.9322 132.537044 
L 188.102266 132.239631 
L 188.272332 131.939176 
L 188.442398 131.635669 
L 188.636159 131.286145 
L 188.82992 130.932637 
L 189.023681 130.575131 
L 189.217442 130.213617 
L 189.435922 129.801158 
L 189.654402 129.383568 
L 189.852032 129.001394 
L 190.049662 128.614995 
L 190.247292 128.224356 
L 190.444922 127.829464 
L 190.682225 127.349661 
L 190.919528 126.863685 
L 191.156832 126.371513 
L 191.394135 125.873122 
L 191.640155 125.349834 
L 191.886175 124.81981 
L 192.132195 124.283027 
L 192.378215 123.739459 
L 192.576115 123.297269 
L 192.774015 122.850658 
L 192.971915 122.399613 
L 193.169815 121.944122 
L 193.241493 121.778047 
L 193.441361 121.311863 
L 193.641229 120.841113 
L 193.841097 120.36578 
L 194.040965 119.885853 
L 194.315459 119.219218 
L 194.589954 118.543854 
L 194.864448 117.859727 
L 195.138943 117.166801 
L 195.312829 116.723278 
L 195.486716 116.2762 
L 195.660603 115.82556 
L 195.83449 115.371347 
L 196.094223 114.686221 
L 196.353956 113.993075 
L 196.613689 113.29188 
L 196.873422 112.582604 
L 197.075664 112.024712 
L 197.277905 111.46189 
L 197.433348 111.025941 
L 197.588792 110.587065 
L 197.744235 110.145255 
L 197.899679 109.700504 
L 198.055122 109.252805 
L 198.210566 108.802154 
L 198.366009 108.348542 
L 198.521453 107.891964 
L 198.746116 107.226817 
L 198.970779 106.55544 
L 199.195441 105.877814 
L 199.420104 105.193921 
L 199.591232 104.668774 
L 199.729392 104.242133 
L 199.867551 103.813104 
L 200.00571 103.381682 
L 200.143869 102.947864 
L 200.282028 102.511645 
L 200.420188 102.073019 
L 200.558347 101.631983 
z
" style="fill:#cde0eb;opacity:0.5;"/>
   </g>
   <g id="matplotlib.axis_1">
    <g id="xtick_1">
     <g id="line2d_1">
      <defs>
       <path d="M 0 0 
L 0 3.5 
" id="m130de1363b" style="stroke:#000000;stroke-width:0.8;"/>
      </defs>
      <g>
       <use style="stroke:#000000;stroke-width:0.8;" x="43.72731" xlink:href="#m130de1363b" y="101.188533"/>
      </g>
     </g>
     <g id="text_1">
      <!-- -2 -->
      <defs>
       <path d="M 4.890625 31.390625 
L 31.203125 31.390625 
L 31.203125 23.390625 
L 4.890625 23.390625 
z
" id="DejaVuSans-45"/>
       <path d="M 19.1875 8.296875 
L 53.609375 8.296875 
L 53.609375 0 
L 7.328125 0 
L 7.328125 8.296875 
Q 12.9375 14.109375 22.625 23.890625 
Q 32.328125 33.6875 34.8125 36.53125 
Q 39.546875 41.84375 41.421875 45.53125 
Q 43.3125 49.21875 43.3125 52.78125 
Q 43.3125 58.59375 39.234375 62.25 
Q 35.15625 65.921875 28.609375 65.921875 
Q 23.96875 65.921875 18.8125 64.3125 
Q 13.671875 62.703125 7.8125 59.421875 
L 7.8125 69.390625 
Q 13.765625 71.78125 18.9375 73 
Q 24.125 74.21875 28.421875 74.21875 
Q 39.75 74.21875 46.484375 68.546875 
Q 53.21875 62.890625 53.21875 53.421875 
Q 53.21875 48.921875 51.53125 44.890625 
Q 49.859375 40.875 45.40625 35.40625 
Q 44.1875 33.984375 37.640625 27.21875 
Q 31.109375 20.453125 19.1875 8.296875 
z
" id="DejaVuSans-50"/>
      </defs>
      <g transform="translate(38.742154 115.78697)scale(0.1 -0.1)">
       <use xlink:href="#DejaVuSans-45"/>
       <use x="36.083984" xlink:href="#DejaVuSans-50"/>
      </g>
     </g>
    </g>
    <g id="xtick_2">
     <g id="line2d_2">
      <g>
       <use style="stroke:#000000;stroke-width:0.8;" x="200.696506" xlink:href="#m130de1363b" y="101.188533"/>
      </g>
     </g>
     <g id="text_2">
      <!-- 2 -->
      <g transform="translate(197.515256 115.78697)scale(0.1 -0.1)">
       <use xlink:href="#DejaVuSans-50"/>
      </g>
     </g>
    </g>
    <g id="text_3">
     <!-- $x$ -->
     <defs>
      <path d="M 7.8125 2.875 
Q 9.578125 1.515625 12.796875 1.515625 
Q 15.921875 1.515625 18.3125 4.515625 
Q 20.703125 7.515625 21.578125 11.078125 
L 26.125 28.8125 
Q 27.203125 33.640625 27.203125 35.40625 
Q 27.203125 37.890625 25.8125 39.75 
Q 24.421875 41.609375 21.921875 41.609375 
Q 18.75 41.609375 15.96875 39.625 
Q 13.1875 37.640625 11.28125 34.59375 
Q 9.375 31.546875 8.59375 28.421875 
Q 8.40625 27.78125 7.8125 27.78125 
L 6.59375 27.78125 
Q 5.8125 27.78125 5.8125 28.71875 
L 5.8125 29 
Q 6.78125 32.71875 9.125 36.25 
Q 11.46875 39.796875 14.859375 41.984375 
Q 18.265625 44.1875 22.125 44.1875 
Q 25.78125 44.1875 28.734375 42.234375 
Q 31.6875 40.28125 32.90625 36.921875 
Q 34.625 39.984375 37.28125 42.078125 
Q 39.9375 44.1875 43.109375 44.1875 
Q 45.265625 44.1875 47.5 43.421875 
Q 49.75 42.671875 51.171875 41.109375 
Q 52.59375 39.546875 52.59375 37.203125 
Q 52.59375 34.671875 50.953125 32.828125 
Q 49.3125 31 46.78125 31 
Q 45.171875 31 44.09375 32.03125 
Q 43.015625 33.0625 43.015625 34.625 
Q 43.015625 36.71875 44.453125 38.296875 
Q 45.90625 39.890625 47.90625 40.1875 
Q 46.09375 41.609375 42.921875 41.609375 
Q 39.703125 41.609375 37.328125 38.625 
Q 34.96875 35.640625 33.984375 31.984375 
L 29.59375 14.3125 
Q 28.515625 10.296875 28.515625 7.71875 
Q 28.515625 5.171875 29.953125 3.34375 
Q 31.390625 1.515625 33.796875 1.515625 
Q 38.484375 1.515625 42.15625 5.640625 
Q 45.84375 9.765625 47.015625 14.703125 
Q 47.21875 15.28125 47.796875 15.28125 
L 49.03125 15.28125 
Q 49.421875 15.28125 49.65625 15.015625 
Q 49.90625 14.75 49.90625 14.40625 
Q 49.90625 14.3125 49.8125 14.109375 
Q 48.390625 8.15625 43.84375 3.515625 
Q 39.3125 -1.125 33.59375 -1.125 
Q 29.9375 -1.125 26.984375 0.84375 
Q 24.03125 2.828125 22.796875 6.203125 
Q 21.234375 3.265625 18.46875 1.0625 
Q 15.71875 -1.125 12.59375 -1.125 
Q 10.453125 -1.125 8.171875 -0.359375 
Q 5.90625 0.390625 4.484375 1.953125 
Q 3.078125 3.515625 3.078125 5.90625 
Q 3.078125 8.25 4.703125 10.171875 
Q 6.34375 12.109375 8.796875 12.109375 
Q 10.453125 12.109375 11.578125 11.109375 
Q 12.703125 10.109375 12.703125 8.5 
Q 12.703125 6.390625 11.296875 4.828125 
Q 9.90625 3.265625 7.8125 2.875 
z
" id="Cmmi10-120"/>
     </defs>
     <g transform="translate(228.042959 101.188533)scale(0.16 -0.16)">
      <use transform="translate(0 0.8125)" xlink:href="#Cmmi10-120"/>
     </g>
    </g>
   </g>
   <g id="matplotlib.axis_2">
    <g id="ytick_1">
     <g id="line2d_3">
      <defs>
       <path d="M 0 0 
L -3.5 0 
" id="me1c5d5e56c" style="stroke:#000000;stroke-width:0.8;"/>
      </defs>
      <g>
       <use style="stroke:#000000;stroke-width:0.8;" x="122.211908" xlink:href="#me1c5d5e56c" y="147.115704"/>
      </g>
     </g>
     <g id="text_4">
      <!-- -8 -->
      <defs>
       <path d="M 31.78125 34.625 
Q 24.75 34.625 20.71875 30.859375 
Q 16.703125 27.09375 16.703125 20.515625 
Q 16.703125 13.921875 20.71875 10.15625 
Q 24.75 6.390625 31.78125 6.390625 
Q 38.8125 6.390625 42.859375 10.171875 
Q 46.921875 13.96875 46.921875 20.515625 
Q 46.921875 27.09375 42.890625 30.859375 
Q 38.875 34.625 31.78125 34.625 
z
M 21.921875 38.8125 
Q 15.578125 40.375 12.03125 44.71875 
Q 8.5 49.078125 8.5 55.328125 
Q 8.5 64.0625 14.71875 69.140625 
Q 20.953125 74.21875 31.78125 74.21875 
Q 42.671875 74.21875 48.875 69.140625 
Q 55.078125 64.0625 55.078125 55.328125 
Q 55.078125 49.078125 51.53125 44.71875 
Q 48 40.375 41.703125 38.8125 
Q 48.828125 37.15625 52.796875 32.3125 
Q 56.78125 27.484375 56.78125 20.515625 
Q 56.78125 9.90625 50.3125 4.234375 
Q 43.84375 -1.421875 31.78125 -1.421875 
Q 19.734375 -1.421875 13.25 4.234375 
Q 6.78125 9.90625 6.78125 20.515625 
Q 6.78125 27.484375 10.78125 32.3125 
Q 14.796875 37.15625 21.921875 38.8125 
z
M 18.3125 54.390625 
Q 18.3125 48.734375 21.84375 45.5625 
Q 25.390625 42.390625 31.78125 42.390625 
Q 38.140625 42.390625 41.71875 45.5625 
Q 45.3125 48.734375 45.3125 54.390625 
Q 45.3125 60.0625 41.71875 63.234375 
Q 38.140625 66.40625 31.78125 66.40625 
Q 25.390625 66.40625 21.84375 63.234375 
Q 18.3125 60.0625 18.3125 54.390625 
z
" id="DejaVuSans-56"/>
      </defs>
      <g transform="translate(105.241596 150.914923)scale(0.1 -0.1)">
       <use xlink:href="#DejaVuSans-45"/>
       <use x="36.083984" xlink:href="#DejaVuSans-56"/>
      </g>
     </g>
    </g>
    <g id="ytick_2">
     <g id="line2d_4">
      <g>
       <use style="stroke:#000000;stroke-width:0.8;" x="122.211908" xlink:href="#me1c5d5e56c" y="101.188533"/>
      </g>
     </g>
    </g>
    <g id="text_5">
     <!-- $y$ -->
     <defs>
      <path d="M 8.40625 -14.3125 
Q 10.5 -17.921875 15.71875 -17.921875 
Q 20.453125 -17.921875 23.921875 -14.59375 
Q 27.390625 -11.28125 29.515625 -6.5625 
Q 31.640625 -1.859375 32.8125 3.078125 
Q 28.375 -1.125 23.1875 -1.125 
Q 19.234375 -1.125 16.453125 0.234375 
Q 13.671875 1.609375 12.125 4.3125 
Q 10.59375 7.03125 10.59375 10.890625 
Q 10.59375 14.15625 11.46875 17.59375 
Q 12.359375 21.046875 13.9375 25.265625 
Q 15.53125 29.5 16.703125 32.625 
Q 18.015625 36.28125 18.015625 38.625 
Q 18.015625 41.609375 15.828125 41.609375 
Q 11.859375 41.609375 9.296875 37.53125 
Q 6.734375 33.453125 5.515625 28.421875 
Q 5.328125 27.78125 4.6875 27.78125 
L 3.515625 27.78125 
Q 2.6875 27.78125 2.6875 28.71875 
L 2.6875 29 
Q 4.296875 34.96875 7.609375 39.578125 
Q 10.9375 44.1875 16.015625 44.1875 
Q 19.578125 44.1875 22.046875 41.84375 
Q 24.515625 39.5 24.515625 35.890625 
Q 24.515625 34.03125 23.6875 31.984375 
Q 23.25 30.765625 21.6875 26.65625 
Q 20.125 22.5625 19.28125 19.875 
Q 18.453125 17.1875 17.921875 14.59375 
Q 17.390625 12.015625 17.390625 9.421875 
Q 17.390625 6.109375 18.796875 3.8125 
Q 20.21875 1.515625 23.296875 1.515625 
Q 29.5 1.515625 34.421875 9.078125 
L 42 39.890625 
Q 42.328125 41.21875 43.546875 42.15625 
Q 44.78125 43.109375 46.1875 43.109375 
Q 47.40625 43.109375 48.3125 42.328125 
Q 49.21875 41.546875 49.21875 40.28125 
Q 49.21875 39.703125 49.125 39.5 
L 39.203125 -0.296875 
Q 37.890625 -5.421875 34.375 -10.109375 
Q 30.859375 -14.796875 25.90625 -17.65625 
Q 20.953125 -20.515625 15.578125 -20.515625 
Q 12.984375 -20.515625 10.4375 -19.5 
Q 7.90625 -18.5 6.34375 -16.5 
Q 4.78125 -14.5 4.78125 -11.8125 
Q 4.78125 -9.078125 6.390625 -7.078125 
Q 8.015625 -5.078125 10.6875 -5.078125 
Q 12.3125 -5.078125 13.40625 -6.078125 
Q 14.5 -7.078125 14.5 -8.6875 
Q 14.5 -10.984375 12.78125 -12.6875 
Q 11.078125 -14.40625 8.796875 -14.40625 
Q 8.6875 -14.359375 8.59375 -14.328125 
Q 8.5 -14.3125 8.40625 -14.3125 
z
" id="Cmmi10-121"/>
     </defs>
     <g transform="translate(118.211908 19.325)scale(0.16 -0.16)">
      <use transform="translate(0 0.8125)" xlink:href="#Cmmi10-121"/>
     </g>
    </g>
   </g>
   <g id="line2d_5">
    <path clip-path="url(#p6e1e7929eb)" d="M 43.72731 147.115704 
L 46.369038 136.010726 
L 48.920297 126.194887 
L 51.397913 117.489855 
L 53.908401 109.474074 
L 56.254122 102.692619 
L 58.55213 96.690815 
L 60.759371 91.504643 
L 63.049395 86.703226 
L 65.211108 82.693843 
L 67.261848 79.343763 
L 69.303876 76.431744 
L 71.236712 74.051852 
L 73.132405 72.061141 
L 74.961218 70.452007 
L 76.836554 69.108374 
L 78.53945 68.147698 
L 80.279552 67.41201 
L 81.854463 66.953047 
L 83.654677 66.660338 
L 85.517561 66.607712 
L 87.403347 66.80253 
L 89.362686 67.25709 
L 91.078801 67.856323 
L 93.229404 68.858596 
L 95.319079 70.085227 
L 97.508692 71.620629 
L 100.026509 73.679587 
L 102.73015 76.210155 
L 105.653811 79.281001 
L 108.882391 83.025637 
L 112.25946 87.278947 
L 116.527434 93.045323 
L 121.762742 100.532209 
L 137.866491 123.910421 
L 142.097138 129.512529 
L 145.741387 133.962013 
L 148.791864 137.355275 
L 151.789364 140.345477 
L 154.208945 142.478734 
L 156.723864 144.402475 
L 158.899439 145.804563 
L 161.098012 146.955606 
L 163.138985 147.769104 
L 164.903034 148.262902 
L 166.775385 148.563672 
L 168.507802 148.627553 
L 170.213406 148.480244 
L 171.892307 148.123264 
L 173.527165 147.565798 
L 175.12026 146.816187 
L 176.829874 145.777193 
L 178.605686 144.431893 
L 180.312976 142.874064 
L 182.13057 140.921008 
L 184.031069 138.543044 
L 185.961199 135.76472 
L 187.9322 132.537044 
L 190.049662 128.614995 
L 192.132195 124.283027 
L 194.315459 119.219218 
L 196.613689 113.29188 
L 198.970779 106.55544 
L 200.696506 101.188533 
L 200.696506 101.188533 
" style="fill:none;stroke:#0000cc;stroke-linecap:square;stroke-width:1.5;"/>
   </g>
   <g id="line2d_6">
    <path clip-path="url(#p6e1e7929eb)" d="M 43.72731 147.115704 
L 49.713001 141.995262 
L 56.042875 136.871007 
L 61.787136 132.479385 
L 67.400048 128.425828 
L 73.839718 124.064543 
L 79.861679 120.265912 
L 85.975307 116.686044 
L 91.705286 113.583816 
L 97.234373 110.822426 
L 103.238331 108.082009 
L 109.129383 105.65436 
L 114.733547 103.585094 
L 120.036071 101.842804 
L 125.079555 100.380152 
L 130.737576 98.965006 
L 136.607682 97.749089 
L 142.393997 96.801971 
L 147.743365 96.148444 
L 153.026767 95.712402 
L 158.757765 95.474741 
L 163.694033 95.466339 
L 169.018722 95.660957 
L 174.389726 96.071426 
L 179.378932 96.645413 
L 184.938804 97.503702 
L 190.568006 98.607502 
L 196.39264 99.998331 
L 200.696506 101.188533 
L 200.696506 101.188533 
" style="fill:none;stroke:#3ccc00;stroke-linecap:square;stroke-width:1.5;"/>
   </g>
   <g id="line2d_7">
    <path clip-path="url(#p6e1e7929eb)" d="M 33.916736 156.085855 
L 39.95173 150.482905 
L 46.292252 144.888823 
L 52.616517 139.607676 
L 58.68299 134.822025 
L 65.008272 130.12441 
L 70.845815 126.053714 
L 77.16575 121.933067 
L 82.867646 118.470927 
L 88.859863 115.093738 
L 94.891383 111.964756 
L 100.714185 109.201373 
L 106.27451 106.798514 
L 111.718996 104.669076 
L 117.283957 102.72092 
L 122.417418 101.128561 
L 127.868981 99.65265 
L 133.596274 98.340771 
L 138.763931 97.36697 
L 143.864289 96.601085 
L 149.672718 95.96509 
L 155.408149 95.583911 
L 161.012233 95.448364 
L 166.404007 95.538973 
L 171.441742 95.819503 
L 176.968312 96.344909 
L 182.140849 97.042967 
L 187.423419 97.96177 
L 192.976056 99.151834 
L 198.580342 100.586065 
L 204.192257 102.256901 
L 209.641276 104.103927 
L 215.786227 106.452446 
L 216.393426 106.699793 
L 216.393426 106.699793 
" style="fill:none;stroke:#0000ff;stroke-linecap:square;stroke-width:1.5;"/>
   </g>
   <g id="line2d_8">
    <path clip-path="url(#p6e1e7929eb)" d="M 33.916736 197.258846 
L 36.765604 181.198306 
L 39.65509 166.181732 
L 42.474002 152.728056 
L 45.181887 140.880834 
L 47.821058 130.316524 
L 50.496415 120.564551 
L 53.004377 112.268909 
L 55.344925 105.241364 
L 57.724374 98.78084 
L 59.9826 93.266289 
L 62.194954 88.426985 
L 64.315069 84.295262 
L 66.396795 80.704046 
L 68.484265 77.55067 
L 70.38896 75.051436 
L 72.279342 72.915628 
L 74.040861 71.224261 
L 75.941025 69.711994 
L 77.640702 68.624503 
L 79.542108 67.694003 
L 81.30541 67.091177 
L 83.158981 66.716785 
L 84.992142 66.59741 
L 86.848589 66.719977 
L 88.585463 67.046831 
L 90.614988 67.676382 
L 92.621873 68.547999 
L 94.854707 69.791926 
L 97.071839 71.294699 
L 99.39999 73.139292 
L 102.013362 75.508833 
L 104.932765 78.493602 
L 107.993852 81.961188 
L 111.173135 85.877138 
L 115.192388 91.201689 
L 119.945876 97.895933 
L 128.135185 109.925476 
L 135.661172 120.844946 
L 140.528792 127.48429 
L 144.301755 132.251698 
L 147.528342 135.989887 
L 150.663079 139.264896 
L 153.240758 141.656965 
L 155.737692 143.685482 
L 158.157924 145.355188 
L 160.203693 146.520797 
L 162.285036 147.459589 
L 164.178694 148.084289 
L 166.051935 148.475414 
L 167.953166 148.630097 
L 169.749473 148.54145 
L 171.504434 148.224844 
L 173.28744 147.66079 
L 174.962954 146.899468 
L 176.718562 145.852394 
L 178.445423 144.564679 
L 180.26513 142.921329 
L 182.172463 140.872332 
L 183.9418 138.662591 
L 186.0029 135.700562 
L 187.942764 132.518658 
L 190.027698 128.658147 
L 192.165529 124.209777 
L 194.236535 119.411785 
L 196.588312 113.360746 
L 198.895421 106.781333 
L 201.290151 99.255516 
L 203.81446 90.528775 
L 206.335039 80.975162 
L 208.777889 70.889561 
L 211.448129 58.904654 
L 213.987116 46.549555 
L 216.393426 33.951154 
L 216.393426 33.951154 
" style="fill:none;stroke:#ff0000;stroke-linecap:square;stroke-width:1.5;"/>
   </g>
   <g id="patch_4">
    <path d="M 122.211908 200.525 
L 122.211908 30.685 
" style="fill:none;stroke:#000000;stroke-linecap:square;stroke-linejoin:miter;stroke-width:0.8;"/>
   </g>
   <g id="patch_5">
    <path d="M 30.267202 101.188533 
L 220.042959 101.188533 
" style="fill:none;stroke:#000000;stroke-linecap:square;stroke-linejoin:miter;stroke-width:0.8;"/>
   </g>
   <g id="text_6">
    <!-- $y= 3x^3-x^2-10x$ -->
    <defs>
     <path d="M 7.515625 13.28125 
Q 6.6875 13.28125 6.140625 13.90625 
Q 5.609375 14.546875 5.609375 15.28125 
Q 5.609375 16.109375 6.140625 16.6875 
Q 6.6875 17.28125 7.515625 17.28125 
L 70.3125 17.28125 
Q 71.046875 17.28125 71.578125 16.6875 
Q 72.125 16.109375 72.125 15.28125 
Q 72.125 14.546875 71.578125 13.90625 
Q 71.046875 13.28125 70.3125 13.28125 
z
M 7.515625 32.71875 
Q 6.6875 32.71875 6.140625 33.296875 
Q 5.609375 33.890625 5.609375 34.71875 
Q 5.609375 35.453125 6.140625 36.078125 
Q 6.6875 36.71875 7.515625 36.71875 
L 70.3125 36.71875 
Q 71.046875 36.71875 71.578125 36.078125 
Q 72.125 35.453125 72.125 34.71875 
Q 72.125 33.890625 71.578125 33.296875 
Q 71.046875 32.71875 70.3125 32.71875 
z
" id="Cmr10-61"/>
     <path d="M 9.515625 7.71875 
Q 11.859375 4.296875 15.8125 2.640625 
Q 19.78125 0.984375 24.3125 0.984375 
Q 30.125 0.984375 32.5625 5.9375 
Q 35.015625 10.890625 35.015625 17.1875 
Q 35.015625 20.015625 34.5 22.84375 
Q 33.984375 25.6875 32.765625 28.125 
Q 31.546875 30.5625 29.421875 32.03125 
Q 27.296875 33.5 24.21875 33.5 
L 17.578125 33.5 
Q 16.703125 33.5 16.703125 34.421875 
L 16.703125 35.296875 
Q 16.703125 36.078125 17.578125 36.078125 
L 23.09375 36.53125 
Q 26.609375 36.53125 28.921875 39.15625 
Q 31.25 41.796875 32.328125 45.578125 
Q 33.40625 49.359375 33.40625 52.78125 
Q 33.40625 57.5625 31.15625 60.640625 
Q 28.90625 63.71875 24.3125 63.71875 
Q 20.515625 63.71875 17.046875 62.28125 
Q 13.578125 60.84375 11.53125 57.90625 
Q 11.71875 57.953125 11.859375 57.984375 
Q 12.015625 58.015625 12.203125 58.015625 
Q 14.453125 58.015625 15.96875 56.453125 
Q 17.484375 54.890625 17.484375 52.6875 
Q 17.484375 50.53125 15.96875 48.96875 
Q 14.453125 47.40625 12.203125 47.40625 
Q 10.015625 47.40625 8.453125 48.96875 
Q 6.890625 50.53125 6.890625 52.6875 
Q 6.890625 56.984375 9.46875 60.15625 
Q 12.0625 63.328125 16.140625 64.96875 
Q 20.21875 66.609375 24.3125 66.609375 
Q 27.34375 66.609375 30.703125 65.703125 
Q 34.078125 64.796875 36.8125 63.109375 
Q 39.546875 61.421875 41.28125 58.78125 
Q 43.015625 56.15625 43.015625 52.78125 
Q 43.015625 48.578125 41.140625 45.015625 
Q 39.265625 41.453125 35.984375 38.859375 
Q 32.71875 36.28125 28.8125 35.015625 
Q 33.15625 34.1875 37.0625 31.734375 
Q 40.96875 29.296875 43.328125 25.484375 
Q 45.703125 21.6875 45.703125 17.28125 
Q 45.703125 11.765625 42.671875 7.296875 
Q 39.65625 2.828125 34.71875 0.3125 
Q 29.78125 -2.203125 24.3125 -2.203125 
Q 19.625 -2.203125 14.90625 -0.40625 
Q 10.203125 1.375 7.203125 4.9375 
Q 4.203125 8.5 4.203125 13.484375 
Q 4.203125 15.96875 5.859375 17.625 
Q 7.515625 19.28125 10.015625 19.28125 
Q 11.625 19.28125 12.96875 18.53125 
Q 14.3125 17.78125 15.0625 16.40625 
Q 15.828125 15.046875 15.828125 13.484375 
Q 15.828125 11.03125 14.109375 9.375 
Q 12.40625 7.71875 10.015625 7.71875 
z
" id="Cmr10-51"/>
     <path d="M 10.203125 23 
Q 9.375 23 8.828125 23.625 
Q 8.296875 24.265625 8.296875 25 
Q 8.296875 25.734375 8.828125 26.359375 
Q 9.375 27 10.203125 27 
L 67.578125 27 
Q 68.359375 27 68.875 26.359375 
Q 69.390625 25.734375 69.390625 25 
Q 69.390625 24.265625 68.875 23.625 
Q 68.359375 23 67.578125 23 
z
" id="Cmsy10-161"/>
     <path d="M 4.984375 0 
L 4.984375 2.6875 
Q 4.984375 2.9375 5.171875 3.21875 
L 20.703125 20.40625 
Q 24.21875 24.21875 26.40625 26.796875 
Q 28.609375 29.390625 30.75 32.765625 
Q 32.90625 36.140625 34.15625 39.625 
Q 35.40625 43.109375 35.40625 47.015625 
Q 35.40625 51.125 33.890625 54.859375 
Q 32.375 58.59375 29.375 60.84375 
Q 26.375 63.09375 22.125 63.09375 
Q 17.78125 63.09375 14.3125 60.46875 
Q 10.84375 57.859375 9.421875 53.71875 
Q 9.8125 53.8125 10.5 53.8125 
Q 12.75 53.8125 14.328125 52.296875 
Q 15.921875 50.78125 15.921875 48.390625 
Q 15.921875 46.09375 14.328125 44.5 
Q 12.75 42.921875 10.5 42.921875 
Q 8.15625 42.921875 6.5625 44.546875 
Q 4.984375 46.1875 4.984375 48.390625 
Q 4.984375 52.15625 6.390625 55.4375 
Q 7.8125 58.734375 10.46875 61.296875 
Q 13.140625 63.875 16.484375 65.234375 
Q 19.828125 66.609375 23.578125 66.609375 
Q 29.296875 66.609375 34.21875 64.1875 
Q 39.15625 61.765625 42.03125 57.34375 
Q 44.921875 52.9375 44.921875 47.015625 
Q 44.921875 42.671875 43.015625 38.765625 
Q 41.109375 34.859375 38.125 31.65625 
Q 35.15625 28.46875 30.515625 24.40625 
Q 25.875 20.359375 24.421875 19 
L 13.09375 8.109375 
L 22.703125 8.109375 
Q 29.78125 8.109375 34.546875 8.21875 
Q 39.3125 8.34375 39.59375 8.59375 
Q 40.765625 9.859375 42 17.828125 
L 44.921875 17.828125 
L 42.09375 0 
z
" id="Cmr10-50"/>
     <path d="M 9.28125 0 
L 9.28125 3.515625 
Q 21.78125 3.515625 21.78125 6.6875 
L 21.78125 59.1875 
Q 16.609375 56.6875 8.6875 56.6875 
L 8.6875 60.203125 
Q 20.953125 60.203125 27.203125 66.609375 
L 28.609375 66.609375 
Q 28.953125 66.609375 29.265625 66.328125 
Q 29.59375 66.0625 29.59375 65.71875 
L 29.59375 6.6875 
Q 29.59375 3.515625 42.09375 3.515625 
L 42.09375 0 
z
" id="Cmr10-49"/>
     <path d="M 25 -2.203125 
Q 12.75 -2.203125 8.328125 7.875 
Q 3.90625 17.96875 3.90625 31.890625 
Q 3.90625 40.578125 5.484375 48.234375 
Q 7.078125 55.90625 11.78125 61.25 
Q 16.5 66.609375 25 66.609375 
Q 31.59375 66.609375 35.78125 63.375 
Q 39.984375 60.15625 42.1875 55.046875 
Q 44.390625 49.953125 45.1875 44.109375 
Q 46 38.28125 46 31.890625 
Q 46 23.296875 44.40625 15.796875 
Q 42.828125 8.296875 38.1875 3.046875 
Q 33.546875 -2.203125 25 -2.203125 
z
M 25 0.390625 
Q 30.5625 0.390625 33.296875 6.09375 
Q 36.03125 11.8125 36.671875 18.75 
Q 37.3125 25.6875 37.3125 33.5 
Q 37.3125 41.015625 36.671875 47.359375 
Q 36.03125 53.71875 33.3125 58.859375 
Q 30.609375 64.015625 25 64.015625 
Q 19.34375 64.015625 16.609375 58.828125 
Q 13.875 53.65625 13.234375 47.328125 
Q 12.59375 41.015625 12.59375 33.5 
Q 12.59375 27.9375 12.859375 23 
Q 13.140625 18.0625 14.3125 12.8125 
Q 15.484375 7.5625 18.09375 3.96875 
Q 20.703125 0.390625 25 0.390625 
z
" id="Cmr10-48"/>
    </defs>
    <g style="fill:#ff0000;" transform="translate(7.2 62.74109)scale(0.12 -0.12)">
     <use transform="translate(0 0.109375)" xlink:href="#Cmmi10-121"/>
     <use transform="translate(66.582031 0.109375)" xlink:href="#Cmr10-61"/>
     <use transform="translate(161.826172 0.109375)" xlink:href="#Cmr10-51"/>
     <use transform="translate(211.826172 0.109375)" xlink:href="#Cmmi10-120"/>
     <use transform="translate(275.209531 38.373438)scale(0.7)" xlink:href="#Cmr10-51"/>
     <use transform="translate(334.145469 0.109375)" xlink:href="#Cmsy10-161"/>
     <use transform="translate(429.389609 0.109375)" xlink:href="#Cmmi10-120"/>
     <use transform="translate(492.772969 38.373438)scale(0.7)" xlink:href="#Cmr10-50"/>
     <use transform="translate(551.708906 0.109375)" xlink:href="#Cmsy10-161"/>
     <use transform="translate(646.953047 0.109375)" xlink:href="#Cmr10-49"/>
     <use transform="translate(696.953047 0.109375)" xlink:href="#Cmr10-48"/>
     <use transform="translate(746.953047 0.109375)" xlink:href="#Cmmi10-120"/>
    </g>
   </g>
   <g id="text_7">
    <!-- $y= -x^2+2x$ -->
    <defs>
     <path d="M 7.515625 23 
Q 6.6875 23 6.140625 23.625 
Q 5.609375 24.265625 5.609375 25 
Q 5.609375 25.734375 6.140625 26.359375 
Q 6.6875 27 7.515625 27 
L 36.921875 27 
L 36.921875 56.5 
Q 36.921875 57.28125 37.5 57.78125 
Q 38.09375 58.296875 38.921875 58.296875 
Q 39.65625 58.296875 40.28125 57.78125 
Q 40.921875 57.28125 40.921875 56.5 
L 40.921875 27 
L 70.3125 27 
Q 71.046875 27 71.578125 26.359375 
Q 72.125 25.734375 72.125 25 
Q 72.125 24.265625 71.578125 23.625 
Q 71.046875 23 70.3125 23 
L 40.921875 23 
L 40.921875 -6.5 
Q 40.921875 -7.28125 40.28125 -7.78125 
Q 39.65625 -8.296875 38.921875 -8.296875 
Q 38.09375 -8.296875 37.5 -7.78125 
Q 36.921875 -7.28125 36.921875 -6.5 
L 36.921875 23 
z
" id="Cmr10-43"/>
    </defs>
    <g style="fill:#0000ff;" transform="translate(125.454207 87.805843)scale(0.12 -0.12)">
     <use transform="translate(0 0.109375)" xlink:href="#Cmmi10-121"/>
     <use transform="translate(66.582031 0.109375)" xlink:href="#Cmr10-61"/>
     <use transform="translate(179.384766 0.109375)" xlink:href="#Cmsy10-161"/>
     <use transform="translate(274.628906 0.109375)" xlink:href="#Cmmi10-120"/>
     <use transform="translate(338.012266 38.373438)scale(0.7)" xlink:href="#Cmr10-50"/>
     <use transform="translate(396.948203 0.109375)" xlink:href="#Cmr10-43"/>
     <use transform="translate(492.192344 0.109375)" xlink:href="#Cmr10-50"/>
     <use transform="translate(542.192344 0.109375)" xlink:href="#Cmmi10-120"/>
    </g>
   </g>
  </g>
 </g>
 <defs>
  <clipPath id="p6e1e7929eb">
   <rect height="169.84" width="189.775758" x="30.267202" y="30.685"/>
  </clipPath>
 </defs>
</svg>
