<?xml version="1.0" encoding="utf-8" standalone="no"?>
<!DOCTYPE svg PUBLIC "-//W3C//DTD SVG 1.1//EN"
  "http://www.w3.org/Graphics/SVG/1.1/DTD/svg11.dtd">
<!-- Created with matplotlib (https://matplotlib.org/) -->
<svg height="205.288482pt" version="1.1" viewBox="0 0 243.975144 205.288482" width="243.975144pt" xmlns="http://www.w3.org/2000/svg" xmlns:xlink="http://www.w3.org/1999/xlink">
 <defs>
  <style type="text/css">
*{stroke-linecap:butt;stroke-linejoin:round;}
  </style>
 </defs>
 <g id="figure_1">
  <g id="patch_1">
   <path d="M 0 205.288482 
L 243.975144 205.288482 
L 243.975144 0 
L 0 0 
z
" style="fill:#ffffff;"/>
  </g>
  <g id="axes_1">
   <g id="patch_2">
    <path d="M 7.2 179.279997 
L 214.855144 179.279997 
L 214.855144 38.4275 
L 7.2 38.4275 
z
" style="fill:#ffffff;"/>
   </g>
   <g id="patch_3">
    <path clip-path="url(#p147204008f)" d="M 210.861776 110.015159 
L 209.445747 111.889808 
L 208.980485 112.499913 
L 207.569998 114.331838 
L 207.208562 114.79699 
L 205.631673 116.805967 
L 204.594784 118.108878 
L 203.825463 119.066297 
L 202.835254 120.286975 
L 201.440555 121.984074 
L 200.87792 122.661347 
L 199.586874 124.199465 
L 198.841124 125.077788 
L 198.05845 125.991611 
L 196.956005 127.26491 
L 195.888709 128.482149 
L 194.366341 130.192064 
L 193.911012 130.697474 
L 192.519906 132.224433 
L 191.628541 133.189262 
L 190.777754 134.10027 
L 189.817181 135.117216 
L 188.758667 136.223579 
L 187.739234 137.274949 
L 186.81947 138.211617 
L 185.617847 139.418303 
L 184.374285 140.646798 
L 184.052798 140.961031 
L 182.725628 142.24364 
L 181.538622 143.370863 
L 181.238786 143.65262 
L 179.776294 145.009722 
L 179.147256 145.584644 
L 177.806315 146.792587 
L 176.733954 147.741305 
L 175.922488 148.449002 
L 174.266876 149.865621 
L 174.011421 150.08094 
L 172.80971 151.082151 
L 172.207707 151.576462 
L 171.144617 152.437555 
L 169.528759 153.717478 
L 168.727832 154.338968 
L 167.299146 155.426304 
L 166.383824 156.108604 
L 165.641676 156.653603 
L 164.913555 157.181152 
L 163.51212 158.176612 
L 162.834851 158.648285 
L 162.169137 159.10594 
L 160.418153 160.281424 
L 159.226009 161.058313 
L 158.377648 161.599608 
L 158.102349 161.773196 
L 156.519692 162.751495 
L 155.441046 163.399078 
L 154.930135 163.700389 
L 153.848957 164.32652 
L 153.055078 164.776331 
L 151.341811 165.718382 
L 150.308238 166.26774 
L 149.669717 166.599994 
L 148.621173 167.133789 
L 147.427111 167.723783 
L 146.775767 168.03759 
L 145.589228 168.594683 
L 144.567215 169.059456 
L 143.529415 169.517134 
L 142.67428 169.883446 
L 141.15967 170.508287 
L 140.885875 170.617969 
L 139.216653 171.265002 
L 138.867679 171.39557 
L 137.622272 171.848277 
L 136.16119 172.352976 
L 135.614908 172.534354 
L 134.137957 173.004783 
L 133.337152 173.247669 
L 132.914523 173.3724 
L 131.634392 173.735653 
L 130.760623 173.971029 
L 129.822932 174.21228 
L 128.520152 174.527971 
L 127.441435 174.772213 
L 126.292547 175.015252 
L 125.597035 175.153816 
L 124.20379 175.411955 
L 123.415053 175.546598 
L 122.078276 175.755822 
L 121.42941 175.848775 
L 120.198658 176.009638 
L 119.470977 176.095232 
L 118.254975 176.222481 
L 117.850484 176.260432 
L 116.906923 176.340467 
L 115.517836 176.436655 
L 114.899787 176.471169 
L 113.740289 176.522155 
L 112.224661 176.561726 
L 112.02469 176.564656 
L 110.792785 176.570927 
L 109.215834 176.549376 
L 108.1248 176.515028 
L 107.915036 176.506602 
L 106.997136 176.462819 
L 105.671078 176.379697 
L 104.125177 176.253147 
L 103.743514 176.216991 
L 102.679504 176.105922 
L 101.374148 175.949006 
L 100.681311 175.856476 
L 99.751696 175.722251 
L 98.279818 175.486128 
L 97.250376 175.303786 
L 96.670031 175.194753 
L 95.486035 174.958358 
L 94.233711 174.687947 
L 93.747401 174.577294 
L 92.797992 174.352165 
L 91.482288 174.020278 
L 90.660617 173.801283 
L 89.598452 173.504829 
L 87.96233 173.018702 
L 87.66367 172.926105 
L 86.834294 172.662716 
L 85.668066 172.276811 
L 84.242251 171.780329 
L 83.396396 171.472963 
L 82.086827 170.978244 
L 81.497476 170.74813 
L 80.228187 170.236778 
L 79.415373 169.898023 
L 78.478024 169.496411 
L 77.69092 169.150108 
L 76.6692 168.68824 
L 75.636045 168.207026 
L 74.862799 167.837543 
L 73.373194 167.103249 
L 72.261116 166.535736 
L 71.452208 166.112558 
L 69.936719 165.296213 
L 69.756088 165.196867 
L 68.005082 164.211238 
L 67.748237 164.063218 
L 66.540807 163.355569 
L 65.242643 162.573021 
L 64.203973 161.930692 
L 63.08255 161.221011 
L 62.703124 160.977092 
L 61.510979 160.198196 
L 60.143527 159.281389 
L 59.535863 158.865966 
L 58.655804 158.255581 
L 57.023928 157.096382 
L 56.013881 156.361079 
L 55.095501 155.680682 
L 54.208369 155.012739 
L 52.881076 153.993763 
L 52.293142 153.53488 
L 51.676438 153.048581 
L 50.120674 151.799222 
L 49.433625 151.237197 
L 48.271339 150.27206 
L 47.490639 149.613654 
L 45.928124 148.271454 
L 45.326806 147.746233 
L 44.383498 146.912571 
L 43.581789 146.194707 
L 42.329895 145.056572 
L 41.647876 144.427721 
L 39.95485 142.839824 
L 39.034828 141.960877 
L 38.222898 141.175806 
L 37.192947 140.16726 
L 36.772476 139.751454 
L 35.117433 138.091836 
L 34.36034 137.320455 
L 33.142138 136.063195 
L 32.272811 135.153877 
L 31.072684 133.881956 
L 30.288325 133.040282 
L 29.355621 132.028728 
L 28.490954 131.080584 
L 27.714801 130.220996 
L 26.223531 128.546836 
L 25.251677 127.439809 
L 24.648807 126.746747 
L 23.164198 125.01934 
L 22.171136 123.847439 
L 21.369934 122.892351 
L 20.127144 121.393894 
L 18.848855 119.831116 
L 17.857213 118.603748 
L 17.207407 117.792353 
L 15.810976 116.029584 
L 15.360094 115.454857 
L 14.463259 114.303614 
L 12.76301 112.091562 
L 11.938359 111.004774 
L 11.193368 110.015159 
L 11.193368 76.737091 
L 12.302781 75.28244 
L 13.342065 73.96399 
L 13.772842 73.429939 
L 14.429716 72.62952 
L 15.08659 71.845828 
L 15.855225 70.949885 
L 16.623861 70.076507 
L 16.934997 69.729347 
L 17.824495 68.756983 
L 18.713993 67.814214 
L 18.992804 67.524753 
L 19.805698 66.697164 
L 20.618593 65.893767 
L 21.039315 65.48739 
L 21.744756 64.820333 
L 22.437045 64.183049 
L 23.129334 63.562805 
L 23.927269 62.868874 
L 24.594731 62.305514 
L 25.262192 61.757608 
L 26.364276 60.886435 
L 27.528724 60.010791 
L 28.517412 59.30301 
L 29.340427 58.738533 
L 30.178899 58.18629 
L 31.429687 57.404806 
L 32.33477 56.870528 
L 32.823621 56.592734 
L 34.04961 55.928944 
L 34.873489 55.509002 
L 35.697369 55.109805 
L 35.850604 55.037828 
L 36.877902 54.57351 
L 37.810325 54.179274 
L 38.742748 53.810586 
L 38.970775 53.724272 
L 40.054031 53.334693 
L 41.373506 52.905263 
L 42.468981 52.58575 
L 43.060573 52.426968 
L 43.859683 52.227629 
L 44.658793 52.045504 
L 45.14223 51.943594 
L 46.08873 51.761922 
L 46.825814 51.636633 
L 47.55989 51.525768 
L 48.293966 51.42863 
L 49.002808 51.347708 
L 49.99329 51.25555 
L 50.877636 51.193586 
L 51.761982 51.1505 
L 52.642357 51.126085 
L 52.978997 51.121564 
L 54.036724 51.124468 
L 55.012873 51.149863 
L 55.920523 51.192702 
L 56.828172 51.253762 
L 57.732981 51.332466 
L 58.29621 51.39032 
L 59.482565 51.534056 
L 60.438166 51.671037 
L 61.001407 51.760482 
L 62.549853 52.03899 
L 62.981905 52.125088 
L 64.432936 52.440402 
L 65.10398 52.599611 
L 66.269804 52.895872 
L 67.662708 53.281795 
L 68.340759 53.481945 
L 69.437487 53.822299 
L 70.814071 54.277854 
L 71.724851 54.596136 
L 71.929484 54.669458 
L 73.255268 55.160266 
L 73.943169 55.425487 
L 75.66765 56.121032 
L 76.204455 56.346253 
L 77.64117 56.968685 
L 78.152035 57.196735 
L 79.393072 57.76497 
L 80.235659 58.161959 
L 81.490311 58.76928 
L 82.604119 59.324084 
L 83.09212 59.571656 
L 84.121071 60.102356 
L 85.654264 60.914203 
L 86.303266 61.265153 
L 87.067303 61.683657 
L 88.311296 62.376989 
L 89.171669 62.864812 
L 90.027801 63.356676 
L 91.575094 64.261123 
L 92.363471 64.729239 
L 93.245999 65.258772 
L 94.840736 66.229551 
L 95.081101 66.377344 
L 96.588139 67.312175 
L 97.318955 67.770331 
L 98.698299 68.642937 
L 99.576233 69.203307 
L 100.674657 69.90937 
L 101.412361 70.38641 
L 102.488532 71.086044 
L 103.169356 71.530738 
L 104.851502 72.635468 
L 105.688013 73.187568 
L 106.597701 73.789658 
L 107.519393 74.401193 
L 108.543388 75.081994 
L 109.07832 75.438085 
L 110.196102 76.182816 
L 111.873024 77.300685 
L 112.662817 77.826962 
L 113.902258 78.651959 
L 114.192932 78.845209 
L 115.302347 79.581716 
L 116.612459 80.448697 
L 117.292818 80.897471 
L 118.634723 81.779079 
L 119.249953 82.181495 
L 120.419695 82.943089 
L 121.555462 83.677634 
L 122.390116 84.213996 
L 123.140854 84.693725 
L 124.984689 85.859975 
L 125.749805 86.338475 
L 126.945368 87.079182 
L 127.886347 87.655774 
L 128.375524 87.953176 
L 130.023458 88.942526 
L 130.209151 89.052744 
L 131.364267 89.732298 
L 132.792329 90.557306 
L 133.380479 90.891975 
L 134.478883 91.508615 
L 135.355291 91.992509 
L 136.974767 92.866741 
L 137.378917 93.080719 
L 138.414874 93.621257 
L 139.512346 94.181015 
L 140.25617 94.552602 
L 141.351437 95.087894 
L 142.942076 95.839153 
L 143.921642 96.285781 
L 144.538297 96.560468 
L 145.993841 97.188385 
L 146.445271 97.377149 
L 147.986905 97.999714 
L 148.466823 98.186395 
L 149.180191 98.457476 
L 150.617712 98.979915 
L 151.771425 99.375517 
L 153.007532 99.775202 
L 153.906485 100.049747 
L 154.273991 100.157997 
L 155.944549 100.620222 
L 156.576162 100.781977 
L 157.27792 100.95314 
L 158.866162 101.30655 
L 159.594115 101.452443 
L 160.695435 101.653481 
L 161.595858 101.799907 
L 162.337676 101.908191 
L 163.160042 102.014983 
L 163.982409 102.107624 
L 164.631868 102.170641 
L 165.514094 102.241687 
L 166.539132 102.30284 
L 167.545579 102.340112 
L 168.610438 102.354523 
L 169.387449 102.348529 
L 170.164459 102.328395 
L 170.48959 102.315728 
L 171.297227 102.273319 
L 172.104865 102.215132 
L 172.986733 102.133329 
L 173.616893 102.063045 
L 174.333433 101.971001 
L 175.332545 101.820851 
L 176.182112 101.672925 
L 177.031679 101.506126 
L 178.179132 101.250446 
L 178.734975 101.113871 
L 179.522731 100.905916 
L 180.787123 100.536391 
L 181.335344 100.362308 
L 182.081621 100.111691 
L 182.827899 99.845193 
L 183.269486 99.679954 
L 184.57312 99.15903 
L 185.794444 98.625503 
L 186.995697 98.057087 
L 187.669604 97.718985 
L 188.445505 97.312404 
L 189.221406 96.887117 
L 189.602005 96.671609 
L 190.390217 96.210745 
L 191.178429 95.730093 
L 191.387255 95.599409 
L 192.327258 94.993691 
L 193.120689 94.459996 
L 193.91412 93.90556 
L 194.525419 93.464124 
L 195.263954 92.914094 
L 196.002489 92.345626 
L 197.174411 91.405327 
L 198.077111 90.6487 
L 198.687066 90.121349 
L 199.488724 89.408335 
L 200.588793 88.392729 
L 201.393102 87.622679 
L 202.348185 86.677789 
L 203.303268 85.699467 
L 203.401114 85.597339 
L 204.325577 84.614844 
L 205.25004 83.600349 
L 205.976935 82.779983 
L 207.142025 81.423011 
L 207.652767 80.811683 
L 208.422644 79.871053 
L 209.081191 79.048067 
L 209.739738 78.208015 
L 210.861776 76.737091 
z
" style="fill:#cde0eb;opacity:0.5;"/>
   </g>
   <g id="matplotlib.axis_1">
    <g id="xtick_1">
     <g id="line2d_1">
      <defs>
       <path d="M 0 0 
L 0 3.5 
" id="m48e0ab5bf4" style="stroke:#000000;stroke-width:0.8;"/>
      </defs>
      <g>
       <use style="stroke:#000000;stroke-width:0.8;" x="11.193368" xlink:href="#m48e0ab5bf4" y="176.571295"/>
      </g>
     </g>
     <g id="text_1">
      <!-- $a$ -->
      <defs>
       <path d="M 17.390625 -1.125 
Q 11.078125 -1.125 7.4375 3.640625 
Q 3.8125 8.40625 3.8125 14.890625 
Q 3.8125 21.296875 7.125 28.171875 
Q 10.453125 35.0625 16.09375 39.625 
Q 21.734375 44.1875 28.21875 44.1875 
Q 31.203125 44.1875 33.546875 42.578125 
Q 35.890625 40.96875 37.203125 38.1875 
Q 38.328125 42.1875 41.609375 42.1875 
Q 42.875 42.1875 43.71875 41.421875 
Q 44.578125 40.671875 44.578125 39.40625 
Q 44.578125 39.109375 44.546875 38.953125 
Q 44.53125 38.8125 44.484375 38.625 
L 37.5 10.6875 
Q 36.8125 7.71875 36.8125 5.8125 
Q 36.8125 1.515625 39.703125 1.515625 
Q 42.828125 1.515625 44.453125 5.484375 
Q 46.09375 9.46875 47.21875 14.703125 
Q 47.40625 15.28125 48 15.28125 
L 49.21875 15.28125 
Q 49.609375 15.28125 49.84375 14.9375 
Q 50.09375 14.59375 50.09375 14.3125 
Q 48.34375 7.328125 46.265625 3.09375 
Q 44.1875 -1.125 39.5 -1.125 
Q 36.140625 -1.125 33.546875 0.84375 
Q 30.953125 2.828125 30.328125 6.109375 
Q 23.875 -1.125 17.390625 -1.125 
z
M 17.484375 1.515625 
Q 21.09375 1.515625 24.484375 4.21875 
Q 27.875 6.9375 30.328125 10.59375 
Q 30.421875 10.6875 30.421875 10.890625 
L 35.796875 32.625 
L 35.890625 32.90625 
Q 35.296875 36.46875 33.3125 39.03125 
Q 31.34375 41.609375 27.984375 41.609375 
Q 24.609375 41.609375 21.703125 38.84375 
Q 18.796875 36.078125 16.796875 32.328125 
Q 14.84375 28.328125 13.0625 21.34375 
Q 11.28125 14.359375 11.28125 10.5 
Q 11.28125 7.03125 12.765625 4.265625 
Q 14.265625 1.515625 17.484375 1.515625 
z
" id="Cmmi10-97"/>
      </defs>
      <g transform="translate(7.218368 194.968951)scale(0.15 -0.15)">
       <use transform="translate(0 0.8125)" xlink:href="#Cmmi10-97"/>
      </g>
     </g>
    </g>
    <g id="xtick_2">
     <g id="line2d_2">
      <g>
       <use style="stroke:#000000;stroke-width:0.8;" x="210.861776" xlink:href="#m48e0ab5bf4" y="176.571295"/>
      </g>
     </g>
     <g id="text_2">
      <!-- $b$ -->
      <defs>
       <path d="M 17.28125 -1.125 
Q 11.234375 -1.125 7.859375 3.609375 
Q 4.5 8.34375 4.5 14.703125 
Q 4.5 15.625 4.953125 18.328125 
Q 5.421875 21.046875 5.421875 21.6875 
L 15.09375 60.5 
Q 15.484375 62.203125 15.578125 63.1875 
Q 15.578125 64.796875 9.078125 64.796875 
Q 8.109375 64.796875 8.109375 66.109375 
Q 8.15625 66.359375 8.328125 66.984375 
Q 8.5 67.625 8.765625 67.96875 
Q 9.03125 68.3125 9.515625 68.3125 
L 23 69.390625 
Q 24.21875 69.390625 24.21875 68.109375 
L 16.796875 38.625 
Q 22.46875 44.1875 28.21875 44.1875 
Q 32.46875 44.1875 35.515625 41.9375 
Q 38.578125 39.703125 40.09375 36.03125 
Q 41.609375 32.375 41.609375 28.21875 
Q 41.609375 23.390625 39.71875 18.234375 
Q 37.84375 13.09375 34.515625 8.671875 
Q 31.203125 4.25 26.75 1.5625 
Q 22.3125 -1.125 17.28125 -1.125 
z
M 17.484375 1.515625 
Q 20.90625 1.515625 23.875 4.375 
Q 26.859375 7.234375 28.71875 10.796875 
Q 30.71875 14.796875 32.453125 21.65625 
Q 34.1875 28.515625 34.1875 32.625 
Q 34.1875 36.1875 32.6875 38.890625 
Q 31.203125 41.609375 27.984375 41.609375 
Q 24.359375 41.609375 21.0625 38.9375 
Q 17.78125 36.28125 15.28125 32.625 
L 12.5 21.296875 
Q 10.890625 14.984375 10.796875 11.1875 
Q 10.796875 7.421875 12.421875 4.46875 
Q 14.0625 1.515625 17.484375 1.515625 
z
" id="Cmmi10-98"/>
      </defs>
      <g transform="translate(207.636776 194.968951)scale(0.15 -0.15)">
       <use transform="translate(0 0.609375)" xlink:href="#Cmmi10-98"/>
      </g>
     </g>
    </g>
    <g id="text_3">
     <!-- $x$ -->
     <defs>
      <path d="M 7.8125 2.875 
Q 9.578125 1.515625 12.796875 1.515625 
Q 15.921875 1.515625 18.3125 4.515625 
Q 20.703125 7.515625 21.578125 11.078125 
L 26.125 28.8125 
Q 27.203125 33.640625 27.203125 35.40625 
Q 27.203125 37.890625 25.8125 39.75 
Q 24.421875 41.609375 21.921875 41.609375 
Q 18.75 41.609375 15.96875 39.625 
Q 13.1875 37.640625 11.28125 34.59375 
Q 9.375 31.546875 8.59375 28.421875 
Q 8.40625 27.78125 7.8125 27.78125 
L 6.59375 27.78125 
Q 5.8125 27.78125 5.8125 28.71875 
L 5.8125 29 
Q 6.78125 32.71875 9.125 36.25 
Q 11.46875 39.796875 14.859375 41.984375 
Q 18.265625 44.1875 22.125 44.1875 
Q 25.78125 44.1875 28.734375 42.234375 
Q 31.6875 40.28125 32.90625 36.921875 
Q 34.625 39.984375 37.28125 42.078125 
Q 39.9375 44.1875 43.109375 44.1875 
Q 45.265625 44.1875 47.5 43.421875 
Q 49.75 42.671875 51.171875 41.109375 
Q 52.59375 39.546875 52.59375 37.203125 
Q 52.59375 34.671875 50.953125 32.828125 
Q 49.3125 31 46.78125 31 
Q 45.171875 31 44.09375 32.03125 
Q 43.015625 33.0625 43.015625 34.625 
Q 43.015625 36.71875 44.453125 38.296875 
Q 45.90625 39.890625 47.90625 40.1875 
Q 46.09375 41.609375 42.921875 41.609375 
Q 39.703125 41.609375 37.328125 38.625 
Q 34.96875 35.640625 33.984375 31.984375 
L 29.59375 14.3125 
Q 28.515625 10.296875 28.515625 7.71875 
Q 28.515625 5.171875 29.953125 3.34375 
Q 31.390625 1.515625 33.796875 1.515625 
Q 38.484375 1.515625 42.15625 5.640625 
Q 45.84375 9.765625 47.015625 14.703125 
Q 47.21875 15.28125 47.796875 15.28125 
L 49.03125 15.28125 
Q 49.421875 15.28125 49.65625 15.015625 
Q 49.90625 14.75 49.90625 14.40625 
Q 49.90625 14.3125 49.8125 14.109375 
Q 48.390625 8.15625 43.84375 3.515625 
Q 39.3125 -1.125 33.59375 -1.125 
Q 29.9375 -1.125 26.984375 0.84375 
Q 24.03125 2.828125 22.796875 6.203125 
Q 21.234375 3.265625 18.46875 1.0625 
Q 15.71875 -1.125 12.59375 -1.125 
Q 10.453125 -1.125 8.171875 -0.359375 
Q 5.90625 0.390625 4.484375 1.953125 
Q 3.078125 3.515625 3.078125 5.90625 
Q 3.078125 8.25 4.703125 10.171875 
Q 6.34375 12.109375 8.796875 12.109375 
Q 10.453125 12.109375 11.578125 11.109375 
Q 12.703125 10.109375 12.703125 8.5 
Q 12.703125 6.390625 11.296875 4.828125 
Q 9.90625 3.265625 7.8125 2.875 
z
" id="Cmmi10-120"/>
     </defs>
     <g transform="translate(222.855144 176.571295)scale(0.24 -0.24)">
      <use transform="translate(0 0.8125)" xlink:href="#Cmmi10-120"/>
     </g>
    </g>
   </g>
   <g id="matplotlib.axis_2">
    <g id="text_4">
     <!-- $y$ -->
     <defs>
      <path d="M 8.40625 -14.3125 
Q 10.5 -17.921875 15.71875 -17.921875 
Q 20.453125 -17.921875 23.921875 -14.59375 
Q 27.390625 -11.28125 29.515625 -6.5625 
Q 31.640625 -1.859375 32.8125 3.078125 
Q 28.375 -1.125 23.1875 -1.125 
Q 19.234375 -1.125 16.453125 0.234375 
Q 13.671875 1.609375 12.125 4.3125 
Q 10.59375 7.03125 10.59375 10.890625 
Q 10.59375 14.15625 11.46875 17.59375 
Q 12.359375 21.046875 13.9375 25.265625 
Q 15.53125 29.5 16.703125 32.625 
Q 18.015625 36.28125 18.015625 38.625 
Q 18.015625 41.609375 15.828125 41.609375 
Q 11.859375 41.609375 9.296875 37.53125 
Q 6.734375 33.453125 5.515625 28.421875 
Q 5.328125 27.78125 4.6875 27.78125 
L 3.515625 27.78125 
Q 2.6875 27.78125 2.6875 28.71875 
L 2.6875 29 
Q 4.296875 34.96875 7.609375 39.578125 
Q 10.9375 44.1875 16.015625 44.1875 
Q 19.578125 44.1875 22.046875 41.84375 
Q 24.515625 39.5 24.515625 35.890625 
Q 24.515625 34.03125 23.6875 31.984375 
Q 23.25 30.765625 21.6875 26.65625 
Q 20.125 22.5625 19.28125 19.875 
Q 18.453125 17.1875 17.921875 14.59375 
Q 17.390625 12.015625 17.390625 9.421875 
Q 17.390625 6.109375 18.796875 3.8125 
Q 20.21875 1.515625 23.296875 1.515625 
Q 29.5 1.515625 34.421875 9.078125 
L 42 39.890625 
Q 42.328125 41.21875 43.546875 42.15625 
Q 44.78125 43.109375 46.1875 43.109375 
Q 47.40625 43.109375 48.3125 42.328125 
Q 49.21875 41.546875 49.21875 40.28125 
Q 49.21875 39.703125 49.125 39.5 
L 39.203125 -0.296875 
Q 37.890625 -5.421875 34.375 -10.109375 
Q 30.859375 -14.796875 25.90625 -17.65625 
Q 20.953125 -20.515625 15.578125 -20.515625 
Q 12.984375 -20.515625 10.4375 -19.5 
Q 7.90625 -18.5 6.34375 -16.5 
Q 4.78125 -14.5 4.78125 -11.8125 
Q 4.78125 -9.078125 6.390625 -7.078125 
Q 8.015625 -5.078125 10.6875 -5.078125 
Q 12.3125 -5.078125 13.40625 -6.078125 
Q 14.5 -7.078125 14.5 -8.6875 
Q 14.5 -10.984375 12.78125 -12.6875 
Q 11.078125 -14.40625 8.796875 -14.40625 
Q 8.6875 -14.359375 8.59375 -14.328125 
Q 8.5 -14.3125 8.40625 -14.3125 
z
" id="Cmmi10-121"/>
     </defs>
     <g transform="translate(105.027572 25.3875)scale(0.24 -0.24)">
      <use transform="translate(0 0.8125)" xlink:href="#Cmmi10-121"/>
     </g>
    </g>
   </g>
   <g id="line2d_3">
    <path clip-path="url(#p147204008f)" d="M 11.193368 76.737091 
L 14.429716 72.62952 
L 16.934997 69.729347 
L 19.805698 66.697164 
L 23.129334 63.562805 
L 26.364276 60.886435 
L 29.340427 58.738533 
L 32.33477 56.870528 
L 34.873489 55.509002 
L 37.810325 54.179274 
L 40.054031 53.334693 
L 43.060573 52.426968 
L 46.08873 51.761922 
L 49.002808 51.347708 
L 51.761982 51.1505 
L 55.012873 51.149863 
L 58.29621 51.39032 
L 61.001407 51.760482 
L 65.10398 52.599611 
L 68.340759 53.481945 
L 71.929484 54.669458 
L 76.204455 56.346253 
L 80.235659 58.161959 
L 84.121071 60.102356 
L 89.171669 62.864812 
L 95.081101 66.377344 
L 102.488532 71.086044 
L 115.302347 79.581716 
L 124.984689 85.859975 
L 131.364267 89.732298 
L 137.378917 93.080719 
L 141.351437 95.087894 
L 146.445271 97.377149 
L 150.617712 98.979915 
L 154.273991 100.157997 
L 157.27792 100.95314 
L 160.695435 101.653481 
L 163.982409 102.107624 
L 166.539132 102.30284 
L 170.164459 102.328395 
L 172.986733 102.133329 
L 176.182112 101.672925 
L 179.522731 100.905916 
L 182.827899 99.845193 
L 185.794444 98.625503 
L 189.221406 96.887117 
L 191.387255 95.599409 
L 194.525419 93.464124 
L 197.174411 91.405327 
L 199.488724 89.408335 
L 202.348185 86.677789 
L 205.25004 83.600349 
L 208.422644 79.871053 
L 210.861776 76.737091 
L 210.861776 76.737091 
" style="fill:none;stroke:#ff0000;stroke-linecap:square;stroke-width:1.5;"/>
   </g>
   <g id="line2d_4">
    <path clip-path="url(#p147204008f)" d="M 11.193368 110.015159 
L 16.644195 117.084522 
L 21.943341 123.576763 
L 25.799083 128.064904 
L 31.720575 134.570994 
L 36.113183 139.094722 
L 40.675071 143.520001 
L 45.472541 147.873969 
L 50.291792 151.938221 
L 55.008457 155.615609 
L 59.48665 158.832106 
L 64.040684 161.828401 
L 68.06008 164.242819 
L 73.269671 167.051117 
L 77.791235 169.194704 
L 81.510148 170.753127 
L 86.36738 172.510395 
L 90.552293 173.77174 
L 94.724782 174.796479 
L 98.519323 175.526521 
L 102.017662 176.029206 
L 106.434857 176.430441 
L 111.260579 176.570932 
L 116.230298 176.39054 
L 120.384724 175.986617 
L 124.376602 175.381345 
L 128.596272 174.51015 
L 132.466904 173.501906 
L 137.211448 171.993069 
L 141.152783 170.511058 
L 145.950885 168.426873 
L 150.404548 166.217153 
L 155.068873 163.618913 
L 158.69402 161.398871 
L 163.871491 157.923847 
L 168.236113 154.716279 
L 172.786921 151.100952 
L 177.087732 147.430015 
L 181.711055 143.208282 
L 187.332356 137.690699 
L 191.327091 133.513155 
L 196.465644 127.82605 
L 202.362534 120.865101 
L 207.683784 114.185039 
L 210.861776 110.015159 
L 210.861776 110.015159 
" style="fill:none;stroke:#0000ff;stroke-linecap:square;stroke-width:1.5;"/>
   </g>
   <g id="line2d_5">
    <path clip-path="url(#p147204008f)" d="M 11.193368 110.015159 
L 11.193368 76.737091 
" style="fill:none;stroke:#000000;stroke-linecap:square;"/>
   </g>
   <g id="line2d_6">
    <path clip-path="url(#p147204008f)" d="M 210.861776 110.015159 
L 210.861776 76.737091 
" style="fill:none;stroke:#000000;stroke-linecap:square;"/>
   </g>
   <g id="line2d_7">
    <path clip-path="url(#p147204008f)" d="M 11.193368 176.571295 
L 11.193368 110.015159 
" style="fill:none;stroke:#d3d3d3;stroke-dasharray:3.7,1.6;stroke-dashoffset:0;"/>
   </g>
   <g id="line2d_8">
    <path clip-path="url(#p147204008f)" d="M 210.861776 176.571295 
L 210.861776 110.015159 
" style="fill:none;stroke:#d3d3d3;stroke-dasharray:3.7,1.6;stroke-dashoffset:0;"/>
   </g>
   <g id="patch_4">
    <path d="M 111.027572 179.279997 
L 111.027572 38.4275 
" style="fill:none;stroke:#000000;stroke-linecap:square;stroke-linejoin:miter;stroke-width:0.8;"/>
   </g>
   <g id="patch_5">
    <path d="M 7.2 176.571295 
L 214.855144 176.571295 
" style="fill:none;stroke:#000000;stroke-linecap:square;stroke-linejoin:miter;stroke-width:0.8;"/>
   </g>
   <g id="text_5">
    <!-- $y=f(x)$ -->
    <defs>
     <path d="M 7.515625 13.28125 
Q 6.6875 13.28125 6.140625 13.90625 
Q 5.609375 14.546875 5.609375 15.28125 
Q 5.609375 16.109375 6.140625 16.6875 
Q 6.6875 17.28125 7.515625 17.28125 
L 70.3125 17.28125 
Q 71.046875 17.28125 71.578125 16.6875 
Q 72.125 16.109375 72.125 15.28125 
Q 72.125 14.546875 71.578125 13.90625 
Q 71.046875 13.28125 70.3125 13.28125 
z
M 7.515625 32.71875 
Q 6.6875 32.71875 6.140625 33.296875 
Q 5.609375 33.890625 5.609375 34.71875 
Q 5.609375 35.453125 6.140625 36.078125 
Q 6.6875 36.71875 7.515625 36.71875 
L 70.3125 36.71875 
Q 71.046875 36.71875 71.578125 36.078125 
Q 72.125 35.453125 72.125 34.71875 
Q 72.125 33.890625 71.578125 33.296875 
Q 71.046875 32.71875 70.3125 32.71875 
z
" id="Cmr10-61"/>
     <path d="M 9.71875 -16.5 
Q 11.578125 -17.921875 14.203125 -17.921875 
Q 17.78125 -17.921875 20.015625 -10.015625 
Q 20.953125 -6.203125 25.09375 15.09375 
L 29.6875 39.59375 
L 21.09375 39.59375 
Q 20.125 39.59375 20.125 40.921875 
Q 20.515625 43.109375 21.390625 43.109375 
L 30.328125 43.109375 
L 31.5 49.609375 
Q 32.078125 52.640625 32.5625 54.8125 
Q 33.0625 56.984375 33.625 58.828125 
Q 34.1875 60.6875 35.296875 62.984375 
Q 37.015625 66.265625 39.921875 68.390625 
Q 42.828125 70.515625 46.1875 70.515625 
Q 48.390625 70.515625 50.46875 69.703125 
Q 52.546875 68.890625 53.859375 67.28125 
Q 55.171875 65.671875 55.171875 63.484375 
Q 55.171875 60.9375 53.484375 59.046875 
Q 51.8125 57.171875 49.421875 57.171875 
Q 47.796875 57.171875 46.65625 58.171875 
Q 45.515625 59.1875 45.515625 60.796875 
Q 45.515625 62.984375 47 64.625 
Q 48.484375 66.265625 50.6875 66.5 
Q 48.828125 67.921875 46.09375 67.921875 
Q 44.578125 67.921875 43.234375 66.5 
Q 41.890625 65.09375 41.5 63.484375 
Q 40.875 60.9375 38.71875 49.703125 
L 37.5 43.109375 
L 47.796875 43.109375 
Q 48.78125 43.109375 48.78125 41.796875 
Q 48.734375 41.546875 48.578125 40.9375 
Q 48.4375 40.328125 48.171875 39.953125 
Q 47.90625 39.59375 47.515625 39.59375 
L 36.8125 39.59375 
L 32.171875 15.1875 
Q 31.296875 9.859375 30.140625 4.359375 
Q 29 -1.125 26.921875 -6.90625 
Q 24.859375 -12.703125 21.625 -16.609375 
Q 18.40625 -20.515625 14.015625 -20.515625 
Q 10.640625 -20.515625 7.984375 -18.578125 
Q 5.328125 -16.65625 5.328125 -13.484375 
Q 5.328125 -10.9375 6.953125 -9.046875 
Q 8.59375 -7.171875 11.078125 -7.171875 
Q 12.75 -7.171875 13.859375 -8.171875 
Q 14.984375 -9.1875 14.984375 -10.796875 
Q 14.984375 -12.9375 13.390625 -14.71875 
Q 11.8125 -16.5 9.71875 -16.5 
z
" id="Cmmi10-102"/>
     <path d="M 31 -24.8125 
Q 25.4375 -20.40625 21.40625 -14.71875 
Q 17.390625 -9.03125 14.8125 -2.578125 
Q 12.25 3.859375 10.984375 10.890625 
Q 9.71875 17.921875 9.71875 25 
Q 9.71875 32.171875 10.984375 39.203125 
Q 12.25 46.234375 14.859375 52.734375 
Q 17.484375 59.234375 21.53125 64.890625 
Q 25.59375 70.5625 31 74.8125 
Q 31 75 31.5 75 
L 32.421875 75 
Q 32.71875 75 32.953125 74.734375 
Q 33.203125 74.46875 33.203125 74.125 
Q 33.203125 73.6875 33.015625 73.484375 
Q 28.125 68.703125 24.875 63.234375 
Q 21.625 57.765625 19.640625 51.578125 
Q 17.671875 45.40625 16.796875 38.78125 
Q 15.921875 32.171875 15.921875 25 
Q 15.921875 -6.78125 32.90625 -23.296875 
Q 33.203125 -23.578125 33.203125 -24.125 
Q 33.203125 -24.359375 32.9375 -24.671875 
Q 32.671875 -25 32.421875 -25 
L 31.5 -25 
Q 31 -25 31 -24.8125 
z
" id="Cmr10-40"/>
     <path d="M 6.5 -25 
Q 5.609375 -25 5.609375 -24.125 
Q 5.609375 -23.6875 5.8125 -23.484375 
Q 22.90625 -6.78125 22.90625 25 
Q 22.90625 56.78125 6 73.296875 
Q 5.609375 73.53125 5.609375 74.125 
Q 5.609375 74.46875 5.875 74.734375 
Q 6.15625 75 6.5 75 
L 7.421875 75 
Q 7.71875 75 7.90625 74.8125 
Q 15.09375 69.140625 19.875 61.03125 
Q 24.65625 52.9375 26.875 43.75 
Q 29.109375 34.578125 29.109375 25 
Q 29.109375 17.921875 27.90625 11.0625 
Q 26.703125 4.203125 24.09375 -2.453125 
Q 21.484375 -9.125 17.484375 -14.765625 
Q 13.484375 -20.40625 7.90625 -24.8125 
Q 7.71875 -25 7.421875 -25 
z
" id="Cmr10-41"/>
    </defs>
    <g style="fill:#ff0000;" transform="translate(49.401792 44.886202)scale(0.15 -0.15)">
     <use xlink:href="#Cmmi10-121"/>
     <use transform="translate(66.582031 0)" xlink:href="#Cmr10-61"/>
     <use transform="translate(161.826172 0)" xlink:href="#Cmmi10-102"/>
     <use transform="translate(210.703125 0)" xlink:href="#Cmr10-40"/>
     <use transform="translate(249.521484 0)" xlink:href="#Cmmi10-120"/>
     <use transform="translate(306.601562 0)" xlink:href="#Cmr10-41"/>
    </g>
   </g>
   <g id="text_6">
    <!-- $y=g(x)$ -->
    <defs>
     <path d="M 1.421875 -14.3125 
Q 1.421875 -11.859375 3.09375 -10.03125 
Q 4.78125 -8.203125 7.171875 -8.203125 
Q 8.796875 -8.203125 9.890625 -9.203125 
Q 10.984375 -10.203125 10.984375 -11.8125 
Q 10.984375 -13.625 9.953125 -15.0625 
Q 8.9375 -16.5 7.328125 -17.09375 
Q 10.015625 -17.921875 15.71875 -17.921875 
Q 20.3125 -17.921875 24.125 -14.375 
Q 27.9375 -10.84375 29.109375 -6.203125 
L 31.984375 5.515625 
Q 26.5625 0 20.703125 0 
Q 16.40625 0 13.34375 2.1875 
Q 10.296875 4.390625 8.6875 8.046875 
Q 7.078125 11.71875 7.078125 15.828125 
Q 7.078125 20.40625 8.953125 25.4375 
Q 10.84375 30.46875 14.234375 34.765625 
Q 17.625 39.0625 22.015625 41.625 
Q 26.421875 44.1875 31.296875 44.1875 
Q 34.234375 44.1875 36.578125 42.578125 
Q 38.921875 40.96875 40.28125 38.28125 
Q 41.265625 42.1875 44.578125 42.1875 
Q 45.84375 42.1875 46.71875 41.421875 
Q 47.609375 40.671875 47.609375 39.40625 
Q 47.609375 39.109375 47.578125 38.953125 
Q 47.5625 38.8125 47.515625 38.625 
L 36.078125 -6.78125 
Q 35.296875 -9.90625 33.203125 -12.5 
Q 31.109375 -15.09375 28.265625 -16.828125 
Q 25.4375 -18.5625 22.0625 -19.53125 
Q 18.703125 -20.515625 15.578125 -20.515625 
Q 9.859375 -20.515625 5.640625 -19.40625 
Q 1.421875 -18.3125 1.421875 -14.3125 
z
M 20.90625 2.59375 
Q 27.296875 2.59375 33.5 11.375 
L 39.015625 33.203125 
Q 38.328125 36.671875 36.28125 39.140625 
Q 34.234375 41.609375 31.109375 41.609375 
Q 27.78125 41.609375 24.828125 38.890625 
Q 21.875 36.1875 19.921875 32.421875 
Q 18.0625 28.8125 16.328125 22.046875 
Q 14.59375 15.28125 14.59375 11.375 
Q 14.59375 7.953125 16.15625 5.265625 
Q 17.71875 2.59375 20.90625 2.59375 
z
" id="Cmmi10-103"/>
    </defs>
    <g style="fill:#0000ff;" transform="translate(155.036515 170.337874)scale(0.15 -0.15)">
     <use xlink:href="#Cmmi10-121"/>
     <use transform="translate(66.582031 0)" xlink:href="#Cmr10-61"/>
     <use transform="translate(161.826172 0)" xlink:href="#Cmmi10-103"/>
     <use transform="translate(209.53125 0)" xlink:href="#Cmr10-40"/>
     <use transform="translate(248.349609 0)" xlink:href="#Cmmi10-120"/>
     <use transform="translate(305.429688 0)" xlink:href="#Cmr10-41"/>
    </g>
   </g>
  </g>
 </g>
 <defs>
  <clipPath id="p147204008f">
   <rect height="140.852497" width="207.655144" x="7.2" y="38.4275"/>
  </clipPath>
 </defs>
</svg>
