<?xml version="1.0" encoding="utf-8" standalone="no"?>
<!DOCTYPE svg PUBLIC "-//W3C//DTD SVG 1.1//EN"
  "http://www.w3.org/Graphics/SVG/1.1/DTD/svg11.dtd">
<!-- Created with matplotlib (https://matplotlib.org/) -->
<svg height="373.824pt" version="1.1" viewBox="0 0 348.722962 373.824" width="348.722962pt" xmlns="http://www.w3.org/2000/svg" xmlns:xlink="http://www.w3.org/1999/xlink">
 <defs>
  <style type="text/css">
*{stroke-linecap:butt;stroke-linejoin:round;}
  </style>
 </defs>
 <g id="figure_1">
  <g id="patch_1">
   <path d="M -0 373.824 
L 348.722962 373.824 
L 348.722962 0 
L -0 0 
z
" style="fill:#ffffff;"/>
  </g>
  <g id="axes_1">
   <g id="patch_2">
    <path d="M 28.014231 366.624 
L 324.242962 366.624 
L 324.242962 100.512 
L 28.014231 100.512 
z
" style="fill:#ffffff;"/>
   </g>
   <g id="patch_3">
    <path clip-path="url(#pbba88d4cce)" d="M 271.073703 163.37205 
L 270.324637 166.692556 
L 269.575572 169.976011 
L 268.73542 173.614945 
L 267.919972 177.102895 
L 267.274045 179.835197 
L 266.628118 182.540655 
L 265.930566 185.432367 
L 265.233014 188.293132 
L 264.292236 192.102711 
L 263.351458 195.856788 
L 262.360596 199.751209 
L 261.4725 203.190262 
L 260.833536 205.634707 
L 260.194571 208.054312 
L 259.539523 210.509182 
L 258.884475 212.938243 
L 258.24857 215.271773 
L 257.262532 218.84265 
L 256.501603 221.559106 
L 255.740674 224.241666 
L 254.597203 228.209592 
L 253.835667 230.810386 
L 253.074132 233.378036 
L 252.213089 236.241556 
L 251.369545 239.006395 
L 250.526001 241.731473 
L 249.491971 245.01813 
L 248.72209 247.427025 
L 247.578652 250.945175 
L 246.95899 252.822244 
L 246.339328 254.678719 
L 245.645051 256.734418 
L 244.950774 258.764581 
L 244.04396 261.378053 
L 243.137146 263.948618 
L 242.197216 266.568166 
L 241.560042 268.31816 
L 240.922868 270.047467 
L 240.152535 272.110729 
L 238.926795 275.332355 
L 238.009161 277.695284 
L 237.10492 279.983177 
L 236.200678 282.231174 
L 235.248953 284.554515 
L 234.519126 286.306742 
L 233.789299 288.033635 
L 233.345595 289.07121 
L 232.47409 291.08227 
L 231.602585 293.057939 
L 230.905011 294.614021 
L 230.054984 296.480028 
L 229.204958 298.313181 
L 228.5519 299.699416 
L 227.898843 301.066555 
L 227.317384 302.26784 
L 226.39824 304.136322 
L 225.479096 305.967808 
L 224.727331 307.438518 
L 223.975565 308.884908 
L 223.581692 309.633071 
L 222.238283 312.135425 
L 221.546759 313.393956 
L 220.855235 314.632587 
L 220.268305 315.668369 
L 219.507024 316.990785 
L 218.745743 318.289604 
L 218.022118 319.502478 
L 217.298494 320.694373 
L 216.203002 322.45922 
L 215.192994 324.044572 
L 214.334398 325.361084 
L 213.592053 326.476468 
L 212.849707 327.570822 
L 211.89155 328.952512 
L 210.933392 330.299824 
L 210.117804 331.419854 
L 208.880275 333.072772 
L 207.745561 334.539634 
L 207.083355 335.374386 
L 205.720766 337.04324 
L 204.399649 338.599427 
L 203.218903 339.939483 
L 202.297483 340.952368 
L 201.376064 341.936793 
L 201.152229 342.171671 
L 200.05508 343.299074 
L 198.95793 344.387191 
L 198.636096 344.698999 
L 197.183924 346.064795 
L 196.098848 347.041876 
L 195.229261 347.79846 
L 194.359673 348.531777 
L 193.967675 348.854804 
L 192.907721 349.705019 
L 191.847767 350.521649 
L 191.634642 350.681833 
L 190.635435 351.415078 
L 189.636228 352.119324 
L 188.718072 352.741196 
L 187.864209 353.298076 
L 187.010347 353.834521 
L 186.824414 353.948647 
L 185.459304 354.757435 
L 184.377665 355.362291 
L 183.112438 356.03009 
L 181.911643 356.624892 
L 180.96347 357.068138 
L 179.965673 357.509759 
L 178.967876 357.926261 
L 178.485832 358.11858 
L 176.951677 358.692605 
L 175.975167 359.028237 
L 174.180733 359.585875 
L 173.79163 359.696839 
L 172.426513 360.058562 
L 171.207454 360.345809 
L 169.540812 360.685015 
L 168.882139 360.802326 
L 167.785006 360.977015 
L 166.377465 361.163813 
L 164.996984 361.307065 
L 163.942912 361.390318 
L 163.041643 361.443862 
L 161.507386 361.498273 
L 159.664777 361.503784 
L 158.892121 361.487083 
L 157.830298 361.446158 
L 157.064679 361.403918 
L 155.813581 361.312311 
L 154.105038 361.142861 
L 152.962526 361.001617 
L 152.367221 360.919319 
L 150.232317 360.576201 
L 149.225299 360.388857 
L 147.659528 360.065965 
L 147.4054 360.00999 
L 145.358041 359.523492 
L 145.070005 359.450051 
L 144.004076 359.167764 
L 142.082262 358.617837 
L 141.128419 358.325784 
L 140.369104 358.08443 
L 138.092028 357.314697 
L 137.971776 357.27217 
L 136.128685 356.597413 
L 134.85742 356.10742 
L 133.688491 355.639649 
L 132.979044 355.34787 
L 131.114727 354.55345 
L 130.077329 354.094458 
L 129.382046 353.780219 
L 127.590285 352.946548 
L 127.236589 352.777996 
L 125.509386 351.936546 
L 124.659068 351.511331 
L 122.928057 350.624054 
L 121.985902 350.129235 
L 120.806319 349.498238 
L 119.686723 348.887808 
L 118.94095 348.475114 
L 116.897728 347.320274 
L 115.806615 346.689508 
L 114.699136 346.039603 
L 113.884434 345.555437 
L 112.878787 344.950867 
L 111.113301 343.871533 
L 109.943857 343.144401 
L 109.345527 342.768731 
L 108.176511 342.027811 
L 106.132532 340.711034 
L 104.805371 339.842115 
L 104.156049 339.413141 
L 102.886792 338.567523 
L 101.949568 337.937261 
L 100.513494 336.962219 
L 99.456547 336.237629 
L 97.726441 335.039347 
L 96.842089 334.421202 
L 95.356704 333.374725 
L 94.035357 332.435488 
L 93.047566 331.728437 
L 92.561278 331.378859 
L 90.99453 330.246082 
L 89.854823 329.416061 
L 88.639093 328.525356 
L 87.582071 327.746645 
L 86.712128 327.10288 
L 84.984027 325.816713 
L 84.111426 325.163708 
L 82.855014 324.219493 
L 80.85398 322.70649 
L 80.505447 322.441862 
L 79.563628 321.725218 
L 78.084936 320.595655 
L 76.656994 319.500036 
L 74.941363 318.17784 
L 74.55367 317.878219 
L 73.229053 316.852317 
L 71.819439 315.757041 
L 71.129464 315.21967 
L 69.341475 313.823551 
L 68.143622 312.88552 
L 66.647283 311.710945 
L 65.605521 310.891489 
L 65.266932 310.624869 
L 62.968803 308.811802 
L 62.12379 308.143759 
L 61.610136 307.737344 
L 60.545969 306.894589 
L 58.209754 305.04118 
L 57.99629 304.871627 
L 56.45072 303.643078 
L 55.642434 302.999991 
L 54.562955 302.140565 
L 52.48217 300.482316 
L 51.443726 299.654045 
L 50.665767 299.033274 
L 48.749264 297.503168 
L 48.335282 297.172513 
L 46.710022 295.873994 
L 45.956868 295.272067 
L 44.453146 294.069991 
L 43.093084 292.982488 
L 41.471685 291.685774 
L 40.455898 290.873298 
L 39.357942 289.995037 
L 37.916146 288.841669 
L 37.192092 288.262442 
L 36.061824 287.358239 
L 34.668813 286.243833 
L 33.710938 285.477533 
L 33.710938 285.477533 
L 34.736112 284.657404 
L 36.361388 283.357357 
L 37.746427 282.24979 
L 38.291091 281.81436 
L 40.235591 280.260554 
L 40.634748 279.941763 
L 42.638784 278.34228 
L 42.8582 278.167278 
L 44.840176 276.587738 
L 46.176804 275.523935 
L 46.344408 275.39063 
L 47.665237 274.340858 
L 49.521286 272.868142 
L 50.755041 271.890935 
L 51.251094 271.498451 
L 52.938109 270.165584 
L 53.746681 269.52786 
L 55.62335 268.050695 
L 56.169123 267.621924 
L 57.597781 266.501383 
L 58.856294 265.5166 
L 60.225433 264.447837 
L 61.267913 263.635954 
L 62.837916 262.416453 
L 63.939866 261.562916 
L 64.185914 261.372614 
L 66.160173 259.849456 
L 66.987744 259.213048 
L 67.824998 258.57048 
L 69.479837 257.304353 
L 70.169411 256.77833 
L 71.745784 255.579423 
L 73.463568 254.278818 
L 74.097793 253.800206 
L 75.628076 252.649009 
L 76.612984 251.910843 
L 77.510187 251.240333 
L 78.742301 250.322572 
L 80.811233 248.789602 
L 81.211162 248.494472 
L 82.271302 247.714046 
L 83.407303 246.880893 
L 84.840135 245.834727 
L 85.930372 245.042264 
L 87.328671 244.030462 
L 88.158344 243.432586 
L 89.813172 242.245669 
L 90.744262 241.581163 
L 91.860728 240.787544 
L 92.871182 240.072314 
L 94.134711 239.18205 
L 95.630969 238.133775 
L 96.958795 237.208991 
L 98.681913 236.016699 
L 98.890899 235.872698 
L 100.100379 235.041902 
L 101.912966 233.80517 
L 103.210129 232.926321 
L 104.008879 232.387754 
L 105.562494 231.345933 
L 106.078451 231.001624 
L 107.812868 229.850408 
L 108.795427 229.202497 
L 109.694626 228.612275 
L 110.679398 227.968878 
L 112.687047 226.666951 
L 113.268792 226.292159 
L 114.958117 225.210108 
L 115.651701 224.768577 
L 117.662575 223.497486 
L 118.566236 222.930658 
L 119.57861 222.29888 
L 120.719839 221.590809 
L 122.206426 220.675029 
L 122.876472 220.264697 
L 124.661907 219.178715 
L 126.072261 218.328509 
L 126.66305 217.974369 
L 127.525909 217.459272 
L 129.698466 216.173554 
L 130.353264 215.7892 
L 131.1935 215.298139 
L 133.13067 214.175174 
L 133.723713 213.833952 
L 135.361486 212.897858 
L 136.087168 212.486012 
L 137.313765 211.793968 
L 138.658588 211.041122 
L 140.067539 210.258991 
L 141.507547 209.466607 
L 142.371141 208.994787 
L 143.870519 208.181626 
L 144.817043 207.672223 
L 145.870557 207.108808 
L 146.5927 206.724777 
L 147.769993 206.102474 
L 149.057127 205.427456 
L 150.42235 204.717569 
L 151.397342 204.214419 
L 152.521151 203.638414 
L 154.224674 202.773306 
L 155.598936 202.082432 
L 156.301943 201.73143 
L 157.655586 201.060168 
L 158.662701 200.564656 
L 160.00805 199.907916 
L 161.082273 199.38777 
L 162.692407 198.615156 
L 163.307641 198.322155 
L 164.955411 197.543427 
L 166.094824 197.010043 
L 167.37225 196.41698 
L 168.318455 195.981035 
L 169.649693 195.372491 
L 170.99817 194.761754 
L 171.681586 194.454405 
L 173.459148 193.661806 
L 174.135511 193.362796 
L 175.159777 192.91267 
L 177.314431 191.976288 
L 178.527629 191.455272 
L 179.684093 190.962766 
L 180.487459 190.623002 
L 181.850167 190.051095 
L 183.030703 189.560108 
L 183.612056 189.319838 
L 185.578729 188.51439 
L 186.937206 187.964621 
L 187.037962 187.924059 
L 188.414351 187.372891 
L 190.065362 186.718924 
L 191.662937 186.093508 
L 192.08327 185.930155 
L 193.002368 185.574698 
L 194.369675 185.050269 
L 196.445547 184.263974 
L 197.561211 183.846275 
L 198.745197 183.406703 
L 199.321991 183.193935 
L 200.592018 182.7286 
L 201.361271 182.448846 
L 203.140709 181.807738 
L 204.28225 181.400847 
L 205.412422 181.00136 
L 206.248086 180.708106 
L 208.212119 180.02595 
L 209.061005 179.734158 
L 209.668446 179.526479 
L 211.885218 178.776449 
L 212.309497 178.634294 
L 214.112936 178.035013 
L 214.494084 177.909379 
L 216.141968 177.370275 
L 217.382573 176.96874 
L 218.634616 176.567236 
L 219.829381 176.187567 
L 220.872194 175.85893 
L 222.506107 175.349109 
L 223.079531 175.171651 
L 224.663256 174.685452 
L 225.929456 174.300836 
L 226.900434 174.008343 
L 228.075315 173.657245 
L 229.580252 173.211982 
L 230.641966 172.900846 
L 231.169201 172.747252 
L 233.431982 172.094873 
L 233.989857 171.935718 
L 234.782866 171.710617 
L 236.496582 171.228691 
L 237.443675 170.964983 
L 238.897066 170.563905 
L 240.05711 170.246884 
L 241.166922 169.946145 
L 242.134855 169.685877 
L 244.073884 169.170102 
L 244.375962 169.090419 
L 246.09005 168.641652 
L 246.631903 168.500976 
L 248.469436 168.028119 
L 249.050454 167.879945 
L 250.503705 167.512122 
L 252.577096 166.994171 
L 253.501057 166.765916 
L 254.050364 166.630957 
L 255.054684 166.385623 
L 256.461931 166.044925 
L 258.53706 165.548975 
L 259.000943 165.439148 
L 260.041727 165.194105 
L 261.91259 164.758348 
L 263.275249 164.444736 
L 264.31623 164.207276 
L 265.512497 163.93664 
L 266.610437 163.690344 
L 267.972308 163.3876 
L 268.110152 163.357126 
L 269.365878 163.080939 
L 271.073703 162.709391 
z
" style="fill:#cde0eb;opacity:0.5;"/>
   </g>
   <g id="matplotlib.axis_1">
    <g id="xtick_1">
     <g id="line2d_1">
      <defs>
       <path d="M 0 0 
L 0 3.5 
" id="m50b30a986e" style="stroke:#000000;stroke-width:0.8;"/>
      </defs>
      <g>
       <use style="stroke:#000000;stroke-width:0.8;" x="33.710938" xlink:href="#m50b30a986e" y="285.477533"/>
      </g>
     </g>
    </g>
    <g id="xtick_2">
     <g id="line2d_2">
      <g>
       <use style="stroke:#000000;stroke-width:0.8;" x="73.941915" xlink:href="#m50b30a986e" y="285.477533"/>
      </g>
     </g>
     <g id="text_1">
      <!-- 0.2 -->
      <defs>
       <path d="M 31.78125 66.40625 
Q 24.171875 66.40625 20.328125 58.90625 
Q 16.5 51.421875 16.5 36.375 
Q 16.5 21.390625 20.328125 13.890625 
Q 24.171875 6.390625 31.78125 6.390625 
Q 39.453125 6.390625 43.28125 13.890625 
Q 47.125 21.390625 47.125 36.375 
Q 47.125 51.421875 43.28125 58.90625 
Q 39.453125 66.40625 31.78125 66.40625 
z
M 31.78125 74.21875 
Q 44.046875 74.21875 50.515625 64.515625 
Q 56.984375 54.828125 56.984375 36.375 
Q 56.984375 17.96875 50.515625 8.265625 
Q 44.046875 -1.421875 31.78125 -1.421875 
Q 19.53125 -1.421875 13.0625 8.265625 
Q 6.59375 17.96875 6.59375 36.375 
Q 6.59375 54.828125 13.0625 64.515625 
Q 19.53125 74.21875 31.78125 74.21875 
z
" id="DejaVuSans-48"/>
       <path d="M 10.6875 12.40625 
L 21 12.40625 
L 21 0 
L 10.6875 0 
z
" id="DejaVuSans-46"/>
       <path d="M 19.1875 8.296875 
L 53.609375 8.296875 
L 53.609375 0 
L 7.328125 0 
L 7.328125 8.296875 
Q 12.9375 14.109375 22.625 23.890625 
Q 32.328125 33.6875 34.8125 36.53125 
Q 39.546875 41.84375 41.421875 45.53125 
Q 43.3125 49.21875 43.3125 52.78125 
Q 43.3125 58.59375 39.234375 62.25 
Q 35.15625 65.921875 28.609375 65.921875 
Q 23.96875 65.921875 18.8125 64.3125 
Q 13.671875 62.703125 7.8125 59.421875 
L 7.8125 69.390625 
Q 13.765625 71.78125 18.9375 73 
Q 24.125 74.21875 28.421875 74.21875 
Q 39.75 74.21875 46.484375 68.546875 
Q 53.21875 62.890625 53.21875 53.421875 
Q 53.21875 48.921875 51.53125 44.890625 
Q 49.859375 40.875 45.40625 35.40625 
Q 44.1875 33.984375 37.640625 27.21875 
Q 31.109375 20.453125 19.1875 8.296875 
z
" id="DejaVuSans-50"/>
      </defs>
      <g transform="translate(65.990352 300.07597)scale(0.1 -0.1)">
       <use xlink:href="#DejaVuSans-48"/>
       <use x="63.623047" xlink:href="#DejaVuSans-46"/>
       <use x="95.410156" xlink:href="#DejaVuSans-50"/>
      </g>
     </g>
    </g>
    <g id="xtick_3">
     <g id="line2d_3">
      <g>
       <use style="stroke:#000000;stroke-width:0.8;" x="114.172892" xlink:href="#m50b30a986e" y="285.477533"/>
      </g>
     </g>
     <g id="text_2">
      <!-- 0.4 -->
      <defs>
       <path d="M 37.796875 64.3125 
L 12.890625 25.390625 
L 37.796875 25.390625 
z
M 35.203125 72.90625 
L 47.609375 72.90625 
L 47.609375 25.390625 
L 58.015625 25.390625 
L 58.015625 17.1875 
L 47.609375 17.1875 
L 47.609375 0 
L 37.796875 0 
L 37.796875 17.1875 
L 4.890625 17.1875 
L 4.890625 26.703125 
z
" id="DejaVuSans-52"/>
      </defs>
      <g transform="translate(106.221329 300.07597)scale(0.1 -0.1)">
       <use xlink:href="#DejaVuSans-48"/>
       <use x="63.623047" xlink:href="#DejaVuSans-46"/>
       <use x="95.410156" xlink:href="#DejaVuSans-52"/>
      </g>
     </g>
    </g>
    <g id="xtick_4">
     <g id="line2d_4">
      <g>
       <use style="stroke:#000000;stroke-width:0.8;" x="154.403869" xlink:href="#m50b30a986e" y="285.477533"/>
      </g>
     </g>
     <g id="text_3">
      <!-- 0.6 -->
      <defs>
       <path d="M 33.015625 40.375 
Q 26.375 40.375 22.484375 35.828125 
Q 18.609375 31.296875 18.609375 23.390625 
Q 18.609375 15.53125 22.484375 10.953125 
Q 26.375 6.390625 33.015625 6.390625 
Q 39.65625 6.390625 43.53125 10.953125 
Q 47.40625 15.53125 47.40625 23.390625 
Q 47.40625 31.296875 43.53125 35.828125 
Q 39.65625 40.375 33.015625 40.375 
z
M 52.59375 71.296875 
L 52.59375 62.3125 
Q 48.875 64.0625 45.09375 64.984375 
Q 41.3125 65.921875 37.59375 65.921875 
Q 27.828125 65.921875 22.671875 59.328125 
Q 17.53125 52.734375 16.796875 39.40625 
Q 19.671875 43.65625 24.015625 45.921875 
Q 28.375 48.1875 33.59375 48.1875 
Q 44.578125 48.1875 50.953125 41.515625 
Q 57.328125 34.859375 57.328125 23.390625 
Q 57.328125 12.15625 50.6875 5.359375 
Q 44.046875 -1.421875 33.015625 -1.421875 
Q 20.359375 -1.421875 13.671875 8.265625 
Q 6.984375 17.96875 6.984375 36.375 
Q 6.984375 53.65625 15.1875 63.9375 
Q 23.390625 74.21875 37.203125 74.21875 
Q 40.921875 74.21875 44.703125 73.484375 
Q 48.484375 72.75 52.59375 71.296875 
z
" id="DejaVuSans-54"/>
      </defs>
      <g transform="translate(146.452306 300.07597)scale(0.1 -0.1)">
       <use xlink:href="#DejaVuSans-48"/>
       <use x="63.623047" xlink:href="#DejaVuSans-46"/>
       <use x="95.410156" xlink:href="#DejaVuSans-54"/>
      </g>
     </g>
    </g>
    <g id="xtick_5">
     <g id="line2d_5">
      <g>
       <use style="stroke:#000000;stroke-width:0.8;" x="194.634846" xlink:href="#m50b30a986e" y="285.477533"/>
      </g>
     </g>
     <g id="text_4">
      <!-- 0.8 -->
      <defs>
       <path d="M 31.78125 34.625 
Q 24.75 34.625 20.71875 30.859375 
Q 16.703125 27.09375 16.703125 20.515625 
Q 16.703125 13.921875 20.71875 10.15625 
Q 24.75 6.390625 31.78125 6.390625 
Q 38.8125 6.390625 42.859375 10.171875 
Q 46.921875 13.96875 46.921875 20.515625 
Q 46.921875 27.09375 42.890625 30.859375 
Q 38.875 34.625 31.78125 34.625 
z
M 21.921875 38.8125 
Q 15.578125 40.375 12.03125 44.71875 
Q 8.5 49.078125 8.5 55.328125 
Q 8.5 64.0625 14.71875 69.140625 
Q 20.953125 74.21875 31.78125 74.21875 
Q 42.671875 74.21875 48.875 69.140625 
Q 55.078125 64.0625 55.078125 55.328125 
Q 55.078125 49.078125 51.53125 44.71875 
Q 48 40.375 41.703125 38.8125 
Q 48.828125 37.15625 52.796875 32.3125 
Q 56.78125 27.484375 56.78125 20.515625 
Q 56.78125 9.90625 50.3125 4.234375 
Q 43.84375 -1.421875 31.78125 -1.421875 
Q 19.734375 -1.421875 13.25 4.234375 
Q 6.78125 9.90625 6.78125 20.515625 
Q 6.78125 27.484375 10.78125 32.3125 
Q 14.796875 37.15625 21.921875 38.8125 
z
M 18.3125 54.390625 
Q 18.3125 48.734375 21.84375 45.5625 
Q 25.390625 42.390625 31.78125 42.390625 
Q 38.140625 42.390625 41.71875 45.5625 
Q 45.3125 48.734375 45.3125 54.390625 
Q 45.3125 60.0625 41.71875 63.234375 
Q 38.140625 66.40625 31.78125 66.40625 
Q 25.390625 66.40625 21.84375 63.234375 
Q 18.3125 60.0625 18.3125 54.390625 
z
" id="DejaVuSans-56"/>
      </defs>
      <g transform="translate(186.683284 300.07597)scale(0.1 -0.1)">
       <use xlink:href="#DejaVuSans-48"/>
       <use x="63.623047" xlink:href="#DejaVuSans-46"/>
       <use x="95.410156" xlink:href="#DejaVuSans-56"/>
      </g>
     </g>
    </g>
    <g id="xtick_6">
     <g id="line2d_6">
      <g>
       <use style="stroke:#000000;stroke-width:0.8;" x="234.865823" xlink:href="#m50b30a986e" y="285.477533"/>
      </g>
     </g>
     <g id="text_5">
      <!-- 1 -->
      <defs>
       <path d="M 12.40625 8.296875 
L 28.515625 8.296875 
L 28.515625 63.921875 
L 10.984375 60.40625 
L 10.984375 69.390625 
L 28.421875 72.90625 
L 38.28125 72.90625 
L 38.28125 8.296875 
L 54.390625 8.296875 
L 54.390625 0 
L 12.40625 0 
z
" id="DejaVuSans-49"/>
      </defs>
      <g transform="translate(231.684573 300.07597)scale(0.1 -0.1)">
       <use xlink:href="#DejaVuSans-49"/>
      </g>
     </g>
    </g>
    <g id="xtick_7">
     <g id="line2d_7">
      <g>
       <use style="stroke:#000000;stroke-width:0.8;" x="275.0968" xlink:href="#m50b30a986e" y="285.477533"/>
      </g>
     </g>
     <g id="text_6">
      <!-- 1.2 -->
      <g transform="translate(267.145238 300.07597)scale(0.1 -0.1)">
       <use xlink:href="#DejaVuSans-49"/>
       <use x="63.623047" xlink:href="#DejaVuSans-46"/>
       <use x="95.410156" xlink:href="#DejaVuSans-50"/>
      </g>
     </g>
    </g>
    <g id="text_7">
     <!-- $x$ -->
     <defs>
      <path d="M 7.8125 2.875 
Q 9.578125 1.515625 12.796875 1.515625 
Q 15.921875 1.515625 18.3125 4.515625 
Q 20.703125 7.515625 21.578125 11.078125 
L 26.125 28.8125 
Q 27.203125 33.640625 27.203125 35.40625 
Q 27.203125 37.890625 25.8125 39.75 
Q 24.421875 41.609375 21.921875 41.609375 
Q 18.75 41.609375 15.96875 39.625 
Q 13.1875 37.640625 11.28125 34.59375 
Q 9.375 31.546875 8.59375 28.421875 
Q 8.40625 27.78125 7.8125 27.78125 
L 6.59375 27.78125 
Q 5.8125 27.78125 5.8125 28.71875 
L 5.8125 29 
Q 6.78125 32.71875 9.125 36.25 
Q 11.46875 39.796875 14.859375 41.984375 
Q 18.265625 44.1875 22.125 44.1875 
Q 25.78125 44.1875 28.734375 42.234375 
Q 31.6875 40.28125 32.90625 36.921875 
Q 34.625 39.984375 37.28125 42.078125 
Q 39.9375 44.1875 43.109375 44.1875 
Q 45.265625 44.1875 47.5 43.421875 
Q 49.75 42.671875 51.171875 41.109375 
Q 52.59375 39.546875 52.59375 37.203125 
Q 52.59375 34.671875 50.953125 32.828125 
Q 49.3125 31 46.78125 31 
Q 45.171875 31 44.09375 32.03125 
Q 43.015625 33.0625 43.015625 34.625 
Q 43.015625 36.71875 44.453125 38.296875 
Q 45.90625 39.890625 47.90625 40.1875 
Q 46.09375 41.609375 42.921875 41.609375 
Q 39.703125 41.609375 37.328125 38.625 
Q 34.96875 35.640625 33.984375 31.984375 
L 29.59375 14.3125 
Q 28.515625 10.296875 28.515625 7.71875 
Q 28.515625 5.171875 29.953125 3.34375 
Q 31.390625 1.515625 33.796875 1.515625 
Q 38.484375 1.515625 42.15625 5.640625 
Q 45.84375 9.765625 47.015625 14.703125 
Q 47.21875 15.28125 47.796875 15.28125 
L 49.03125 15.28125 
Q 49.421875 15.28125 49.65625 15.015625 
Q 49.90625 14.75 49.90625 14.40625 
Q 49.90625 14.3125 49.8125 14.109375 
Q 48.390625 8.15625 43.84375 3.515625 
Q 39.3125 -1.125 33.59375 -1.125 
Q 29.9375 -1.125 26.984375 0.84375 
Q 24.03125 2.828125 22.796875 6.203125 
Q 21.234375 3.265625 18.46875 1.0625 
Q 15.71875 -1.125 12.59375 -1.125 
Q 10.453125 -1.125 8.171875 -0.359375 
Q 5.90625 0.390625 4.484375 1.953125 
Q 3.078125 3.515625 3.078125 5.90625 
Q 3.078125 8.25 4.703125 10.171875 
Q 6.34375 12.109375 8.796875 12.109375 
Q 10.453125 12.109375 11.578125 11.109375 
Q 12.703125 10.109375 12.703125 8.5 
Q 12.703125 6.390625 11.296875 4.828125 
Q 9.90625 3.265625 7.8125 2.875 
z
" id="Cmmi10-120"/>
     </defs>
     <g transform="translate(332.242962 285.477533)scale(0.16 -0.16)">
      <use transform="translate(0 0.8125)" xlink:href="#Cmmi10-120"/>
     </g>
    </g>
   </g>
   <g id="matplotlib.axis_2">
    <g id="ytick_1">
     <g id="line2d_8">
      <defs>
       <path d="M 0 0 
L -3.5 0 
" id="m13947f23fd" style="stroke:#000000;stroke-width:0.8;"/>
      </defs>
      <g>
       <use style="stroke:#000000;stroke-width:0.8;" x="33.710938" xlink:href="#m13947f23fd" y="317.662315"/>
      </g>
     </g>
     <g id="text_8">
      <!-- -0.2 -->
      <defs>
       <path d="M 4.890625 31.390625 
L 31.203125 31.390625 
L 31.203125 23.390625 
L 4.890625 23.390625 
z
" id="DejaVuSans-45"/>
      </defs>
      <g transform="translate(7.2 321.461533)scale(0.1 -0.1)">
       <use xlink:href="#DejaVuSans-45"/>
       <use x="36.083984" xlink:href="#DejaVuSans-48"/>
       <use x="99.707031" xlink:href="#DejaVuSans-46"/>
       <use x="131.494141" xlink:href="#DejaVuSans-50"/>
      </g>
     </g>
    </g>
    <g id="ytick_2">
     <g id="line2d_9">
      <g>
       <use style="stroke:#000000;stroke-width:0.8;" x="33.710938" xlink:href="#m13947f23fd" y="253.292751"/>
      </g>
     </g>
     <g id="text_9">
      <!-- 0.2 -->
      <g transform="translate(10.807812 257.09197)scale(0.1 -0.1)">
       <use xlink:href="#DejaVuSans-48"/>
       <use x="63.623047" xlink:href="#DejaVuSans-46"/>
       <use x="95.410156" xlink:href="#DejaVuSans-50"/>
      </g>
     </g>
    </g>
    <g id="ytick_3">
     <g id="line2d_10">
      <g>
       <use style="stroke:#000000;stroke-width:0.8;" x="33.710938" xlink:href="#m13947f23fd" y="188.923188"/>
      </g>
     </g>
     <g id="text_10">
      <!-- 0.6 -->
      <g transform="translate(10.807812 192.722407)scale(0.1 -0.1)">
       <use xlink:href="#DejaVuSans-48"/>
       <use x="63.623047" xlink:href="#DejaVuSans-46"/>
       <use x="95.410156" xlink:href="#DejaVuSans-54"/>
      </g>
     </g>
    </g>
    <g id="ytick_4">
     <g id="line2d_11">
      <g>
       <use style="stroke:#000000;stroke-width:0.8;" x="33.710938" xlink:href="#m13947f23fd" y="124.553624"/>
      </g>
     </g>
     <g id="text_11">
      <!-- 1 -->
      <g transform="translate(20.348437 128.352843)scale(0.1 -0.1)">
       <use xlink:href="#DejaVuSans-49"/>
      </g>
     </g>
    </g>
    <g id="text_12">
     <!-- $y$ -->
     <defs>
      <path d="M 8.40625 -14.3125 
Q 10.5 -17.921875 15.71875 -17.921875 
Q 20.453125 -17.921875 23.921875 -14.59375 
Q 27.390625 -11.28125 29.515625 -6.5625 
Q 31.640625 -1.859375 32.8125 3.078125 
Q 28.375 -1.125 23.1875 -1.125 
Q 19.234375 -1.125 16.453125 0.234375 
Q 13.671875 1.609375 12.125 4.3125 
Q 10.59375 7.03125 10.59375 10.890625 
Q 10.59375 14.15625 11.46875 17.59375 
Q 12.359375 21.046875 13.9375 25.265625 
Q 15.53125 29.5 16.703125 32.625 
Q 18.015625 36.28125 18.015625 38.625 
Q 18.015625 41.609375 15.828125 41.609375 
Q 11.859375 41.609375 9.296875 37.53125 
Q 6.734375 33.453125 5.515625 28.421875 
Q 5.328125 27.78125 4.6875 27.78125 
L 3.515625 27.78125 
Q 2.6875 27.78125 2.6875 28.71875 
L 2.6875 29 
Q 4.296875 34.96875 7.609375 39.578125 
Q 10.9375 44.1875 16.015625 44.1875 
Q 19.578125 44.1875 22.046875 41.84375 
Q 24.515625 39.5 24.515625 35.890625 
Q 24.515625 34.03125 23.6875 31.984375 
Q 23.25 30.765625 21.6875 26.65625 
Q 20.125 22.5625 19.28125 19.875 
Q 18.453125 17.1875 17.921875 14.59375 
Q 17.390625 12.015625 17.390625 9.421875 
Q 17.390625 6.109375 18.796875 3.8125 
Q 20.21875 1.515625 23.296875 1.515625 
Q 29.5 1.515625 34.421875 9.078125 
L 42 39.890625 
Q 42.328125 41.21875 43.546875 42.15625 
Q 44.78125 43.109375 46.1875 43.109375 
Q 47.40625 43.109375 48.3125 42.328125 
Q 49.21875 41.546875 49.21875 40.28125 
Q 49.21875 39.703125 49.125 39.5 
L 39.203125 -0.296875 
Q 37.890625 -5.421875 34.375 -10.109375 
Q 30.859375 -14.796875 25.90625 -17.65625 
Q 20.953125 -20.515625 15.578125 -20.515625 
Q 12.984375 -20.515625 10.4375 -19.5 
Q 7.90625 -18.5 6.34375 -16.5 
Q 4.78125 -14.5 4.78125 -11.8125 
Q 4.78125 -9.078125 6.390625 -7.078125 
Q 8.015625 -5.078125 10.6875 -5.078125 
Q 12.3125 -5.078125 13.40625 -6.078125 
Q 14.5 -7.078125 14.5 -8.6875 
Q 14.5 -10.984375 12.78125 -12.6875 
Q 11.078125 -14.40625 8.796875 -14.40625 
Q 8.6875 -14.359375 8.59375 -14.328125 
Q 8.5 -14.3125 8.40625 -14.3125 
z
" id="Cmmi10-121"/>
     </defs>
     <g transform="translate(29.710938 89.152)scale(0.16 -0.16)">
      <use transform="translate(0 0.8125)" xlink:href="#Cmmi10-121"/>
     </g>
    </g>
   </g>
   <g id="patch_4">
    <path clip-path="url(#pbba88d4cce)" d="M 234.865823 132.59982 
Q 252.969763 147.654605 269.784242 161.637108 
" style="fill:none;stroke:#000000;stroke-linecap:round;stroke-width:1.5;"/>
    <path clip-path="url(#pbba88d4cce)" d="M 267.987472 157.541791 
L 269.784242 161.637108 
L 265.429927 160.617334 
L 267.987472 157.541791 
z
" style="stroke:#000000;stroke-linecap:round;stroke-width:1.5;"/>
   </g>
   <g id="line2d_12">
    <path clip-path="url(#pbba88d4cce)" d="M 33.710938 285.477533 
L 57.597781 266.501383 
L 70.169411 256.77833 
L 81.211162 248.494472 
L 91.860728 240.787544 
L 101.912966 233.80517 
L 110.679398 227.968878 
L 119.57861 222.29888 
L 127.525909 217.459272 
L 137.313765 211.793968 
L 146.5927 206.724777 
L 155.598936 202.082432 
L 163.307641 198.322155 
L 171.681586 194.454405 
L 180.487459 190.623002 
L 190.065362 186.718924 
L 199.321991 183.193935 
L 209.061005 179.734158 
L 218.634616 176.567236 
L 228.075315 173.657245 
L 238.897066 170.563905 
L 249.050454 167.879945 
L 260.041727 165.194105 
L 271.073703 162.709391 
L 271.073703 162.709391 
" style="fill:none;stroke:#0000cc;stroke-linecap:square;stroke-width:1.5;"/>
   </g>
   <g id="line2d_13">
    <path clip-path="url(#pbba88d4cce)" d="M 33.710938 285.477533 
L 67.678091 312.520417 
L 80.207904 322.2157 
L 89.844672 329.408646 
L 98.424057 335.524305 
L 104.161083 339.416476 
L 110.668143 343.595868 
L 117.02053 347.390661 
L 121.911648 350.089888 
L 127.179691 352.750761 
L 131.22912 354.60333 
L 135.84665 356.490415 
L 139.68548 357.860514 
L 143.748321 359.097597 
L 148.136981 360.168451 
L 151.232034 360.746124 
L 155.273242 361.264203 
L 158.961692 361.489041 
L 161.054353 361.505619 
L 164.930781 361.312955 
L 168.16096 360.92005 
L 170.86977 360.419491 
L 174.617916 359.456994 
L 178.28464 358.197147 
L 181.035167 357.035429 
L 184.664089 355.205189 
L 188.199709 353.081716 
L 191.08552 351.088405 
L 193.722972 349.054091 
L 196.811836 346.404006 
L 200.095818 343.257918 
L 202.642451 340.576507 
L 206.218998 336.44059 
L 209.673329 332.019949 
L 212.805886 327.634769 
L 216.310224 322.288574 
L 219.77539 316.52731 
L 223.168004 310.411769 
L 226.018471 304.897514 
L 229.665687 297.323641 
L 232.694185 290.577737 
L 236.098935 282.481631 
L 239.374903 274.163289 
L 242.616978 265.403926 
L 245.910715 255.950833 
L 249.500193 244.992229 
L 253.450829 232.112063 
L 257.102418 219.417073 
L 260.616905 206.457812 
L 264.612051 190.813901 
L 268.764251 173.490833 
L 271.073703 163.37205 
L 271.073703 163.37205 
" style="fill:none;stroke:#3ccc00;stroke-linecap:square;stroke-width:1.5;"/>
   </g>
   <g id="line2d_14">
    <path clip-path="url(#pbba88d4cce)" d="M 33.710938 285.477533 
L 57.515685 266.565699 
L 71.722612 255.597009 
L 81.672675 248.154385 
L 92.362214 240.432215 
L 102.364558 233.498618 
L 110.858753 227.852036 
L 119.904686 222.096122 
L 128.481812 216.891589 
L 137.238362 211.836362 
L 146.127312 206.972065 
L 155.557512 202.103165 
L 164.885179 197.576441 
L 174.188162 193.339578 
L 183.482513 189.373291 
L 193.291144 185.463504 
L 202.889917 181.897588 
L 212.319381 178.630988 
L 223.457219 175.055181 
L 234.438986 171.808066 
L 243.683392 169.273373 
L 254.05014 166.631011 
L 265.272137 163.990826 
L 277.545196 161.343036 
L 289.514644 158.980064 
L 302.265903 156.678269 
L 316.940936 154.276384 
L 318.546256 154.028456 
L 318.546256 154.028456 
" style="fill:none;stroke:#ff0000;stroke-linecap:square;stroke-width:1.5;"/>
   </g>
   <g id="line2d_15">
    <path clip-path="url(#pbba88d4cce)" d="M 33.710938 285.477533 
L 57.781722 266.357312 
L 71.035717 256.118838 
L 81.72625 248.11494 
L 92.49285 240.33977 
L 101.863625 233.838702 
L 109.957113 228.440473 
L 119.132925 222.57659 
L 128.311218 216.992672 
L 138.185962 211.305 
L 146.050858 207.01276 
L 155.140981 202.311961 
L 163.656773 198.156428 
L 172.536985 194.071763 
L 181.528243 190.185702 
L 190.70271 186.46855 
L 198.438498 183.520204 
L 207.411136 180.302957 
L 217.982328 176.775945 
L 228.5259 173.523407 
L 238.963512 170.545672 
L 249.768304 167.697758 
L 261.056351 164.957033 
L 272.92661 162.311524 
L 282.941841 160.252103 
L 282.941841 160.252103 
" style="fill:none;stroke:#ff0000;stroke-linecap:square;stroke-width:1.5;"/>
   </g>
   <g id="line2d_16">
    <path clip-path="url(#pbba88d4cce)" d="M 33.710938 285.477533 
L 67.538428 312.410826 
L 80.441205 322.393051 
L 89.662622 329.275604 
L 98.474097 335.558999 
L 105.581236 340.351389 
L 111.049306 343.83199 
L 117.935034 347.910929 
L 123.289225 350.81154 
L 128.550567 353.39758 
L 132.544172 355.16612 
L 137.375504 357.058566 
L 142.149857 358.638058 
L 146.361907 359.769874 
L 149.695344 360.478306 
L 154.120642 361.144636 
L 157.066723 361.404044 
L 160.978753 361.506462 
L 164.854196 361.319658 
L 167.723569 360.986039 
L 171.130978 360.362718 
L 174.714727 359.42785 
L 178.355871 358.169445 
L 180.40578 357.318086 
L 183.490519 355.834983 
L 185.48516 354.74259 
L 189.032844 352.530705 
L 192.238399 350.22457 
L 194.740952 348.213096 
L 197.671598 345.613599 
L 200.916936 342.416787 
L 204.508701 338.473255 
L 208.071162 334.123457 
L 210.919293 330.319395 
L 214.475973 325.145962 
L 217.559955 320.266126 
L 220.877596 314.592844 
L 223.510232 309.7681 
L 227.470247 301.953479 
L 231.11727 294.142903 
L 234.672127 285.94151 
L 238.456333 276.549005 
L 241.823099 267.598188 
L 245.337134 257.637953 
L 249.143578 246.112242 
L 252.737545 234.502395 
L 255.962129 223.464436 
L 259.917016 209.097643 
L 264.045485 193.092698 
L 267.97381 176.873941 
L 271.677867 160.666717 
L 275.754027 141.771119 
L 279.412688 123.834274 
L 282.941841 105.629538 
L 282.941841 105.629538 
" style="fill:none;stroke:#0000ff;stroke-linecap:square;stroke-width:1.5;"/>
   </g>
   <g id="patch_5">
    <path d="M 33.710938 366.624 
L 33.710938 100.512 
" style="fill:none;stroke:#000000;stroke-linecap:square;stroke-linejoin:miter;stroke-width:0.8;"/>
   </g>
   <g id="patch_6">
    <path d="M 28.014231 285.477533 
L 324.242962 285.477533 
" style="fill:none;stroke:#000000;stroke-linecap:square;stroke-linejoin:miter;stroke-width:0.8;"/>
   </g>
  </g>
  <g id="axes_2">
   <g id="patch_7">
    <path d="M 101.248597 110.88 
L 239.488597 110.88 
L 239.488597 7.2 
L 101.248597 7.2 
z
" style="fill:#ffffff;"/>
   </g>
   <g id="matplotlib.axis_3">
    <g id="xtick_8">
     <g id="line2d_17">
      <path clip-path="url(#p9039440d8b)" d="M 103.907058 110.88 
L 103.907058 7.2 
" style="fill:none;stroke:#000000;stroke-dasharray:0.5,0.825;stroke-dashoffset:0;stroke-width:0.5;"/>
     </g>
     <g id="line2d_18">
      <g>
       <use style="stroke:#000000;stroke-width:0.8;" x="103.907058" xlink:href="#m50b30a986e" y="108.886154"/>
      </g>
     </g>
     <g id="text_13">
      <!-- $1.00$ -->
      <defs>
       <path d="M 9.28125 0 
L 9.28125 3.515625 
Q 21.78125 3.515625 21.78125 6.6875 
L 21.78125 59.1875 
Q 16.609375 56.6875 8.6875 56.6875 
L 8.6875 60.203125 
Q 20.953125 60.203125 27.203125 66.609375 
L 28.609375 66.609375 
Q 28.953125 66.609375 29.265625 66.328125 
Q 29.59375 66.0625 29.59375 65.71875 
L 29.59375 6.6875 
Q 29.59375 3.515625 42.09375 3.515625 
L 42.09375 0 
z
" id="Cmr10-49"/>
       <path d="M 8.40625 5.515625 
Q 8.40625 7.765625 10.0625 9.375 
Q 11.71875 10.984375 13.921875 10.984375 
Q 15.28125 10.984375 16.59375 10.25 
Q 17.921875 9.515625 18.65625 8.203125 
Q 19.390625 6.890625 19.390625 5.515625 
Q 19.390625 3.328125 17.765625 1.65625 
Q 16.15625 0 13.921875 0 
Q 11.71875 0 10.0625 1.65625 
Q 8.40625 3.328125 8.40625 5.515625 
z
" id="Cmmi10-58"/>
       <path d="M 25 -2.203125 
Q 12.75 -2.203125 8.328125 7.875 
Q 3.90625 17.96875 3.90625 31.890625 
Q 3.90625 40.578125 5.484375 48.234375 
Q 7.078125 55.90625 11.78125 61.25 
Q 16.5 66.609375 25 66.609375 
Q 31.59375 66.609375 35.78125 63.375 
Q 39.984375 60.15625 42.1875 55.046875 
Q 44.390625 49.953125 45.1875 44.109375 
Q 46 38.28125 46 31.890625 
Q 46 23.296875 44.40625 15.796875 
Q 42.828125 8.296875 38.1875 3.046875 
Q 33.546875 -2.203125 25 -2.203125 
z
M 25 0.390625 
Q 30.5625 0.390625 33.296875 6.09375 
Q 36.03125 11.8125 36.671875 18.75 
Q 37.3125 25.6875 37.3125 33.5 
Q 37.3125 41.015625 36.671875 47.359375 
Q 36.03125 53.71875 33.3125 58.859375 
Q 30.609375 64.015625 25 64.015625 
Q 19.34375 64.015625 16.609375 58.828125 
Q 13.875 53.65625 13.234375 47.328125 
Q 12.59375 41.015625 12.59375 33.5 
Q 12.59375 27.9375 12.859375 23 
Q 13.140625 18.0625 14.3125 12.8125 
Q 15.484375 7.5625 18.09375 3.96875 
Q 20.703125 0.390625 25 0.390625 
z
" id="Cmr10-48"/>
      </defs>
      <g transform="translate(95.007058 123.484591)scale(0.1 -0.1)">
       <use transform="translate(0 0.390625)" xlink:href="#Cmr10-49"/>
       <use transform="translate(50 0.390625)" xlink:href="#Cmmi10-58"/>
       <use transform="translate(77.685547 0.390625)" xlink:href="#Cmr10-48"/>
       <use transform="translate(127.685547 0.390625)" xlink:href="#Cmr10-48"/>
      </g>
     </g>
    </g>
    <g id="xtick_9">
     <g id="line2d_19">
      <path clip-path="url(#p9039440d8b)" d="M 137.137827 110.88 
L 137.137827 7.2 
" style="fill:none;stroke:#000000;stroke-dasharray:0.5,0.825;stroke-dashoffset:0;stroke-width:0.5;"/>
     </g>
     <g id="line2d_20">
      <g>
       <use style="stroke:#000000;stroke-width:0.8;" x="137.137827" xlink:href="#m50b30a986e" y="108.886154"/>
      </g>
     </g>
     <g id="text_14">
      <!-- $1.00$ -->
      <g transform="translate(128.237827 123.484591)scale(0.1 -0.1)">
       <use transform="translate(0 0.390625)" xlink:href="#Cmr10-49"/>
       <use transform="translate(50 0.390625)" xlink:href="#Cmmi10-58"/>
       <use transform="translate(77.685547 0.390625)" xlink:href="#Cmr10-48"/>
       <use transform="translate(127.685547 0.390625)" xlink:href="#Cmr10-48"/>
      </g>
     </g>
    </g>
    <g id="xtick_10">
     <g id="line2d_21">
      <path clip-path="url(#p9039440d8b)" d="M 170.368597 110.88 
L 170.368597 7.2 
" style="fill:none;stroke:#000000;stroke-dasharray:0.5,0.825;stroke-dashoffset:0;stroke-width:0.5;"/>
     </g>
     <g id="line2d_22">
      <g>
       <use style="stroke:#000000;stroke-width:0.8;" x="170.368597" xlink:href="#m50b30a986e" y="108.886154"/>
      </g>
     </g>
     <g id="text_15">
      <!-- $1.10$ -->
      <g transform="translate(161.468597 123.484591)scale(0.1 -0.1)">
       <use transform="translate(0 0.390625)" xlink:href="#Cmr10-49"/>
       <use transform="translate(50 0.390625)" xlink:href="#Cmmi10-58"/>
       <use transform="translate(77.685547 0.390625)" xlink:href="#Cmr10-49"/>
       <use transform="translate(127.685547 0.390625)" xlink:href="#Cmr10-48"/>
      </g>
     </g>
    </g>
    <g id="xtick_11">
     <g id="line2d_23">
      <path clip-path="url(#p9039440d8b)" d="M 203.599366 110.88 
L 203.599366 7.2 
" style="fill:none;stroke:#000000;stroke-dasharray:0.5,0.825;stroke-dashoffset:0;stroke-width:0.5;"/>
     </g>
     <g id="line2d_24">
      <g>
       <use style="stroke:#000000;stroke-width:0.8;" x="203.599366" xlink:href="#m50b30a986e" y="108.886154"/>
      </g>
     </g>
     <g id="text_16">
      <!-- $1.14$ -->
      <defs>
       <path d="M 2.78125 16.5 
L 2.78125 20.015625 
L 33.6875 66.109375 
Q 34.03125 66.609375 34.71875 66.609375 
L 36.1875 66.609375 
Q 37.3125 66.609375 37.3125 65.484375 
L 37.3125 20.015625 
L 47.125 20.015625 
L 47.125 16.5 
L 37.3125 16.5 
L 37.3125 6.6875 
Q 37.3125 4.640625 40.234375 4.078125 
Q 43.171875 3.515625 47.015625 3.515625 
L 47.015625 0 
L 19.484375 0 
L 19.484375 3.515625 
Q 23.34375 3.515625 26.265625 4.078125 
Q 29.203125 4.640625 29.203125 6.6875 
L 29.203125 16.5 
z
M 6.109375 20.015625 
L 29.78125 20.015625 
L 29.78125 55.421875 
z
" id="Cmr10-52"/>
      </defs>
      <g transform="translate(194.699366 123.484591)scale(0.1 -0.1)">
       <use transform="translate(0 0.390625)" xlink:href="#Cmr10-49"/>
       <use transform="translate(50 0.390625)" xlink:href="#Cmmi10-58"/>
       <use transform="translate(77.685547 0.390625)" xlink:href="#Cmr10-49"/>
       <use transform="translate(127.685547 0.390625)" xlink:href="#Cmr10-52"/>
      </g>
     </g>
    </g>
    <g id="xtick_12">
     <g id="line2d_25">
      <path clip-path="url(#p9039440d8b)" d="M 236.830135 110.88 
L 236.830135 7.2 
" style="fill:none;stroke:#000000;stroke-dasharray:0.5,0.825;stroke-dashoffset:0;stroke-width:0.5;"/>
     </g>
     <g id="line2d_26">
      <g>
       <use style="stroke:#000000;stroke-width:0.8;" x="236.830135" xlink:href="#m50b30a986e" y="108.886154"/>
      </g>
     </g>
     <g id="text_17">
      <!-- $1.20$ -->
      <defs>
       <path d="M 4.984375 0 
L 4.984375 2.6875 
Q 4.984375 2.9375 5.171875 3.21875 
L 20.703125 20.40625 
Q 24.21875 24.21875 26.40625 26.796875 
Q 28.609375 29.390625 30.75 32.765625 
Q 32.90625 36.140625 34.15625 39.625 
Q 35.40625 43.109375 35.40625 47.015625 
Q 35.40625 51.125 33.890625 54.859375 
Q 32.375 58.59375 29.375 60.84375 
Q 26.375 63.09375 22.125 63.09375 
Q 17.78125 63.09375 14.3125 60.46875 
Q 10.84375 57.859375 9.421875 53.71875 
Q 9.8125 53.8125 10.5 53.8125 
Q 12.75 53.8125 14.328125 52.296875 
Q 15.921875 50.78125 15.921875 48.390625 
Q 15.921875 46.09375 14.328125 44.5 
Q 12.75 42.921875 10.5 42.921875 
Q 8.15625 42.921875 6.5625 44.546875 
Q 4.984375 46.1875 4.984375 48.390625 
Q 4.984375 52.15625 6.390625 55.4375 
Q 7.8125 58.734375 10.46875 61.296875 
Q 13.140625 63.875 16.484375 65.234375 
Q 19.828125 66.609375 23.578125 66.609375 
Q 29.296875 66.609375 34.21875 64.1875 
Q 39.15625 61.765625 42.03125 57.34375 
Q 44.921875 52.9375 44.921875 47.015625 
Q 44.921875 42.671875 43.015625 38.765625 
Q 41.109375 34.859375 38.125 31.65625 
Q 35.15625 28.46875 30.515625 24.40625 
Q 25.875 20.359375 24.421875 19 
L 13.09375 8.109375 
L 22.703125 8.109375 
Q 29.78125 8.109375 34.546875 8.21875 
Q 39.3125 8.34375 39.59375 8.59375 
Q 40.765625 9.859375 42 17.828125 
L 44.921875 17.828125 
L 42.09375 0 
z
" id="Cmr10-50"/>
      </defs>
      <g transform="translate(227.930135 123.484591)scale(0.1 -0.1)">
       <use transform="translate(0 0.390625)" xlink:href="#Cmr10-49"/>
       <use transform="translate(50 0.390625)" xlink:href="#Cmmi10-58"/>
       <use transform="translate(77.685547 0.390625)" xlink:href="#Cmr10-50"/>
       <use transform="translate(127.685547 0.390625)" xlink:href="#Cmr10-48"/>
      </g>
     </g>
    </g>
    <g id="xtick_13">
     <g id="line2d_27">
      <defs>
       <path d="M 0 0 
L 0 2 
" id="me4940132b3" style="stroke:#000000;stroke-width:0.6;"/>
      </defs>
      <g>
       <use style="stroke:#000000;stroke-width:0.6;" x="110.553212" xlink:href="#me4940132b3" y="108.886154"/>
      </g>
     </g>
    </g>
    <g id="xtick_14">
     <g id="line2d_28">
      <g>
       <use style="stroke:#000000;stroke-width:0.6;" x="117.199366" xlink:href="#me4940132b3" y="108.886154"/>
      </g>
     </g>
    </g>
    <g id="xtick_15">
     <g id="line2d_29">
      <g>
       <use style="stroke:#000000;stroke-width:0.6;" x="123.84552" xlink:href="#me4940132b3" y="108.886154"/>
      </g>
     </g>
    </g>
    <g id="xtick_16">
     <g id="line2d_30">
      <g>
       <use style="stroke:#000000;stroke-width:0.6;" x="130.491673" xlink:href="#me4940132b3" y="108.886154"/>
      </g>
     </g>
    </g>
    <g id="xtick_17">
     <g id="line2d_31">
      <g>
       <use style="stroke:#000000;stroke-width:0.6;" x="143.783981" xlink:href="#me4940132b3" y="108.886154"/>
      </g>
     </g>
    </g>
    <g id="xtick_18">
     <g id="line2d_32">
      <g>
       <use style="stroke:#000000;stroke-width:0.6;" x="150.430135" xlink:href="#me4940132b3" y="108.886154"/>
      </g>
     </g>
    </g>
    <g id="xtick_19">
     <g id="line2d_33">
      <g>
       <use style="stroke:#000000;stroke-width:0.6;" x="157.076289" xlink:href="#me4940132b3" y="108.886154"/>
      </g>
     </g>
    </g>
    <g id="xtick_20">
     <g id="line2d_34">
      <g>
       <use style="stroke:#000000;stroke-width:0.6;" x="163.722443" xlink:href="#me4940132b3" y="108.886154"/>
      </g>
     </g>
    </g>
    <g id="xtick_21">
     <g id="line2d_35">
      <g>
       <use style="stroke:#000000;stroke-width:0.6;" x="177.01475" xlink:href="#me4940132b3" y="108.886154"/>
      </g>
     </g>
    </g>
    <g id="xtick_22">
     <g id="line2d_36">
      <g>
       <use style="stroke:#000000;stroke-width:0.6;" x="183.660904" xlink:href="#me4940132b3" y="108.886154"/>
      </g>
     </g>
    </g>
    <g id="xtick_23">
     <g id="line2d_37">
      <g>
       <use style="stroke:#000000;stroke-width:0.6;" x="190.307058" xlink:href="#me4940132b3" y="108.886154"/>
      </g>
     </g>
    </g>
    <g id="xtick_24">
     <g id="line2d_38">
      <g>
       <use style="stroke:#000000;stroke-width:0.6;" x="196.953212" xlink:href="#me4940132b3" y="108.886154"/>
      </g>
     </g>
    </g>
    <g id="xtick_25">
     <g id="line2d_39">
      <g>
       <use style="stroke:#000000;stroke-width:0.6;" x="210.24552" xlink:href="#me4940132b3" y="108.886154"/>
      </g>
     </g>
    </g>
    <g id="xtick_26">
     <g id="line2d_40">
      <g>
       <use style="stroke:#000000;stroke-width:0.6;" x="216.891673" xlink:href="#me4940132b3" y="108.886154"/>
      </g>
     </g>
    </g>
    <g id="xtick_27">
     <g id="line2d_41">
      <g>
       <use style="stroke:#000000;stroke-width:0.6;" x="223.537827" xlink:href="#me4940132b3" y="108.886154"/>
      </g>
     </g>
    </g>
    <g id="xtick_28">
     <g id="line2d_42">
      <g>
       <use style="stroke:#000000;stroke-width:0.6;" x="230.183981" xlink:href="#me4940132b3" y="108.886154"/>
      </g>
     </g>
    </g>
   </g>
   <g id="matplotlib.axis_4">
    <g id="ytick_5">
     <g id="line2d_43">
      <path clip-path="url(#p9039440d8b)" d="M 101.248597 108.886154 
L 239.488597 108.886154 
" style="fill:none;stroke:#000000;stroke-dasharray:0.5,0.825;stroke-dashoffset:0;stroke-width:0.5;"/>
     </g>
     <g id="line2d_44">
      <g>
       <use style="stroke:#000000;stroke-width:0.8;" x="91.248597" xlink:href="#m13947f23fd" y="108.886154"/>
      </g>
     </g>
     <g id="text_18">
      <!-- $0.00$ -->
      <g transform="translate(66.448597 112.685373)scale(0.1 -0.1)">
       <use transform="translate(0 0.390625)" xlink:href="#Cmr10-48"/>
       <use transform="translate(50 0.390625)" xlink:href="#Cmmi10-58"/>
       <use transform="translate(77.685547 0.390625)" xlink:href="#Cmr10-48"/>
       <use transform="translate(127.685547 0.390625)" xlink:href="#Cmr10-48"/>
      </g>
     </g>
    </g>
    <g id="ytick_6">
     <g id="line2d_45">
      <path clip-path="url(#p9039440d8b)" d="M 101.248597 86.062823 
L 239.488597 86.062823 
" style="fill:none;stroke:#000000;stroke-dasharray:0.5,0.825;stroke-dashoffset:0;stroke-width:0.5;"/>
     </g>
     <g id="line2d_46">
      <g>
       <use style="stroke:#000000;stroke-width:0.8;" x="91.248597" xlink:href="#m13947f23fd" y="86.062823"/>
      </g>
     </g>
     <g id="text_19">
      <!-- $0.20$ -->
      <g transform="translate(66.448597 89.862042)scale(0.1 -0.1)">
       <use transform="translate(0 0.390625)" xlink:href="#Cmr10-48"/>
       <use transform="translate(50 0.390625)" xlink:href="#Cmmi10-58"/>
       <use transform="translate(77.685547 0.390625)" xlink:href="#Cmr10-50"/>
       <use transform="translate(127.685547 0.390625)" xlink:href="#Cmr10-48"/>
      </g>
     </g>
    </g>
    <g id="ytick_7">
     <g id="line2d_47">
      <path clip-path="url(#p9039440d8b)" d="M 101.248597 63.239493 
L 239.488597 63.239493 
" style="fill:none;stroke:#000000;stroke-dasharray:0.5,0.825;stroke-dashoffset:0;stroke-width:0.5;"/>
     </g>
     <g id="line2d_48">
      <g>
       <use style="stroke:#000000;stroke-width:0.8;" x="91.248597" xlink:href="#m13947f23fd" y="63.239493"/>
      </g>
     </g>
     <g id="text_20">
      <!-- $0.40$ -->
      <g transform="translate(66.448597 67.038712)scale(0.1 -0.1)">
       <use transform="translate(0 0.390625)" xlink:href="#Cmr10-48"/>
       <use transform="translate(50 0.390625)" xlink:href="#Cmmi10-58"/>
       <use transform="translate(77.685547 0.390625)" xlink:href="#Cmr10-52"/>
       <use transform="translate(127.685547 0.390625)" xlink:href="#Cmr10-48"/>
      </g>
     </g>
    </g>
    <g id="ytick_8">
     <g id="line2d_49">
      <path clip-path="url(#p9039440d8b)" d="M 101.248597 40.416162 
L 239.488597 40.416162 
" style="fill:none;stroke:#000000;stroke-dasharray:0.5,0.825;stroke-dashoffset:0;stroke-width:0.5;"/>
     </g>
     <g id="line2d_50">
      <g>
       <use style="stroke:#000000;stroke-width:0.8;" x="91.248597" xlink:href="#m13947f23fd" y="40.416162"/>
      </g>
     </g>
     <g id="text_21">
      <!-- $0.60$ -->
      <defs>
       <path d="M 25 -2.203125 
Q 18.796875 -2.203125 14.640625 1.09375 
Q 10.5 4.390625 8.21875 9.640625 
Q 5.953125 14.890625 5.078125 20.65625 
Q 4.203125 26.421875 4.203125 32.328125 
Q 4.203125 40.234375 7.28125 48.1875 
Q 10.359375 56.15625 16.328125 61.375 
Q 22.3125 66.609375 30.515625 66.609375 
Q 33.9375 66.609375 36.890625 65.3125 
Q 39.84375 64.015625 41.53125 61.5 
Q 43.21875 58.984375 43.21875 55.421875 
Q 43.21875 53.375 41.828125 51.984375 
Q 40.4375 50.59375 38.375 50.59375 
Q 36.421875 50.59375 35 52 
Q 33.59375 53.421875 33.59375 55.421875 
Q 33.59375 57.375 35 58.78125 
Q 36.421875 60.203125 38.375 60.203125 
L 38.921875 60.203125 
Q 37.640625 62.015625 35.328125 62.859375 
Q 33.015625 63.71875 30.515625 63.71875 
Q 27.484375 63.71875 24.921875 62.390625 
Q 22.359375 61.078125 20.3125 58.828125 
Q 18.265625 56.59375 16.890625 53.875 
Q 15.53125 51.171875 14.765625 47.703125 
Q 14.015625 44.234375 13.8125 41.203125 
Q 13.625 38.1875 13.625 33.59375 
Q 15.375 37.703125 18.59375 40.3125 
Q 21.828125 42.921875 25.875 42.921875 
Q 30.328125 42.921875 33.984375 41.109375 
Q 37.640625 39.3125 40.28125 36.109375 
Q 42.921875 32.90625 44.3125 28.796875 
Q 45.703125 24.703125 45.703125 20.515625 
Q 45.703125 14.65625 43.09375 9.34375 
Q 40.484375 4.046875 35.734375 0.921875 
Q 31 -2.203125 25 -2.203125 
z
M 25 0.984375 
Q 28.859375 0.984375 31.203125 2.734375 
Q 33.546875 4.5 34.640625 7.390625 
Q 35.75 10.296875 36.015625 13.25 
Q 36.28125 16.21875 36.28125 20.515625 
Q 36.28125 26.171875 35.734375 30.171875 
Q 35.203125 34.1875 32.8125 37.234375 
Q 30.421875 40.28125 25.484375 40.28125 
Q 21.4375 40.28125 18.828125 37.546875 
Q 16.21875 34.8125 15.015625 30.640625 
Q 13.8125 26.46875 13.8125 22.609375 
Q 13.8125 21.296875 13.921875 20.609375 
Q 13.921875 20.453125 13.890625 20.359375 
Q 13.875 20.265625 13.8125 20.125 
Q 13.8125 15.828125 14.6875 11.421875 
Q 15.578125 7.03125 18.0625 4 
Q 20.5625 0.984375 25 0.984375 
z
" id="Cmr10-54"/>
      </defs>
      <g transform="translate(66.448597 44.215381)scale(0.1 -0.1)">
       <use transform="translate(0 0.390625)" xlink:href="#Cmr10-48"/>
       <use transform="translate(50 0.390625)" xlink:href="#Cmmi10-58"/>
       <use transform="translate(77.685547 0.390625)" xlink:href="#Cmr10-54"/>
       <use transform="translate(127.685547 0.390625)" xlink:href="#Cmr10-48"/>
      </g>
     </g>
    </g>
    <g id="ytick_9">
     <g id="line2d_51">
      <path clip-path="url(#p9039440d8b)" d="M 101.248597 17.592832 
L 239.488597 17.592832 
" style="fill:none;stroke:#000000;stroke-dasharray:0.5,0.825;stroke-dashoffset:0;stroke-width:0.5;"/>
     </g>
     <g id="line2d_52">
      <g>
       <use style="stroke:#000000;stroke-width:0.8;" x="91.248597" xlink:href="#m13947f23fd" y="17.592832"/>
      </g>
     </g>
     <g id="text_22">
      <!-- $0.80$ -->
      <defs>
       <path d="M 4.203125 15.1875 
Q 4.203125 21.1875 8.15625 25.796875 
Q 12.109375 30.421875 18.3125 33.5 
L 14.59375 35.890625 
Q 11.1875 38.140625 9.03125 41.875 
Q 6.890625 45.609375 6.890625 49.703125 
Q 6.890625 54.5 9.40625 58.34375 
Q 11.921875 62.203125 16.09375 64.40625 
Q 20.265625 66.609375 25 66.609375 
Q 29.4375 66.609375 33.5625 64.796875 
Q 37.703125 62.984375 40.359375 59.609375 
Q 43.015625 56.25 43.015625 51.609375 
Q 43.015625 48.25 41.421875 45.359375 
Q 39.84375 42.484375 37.078125 40.1875 
Q 34.328125 37.890625 31.203125 36.28125 
L 36.921875 32.625 
Q 40.875 30.03125 43.28125 25.828125 
Q 45.703125 21.625 45.703125 17 
Q 45.703125 11.578125 42.796875 7.125 
Q 39.890625 2.6875 35.109375 0.234375 
Q 30.328125 -2.203125 25 -2.203125 
Q 19.828125 -2.203125 15.015625 -0.09375 
Q 10.203125 2 7.203125 5.984375 
Q 4.203125 9.96875 4.203125 15.1875 
z
M 9.625 15.1875 
Q 9.625 11.234375 11.796875 7.953125 
Q 13.96875 4.6875 17.53125 2.828125 
Q 21.09375 0.984375 25 0.984375 
Q 30.8125 0.984375 35.546875 4.375 
Q 40.28125 7.765625 40.28125 13.375 
Q 40.28125 15.28125 39.515625 17.15625 
Q 38.765625 19.046875 37.421875 20.578125 
Q 36.078125 22.125 34.421875 23.09375 
L 21 31.78125 
Q 17.875 30.125 15.25 27.578125 
Q 12.640625 25.046875 11.125 21.875 
Q 9.625 18.703125 9.625 15.1875 
z
M 16.5 45.703125 
L 28.609375 37.890625 
Q 32.8125 40.328125 35.5 43.796875 
Q 38.1875 47.265625 38.1875 51.609375 
Q 38.1875 54.984375 36.296875 57.78125 
Q 34.421875 60.59375 31.390625 62.15625 
Q 28.375 63.71875 24.90625 63.71875 
Q 21.875 63.71875 18.796875 62.546875 
Q 15.71875 61.375 13.71875 59.046875 
Q 11.71875 56.734375 11.71875 53.609375 
Q 11.71875 48.921875 16.5 45.703125 
z
" id="Cmr10-56"/>
      </defs>
      <g transform="translate(66.448597 21.392051)scale(0.1 -0.1)">
       <use transform="translate(0 0.390625)" xlink:href="#Cmr10-48"/>
       <use transform="translate(50 0.390625)" xlink:href="#Cmmi10-58"/>
       <use transform="translate(77.685547 0.390625)" xlink:href="#Cmr10-56"/>
       <use transform="translate(127.685547 0.390625)" xlink:href="#Cmr10-48"/>
      </g>
     </g>
    </g>
    <g id="ytick_10">
     <g id="line2d_53">
      <defs>
       <path d="M 0 0 
L -2 0 
" id="ma3573cb4f2" style="stroke:#000000;stroke-width:0.6;"/>
      </defs>
      <g>
       <use style="stroke:#000000;stroke-width:0.6;" x="91.248597" xlink:href="#ma3573cb4f2" y="103.180321"/>
      </g>
     </g>
    </g>
    <g id="ytick_11">
     <g id="line2d_54">
      <g>
       <use style="stroke:#000000;stroke-width:0.6;" x="91.248597" xlink:href="#ma3573cb4f2" y="97.474489"/>
      </g>
     </g>
    </g>
    <g id="ytick_12">
     <g id="line2d_55">
      <g>
       <use style="stroke:#000000;stroke-width:0.6;" x="91.248597" xlink:href="#ma3573cb4f2" y="91.768656"/>
      </g>
     </g>
    </g>
    <g id="ytick_13">
     <g id="line2d_56">
      <g>
       <use style="stroke:#000000;stroke-width:0.6;" x="91.248597" xlink:href="#ma3573cb4f2" y="80.356991"/>
      </g>
     </g>
    </g>
    <g id="ytick_14">
     <g id="line2d_57">
      <g>
       <use style="stroke:#000000;stroke-width:0.6;" x="91.248597" xlink:href="#ma3573cb4f2" y="74.651158"/>
      </g>
     </g>
    </g>
    <g id="ytick_15">
     <g id="line2d_58">
      <g>
       <use style="stroke:#000000;stroke-width:0.6;" x="91.248597" xlink:href="#ma3573cb4f2" y="68.945325"/>
      </g>
     </g>
    </g>
    <g id="ytick_16">
     <g id="line2d_59">
      <g>
       <use style="stroke:#000000;stroke-width:0.6;" x="91.248597" xlink:href="#ma3573cb4f2" y="57.53366"/>
      </g>
     </g>
    </g>
    <g id="ytick_17">
     <g id="line2d_60">
      <g>
       <use style="stroke:#000000;stroke-width:0.6;" x="91.248597" xlink:href="#ma3573cb4f2" y="51.827828"/>
      </g>
     </g>
    </g>
    <g id="ytick_18">
     <g id="line2d_61">
      <g>
       <use style="stroke:#000000;stroke-width:0.6;" x="91.248597" xlink:href="#ma3573cb4f2" y="46.121995"/>
      </g>
     </g>
    </g>
    <g id="ytick_19">
     <g id="line2d_62">
      <g>
       <use style="stroke:#000000;stroke-width:0.6;" x="91.248597" xlink:href="#ma3573cb4f2" y="34.71033"/>
      </g>
     </g>
    </g>
    <g id="ytick_20">
     <g id="line2d_63">
      <g>
       <use style="stroke:#000000;stroke-width:0.6;" x="91.248597" xlink:href="#ma3573cb4f2" y="29.004497"/>
      </g>
     </g>
    </g>
    <g id="ytick_21">
     <g id="line2d_64">
      <g>
       <use style="stroke:#000000;stroke-width:0.6;" x="91.248597" xlink:href="#ma3573cb4f2" y="23.298664"/>
      </g>
     </g>
    </g>
    <g id="ytick_22">
     <g id="line2d_65">
      <g>
       <use style="stroke:#000000;stroke-width:0.6;" x="91.248597" xlink:href="#ma3573cb4f2" y="11.886999"/>
      </g>
     </g>
    </g>
   </g>
   <g id="line2d_66">
    <path clip-path="url(#p9039440d8b)" d="M 103.907058 28.193495 
L 144.978207 25.812253 
L 187.912968 23.547579 
L 232.88083 21.398011 
L 236.830135 21.219313 
L 236.830135 21.219313 
" style="fill:none;stroke:#ff0000;stroke-linecap:square;stroke-width:1.5;"/>
   </g>
   <g id="line2d_67">
    <path clip-path="url(#p9039440d8b)" d="M 103.907058 108.886154 
L 112.42666 104.384146 
L 121.775395 99.178155 
L 130.740369 93.917593 
L 139.315608 88.633452 
L 148.285038 82.835682 
L 156.396592 77.348216 
L 165.008368 71.262328 
L 173.805956 64.761999 
L 182.46505 58.07784 
L 190.727217 51.429196 
L 199.506775 44.067585 
L 207.78288 36.84196 
L 215.924061 29.457157 
L 224.740754 21.142946 
L 233.180899 12.868587 
L 236.830135 9.193846 
L 236.830135 9.193846 
" style="fill:none;stroke:#0000ff;stroke-linecap:square;stroke-width:1.5;"/>
   </g>
   <g id="patch_8">
    <path d="M 91.248597 110.88 
L 91.248597 7.2 
" style="fill:none;stroke:#000000;stroke-linecap:square;stroke-linejoin:miter;stroke-width:0.8;"/>
   </g>
   <g id="patch_9">
    <path d="M 101.248597 108.886154 
L 239.488597 108.886154 
" style="fill:none;stroke:#000000;stroke-linecap:square;stroke-linejoin:miter;stroke-width:0.8;"/>
   </g>
  </g>
 </g>
 <defs>
  <clipPath id="pbba88d4cce">
   <rect height="266.112" width="296.228731" x="28.014231" y="100.512"/>
  </clipPath>
  <clipPath id="p9039440d8b">
   <rect height="103.68" width="138.24" x="101.248597" y="7.2"/>
  </clipPath>
 </defs>
</svg>
