<?xml version="1.0" encoding="utf-8" standalone="no"?>
<!DOCTYPE svg PUBLIC "-//W3C//DTD SVG 1.1//EN"
  "http://www.w3.org/Graphics/SVG/1.1/DTD/svg11.dtd">
<!-- Created with matplotlib (https://matplotlib.org/) -->
<svg height="373.824pt" version="1.1" viewBox="0 0 348.719976 373.824" width="348.719976pt" xmlns="http://www.w3.org/2000/svg" xmlns:xlink="http://www.w3.org/1999/xlink">
 <defs>
  <style type="text/css">
*{stroke-linecap:butt;stroke-linejoin:round;}
  </style>
 </defs>
 <g id="figure_1">
  <g id="patch_1">
   <path d="M -0 373.824 
L 348.719976 373.824 
L 348.719976 0 
L -0 0 
z
" style="fill:#ffffff;"/>
  </g>
  <g id="axes_1">
   <g id="patch_2">
    <path d="M 28.01429 366.624 
L 324.239976 366.624 
L 324.239976 100.512 
L 28.01429 100.512 
z
" style="fill:#ffffff;"/>
   </g>
   <g id="patch_3">
    <path clip-path="url(#p01151355db)" d="M 271.071263 163.371457 
L 270.33947 166.615819 
L 269.607676 169.824813 
L 268.965363 172.612451 
L 268.071273 176.447999 
L 267.177183 180.23176 
L 266.450116 183.27078 
L 265.723048 186.276026 
L 265.129447 188.704706 
L 264.535847 191.111128 
L 264.262294 192.212633 
L 263.65541 194.639623 
L 263.048525 197.043643 
L 262.052348 200.940269 
L 261.157446 204.388699 
L 260.262544 207.788263 
L 259.431112 210.903259 
L 258.599681 213.976713 
L 257.8476 216.72131 
L 257.253824 218.864516 
L 256.660047 220.98694 
L 256.028991 223.219962 
L 255.397936 225.429768 
L 254.418058 228.815361 
L 253.678969 231.33248 
L 252.939879 233.818424 
L 252.24026 236.143077 
L 251.563128 238.366752 
L 250.885996 240.564761 
L 250.109077 243.055273 
L 249.332157 245.512446 
L 248.599596 247.799005 
L 247.642455 250.742535 
L 246.685314 253.636612 
L 246.007223 255.657249 
L 245.274718 257.812572 
L 244.542213 259.939569 
L 243.523558 262.85075 
L 242.517769 265.672299 
L 241.82666 267.580887 
L 241.135551 269.465074 
L 240.395236 271.456529 
L 239.654921 273.420369 
L 238.800585 275.652612 
L 238.132164 277.373823 
L 237.463743 279.073012 
L 237.032793 280.15692 
L 235.82947 283.135647 
L 234.665032 285.951682 
L 233.500593 288.703133 
L 232.467487 291.090795 
L 231.963863 292.236681 
L 231.256201 293.826957 
L 230.548538 295.394183 
L 229.779026 297.072418 
L 228.981119 298.784225 
L 228.183212 300.4674 
L 227.500477 301.885066 
L 226.817742 303.282084 
L 225.604659 305.713824 
L 224.914617 307.068508 
L 224.238367 308.376191 
L 223.562118 309.664295 
L 222.820832 311.053948 
L 222.079545 312.420422 
L 220.981007 314.403208 
L 220.28979 315.625183 
L 219.262836 317.404514 
L 218.235882 319.141016 
L 216.900912 321.335104 
L 216.675605 321.698423 
L 215.572954 323.447682 
L 214.470303 325.14951 
L 213.353837 326.824921 
L 212.293741 328.371818 
L 211.053996 330.12727 
L 210.692054 330.628985 
L 209.605586 332.106028 
L 208.574392 333.468073 
L 207.543198 334.791768 
L 206.237586 336.413405 
L 205.979696 336.726612 
L 205.04308 337.844598 
L 204.106465 338.932211 
L 203.56765 339.544257 
L 202.442035 340.791053 
L 201.31642 341.995302 
L 201.226187 342.090014 
L 200.226438 343.121414 
L 199.226689 344.120127 
L 198.810483 344.526359 
L 197.449017 345.816437 
L 196.444395 346.730745 
L 195.292308 347.740478 
L 194.14022 348.709337 
L 193.694053 349.07369 
L 192.728858 349.841379 
L 191.852901 350.514031 
L 190.976943 351.164049 
L 190.435932 351.554318 
L 189.3815 352.290636 
L 188.327068 352.995175 
L 187.792273 353.340499 
L 186.608346 354.076566 
L 185.413885 354.780017 
L 184.313975 355.393518 
L 183.395943 355.880773 
L 182.47791 356.345756 
L 181.403713 356.861924 
L 180.312119 357.35604 
L 179.335781 357.77238 
L 177.984781 358.309232 
L 177.207541 358.597728 
L 175.438402 359.199941 
L 174.37733 359.525436 
L 173.262837 359.839031 
L 171.855107 360.194414 
L 170.615203 360.470452 
L 169.145296 360.753716 
L 167.999964 360.941979 
L 167.75148 360.979123 
L 166.216809 361.17972 
L 164.477604 361.348153 
L 163.582263 361.410972 
L 162.753144 361.454917 
L 160.979984 361.503806 
L 159.793509 361.502871 
L 158.766379 361.480728 
L 157.99811 361.451426 
L 156.210046 361.341816 
L 155.186828 361.253529 
L 154.268952 361.158816 
L 152.822632 360.980351 
L 151.246831 360.746091 
L 150.544923 360.628655 
L 149.458758 360.431328 
L 148.41239 360.223596 
L 146.675198 359.841349 
L 145.966349 359.672247 
L 144.27264 359.238135 
L 143.289237 358.967019 
L 142.192845 358.648617 
L 141.528466 358.447535 
L 139.831329 357.906576 
L 138.826354 357.568128 
L 137.316983 357.035161 
L 136.783386 356.839801 
L 135.663919 356.418392 
L 133.423051 355.529022 
L 133.066682 355.382088 
L 131.545722 354.73849 
L 130.418319 354.244527 
L 128.702396 353.465906 
L 128.35725 353.30547 
L 126.770464 352.551821 
L 126.103369 352.227252 
L 124.597969 351.478449 
L 122.634281 350.468611 
L 121.613108 349.929152 
L 120.835603 349.512032 
L 119.420853 348.739222 
L 118.512115 348.233638 
L 117.526752 347.677513 
L 115.745167 346.651715 
L 115.165519 346.312482 
L 113.151606 345.113658 
L 112.17343 344.52039 
L 111.004045 343.802049 
L 110.527373 343.506453 
L 108.903875 342.487936 
L 107.43476 341.551101 
L 105.948896 340.589513 
L 105.819016 340.504807 
L 104.611416 339.712315 
L 103.074694 338.691372 
L 102.255822 338.141832 
L 99.913591 336.549759 
L 99.878183 336.525469 
L 97.96156 335.201159 
L 97.229089 334.690268 
L 95.822082 333.701784 
L 95.007705 333.125507 
L 92.768231 331.525865 
L 92.172425 331.096745 
L 90.86212 330.148024 
L 89.385894 329.071261 
L 88.544326 328.453825 
L 87.200722 327.462885 
L 86.694657 327.088053 
L 85.12897 325.923084 
L 83.23173 324.501217 
L 82.201648 323.72482 
L 81.800289 323.421503 
L 80.67182 322.566359 
L 79.236694 321.474068 
L 78.218452 320.696001 
L 76.92934 319.707492 
L 75.543112 318.640433 
L 74.631688 317.936681 
L 72.632983 316.387745 
L 72.01453 315.906982 
L 70.168582 314.468154 
L 69.854761 314.222999 
L 67.740474 312.567508 
L 67.35887 312.268038 
L 65.916536 311.134424 
L 64.4389 309.970426 
L 63.43516 309.178334 
L 62.344847 308.316737 
L 61.654248 307.770406 
L 60.543725 306.890961 
L 59.053464 305.709163 
L 58.130994 304.976776 
L 56.008885 303.289744 
L 54.942579 302.441025 
L 54.508229 302.09513 
L 52.645757 300.610906 
L 51.926944 300.037667 
L 50.391043 298.812161 
L 49.137036 297.810997 
L 48.271696 297.119873 
L 47.375073 296.403567 
L 45.725731 295.085471 
L 44.390318 294.017911 
L 43.209172 293.073472 
L 42.589965 292.578296 
L 40.681039 291.051534 
L 40.120726 290.603349 
L 38.799592 289.546543 
L 37.509974 288.514893 
L 36.465328 287.679191 
L 34.60524 286.191127 
L 33.710937 285.475685 
L 33.710937 285.475685 
L 34.937755 284.494249 
L 36.657806 283.118443 
L 36.786364 283.015631 
L 38.620933 281.548858 
L 39.14312 281.131523 
L 41.051991 279.606749 
L 41.513591 279.238253 
L 43.701673 277.492937 
L 44.398551 276.937637 
L 46.102242 275.581397 
L 47.245135 274.672752 
L 47.504785 274.466461 
L 48.842665 273.404409 
L 50.741248 271.900004 
L 51.483534 271.31278 
L 52.921191 270.177088 
L 53.568913 269.666156 
L 54.602271 268.852033 
L 56.756498 267.159054 
L 56.987478 266.977885 
L 58.793475 265.563858 
L 59.481293 265.026533 
L 61.044568 263.80791 
L 62.745548 262.486247 
L 63.948419 261.554457 
L 64.384433 261.217304 
L 65.479994 260.371602 
L 67.308296 258.965039 
L 68.109662 258.350468 
L 69.63602 257.183291 
L 71.219851 255.97702 
L 71.818956 255.522058 
L 73.582877 254.186881 
L 74.630322 253.397177 
L 75.374058 252.837908 
L 76.153032 252.25346 
L 78.160185 250.753896 
L 79.467006 249.782604 
L 79.816682 249.523398 
L 80.843019 248.764303 
L 82.34576 247.657511 
L 84.34007 246.19742 
L 84.548228 246.045607 
L 86.234578 244.819879 
L 86.81314 244.401072 
L 88.840377 242.940677 
L 90.166601 241.991333 
L 90.652496 241.644733 
L 91.865422 240.782402 
L 93.023133 239.963199 
L 94.808623 238.707295 
L 95.172936 238.452173 
L 97.097882 237.11062 
L 97.96875 236.507287 
L 98.861947 235.89084 
L 100.392601 234.840042 
L 101.511227 234.076614 
L 102.300905 233.539996 
L 103.89985 232.459362 
L 105.373364 231.470567 
L 106.205643 230.915092 
L 107.64665 229.958539 
L 108.451387 229.427231 
L 110.281553 228.226657 
L 111.640596 227.342148 
L 112.189446 226.986643 
L 113.111496 226.391622 
L 115.145568 225.08886 
L 115.446544 224.897253 
L 117.304174 223.721295 
L 117.941046 223.320769 
L 119.013896 222.64912 
L 120.445483 221.758888 
L 122.10291 220.736816 
L 122.691968 220.375796 
L 124.74347 219.12763 
L 126.022904 218.356421 
L 127.147705 217.683011 
L 127.431868 217.513565 
L 129.110713 216.518082 
L 130.175581 215.891637 
L 130.98407 215.418599 
L 132.922505 214.293526 
L 133.717435 213.835856 
L 135.374463 212.888781 
L 136.045894 212.507694 
L 137.213265 211.848787 
L 138.402365 211.182398 
L 139.771679 210.420986 
L 140.776008 209.866588 
L 142.413793 208.969879 
L 143.404712 208.431764 
L 144.181379 208.012328 
L 146.191452 206.936285 
L 146.47898 206.783481 
L 148.790838 205.565004 
L 149.525219 205.18171 
L 150.670122 204.587765 
L 151.805195 204.003254 
L 152.770972 203.509312 
L 153.619254 203.078027 
L 155.520644 202.120004 
L 156.305439 201.728073 
L 157.7838 200.995291 
L 158.958369 200.418212 
L 160.610863 199.61397 
L 161.353808 199.255292 
L 161.941055 198.97305 
L 163.408147 198.272821 
L 165.288185 197.385642 
L 165.955376 197.073524 
L 166.983979 196.595121 
L 168.057327 196.099496 
L 169.636443 195.376962 
L 171.110966 194.709374 
L 171.878192 194.364708 
L 173.54135 193.623849 
L 175.007239 192.977966 
L 175.580688 192.7271 
L 177.296708 191.982408 
L 178.293439 191.55398 
L 179.325816 191.1134 
L 180.855333 190.466557 
L 181.151811 190.341985 
L 183.057225 189.547627 
L 183.621281 189.314538 
L 185.675912 188.473396 
L 186.736426 188.044057 
L 186.993514 187.940469 
L 188.896258 187.17973 
L 189.90996 186.778681 
L 191.661145 186.092747 
L 192.132108 185.909751 
L 193.643365 185.326746 
L 194.734116 184.90992 
L 196.470085 184.253313 
L 197.370544 183.915986 
L 198.661272 183.436309 
L 199.584785 183.09587 
L 200.339567 182.819334 
L 201.877572 182.260554 
L 202.642432 181.985009 
L 204.162078 181.442119 
L 205.128873 181.099878 
L 206.837939 180.500807 
L 208.047932 180.081214 
L 208.496558 179.926593 
L 210.008922 179.409106 
L 211.230636 178.995275 
L 212.591102 178.538826 
L 213.547135 178.220808 
L 214.991571 177.74458 
L 215.997036 177.416078 
L 217.9509 176.784688 
L 218.136184 176.725287 
L 220.168804 176.078991 
L 221.031195 175.80772 
L 221.585551 175.63426 
L 223.548212 175.025857 
L 224.61612 174.698532 
L 226.099809 174.248065 
L 226.995017 173.978666 
L 228.256597 173.602052 
L 229.876456 173.123646 
L 230.520407 172.935062 
L 231.82176 172.556706 
L 232.453559 172.374337 
L 234.031405 171.922624 
L 234.929393 171.667907 
L 235.917697 171.389536 
L 237.963102 170.819892 
L 238.612581 170.640822 
L 240.137542 170.223764 
L 241.6351 169.818787 
L 242.802671 169.506169 
L 243.085302 169.430902 
L 244.750899 168.990545 
L 245.555081 168.779881 
L 246.716471 168.477859 
L 248.855622 167.928357 
L 249.551665 167.751437 
L 250.40663 167.535371 
L 251.972552 167.143177 
L 252.92917 166.905824 
L 254.272059 166.575463 
L 255.794699 166.204845 
L 257.122161 165.885134 
L 257.906082 165.697805 
L 259.248664 165.379492 
L 259.945428 165.215541 
L 261.541998 164.843036 
L 262.825132 164.546833 
L 264.243912 164.222573 
L 264.532856 164.156951 
L 266.724158 163.663816 
L 267.41533 163.50992 
L 268.727554 163.219891 
L 270.367257 162.8614 
L 271.071263 162.708805 
z
" style="fill:#cde0eb;opacity:0.5;"/>
   </g>
   <g id="matplotlib.axis_1">
    <g id="xtick_1">
     <g id="line2d_1">
      <defs>
       <path d="M 0 0 
L 0 3.5 
" id="m324f42d8d3" style="stroke:#000000;stroke-width:0.8;"/>
      </defs>
      <g>
       <use style="stroke:#000000;stroke-width:0.8;" x="33.710937" xlink:href="#m324f42d8d3" y="285.475685"/>
      </g>
     </g>
    </g>
    <g id="xtick_2">
     <g id="line2d_2">
      <g>
       <use style="stroke:#000000;stroke-width:0.8;" x="73.941501" xlink:href="#m324f42d8d3" y="285.475685"/>
      </g>
     </g>
     <g id="text_1">
      <!-- 0.2 -->
      <defs>
       <path d="M 31.78125 66.40625 
Q 24.171875 66.40625 20.328125 58.90625 
Q 16.5 51.421875 16.5 36.375 
Q 16.5 21.390625 20.328125 13.890625 
Q 24.171875 6.390625 31.78125 6.390625 
Q 39.453125 6.390625 43.28125 13.890625 
Q 47.125 21.390625 47.125 36.375 
Q 47.125 51.421875 43.28125 58.90625 
Q 39.453125 66.40625 31.78125 66.40625 
z
M 31.78125 74.21875 
Q 44.046875 74.21875 50.515625 64.515625 
Q 56.984375 54.828125 56.984375 36.375 
Q 56.984375 17.96875 50.515625 8.265625 
Q 44.046875 -1.421875 31.78125 -1.421875 
Q 19.53125 -1.421875 13.0625 8.265625 
Q 6.59375 17.96875 6.59375 36.375 
Q 6.59375 54.828125 13.0625 64.515625 
Q 19.53125 74.21875 31.78125 74.21875 
z
" id="DejaVuSans-48"/>
       <path d="M 10.6875 12.40625 
L 21 12.40625 
L 21 0 
L 10.6875 0 
z
" id="DejaVuSans-46"/>
       <path d="M 19.1875 8.296875 
L 53.609375 8.296875 
L 53.609375 0 
L 7.328125 0 
L 7.328125 8.296875 
Q 12.9375 14.109375 22.625 23.890625 
Q 32.328125 33.6875 34.8125 36.53125 
Q 39.546875 41.84375 41.421875 45.53125 
Q 43.3125 49.21875 43.3125 52.78125 
Q 43.3125 58.59375 39.234375 62.25 
Q 35.15625 65.921875 28.609375 65.921875 
Q 23.96875 65.921875 18.8125 64.3125 
Q 13.671875 62.703125 7.8125 59.421875 
L 7.8125 69.390625 
Q 13.765625 71.78125 18.9375 73 
Q 24.125 74.21875 28.421875 74.21875 
Q 39.75 74.21875 46.484375 68.546875 
Q 53.21875 62.890625 53.21875 53.421875 
Q 53.21875 48.921875 51.53125 44.890625 
Q 49.859375 40.875 45.40625 35.40625 
Q 44.1875 33.984375 37.640625 27.21875 
Q 31.109375 20.453125 19.1875 8.296875 
z
" id="DejaVuSans-50"/>
      </defs>
      <g transform="translate(65.989939 300.074122)scale(0.1 -0.1)">
       <use xlink:href="#DejaVuSans-48"/>
       <use x="63.623047" xlink:href="#DejaVuSans-46"/>
       <use x="95.410156" xlink:href="#DejaVuSans-50"/>
      </g>
     </g>
    </g>
    <g id="xtick_3">
     <g id="line2d_3">
      <g>
       <use style="stroke:#000000;stroke-width:0.8;" x="114.172065" xlink:href="#m324f42d8d3" y="285.475685"/>
      </g>
     </g>
     <g id="text_2">
      <!-- 0.4 -->
      <defs>
       <path d="M 37.796875 64.3125 
L 12.890625 25.390625 
L 37.796875 25.390625 
z
M 35.203125 72.90625 
L 47.609375 72.90625 
L 47.609375 25.390625 
L 58.015625 25.390625 
L 58.015625 17.1875 
L 47.609375 17.1875 
L 47.609375 0 
L 37.796875 0 
L 37.796875 17.1875 
L 4.890625 17.1875 
L 4.890625 26.703125 
z
" id="DejaVuSans-52"/>
      </defs>
      <g transform="translate(106.220502 300.074122)scale(0.1 -0.1)">
       <use xlink:href="#DejaVuSans-48"/>
       <use x="63.623047" xlink:href="#DejaVuSans-46"/>
       <use x="95.410156" xlink:href="#DejaVuSans-52"/>
      </g>
     </g>
    </g>
    <g id="xtick_4">
     <g id="line2d_4">
      <g>
       <use style="stroke:#000000;stroke-width:0.8;" x="154.402629" xlink:href="#m324f42d8d3" y="285.475685"/>
      </g>
     </g>
     <g id="text_3">
      <!-- 0.6 -->
      <defs>
       <path d="M 33.015625 40.375 
Q 26.375 40.375 22.484375 35.828125 
Q 18.609375 31.296875 18.609375 23.390625 
Q 18.609375 15.53125 22.484375 10.953125 
Q 26.375 6.390625 33.015625 6.390625 
Q 39.65625 6.390625 43.53125 10.953125 
Q 47.40625 15.53125 47.40625 23.390625 
Q 47.40625 31.296875 43.53125 35.828125 
Q 39.65625 40.375 33.015625 40.375 
z
M 52.59375 71.296875 
L 52.59375 62.3125 
Q 48.875 64.0625 45.09375 64.984375 
Q 41.3125 65.921875 37.59375 65.921875 
Q 27.828125 65.921875 22.671875 59.328125 
Q 17.53125 52.734375 16.796875 39.40625 
Q 19.671875 43.65625 24.015625 45.921875 
Q 28.375 48.1875 33.59375 48.1875 
Q 44.578125 48.1875 50.953125 41.515625 
Q 57.328125 34.859375 57.328125 23.390625 
Q 57.328125 12.15625 50.6875 5.359375 
Q 44.046875 -1.421875 33.015625 -1.421875 
Q 20.359375 -1.421875 13.671875 8.265625 
Q 6.984375 17.96875 6.984375 36.375 
Q 6.984375 53.65625 15.1875 63.9375 
Q 23.390625 74.21875 37.203125 74.21875 
Q 40.921875 74.21875 44.703125 73.484375 
Q 48.484375 72.75 52.59375 71.296875 
z
" id="DejaVuSans-54"/>
      </defs>
      <g transform="translate(146.451066 300.074122)scale(0.1 -0.1)">
       <use xlink:href="#DejaVuSans-48"/>
       <use x="63.623047" xlink:href="#DejaVuSans-46"/>
       <use x="95.410156" xlink:href="#DejaVuSans-54"/>
      </g>
     </g>
    </g>
    <g id="xtick_5">
     <g id="line2d_5">
      <g>
       <use style="stroke:#000000;stroke-width:0.8;" x="194.633192" xlink:href="#m324f42d8d3" y="285.475685"/>
      </g>
     </g>
     <g id="text_4">
      <!-- 0.8 -->
      <defs>
       <path d="M 31.78125 34.625 
Q 24.75 34.625 20.71875 30.859375 
Q 16.703125 27.09375 16.703125 20.515625 
Q 16.703125 13.921875 20.71875 10.15625 
Q 24.75 6.390625 31.78125 6.390625 
Q 38.8125 6.390625 42.859375 10.171875 
Q 46.921875 13.96875 46.921875 20.515625 
Q 46.921875 27.09375 42.890625 30.859375 
Q 38.875 34.625 31.78125 34.625 
z
M 21.921875 38.8125 
Q 15.578125 40.375 12.03125 44.71875 
Q 8.5 49.078125 8.5 55.328125 
Q 8.5 64.0625 14.71875 69.140625 
Q 20.953125 74.21875 31.78125 74.21875 
Q 42.671875 74.21875 48.875 69.140625 
Q 55.078125 64.0625 55.078125 55.328125 
Q 55.078125 49.078125 51.53125 44.71875 
Q 48 40.375 41.703125 38.8125 
Q 48.828125 37.15625 52.796875 32.3125 
Q 56.78125 27.484375 56.78125 20.515625 
Q 56.78125 9.90625 50.3125 4.234375 
Q 43.84375 -1.421875 31.78125 -1.421875 
Q 19.734375 -1.421875 13.25 4.234375 
Q 6.78125 9.90625 6.78125 20.515625 
Q 6.78125 27.484375 10.78125 32.3125 
Q 14.796875 37.15625 21.921875 38.8125 
z
M 18.3125 54.390625 
Q 18.3125 48.734375 21.84375 45.5625 
Q 25.390625 42.390625 31.78125 42.390625 
Q 38.140625 42.390625 41.71875 45.5625 
Q 45.3125 48.734375 45.3125 54.390625 
Q 45.3125 60.0625 41.71875 63.234375 
Q 38.140625 66.40625 31.78125 66.40625 
Q 25.390625 66.40625 21.84375 63.234375 
Q 18.3125 60.0625 18.3125 54.390625 
z
" id="DejaVuSans-56"/>
      </defs>
      <g transform="translate(186.68163 300.074122)scale(0.1 -0.1)">
       <use xlink:href="#DejaVuSans-48"/>
       <use x="63.623047" xlink:href="#DejaVuSans-46"/>
       <use x="95.410156" xlink:href="#DejaVuSans-56"/>
      </g>
     </g>
    </g>
    <g id="xtick_6">
     <g id="line2d_6">
      <g>
       <use style="stroke:#000000;stroke-width:0.8;" x="234.863756" xlink:href="#m324f42d8d3" y="285.475685"/>
      </g>
     </g>
     <g id="text_5">
      <!-- 1 -->
      <defs>
       <path d="M 12.40625 8.296875 
L 28.515625 8.296875 
L 28.515625 63.921875 
L 10.984375 60.40625 
L 10.984375 69.390625 
L 28.421875 72.90625 
L 38.28125 72.90625 
L 38.28125 8.296875 
L 54.390625 8.296875 
L 54.390625 0 
L 12.40625 0 
z
" id="DejaVuSans-49"/>
      </defs>
      <g transform="translate(231.682506 300.074122)scale(0.1 -0.1)">
       <use xlink:href="#DejaVuSans-49"/>
      </g>
     </g>
    </g>
    <g id="xtick_7">
     <g id="line2d_7">
      <g>
       <use style="stroke:#000000;stroke-width:0.8;" x="275.09432" xlink:href="#m324f42d8d3" y="285.475685"/>
      </g>
     </g>
     <g id="text_6">
      <!-- 1.2 -->
      <g transform="translate(267.142757 300.074122)scale(0.1 -0.1)">
       <use xlink:href="#DejaVuSans-49"/>
       <use x="63.623047" xlink:href="#DejaVuSans-46"/>
       <use x="95.410156" xlink:href="#DejaVuSans-50"/>
      </g>
     </g>
    </g>
    <g id="text_7">
     <!-- $x$ -->
     <defs>
      <path d="M 7.8125 2.875 
Q 9.578125 1.515625 12.796875 1.515625 
Q 15.921875 1.515625 18.3125 4.515625 
Q 20.703125 7.515625 21.578125 11.078125 
L 26.125 28.8125 
Q 27.203125 33.640625 27.203125 35.40625 
Q 27.203125 37.890625 25.8125 39.75 
Q 24.421875 41.609375 21.921875 41.609375 
Q 18.75 41.609375 15.96875 39.625 
Q 13.1875 37.640625 11.28125 34.59375 
Q 9.375 31.546875 8.59375 28.421875 
Q 8.40625 27.78125 7.8125 27.78125 
L 6.59375 27.78125 
Q 5.8125 27.78125 5.8125 28.71875 
L 5.8125 29 
Q 6.78125 32.71875 9.125 36.25 
Q 11.46875 39.796875 14.859375 41.984375 
Q 18.265625 44.1875 22.125 44.1875 
Q 25.78125 44.1875 28.734375 42.234375 
Q 31.6875 40.28125 32.90625 36.921875 
Q 34.625 39.984375 37.28125 42.078125 
Q 39.9375 44.1875 43.109375 44.1875 
Q 45.265625 44.1875 47.5 43.421875 
Q 49.75 42.671875 51.171875 41.109375 
Q 52.59375 39.546875 52.59375 37.203125 
Q 52.59375 34.671875 50.953125 32.828125 
Q 49.3125 31 46.78125 31 
Q 45.171875 31 44.09375 32.03125 
Q 43.015625 33.0625 43.015625 34.625 
Q 43.015625 36.71875 44.453125 38.296875 
Q 45.90625 39.890625 47.90625 40.1875 
Q 46.09375 41.609375 42.921875 41.609375 
Q 39.703125 41.609375 37.328125 38.625 
Q 34.96875 35.640625 33.984375 31.984375 
L 29.59375 14.3125 
Q 28.515625 10.296875 28.515625 7.71875 
Q 28.515625 5.171875 29.953125 3.34375 
Q 31.390625 1.515625 33.796875 1.515625 
Q 38.484375 1.515625 42.15625 5.640625 
Q 45.84375 9.765625 47.015625 14.703125 
Q 47.21875 15.28125 47.796875 15.28125 
L 49.03125 15.28125 
Q 49.421875 15.28125 49.65625 15.015625 
Q 49.90625 14.75 49.90625 14.40625 
Q 49.90625 14.3125 49.8125 14.109375 
Q 48.390625 8.15625 43.84375 3.515625 
Q 39.3125 -1.125 33.59375 -1.125 
Q 29.9375 -1.125 26.984375 0.84375 
Q 24.03125 2.828125 22.796875 6.203125 
Q 21.234375 3.265625 18.46875 1.0625 
Q 15.71875 -1.125 12.59375 -1.125 
Q 10.453125 -1.125 8.171875 -0.359375 
Q 5.90625 0.390625 4.484375 1.953125 
Q 3.078125 3.515625 3.078125 5.90625 
Q 3.078125 8.25 4.703125 10.171875 
Q 6.34375 12.109375 8.796875 12.109375 
Q 10.453125 12.109375 11.578125 11.109375 
Q 12.703125 10.109375 12.703125 8.5 
Q 12.703125 6.390625 11.296875 4.828125 
Q 9.90625 3.265625 7.8125 2.875 
z
" id="Cmmi10-120"/>
     </defs>
     <g transform="translate(332.239976 285.475685)scale(0.16 -0.16)">
      <use transform="translate(0 0.8125)" xlink:href="#Cmmi10-120"/>
     </g>
    </g>
   </g>
   <g id="matplotlib.axis_2">
    <g id="ytick_1">
     <g id="line2d_8">
      <defs>
       <path d="M 0 0 
L -3.5 0 
" id="m71b59f8292" style="stroke:#000000;stroke-width:0.8;"/>
      </defs>
      <g>
       <use style="stroke:#000000;stroke-width:0.8;" x="33.710937" xlink:href="#m71b59f8292" y="317.660136"/>
      </g>
     </g>
     <g id="text_8">
      <!-- -0.2 -->
      <defs>
       <path d="M 4.890625 31.390625 
L 31.203125 31.390625 
L 31.203125 23.390625 
L 4.890625 23.390625 
z
" id="DejaVuSans-45"/>
      </defs>
      <g transform="translate(7.2 321.459354)scale(0.1 -0.1)">
       <use xlink:href="#DejaVuSans-45"/>
       <use x="36.083984" xlink:href="#DejaVuSans-48"/>
       <use x="99.707031" xlink:href="#DejaVuSans-46"/>
       <use x="131.494141" xlink:href="#DejaVuSans-50"/>
      </g>
     </g>
    </g>
    <g id="ytick_2">
     <g id="line2d_9">
      <g>
       <use style="stroke:#000000;stroke-width:0.8;" x="33.710937" xlink:href="#m71b59f8292" y="253.291234"/>
      </g>
     </g>
     <g id="text_9">
      <!-- 0.2 -->
      <g transform="translate(10.807812 257.090453)scale(0.1 -0.1)">
       <use xlink:href="#DejaVuSans-48"/>
       <use x="63.623047" xlink:href="#DejaVuSans-46"/>
       <use x="95.410156" xlink:href="#DejaVuSans-50"/>
      </g>
     </g>
    </g>
    <g id="ytick_3">
     <g id="line2d_10">
      <g>
       <use style="stroke:#000000;stroke-width:0.8;" x="33.710937" xlink:href="#m71b59f8292" y="188.922332"/>
      </g>
     </g>
     <g id="text_10">
      <!-- 0.6 -->
      <g transform="translate(10.807812 192.721551)scale(0.1 -0.1)">
       <use xlink:href="#DejaVuSans-48"/>
       <use x="63.623047" xlink:href="#DejaVuSans-46"/>
       <use x="95.410156" xlink:href="#DejaVuSans-54"/>
      </g>
     </g>
    </g>
    <g id="ytick_4">
     <g id="line2d_11">
      <g>
       <use style="stroke:#000000;stroke-width:0.8;" x="33.710937" xlink:href="#m71b59f8292" y="124.55343"/>
      </g>
     </g>
     <g id="text_11">
      <!-- 1 -->
      <g transform="translate(20.348437 128.352649)scale(0.1 -0.1)">
       <use xlink:href="#DejaVuSans-49"/>
      </g>
     </g>
    </g>
    <g id="text_12">
     <!-- $y$ -->
     <defs>
      <path d="M 8.40625 -14.3125 
Q 10.5 -17.921875 15.71875 -17.921875 
Q 20.453125 -17.921875 23.921875 -14.59375 
Q 27.390625 -11.28125 29.515625 -6.5625 
Q 31.640625 -1.859375 32.8125 3.078125 
Q 28.375 -1.125 23.1875 -1.125 
Q 19.234375 -1.125 16.453125 0.234375 
Q 13.671875 1.609375 12.125 4.3125 
Q 10.59375 7.03125 10.59375 10.890625 
Q 10.59375 14.15625 11.46875 17.59375 
Q 12.359375 21.046875 13.9375 25.265625 
Q 15.53125 29.5 16.703125 32.625 
Q 18.015625 36.28125 18.015625 38.625 
Q 18.015625 41.609375 15.828125 41.609375 
Q 11.859375 41.609375 9.296875 37.53125 
Q 6.734375 33.453125 5.515625 28.421875 
Q 5.328125 27.78125 4.6875 27.78125 
L 3.515625 27.78125 
Q 2.6875 27.78125 2.6875 28.71875 
L 2.6875 29 
Q 4.296875 34.96875 7.609375 39.578125 
Q 10.9375 44.1875 16.015625 44.1875 
Q 19.578125 44.1875 22.046875 41.84375 
Q 24.515625 39.5 24.515625 35.890625 
Q 24.515625 34.03125 23.6875 31.984375 
Q 23.25 30.765625 21.6875 26.65625 
Q 20.125 22.5625 19.28125 19.875 
Q 18.453125 17.1875 17.921875 14.59375 
Q 17.390625 12.015625 17.390625 9.421875 
Q 17.390625 6.109375 18.796875 3.8125 
Q 20.21875 1.515625 23.296875 1.515625 
Q 29.5 1.515625 34.421875 9.078125 
L 42 39.890625 
Q 42.328125 41.21875 43.546875 42.15625 
Q 44.78125 43.109375 46.1875 43.109375 
Q 47.40625 43.109375 48.3125 42.328125 
Q 49.21875 41.546875 49.21875 40.28125 
Q 49.21875 39.703125 49.125 39.5 
L 39.203125 -0.296875 
Q 37.890625 -5.421875 34.375 -10.109375 
Q 30.859375 -14.796875 25.90625 -17.65625 
Q 20.953125 -20.515625 15.578125 -20.515625 
Q 12.984375 -20.515625 10.4375 -19.5 
Q 7.90625 -18.5 6.34375 -16.5 
Q 4.78125 -14.5 4.78125 -11.8125 
Q 4.78125 -9.078125 6.390625 -7.078125 
Q 8.015625 -5.078125 10.6875 -5.078125 
Q 12.3125 -5.078125 13.40625 -6.078125 
Q 14.5 -7.078125 14.5 -8.6875 
Q 14.5 -10.984375 12.78125 -12.6875 
Q 11.078125 -14.40625 8.796875 -14.40625 
Q 8.6875 -14.359375 8.59375 -14.328125 
Q 8.5 -14.3125 8.40625 -14.3125 
z
" id="Cmmi10-121"/>
     </defs>
     <g transform="translate(29.710937 89.152)scale(0.16 -0.16)">
      <use transform="translate(0 0.8125)" xlink:href="#Cmmi10-121"/>
     </g>
    </g>
   </g>
   <g id="patch_4">
    <path clip-path="url(#p01151355db)" d="M 234.863756 132.599543 
Q 252.96751 147.654174 269.781803 161.636521 
" style="fill:none;stroke:#000000;stroke-linecap:round;stroke-width:1.5;"/>
    <path clip-path="url(#p01151355db)" d="M 267.985032 157.541205 
L 269.781803 161.636521 
L 265.427488 160.616748 
L 267.985032 157.541205 
z
" style="stroke:#000000;stroke-linecap:round;stroke-width:1.5;"/>
   </g>
   <g id="line2d_12">
    <path clip-path="url(#p01151355db)" d="M 33.710937 285.475685 
L 56.987478 266.977885 
L 69.63602 257.183291 
L 80.843019 248.764303 
L 91.865422 240.782402 
L 101.511227 234.076614 
L 110.281553 228.226657 
L 119.013896 222.64912 
L 127.431868 217.513565 
L 136.045894 212.507694 
L 144.181379 208.012328 
L 153.619254 203.078027 
L 161.941055 198.97305 
L 171.110966 194.709374 
L 179.325816 191.1134 
L 188.896258 187.17973 
L 197.370544 183.915986 
L 206.837939 180.500807 
L 215.997036 177.416078 
L 226.995017 173.978666 
L 237.963102 170.819892 
L 248.855622 167.928357 
L 259.945428 165.215541 
L 271.071263 162.708805 
L 271.071263 162.708805 
" style="fill:none;stroke:#0000cc;stroke-linecap:square;stroke-width:1.5;"/>
   </g>
   <g id="line2d_13">
    <path clip-path="url(#p01151355db)" d="M 33.710937 285.475685 
L 66.854011 311.871544 
L 78.634309 321.014067 
L 89.412103 329.090448 
L 98.361668 335.479131 
L 105.596774 340.359622 
L 112.588487 344.772982 
L 118.004624 347.948233 
L 122.587897 350.444317 
L 127.467584 352.88614 
L 132.509905 355.149568 
L 136.939313 356.89726 
L 141.439644 358.420192 
L 145.376382 359.525807 
L 148.870575 360.316668 
L 152.14488 360.884625 
L 156.054209 361.329558 
L 158.646734 361.476877 
L 162.521379 361.464779 
L 165.583499 361.248219 
L 168.590658 360.848399 
L 171.509681 360.274766 
L 174.463722 359.499922 
L 177.890888 358.344868 
L 181.141483 356.983404 
L 184.236565 355.435471 
L 187.37276 353.605776 
L 190.80152 351.291526 
L 193.640617 349.116924 
L 196.489789 346.690115 
L 199.327419 344.020972 
L 202.539669 340.684601 
L 206.090339 336.592522 
L 209.719955 331.952582 
L 212.21531 328.48458 
L 215.733521 323.195921 
L 219.168028 317.566615 
L 222.589347 311.483142 
L 225.364145 306.188339 
L 229.157455 298.408392 
L 232.723237 290.50437 
L 236.57167 281.306691 
L 239.666121 273.390863 
L 243.255939 263.606612 
L 246.683192 253.642976 
L 250.842962 240.703589 
L 254.968031 226.921963 
L 258.539683 214.196899 
L 262.181719 200.437684 
L 266.119838 184.640117 
L 270.111396 167.61973 
L 271.071263 163.371457 
L 271.071263 163.371457 
" style="fill:none;stroke:#3ccc00;stroke-linecap:square;stroke-width:1.5;"/>
   </g>
   <g id="line2d_14">
    <path clip-path="url(#p01151355db)" d="M 33.710937 285.475685 
L 58.129844 266.082929 
L 71.305921 255.911613 
L 80.324539 249.147459 
L 91.888783 240.765835 
L 101.825726 233.862669 
L 110.294918 228.21793 
L 120.17756 221.924972 
L 129.091877 216.529197 
L 138.854956 210.930026 
L 147.708278 206.13333 
L 157.106832 201.329952 
L 165.331457 197.365356 
L 173.328809 193.718048 
L 182.049675 189.966326 
L 191.387208 186.199474 
L 201.253312 182.486597 
L 210.676676 179.182455 
L 221.016973 175.81218 
L 230.935773 172.813899 
L 241.198114 169.936493 
L 252.220233 167.081561 
L 262.054388 164.724417 
L 274.673906 161.940164 
L 286.348032 159.584261 
L 300.094348 157.054497 
L 314.3447 154.682372 
L 318.543329 154.027959 
L 318.543329 154.027959 
" style="fill:none;stroke:#ff0000;stroke-linecap:square;stroke-width:1.5;"/>
   </g>
   <g id="line2d_15">
    <path clip-path="url(#p01151355db)" d="M 33.710937 285.475685 
L 57.946614 266.226356 
L 70.011118 256.897157 
L 81.22825 248.480043 
L 91.08436 241.337226 
L 100.801959 234.560224 
L 110.082688 228.356587 
L 119.177816 222.546839 
L 128.233817 217.036847 
L 136.237727 212.399096 
L 145.172212 207.480201 
L 153.822953 202.974818 
L 162.162198 198.867055 
L 171.316696 194.616773 
L 180.512797 190.610808 
L 189.672105 186.872519 
L 199.087597 183.278865 
L 208.627934 179.88141 
L 219.051947 176.4329 
L 228.62297 173.493342 
L 239.501511 170.397134 
L 250.11155 167.609788 
L 261.519394 164.848279 
L 273.483048 162.191992 
L 282.93928 160.251541 
L 282.93928 160.251541 
" style="fill:none;stroke:#ff0000;stroke-linecap:square;stroke-width:1.5;"/>
   </g>
   <g id="line2d_16">
    <path clip-path="url(#p01151355db)" d="M 33.710937 285.475685 
L 68.306656 313.01146 
L 80.131374 322.155631 
L 90.358275 329.781441 
L 98.928577 335.871632 
L 105.205807 340.103485 
L 111.659567 344.205935 
L 115.748104 346.653427 
L 122.13455 350.205818 
L 127.470024 352.887301 
L 132.689105 355.224797 
L 137.551248 357.119794 
L 140.897312 358.250902 
L 145.41697 359.536047 
L 149.654537 360.468283 
L 153.476553 361.065427 
L 157.133674 361.405606 
L 160.583127 361.506462 
L 164.339676 361.358878 
L 167.808465 360.97072 
L 170.052963 360.584386 
L 174.242706 359.564846 
L 177.122749 358.628311 
L 179.765314 357.59217 
L 183.18817 355.98795 
L 185.232642 354.883357 
L 188.217739 353.066424 
L 191.35642 350.885215 
L 195.042816 347.953738 
L 198.325209 344.992972 
L 201.075155 342.247939 
L 204.592114 338.372039 
L 207.742074 334.539444 
L 210.525649 330.858026 
L 213.513245 326.588625 
L 216.822864 321.461187 
L 220.080994 315.990441 
L 222.891445 310.922573 
L 225.925786 305.076348 
L 229.914136 296.779705 
L 233.03543 289.784383 
L 236.683908 281.027787 
L 240.586561 270.944519 
L 244.252987 260.771648 
L 248.026989 249.56593 
L 251.190475 239.579572 
L 254.996701 226.822784 
L 258.589624 214.013636 
L 262.720905 198.331925 
L 266.460725 183.226677 
L 269.937567 168.382569 
L 274.061988 149.740006 
L 277.927959 131.213946 
L 282.138603 109.838838 
L 282.93928 105.629538 
L 282.93928 105.629538 
" style="fill:none;stroke:#0000ff;stroke-linecap:square;stroke-width:1.5;"/>
   </g>
   <g id="patch_5">
    <path d="M 33.710937 366.624 
L 33.710937 100.512 
" style="fill:none;stroke:#000000;stroke-linecap:square;stroke-linejoin:miter;stroke-width:0.8;"/>
   </g>
   <g id="patch_6">
    <path d="M 28.01429 285.475685 
L 324.239976 285.475685 
" style="fill:none;stroke:#000000;stroke-linecap:square;stroke-linejoin:miter;stroke-width:0.8;"/>
   </g>
  </g>
  <g id="axes_2">
   <g id="patch_7">
    <path d="M 101.247133 110.88 
L 239.487133 110.88 
L 239.487133 7.2 
L 101.247133 7.2 
z
" style="fill:#ffffff;"/>
   </g>
   <g id="matplotlib.axis_3">
    <g id="xtick_8">
     <g id="line2d_17">
      <path clip-path="url(#p9e5b71c8f1)" d="M 103.905595 110.88 
L 103.905595 7.2 
" style="fill:none;stroke:#000000;stroke-dasharray:0.5,0.825;stroke-dashoffset:0;stroke-width:0.5;"/>
     </g>
     <g id="line2d_18">
      <g>
       <use style="stroke:#000000;stroke-width:0.8;" x="103.905595" xlink:href="#m324f42d8d3" y="108.886154"/>
      </g>
     </g>
     <g id="text_13">
      <!-- $1.00$ -->
      <defs>
       <path d="M 9.28125 0 
L 9.28125 3.515625 
Q 21.78125 3.515625 21.78125 6.6875 
L 21.78125 59.1875 
Q 16.609375 56.6875 8.6875 56.6875 
L 8.6875 60.203125 
Q 20.953125 60.203125 27.203125 66.609375 
L 28.609375 66.609375 
Q 28.953125 66.609375 29.265625 66.328125 
Q 29.59375 66.0625 29.59375 65.71875 
L 29.59375 6.6875 
Q 29.59375 3.515625 42.09375 3.515625 
L 42.09375 0 
z
" id="Cmr10-49"/>
       <path d="M 8.40625 5.515625 
Q 8.40625 7.765625 10.0625 9.375 
Q 11.71875 10.984375 13.921875 10.984375 
Q 15.28125 10.984375 16.59375 10.25 
Q 17.921875 9.515625 18.65625 8.203125 
Q 19.390625 6.890625 19.390625 5.515625 
Q 19.390625 3.328125 17.765625 1.65625 
Q 16.15625 0 13.921875 0 
Q 11.71875 0 10.0625 1.65625 
Q 8.40625 3.328125 8.40625 5.515625 
z
" id="Cmmi10-58"/>
       <path d="M 25 -2.203125 
Q 12.75 -2.203125 8.328125 7.875 
Q 3.90625 17.96875 3.90625 31.890625 
Q 3.90625 40.578125 5.484375 48.234375 
Q 7.078125 55.90625 11.78125 61.25 
Q 16.5 66.609375 25 66.609375 
Q 31.59375 66.609375 35.78125 63.375 
Q 39.984375 60.15625 42.1875 55.046875 
Q 44.390625 49.953125 45.1875 44.109375 
Q 46 38.28125 46 31.890625 
Q 46 23.296875 44.40625 15.796875 
Q 42.828125 8.296875 38.1875 3.046875 
Q 33.546875 -2.203125 25 -2.203125 
z
M 25 0.390625 
Q 30.5625 0.390625 33.296875 6.09375 
Q 36.03125 11.8125 36.671875 18.75 
Q 37.3125 25.6875 37.3125 33.5 
Q 37.3125 41.015625 36.671875 47.359375 
Q 36.03125 53.71875 33.3125 58.859375 
Q 30.609375 64.015625 25 64.015625 
Q 19.34375 64.015625 16.609375 58.828125 
Q 13.875 53.65625 13.234375 47.328125 
Q 12.59375 41.015625 12.59375 33.5 
Q 12.59375 27.9375 12.859375 23 
Q 13.140625 18.0625 14.3125 12.8125 
Q 15.484375 7.5625 18.09375 3.96875 
Q 20.703125 0.390625 25 0.390625 
z
" id="Cmr10-48"/>
      </defs>
      <g transform="translate(95.005595 123.484591)scale(0.1 -0.1)">
       <use transform="translate(0 0.390625)" xlink:href="#Cmr10-49"/>
       <use transform="translate(50 0.390625)" xlink:href="#Cmmi10-58"/>
       <use transform="translate(77.685547 0.390625)" xlink:href="#Cmr10-48"/>
       <use transform="translate(127.685547 0.390625)" xlink:href="#Cmr10-48"/>
      </g>
     </g>
    </g>
    <g id="xtick_9">
     <g id="line2d_19">
      <path clip-path="url(#p9e5b71c8f1)" d="M 137.136364 110.88 
L 137.136364 7.2 
" style="fill:none;stroke:#000000;stroke-dasharray:0.5,0.825;stroke-dashoffset:0;stroke-width:0.5;"/>
     </g>
     <g id="line2d_20">
      <g>
       <use style="stroke:#000000;stroke-width:0.8;" x="137.136364" xlink:href="#m324f42d8d3" y="108.886154"/>
      </g>
     </g>
     <g id="text_14">
      <!-- $1.00$ -->
      <g transform="translate(128.236364 123.484591)scale(0.1 -0.1)">
       <use transform="translate(0 0.390625)" xlink:href="#Cmr10-49"/>
       <use transform="translate(50 0.390625)" xlink:href="#Cmmi10-58"/>
       <use transform="translate(77.685547 0.390625)" xlink:href="#Cmr10-48"/>
       <use transform="translate(127.685547 0.390625)" xlink:href="#Cmr10-48"/>
      </g>
     </g>
    </g>
    <g id="xtick_10">
     <g id="line2d_21">
      <path clip-path="url(#p9e5b71c8f1)" d="M 170.367133 110.88 
L 170.367133 7.2 
" style="fill:none;stroke:#000000;stroke-dasharray:0.5,0.825;stroke-dashoffset:0;stroke-width:0.5;"/>
     </g>
     <g id="line2d_22">
      <g>
       <use style="stroke:#000000;stroke-width:0.8;" x="170.367133" xlink:href="#m324f42d8d3" y="108.886154"/>
      </g>
     </g>
     <g id="text_15">
      <!-- $1.10$ -->
      <g transform="translate(161.467133 123.484591)scale(0.1 -0.1)">
       <use transform="translate(0 0.390625)" xlink:href="#Cmr10-49"/>
       <use transform="translate(50 0.390625)" xlink:href="#Cmmi10-58"/>
       <use transform="translate(77.685547 0.390625)" xlink:href="#Cmr10-49"/>
       <use transform="translate(127.685547 0.390625)" xlink:href="#Cmr10-48"/>
      </g>
     </g>
    </g>
    <g id="xtick_11">
     <g id="line2d_23">
      <path clip-path="url(#p9e5b71c8f1)" d="M 203.597902 110.88 
L 203.597902 7.2 
" style="fill:none;stroke:#000000;stroke-dasharray:0.5,0.825;stroke-dashoffset:0;stroke-width:0.5;"/>
     </g>
     <g id="line2d_24">
      <g>
       <use style="stroke:#000000;stroke-width:0.8;" x="203.597902" xlink:href="#m324f42d8d3" y="108.886154"/>
      </g>
     </g>
     <g id="text_16">
      <!-- $1.14$ -->
      <defs>
       <path d="M 2.78125 16.5 
L 2.78125 20.015625 
L 33.6875 66.109375 
Q 34.03125 66.609375 34.71875 66.609375 
L 36.1875 66.609375 
Q 37.3125 66.609375 37.3125 65.484375 
L 37.3125 20.015625 
L 47.125 20.015625 
L 47.125 16.5 
L 37.3125 16.5 
L 37.3125 6.6875 
Q 37.3125 4.640625 40.234375 4.078125 
Q 43.171875 3.515625 47.015625 3.515625 
L 47.015625 0 
L 19.484375 0 
L 19.484375 3.515625 
Q 23.34375 3.515625 26.265625 4.078125 
Q 29.203125 4.640625 29.203125 6.6875 
L 29.203125 16.5 
z
M 6.109375 20.015625 
L 29.78125 20.015625 
L 29.78125 55.421875 
z
" id="Cmr10-52"/>
      </defs>
      <g transform="translate(194.697902 123.484591)scale(0.1 -0.1)">
       <use transform="translate(0 0.390625)" xlink:href="#Cmr10-49"/>
       <use transform="translate(50 0.390625)" xlink:href="#Cmmi10-58"/>
       <use transform="translate(77.685547 0.390625)" xlink:href="#Cmr10-49"/>
       <use transform="translate(127.685547 0.390625)" xlink:href="#Cmr10-52"/>
      </g>
     </g>
    </g>
    <g id="xtick_12">
     <g id="line2d_25">
      <path clip-path="url(#p9e5b71c8f1)" d="M 236.828671 110.88 
L 236.828671 7.2 
" style="fill:none;stroke:#000000;stroke-dasharray:0.5,0.825;stroke-dashoffset:0;stroke-width:0.5;"/>
     </g>
     <g id="line2d_26">
      <g>
       <use style="stroke:#000000;stroke-width:0.8;" x="236.828671" xlink:href="#m324f42d8d3" y="108.886154"/>
      </g>
     </g>
     <g id="text_17">
      <!-- $1.20$ -->
      <defs>
       <path d="M 4.984375 0 
L 4.984375 2.6875 
Q 4.984375 2.9375 5.171875 3.21875 
L 20.703125 20.40625 
Q 24.21875 24.21875 26.40625 26.796875 
Q 28.609375 29.390625 30.75 32.765625 
Q 32.90625 36.140625 34.15625 39.625 
Q 35.40625 43.109375 35.40625 47.015625 
Q 35.40625 51.125 33.890625 54.859375 
Q 32.375 58.59375 29.375 60.84375 
Q 26.375 63.09375 22.125 63.09375 
Q 17.78125 63.09375 14.3125 60.46875 
Q 10.84375 57.859375 9.421875 53.71875 
Q 9.8125 53.8125 10.5 53.8125 
Q 12.75 53.8125 14.328125 52.296875 
Q 15.921875 50.78125 15.921875 48.390625 
Q 15.921875 46.09375 14.328125 44.5 
Q 12.75 42.921875 10.5 42.921875 
Q 8.15625 42.921875 6.5625 44.546875 
Q 4.984375 46.1875 4.984375 48.390625 
Q 4.984375 52.15625 6.390625 55.4375 
Q 7.8125 58.734375 10.46875 61.296875 
Q 13.140625 63.875 16.484375 65.234375 
Q 19.828125 66.609375 23.578125 66.609375 
Q 29.296875 66.609375 34.21875 64.1875 
Q 39.15625 61.765625 42.03125 57.34375 
Q 44.921875 52.9375 44.921875 47.015625 
Q 44.921875 42.671875 43.015625 38.765625 
Q 41.109375 34.859375 38.125 31.65625 
Q 35.15625 28.46875 30.515625 24.40625 
Q 25.875 20.359375 24.421875 19 
L 13.09375 8.109375 
L 22.703125 8.109375 
Q 29.78125 8.109375 34.546875 8.21875 
Q 39.3125 8.34375 39.59375 8.59375 
Q 40.765625 9.859375 42 17.828125 
L 44.921875 17.828125 
L 42.09375 0 
z
" id="Cmr10-50"/>
      </defs>
      <g transform="translate(227.928671 123.484591)scale(0.1 -0.1)">
       <use transform="translate(0 0.390625)" xlink:href="#Cmr10-49"/>
       <use transform="translate(50 0.390625)" xlink:href="#Cmmi10-58"/>
       <use transform="translate(77.685547 0.390625)" xlink:href="#Cmr10-50"/>
       <use transform="translate(127.685547 0.390625)" xlink:href="#Cmr10-48"/>
      </g>
     </g>
    </g>
    <g id="xtick_13">
     <g id="line2d_27">
      <defs>
       <path d="M 0 0 
L 0 2 
" id="mf3d73de82b" style="stroke:#000000;stroke-width:0.6;"/>
      </defs>
      <g>
       <use style="stroke:#000000;stroke-width:0.6;" x="110.551748" xlink:href="#mf3d73de82b" y="108.886154"/>
      </g>
     </g>
    </g>
    <g id="xtick_14">
     <g id="line2d_28">
      <g>
       <use style="stroke:#000000;stroke-width:0.6;" x="117.197902" xlink:href="#mf3d73de82b" y="108.886154"/>
      </g>
     </g>
    </g>
    <g id="xtick_15">
     <g id="line2d_29">
      <g>
       <use style="stroke:#000000;stroke-width:0.6;" x="123.844056" xlink:href="#mf3d73de82b" y="108.886154"/>
      </g>
     </g>
    </g>
    <g id="xtick_16">
     <g id="line2d_30">
      <g>
       <use style="stroke:#000000;stroke-width:0.6;" x="130.49021" xlink:href="#mf3d73de82b" y="108.886154"/>
      </g>
     </g>
    </g>
    <g id="xtick_17">
     <g id="line2d_31">
      <g>
       <use style="stroke:#000000;stroke-width:0.6;" x="143.782518" xlink:href="#mf3d73de82b" y="108.886154"/>
      </g>
     </g>
    </g>
    <g id="xtick_18">
     <g id="line2d_32">
      <g>
       <use style="stroke:#000000;stroke-width:0.6;" x="150.428671" xlink:href="#mf3d73de82b" y="108.886154"/>
      </g>
     </g>
    </g>
    <g id="xtick_19">
     <g id="line2d_33">
      <g>
       <use style="stroke:#000000;stroke-width:0.6;" x="157.074825" xlink:href="#mf3d73de82b" y="108.886154"/>
      </g>
     </g>
    </g>
    <g id="xtick_20">
     <g id="line2d_34">
      <g>
       <use style="stroke:#000000;stroke-width:0.6;" x="163.720979" xlink:href="#mf3d73de82b" y="108.886154"/>
      </g>
     </g>
    </g>
    <g id="xtick_21">
     <g id="line2d_35">
      <g>
       <use style="stroke:#000000;stroke-width:0.6;" x="177.013287" xlink:href="#mf3d73de82b" y="108.886154"/>
      </g>
     </g>
    </g>
    <g id="xtick_22">
     <g id="line2d_36">
      <g>
       <use style="stroke:#000000;stroke-width:0.6;" x="183.659441" xlink:href="#mf3d73de82b" y="108.886154"/>
      </g>
     </g>
    </g>
    <g id="xtick_23">
     <g id="line2d_37">
      <g>
       <use style="stroke:#000000;stroke-width:0.6;" x="190.305595" xlink:href="#mf3d73de82b" y="108.886154"/>
      </g>
     </g>
    </g>
    <g id="xtick_24">
     <g id="line2d_38">
      <g>
       <use style="stroke:#000000;stroke-width:0.6;" x="196.951748" xlink:href="#mf3d73de82b" y="108.886154"/>
      </g>
     </g>
    </g>
    <g id="xtick_25">
     <g id="line2d_39">
      <g>
       <use style="stroke:#000000;stroke-width:0.6;" x="210.244056" xlink:href="#mf3d73de82b" y="108.886154"/>
      </g>
     </g>
    </g>
    <g id="xtick_26">
     <g id="line2d_40">
      <g>
       <use style="stroke:#000000;stroke-width:0.6;" x="216.89021" xlink:href="#mf3d73de82b" y="108.886154"/>
      </g>
     </g>
    </g>
    <g id="xtick_27">
     <g id="line2d_41">
      <g>
       <use style="stroke:#000000;stroke-width:0.6;" x="223.536364" xlink:href="#mf3d73de82b" y="108.886154"/>
      </g>
     </g>
    </g>
    <g id="xtick_28">
     <g id="line2d_42">
      <g>
       <use style="stroke:#000000;stroke-width:0.6;" x="230.182518" xlink:href="#mf3d73de82b" y="108.886154"/>
      </g>
     </g>
    </g>
   </g>
   <g id="matplotlib.axis_4">
    <g id="ytick_5">
     <g id="line2d_43">
      <path clip-path="url(#p9e5b71c8f1)" d="M 101.247133 108.886154 
L 239.487133 108.886154 
" style="fill:none;stroke:#000000;stroke-dasharray:0.5,0.825;stroke-dashoffset:0;stroke-width:0.5;"/>
     </g>
     <g id="line2d_44">
      <g>
       <use style="stroke:#000000;stroke-width:0.8;" x="91.247133" xlink:href="#m71b59f8292" y="108.886154"/>
      </g>
     </g>
     <g id="text_18">
      <!-- $0.00$ -->
      <g transform="translate(66.447133 112.685373)scale(0.1 -0.1)">
       <use transform="translate(0 0.390625)" xlink:href="#Cmr10-48"/>
       <use transform="translate(50 0.390625)" xlink:href="#Cmmi10-58"/>
       <use transform="translate(77.685547 0.390625)" xlink:href="#Cmr10-48"/>
       <use transform="translate(127.685547 0.390625)" xlink:href="#Cmr10-48"/>
      </g>
     </g>
    </g>
    <g id="ytick_6">
     <g id="line2d_45">
      <path clip-path="url(#p9e5b71c8f1)" d="M 101.247133 86.062823 
L 239.487133 86.062823 
" style="fill:none;stroke:#000000;stroke-dasharray:0.5,0.825;stroke-dashoffset:0;stroke-width:0.5;"/>
     </g>
     <g id="line2d_46">
      <g>
       <use style="stroke:#000000;stroke-width:0.8;" x="91.247133" xlink:href="#m71b59f8292" y="86.062823"/>
      </g>
     </g>
     <g id="text_19">
      <!-- $0.20$ -->
      <g transform="translate(66.447133 89.862042)scale(0.1 -0.1)">
       <use transform="translate(0 0.390625)" xlink:href="#Cmr10-48"/>
       <use transform="translate(50 0.390625)" xlink:href="#Cmmi10-58"/>
       <use transform="translate(77.685547 0.390625)" xlink:href="#Cmr10-50"/>
       <use transform="translate(127.685547 0.390625)" xlink:href="#Cmr10-48"/>
      </g>
     </g>
    </g>
    <g id="ytick_7">
     <g id="line2d_47">
      <path clip-path="url(#p9e5b71c8f1)" d="M 101.247133 63.239493 
L 239.487133 63.239493 
" style="fill:none;stroke:#000000;stroke-dasharray:0.5,0.825;stroke-dashoffset:0;stroke-width:0.5;"/>
     </g>
     <g id="line2d_48">
      <g>
       <use style="stroke:#000000;stroke-width:0.8;" x="91.247133" xlink:href="#m71b59f8292" y="63.239493"/>
      </g>
     </g>
     <g id="text_20">
      <!-- $0.40$ -->
      <g transform="translate(66.447133 67.038712)scale(0.1 -0.1)">
       <use transform="translate(0 0.390625)" xlink:href="#Cmr10-48"/>
       <use transform="translate(50 0.390625)" xlink:href="#Cmmi10-58"/>
       <use transform="translate(77.685547 0.390625)" xlink:href="#Cmr10-52"/>
       <use transform="translate(127.685547 0.390625)" xlink:href="#Cmr10-48"/>
      </g>
     </g>
    </g>
    <g id="ytick_8">
     <g id="line2d_49">
      <path clip-path="url(#p9e5b71c8f1)" d="M 101.247133 40.416162 
L 239.487133 40.416162 
" style="fill:none;stroke:#000000;stroke-dasharray:0.5,0.825;stroke-dashoffset:0;stroke-width:0.5;"/>
     </g>
     <g id="line2d_50">
      <g>
       <use style="stroke:#000000;stroke-width:0.8;" x="91.247133" xlink:href="#m71b59f8292" y="40.416162"/>
      </g>
     </g>
     <g id="text_21">
      <!-- $0.60$ -->
      <defs>
       <path d="M 25 -2.203125 
Q 18.796875 -2.203125 14.640625 1.09375 
Q 10.5 4.390625 8.21875 9.640625 
Q 5.953125 14.890625 5.078125 20.65625 
Q 4.203125 26.421875 4.203125 32.328125 
Q 4.203125 40.234375 7.28125 48.1875 
Q 10.359375 56.15625 16.328125 61.375 
Q 22.3125 66.609375 30.515625 66.609375 
Q 33.9375 66.609375 36.890625 65.3125 
Q 39.84375 64.015625 41.53125 61.5 
Q 43.21875 58.984375 43.21875 55.421875 
Q 43.21875 53.375 41.828125 51.984375 
Q 40.4375 50.59375 38.375 50.59375 
Q 36.421875 50.59375 35 52 
Q 33.59375 53.421875 33.59375 55.421875 
Q 33.59375 57.375 35 58.78125 
Q 36.421875 60.203125 38.375 60.203125 
L 38.921875 60.203125 
Q 37.640625 62.015625 35.328125 62.859375 
Q 33.015625 63.71875 30.515625 63.71875 
Q 27.484375 63.71875 24.921875 62.390625 
Q 22.359375 61.078125 20.3125 58.828125 
Q 18.265625 56.59375 16.890625 53.875 
Q 15.53125 51.171875 14.765625 47.703125 
Q 14.015625 44.234375 13.8125 41.203125 
Q 13.625 38.1875 13.625 33.59375 
Q 15.375 37.703125 18.59375 40.3125 
Q 21.828125 42.921875 25.875 42.921875 
Q 30.328125 42.921875 33.984375 41.109375 
Q 37.640625 39.3125 40.28125 36.109375 
Q 42.921875 32.90625 44.3125 28.796875 
Q 45.703125 24.703125 45.703125 20.515625 
Q 45.703125 14.65625 43.09375 9.34375 
Q 40.484375 4.046875 35.734375 0.921875 
Q 31 -2.203125 25 -2.203125 
z
M 25 0.984375 
Q 28.859375 0.984375 31.203125 2.734375 
Q 33.546875 4.5 34.640625 7.390625 
Q 35.75 10.296875 36.015625 13.25 
Q 36.28125 16.21875 36.28125 20.515625 
Q 36.28125 26.171875 35.734375 30.171875 
Q 35.203125 34.1875 32.8125 37.234375 
Q 30.421875 40.28125 25.484375 40.28125 
Q 21.4375 40.28125 18.828125 37.546875 
Q 16.21875 34.8125 15.015625 30.640625 
Q 13.8125 26.46875 13.8125 22.609375 
Q 13.8125 21.296875 13.921875 20.609375 
Q 13.921875 20.453125 13.890625 20.359375 
Q 13.875 20.265625 13.8125 20.125 
Q 13.8125 15.828125 14.6875 11.421875 
Q 15.578125 7.03125 18.0625 4 
Q 20.5625 0.984375 25 0.984375 
z
" id="Cmr10-54"/>
      </defs>
      <g transform="translate(66.447133 44.215381)scale(0.1 -0.1)">
       <use transform="translate(0 0.390625)" xlink:href="#Cmr10-48"/>
       <use transform="translate(50 0.390625)" xlink:href="#Cmmi10-58"/>
       <use transform="translate(77.685547 0.390625)" xlink:href="#Cmr10-54"/>
       <use transform="translate(127.685547 0.390625)" xlink:href="#Cmr10-48"/>
      </g>
     </g>
    </g>
    <g id="ytick_9">
     <g id="line2d_51">
      <path clip-path="url(#p9e5b71c8f1)" d="M 101.247133 17.592832 
L 239.487133 17.592832 
" style="fill:none;stroke:#000000;stroke-dasharray:0.5,0.825;stroke-dashoffset:0;stroke-width:0.5;"/>
     </g>
     <g id="line2d_52">
      <g>
       <use style="stroke:#000000;stroke-width:0.8;" x="91.247133" xlink:href="#m71b59f8292" y="17.592832"/>
      </g>
     </g>
     <g id="text_22">
      <!-- $0.80$ -->
      <defs>
       <path d="M 4.203125 15.1875 
Q 4.203125 21.1875 8.15625 25.796875 
Q 12.109375 30.421875 18.3125 33.5 
L 14.59375 35.890625 
Q 11.1875 38.140625 9.03125 41.875 
Q 6.890625 45.609375 6.890625 49.703125 
Q 6.890625 54.5 9.40625 58.34375 
Q 11.921875 62.203125 16.09375 64.40625 
Q 20.265625 66.609375 25 66.609375 
Q 29.4375 66.609375 33.5625 64.796875 
Q 37.703125 62.984375 40.359375 59.609375 
Q 43.015625 56.25 43.015625 51.609375 
Q 43.015625 48.25 41.421875 45.359375 
Q 39.84375 42.484375 37.078125 40.1875 
Q 34.328125 37.890625 31.203125 36.28125 
L 36.921875 32.625 
Q 40.875 30.03125 43.28125 25.828125 
Q 45.703125 21.625 45.703125 17 
Q 45.703125 11.578125 42.796875 7.125 
Q 39.890625 2.6875 35.109375 0.234375 
Q 30.328125 -2.203125 25 -2.203125 
Q 19.828125 -2.203125 15.015625 -0.09375 
Q 10.203125 2 7.203125 5.984375 
Q 4.203125 9.96875 4.203125 15.1875 
z
M 9.625 15.1875 
Q 9.625 11.234375 11.796875 7.953125 
Q 13.96875 4.6875 17.53125 2.828125 
Q 21.09375 0.984375 25 0.984375 
Q 30.8125 0.984375 35.546875 4.375 
Q 40.28125 7.765625 40.28125 13.375 
Q 40.28125 15.28125 39.515625 17.15625 
Q 38.765625 19.046875 37.421875 20.578125 
Q 36.078125 22.125 34.421875 23.09375 
L 21 31.78125 
Q 17.875 30.125 15.25 27.578125 
Q 12.640625 25.046875 11.125 21.875 
Q 9.625 18.703125 9.625 15.1875 
z
M 16.5 45.703125 
L 28.609375 37.890625 
Q 32.8125 40.328125 35.5 43.796875 
Q 38.1875 47.265625 38.1875 51.609375 
Q 38.1875 54.984375 36.296875 57.78125 
Q 34.421875 60.59375 31.390625 62.15625 
Q 28.375 63.71875 24.90625 63.71875 
Q 21.875 63.71875 18.796875 62.546875 
Q 15.71875 61.375 13.71875 59.046875 
Q 11.71875 56.734375 11.71875 53.609375 
Q 11.71875 48.921875 16.5 45.703125 
z
" id="Cmr10-56"/>
      </defs>
      <g transform="translate(66.447133 21.392051)scale(0.1 -0.1)">
       <use transform="translate(0 0.390625)" xlink:href="#Cmr10-48"/>
       <use transform="translate(50 0.390625)" xlink:href="#Cmmi10-58"/>
       <use transform="translate(77.685547 0.390625)" xlink:href="#Cmr10-56"/>
       <use transform="translate(127.685547 0.390625)" xlink:href="#Cmr10-48"/>
      </g>
     </g>
    </g>
    <g id="ytick_10">
     <g id="line2d_53">
      <defs>
       <path d="M 0 0 
L -2 0 
" id="m42b2aa6961" style="stroke:#000000;stroke-width:0.6;"/>
      </defs>
      <g>
       <use style="stroke:#000000;stroke-width:0.6;" x="91.247133" xlink:href="#m42b2aa6961" y="103.180321"/>
      </g>
     </g>
    </g>
    <g id="ytick_11">
     <g id="line2d_54">
      <g>
       <use style="stroke:#000000;stroke-width:0.6;" x="91.247133" xlink:href="#m42b2aa6961" y="97.474489"/>
      </g>
     </g>
    </g>
    <g id="ytick_12">
     <g id="line2d_55">
      <g>
       <use style="stroke:#000000;stroke-width:0.6;" x="91.247133" xlink:href="#m42b2aa6961" y="91.768656"/>
      </g>
     </g>
    </g>
    <g id="ytick_13">
     <g id="line2d_56">
      <g>
       <use style="stroke:#000000;stroke-width:0.6;" x="91.247133" xlink:href="#m42b2aa6961" y="80.356991"/>
      </g>
     </g>
    </g>
    <g id="ytick_14">
     <g id="line2d_57">
      <g>
       <use style="stroke:#000000;stroke-width:0.6;" x="91.247133" xlink:href="#m42b2aa6961" y="74.651158"/>
      </g>
     </g>
    </g>
    <g id="ytick_15">
     <g id="line2d_58">
      <g>
       <use style="stroke:#000000;stroke-width:0.6;" x="91.247133" xlink:href="#m42b2aa6961" y="68.945325"/>
      </g>
     </g>
    </g>
    <g id="ytick_16">
     <g id="line2d_59">
      <g>
       <use style="stroke:#000000;stroke-width:0.6;" x="91.247133" xlink:href="#m42b2aa6961" y="57.53366"/>
      </g>
     </g>
    </g>
    <g id="ytick_17">
     <g id="line2d_60">
      <g>
       <use style="stroke:#000000;stroke-width:0.6;" x="91.247133" xlink:href="#m42b2aa6961" y="51.827828"/>
      </g>
     </g>
    </g>
    <g id="ytick_18">
     <g id="line2d_61">
      <g>
       <use style="stroke:#000000;stroke-width:0.6;" x="91.247133" xlink:href="#m42b2aa6961" y="46.121995"/>
      </g>
     </g>
    </g>
    <g id="ytick_19">
     <g id="line2d_62">
      <g>
       <use style="stroke:#000000;stroke-width:0.6;" x="91.247133" xlink:href="#m42b2aa6961" y="34.71033"/>
      </g>
     </g>
    </g>
    <g id="ytick_20">
     <g id="line2d_63">
      <g>
       <use style="stroke:#000000;stroke-width:0.6;" x="91.247133" xlink:href="#m42b2aa6961" y="29.004497"/>
      </g>
     </g>
    </g>
    <g id="ytick_21">
     <g id="line2d_64">
      <g>
       <use style="stroke:#000000;stroke-width:0.6;" x="91.247133" xlink:href="#m42b2aa6961" y="23.298664"/>
      </g>
     </g>
    </g>
    <g id="ytick_22">
     <g id="line2d_65">
      <g>
       <use style="stroke:#000000;stroke-width:0.6;" x="91.247133" xlink:href="#m42b2aa6961" y="11.886999"/>
      </g>
     </g>
    </g>
   </g>
   <g id="line2d_66">
    <path clip-path="url(#p9e5b71c8f1)" d="M 103.905595 28.193495 
L 144.427608 25.842659 
L 187.150474 23.585849 
L 232.464181 21.416889 
L 236.828671 21.219313 
L 236.828671 21.219313 
" style="fill:none;stroke:#ff0000;stroke-linecap:square;stroke-width:1.5;"/>
   </g>
   <g id="line2d_67">
    <path clip-path="url(#p9e5b71c8f1)" d="M 103.905595 108.886154 
L 113.009982 104.066729 
L 122.167948 98.952521 
L 130.524914 94.046275 
L 139.651016 88.420746 
L 149.018064 82.348438 
L 157.968765 76.256314 
L 166.793206 69.965846 
L 175.26328 63.655996 
L 184.128721 56.759372 
L 192.701731 49.799244 
L 200.898461 42.870879 
L 209.515432 35.292271 
L 217.953069 27.571845 
L 226.682779 19.26521 
L 235.195434 10.845815 
L 236.828671 9.193846 
L 236.828671 9.193846 
" style="fill:none;stroke:#0000ff;stroke-linecap:square;stroke-width:1.5;"/>
   </g>
   <g id="patch_8">
    <path d="M 91.247133 110.88 
L 91.247133 7.2 
" style="fill:none;stroke:#000000;stroke-linecap:square;stroke-linejoin:miter;stroke-width:0.8;"/>
   </g>
   <g id="patch_9">
    <path d="M 101.247133 108.886154 
L 239.487133 108.886154 
" style="fill:none;stroke:#000000;stroke-linecap:square;stroke-linejoin:miter;stroke-width:0.8;"/>
   </g>
  </g>
 </g>
 <defs>
  <clipPath id="p01151355db">
   <rect height="266.112" width="296.225687" x="28.01429" y="100.512"/>
  </clipPath>
  <clipPath id="p9e5b71c8f1">
   <rect height="103.68" width="138.24" x="101.247133" y="7.2"/>
  </clipPath>
 </defs>
</svg>
