<?xml version="1.0" encoding="utf-8" standalone="no"?>
<!DOCTYPE svg PUBLIC "-//W3C//DTD SVG 1.1//EN"
  "http://www.w3.org/Graphics/SVG/1.1/DTD/svg11.dtd">
<!-- Created with matplotlib (https://matplotlib.org/) -->
<svg height="207.725pt" version="1.1" viewBox="0 0 244.522959 207.725" width="244.522959pt" xmlns="http://www.w3.org/2000/svg" xmlns:xlink="http://www.w3.org/1999/xlink">
 <defs>
  <style type="text/css">
*{stroke-linecap:butt;stroke-linejoin:round;}
  </style>
 </defs>
 <g id="figure_1">
  <g id="patch_1">
   <path d="M 0 207.725 
L 244.522959 207.725 
L 244.522959 0 
L 0 0 
z
" style="fill:#ffffff;"/>
  </g>
  <g id="axes_1">
   <g id="patch_2">
    <path d="M 30.267202 200.525 
L 220.042959 200.525 
L 220.042959 30.685 
L 30.267202 30.685 
z
" style="fill:#ffffff;"/>
   </g>
   <g id="patch_3">
    <path clip-path="url(#p290f9eb776)" d="M 200.696506 101.188533 
L 200.025101 100.993769 
L 199.428715 100.823585 
L 198.832329 100.656054 
L 197.985362 100.422688 
L 197.364261 100.254955 
L 196.972316 100.150588 
L 196.013893 99.900203 
L 195.519473 99.773715 
L 194.804303 99.593977 
L 194.089133 99.418053 
L 193.872108 99.365421 
L 193.250515 99.21662 
L 192.628922 99.070699 
L 191.908953 98.905284 
L 191.312755 98.771232 
L 190.685409 98.633038 
L 190.058063 98.497778 
L 189.393682 98.357732 
L 188.762221 98.227676 
L 188.468273 98.168149 
L 187.374327 97.952274 
L 186.743178 97.831784 
L 186.11203 97.714264 
L 185.794038 97.65618 
L 184.827323 97.484228 
L 184.20775 97.377688 
L 183.144599 97.20154 
L 182.545939 97.106059 
L 181.819332 96.993763 
L 181.234567 96.906246 
L 180.649802 96.82128 
L 179.842113 96.708115 
L 179.483009 96.659363 
L 178.890286 96.580998 
L 178.297563 96.505252 
L 177.580085 96.417069 
L 176.935987 96.341173 
L 176.59662 96.302429 
L 175.849375 96.220147 
L 174.803797 96.112001 
L 173.878545 96.023099 
L 172.943828 95.939769 
L 172.316305 95.88748 
L 171.656705 95.835683 
L 170.598093 95.759333 
L 169.770103 95.70544 
L 169.143925 95.668077 
L 168.573738 95.636598 
L 168.003551 95.607543 
L 167.246136 95.572696 
L 166.917132 95.558892 
L 166.265582 95.533936 
L 165.614031 95.512145 
L 165.083043 95.496728 
L 164.709813 95.487149 
L 164.072166 95.473187 
L 163.434519 95.462256 
L 163.086684 95.457571 
L 162.41863 95.451104 
L 161.750576 95.447964 
L 160.965195 95.448528 
L 160.707126 95.449717 
L 160.10418 95.454431 
L 159.501234 95.461855 
L 158.898013 95.471995 
L 158.423216 95.481885 
L 157.498937 95.505957 
L 156.934844 95.523778 
L 156.370751 95.543972 
L 155.555921 95.577331 
L 154.620391 95.621736 
L 154.452459 95.630397 
L 153.352914 95.692306 
L 152.737603 95.730883 
L 152.107442 95.773318 
L 151.066627 95.84989 
L 150.389229 95.904064 
L 149.461818 95.983781 
L 148.529108 96.070422 
L 147.569779 96.166302 
L 147.281356 96.19647 
L 146.67317 96.262117 
L 146.064985 96.330521 
L 145.264775 96.424725 
L 144.712966 96.492467 
L 143.85779 96.601938 
L 143.267167 96.680727 
L 142.325215 96.811764 
L 141.306242 96.960965 
L 140.874101 97.026578 
L 140.051858 97.155266 
L 139.502938 97.243983 
L 138.699203 97.377936 
L 137.691134 97.552752 
L 136.889847 97.697114 
L 136.29554 97.807278 
L 135.701234 97.920075 
L 135.005233 98.055522 
L 134.079443 98.241284 
L 133.681297 98.323138 
L 132.849847 98.497885 
L 132.139834 98.65119 
L 131.410094 98.812671 
L 130.472724 99.025924 
L 129.593158 99.231983 
L 128.995475 99.375297 
L 128.404076 99.519725 
L 127.812676 99.666761 
L 127.534064 99.736934 
L 126.90133 99.898448 
L 126.028323 100.126196 
L 125.327251 100.313205 
L 124.626179 100.503877 
L 124.031321 100.668536 
L 123.592083 100.791813 
L 122.996619 100.961232 
L 122.401155 101.133295 
L 121.652107 101.353491 
L 120.716565 101.634387 
L 120.452334 101.714904 
L 119.880182 101.891035 
L 119.308029 102.069606 
L 118.488939 102.329497 
L 117.630489 102.607245 
L 117.103401 102.780504 
L 116.523526 102.973508 
L 115.943652 103.169019 
L 115.487432 103.324601 
L 114.787088 103.566454 
L 114.215774 103.766458 
L 113.64446 103.968895 
L 113.296189 104.093493 
L 112.685443 104.314179 
L 112.074696 104.537647 
L 111.697668 104.676987 
L 110.858926 104.990767 
L 109.845981 105.376709 
L 109.269158 105.599903 
L 108.633174 105.848864 
L 107.802234 106.178686 
L 106.929689 106.530564 
L 106.312707 106.782805 
L 105.695724 107.037884 
L 105.238815 107.228613 
L 104.429698 107.570185 
L 103.548884 107.947573 
L 102.724183 108.306162 
L 102.404996 108.44631 
L 101.827116 108.701975 
L 101.249236 108.960131 
L 100.407634 109.340552 
L 99.741188 109.645546 
L 99.096367 109.943796 
L 98.003074 110.456561 
L 97.109862 110.882102 
L 96.371752 111.238238 
L 95.713885 111.559081 
L 95.028629 111.896713 
L 93.947531 112.436498 
L 93.324454 112.751555 
L 92.569196 113.137329 
L 91.749311 113.560928 
L 90.83755 114.037882 
L 90.161914 114.395314 
L 89.229717 114.894062 
L 88.396127 115.34554 
L 88.045059 115.537232 
L 87.472917 115.851604 
L 86.406851 116.443881 
L 85.831594 116.766997 
L 85.196513 117.126582 
L 84.561433 117.489174 
L 84.02394 117.798399 
L 83.305845 118.214887 
L 82.523235 118.673172 
L 81.890697 119.046913 
L 81.258159 119.423638 
L 80.409992 119.933468 
L 79.770196 120.321597 
L 79.196223 120.672391 
L 78.218124 121.275834 
L 77.964779 121.433299 
L 76.878246 122.114056 
L 75.997697 122.672213 
L 75.173238 123.200056 
L 74.328644 123.746045 
L 73.617864 124.209652 
L 72.577339 124.895128 
L 71.748811 125.446718 
L 71.230643 125.794288 
L 70.655896 126.182151 
L 69.732999 126.810113 
L 68.789223 127.45885 
L 68.103352 127.934473 
L 67.065631 128.660758 
L 66.895961 128.780271 
L 65.884803 129.496967 
L 65.271391 129.935461 
L 64.657978 130.376761 
L 64.5483 130.455961 
L 63.973643 130.872394 
L 63.398986 131.29129 
L 62.956749 131.615335 
L 61.97377 132.340825 
L 60.879627 133.156833 
L 60.129567 133.721382 
L 59.856228 133.928159 
L 58.982564 134.59281 
L 58.401523 135.037996 
L 57.820481 135.485699 
L 56.752603 136.315082 
L 56.270457 136.692334 
L 55.230647 137.511827 
L 54.96338 137.723767 
L 54.340217 138.219997 
L 53.717055 138.719123 
L 53.418792 138.959042 
L 52.520944 139.685266 
L 51.887456 140.20128 
L 51.253967 140.720285 
L 50.536415 141.311777 
L 49.999133 141.757182 
L 49.604306 142.085864 
L 48.869975 142.700264 
L 48.135644 143.318685 
L 47.380704 143.958654 
L 47.039279 144.249478 
L 46.393795 144.801673 
L 45.74831 145.356975 
L 44.985073 146.017586 
L 44.189162 146.711104 
L 43.72731 147.115704 
L 43.72731 147.115704 
L 43.871383 146.484864 
L 44.015457 145.85696 
L 44.15953 145.231986 
L 44.303603 144.609937 
L 44.447676 143.990808 
L 44.591749 143.374594 
L 44.735822 142.76129 
L 44.879895 142.150891 
L 45.013275 141.588382 
L 45.143511 141.041524 
L 45.273747 140.497028 
L 45.403983 139.95489 
L 45.534219 139.415106 
L 45.664455 138.877673 
L 45.794691 138.342586 
L 45.924927 137.809842 
L 46.055163 137.279437 
L 46.270195 136.408799 
L 46.485227 135.544511 
L 46.700259 134.686554 
L 46.91529 133.834913 
L 47.052106 133.29633 
L 47.188921 132.760292 
L 47.325736 132.226795 
L 47.462552 131.695835 
L 47.599367 131.167406 
L 47.736183 130.641506 
L 47.872998 130.118129 
L 48.009813 129.597271 
L 48.184582 128.935583 
L 48.35935 128.277989 
L 48.534118 127.62448 
L 48.708886 126.975047 
L 48.872331 126.371373 
L 49.035775 125.771249 
L 49.19922 125.174666 
L 49.362664 124.581617 
L 49.576878 123.809695 
L 49.791092 123.043815 
L 50.005306 122.283959 
L 50.219519 121.530111 
L 50.467643 120.664417 
L 50.715766 119.806735 
L 50.899998 119.175076 
L 51.084229 118.547809 
L 51.26846 117.924923 
L 51.452691 117.306408 
L 51.637204 116.691314 
L 51.821718 116.080583 
L 52.006231 115.474203 
L 52.190744 114.872165 
L 52.459162 114.004089 
L 52.727579 113.145145 
L 52.995997 112.295298 
L 53.264414 111.454515 
L 53.529728 110.632329 
L 53.795042 109.818935 
L 54.060356 109.014302 
L 54.32567 108.218396 
L 54.594167 107.421793 
L 54.850407 106.669834 
L 55.106646 105.925928 
L 55.362885 105.190046 
L 55.619124 104.462158 
L 55.791465 103.97708 
L 55.963805 103.495598 
L 56.155605 102.963966 
L 56.347405 102.436763 
L 56.539205 101.913978 
L 56.731005 101.395598 
L 56.922805 100.881612 
L 57.114604 100.372007 
L 57.306404 99.866771 
L 57.498204 99.365892 
L 57.546853 99.239539 
L 57.733068 98.758471 
L 57.919283 98.281484 
L 58.105498 97.808568 
L 58.291713 97.339712 
L 58.477927 96.874905 
L 58.664142 96.414135 
L 58.850357 95.957392 
L 59.036572 95.504664 
L 59.179981 95.158737 
L 59.32339 94.815181 
L 59.476578 94.450809 
L 59.629765 94.08913 
L 59.782953 93.730137 
L 59.936141 93.373824 
L 60.101335 92.992581 
L 60.266529 92.61444 
L 60.431723 92.239392 
L 60.596917 91.867431 
L 60.762111 91.498549 
L 60.927306 91.132737 
L 61.0925 90.769989 
L 61.257694 90.410297 
L 61.446328 90.003292 
L 61.634962 89.600251 
L 61.823596 89.20116 
L 62.01223 88.806009 
L 62.27774 88.256472 
L 62.49672 87.809074 
L 62.7157 87.36693 
L 62.93468 86.930021 
L 63.15366 86.498331 
L 63.35005 86.115597 
L 63.54644 85.737033 
L 63.74283 85.362626 
L 63.93922 84.992362 
L 64.095968 84.699802 
L 64.252716 84.409868 
L 64.409464 84.122552 
L 64.566211 83.837847 
L 64.722959 83.555748 
L 64.879707 83.276247 
L 65.036455 82.999338 
L 65.193203 82.725014 
L 65.437914 82.301899 
L 65.682625 81.885045 
L 65.838801 81.622266 
L 65.994977 81.362021 
L 66.151153 81.104302 
L 66.307329 80.849104 
L 66.463506 80.596418 
L 66.619682 80.34624 
L 66.775858 80.098562 
L 66.932034 79.853379 
L 67.205154 79.430577 
L 67.478274 79.015349 
L 67.751581 78.607382 
L 68.024887 78.206929 
L 68.298194 77.813954 
L 68.5715 77.428422 
L 68.740886 77.193204 
L 68.910271 76.960823 
L 69.079656 76.731272 
L 69.249041 76.504541 
L 69.415227 76.284826 
L 69.628871 76.006331 
L 69.842514 75.73228 
L 70.056158 75.462657 
L 70.269802 75.197446 
L 70.516128 74.897116 
L 70.762455 74.602602 
L 71.008781 74.313879 
L 71.255107 74.03092 
L 71.425593 73.838443 
L 71.59608 73.648706 
L 71.766566 73.461702 
L 71.937053 73.277421 
L 72.185589 73.013638 
L 72.434125 72.7556 
L 72.682661 72.50328 
L 72.931198 72.256652 
L 73.122233 72.070937 
L 73.313268 71.888556 
L 73.504303 71.7095 
L 73.695338 71.533755 
L 73.929919 71.322462 
L 74.164499 71.116123 
L 74.39908 70.914716 
L 74.63366 70.718217 
L 74.799039 70.582625 
L 74.964418 70.449454 
L 75.129797 70.318696 
L 75.295175 70.190345 
L 75.531896 70.010796 
L 75.768616 69.836137 
L 76.005336 69.666347 
L 76.242056 69.501402 
L 76.468816 69.34792 
L 76.695575 69.198844 
L 76.922335 69.054153 
L 77.149095 68.913828 
L 77.347138 68.794828 
L 77.527737 68.68919 
L 77.708336 68.586286 
L 77.888934 68.486108 
L 78.069533 68.388645 
L 78.358825 68.238157 
L 78.648118 68.094568 
L 78.937411 67.957837 
L 79.226703 67.827924 
L 79.40066 67.753069 
L 79.574616 67.680655 
L 79.748573 67.610674 
L 79.922529 67.543115 
L 80.096396 67.478003 
L 80.270263 67.415293 
L 80.444129 67.354977 
L 80.617996 67.297045 
L 80.92796 67.199653 
L 81.237924 67.10976 
L 81.547887 67.027315 
L 81.857851 66.952267 
L 82.162665 66.88563 
L 82.339655 66.850178 
L 82.516645 66.817095 
L 82.693635 66.786373 
L 82.870626 66.758 
L 83.10331 66.72426 
L 83.335994 66.694545 
L 83.568677 66.668832 
L 83.801361 66.647101 
L 83.986847 66.632615 
L 84.172333 66.620634 
L 84.357819 66.611148 
L 84.543305 66.604145 
L 84.84413 66.598041 
L 85.144954 66.598393 
L 85.445779 66.605156 
L 85.746603 66.618283 
L 85.971439 66.632222 
L 86.196276 66.649671 
L 86.421112 66.67061 
L 86.645948 66.695019 
L 86.898344 66.726532 
L 87.093681 66.753888 
L 87.289019 66.783821 
L 87.484357 66.816317 
L 87.679695 66.851363 
L 87.873429 66.888627 
L 88.067163 66.928376 
L 88.260898 66.970596 
L 88.454632 67.015274 
L 88.659579 67.065201 
L 88.864526 67.117851 
L 89.069473 67.17321 
L 89.27442 67.231262 
L 89.546954 67.312605 
L 89.819487 67.398651 
L 90.09202 67.489365 
L 90.364553 67.584711 
L 90.724757 67.71778 
L 91.084961 67.858802 
L 91.350045 67.967617 
L 91.61513 68.080665 
L 91.880214 68.197914 
L 92.145298 68.31933 
L 92.540169 68.507854 
L 92.814839 68.644348 
L 93.08951 68.785197 
L 93.421342 68.961116 
L 93.753174 69.143276 
L 94.085005 69.331617 
L 94.416837 69.526074 
L 94.654133 69.668848 
L 95.031605 69.902286 
L 95.409077 70.143409 
L 95.78655 70.392125 
L 96.164022 70.648342 
L 96.522572 70.898577 
L 96.881123 71.155419 
L 97.287858 71.454674 
L 97.694594 71.762213 
L 97.959124 71.966621 
L 98.238914 72.186544 
L 98.518703 72.410259 
L 98.798492 72.63773 
L 99.078281 72.868919 
L 99.339672 73.088231 
L 99.601063 73.310725 
L 99.862453 73.53637 
L 100.123844 73.765136 
L 100.4587 74.062707 
L 100.793555 74.365286 
L 101.195325 74.734846 
L 101.561037 75.077332 
L 101.926749 75.425538 
L 102.253013 75.740943 
L 102.579277 76.060776 
L 102.827147 76.306682 
L 103.075016 76.555082 
L 103.322885 76.805951 
L 103.570755 77.059263 
L 103.834764 77.331725 
L 104.098773 77.606898 
L 104.362783 77.884749 
L 104.626792 78.165248 
L 104.881952 78.43883 
L 105.158055 78.737587 
L 105.434159 79.039136 
L 105.710262 79.34344 
L 105.986366 79.650464 
L 106.312899 80.017025 
L 106.639432 80.38728 
L 106.937491 80.728424 
L 107.235551 81.07255 
L 107.533611 81.419613 
L 107.831671 81.769569 
L 108.307117 82.333672 
L 108.782564 82.904835 
L 109.078362 83.263664 
L 109.600345 83.903232 
L 110.058952 84.47168 
L 110.517558 85.046068 
L 110.906284 85.53746 
L 111.29501 86.0329 
L 111.792056 86.672134 
L 112.289102 87.317613 
L 112.684045 87.83481 
L 113.078989 88.355711 
L 113.505888 88.922804 
L 113.932788 89.493969 
L 114.378494 90.094498 
L 114.824201 90.699169 
L 115.325599 91.384156 
L 115.826997 92.073978 
L 116.008446 92.324765 
L 116.455495 92.945162 
L 116.902544 93.569017 
L 117.506559 94.417138 
L 118.244598 95.461085 
L 118.982637 96.51279 
L 119.550895 97.327409 
L 120.144037 98.181832 
L 120.633678 98.890089 
L 121.123318 99.60078 
L 122.067587 100.977479 
L 122.620638 101.787082 
L 123.309992 102.799077 
L 123.804037 103.526014 
L 125.313238 105.752934 
L 126.017023 106.793447 
L 126.723781 107.838826 
L 127.187578 108.524806 
L 128.420654 110.347027 
L 128.898211 111.051637 
L 129.535541 111.99054 
L 130.640438 113.613121 
L 131.276554 114.543575 
L 131.81672 115.331145 
L 132.356887 116.116097 
L 133.130804 117.235632 
L 133.858492 118.282179 
L 134.070186 118.585424 
L 134.546921 119.266203 
L 135.023656 119.943882 
L 135.633301 120.805682 
L 136.247492 121.668085 
L 136.861684 122.524246 
L 137.30031 123.131636 
L 137.738936 123.735497 
L 138.086011 124.210722 
L 138.706027 125.053716 
L 139.326042 125.888734 
L 139.762936 126.472118 
L 140.19983 127.051196 
L 140.517134 127.468985 
L 141.095458 128.224241 
L 141.673783 128.97119 
L 142.051692 129.454644 
L 142.429602 129.934316 
L 142.769282 130.362164 
L 143.282118 131.002036 
L 143.794955 131.634393 
L 144.091375 131.996378 
L 144.387796 132.355732 
L 144.684216 132.712409 
L 144.980636 133.066364 
L 145.35038 133.503994 
L 145.720124 133.937234 
L 146.053313 134.323809 
L 146.386502 134.706687 
L 146.798646 135.175082 
L 147.257555 135.689707 
L 147.716463 136.196883 
L 148.076594 136.589568 
L 148.436725 136.977484 
L 148.812546 137.377129 
L 149.188367 137.771402 
L 149.540876 138.136256 
L 149.893385 138.496229 
L 150.143722 138.748862 
L 150.394059 138.998969 
L 150.644396 139.246524 
L 150.894734 139.491499 
L 151.192726 139.779708 
L 151.490718 140.064179 
L 151.788711 140.344866 
L 152.086703 140.621724 
L 152.237607 140.76045 
L 152.510458 141.008742 
L 152.78331 141.253732 
L 153.056161 141.495385 
L 153.329012 141.733667 
L 153.584847 141.953995 
L 153.840682 142.171299 
L 154.213393 142.482408 
L 154.586104 142.786951 
L 154.958816 143.084839 
L 155.331527 143.375985 
L 155.706727 143.662175 
L 156.081928 143.941351 
L 156.38324 144.16041 
L 156.684552 144.374842 
L 156.930886 144.546677 
L 157.177221 144.715362 
L 157.423555 144.880871 
L 157.66989 145.043179 
L 157.968737 145.235753 
L 158.278896 145.430545 
L 158.589054 145.620122 
L 158.833975 145.766104 
L 159.078896 145.908777 
L 159.323816 146.048115 
L 159.568737 146.184095 
L 159.945845 146.386838 
L 160.322954 146.581465 
L 160.66304 146.749949 
L 161.003126 146.911691 
L 161.249658 147.024686 
L 161.496189 147.134077 
L 161.742721 147.239838 
L 161.989252 147.341944 
L 162.361408 147.489099 
L 162.733563 147.627778 
L 163.004321 147.723296 
L 163.275079 147.814246 
L 163.545836 147.900596 
L 163.816594 147.982311 
L 164.182799 148.085397 
L 164.549004 148.179859 
L 164.745174 148.226884 
L 164.941344 148.271397 
L 165.137515 148.313385 
L 165.333685 148.352836 
L 165.629273 148.407458 
L 165.924861 148.456245 
L 166.161669 148.49109 
L 166.398477 148.522139 
L 166.635284 148.549369 
L 166.872092 148.572758 
L 167.0841 148.590419 
L 167.296108 148.604966 
L 167.551342 148.618326 
L 167.806576 148.627121 
L 168.06181 148.631322 
L 168.317044 148.630902 
L 168.552406 148.626394 
L 168.787769 148.617909 
L 169.023132 148.605426 
L 169.258494 148.588921 
L 169.486603 148.569067 
L 169.714713 148.545394 
L 169.942822 148.517883 
L 170.170931 148.486513 
L 170.390589 148.452638 
L 170.610246 148.415149 
L 170.829904 148.374027 
L 171.049562 148.329252 
L 171.367149 148.258023 
L 171.650608 148.187926 
L 171.934066 148.111634 
L 172.217524 148.02911 
L 172.500982 147.940315 
L 172.721521 147.866867 
L 172.94206 147.789581 
L 173.124013 147.722915 
L 173.305965 147.653613 
L 173.487918 147.581665 
L 173.669871 147.507062 
L 173.887726 147.414229 
L 174.105581 147.317557 
L 174.323436 147.217027 
L 174.541291 147.112622 
L 174.737665 147.015175 
L 174.934039 146.914553 
L 175.130414 146.810741 
L 175.326788 146.703727 
L 175.630597 146.531828 
L 175.934407 146.352186 
L 176.201479 146.187834 
L 176.468551 146.017428 
L 176.735623 145.840937 
L 177.002695 145.658327 
L 177.293963 145.45216 
L 177.585231 145.238636 
L 177.74998 145.114586 
L 177.914729 144.988161 
L 178.079478 144.859353 
L 178.244227 144.728155 
L 178.408977 144.594558 
L 178.573726 144.458555 
L 178.738475 144.320139 
L 178.903224 144.179302 
L 179.172024 143.944299 
L 179.440823 143.702797 
L 179.679092 143.483265 
L 179.91736 143.258578 
L 180.155628 143.028713 
L 180.393897 142.793645 
L 180.563342 142.623299 
L 180.732787 142.450301 
L 180.890569 142.286821 
L 181.048352 142.121028 
L 181.206134 141.952915 
L 181.363917 141.782477 
L 181.521699 141.609707 
L 181.679482 141.434597 
L 181.837264 141.257142 
L 181.995047 141.077333 
L 182.283267 140.742783 
L 182.534828 140.444318 
L 182.786389 140.139797 
L 183.037949 139.829193 
L 183.28951 139.512479 
L 183.510708 139.228921 
L 183.731906 138.9406 
L 183.953104 138.647497 
L 184.174302 138.349592 
L 184.436996 137.98954 
L 184.69969 137.622659 
L 184.962384 137.24892 
L 185.225078 136.86829 
L 185.431996 136.563606 
L 185.58791 136.331178 
L 185.743824 136.096297 
L 185.899737 135.858957 
L 186.055651 135.619151 
L 186.211565 135.376872 
L 186.367479 135.132113 
L 186.523393 134.88487 
L 186.679306 134.635134 
L 186.890808 134.292365 
L 187.10231 133.944983 
L 187.313812 133.59297 
L 187.525313 133.236311 
L 187.695716 132.945567 
L 187.866119 132.651788 
L 188.036522 132.354966 
L 188.206925 132.055092 
L 188.369458 131.766215 
L 188.531991 131.474547 
L 188.694524 131.18008 
L 188.857058 130.882806 
L 189.0669 130.494843 
L 189.276742 130.102173 
L 189.486584 129.704782 
L 189.696427 129.302654 
L 189.844409 129.016213 
L 189.992392 128.727402 
L 190.140375 128.436216 
L 190.288358 128.14265 
L 190.484008 127.750858 
L 190.679659 127.354882 
L 190.87531 126.95471 
L 191.07096 126.550329 
L 191.357701 125.950046 
L 191.644442 125.340655 
L 191.931183 124.722115 
L 192.217924 124.094386 
L 192.416908 123.653351 
L 192.615892 123.207859 
L 192.814875 122.757894 
L 193.013859 122.303445 
L 193.226724 121.812312 
L 193.439589 121.316015 
L 193.652455 120.814537 
L 193.86532 120.307861 
L 194.062746 119.833275 
L 194.260171 119.354191 
L 194.457597 118.870596 
L 194.655023 118.382476 
L 194.842188 117.915533 
L 195.029354 117.444501 
L 195.21652 116.969368 
L 195.403685 116.490124 
L 195.552122 116.107115 
L 195.700558 115.721507 
L 195.848995 115.333295 
L 195.997432 114.942473 
L 196.168732 114.488201 
L 196.340032 114.030437 
L 196.511333 113.569172 
L 196.682633 113.104397 
L 196.824357 112.71721 
L 196.966081 112.327611 
L 197.107806 111.935593 
L 197.24953 111.541153 
L 197.435907 111.018742 
L 197.622284 110.492121 
L 197.808661 109.96128 
L 197.995038 109.426208 
L 198.191645 108.857166 
L 198.388253 108.28339 
L 198.58486 107.704867 
L 198.781468 107.121584 
L 199.009265 106.439802 
L 199.237062 105.751592 
L 199.464858 105.056935 
L 199.692655 104.355809 
L 199.943618 103.57587 
L 200.194581 102.788029 
L 200.445543 101.992259 
z
" style="fill:#cde0eb;opacity:0.5;"/>
   </g>
   <g id="matplotlib.axis_1">
    <g id="xtick_1">
     <g id="line2d_1">
      <defs>
       <path d="M 0 0 
L 0 3.5 
" id="md02091408e" style="stroke:#000000;stroke-width:0.8;"/>
      </defs>
      <g>
       <use style="stroke:#000000;stroke-width:0.8;" x="43.72731" xlink:href="#md02091408e" y="101.188533"/>
      </g>
     </g>
     <g id="text_1">
      <!-- -2 -->
      <defs>
       <path d="M 4.890625 31.390625 
L 31.203125 31.390625 
L 31.203125 23.390625 
L 4.890625 23.390625 
z
" id="DejaVuSans-45"/>
       <path d="M 19.1875 8.296875 
L 53.609375 8.296875 
L 53.609375 0 
L 7.328125 0 
L 7.328125 8.296875 
Q 12.9375 14.109375 22.625 23.890625 
Q 32.328125 33.6875 34.8125 36.53125 
Q 39.546875 41.84375 41.421875 45.53125 
Q 43.3125 49.21875 43.3125 52.78125 
Q 43.3125 58.59375 39.234375 62.25 
Q 35.15625 65.921875 28.609375 65.921875 
Q 23.96875 65.921875 18.8125 64.3125 
Q 13.671875 62.703125 7.8125 59.421875 
L 7.8125 69.390625 
Q 13.765625 71.78125 18.9375 73 
Q 24.125 74.21875 28.421875 74.21875 
Q 39.75 74.21875 46.484375 68.546875 
Q 53.21875 62.890625 53.21875 53.421875 
Q 53.21875 48.921875 51.53125 44.890625 
Q 49.859375 40.875 45.40625 35.40625 
Q 44.1875 33.984375 37.640625 27.21875 
Q 31.109375 20.453125 19.1875 8.296875 
z
" id="DejaVuSans-50"/>
      </defs>
      <g transform="translate(38.742154 115.78697)scale(0.1 -0.1)">
       <use xlink:href="#DejaVuSans-45"/>
       <use x="36.083984" xlink:href="#DejaVuSans-50"/>
      </g>
     </g>
    </g>
    <g id="xtick_2">
     <g id="line2d_2">
      <g>
       <use style="stroke:#000000;stroke-width:0.8;" x="200.696506" xlink:href="#md02091408e" y="101.188533"/>
      </g>
     </g>
     <g id="text_2">
      <!-- 2 -->
      <g transform="translate(197.515256 115.78697)scale(0.1 -0.1)">
       <use xlink:href="#DejaVuSans-50"/>
      </g>
     </g>
    </g>
    <g id="text_3">
     <!-- $x$ -->
     <defs>
      <path d="M 7.8125 2.875 
Q 9.578125 1.515625 12.796875 1.515625 
Q 15.921875 1.515625 18.3125 4.515625 
Q 20.703125 7.515625 21.578125 11.078125 
L 26.125 28.8125 
Q 27.203125 33.640625 27.203125 35.40625 
Q 27.203125 37.890625 25.8125 39.75 
Q 24.421875 41.609375 21.921875 41.609375 
Q 18.75 41.609375 15.96875 39.625 
Q 13.1875 37.640625 11.28125 34.59375 
Q 9.375 31.546875 8.59375 28.421875 
Q 8.40625 27.78125 7.8125 27.78125 
L 6.59375 27.78125 
Q 5.8125 27.78125 5.8125 28.71875 
L 5.8125 29 
Q 6.78125 32.71875 9.125 36.25 
Q 11.46875 39.796875 14.859375 41.984375 
Q 18.265625 44.1875 22.125 44.1875 
Q 25.78125 44.1875 28.734375 42.234375 
Q 31.6875 40.28125 32.90625 36.921875 
Q 34.625 39.984375 37.28125 42.078125 
Q 39.9375 44.1875 43.109375 44.1875 
Q 45.265625 44.1875 47.5 43.421875 
Q 49.75 42.671875 51.171875 41.109375 
Q 52.59375 39.546875 52.59375 37.203125 
Q 52.59375 34.671875 50.953125 32.828125 
Q 49.3125 31 46.78125 31 
Q 45.171875 31 44.09375 32.03125 
Q 43.015625 33.0625 43.015625 34.625 
Q 43.015625 36.71875 44.453125 38.296875 
Q 45.90625 39.890625 47.90625 40.1875 
Q 46.09375 41.609375 42.921875 41.609375 
Q 39.703125 41.609375 37.328125 38.625 
Q 34.96875 35.640625 33.984375 31.984375 
L 29.59375 14.3125 
Q 28.515625 10.296875 28.515625 7.71875 
Q 28.515625 5.171875 29.953125 3.34375 
Q 31.390625 1.515625 33.796875 1.515625 
Q 38.484375 1.515625 42.15625 5.640625 
Q 45.84375 9.765625 47.015625 14.703125 
Q 47.21875 15.28125 47.796875 15.28125 
L 49.03125 15.28125 
Q 49.421875 15.28125 49.65625 15.015625 
Q 49.90625 14.75 49.90625 14.40625 
Q 49.90625 14.3125 49.8125 14.109375 
Q 48.390625 8.15625 43.84375 3.515625 
Q 39.3125 -1.125 33.59375 -1.125 
Q 29.9375 -1.125 26.984375 0.84375 
Q 24.03125 2.828125 22.796875 6.203125 
Q 21.234375 3.265625 18.46875 1.0625 
Q 15.71875 -1.125 12.59375 -1.125 
Q 10.453125 -1.125 8.171875 -0.359375 
Q 5.90625 0.390625 4.484375 1.953125 
Q 3.078125 3.515625 3.078125 5.90625 
Q 3.078125 8.25 4.703125 10.171875 
Q 6.34375 12.109375 8.796875 12.109375 
Q 10.453125 12.109375 11.578125 11.109375 
Q 12.703125 10.109375 12.703125 8.5 
Q 12.703125 6.390625 11.296875 4.828125 
Q 9.90625 3.265625 7.8125 2.875 
z
" id="Cmmi10-120"/>
     </defs>
     <g transform="translate(228.042959 101.188533)scale(0.16 -0.16)">
      <use transform="translate(0 0.8125)" xlink:href="#Cmmi10-120"/>
     </g>
    </g>
   </g>
   <g id="matplotlib.axis_2">
    <g id="ytick_1">
     <g id="line2d_3">
      <defs>
       <path d="M 0 0 
L -3.5 0 
" id="m7404341239" style="stroke:#000000;stroke-width:0.8;"/>
      </defs>
      <g>
       <use style="stroke:#000000;stroke-width:0.8;" x="122.211908" xlink:href="#m7404341239" y="147.115704"/>
      </g>
     </g>
     <g id="text_4">
      <!-- -8 -->
      <defs>
       <path d="M 31.78125 34.625 
Q 24.75 34.625 20.71875 30.859375 
Q 16.703125 27.09375 16.703125 20.515625 
Q 16.703125 13.921875 20.71875 10.15625 
Q 24.75 6.390625 31.78125 6.390625 
Q 38.8125 6.390625 42.859375 10.171875 
Q 46.921875 13.96875 46.921875 20.515625 
Q 46.921875 27.09375 42.890625 30.859375 
Q 38.875 34.625 31.78125 34.625 
z
M 21.921875 38.8125 
Q 15.578125 40.375 12.03125 44.71875 
Q 8.5 49.078125 8.5 55.328125 
Q 8.5 64.0625 14.71875 69.140625 
Q 20.953125 74.21875 31.78125 74.21875 
Q 42.671875 74.21875 48.875 69.140625 
Q 55.078125 64.0625 55.078125 55.328125 
Q 55.078125 49.078125 51.53125 44.71875 
Q 48 40.375 41.703125 38.8125 
Q 48.828125 37.15625 52.796875 32.3125 
Q 56.78125 27.484375 56.78125 20.515625 
Q 56.78125 9.90625 50.3125 4.234375 
Q 43.84375 -1.421875 31.78125 -1.421875 
Q 19.734375 -1.421875 13.25 4.234375 
Q 6.78125 9.90625 6.78125 20.515625 
Q 6.78125 27.484375 10.78125 32.3125 
Q 14.796875 37.15625 21.921875 38.8125 
z
M 18.3125 54.390625 
Q 18.3125 48.734375 21.84375 45.5625 
Q 25.390625 42.390625 31.78125 42.390625 
Q 38.140625 42.390625 41.71875 45.5625 
Q 45.3125 48.734375 45.3125 54.390625 
Q 45.3125 60.0625 41.71875 63.234375 
Q 38.140625 66.40625 31.78125 66.40625 
Q 25.390625 66.40625 21.84375 63.234375 
Q 18.3125 60.0625 18.3125 54.390625 
z
" id="DejaVuSans-56"/>
      </defs>
      <g transform="translate(105.241596 150.914923)scale(0.1 -0.1)">
       <use xlink:href="#DejaVuSans-45"/>
       <use x="36.083984" xlink:href="#DejaVuSans-56"/>
      </g>
     </g>
    </g>
    <g id="ytick_2">
     <g id="line2d_4">
      <g>
       <use style="stroke:#000000;stroke-width:0.8;" x="122.211908" xlink:href="#m7404341239" y="101.188533"/>
      </g>
     </g>
    </g>
    <g id="text_5">
     <!-- $y$ -->
     <defs>
      <path d="M 8.40625 -14.3125 
Q 10.5 -17.921875 15.71875 -17.921875 
Q 20.453125 -17.921875 23.921875 -14.59375 
Q 27.390625 -11.28125 29.515625 -6.5625 
Q 31.640625 -1.859375 32.8125 3.078125 
Q 28.375 -1.125 23.1875 -1.125 
Q 19.234375 -1.125 16.453125 0.234375 
Q 13.671875 1.609375 12.125 4.3125 
Q 10.59375 7.03125 10.59375 10.890625 
Q 10.59375 14.15625 11.46875 17.59375 
Q 12.359375 21.046875 13.9375 25.265625 
Q 15.53125 29.5 16.703125 32.625 
Q 18.015625 36.28125 18.015625 38.625 
Q 18.015625 41.609375 15.828125 41.609375 
Q 11.859375 41.609375 9.296875 37.53125 
Q 6.734375 33.453125 5.515625 28.421875 
Q 5.328125 27.78125 4.6875 27.78125 
L 3.515625 27.78125 
Q 2.6875 27.78125 2.6875 28.71875 
L 2.6875 29 
Q 4.296875 34.96875 7.609375 39.578125 
Q 10.9375 44.1875 16.015625 44.1875 
Q 19.578125 44.1875 22.046875 41.84375 
Q 24.515625 39.5 24.515625 35.890625 
Q 24.515625 34.03125 23.6875 31.984375 
Q 23.25 30.765625 21.6875 26.65625 
Q 20.125 22.5625 19.28125 19.875 
Q 18.453125 17.1875 17.921875 14.59375 
Q 17.390625 12.015625 17.390625 9.421875 
Q 17.390625 6.109375 18.796875 3.8125 
Q 20.21875 1.515625 23.296875 1.515625 
Q 29.5 1.515625 34.421875 9.078125 
L 42 39.890625 
Q 42.328125 41.21875 43.546875 42.15625 
Q 44.78125 43.109375 46.1875 43.109375 
Q 47.40625 43.109375 48.3125 42.328125 
Q 49.21875 41.546875 49.21875 40.28125 
Q 49.21875 39.703125 49.125 39.5 
L 39.203125 -0.296875 
Q 37.890625 -5.421875 34.375 -10.109375 
Q 30.859375 -14.796875 25.90625 -17.65625 
Q 20.953125 -20.515625 15.578125 -20.515625 
Q 12.984375 -20.515625 10.4375 -19.5 
Q 7.90625 -18.5 6.34375 -16.5 
Q 4.78125 -14.5 4.78125 -11.8125 
Q 4.78125 -9.078125 6.390625 -7.078125 
Q 8.015625 -5.078125 10.6875 -5.078125 
Q 12.3125 -5.078125 13.40625 -6.078125 
Q 14.5 -7.078125 14.5 -8.6875 
Q 14.5 -10.984375 12.78125 -12.6875 
Q 11.078125 -14.40625 8.796875 -14.40625 
Q 8.6875 -14.359375 8.59375 -14.328125 
Q 8.5 -14.3125 8.40625 -14.3125 
z
" id="Cmmi10-121"/>
     </defs>
     <g transform="translate(118.211908 19.325)scale(0.16 -0.16)">
      <use transform="translate(0 0.8125)" xlink:href="#Cmmi10-121"/>
     </g>
    </g>
   </g>
   <g id="line2d_5">
    <path clip-path="url(#p290f9eb776)" d="M 43.72731 147.115704 
L 46.270195 136.408799 
L 48.872331 126.371373 
L 51.452691 117.306408 
L 53.795042 109.818935 
L 56.155605 102.963966 
L 58.477927 96.874905 
L 60.762111 91.498549 
L 62.93468 86.930021 
L 65.036455 82.999338 
L 66.932034 79.853379 
L 69.079656 76.731272 
L 71.008781 74.313879 
L 72.931198 72.256652 
L 74.799039 70.582625 
L 76.468816 69.34792 
L 78.358825 68.238157 
L 80.096396 67.478003 
L 81.857851 66.952267 
L 83.568677 66.668832 
L 85.144954 66.598393 
L 86.898344 66.726532 
L 88.659579 67.065201 
L 90.364553 67.584711 
L 92.145298 68.31933 
L 94.416837 69.526074 
L 96.522572 70.898577 
L 98.798492 72.63773 
L 101.195325 74.734846 
L 103.834764 77.331725 
L 106.639432 80.38728 
L 109.600345 83.903232 
L 113.078989 88.355711 
L 117.506559 94.417138 
L 123.309992 102.799077 
L 136.247492 121.668085 
L 140.517134 127.468985 
L 144.387796 132.355732 
L 147.716463 136.196883 
L 150.644396 139.246524 
L 153.329012 141.733667 
L 155.706727 143.662175 
L 157.968737 145.235753 
L 159.945845 146.386838 
L 161.989252 147.341944 
L 163.816594 147.982311 
L 165.629273 148.407458 
L 167.551342 148.618326 
L 169.258494 148.588921 
L 171.049562 148.329252 
L 172.721521 147.866867 
L 174.541291 147.112622 
L 176.201479 146.187834 
L 178.079478 144.859353 
L 179.91736 143.258578 
L 181.837264 141.257142 
L 183.731906 138.9406 
L 185.743824 136.096297 
L 187.695716 132.945567 
L 189.696427 129.302654 
L 191.644442 125.340655 
L 193.86532 120.307861 
L 196.168732 114.488201 
L 198.388253 108.28339 
L 200.696506 101.188533 
L 200.696506 101.188533 
" style="fill:none;stroke:#0000cc;stroke-linecap:square;stroke-width:1.5;"/>
   </g>
   <g id="line2d_6">
    <path clip-path="url(#p290f9eb776)" d="M 43.72731 147.115704 
L 49.700156 142.005964 
L 55.765754 137.089092 
L 61.877866 132.411994 
L 67.844009 128.115231 
L 73.992662 123.964721 
L 80.271295 120.017349 
L 86.057332 116.639908 
L 92.380132 113.234566 
L 97.896668 110.506943 
L 103.414157 108.005807 
L 108.857329 105.760773 
L 114.336622 103.723949 
L 119.953986 101.868178 
L 125.544866 100.254764 
L 131.572275 98.77644 
L 137.043215 97.669113 
L 142.766942 96.74949 
L 148.546431 96.068754 
L 154.399465 95.633174 
L 159.567276 95.46091 
L 165.092652 95.496988 
L 170.831162 95.775425 
L 176.547696 96.296915 
L 181.61718 96.96322 
L 187.307435 97.939363 
L 192.692072 99.085392 
L 198.424532 100.543026 
L 200.696506 101.188533 
L 200.696506 101.188533 
" style="fill:none;stroke:#3ccc00;stroke-linecap:square;stroke-width:1.5;"/>
   </g>
   <g id="line2d_7">
    <path clip-path="url(#p290f9eb776)" d="M 33.916736 156.085855 
L 40.318539 150.15111 
L 46.393169 144.80221 
L 52.903298 139.375265 
L 59.129489 134.480637 
L 65.334393 129.890295 
L 71.449577 125.647191 
L 77.549291 121.692579 
L 83.809404 117.922425 
L 89.385013 114.810526 
L 95.213342 111.805358 
L 100.63911 109.235394 
L 106.308929 106.784358 
L 112.081762 104.535046 
L 117.976476 102.494641 
L 123.618695 100.784303 
L 129.693424 99.208202 
L 134.552989 98.145467 
L 140.100025 97.147588 
L 145.498247 96.396747 
L 150.993343 95.855585 
L 155.971112 95.559715 
L 161.40108 95.447647 
L 166.912665 95.55871 
L 171.658803 95.835842 
L 177.634004 96.423562 
L 183.073841 97.190115 
L 188.871898 98.250052 
L 194.511867 99.52158 
L 200.368498 101.092963 
L 205.696388 102.744628 
L 211.584658 104.816222 
L 216.393426 106.699793 
L 216.393426 106.699793 
" style="fill:none;stroke:#0000ff;stroke-linecap:square;stroke-width:1.5;"/>
   </g>
   <g id="line2d_8">
    <path clip-path="url(#p290f9eb776)" d="M 33.916736 197.258846 
L 36.778159 181.130314 
L 39.629415 166.309641 
L 42.41176 153.012636 
L 45.012217 141.592834 
L 47.696554 130.793574 
L 50.325969 121.15773 
L 52.830931 112.816842 
L 55.25925 105.486705 
L 57.489749 99.38788 
L 59.712121 93.895797 
L 61.884924 89.07226 
L 64.09506 84.70149 
L 66.287361 80.881592 
L 68.344773 77.747723 
L 70.15789 75.335822 
L 72.134929 73.066939 
L 74.044275 71.221256 
L 75.886378 69.751064 
L 77.748651 68.563688 
L 79.460832 67.727745 
L 81.303483 67.091703 
L 83.164945 66.715998 
L 84.750532 66.599246 
L 86.403315 66.668826 
L 88.2916 66.977513 
L 90.179931 67.519616 
L 92.281213 68.38319 
L 94.255639 69.43085 
L 96.549059 70.917325 
L 98.965943 72.77565 
L 101.489542 75.009924 
L 104.34038 77.861069 
L 107.404267 81.268646 
L 110.712019 85.291375 
L 114.677691 90.499957 
L 119.092385 96.6698 
L 125.33111 105.779347 
L 134.995457 119.903886 
L 139.792211 126.511056 
L 143.325968 131.056402 
L 146.73948 135.108199 
L 149.723245 138.323101 
L 152.632502 141.118734 
L 155.089014 143.187315 
L 157.31564 144.808756 
L 159.505745 146.149444 
L 161.646741 147.199096 
L 163.446292 147.869386 
L 165.469655 148.378684 
L 167.175492 148.597073 
L 169.068051 148.602587 
L 170.748798 148.389635 
L 172.447274 147.957623 
L 174.221811 147.264403 
L 175.851423 146.402025 
L 177.688238 145.161353 
L 179.441515 143.702167 
L 181.34829 141.799462 
L 183.247912 139.565274 
L 185.19873 136.906779 
L 187.250674 133.698539 
L 189.213569 130.220883 
L 191.251465 126.173508 
L 193.455105 121.279638 
L 195.757725 115.572306 
L 198.044216 109.284312 
L 200.351619 102.291011 
L 202.801481 94.130289 
L 205.274025 85.100696 
L 207.865974 74.751301 
L 210.532431 63.129552 
L 213.159695 50.680399 
L 215.923737 36.479347 
L 216.393426 33.951154 
L 216.393426 33.951154 
" style="fill:none;stroke:#ff0000;stroke-linecap:square;stroke-width:1.5;"/>
   </g>
   <g id="patch_4">
    <path d="M 122.211908 200.525 
L 122.211908 30.685 
" style="fill:none;stroke:#000000;stroke-linecap:square;stroke-linejoin:miter;stroke-width:0.8;"/>
   </g>
   <g id="patch_5">
    <path d="M 30.267202 101.188533 
L 220.042959 101.188533 
" style="fill:none;stroke:#000000;stroke-linecap:square;stroke-linejoin:miter;stroke-width:0.8;"/>
   </g>
   <g id="text_6">
    <!-- $y= 3x^3-x^2-10x$ -->
    <defs>
     <path d="M 7.515625 13.28125 
Q 6.6875 13.28125 6.140625 13.90625 
Q 5.609375 14.546875 5.609375 15.28125 
Q 5.609375 16.109375 6.140625 16.6875 
Q 6.6875 17.28125 7.515625 17.28125 
L 70.3125 17.28125 
Q 71.046875 17.28125 71.578125 16.6875 
Q 72.125 16.109375 72.125 15.28125 
Q 72.125 14.546875 71.578125 13.90625 
Q 71.046875 13.28125 70.3125 13.28125 
z
M 7.515625 32.71875 
Q 6.6875 32.71875 6.140625 33.296875 
Q 5.609375 33.890625 5.609375 34.71875 
Q 5.609375 35.453125 6.140625 36.078125 
Q 6.6875 36.71875 7.515625 36.71875 
L 70.3125 36.71875 
Q 71.046875 36.71875 71.578125 36.078125 
Q 72.125 35.453125 72.125 34.71875 
Q 72.125 33.890625 71.578125 33.296875 
Q 71.046875 32.71875 70.3125 32.71875 
z
" id="Cmr10-61"/>
     <path d="M 9.515625 7.71875 
Q 11.859375 4.296875 15.8125 2.640625 
Q 19.78125 0.984375 24.3125 0.984375 
Q 30.125 0.984375 32.5625 5.9375 
Q 35.015625 10.890625 35.015625 17.1875 
Q 35.015625 20.015625 34.5 22.84375 
Q 33.984375 25.6875 32.765625 28.125 
Q 31.546875 30.5625 29.421875 32.03125 
Q 27.296875 33.5 24.21875 33.5 
L 17.578125 33.5 
Q 16.703125 33.5 16.703125 34.421875 
L 16.703125 35.296875 
Q 16.703125 36.078125 17.578125 36.078125 
L 23.09375 36.53125 
Q 26.609375 36.53125 28.921875 39.15625 
Q 31.25 41.796875 32.328125 45.578125 
Q 33.40625 49.359375 33.40625 52.78125 
Q 33.40625 57.5625 31.15625 60.640625 
Q 28.90625 63.71875 24.3125 63.71875 
Q 20.515625 63.71875 17.046875 62.28125 
Q 13.578125 60.84375 11.53125 57.90625 
Q 11.71875 57.953125 11.859375 57.984375 
Q 12.015625 58.015625 12.203125 58.015625 
Q 14.453125 58.015625 15.96875 56.453125 
Q 17.484375 54.890625 17.484375 52.6875 
Q 17.484375 50.53125 15.96875 48.96875 
Q 14.453125 47.40625 12.203125 47.40625 
Q 10.015625 47.40625 8.453125 48.96875 
Q 6.890625 50.53125 6.890625 52.6875 
Q 6.890625 56.984375 9.46875 60.15625 
Q 12.0625 63.328125 16.140625 64.96875 
Q 20.21875 66.609375 24.3125 66.609375 
Q 27.34375 66.609375 30.703125 65.703125 
Q 34.078125 64.796875 36.8125 63.109375 
Q 39.546875 61.421875 41.28125 58.78125 
Q 43.015625 56.15625 43.015625 52.78125 
Q 43.015625 48.578125 41.140625 45.015625 
Q 39.265625 41.453125 35.984375 38.859375 
Q 32.71875 36.28125 28.8125 35.015625 
Q 33.15625 34.1875 37.0625 31.734375 
Q 40.96875 29.296875 43.328125 25.484375 
Q 45.703125 21.6875 45.703125 17.28125 
Q 45.703125 11.765625 42.671875 7.296875 
Q 39.65625 2.828125 34.71875 0.3125 
Q 29.78125 -2.203125 24.3125 -2.203125 
Q 19.625 -2.203125 14.90625 -0.40625 
Q 10.203125 1.375 7.203125 4.9375 
Q 4.203125 8.5 4.203125 13.484375 
Q 4.203125 15.96875 5.859375 17.625 
Q 7.515625 19.28125 10.015625 19.28125 
Q 11.625 19.28125 12.96875 18.53125 
Q 14.3125 17.78125 15.0625 16.40625 
Q 15.828125 15.046875 15.828125 13.484375 
Q 15.828125 11.03125 14.109375 9.375 
Q 12.40625 7.71875 10.015625 7.71875 
z
" id="Cmr10-51"/>
     <path d="M 10.203125 23 
Q 9.375 23 8.828125 23.625 
Q 8.296875 24.265625 8.296875 25 
Q 8.296875 25.734375 8.828125 26.359375 
Q 9.375 27 10.203125 27 
L 67.578125 27 
Q 68.359375 27 68.875 26.359375 
Q 69.390625 25.734375 69.390625 25 
Q 69.390625 24.265625 68.875 23.625 
Q 68.359375 23 67.578125 23 
z
" id="Cmsy10-161"/>
     <path d="M 4.984375 0 
L 4.984375 2.6875 
Q 4.984375 2.9375 5.171875 3.21875 
L 20.703125 20.40625 
Q 24.21875 24.21875 26.40625 26.796875 
Q 28.609375 29.390625 30.75 32.765625 
Q 32.90625 36.140625 34.15625 39.625 
Q 35.40625 43.109375 35.40625 47.015625 
Q 35.40625 51.125 33.890625 54.859375 
Q 32.375 58.59375 29.375 60.84375 
Q 26.375 63.09375 22.125 63.09375 
Q 17.78125 63.09375 14.3125 60.46875 
Q 10.84375 57.859375 9.421875 53.71875 
Q 9.8125 53.8125 10.5 53.8125 
Q 12.75 53.8125 14.328125 52.296875 
Q 15.921875 50.78125 15.921875 48.390625 
Q 15.921875 46.09375 14.328125 44.5 
Q 12.75 42.921875 10.5 42.921875 
Q 8.15625 42.921875 6.5625 44.546875 
Q 4.984375 46.1875 4.984375 48.390625 
Q 4.984375 52.15625 6.390625 55.4375 
Q 7.8125 58.734375 10.46875 61.296875 
Q 13.140625 63.875 16.484375 65.234375 
Q 19.828125 66.609375 23.578125 66.609375 
Q 29.296875 66.609375 34.21875 64.1875 
Q 39.15625 61.765625 42.03125 57.34375 
Q 44.921875 52.9375 44.921875 47.015625 
Q 44.921875 42.671875 43.015625 38.765625 
Q 41.109375 34.859375 38.125 31.65625 
Q 35.15625 28.46875 30.515625 24.40625 
Q 25.875 20.359375 24.421875 19 
L 13.09375 8.109375 
L 22.703125 8.109375 
Q 29.78125 8.109375 34.546875 8.21875 
Q 39.3125 8.34375 39.59375 8.59375 
Q 40.765625 9.859375 42 17.828125 
L 44.921875 17.828125 
L 42.09375 0 
z
" id="Cmr10-50"/>
     <path d="M 9.28125 0 
L 9.28125 3.515625 
Q 21.78125 3.515625 21.78125 6.6875 
L 21.78125 59.1875 
Q 16.609375 56.6875 8.6875 56.6875 
L 8.6875 60.203125 
Q 20.953125 60.203125 27.203125 66.609375 
L 28.609375 66.609375 
Q 28.953125 66.609375 29.265625 66.328125 
Q 29.59375 66.0625 29.59375 65.71875 
L 29.59375 6.6875 
Q 29.59375 3.515625 42.09375 3.515625 
L 42.09375 0 
z
" id="Cmr10-49"/>
     <path d="M 25 -2.203125 
Q 12.75 -2.203125 8.328125 7.875 
Q 3.90625 17.96875 3.90625 31.890625 
Q 3.90625 40.578125 5.484375 48.234375 
Q 7.078125 55.90625 11.78125 61.25 
Q 16.5 66.609375 25 66.609375 
Q 31.59375 66.609375 35.78125 63.375 
Q 39.984375 60.15625 42.1875 55.046875 
Q 44.390625 49.953125 45.1875 44.109375 
Q 46 38.28125 46 31.890625 
Q 46 23.296875 44.40625 15.796875 
Q 42.828125 8.296875 38.1875 3.046875 
Q 33.546875 -2.203125 25 -2.203125 
z
M 25 0.390625 
Q 30.5625 0.390625 33.296875 6.09375 
Q 36.03125 11.8125 36.671875 18.75 
Q 37.3125 25.6875 37.3125 33.5 
Q 37.3125 41.015625 36.671875 47.359375 
Q 36.03125 53.71875 33.3125 58.859375 
Q 30.609375 64.015625 25 64.015625 
Q 19.34375 64.015625 16.609375 58.828125 
Q 13.875 53.65625 13.234375 47.328125 
Q 12.59375 41.015625 12.59375 33.5 
Q 12.59375 27.9375 12.859375 23 
Q 13.140625 18.0625 14.3125 12.8125 
Q 15.484375 7.5625 18.09375 3.96875 
Q 20.703125 0.390625 25 0.390625 
z
" id="Cmr10-48"/>
    </defs>
    <g style="fill:#ff0000;" transform="translate(7.2 62.74109)scale(0.12 -0.12)">
     <use transform="translate(0 0.109375)" xlink:href="#Cmmi10-121"/>
     <use transform="translate(66.582031 0.109375)" xlink:href="#Cmr10-61"/>
     <use transform="translate(161.826172 0.109375)" xlink:href="#Cmr10-51"/>
     <use transform="translate(211.826172 0.109375)" xlink:href="#Cmmi10-120"/>
     <use transform="translate(275.209531 38.373438)scale(0.7)" xlink:href="#Cmr10-51"/>
     <use transform="translate(334.145469 0.109375)" xlink:href="#Cmsy10-161"/>
     <use transform="translate(429.389609 0.109375)" xlink:href="#Cmmi10-120"/>
     <use transform="translate(492.772969 38.373438)scale(0.7)" xlink:href="#Cmr10-50"/>
     <use transform="translate(551.708906 0.109375)" xlink:href="#Cmsy10-161"/>
     <use transform="translate(646.953047 0.109375)" xlink:href="#Cmr10-49"/>
     <use transform="translate(696.953047 0.109375)" xlink:href="#Cmr10-48"/>
     <use transform="translate(746.953047 0.109375)" xlink:href="#Cmmi10-120"/>
    </g>
   </g>
   <g id="text_7">
    <!-- $y= -x^2+2x$ -->
    <defs>
     <path d="M 7.515625 23 
Q 6.6875 23 6.140625 23.625 
Q 5.609375 24.265625 5.609375 25 
Q 5.609375 25.734375 6.140625 26.359375 
Q 6.6875 27 7.515625 27 
L 36.921875 27 
L 36.921875 56.5 
Q 36.921875 57.28125 37.5 57.78125 
Q 38.09375 58.296875 38.921875 58.296875 
Q 39.65625 58.296875 40.28125 57.78125 
Q 40.921875 57.28125 40.921875 56.5 
L 40.921875 27 
L 70.3125 27 
Q 71.046875 27 71.578125 26.359375 
Q 72.125 25.734375 72.125 25 
Q 72.125 24.265625 71.578125 23.625 
Q 71.046875 23 70.3125 23 
L 40.921875 23 
L 40.921875 -6.5 
Q 40.921875 -7.28125 40.28125 -7.78125 
Q 39.65625 -8.296875 38.921875 -8.296875 
Q 38.09375 -8.296875 37.5 -7.78125 
Q 36.921875 -7.28125 36.921875 -6.5 
L 36.921875 23 
z
" id="Cmr10-43"/>
    </defs>
    <g style="fill:#0000ff;" transform="translate(125.454207 87.805843)scale(0.12 -0.12)">
     <use transform="translate(0 0.109375)" xlink:href="#Cmmi10-121"/>
     <use transform="translate(66.582031 0.109375)" xlink:href="#Cmr10-61"/>
     <use transform="translate(179.384766 0.109375)" xlink:href="#Cmsy10-161"/>
     <use transform="translate(274.628906 0.109375)" xlink:href="#Cmmi10-120"/>
     <use transform="translate(338.012266 38.373438)scale(0.7)" xlink:href="#Cmr10-50"/>
     <use transform="translate(396.948203 0.109375)" xlink:href="#Cmr10-43"/>
     <use transform="translate(492.192344 0.109375)" xlink:href="#Cmr10-50"/>
     <use transform="translate(542.192344 0.109375)" xlink:href="#Cmmi10-120"/>
    </g>
   </g>
  </g>
 </g>
 <defs>
  <clipPath id="p290f9eb776">
   <rect height="169.84" width="189.775758" x="30.267202" y="30.685"/>
  </clipPath>
 </defs>
</svg>
