<?xml version="1.0" encoding="utf-8" standalone="no"?>
<!DOCTYPE svg PUBLIC "-//W3C//DTD SVG 1.1//EN"
  "http://www.w3.org/Graphics/SVG/1.1/DTD/svg11.dtd">
<!-- Created with matplotlib (https://matplotlib.org/) -->
<svg height="205.288482pt" version="1.1" viewBox="0 0 243.975144 205.288482" width="243.975144pt" xmlns="http://www.w3.org/2000/svg" xmlns:xlink="http://www.w3.org/1999/xlink">
 <defs>
  <style type="text/css">
*{stroke-linecap:butt;stroke-linejoin:round;}
  </style>
 </defs>
 <g id="figure_1">
  <g id="patch_1">
   <path d="M 0 205.288482 
L 243.975144 205.288482 
L 243.975144 0 
L 0 0 
z
" style="fill:#ffffff;"/>
  </g>
  <g id="axes_1">
   <g id="patch_2">
    <path d="M 7.2 179.279997 
L 214.855144 179.279997 
L 214.855144 38.4275 
L 7.2 38.4275 
z
" style="fill:#ffffff;"/>
   </g>
   <g id="patch_3">
    <path clip-path="url(#p6681155e46)" d="M 210.861776 110.015159 
L 209.445775 111.889771 
L 208.824709 112.703539 
L 208.054452 113.705631 
L 206.740049 115.397349 
L 206.12916 116.175748 
L 204.425171 118.320641 
L 203.470569 119.505297 
L 202.746764 120.395423 
L 201.351429 122.091643 
L 200.728157 122.840913 
L 199.620241 124.159993 
L 199.282365 124.559005 
L 197.765633 126.331391 
L 196.516334 127.768192 
L 195.951144 128.41136 
L 194.38902 130.166818 
L 193.451185 131.205066 
L 192.884117 131.827152 
L 191.667195 133.147641 
L 190.381078 134.521719 
L 189.579415 135.367033 
L 188.503006 136.488554 
L 187.568848 137.449319 
L 186.537393 138.496615 
L 185.733535 139.302966 
L 184.528335 140.495735 
L 183.73664 141.268707 
L 183.035264 141.946504 
L 181.443177 143.460683 
L 180.658919 144.194118 
L 179.506327 145.257112 
L 178.253861 146.392099 
L 177.653606 146.928626 
L 177.026537 147.48398 
L 176.214195 148.195611 
L 175.13027 149.131428 
L 173.671814 150.365841 
L 173.088318 150.851745 
L 171.819036 151.893032 
L 170.399978 153.031717 
L 169.567406 153.687273 
L 169.151682 154.011143 
L 167.250939 155.462517 
L 167.189049 155.508964 
L 165.943123 156.433122 
L 164.215705 157.680124 
L 163.237429 158.368655 
L 162.903535 158.60073 
L 161.593115 159.497159 
L 160.605575 160.157559 
L 159.313638 161.001854 
L 158.448631 161.554686 
L 157.930174 161.881246 
L 156.603057 162.700799 
L 155.700638 163.244648 
L 154.56032 163.916312 
L 153.544283 164.500143 
L 152.721169 164.963008 
L 152.060739 165.327849 
L 150.180362 166.334717 
L 149.482443 166.696409 
L 148.542612 167.173192 
L 147.436539 167.719199 
L 146.286821 168.269433 
L 145.217863 168.765179 
L 144.332465 169.164242 
L 143.403805 169.571553 
L 143.134963 169.687318 
L 141.463337 170.385467 
L 140.801874 170.651419 
L 139.901239 171.00414 
L 138.866548 171.39599 
L 137.32812 171.952178 
L 136.658537 172.184379 
L 135.937325 172.427787 
L 134.462418 172.903935 
L 133.947239 173.063405 
L 132.33544 173.539433 
L 132.086053 173.609988 
L 130.111994 174.139161 
L 129.9096 174.190474 
L 128.460105 174.541976 
L 127.576456 174.742492 
L 126.704191 174.930198 
L 125.191297 175.231667 
L 124.241438 175.40532 
L 123.846762 175.473931 
L 122.254373 175.729626 
L 121.81016 175.794913 
L 120.225839 176.006304 
L 119.341472 176.109723 
L 118.974582 176.149563 
L 117.696711 176.274286 
L 116.127797 176.397592 
L 115.152616 176.457667 
L 114.278065 176.50074 
L 113.35028 176.535269 
L 112.323825 176.560074 
L 111.329264 176.570687 
L 110.25265 176.567285 
L 109.63914 176.558422 
L 108.546104 176.530176 
L 107.135656 176.470147 
L 106.446199 176.431136 
L 105.299365 176.352183 
L 104.300618 176.269115 
L 103.104273 176.152075 
L 102.080019 176.036684 
L 101.29238 175.938419 
L 100.655866 175.852955 
L 99.013758 175.607485 
L 98.411895 175.508497 
L 97.619553 175.370805 
L 96.928346 175.24384 
L 95.283846 174.916118 
L 94.745002 174.800879 
L 92.997464 174.400464 
L 92.909319 174.379186 
L 91.032812 173.901599 
L 90.349844 173.716105 
L 89.41416 173.451859 
L 88.206671 173.093572 
L 87.005463 172.717828 
L 86.142454 172.435978 
L 85.248807 172.133639 
L 83.948754 171.674761 
L 83.67353 171.57472 
L 82.620503 171.182617 
L 81.2841 170.663673 
L 80.372409 170.295964 
L 79.845482 170.078378 
L 78.439667 169.479727 
L 77.813011 169.204367 
L 76.678433 168.692476 
L 75.289768 168.04255 
L 74.662933 167.740741 
L 73.634084 167.233994 
L 72.09631 166.450227 
L 71.330069 166.047903 
L 70.125616 165.39964 
L 69.510932 165.061336 
L 68.61314 164.558151 
L 67.178064 163.731478 
L 66.327639 163.228613 
L 65.141544 162.511133 
L 64.206128 161.932039 
L 63.749118 161.644866 
L 62.255479 160.686845 
L 61.781295 160.376472 
L 59.885597 159.10566 
L 59.485285 158.831167 
L 58.46927 158.124877 
L 57.487329 157.429174 
L 55.857591 156.246084 
L 55.140852 155.714545 
L 54.357838 155.126015 
L 53.231262 154.264889 
L 52.693953 153.848214 
L 51.529409 152.931893 
L 49.851511 151.57979 
L 49.04767 150.918709 
L 48.501791 150.464856 
L 47.235799 149.396973 
L 46.402332 148.682245 
L 45.207759 147.641679 
L 44.291059 146.830237 
L 43.270398 145.913568 
L 42.170099 144.909791 
L 41.46999 144.262681 
L 40.62158 143.469722 
L 39.316223 142.23091 
L 37.887431 140.848867 
L 37.100747 140.076284 
L 36.334241 139.315568 
L 35.598919 138.578426 
L 34.394927 137.355862 
L 33.469322 136.402816 
L 31.98413 134.849684 
L 30.896166 133.693257 
L 30.12178 132.860509 
L 29.234622 131.896648 
L 28.20235 130.761895 
L 26.761136 129.153797 
L 26.606329 128.979415 
L 25.547423 127.778025 
L 24.334291 126.383251 
L 23.06823 124.906665 
L 22.368415 124.081295 
L 20.888483 122.314303 
L 20.030716 121.276766 
L 19.326209 120.41726 
L 17.723001 118.436623 
L 17.00455 117.537896 
L 16.269784 116.611629 
L 14.72723 114.643582 
L 14.285338 114.073945 
L 13.447292 112.986467 
L 11.72849 110.726742 
L 11.193368 110.015159 
L 11.193368 76.737091 
L 12.012054 75.6589 
L 13.096396 74.27181 
L 13.769796 73.43369 
L 14.77144 72.219742 
L 15.63729 71.201616 
L 16.50314 70.212191 
L 17.027552 69.626781 
L 17.985539 68.584108 
L 19.013726 67.503147 
L 20.129559 66.374201 
L 21.269785 65.267491 
L 22.031933 64.553897 
L 23.120631 63.570497 
L 23.80503 62.973731 
L 24.489429 62.393362 
L 25.068247 61.915228 
L 25.827071 61.305894 
L 26.92983 60.455433 
L 27.636765 59.93186 
L 28.3437 59.425011 
L 28.765293 59.130647 
L 29.493351 58.636101 
L 30.22141 58.158901 
L 30.975591 57.682703 
L 31.729772 57.224778 
L 31.84114 57.158696 
L 32.727181 56.646942 
L 33.613222 56.159858 
L 33.875208 56.020521 
L 34.579186 55.656619 
L 35.283163 55.307922 
L 35.789298 55.066539 
L 36.551191 54.71775 
L 37.313084 54.386311 
L 38.368197 53.955637 
L 39.064293 53.689308 
L 39.76039 53.436974 
L 40.70069 53.118095 
L 41.549902 52.851562 
L 42.032805 52.708982 
L 42.882762 52.473685 
L 43.959 52.204061 
L 45.17528 51.936853 
L 46.341631 51.717346 
L 47.437094 51.543354 
L 48.048222 51.45963 
L 48.944145 51.353928 
L 49.774905 51.27379 
L 50.605665 51.210619 
L 51.417923 51.165037 
L 52.273459 51.134089 
L 53.360539 51.119631 
L 54.146521 51.126243 
L 55.33017 51.162748 
L 56.318258 51.217234 
L 57.029652 51.269756 
L 58.551957 51.41881 
L 59.368009 51.518896 
L 59.938072 51.597016 
L 60.779104 51.724414 
L 61.620135 51.866077 
L 62.047524 51.943456 
L 63.353398 52.201997 
L 64.60024 52.479313 
L 65.545454 52.708887 
L 66.688717 53.008323 
L 67.870524 53.342295 
L 68.012224 53.383975 
L 69.573399 53.865886 
L 69.964858 53.993142 
L 71.235866 54.423609 
L 72.195418 54.765726 
L 73.43714 55.229695 
L 73.998152 55.446991 
L 75.830921 56.189104 
L 76.824615 56.611458 
L 77.296984 56.817008 
L 78.594886 57.397211 
L 79.438382 57.786091 
L 80.143007 58.117872 
L 81.466114 58.757388 
L 82.443386 59.243134 
L 83.705562 59.886649 
L 84.81897 60.468842 
L 85.373663 60.763788 
L 86.568773 61.409938 
L 87.051543 61.674967 
L 87.966258 62.183237 
L 89.228195 62.897092 
L 90.510838 63.636931 
L 91.490357 64.211094 
L 92.327223 64.707612 
L 93.163438 65.208994 
L 94.045407 65.743237 
L 95.580694 66.685704 
L 96.508971 67.262727 
L 97.473456 67.867571 
L 98.165889 68.304948 
L 99.767978 69.326176 
L 100.972887 70.101959 
L 101.995557 70.765031 
L 102.266684 70.941476 
L 103.238777 71.576166 
L 104.779053 72.58773 
L 105.421226 73.011313 
L 106.742132 73.885395 
L 107.955999 74.691314 
L 109.012278 75.394109 
L 109.405404 75.655931 
L 110.918452 76.664344 
L 111.53038 77.072288 
L 112.659608 77.824824 
L 113.160739 78.158553 
L 114.686617 79.173178 
L 115.053707 79.416815 
L 116.287632 80.234063 
L 117.733964 81.187843 
L 118.743319 81.850198 
L 119.652401 82.444063 
L 120.189713 82.79374 
L 121.385743 83.568202 
L 122.922911 84.554732 
L 123.142245 84.694612 
L 124.764431 85.721612 
L 125.282562 86.046664 
L 126.846804 87.018453 
L 128.027381 87.741686 
L 128.732573 88.169199 
L 129.877358 88.855624 
L 130.827215 89.417668 
L 131.923751 90.057566 
L 132.717088 90.514273 
L 133.564266 90.99592 
L 134.596565 91.574017 
L 135.948835 92.315981 
L 136.953414 92.855388 
L 137.694111 93.246402 
L 138.704578 93.770326 
L 139.699074 94.274899 
L 140.251226 94.550153 
L 141.58208 95.198774 
L 142.539818 95.652164 
L 143.4368 96.066279 
L 144.575642 96.57694 
L 145.217627 96.85715 
L 146.950837 97.585108 
L 148.028774 98.016137 
L 148.852639 98.333964 
L 149.866374 98.710876 
L 150.194494 98.829462 
L 151.144028 99.163046 
L 152.093561 99.482115 
L 152.208054 99.51959 
L 153.771087 100.009278 
L 155.087691 100.389305 
L 155.742554 100.566969 
L 156.45657 100.751906 
L 157.868948 101.090209 
L 158.650962 101.261465 
L 159.799023 101.491654 
L 160.698753 101.65405 
L 161.596051 101.799936 
L 162.595926 101.943238 
L 163.871018 102.095913 
L 164.268927 102.136537 
L 165.183911 102.217076 
L 166.098895 102.279419 
L 167.126412 102.327357 
L 167.839766 102.346685 
L 169.132866 102.352041 
L 169.965542 102.334906 
L 171.222348 102.277911 
L 171.973377 102.225689 
L 173.172097 102.113684 
L 173.435782 102.084262 
L 174.719584 101.915998 
L 175.78061 101.745171 
L 176.574894 101.598169 
L 177.331146 101.442786 
L 178.087399 101.272184 
L 178.367359 101.205133 
L 179.108936 101.017266 
L 179.850513 100.814372 
L 180.882186 100.506809 
L 182.091724 100.10819 
L 183.204361 99.704678 
L 184.036439 99.379508 
L 184.876344 99.030706 
L 186.208418 98.434542 
L 186.662546 98.219109 
L 187.541296 97.78443 
L 188.364411 97.35577 
L 189.602433 96.671364 
L 190.272802 96.280646 
L 190.94317 95.875637 
L 191.593747 95.468805 
L 192.258429 95.039017 
L 192.923111 94.594827 
L 193.675436 94.074542 
L 194.477249 93.499362 
L 195.279062 92.902651 
L 195.897883 92.427271 
L 196.948653 91.590138 
L 198.1739 90.565889 
L 198.430844 90.344461 
L 199.475553 89.420233 
L 200.117637 88.833004 
L 200.759722 88.231034 
L 201.410411 87.60585 
L 202.061101 86.965307 
L 202.970859 86.043779 
L 203.406527 85.591678 
L 204.50703 84.418253 
L 205.403893 83.428384 
L 206.300756 82.408049 
L 206.556831 82.111087 
L 207.300343 81.234592 
L 208.043855 80.336738 
L 208.901235 79.274648 
L 209.394193 78.650932 
L 210.127985 77.704719 
L 210.861776 76.737091 
z
" style="fill:#cde0eb;opacity:0.5;"/>
   </g>
   <g id="matplotlib.axis_1">
    <g id="xtick_1">
     <g id="line2d_1">
      <defs>
       <path d="M 0 0 
L 0 3.5 
" id="md419688542" style="stroke:#000000;stroke-width:0.8;"/>
      </defs>
      <g>
       <use style="stroke:#000000;stroke-width:0.8;" x="11.193368" xlink:href="#md419688542" y="176.571295"/>
      </g>
     </g>
     <g id="text_1">
      <!-- $a$ -->
      <defs>
       <path d="M 17.390625 -1.125 
Q 11.078125 -1.125 7.4375 3.640625 
Q 3.8125 8.40625 3.8125 14.890625 
Q 3.8125 21.296875 7.125 28.171875 
Q 10.453125 35.0625 16.09375 39.625 
Q 21.734375 44.1875 28.21875 44.1875 
Q 31.203125 44.1875 33.546875 42.578125 
Q 35.890625 40.96875 37.203125 38.1875 
Q 38.328125 42.1875 41.609375 42.1875 
Q 42.875 42.1875 43.71875 41.421875 
Q 44.578125 40.671875 44.578125 39.40625 
Q 44.578125 39.109375 44.546875 38.953125 
Q 44.53125 38.8125 44.484375 38.625 
L 37.5 10.6875 
Q 36.8125 7.71875 36.8125 5.8125 
Q 36.8125 1.515625 39.703125 1.515625 
Q 42.828125 1.515625 44.453125 5.484375 
Q 46.09375 9.46875 47.21875 14.703125 
Q 47.40625 15.28125 48 15.28125 
L 49.21875 15.28125 
Q 49.609375 15.28125 49.84375 14.9375 
Q 50.09375 14.59375 50.09375 14.3125 
Q 48.34375 7.328125 46.265625 3.09375 
Q 44.1875 -1.125 39.5 -1.125 
Q 36.140625 -1.125 33.546875 0.84375 
Q 30.953125 2.828125 30.328125 6.109375 
Q 23.875 -1.125 17.390625 -1.125 
z
M 17.484375 1.515625 
Q 21.09375 1.515625 24.484375 4.21875 
Q 27.875 6.9375 30.328125 10.59375 
Q 30.421875 10.6875 30.421875 10.890625 
L 35.796875 32.625 
L 35.890625 32.90625 
Q 35.296875 36.46875 33.3125 39.03125 
Q 31.34375 41.609375 27.984375 41.609375 
Q 24.609375 41.609375 21.703125 38.84375 
Q 18.796875 36.078125 16.796875 32.328125 
Q 14.84375 28.328125 13.0625 21.34375 
Q 11.28125 14.359375 11.28125 10.5 
Q 11.28125 7.03125 12.765625 4.265625 
Q 14.265625 1.515625 17.484375 1.515625 
z
" id="Cmmi10-97"/>
      </defs>
      <g transform="translate(7.218368 194.968951)scale(0.15 -0.15)">
       <use transform="translate(0 0.8125)" xlink:href="#Cmmi10-97"/>
      </g>
     </g>
    </g>
    <g id="xtick_2">
     <g id="line2d_2">
      <g>
       <use style="stroke:#000000;stroke-width:0.8;" x="210.861776" xlink:href="#md419688542" y="176.571295"/>
      </g>
     </g>
     <g id="text_2">
      <!-- $b$ -->
      <defs>
       <path d="M 17.28125 -1.125 
Q 11.234375 -1.125 7.859375 3.609375 
Q 4.5 8.34375 4.5 14.703125 
Q 4.5 15.625 4.953125 18.328125 
Q 5.421875 21.046875 5.421875 21.6875 
L 15.09375 60.5 
Q 15.484375 62.203125 15.578125 63.1875 
Q 15.578125 64.796875 9.078125 64.796875 
Q 8.109375 64.796875 8.109375 66.109375 
Q 8.15625 66.359375 8.328125 66.984375 
Q 8.5 67.625 8.765625 67.96875 
Q 9.03125 68.3125 9.515625 68.3125 
L 23 69.390625 
Q 24.21875 69.390625 24.21875 68.109375 
L 16.796875 38.625 
Q 22.46875 44.1875 28.21875 44.1875 
Q 32.46875 44.1875 35.515625 41.9375 
Q 38.578125 39.703125 40.09375 36.03125 
Q 41.609375 32.375 41.609375 28.21875 
Q 41.609375 23.390625 39.71875 18.234375 
Q 37.84375 13.09375 34.515625 8.671875 
Q 31.203125 4.25 26.75 1.5625 
Q 22.3125 -1.125 17.28125 -1.125 
z
M 17.484375 1.515625 
Q 20.90625 1.515625 23.875 4.375 
Q 26.859375 7.234375 28.71875 10.796875 
Q 30.71875 14.796875 32.453125 21.65625 
Q 34.1875 28.515625 34.1875 32.625 
Q 34.1875 36.1875 32.6875 38.890625 
Q 31.203125 41.609375 27.984375 41.609375 
Q 24.359375 41.609375 21.0625 38.9375 
Q 17.78125 36.28125 15.28125 32.625 
L 12.5 21.296875 
Q 10.890625 14.984375 10.796875 11.1875 
Q 10.796875 7.421875 12.421875 4.46875 
Q 14.0625 1.515625 17.484375 1.515625 
z
" id="Cmmi10-98"/>
      </defs>
      <g transform="translate(207.636776 194.968951)scale(0.15 -0.15)">
       <use transform="translate(0 0.609375)" xlink:href="#Cmmi10-98"/>
      </g>
     </g>
    </g>
    <g id="text_3">
     <!-- $x$ -->
     <defs>
      <path d="M 7.8125 2.875 
Q 9.578125 1.515625 12.796875 1.515625 
Q 15.921875 1.515625 18.3125 4.515625 
Q 20.703125 7.515625 21.578125 11.078125 
L 26.125 28.8125 
Q 27.203125 33.640625 27.203125 35.40625 
Q 27.203125 37.890625 25.8125 39.75 
Q 24.421875 41.609375 21.921875 41.609375 
Q 18.75 41.609375 15.96875 39.625 
Q 13.1875 37.640625 11.28125 34.59375 
Q 9.375 31.546875 8.59375 28.421875 
Q 8.40625 27.78125 7.8125 27.78125 
L 6.59375 27.78125 
Q 5.8125 27.78125 5.8125 28.71875 
L 5.8125 29 
Q 6.78125 32.71875 9.125 36.25 
Q 11.46875 39.796875 14.859375 41.984375 
Q 18.265625 44.1875 22.125 44.1875 
Q 25.78125 44.1875 28.734375 42.234375 
Q 31.6875 40.28125 32.90625 36.921875 
Q 34.625 39.984375 37.28125 42.078125 
Q 39.9375 44.1875 43.109375 44.1875 
Q 45.265625 44.1875 47.5 43.421875 
Q 49.75 42.671875 51.171875 41.109375 
Q 52.59375 39.546875 52.59375 37.203125 
Q 52.59375 34.671875 50.953125 32.828125 
Q 49.3125 31 46.78125 31 
Q 45.171875 31 44.09375 32.03125 
Q 43.015625 33.0625 43.015625 34.625 
Q 43.015625 36.71875 44.453125 38.296875 
Q 45.90625 39.890625 47.90625 40.1875 
Q 46.09375 41.609375 42.921875 41.609375 
Q 39.703125 41.609375 37.328125 38.625 
Q 34.96875 35.640625 33.984375 31.984375 
L 29.59375 14.3125 
Q 28.515625 10.296875 28.515625 7.71875 
Q 28.515625 5.171875 29.953125 3.34375 
Q 31.390625 1.515625 33.796875 1.515625 
Q 38.484375 1.515625 42.15625 5.640625 
Q 45.84375 9.765625 47.015625 14.703125 
Q 47.21875 15.28125 47.796875 15.28125 
L 49.03125 15.28125 
Q 49.421875 15.28125 49.65625 15.015625 
Q 49.90625 14.75 49.90625 14.40625 
Q 49.90625 14.3125 49.8125 14.109375 
Q 48.390625 8.15625 43.84375 3.515625 
Q 39.3125 -1.125 33.59375 -1.125 
Q 29.9375 -1.125 26.984375 0.84375 
Q 24.03125 2.828125 22.796875 6.203125 
Q 21.234375 3.265625 18.46875 1.0625 
Q 15.71875 -1.125 12.59375 -1.125 
Q 10.453125 -1.125 8.171875 -0.359375 
Q 5.90625 0.390625 4.484375 1.953125 
Q 3.078125 3.515625 3.078125 5.90625 
Q 3.078125 8.25 4.703125 10.171875 
Q 6.34375 12.109375 8.796875 12.109375 
Q 10.453125 12.109375 11.578125 11.109375 
Q 12.703125 10.109375 12.703125 8.5 
Q 12.703125 6.390625 11.296875 4.828125 
Q 9.90625 3.265625 7.8125 2.875 
z
" id="Cmmi10-120"/>
     </defs>
     <g transform="translate(222.855144 176.571295)scale(0.24 -0.24)">
      <use transform="translate(0 0.8125)" xlink:href="#Cmmi10-120"/>
     </g>
    </g>
   </g>
   <g id="matplotlib.axis_2">
    <g id="text_4">
     <!-- $y$ -->
     <defs>
      <path d="M 8.40625 -14.3125 
Q 10.5 -17.921875 15.71875 -17.921875 
Q 20.453125 -17.921875 23.921875 -14.59375 
Q 27.390625 -11.28125 29.515625 -6.5625 
Q 31.640625 -1.859375 32.8125 3.078125 
Q 28.375 -1.125 23.1875 -1.125 
Q 19.234375 -1.125 16.453125 0.234375 
Q 13.671875 1.609375 12.125 4.3125 
Q 10.59375 7.03125 10.59375 10.890625 
Q 10.59375 14.15625 11.46875 17.59375 
Q 12.359375 21.046875 13.9375 25.265625 
Q 15.53125 29.5 16.703125 32.625 
Q 18.015625 36.28125 18.015625 38.625 
Q 18.015625 41.609375 15.828125 41.609375 
Q 11.859375 41.609375 9.296875 37.53125 
Q 6.734375 33.453125 5.515625 28.421875 
Q 5.328125 27.78125 4.6875 27.78125 
L 3.515625 27.78125 
Q 2.6875 27.78125 2.6875 28.71875 
L 2.6875 29 
Q 4.296875 34.96875 7.609375 39.578125 
Q 10.9375 44.1875 16.015625 44.1875 
Q 19.578125 44.1875 22.046875 41.84375 
Q 24.515625 39.5 24.515625 35.890625 
Q 24.515625 34.03125 23.6875 31.984375 
Q 23.25 30.765625 21.6875 26.65625 
Q 20.125 22.5625 19.28125 19.875 
Q 18.453125 17.1875 17.921875 14.59375 
Q 17.390625 12.015625 17.390625 9.421875 
Q 17.390625 6.109375 18.796875 3.8125 
Q 20.21875 1.515625 23.296875 1.515625 
Q 29.5 1.515625 34.421875 9.078125 
L 42 39.890625 
Q 42.328125 41.21875 43.546875 42.15625 
Q 44.78125 43.109375 46.1875 43.109375 
Q 47.40625 43.109375 48.3125 42.328125 
Q 49.21875 41.546875 49.21875 40.28125 
Q 49.21875 39.703125 49.125 39.5 
L 39.203125 -0.296875 
Q 37.890625 -5.421875 34.375 -10.109375 
Q 30.859375 -14.796875 25.90625 -17.65625 
Q 20.953125 -20.515625 15.578125 -20.515625 
Q 12.984375 -20.515625 10.4375 -19.5 
Q 7.90625 -18.5 6.34375 -16.5 
Q 4.78125 -14.5 4.78125 -11.8125 
Q 4.78125 -9.078125 6.390625 -7.078125 
Q 8.015625 -5.078125 10.6875 -5.078125 
Q 12.3125 -5.078125 13.40625 -6.078125 
Q 14.5 -7.078125 14.5 -8.6875 
Q 14.5 -10.984375 12.78125 -12.6875 
Q 11.078125 -14.40625 8.796875 -14.40625 
Q 8.6875 -14.359375 8.59375 -14.328125 
Q 8.5 -14.3125 8.40625 -14.3125 
z
" id="Cmmi10-121"/>
     </defs>
     <g transform="translate(105.027572 25.3875)scale(0.24 -0.24)">
      <use transform="translate(0 0.8125)" xlink:href="#Cmmi10-121"/>
     </g>
    </g>
   </g>
   <g id="line2d_3">
    <path clip-path="url(#p6681155e46)" d="M 11.193368 76.737091 
L 13.769796 73.43369 
L 17.027552 69.626781 
L 20.129559 66.374201 
L 23.120631 63.570497 
L 25.827071 61.305894 
L 28.765293 59.130647 
L 31.84114 57.158696 
L 34.579186 55.656619 
L 37.313084 54.386311 
L 40.70069 53.118095 
L 43.959 52.204061 
L 47.437094 51.543354 
L 50.605665 51.210619 
L 53.360539 51.119631 
L 56.318258 51.217234 
L 59.368009 51.518896 
L 62.047524 51.943456 
L 65.545454 52.708887 
L 69.573399 53.865886 
L 73.43714 55.229695 
L 77.296984 56.817008 
L 81.466114 58.757388 
L 86.568773 61.409938 
L 91.490357 64.211094 
L 97.473456 67.867571 
L 105.421226 73.011313 
L 125.282562 86.046664 
L 131.923751 90.057566 
L 136.953414 92.855388 
L 141.58208 95.198774 
L 145.217627 96.85715 
L 150.194494 98.829462 
L 153.771087 100.009278 
L 157.868948 101.090209 
L 161.596051 101.799936 
L 165.183911 102.217076 
L 167.839766 102.346685 
L 171.222348 102.277911 
L 173.435782 102.084262 
L 176.574894 101.598169 
L 179.850513 100.814372 
L 183.204361 99.704678 
L 186.208418 98.434542 
L 188.364411 97.35577 
L 191.593747 95.468805 
L 194.477249 93.499362 
L 196.948653 91.590138 
L 200.117637 88.833004 
L 202.970859 86.043779 
L 205.403893 83.428384 
L 208.043855 80.336738 
L 210.861776 76.737091 
L 210.861776 76.737091 
" style="fill:none;stroke:#ff0000;stroke-linecap:square;stroke-width:1.5;"/>
   </g>
   <g id="line2d_4">
    <path clip-path="url(#p6681155e46)" d="M 11.193368 110.015159 
L 16.660935 117.105622 
L 21.771013 123.371536 
L 27.087493 129.520374 
L 31.310165 134.13517 
L 36.189179 139.170719 
L 41.115381 143.932418 
L 46.394397 148.675396 
L 51.250439 152.709696 
L 55.620858 156.07128 
L 60.500738 159.52329 
L 65.281704 162.596896 
L 69.663305 165.145668 
L 74.096719 167.463609 
L 79.215813 169.813504 
L 83.088956 171.358878 
L 87.923379 173.006693 
L 92.067129 174.170659 
L 96.481008 175.158269 
L 101.235259 175.930971 
L 106.035754 176.404897 
L 110.276036 176.567523 
L 114.58911 176.486591 
L 118.926948 176.154603 
L 122.991342 175.615498 
L 126.597413 174.952478 
L 131.171203 173.861697 
L 135.476009 172.579837 
L 139.736915 171.067327 
L 143.710286 169.438403 
L 147.453128 167.711131 
L 151.27652 165.753508 
L 155.510696 163.357732 
L 159.244042 161.046703 
L 163.732595 158.021744 
L 168.792034 154.289465 
L 173.313923 150.664413 
L 178.555111 146.12102 
L 183.383923 141.610388 
L 187.298864 137.724822 
L 191.416062 133.417686 
L 196.780572 127.466033 
L 201.364373 122.076026 
L 207.357618 114.605373 
L 210.861776 110.015159 
L 210.861776 110.015159 
" style="fill:none;stroke:#0000ff;stroke-linecap:square;stroke-width:1.5;"/>
   </g>
   <g id="line2d_5">
    <path clip-path="url(#p6681155e46)" d="M 11.193368 110.015159 
L 11.193368 76.737091 
" style="fill:none;stroke:#000000;stroke-linecap:square;"/>
   </g>
   <g id="line2d_6">
    <path clip-path="url(#p6681155e46)" d="M 210.861776 110.015159 
L 210.861776 76.737091 
" style="fill:none;stroke:#000000;stroke-linecap:square;"/>
   </g>
   <g id="line2d_7">
    <path clip-path="url(#p6681155e46)" d="M 11.193368 176.571295 
L 11.193368 110.015159 
" style="fill:none;stroke:#d3d3d3;stroke-dasharray:3.7,1.6;stroke-dashoffset:0;"/>
   </g>
   <g id="line2d_8">
    <path clip-path="url(#p6681155e46)" d="M 210.861776 176.571295 
L 210.861776 110.015159 
" style="fill:none;stroke:#d3d3d3;stroke-dasharray:3.7,1.6;stroke-dashoffset:0;"/>
   </g>
   <g id="patch_4">
    <path d="M 111.027572 179.279997 
L 111.027572 38.4275 
" style="fill:none;stroke:#000000;stroke-linecap:square;stroke-linejoin:miter;stroke-width:0.8;"/>
   </g>
   <g id="patch_5">
    <path d="M 7.2 176.571295 
L 214.855144 176.571295 
" style="fill:none;stroke:#000000;stroke-linecap:square;stroke-linejoin:miter;stroke-width:0.8;"/>
   </g>
   <g id="text_5">
    <!-- $y=f(x)$ -->
    <defs>
     <path d="M 7.515625 13.28125 
Q 6.6875 13.28125 6.140625 13.90625 
Q 5.609375 14.546875 5.609375 15.28125 
Q 5.609375 16.109375 6.140625 16.6875 
Q 6.6875 17.28125 7.515625 17.28125 
L 70.3125 17.28125 
Q 71.046875 17.28125 71.578125 16.6875 
Q 72.125 16.109375 72.125 15.28125 
Q 72.125 14.546875 71.578125 13.90625 
Q 71.046875 13.28125 70.3125 13.28125 
z
M 7.515625 32.71875 
Q 6.6875 32.71875 6.140625 33.296875 
Q 5.609375 33.890625 5.609375 34.71875 
Q 5.609375 35.453125 6.140625 36.078125 
Q 6.6875 36.71875 7.515625 36.71875 
L 70.3125 36.71875 
Q 71.046875 36.71875 71.578125 36.078125 
Q 72.125 35.453125 72.125 34.71875 
Q 72.125 33.890625 71.578125 33.296875 
Q 71.046875 32.71875 70.3125 32.71875 
z
" id="Cmr10-61"/>
     <path d="M 9.71875 -16.5 
Q 11.578125 -17.921875 14.203125 -17.921875 
Q 17.78125 -17.921875 20.015625 -10.015625 
Q 20.953125 -6.203125 25.09375 15.09375 
L 29.6875 39.59375 
L 21.09375 39.59375 
Q 20.125 39.59375 20.125 40.921875 
Q 20.515625 43.109375 21.390625 43.109375 
L 30.328125 43.109375 
L 31.5 49.609375 
Q 32.078125 52.640625 32.5625 54.8125 
Q 33.0625 56.984375 33.625 58.828125 
Q 34.1875 60.6875 35.296875 62.984375 
Q 37.015625 66.265625 39.921875 68.390625 
Q 42.828125 70.515625 46.1875 70.515625 
Q 48.390625 70.515625 50.46875 69.703125 
Q 52.546875 68.890625 53.859375 67.28125 
Q 55.171875 65.671875 55.171875 63.484375 
Q 55.171875 60.9375 53.484375 59.046875 
Q 51.8125 57.171875 49.421875 57.171875 
Q 47.796875 57.171875 46.65625 58.171875 
Q 45.515625 59.1875 45.515625 60.796875 
Q 45.515625 62.984375 47 64.625 
Q 48.484375 66.265625 50.6875 66.5 
Q 48.828125 67.921875 46.09375 67.921875 
Q 44.578125 67.921875 43.234375 66.5 
Q 41.890625 65.09375 41.5 63.484375 
Q 40.875 60.9375 38.71875 49.703125 
L 37.5 43.109375 
L 47.796875 43.109375 
Q 48.78125 43.109375 48.78125 41.796875 
Q 48.734375 41.546875 48.578125 40.9375 
Q 48.4375 40.328125 48.171875 39.953125 
Q 47.90625 39.59375 47.515625 39.59375 
L 36.8125 39.59375 
L 32.171875 15.1875 
Q 31.296875 9.859375 30.140625 4.359375 
Q 29 -1.125 26.921875 -6.90625 
Q 24.859375 -12.703125 21.625 -16.609375 
Q 18.40625 -20.515625 14.015625 -20.515625 
Q 10.640625 -20.515625 7.984375 -18.578125 
Q 5.328125 -16.65625 5.328125 -13.484375 
Q 5.328125 -10.9375 6.953125 -9.046875 
Q 8.59375 -7.171875 11.078125 -7.171875 
Q 12.75 -7.171875 13.859375 -8.171875 
Q 14.984375 -9.1875 14.984375 -10.796875 
Q 14.984375 -12.9375 13.390625 -14.71875 
Q 11.8125 -16.5 9.71875 -16.5 
z
" id="Cmmi10-102"/>
     <path d="M 31 -24.8125 
Q 25.4375 -20.40625 21.40625 -14.71875 
Q 17.390625 -9.03125 14.8125 -2.578125 
Q 12.25 3.859375 10.984375 10.890625 
Q 9.71875 17.921875 9.71875 25 
Q 9.71875 32.171875 10.984375 39.203125 
Q 12.25 46.234375 14.859375 52.734375 
Q 17.484375 59.234375 21.53125 64.890625 
Q 25.59375 70.5625 31 74.8125 
Q 31 75 31.5 75 
L 32.421875 75 
Q 32.71875 75 32.953125 74.734375 
Q 33.203125 74.46875 33.203125 74.125 
Q 33.203125 73.6875 33.015625 73.484375 
Q 28.125 68.703125 24.875 63.234375 
Q 21.625 57.765625 19.640625 51.578125 
Q 17.671875 45.40625 16.796875 38.78125 
Q 15.921875 32.171875 15.921875 25 
Q 15.921875 -6.78125 32.90625 -23.296875 
Q 33.203125 -23.578125 33.203125 -24.125 
Q 33.203125 -24.359375 32.9375 -24.671875 
Q 32.671875 -25 32.421875 -25 
L 31.5 -25 
Q 31 -25 31 -24.8125 
z
" id="Cmr10-40"/>
     <path d="M 6.5 -25 
Q 5.609375 -25 5.609375 -24.125 
Q 5.609375 -23.6875 5.8125 -23.484375 
Q 22.90625 -6.78125 22.90625 25 
Q 22.90625 56.78125 6 73.296875 
Q 5.609375 73.53125 5.609375 74.125 
Q 5.609375 74.46875 5.875 74.734375 
Q 6.15625 75 6.5 75 
L 7.421875 75 
Q 7.71875 75 7.90625 74.8125 
Q 15.09375 69.140625 19.875 61.03125 
Q 24.65625 52.9375 26.875 43.75 
Q 29.109375 34.578125 29.109375 25 
Q 29.109375 17.921875 27.90625 11.0625 
Q 26.703125 4.203125 24.09375 -2.453125 
Q 21.484375 -9.125 17.484375 -14.765625 
Q 13.484375 -20.40625 7.90625 -24.8125 
Q 7.71875 -25 7.421875 -25 
z
" id="Cmr10-41"/>
    </defs>
    <g style="fill:#ff0000;" transform="translate(49.401792 44.886202)scale(0.15 -0.15)">
     <use xlink:href="#Cmmi10-121"/>
     <use transform="translate(66.582031 0)" xlink:href="#Cmr10-61"/>
     <use transform="translate(161.826172 0)" xlink:href="#Cmmi10-102"/>
     <use transform="translate(210.703125 0)" xlink:href="#Cmr10-40"/>
     <use transform="translate(249.521484 0)" xlink:href="#Cmmi10-120"/>
     <use transform="translate(306.601562 0)" xlink:href="#Cmr10-41"/>
    </g>
   </g>
   <g id="text_6">
    <!-- $y=g(x)$ -->
    <defs>
     <path d="M 1.421875 -14.3125 
Q 1.421875 -11.859375 3.09375 -10.03125 
Q 4.78125 -8.203125 7.171875 -8.203125 
Q 8.796875 -8.203125 9.890625 -9.203125 
Q 10.984375 -10.203125 10.984375 -11.8125 
Q 10.984375 -13.625 9.953125 -15.0625 
Q 8.9375 -16.5 7.328125 -17.09375 
Q 10.015625 -17.921875 15.71875 -17.921875 
Q 20.3125 -17.921875 24.125 -14.375 
Q 27.9375 -10.84375 29.109375 -6.203125 
L 31.984375 5.515625 
Q 26.5625 0 20.703125 0 
Q 16.40625 0 13.34375 2.1875 
Q 10.296875 4.390625 8.6875 8.046875 
Q 7.078125 11.71875 7.078125 15.828125 
Q 7.078125 20.40625 8.953125 25.4375 
Q 10.84375 30.46875 14.234375 34.765625 
Q 17.625 39.0625 22.015625 41.625 
Q 26.421875 44.1875 31.296875 44.1875 
Q 34.234375 44.1875 36.578125 42.578125 
Q 38.921875 40.96875 40.28125 38.28125 
Q 41.265625 42.1875 44.578125 42.1875 
Q 45.84375 42.1875 46.71875 41.421875 
Q 47.609375 40.671875 47.609375 39.40625 
Q 47.609375 39.109375 47.578125 38.953125 
Q 47.5625 38.8125 47.515625 38.625 
L 36.078125 -6.78125 
Q 35.296875 -9.90625 33.203125 -12.5 
Q 31.109375 -15.09375 28.265625 -16.828125 
Q 25.4375 -18.5625 22.0625 -19.53125 
Q 18.703125 -20.515625 15.578125 -20.515625 
Q 9.859375 -20.515625 5.640625 -19.40625 
Q 1.421875 -18.3125 1.421875 -14.3125 
z
M 20.90625 2.59375 
Q 27.296875 2.59375 33.5 11.375 
L 39.015625 33.203125 
Q 38.328125 36.671875 36.28125 39.140625 
Q 34.234375 41.609375 31.109375 41.609375 
Q 27.78125 41.609375 24.828125 38.890625 
Q 21.875 36.1875 19.921875 32.421875 
Q 18.0625 28.8125 16.328125 22.046875 
Q 14.59375 15.28125 14.59375 11.375 
Q 14.59375 7.953125 16.15625 5.265625 
Q 17.71875 2.59375 20.90625 2.59375 
z
" id="Cmmi10-103"/>
    </defs>
    <g style="fill:#0000ff;" transform="translate(155.036515 170.337874)scale(0.15 -0.15)">
     <use xlink:href="#Cmmi10-121"/>
     <use transform="translate(66.582031 0)" xlink:href="#Cmr10-61"/>
     <use transform="translate(161.826172 0)" xlink:href="#Cmmi10-103"/>
     <use transform="translate(209.53125 0)" xlink:href="#Cmr10-40"/>
     <use transform="translate(248.349609 0)" xlink:href="#Cmmi10-120"/>
     <use transform="translate(305.429688 0)" xlink:href="#Cmr10-41"/>
    </g>
   </g>
  </g>
 </g>
 <defs>
  <clipPath id="p6681155e46">
   <rect height="140.852497" width="207.655144" x="7.2" y="38.4275"/>
  </clipPath>
 </defs>
</svg>
