<?xml version="1.0" encoding="utf-8" standalone="no"?>
<!DOCTYPE svg PUBLIC "-//W3C//DTD SVG 1.1//EN"
  "http://www.w3.org/Graphics/SVG/1.1/DTD/svg11.dtd">
<!-- Created with matplotlib (https://matplotlib.org/) -->
<svg height="243.937038pt" version="1.1" viewBox="0 0 244.132253 243.937038" width="244.132253pt" xmlns="http://www.w3.org/2000/svg" xmlns:xlink="http://www.w3.org/1999/xlink">
 <defs>
  <style type="text/css">
*{stroke-linecap:butt;stroke-linejoin:round;}
  </style>
 </defs>
 <g id="figure_1">
  <g id="patch_1">
   <path d="M 0 243.937038 
L 244.132253 243.937038 
L 244.132253 0 
L 0 0 
z
" style="fill:#ffffff;"/>
  </g>
  <g id="axes_1">
   <g id="patch_2">
    <path d="M 29.340152 234.856538 
L 219.652253 234.856538 
L 219.652253 30.685 
L 29.340152 30.685 
z
" style="fill:#ffffff;"/>
   </g>
   <g id="patch_3">
    <path clip-path="url(#p74de2c47a9)" d="M 197.223953 145.726409 
L 196.58043 146.046565 
L 195.495677 146.586235 
L 194.843829 146.910532 
L 194.520432 147.071424 
L 193.372909 147.642322 
L 192.637416 148.008234 
L 192.463109 148.094952 
L 191.461958 148.59303 
L 190.610465 149.016652 
L 190.102795 149.26922 
L 189.510019 149.564129 
L 188.693539 149.970332 
L 187.715546 150.456888 
L 187.340132 150.643659 
L 186.855328 150.884851 
L 186.155492 151.233023 
L 185.249653 151.683683 
L 184.41283 152.100006 
L 183.443319 152.582342 
L 183.244532 152.68124 
L 182.59415 153.004808 
L 181.837954 153.38102 
L 181.222628 153.687147 
L 180.345632 154.123457 
L 179.538957 154.524782 
L 178.530284 155.026602 
L 178.473889 155.054658 
L 177.091451 155.742428 
L 176.86245 155.856357 
L 175.951694 156.309463 
L 174.997082 156.784387 
L 174.876131 156.844561 
L 174.106387 157.227512 
L 173.396933 157.580469 
L 172.349496 158.101574 
L 171.9126 158.318932 
L 170.88703 158.829158 
L 170.225122 159.158461 
L 169.79824 159.370837 
L 168.721352 159.906594 
L 168.529836 160.001874 
L 167.370567 160.578616 
L 166.614078 160.954973 
L 166.277134 161.122604 
L 165.699202 161.410129 
L 164.765966 161.874418 
L 163.853059 162.328594 
L 163.423627 162.542238 
L 162.885168 162.810124 
L 161.982646 163.259134 
L 161.109391 163.693582 
L 160.244985 164.123628 
L 159.410319 164.538879 
L 159.292247 164.59762 
L 158.063163 165.209096 
L 157.954088 165.263361 
L 157.245849 165.615713 
L 156.316652 166.077993 
L 155.814857 166.327639 
L 154.603281 166.930404 
L 154.181058 167.140462 
L 153.537637 167.460567 
L 152.880145 167.787673 
L 152.224761 168.113729 
L 151.337934 168.554931 
L 150.384271 169.029382 
L 149.593973 169.42256 
L 149.469142 169.484664 
L 148.214698 170.108756 
L 147.796382 170.31687 
L 147.341655 170.543099 
L 146.123173 171.1493 
L 145.259747 171.578859 
L 144.720071 171.84735 
L 144.127841 172.141987 
L 143.708353 172.350685 
L 142.482372 172.960616 
L 141.763796 173.318112 
L 141.167958 173.614544 
L 140.434073 173.979655 
L 140.008428 174.191416 
L 139.474103 174.457245 
L 138.255747 175.063383 
L 137.512282 175.433261 
L 136.881266 175.747195 
L 136.568291 175.902901 
L 135.354595 176.50672 
L 135.197523 176.584865 
L 134.622647 176.870868 
L 133.489514 177.434608 
L 132.536718 177.908628 
L 132.401616 177.975843 
L 131.72098 178.314462 
L 130.493731 178.925024 
L 129.721996 179.308967 
L 129.442215 179.448159 
L 128.900016 179.717906 
L 127.914896 180.208008 
L 127.122437 180.60226 
L 126.184831 181.068724 
L 125.800018 181.26017 
L 125.006171 181.655113 
L 124.261328 182.025676 
L 123.442438 182.433078 
L 122.683495 182.810656 
L 122.358498 182.972343 
L 121.719426 183.290285 
L 120.876816 183.709487 
L 119.994004 184.148691 
L 119.317023 184.485492 
L 118.669204 184.807786 
L 118.1871 185.047635 
L 116.970784 185.652758 
L 116.681796 185.796531 
L 115.831103 186.219754 
L 115.270995 186.498411 
L 114.757456 186.7539 
L 113.655516 187.30212 
L 113.215012 187.521273 
L 112.465795 187.894012 
L 111.786493 188.231968 
L 110.743717 188.750754 
L 110.247463 188.997643 
L 109.243236 189.497251 
L 108.928307 189.65393 
L 107.792134 190.219182 
L 107.400201 190.41417 
L 106.988251 190.619117 
L 105.940288 191.140484 
L 104.995319 191.610611 
L 104.60064 191.806966 
L 103.798654 192.205958 
L 103.488145 192.360438 
L 102.433139 192.885308 
L 101.492839 193.353112 
L 101.245501 193.476164 
L 100.179358 194.006576 
L 99.670621 194.259674 
L 98.788802 194.698384 
L 98.432529 194.875631 
L 97.379986 195.399277 
L 97.053687 195.561612 
L 95.901927 196.134618 
L 95.441422 196.363722 
L 94.379022 196.892271 
L 93.60117 197.279256 
L 93.024285 197.566259 
L 92.678502 197.738288 
L 91.912618 198.119319 
L 90.989829 198.578411 
L 90.703487 198.720868 
L 89.414689 199.362051 
L 88.758821 199.688349 
L 88.404346 199.864702 
L 87.913547 200.108877 
L 86.866501 200.629788 
L 86.001108 201.060325 
L 85.491093 201.31406 
L 84.527126 201.793638 
L 84.227372 201.942767 
L 83.229654 202.439137 
L 82.648833 202.728098 
L 81.909474 203.095933 
L 81.326119 203.386155 
L 80.804681 203.645573 
L 79.913725 204.088828 
L 78.836459 204.624773 
L 78.673394 204.705899 
L 77.704018 205.188168 
L 76.669201 205.702995 
L 75.927973 206.071759 
L 75.342136 206.363216 
L 74.539046 206.762758 
L 73.939814 207.060878 
L 73.690017 207.185154 
L 72.426439 207.81379 
L 72.146469 207.953076 
L 71.223816 208.412101 
L 70.890996 208.57768 
L 70.025264 209.008387 
L 69.451141 209.294015 
L 68.524584 209.754982 
L 67.837147 210.096986 
L 66.925465 210.550552 
L 66.132913 210.94485 
L 65.606143 211.206921 
L 64.851844 211.582188 
L 64.495097 211.759672 
L 63.674342 212.168001 
L 63.093737 212.456856 
L 61.890393 213.055525 
L 61.489053 213.255194 
L 60.427357 213.783393 
L 59.710161 214.140201 
L 59.473321 214.25803 
L 58.906797 214.539879 
L 57.810109 215.085487 
L 57.011271 215.482912 
L 56.460565 215.756891 
L 56.460565 145.726409 
L 57.457198 146.707536 
L 57.71593 146.9588 
L 58.267281 147.489499 
L 58.875521 148.067477 
L 59.48376 148.637609 
L 60.257042 149.351117 
L 60.958099 149.987024 
L 61.351789 150.339558 
L 61.977096 150.89274 
L 63.075052 151.843993 
L 63.826643 152.48042 
L 64.21833 152.807342 
L 64.956611 153.414704 
L 65.324007 153.712643 
L 65.950957 154.214456 
L 66.577906 154.707933 
L 67.380324 155.327363 
L 68.027435 155.816957 
L 68.465085 156.143042 
L 69.157869 156.650919 
L 69.767172 157.089185 
L 70.688284 157.736785 
L 71.255015 158.126292 
L 72.130896 158.714877 
L 72.992002 159.277674 
L 73.158906 159.384939 
L 74.287139 160.094532 
L 75.128063 160.605867 
L 75.413422 160.775975 
L 75.978958 161.108001 
L 76.621396 161.476947 
L 77.263833 161.837141 
L 77.479803 161.956263 
L 78.217941 162.355927 
L 78.887603 162.708519 
L 79.980532 163.263545 
L 80.762767 163.645238 
L 81.072346 163.792713 
L 82.059035 164.249185 
L 82.599865 164.49063 
L 83.642168 164.938454 
L 83.914378 165.051614 
L 84.630078 165.341641 
L 85.560019 165.70226 
L 86.388166 166.007967 
L 87.008883 166.227567 
L 87.711706 166.466351 
L 88.377884 166.683015 
L 88.854271 166.832181 
L 89.918237 167.147953 
L 90.550737 167.324294 
L 91.421402 167.553158 
L 91.943339 167.682648 
L 92.644579 167.847529 
L 93.163559 167.96284 
L 93.882415 168.113127 
L 94.484244 168.23052 
L 95.418882 168.397605 
L 96.275196 168.534427 
L 96.831389 168.614965 
L 97.486495 168.701413 
L 97.955053 168.757661 
L 98.850888 168.852242 
L 99.577579 168.916464 
L 100.067451 168.953437 
L 100.708286 168.994122 
L 101.373453 169.027141 
L 102.03862 169.050777 
L 102.318155 169.05791 
L 102.937433 169.06781 
L 103.535307 169.069653 
L 104.133181 169.063915 
L 104.744888 169.050199 
L 105.003757 169.042005 
L 105.730304 169.011417 
L 106.591515 168.960661 
L 107.229998 168.912878 
L 107.998656 168.843886 
L 108.66794 168.773608 
L 109.593836 168.660725 
L 110.256019 168.568844 
L 110.845624 168.479207 
L 111.697443 168.336687 
L 112.652271 168.158643 
L 112.867015 168.115937 
L 113.856263 167.906577 
L 114.334337 167.797962 
L 115.29402 167.565299 
L 116.095758 167.355955 
L 116.264038 167.310284 
L 117.061726 167.085622 
L 118.08696 166.777058 
L 119.01956 166.477014 
L 119.335776 166.371091 
L 120.321374 166.027342 
L 120.847907 165.835259 
L 121.386221 165.632801 
L 121.972446 165.405334 
L 122.558671 165.17058 
L 123.065474 164.961756 
L 123.526249 164.767171 
L 124.452501 164.362393 
L 125.079259 164.078175 
L 125.571993 163.848884 
L 126.198514 163.549902 
L 126.825034 163.242595 
L 127.062874 163.123756 
L 128.127323 162.577194 
L 128.283464 162.495 
L 128.897381 162.166814 
L 129.511299 161.830635 
L 130.092854 161.504807 
L 130.913534 161.032802 
L 131.37393 160.761757 
L 132.035567 160.364365 
L 132.949354 159.800263 
L 133.905547 159.191024 
L 134.40793 158.863161 
L 134.766767 158.625702 
L 135.58568 158.073562 
L 136.372713 157.529515 
L 136.920377 157.143185 
L 137.973418 156.382482 
L 138.434779 156.041793 
L 139.185935 155.477449 
L 140.035238 154.824954 
L 140.856895 154.179143 
L 141.413588 153.733453 
L 142.270985 153.034164 
L 143.043022 152.391155 
L 143.710122 151.825366 
L 144.032346 151.548698 
L 145.139091 150.581654 
L 145.44269 150.311838 
L 146.101804 149.719337 
L 146.717834 149.157237 
L 147.377841 148.546081 
L 148.120662 147.847191 
L 149.195339 146.815362 
L 149.836409 146.188189 
L 150.692755 145.336811 
L 151.551607 144.467322 
L 151.735976 144.27863 
L 152.429627 143.562258 
L 153.504914 142.43158 
L 154.071883 141.825533 
L 154.83132 141.003071 
L 155.721185 140.023795 
L 156.251274 139.432464 
L 156.71954 138.905141 
L 157.623687 137.873809 
L 158.361756 137.019064 
L 158.958483 136.31956 
L 159.856677 135.252429 
L 160.650883 134.294593 
L 160.996956 133.873035 
L 161.963608 132.682081 
L 162.906646 131.501127 
L 163.35146 130.937546 
L 163.963352 130.155421 
L 164.676162 129.23429 
L 165.079129 128.708787 
L 165.979362 127.522368 
L 166.512571 126.811548 
L 167.108526 126.009944 
L 167.704482 125.200808 
L 168.15828 124.579631 
L 168.835545 123.644441 
L 169.377878 122.888556 
L 170.321226 121.55889 
L 170.983238 120.614503 
L 171.438246 119.960028 
L 172.046956 119.077604 
L 172.655666 118.187322 
L 173.007339 117.669395 
L 173.579542 116.821077 
L 174.274363 115.781635 
L 175.349071 114.153727 
L 175.785595 113.485509 
L 176.871274 111.806061 
L 177.689044 110.524541 
L 178.214467 109.693673 
L 179.108648 108.266215 
L 179.363891 107.855637 
L 180.105869 106.654267 
L 180.980017 105.223915 
L 181.88073 103.733143 
L 182.466148 102.754993 
L 182.790589 102.209768 
L 183.847232 100.418601 
L 184.479971 99.33468 
L 185.166668 98.148718 
L 185.681811 97.252474 
L 186.545044 95.73801 
L 187.459524 94.1164 
L 188.004669 93.141279 
L 188.976755 91.386837 
L 189.164795 91.045144 
L 190.028229 89.466553 
L 191.167648 87.359188 
L 191.260456 87.186326 
L 191.863621 86.058435 
L 192.466786 84.92283 
L 193.244678 83.446868 
L 193.645473 82.681396 
L 194.445631 81.142997 
L 195.074092 79.925186 
L 195.975462 78.163922 
L 196.774269 76.588662 
L 197.223953 75.695926 
z
" style="fill:#cde0eb;opacity:0.5;"/>
   </g>
   <g id="matplotlib.axis_1">
    <g id="xtick_1">
     <g id="line2d_1">
      <defs>
       <path d="M 0 0 
L 0 3.5 
" id="mc1c85db5b5" style="stroke:#000000;stroke-width:0.8;"/>
      </defs>
      <g>
       <use style="stroke:#000000;stroke-width:0.8;" x="197.223953" xlink:href="#mc1c85db5b5" y="192.413397"/>
      </g>
     </g>
     <g id="text_1">
      <!-- 2 -->
      <defs>
       <path d="M 19.1875 8.296875 
L 53.609375 8.296875 
L 53.609375 0 
L 7.328125 0 
L 7.328125 8.296875 
Q 12.9375 14.109375 22.625 23.890625 
Q 32.328125 33.6875 34.8125 36.53125 
Q 39.546875 41.84375 41.421875 45.53125 
Q 43.3125 49.21875 43.3125 52.78125 
Q 43.3125 58.59375 39.234375 62.25 
Q 35.15625 65.921875 28.609375 65.921875 
Q 23.96875 65.921875 18.8125 64.3125 
Q 13.671875 62.703125 7.8125 59.421875 
L 7.8125 69.390625 
Q 13.765625 71.78125 18.9375 73 
Q 24.125 74.21875 28.421875 74.21875 
Q 39.75 74.21875 46.484375 68.546875 
Q 53.21875 62.890625 53.21875 53.421875 
Q 53.21875 48.921875 51.53125 44.890625 
Q 49.859375 40.875 45.40625 35.40625 
Q 44.1875 33.984375 37.640625 27.21875 
Q 31.109375 20.453125 19.1875 8.296875 
z
" id="DejaVuSans-50"/>
      </defs>
      <g transform="translate(194.042703 207.011835)scale(0.1 -0.1)">
       <use xlink:href="#DejaVuSans-50"/>
      </g>
     </g>
    </g>
    <g id="text_2">
     <!-- $x$ -->
     <defs>
      <path d="M 7.8125 2.875 
Q 9.578125 1.515625 12.796875 1.515625 
Q 15.921875 1.515625 18.3125 4.515625 
Q 20.703125 7.515625 21.578125 11.078125 
L 26.125 28.8125 
Q 27.203125 33.640625 27.203125 35.40625 
Q 27.203125 37.890625 25.8125 39.75 
Q 24.421875 41.609375 21.921875 41.609375 
Q 18.75 41.609375 15.96875 39.625 
Q 13.1875 37.640625 11.28125 34.59375 
Q 9.375 31.546875 8.59375 28.421875 
Q 8.40625 27.78125 7.8125 27.78125 
L 6.59375 27.78125 
Q 5.8125 27.78125 5.8125 28.71875 
L 5.8125 29 
Q 6.78125 32.71875 9.125 36.25 
Q 11.46875 39.796875 14.859375 41.984375 
Q 18.265625 44.1875 22.125 44.1875 
Q 25.78125 44.1875 28.734375 42.234375 
Q 31.6875 40.28125 32.90625 36.921875 
Q 34.625 39.984375 37.28125 42.078125 
Q 39.9375 44.1875 43.109375 44.1875 
Q 45.265625 44.1875 47.5 43.421875 
Q 49.75 42.671875 51.171875 41.109375 
Q 52.59375 39.546875 52.59375 37.203125 
Q 52.59375 34.671875 50.953125 32.828125 
Q 49.3125 31 46.78125 31 
Q 45.171875 31 44.09375 32.03125 
Q 43.015625 33.0625 43.015625 34.625 
Q 43.015625 36.71875 44.453125 38.296875 
Q 45.90625 39.890625 47.90625 40.1875 
Q 46.09375 41.609375 42.921875 41.609375 
Q 39.703125 41.609375 37.328125 38.625 
Q 34.96875 35.640625 33.984375 31.984375 
L 29.59375 14.3125 
Q 28.515625 10.296875 28.515625 7.71875 
Q 28.515625 5.171875 29.953125 3.34375 
Q 31.390625 1.515625 33.796875 1.515625 
Q 38.484375 1.515625 42.15625 5.640625 
Q 45.84375 9.765625 47.015625 14.703125 
Q 47.21875 15.28125 47.796875 15.28125 
L 49.03125 15.28125 
Q 49.421875 15.28125 49.65625 15.015625 
Q 49.90625 14.75 49.90625 14.40625 
Q 49.90625 14.3125 49.8125 14.109375 
Q 48.390625 8.15625 43.84375 3.515625 
Q 39.3125 -1.125 33.59375 -1.125 
Q 29.9375 -1.125 26.984375 0.84375 
Q 24.03125 2.828125 22.796875 6.203125 
Q 21.234375 3.265625 18.46875 1.0625 
Q 15.71875 -1.125 12.59375 -1.125 
Q 10.453125 -1.125 8.171875 -0.359375 
Q 5.90625 0.390625 4.484375 1.953125 
Q 3.078125 3.515625 3.078125 5.90625 
Q 3.078125 8.25 4.703125 10.171875 
Q 6.34375 12.109375 8.796875 12.109375 
Q 10.453125 12.109375 11.578125 11.109375 
Q 12.703125 10.109375 12.703125 8.5 
Q 12.703125 6.390625 11.296875 4.828125 
Q 9.90625 3.265625 7.8125 2.875 
z
" id="Cmmi10-120"/>
     </defs>
     <g transform="translate(227.652253 192.413397)scale(0.16 -0.16)">
      <use transform="translate(0 0.8125)" xlink:href="#Cmmi10-120"/>
     </g>
    </g>
   </g>
   <g id="matplotlib.axis_2">
    <g id="ytick_1">
     <g id="line2d_2">
      <defs>
       <path d="M 0 0 
L -3.5 0 
" id="m6859c66551" style="stroke:#000000;stroke-width:0.8;"/>
      </defs>
      <g>
       <use style="stroke:#000000;stroke-width:0.8;" x="103.381694" xlink:href="#m6859c66551" y="215.756891"/>
      </g>
     </g>
     <g id="text_3">
      <!-- -1 -->
      <defs>
       <path d="M 4.890625 31.390625 
L 31.203125 31.390625 
L 31.203125 23.390625 
L 4.890625 23.390625 
z
" id="DejaVuSans-45"/>
       <path d="M 12.40625 8.296875 
L 28.515625 8.296875 
L 28.515625 63.921875 
L 10.984375 60.40625 
L 10.984375 69.390625 
L 28.421875 72.90625 
L 38.28125 72.90625 
L 38.28125 8.296875 
L 54.390625 8.296875 
L 54.390625 0 
L 12.40625 0 
z
" id="DejaVuSans-49"/>
      </defs>
      <g transform="translate(86.411382 219.55611)scale(0.1 -0.1)">
       <use xlink:href="#DejaVuSans-45"/>
       <use x="36.083984" xlink:href="#DejaVuSans-49"/>
      </g>
     </g>
    </g>
    <g id="ytick_2">
     <g id="line2d_3">
      <g>
       <use style="stroke:#000000;stroke-width:0.8;" x="103.381694" xlink:href="#m6859c66551" y="145.726409"/>
      </g>
     </g>
     <g id="text_4">
      <!-- 2 -->
      <g transform="translate(90.019194 149.525627)scale(0.1 -0.1)">
       <use xlink:href="#DejaVuSans-50"/>
      </g>
     </g>
    </g>
    <g id="text_5">
     <!-- $y$ -->
     <defs>
      <path d="M 8.40625 -14.3125 
Q 10.5 -17.921875 15.71875 -17.921875 
Q 20.453125 -17.921875 23.921875 -14.59375 
Q 27.390625 -11.28125 29.515625 -6.5625 
Q 31.640625 -1.859375 32.8125 3.078125 
Q 28.375 -1.125 23.1875 -1.125 
Q 19.234375 -1.125 16.453125 0.234375 
Q 13.671875 1.609375 12.125 4.3125 
Q 10.59375 7.03125 10.59375 10.890625 
Q 10.59375 14.15625 11.46875 17.59375 
Q 12.359375 21.046875 13.9375 25.265625 
Q 15.53125 29.5 16.703125 32.625 
Q 18.015625 36.28125 18.015625 38.625 
Q 18.015625 41.609375 15.828125 41.609375 
Q 11.859375 41.609375 9.296875 37.53125 
Q 6.734375 33.453125 5.515625 28.421875 
Q 5.328125 27.78125 4.6875 27.78125 
L 3.515625 27.78125 
Q 2.6875 27.78125 2.6875 28.71875 
L 2.6875 29 
Q 4.296875 34.96875 7.609375 39.578125 
Q 10.9375 44.1875 16.015625 44.1875 
Q 19.578125 44.1875 22.046875 41.84375 
Q 24.515625 39.5 24.515625 35.890625 
Q 24.515625 34.03125 23.6875 31.984375 
Q 23.25 30.765625 21.6875 26.65625 
Q 20.125 22.5625 19.28125 19.875 
Q 18.453125 17.1875 17.921875 14.59375 
Q 17.390625 12.015625 17.390625 9.421875 
Q 17.390625 6.109375 18.796875 3.8125 
Q 20.21875 1.515625 23.296875 1.515625 
Q 29.5 1.515625 34.421875 9.078125 
L 42 39.890625 
Q 42.328125 41.21875 43.546875 42.15625 
Q 44.78125 43.109375 46.1875 43.109375 
Q 47.40625 43.109375 48.3125 42.328125 
Q 49.21875 41.546875 49.21875 40.28125 
Q 49.21875 39.703125 49.125 39.5 
L 39.203125 -0.296875 
Q 37.890625 -5.421875 34.375 -10.109375 
Q 30.859375 -14.796875 25.90625 -17.65625 
Q 20.953125 -20.515625 15.578125 -20.515625 
Q 12.984375 -20.515625 10.4375 -19.5 
Q 7.90625 -18.5 6.34375 -16.5 
Q 4.78125 -14.5 4.78125 -11.8125 
Q 4.78125 -9.078125 6.390625 -7.078125 
Q 8.015625 -5.078125 10.6875 -5.078125 
Q 12.3125 -5.078125 13.40625 -6.078125 
Q 14.5 -7.078125 14.5 -8.6875 
Q 14.5 -10.984375 12.78125 -12.6875 
Q 11.078125 -14.40625 8.796875 -14.40625 
Q 8.6875 -14.359375 8.59375 -14.328125 
Q 8.5 -14.3125 8.40625 -14.3125 
z
" id="Cmmi10-121"/>
     </defs>
     <g transform="translate(99.381694 19.325)scale(0.16 -0.16)">
      <use transform="translate(0 0.8125)" xlink:href="#Cmmi10-121"/>
     </g>
    </g>
   </g>
   <g id="line2d_4">
    <path clip-path="url(#p74de2c47a9)" d="M 56.460565 145.726409 
L 60.257042 149.351117 
L 64.21833 152.807342 
L 68.027435 155.816957 
L 71.255015 158.126292 
L 75.128063 160.605867 
L 78.217941 162.355927 
L 81.072346 163.792713 
L 84.630078 165.341641 
L 88.377884 166.683015 
L 91.421402 167.553158 
L 94.484244 168.23052 
L 97.955053 168.757661 
L 101.373453 169.027141 
L 104.744888 169.050199 
L 107.998656 168.843886 
L 110.845624 168.479207 
L 114.334337 167.797962 
L 118.08696 166.777058 
L 121.386221 165.632801 
L 124.452501 164.362393 
L 128.127323 162.577194 
L 131.37393 160.761757 
L 134.766767 158.625702 
L 138.434779 156.041793 
L 142.270985 153.034164 
L 146.101804 149.719337 
L 149.836409 146.188189 
L 154.071883 141.825533 
L 158.361756 137.019064 
L 161.963608 132.682081 
L 166.512571 126.811548 
L 170.983238 120.614503 
L 175.349071 114.153727 
L 179.363891 107.855637 
L 183.847232 100.418601 
L 188.004669 93.141279 
L 192.466786 84.92283 
L 197.223953 75.695926 
L 197.223953 75.695926 
" style="fill:none;stroke:#0000cc;stroke-linecap:square;stroke-width:1.5;"/>
   </g>
   <g id="line2d_5">
    <path clip-path="url(#p74de2c47a9)" d="M 56.460565 215.756891 
L 197.223953 145.726409 
L 197.223953 145.726409 
" style="fill:none;stroke:#3ccc00;stroke-linecap:square;stroke-width:1.5;"/>
   </g>
   <g id="line2d_6">
    <path clip-path="url(#p74de2c47a9)" d="M 44.730282 221.592765 
L 215.992405 136.389011 
L 215.992405 136.389011 
" style="fill:none;stroke:#0000ff;stroke-linecap:square;stroke-width:1.5;"/>
   </g>
   <g id="line2d_7">
    <path clip-path="url(#p74de2c47a9)" d="M 44.730282 132.595693 
L 48.581424 137.228342 
L 52.572856 141.697843 
L 56.052266 145.31838 
L 60.321416 149.409943 
L 63.721256 152.391903 
L 67.053513 155.076728 
L 71.329037 158.176664 
L 75.08048 160.577333 
L 78.630776 162.574418 
L 82.248616 164.334527 
L 84.984558 165.481267 
L 88.3804 166.683815 
L 91.713836 167.626421 
L 95.160798 168.353318 
L 98.890248 168.856007 
L 102.480888 169.061299 
L 105.453431 169.024394 
L 108.404086 168.802448 
L 112.112251 168.261714 
L 115.127571 167.607053 
L 118.246684 166.726979 
L 121.880394 165.441535 
L 125.10512 164.066269 
L 128.001184 162.643217 
L 131.487684 160.694095 
L 134.68668 158.678936 
L 138.433744 156.042562 
L 142.535894 152.814953 
L 146.289839 149.548617 
L 150.451291 145.578448 
L 154.544269 141.315383 
L 158.317989 137.070073 
L 162.464718 132.056895 
L 166.642188 126.637844 
L 171.00835 120.578497 
L 175.605914 113.761047 
L 179.566523 107.528706 
L 184.18727 99.837149 
L 188.422907 92.388891 
L 193.247421 83.44164 
L 198.215705 73.711892 
L 203.111622 63.611799 
L 207.364474 54.425779 
L 212.799719 42.127508 
L 215.992405 34.611376 
L 215.992405 34.611376 
" style="fill:none;stroke:#ff0000;stroke-linecap:square;stroke-width:1.5;"/>
   </g>
   <g id="line2d_8">
    <path clip-path="url(#p74de2c47a9)" d="M 56.460565 215.756891 
L 56.460565 145.726409 
" style="fill:none;stroke:#000000;stroke-linecap:square;"/>
   </g>
   <g id="line2d_9">
    <path clip-path="url(#p74de2c47a9)" d="M 197.223953 145.726409 
L 197.223953 75.695926 
" style="fill:none;stroke:#000000;stroke-linecap:square;"/>
   </g>
   <g id="line2d_10">
    <path clip-path="url(#p74de2c47a9)" d="M 197.223953 192.413397 
L 197.223953 145.726409 
" style="fill:none;stroke:#d3d3d3;stroke-dasharray:3.7,1.6;stroke-dashoffset:0;"/>
   </g>
   <g id="patch_4">
    <path d="M 103.381694 234.856538 
L 103.381694 30.685 
" style="fill:none;stroke:#000000;stroke-linecap:square;stroke-linejoin:miter;stroke-width:0.8;"/>
   </g>
   <g id="patch_5">
    <path d="M 29.340152 192.413397 
L 219.652253 192.413397 
" style="fill:none;stroke:#000000;stroke-linecap:square;stroke-linejoin:miter;stroke-width:0.8;"/>
   </g>
   <g id="text_6">
    <!-- $y=x^2+1$ -->
    <defs>
     <path d="M 7.515625 13.28125 
Q 6.6875 13.28125 6.140625 13.90625 
Q 5.609375 14.546875 5.609375 15.28125 
Q 5.609375 16.109375 6.140625 16.6875 
Q 6.6875 17.28125 7.515625 17.28125 
L 70.3125 17.28125 
Q 71.046875 17.28125 71.578125 16.6875 
Q 72.125 16.109375 72.125 15.28125 
Q 72.125 14.546875 71.578125 13.90625 
Q 71.046875 13.28125 70.3125 13.28125 
z
M 7.515625 32.71875 
Q 6.6875 32.71875 6.140625 33.296875 
Q 5.609375 33.890625 5.609375 34.71875 
Q 5.609375 35.453125 6.140625 36.078125 
Q 6.6875 36.71875 7.515625 36.71875 
L 70.3125 36.71875 
Q 71.046875 36.71875 71.578125 36.078125 
Q 72.125 35.453125 72.125 34.71875 
Q 72.125 33.890625 71.578125 33.296875 
Q 71.046875 32.71875 70.3125 32.71875 
z
" id="Cmr10-61"/>
     <path d="M 4.984375 0 
L 4.984375 2.6875 
Q 4.984375 2.9375 5.171875 3.21875 
L 20.703125 20.40625 
Q 24.21875 24.21875 26.40625 26.796875 
Q 28.609375 29.390625 30.75 32.765625 
Q 32.90625 36.140625 34.15625 39.625 
Q 35.40625 43.109375 35.40625 47.015625 
Q 35.40625 51.125 33.890625 54.859375 
Q 32.375 58.59375 29.375 60.84375 
Q 26.375 63.09375 22.125 63.09375 
Q 17.78125 63.09375 14.3125 60.46875 
Q 10.84375 57.859375 9.421875 53.71875 
Q 9.8125 53.8125 10.5 53.8125 
Q 12.75 53.8125 14.328125 52.296875 
Q 15.921875 50.78125 15.921875 48.390625 
Q 15.921875 46.09375 14.328125 44.5 
Q 12.75 42.921875 10.5 42.921875 
Q 8.15625 42.921875 6.5625 44.546875 
Q 4.984375 46.1875 4.984375 48.390625 
Q 4.984375 52.15625 6.390625 55.4375 
Q 7.8125 58.734375 10.46875 61.296875 
Q 13.140625 63.875 16.484375 65.234375 
Q 19.828125 66.609375 23.578125 66.609375 
Q 29.296875 66.609375 34.21875 64.1875 
Q 39.15625 61.765625 42.03125 57.34375 
Q 44.921875 52.9375 44.921875 47.015625 
Q 44.921875 42.671875 43.015625 38.765625 
Q 41.109375 34.859375 38.125 31.65625 
Q 35.15625 28.46875 30.515625 24.40625 
Q 25.875 20.359375 24.421875 19 
L 13.09375 8.109375 
L 22.703125 8.109375 
Q 29.78125 8.109375 34.546875 8.21875 
Q 39.3125 8.34375 39.59375 8.59375 
Q 40.765625 9.859375 42 17.828125 
L 44.921875 17.828125 
L 42.09375 0 
z
" id="Cmr10-50"/>
     <path d="M 7.515625 23 
Q 6.6875 23 6.140625 23.625 
Q 5.609375 24.265625 5.609375 25 
Q 5.609375 25.734375 6.140625 26.359375 
Q 6.6875 27 7.515625 27 
L 36.921875 27 
L 36.921875 56.5 
Q 36.921875 57.28125 37.5 57.78125 
Q 38.09375 58.296875 38.921875 58.296875 
Q 39.65625 58.296875 40.28125 57.78125 
Q 40.921875 57.28125 40.921875 56.5 
L 40.921875 27 
L 70.3125 27 
Q 71.046875 27 71.578125 26.359375 
Q 72.125 25.734375 72.125 25 
Q 72.125 24.265625 71.578125 23.625 
Q 71.046875 23 70.3125 23 
L 40.921875 23 
L 40.921875 -6.5 
Q 40.921875 -7.28125 40.28125 -7.78125 
Q 39.65625 -8.296875 38.921875 -8.296875 
Q 38.09375 -8.296875 37.5 -7.78125 
Q 36.921875 -7.28125 36.921875 -6.5 
L 36.921875 23 
z
" id="Cmr10-43"/>
     <path d="M 9.28125 0 
L 9.28125 3.515625 
Q 21.78125 3.515625 21.78125 6.6875 
L 21.78125 59.1875 
Q 16.609375 56.6875 8.6875 56.6875 
L 8.6875 60.203125 
Q 20.953125 60.203125 27.203125 66.609375 
L 28.609375 66.609375 
Q 28.953125 66.609375 29.265625 66.328125 
Q 29.59375 66.0625 29.59375 65.71875 
L 29.59375 6.6875 
Q 29.59375 3.515625 42.09375 3.515625 
L 42.09375 0 
z
" id="Cmr10-49"/>
    </defs>
    <g style="fill:#ff0000;" transform="translate(7.2 125.289174)scale(0.12 -0.12)">
     <use transform="translate(0 0.109375)" xlink:href="#Cmmi10-121"/>
     <use transform="translate(66.582031 0.109375)" xlink:href="#Cmr10-61"/>
     <use transform="translate(161.826172 0.109375)" xlink:href="#Cmmi10-120"/>
     <use transform="translate(225.209531 38.373438)scale(0.7)" xlink:href="#Cmr10-50"/>
     <use transform="translate(284.145469 0.109375)" xlink:href="#Cmr10-43"/>
     <use transform="translate(379.389609 0.109375)" xlink:href="#Cmr10-49"/>
    </g>
   </g>
   <g id="text_7">
    <!-- $y=x$ -->
    <g style="fill:#0000ff;" transform="translate(43.320565 234.217038)scale(0.12 -0.12)">
     <use transform="translate(0 0.8125)" xlink:href="#Cmmi10-121"/>
     <use transform="translate(66.582031 0.8125)" xlink:href="#Cmr10-61"/>
     <use transform="translate(161.826172 0.8125)" xlink:href="#Cmmi10-120"/>
    </g>
   </g>
  </g>
 </g>
 <defs>
  <clipPath id="p74de2c47a9">
   <rect height="204.171538" width="190.312101" x="29.340152" y="30.685"/>
  </clipPath>
 </defs>
</svg>
