<?xml version="1.0" encoding="utf-8" standalone="no"?>
<!DOCTYPE svg PUBLIC "-//W3C//DTD SVG 1.1//EN"
  "http://www.w3.org/Graphics/SVG/1.1/DTD/svg11.dtd">
<!-- Created with matplotlib (https://matplotlib.org/) -->
<svg height="243.725pt" version="1.1" viewBox="0 0 244.27 243.725" width="244.27pt" xmlns="http://www.w3.org/2000/svg" xmlns:xlink="http://www.w3.org/1999/xlink">
 <defs>
  <style type="text/css">
*{stroke-linecap:butt;stroke-linejoin:round;}
  </style>
 </defs>
 <g id="figure_1">
  <g id="patch_1">
   <path d="M 0 243.725 
L 244.27 243.725 
L 244.27 0 
L 0 0 
z
" style="fill:#ffffff;"/>
  </g>
  <g id="axes_1">
   <g id="patch_2">
    <path d="M 7.2 236.525 
L 219.79 236.525 
L 219.79 30.685 
L 7.2 30.685 
z
" style="fill:#ffffff;"/>
   </g>
   <g id="patch_3">
    <path clip-path="url(#p33d1180444)" d="M 203.851675 73.739342 
L 202.908555 74.361653 
L 202.411241 74.689803 
L 201.43765 75.332221 
L 200.349669 76.050118 
L 199.61073 76.537702 
L 198.708272 77.133184 
L 197.756846 77.760976 
L 196.885797 78.335733 
L 195.498522 79.251118 
L 195.061165 79.539704 
L 193.906612 80.301529 
L 192.77047 81.051205 
L 192.268372 81.382511 
L 191.097725 82.154956 
L 190.533634 82.527168 
L 189.384517 83.285405 
L 188.873397 83.622665 
L 187.96271 84.223576 
L 187.237625 84.702019 
L 185.954023 85.548995 
L 185.223888 86.03077 
L 183.785976 86.979568 
L 183.589878 87.108962 
L 182.571749 87.780768 
L 181.770651 88.309367 
L 180.87864 88.897955 
L 179.420723 89.859952 
L 178.803492 90.267229 
L 177.988043 90.805297 
L 176.841363 91.561927 
L 176.302203 91.917688 
L 175.399422 92.513383 
L 174.10302 93.368806 
L 173.689311 93.641789 
L 172.233175 94.602611 
L 171.788625 94.895945 
L 170.43698 95.787819 
L 170.049765 96.04332 
L 169.164106 96.627717 
L 167.872053 97.48027 
L 167.319439 97.844909 
L 166.039989 98.689146 
L 165.611195 98.972083 
L 164.95047 99.408058 
L 163.477824 100.379775 
L 162.744951 100.863356 
L 161.925878 101.403816 
L 160.639155 102.252852 
L 160.189431 102.5496 
L 159.000656 103.334006 
L 158.30531 103.792826 
L 157.52049 104.310684 
L 156.081469 105.260213 
L 155.248422 105.809894 
L 155.006339 105.969631 
L 153.86854 106.7204 
L 152.540119 107.596951 
L 151.785856 108.094647 
L 150.748084 108.779414 
L 150.534728 108.920195 
L 149.507443 109.598043 
L 148.070491 110.546206 
L 147.856014 110.687728 
L 146.64314 111.488035 
L 145.632296 112.155034 
L 144.727832 112.75184 
L 144.425082 112.951607 
L 143.5248 113.545652 
L 141.880265 114.630788 
L 140.957758 115.239499 
L 140.042201 115.843623 
L 139.513935 116.192197 
L 138.426169 116.909952 
L 138.024137 117.17523 
L 136.887697 117.925103 
L 135.577241 118.789799 
L 135.207736 119.033615 
L 134.487497 119.50886 
L 133.134078 120.401905 
L 132.33992 120.925926 
L 131.779465 121.295738 
L 130.898 121.877367 
L 129.365609 122.888506 
L 128.491505 123.465278 
L 127.737893 123.962544 
L 127.440939 124.158488 
L 125.705283 125.303749 
L 125.169802 125.657083 
L 124.072327 126.381245 
L 123.681768 126.638953 
L 122.139384 127.656685 
L 122.038779 127.723069 
L 120.398762 128.805224 
L 119.62294 129.317145 
L 118.975029 129.744665 
L 118.087172 130.330512 
L 117.215195 130.90588 
L 116.472594 131.395881 
L 114.99885 132.368322 
L 114.802557 132.497844 
L 113.880119 133.10651 
L 113.148094 133.589531 
L 111.839989 134.452677 
L 110.725777 135.187883 
L 110.002119 135.665383 
L 109.533338 135.974706 
L 108.710814 136.517443 
L 107.170477 137.533825 
L 106.409097 138.036217 
L 105.794561 138.441714 
L 105.026202 138.948711 
L 103.542703 139.927589 
L 102.6121 140.541641 
L 101.877318 141.026482 
L 101.141665 141.511898 
L 100.650658 141.835887 
L 99.474128 142.612212 
L 98.514608 143.245346 
L 97.519761 143.901789 
L 96.784474 144.386964 
L 95.477079 145.24964 
L 94.79028 145.70282 
L 94.147668 146.126843 
L 92.865371 146.972959 
L 91.998559 147.54492 
L 91.486179 147.88301 
L 90.133572 148.77552 
L 89.782935 149.006885 
L 88.185016 150.061262 
L 87.578874 150.461221 
L 87.217136 150.699912 
L 86.052887 151.468134 
L 85.25227 151.996417 
L 84.257534 152.652786 
L 83.178587 153.364723 
L 81.977863 154.157013 
L 81.659769 154.366905 
L 80.587413 155.074493 
L 79.358722 155.885237 
L 78.671254 156.338858 
L 78.094188 156.719632 
L 77.193283 157.314088 
L 75.904842 158.164258 
L 75.395002 158.500673 
L 74.554273 159.055422 
L 73.573713 159.702439 
L 72.122195 160.660214 
L 71.226139 161.251471 
L 70.843949 161.503657 
L 69.661704 162.283754 
L 69.359776 162.482979 
L 68.450729 163.082808 
L 67.34885 163.809876 
L 66.41204 164.428024 
L 65.478021 165.044331 
L 64.320024 165.808428 
L 63.643061 166.255118 
L 62.370126 167.095056 
L 61.610355 167.596386 
L 60.804944 168.127831 
L 60.39134 168.400745 
L 59.465447 169.01169 
L 57.981626 169.99078 
L 57.759344 170.137451 
L 56.714566 170.826842 
L 56.022231 171.283675 
L 54.784685 172.100261 
L 54.066462 172.574176 
L 52.690747 173.481933 
L 51.586239 174.210736 
L 51.328758 174.380633 
L 50.49674 174.929635 
L 49.063456 175.875379 
L 48.687056 176.123744 
L 47.138938 177.14526 
L 46.814631 177.359252 
L 46.025007 177.88028 
L 45.005963 178.55269 
L 43.550101 179.513331 
L 43.07812 179.824765 
L 42.513883 180.197073 
L 41.519728 180.853061 
L 40.697434 181.395646 
L 39.459292 182.212626 
L 38.985676 182.525139 
L 38.109215 183.103466 
L 36.778974 183.981217 
L 36.087937 184.437194 
L 34.969313 185.175311 
L 34.226425 185.665501 
L 33.506005 186.140866 
L 32.614091 186.729389 
L 31.483608 187.475331 
L 30.760487 187.952478 
L 30.109575 188.381979 
L 28.48702 189.452611 
L 27.639293 190.011978 
L 26.753041 190.596766 
L 26.100839 191.027118 
L 26.100839 191.027118 
L 26.874946 188.990634 
L 27.726193 186.766619 
L 28.586834 184.534469 
L 29.410636 182.413321 
L 30.19639 180.404221 
L 30.982145 178.408873 
L 31.310948 177.577991 
L 32.104231 175.583285 
L 33.432283 172.275279 
L 34.375015 169.950894 
L 35.045884 168.308868 
L 35.509193 167.18072 
L 36.769496 164.136096 
L 37.287184 162.895724 
L 38.255455 160.591784 
L 39.38987 157.91908 
L 40.292844 155.812142 
L 41.160431 153.804881 
L 42.429367 150.899247 
L 42.914781 149.79722 
L 43.864188 147.656969 
L 45.201236 144.676902 
L 45.805763 143.342579 
L 46.825108 141.111098 
L 47.225266 140.241425 
L 48.347226 137.822059 
L 49.742633 134.852161 
L 50.625917 132.994647 
L 51.371991 131.439219 
L 52.228685 129.668461 
L 52.940117 128.210379 
L 53.970992 126.117599 
L 54.867277 124.317287 
L 55.142916 123.767224 
L 55.909645 122.246049 
L 56.676374 120.737969 
L 57.774185 118.601479 
L 58.355126 117.481748 
L 58.750783 116.723446 
L 59.576979 115.15123 
L 60.403174 113.594218 
L 60.817919 112.81834 
L 61.922817 110.770065 
L 62.663681 109.411871 
L 63.281852 108.287959 
L 64.082378 106.845153 
L 64.882904 105.416621 
L 65.725894 103.927739 
L 66.428153 102.699502 
L 66.844061 101.977266 
L 67.675782 100.544514 
L 68.507503 99.127171 
L 69.010242 98.27792 
L 69.630926 97.237195 
L 70.413477 95.937293 
L 71.196027 94.65103 
L 71.75364 93.742815 
L 72.91271 91.877133 
L 73.524662 90.904181 
L 74.37309 89.569052 
L 74.86212 88.806773 
L 76.033656 87.0023 
L 76.769905 85.883925 
L 77.587867 84.655585 
L 78.408833 83.437717 
L 79.229799 82.234862 
L 79.765202 81.458492 
L 80.537322 80.350111 
L 81.281989 79.293716 
L 82.392747 77.740933 
L 83.002303 76.900483 
L 84.322122 75.109086 
L 84.672925 74.639467 
L 86.040288 72.835141 
L 87.082158 71.48828 
L 88.098924 70.197182 
L 88.891932 69.206196 
L 89.331004 68.663533 
L 90.621029 67.09399 
L 91.205881 66.394626 
L 92.21917 65.200971 
L 93.317678 63.932764 
L 94.360928 62.753236 
L 94.549089 62.543077 
L 95.826853 61.136781 
L 96.662409 60.236842 
L 97.121185 59.749327 
L 98.206555 58.614633 
L 99.216517 57.582342 
L 100.61961 56.185932 
L 101.385308 55.442376 
L 101.763474 55.079963 
L 102.876443 54.031837 
L 103.40971 53.539414 
L 104.428948 52.615868 
L 105.200964 51.931731 
L 105.972981 51.26087 
L 106.705006 50.637022 
L 107.026252 50.367018 
L 108.26496 49.347412 
L 109.46967 48.388573 
L 110.01743 47.963296 
L 111.2948 46.997519 
L 111.837182 46.598434 
L 112.456414 46.150813 
L 113.54107 45.387335 
L 114.598917 44.667969 
L 115.433751 44.117854 
L 116.488399 43.445085 
L 117.030989 43.108613 
L 118.179566 42.417988 
L 118.888542 42.006357 
L 120.003858 41.381462 
L 121.079261 40.805168 
L 121.637595 40.516122 
L 122.679227 39.995437 
L 123.25539 39.717808 
L 124.343524 39.213649 
L 124.936178 38.950152 
L 125.73251 38.608417 
L 126.528841 38.280806 
L 126.708233 38.208953 
L 127.659155 37.840047 
L 128.946734 37.372634 
L 129.534148 37.171658 
L 130.357192 36.902993 
L 131.740586 36.485407 
L 132.58608 36.251176 
L 133.589169 35.993936 
L 134.148141 35.860313 
L 135.310262 35.604781 
L 135.722114 35.52144 
L 136.924561 35.299736 
L 137.919369 35.140658 
L 138.686088 35.033094 
L 139.452914 34.938611 
L 140.73943 34.809516 
L 141.75345 34.733743 
L 141.825404 34.729236 
L 142.881522 34.676358 
L 143.649801 34.653501 
L 144.73674 34.64362 
L 146.149228 34.670097 
L 146.630465 34.689267 
L 147.561667 34.741008 
L 148.614748 34.822793 
L 149.126291 34.871434 
L 149.908779 34.957114 
L 150.759099 35.065684 
L 152.162451 35.280088 
L 153.123034 35.452134 
L 153.779696 35.581573 
L 154.836262 35.809998 
L 155.610963 35.993284 
L 156.262003 36.15765 
L 157.104484 36.384362 
L 157.845252 36.596764 
L 158.58602 36.821388 
L 158.889639 36.916986 
L 159.747043 37.198037 
L 160.61106 37.497818 
L 161.822852 37.946278 
L 162.897685 38.371423 
L 163.367096 38.565169 
L 164.417599 39.016538 
L 165.12295 39.333399 
L 166.567911 40.017111 
L 167.529735 40.497998 
L 168.391623 40.946424 
L 169.059321 41.30519 
L 169.492083 41.543025 
L 170.409684 42.061113 
L 171.531682 42.720092 
L 172.704656 43.438989 
L 173.095112 43.685091 
L 174.315986 44.47651 
L 175.152063 45.037641 
L 176.179388 45.748446 
L 176.870828 46.240087 
L 178.313294 47.300018 
L 178.777037 47.650623 
L 180.113579 48.687889 
L 181.037173 49.42792 
L 181.71695 49.984732 
L 182.406878 50.560381 
L 183.376451 51.387275 
L 183.902988 51.845101 
L 184.700404 52.550215 
L 185.49782 53.269492 
L 186.035513 53.762491 
L 186.774259 54.450332 
L 187.508938 55.146443 
L 188.602918 56.20527 
L 189.31206 56.905866 
L 190.306582 57.90727 
L 191.549768 59.19004 
L 192.651482 60.355604 
L 193.486857 61.257415 
L 194.171497 62.008092 
L 194.711407 62.607442 
L 195.374655 63.352595 
L 196.572305 64.722966 
L 197.344727 65.62373 
L 198.080939 66.494636 
L 198.81715 67.377614 
L 199.320271 67.987978 
L 200.277925 69.165341 
L 200.733934 69.733149 
L 202.012612 71.350019 
L 203.378223 73.117029 
z
" style="fill:#cde0eb;opacity:0.5;"/>
   </g>
   <g id="matplotlib.axis_1">
    <g id="xtick_1">
     <g id="line2d_1">
      <defs>
       <path d="M 0 0 
L 0 3.5 
" id="ma0bc8e8f69" style="stroke:#000000;stroke-width:0.8;"/>
      </defs>
      <g>
       <use style="stroke:#000000;stroke-width:0.8;" x="26.100839" xlink:href="#ma0bc8e8f69" y="112.835267"/>
      </g>
     </g>
     <g id="text_1">
      <!-- -2 -->
      <defs>
       <path d="M 4.890625 31.390625 
L 31.203125 31.390625 
L 31.203125 23.390625 
L 4.890625 23.390625 
z
" id="DejaVuSans-45"/>
       <path d="M 19.1875 8.296875 
L 53.609375 8.296875 
L 53.609375 0 
L 7.328125 0 
L 7.328125 8.296875 
Q 12.9375 14.109375 22.625 23.890625 
Q 32.328125 33.6875 34.8125 36.53125 
Q 39.546875 41.84375 41.421875 45.53125 
Q 43.3125 49.21875 43.3125 52.78125 
Q 43.3125 58.59375 39.234375 62.25 
Q 35.15625 65.921875 28.609375 65.921875 
Q 23.96875 65.921875 18.8125 64.3125 
Q 13.671875 62.703125 7.8125 59.421875 
L 7.8125 69.390625 
Q 13.765625 71.78125 18.9375 73 
Q 24.125 74.21875 28.421875 74.21875 
Q 39.75 74.21875 46.484375 68.546875 
Q 53.21875 62.890625 53.21875 53.421875 
Q 53.21875 48.921875 51.53125 44.890625 
Q 49.859375 40.875 45.40625 35.40625 
Q 44.1875 33.984375 37.640625 27.21875 
Q 31.109375 20.453125 19.1875 8.296875 
z
" id="DejaVuSans-50"/>
      </defs>
      <g transform="translate(21.115683 127.433705)scale(0.1 -0.1)">
       <use xlink:href="#DejaVuSans-45"/>
       <use x="36.083984" xlink:href="#DejaVuSans-50"/>
      </g>
     </g>
    </g>
    <g id="xtick_2">
     <g id="line2d_2">
      <g>
       <use style="stroke:#000000;stroke-width:0.8;" x="203.851675" xlink:href="#ma0bc8e8f69" y="112.835267"/>
      </g>
     </g>
     <g id="text_2">
      <!-- 1 -->
      <defs>
       <path d="M 12.40625 8.296875 
L 28.515625 8.296875 
L 28.515625 63.921875 
L 10.984375 60.40625 
L 10.984375 69.390625 
L 28.421875 72.90625 
L 38.28125 72.90625 
L 38.28125 8.296875 
L 54.390625 8.296875 
L 54.390625 0 
L 12.40625 0 
z
" id="DejaVuSans-49"/>
      </defs>
      <g transform="translate(200.670425 127.433705)scale(0.1 -0.1)">
       <use xlink:href="#DejaVuSans-49"/>
      </g>
     </g>
    </g>
    <g id="text_3">
     <!-- $x$ -->
     <defs>
      <path d="M 7.8125 2.875 
Q 9.578125 1.515625 12.796875 1.515625 
Q 15.921875 1.515625 18.3125 4.515625 
Q 20.703125 7.515625 21.578125 11.078125 
L 26.125 28.8125 
Q 27.203125 33.640625 27.203125 35.40625 
Q 27.203125 37.890625 25.8125 39.75 
Q 24.421875 41.609375 21.921875 41.609375 
Q 18.75 41.609375 15.96875 39.625 
Q 13.1875 37.640625 11.28125 34.59375 
Q 9.375 31.546875 8.59375 28.421875 
Q 8.40625 27.78125 7.8125 27.78125 
L 6.59375 27.78125 
Q 5.8125 27.78125 5.8125 28.71875 
L 5.8125 29 
Q 6.78125 32.71875 9.125 36.25 
Q 11.46875 39.796875 14.859375 41.984375 
Q 18.265625 44.1875 22.125 44.1875 
Q 25.78125 44.1875 28.734375 42.234375 
Q 31.6875 40.28125 32.90625 36.921875 
Q 34.625 39.984375 37.28125 42.078125 
Q 39.9375 44.1875 43.109375 44.1875 
Q 45.265625 44.1875 47.5 43.421875 
Q 49.75 42.671875 51.171875 41.109375 
Q 52.59375 39.546875 52.59375 37.203125 
Q 52.59375 34.671875 50.953125 32.828125 
Q 49.3125 31 46.78125 31 
Q 45.171875 31 44.09375 32.03125 
Q 43.015625 33.0625 43.015625 34.625 
Q 43.015625 36.71875 44.453125 38.296875 
Q 45.90625 39.890625 47.90625 40.1875 
Q 46.09375 41.609375 42.921875 41.609375 
Q 39.703125 41.609375 37.328125 38.625 
Q 34.96875 35.640625 33.984375 31.984375 
L 29.59375 14.3125 
Q 28.515625 10.296875 28.515625 7.71875 
Q 28.515625 5.171875 29.953125 3.34375 
Q 31.390625 1.515625 33.796875 1.515625 
Q 38.484375 1.515625 42.15625 5.640625 
Q 45.84375 9.765625 47.015625 14.703125 
Q 47.21875 15.28125 47.796875 15.28125 
L 49.03125 15.28125 
Q 49.421875 15.28125 49.65625 15.015625 
Q 49.90625 14.75 49.90625 14.40625 
Q 49.90625 14.3125 49.8125 14.109375 
Q 48.390625 8.15625 43.84375 3.515625 
Q 39.3125 -1.125 33.59375 -1.125 
Q 29.9375 -1.125 26.984375 0.84375 
Q 24.03125 2.828125 22.796875 6.203125 
Q 21.234375 3.265625 18.46875 1.0625 
Q 15.71875 -1.125 12.59375 -1.125 
Q 10.453125 -1.125 8.171875 -0.359375 
Q 5.90625 0.390625 4.484375 1.953125 
Q 3.078125 3.515625 3.078125 5.90625 
Q 3.078125 8.25 4.703125 10.171875 
Q 6.34375 12.109375 8.796875 12.109375 
Q 10.453125 12.109375 11.578125 11.109375 
Q 12.703125 10.109375 12.703125 8.5 
Q 12.703125 6.390625 11.296875 4.828125 
Q 9.90625 3.265625 7.8125 2.875 
z
" id="Cmmi10-120"/>
     </defs>
     <g transform="translate(227.79 112.835267)scale(0.16 -0.16)">
      <use transform="translate(0 0.8125)" xlink:href="#Cmmi10-120"/>
     </g>
    </g>
   </g>
   <g id="matplotlib.axis_2">
    <g id="ytick_1">
     <g id="line2d_3">
      <defs>
       <path d="M 0 0 
L -3.5 0 
" id="m6464af3f69" style="stroke:#000000;stroke-width:0.8;"/>
      </defs>
      <g>
       <use style="stroke:#000000;stroke-width:0.8;" x="144.601396" xlink:href="#m6464af3f69" y="191.027118"/>
      </g>
     </g>
     <g id="text_4">
      <!-- -2 -->
      <g transform="translate(127.631084 194.826337)scale(0.1 -0.1)">
       <use xlink:href="#DejaVuSans-45"/>
       <use x="36.083984" xlink:href="#DejaVuSans-50"/>
      </g>
     </g>
    </g>
    <g id="ytick_2">
     <g id="line2d_4">
      <g>
       <use style="stroke:#000000;stroke-width:0.8;" x="144.601396" xlink:href="#m6464af3f69" y="73.739342"/>
      </g>
     </g>
     <g id="text_5">
      <!-- 1 -->
      <g transform="translate(131.238896 77.53856)scale(0.1 -0.1)">
       <use xlink:href="#DejaVuSans-49"/>
      </g>
     </g>
    </g>
    <g id="text_6">
     <!-- $y$ -->
     <defs>
      <path d="M 8.40625 -14.3125 
Q 10.5 -17.921875 15.71875 -17.921875 
Q 20.453125 -17.921875 23.921875 -14.59375 
Q 27.390625 -11.28125 29.515625 -6.5625 
Q 31.640625 -1.859375 32.8125 3.078125 
Q 28.375 -1.125 23.1875 -1.125 
Q 19.234375 -1.125 16.453125 0.234375 
Q 13.671875 1.609375 12.125 4.3125 
Q 10.59375 7.03125 10.59375 10.890625 
Q 10.59375 14.15625 11.46875 17.59375 
Q 12.359375 21.046875 13.9375 25.265625 
Q 15.53125 29.5 16.703125 32.625 
Q 18.015625 36.28125 18.015625 38.625 
Q 18.015625 41.609375 15.828125 41.609375 
Q 11.859375 41.609375 9.296875 37.53125 
Q 6.734375 33.453125 5.515625 28.421875 
Q 5.328125 27.78125 4.6875 27.78125 
L 3.515625 27.78125 
Q 2.6875 27.78125 2.6875 28.71875 
L 2.6875 29 
Q 4.296875 34.96875 7.609375 39.578125 
Q 10.9375 44.1875 16.015625 44.1875 
Q 19.578125 44.1875 22.046875 41.84375 
Q 24.515625 39.5 24.515625 35.890625 
Q 24.515625 34.03125 23.6875 31.984375 
Q 23.25 30.765625 21.6875 26.65625 
Q 20.125 22.5625 19.28125 19.875 
Q 18.453125 17.1875 17.921875 14.59375 
Q 17.390625 12.015625 17.390625 9.421875 
Q 17.390625 6.109375 18.796875 3.8125 
Q 20.21875 1.515625 23.296875 1.515625 
Q 29.5 1.515625 34.421875 9.078125 
L 42 39.890625 
Q 42.328125 41.21875 43.546875 42.15625 
Q 44.78125 43.109375 46.1875 43.109375 
Q 47.40625 43.109375 48.3125 42.328125 
Q 49.21875 41.546875 49.21875 40.28125 
Q 49.21875 39.703125 49.125 39.5 
L 39.203125 -0.296875 
Q 37.890625 -5.421875 34.375 -10.109375 
Q 30.859375 -14.796875 25.90625 -17.65625 
Q 20.953125 -20.515625 15.578125 -20.515625 
Q 12.984375 -20.515625 10.4375 -19.5 
Q 7.90625 -18.5 6.34375 -16.5 
Q 4.78125 -14.5 4.78125 -11.8125 
Q 4.78125 -9.078125 6.390625 -7.078125 
Q 8.015625 -5.078125 10.6875 -5.078125 
Q 12.3125 -5.078125 13.40625 -6.078125 
Q 14.5 -7.078125 14.5 -8.6875 
Q 14.5 -10.984375 12.78125 -12.6875 
Q 11.078125 -14.40625 8.796875 -14.40625 
Q 8.6875 -14.359375 8.59375 -14.328125 
Q 8.5 -14.3125 8.40625 -14.3125 
z
" id="Cmmi10-121"/>
     </defs>
     <g transform="translate(140.601396 19.325)scale(0.16 -0.16)">
      <use transform="translate(0 0.8125)" xlink:href="#Cmmi10-121"/>
     </g>
    </g>
   </g>
   <g id="line2d_5">
    <path clip-path="url(#p33d1180444)" d="M 26.100839 191.027118 
L 31.310948 177.577991 
L 36.769496 164.136096 
L 41.160431 153.804881 
L 46.825108 141.111098 
L 51.371991 131.439219 
L 55.909645 122.246049 
L 60.817919 112.81834 
L 65.725894 103.927739 
L 70.413477 95.937293 
L 74.86212 88.806773 
L 79.765202 81.458492 
L 84.322122 75.109086 
L 88.098924 70.197182 
L 92.21917 65.200971 
L 96.662409 60.236842 
L 100.61961 56.185932 
L 104.428948 52.615868 
L 108.26496 49.347412 
L 112.456414 46.150813 
L 116.488399 43.445085 
L 120.003858 41.381462 
L 123.25539 39.717808 
L 126.708233 38.208953 
L 130.357192 36.902993 
L 134.148141 35.860313 
L 137.919369 35.140658 
L 140.73943 34.809516 
L 143.649801 34.653501 
L 146.630465 34.689267 
L 149.908779 34.957114 
L 153.123034 35.452134 
L 156.262003 36.15765 
L 159.747043 37.198037 
L 163.367096 38.565169 
L 166.567911 40.017111 
L 170.409684 42.061113 
L 174.315986 44.47651 
L 176.870828 46.240087 
L 181.037173 49.42792 
L 184.700404 52.550215 
L 188.602918 56.20527 
L 192.651482 60.355604 
L 196.572305 64.722966 
L 200.733934 69.733149 
L 203.851675 73.739342 
L 203.851675 73.739342 
" style="fill:none;stroke:#0000cc;stroke-linecap:square;stroke-width:1.5;"/>
   </g>
   <g id="line2d_6">
    <path clip-path="url(#p33d1180444)" d="M 26.100839 191.027118 
L 203.851675 73.739342 
L 203.851675 73.739342 
" style="fill:none;stroke:#3ccc00;stroke-linecap:square;stroke-width:1.5;"/>
   </g>
   <g id="line2d_7">
    <path clip-path="url(#p33d1180444)" d="M 11.288269 200.801099 
L 215.701731 65.920157 
L 215.701731 65.920157 
" style="fill:none;stroke:#0000ff;stroke-linecap:square;stroke-width:1.5;"/>
   </g>
   <g id="line2d_8">
    <path clip-path="url(#p33d1180444)" d="M 11.288269 232.566538 
L 16.487382 217.429859 
L 22.008733 202.014204 
L 26.938085 188.825118 
L 32.125411 175.53022 
L 36.581889 164.587074 
L 41.237989 153.626258 
L 46.641743 141.510801 
L 50.884852 132.45341 
L 55.217307 123.61906 
L 60.586585 113.250633 
L 65.907664 103.608773 
L 70.59862 95.631745 
L 74.601426 89.212469 
L 79.507843 81.830883 
L 83.763818 75.862139 
L 88.293563 69.952654 
L 92.561399 64.802993 
L 96.334648 60.588005 
L 100.587676 56.217227 
L 104.623627 52.442097 
L 108.594767 49.081702 
L 111.900414 46.552334 
L 114.96931 44.421982 
L 118.920472 41.988082 
L 122.108896 40.277537 
L 125.467599 38.720532 
L 128.908677 37.385919 
L 132.417087 36.29672 
L 136.039088 35.459872 
L 139.450071 34.938938 
L 142.863379 34.677057 
L 145.883555 34.661724 
L 149.286286 34.887843 
L 152.466792 35.332373 
L 155.562127 35.981335 
L 158.319196 36.73907 
L 161.707587 37.902213 
L 165.268923 39.400357 
L 168.414816 40.95872 
L 171.768326 42.86266 
L 175.279391 45.124463 
L 178.909759 47.751846 
L 183.134089 51.178615 
L 186.886456 54.555862 
L 190.375727 57.977713 
L 194.446337 62.312378 
L 198.878379 67.451593 
L 202.808473 72.374761 
L 207.175313 78.248526 
L 211.629847 84.677858 
L 215.701731 90.941549 
L 215.701731 90.941549 
" style="fill:none;stroke:#ff0000;stroke-linecap:square;stroke-width:1.5;"/>
   </g>
   <g id="patch_4">
    <path d="M 144.601396 236.525 
L 144.601396 30.685 
" style="fill:none;stroke:#000000;stroke-linecap:square;stroke-linejoin:miter;stroke-width:0.8;"/>
   </g>
   <g id="patch_5">
    <path d="M 7.2 112.835267 
L 219.79 112.835267 
" style="fill:none;stroke:#000000;stroke-linecap:square;stroke-linejoin:miter;stroke-width:0.8;"/>
   </g>
   <g id="text_7">
    <!-- $y=2-x^2$ -->
    <defs>
     <path d="M 7.515625 13.28125 
Q 6.6875 13.28125 6.140625 13.90625 
Q 5.609375 14.546875 5.609375 15.28125 
Q 5.609375 16.109375 6.140625 16.6875 
Q 6.6875 17.28125 7.515625 17.28125 
L 70.3125 17.28125 
Q 71.046875 17.28125 71.578125 16.6875 
Q 72.125 16.109375 72.125 15.28125 
Q 72.125 14.546875 71.578125 13.90625 
Q 71.046875 13.28125 70.3125 13.28125 
z
M 7.515625 32.71875 
Q 6.6875 32.71875 6.140625 33.296875 
Q 5.609375 33.890625 5.609375 34.71875 
Q 5.609375 35.453125 6.140625 36.078125 
Q 6.6875 36.71875 7.515625 36.71875 
L 70.3125 36.71875 
Q 71.046875 36.71875 71.578125 36.078125 
Q 72.125 35.453125 72.125 34.71875 
Q 72.125 33.890625 71.578125 33.296875 
Q 71.046875 32.71875 70.3125 32.71875 
z
" id="Cmr10-61"/>
     <path d="M 4.984375 0 
L 4.984375 2.6875 
Q 4.984375 2.9375 5.171875 3.21875 
L 20.703125 20.40625 
Q 24.21875 24.21875 26.40625 26.796875 
Q 28.609375 29.390625 30.75 32.765625 
Q 32.90625 36.140625 34.15625 39.625 
Q 35.40625 43.109375 35.40625 47.015625 
Q 35.40625 51.125 33.890625 54.859375 
Q 32.375 58.59375 29.375 60.84375 
Q 26.375 63.09375 22.125 63.09375 
Q 17.78125 63.09375 14.3125 60.46875 
Q 10.84375 57.859375 9.421875 53.71875 
Q 9.8125 53.8125 10.5 53.8125 
Q 12.75 53.8125 14.328125 52.296875 
Q 15.921875 50.78125 15.921875 48.390625 
Q 15.921875 46.09375 14.328125 44.5 
Q 12.75 42.921875 10.5 42.921875 
Q 8.15625 42.921875 6.5625 44.546875 
Q 4.984375 46.1875 4.984375 48.390625 
Q 4.984375 52.15625 6.390625 55.4375 
Q 7.8125 58.734375 10.46875 61.296875 
Q 13.140625 63.875 16.484375 65.234375 
Q 19.828125 66.609375 23.578125 66.609375 
Q 29.296875 66.609375 34.21875 64.1875 
Q 39.15625 61.765625 42.03125 57.34375 
Q 44.921875 52.9375 44.921875 47.015625 
Q 44.921875 42.671875 43.015625 38.765625 
Q 41.109375 34.859375 38.125 31.65625 
Q 35.15625 28.46875 30.515625 24.40625 
Q 25.875 20.359375 24.421875 19 
L 13.09375 8.109375 
L 22.703125 8.109375 
Q 29.78125 8.109375 34.546875 8.21875 
Q 39.3125 8.34375 39.59375 8.59375 
Q 40.765625 9.859375 42 17.828125 
L 44.921875 17.828125 
L 42.09375 0 
z
" id="Cmr10-50"/>
     <path d="M 10.203125 23 
Q 9.375 23 8.828125 23.625 
Q 8.296875 24.265625 8.296875 25 
Q 8.296875 25.734375 8.828125 26.359375 
Q 9.375 27 10.203125 27 
L 67.578125 27 
Q 68.359375 27 68.875 26.359375 
Q 69.390625 25.734375 69.390625 25 
Q 69.390625 24.265625 68.875 23.625 
Q 68.359375 23 67.578125 23 
z
" id="Cmsy10-161"/>
    </defs>
    <g style="fill:#ff0000;" transform="translate(29.925978 71.323994)scale(0.12 -0.12)">
     <use transform="translate(0 0.109375)" xlink:href="#Cmmi10-121"/>
     <use transform="translate(66.582031 0.109375)" xlink:href="#Cmr10-61"/>
     <use transform="translate(161.826172 0.109375)" xlink:href="#Cmr10-50"/>
     <use transform="translate(229.384766 0.109375)" xlink:href="#Cmsy10-161"/>
     <use transform="translate(324.628906 0.109375)" xlink:href="#Cmmi10-120"/>
     <use transform="translate(388.012266 38.373438)scale(0.7)" xlink:href="#Cmr10-50"/>
    </g>
   </g>
   <g id="text_8">
    <!-- $y=x$ -->
    <g style="fill:#0000ff;" transform="translate(72.211118 180.630419)scale(0.12 -0.12)">
     <use transform="translate(0 0.8125)" xlink:href="#Cmmi10-121"/>
     <use transform="translate(66.582031 0.8125)" xlink:href="#Cmr10-61"/>
     <use transform="translate(161.826172 0.8125)" xlink:href="#Cmmi10-120"/>
    </g>
   </g>
  </g>
 </g>
 <defs>
  <clipPath id="p33d1180444">
   <rect height="205.84" width="212.59" x="7.2" y="30.685"/>
  </clipPath>
 </defs>
</svg>
