<?xml version="1.0" encoding="utf-8" standalone="no"?>
<!DOCTYPE svg PUBLIC "-//W3C//DTD SVG 1.1//EN"
  "http://www.w3.org/Graphics/SVG/1.1/DTD/svg11.dtd">
<!-- Created with matplotlib (https://matplotlib.org/) -->
<svg height="243.725pt" version="1.1" viewBox="0 0 244.27 243.725" width="244.27pt" xmlns="http://www.w3.org/2000/svg" xmlns:xlink="http://www.w3.org/1999/xlink">
 <defs>
  <style type="text/css">
*{stroke-linecap:butt;stroke-linejoin:round;}
  </style>
 </defs>
 <g id="figure_1">
  <g id="patch_1">
   <path d="M 0 243.725 
L 244.27 243.725 
L 244.27 0 
L 0 0 
z
" style="fill:#ffffff;"/>
  </g>
  <g id="axes_1">
   <g id="patch_2">
    <path d="M 7.2 236.525 
L 219.79 236.525 
L 219.79 30.685 
L 7.2 30.685 
z
" style="fill:#ffffff;"/>
   </g>
   <g id="patch_3">
    <path clip-path="url(#pb6fcc4aa53)" d="M 203.851675 73.739107 
L 203.007303 74.296262 
L 202.493389 74.635365 
L 201.162894 75.513285 
L 200.24413 76.119527 
L 199.113357 76.865661 
L 198.254584 77.432318 
L 197.8925 77.671237 
L 196.330059 78.702206 
L 195.648068 79.152214 
L 195.219707 79.434866 
L 193.685059 80.447495 
L 192.918544 80.953276 
L 192.307455 81.3565 
L 191.299132 82.021836 
L 190.495102 82.552371 
L 189.453297 83.239801 
L 188.698546 83.737819 
L 187.663172 84.421005 
L 186.818017 84.978676 
L 185.870331 85.604002 
L 184.772715 86.328258 
L 183.843703 86.941261 
L 183.366476 87.256158 
L 182.483599 87.838719 
L 181.088538 88.759243 
L 180.536658 89.123398 
L 179.438954 89.847712 
L 179.222778 89.990355 
L 178.008722 90.791443 
L 176.753817 91.619485 
L 176.484861 91.796955 
L 175.398293 92.513921 
L 174.668726 92.995322 
L 173.823421 93.553092 
L 172.246429 94.593662 
L 171.644203 94.991038 
L 170.960956 95.441874 
L 169.714498 96.264343 
L 169.275228 96.554193 
L 167.794405 97.531306 
L 166.908664 98.115758 
L 166.458029 98.413107 
L 165.23174 99.222267 
L 164.994981 99.378491 
L 163.901155 100.100247 
L 162.881549 100.773028 
L 162.200242 101.222585 
L 160.983141 102.025683 
L 160.435578 102.386989 
L 159.518117 102.992371 
L 158.712371 103.524038 
L 157.286794 104.464698 
L 156.184919 105.191764 
L 155.890656 105.385932 
L 154.453555 106.334196 
L 153.937647 106.674614 
L 153.298457 107.096381 
L 151.749742 108.118292 
L 150.995083 108.61625 
L 150.427525 108.99075 
L 149.786308 109.413854 
L 148.821305 110.050606 
L 147.950615 110.625126 
L 146.498606 111.583227 
L 145.911858 111.970389 
L 144.482505 112.91354 
L 144.439062 112.942206 
L 143.554144 113.526114 
L 142.272555 114.371764 
L 141.100152 115.145368 
L 140.66182 115.434599 
L 139.77963 116.016708 
L 138.55801 116.822787 
L 137.601564 117.453893 
L 137.160853 117.744694 
L 136.125586 118.427809 
L 135.434434 118.883862 
L 134.147062 119.733327 
L 133.682754 120.039699 
L 132.092049 121.089317 
L 131.572606 121.432069 
L 130.901904 121.874628 
L 129.821721 122.587381 
L 128.970927 123.148773 
L 128.192564 123.662371 
L 126.928721 124.496312 
L 125.807515 125.236133 
L 125.624006 125.357221 
L 124.762706 125.925545 
L 123.793839 126.564847 
L 122.767622 127.241991 
L 121.926163 127.797223 
L 120.981747 128.420391 
L 120.101521 129.001204 
L 119.322598 129.515171 
L 117.735593 130.562349 
L 116.932993 131.09194 
L 116.505719 131.373874 
L 115.612321 131.963378 
L 114.301403 132.828381 
L 113.469882 133.377055 
L 112.507923 134.011799 
L 111.639955 134.584523 
L 111.208095 134.869484 
L 110.047148 135.635528 
L 109.043292 136.297918 
L 107.989397 136.993325 
L 107.200074 137.514155 
L 106.804921 137.774895 
L 105.603402 138.567711 
L 104.977021 138.981025 
L 103.775404 139.773906 
L 102.678538 140.497666 
L 102.015626 140.935085 
L 101.009983 141.598654 
L 100.383606 142.011965 
L 99.358229 142.688555 
L 98.327677 143.368559 
L 97.658257 143.810272 
L 97.047702 144.213144 
L 95.849897 145.003509 
L 94.703696 145.759824 
L 94.382887 145.971508 
L 93.138669 146.792499 
L 91.845851 147.645558 
L 91.721693 147.727483 
L 90.68763 148.409804 
L 89.15654 149.420086 
L 88.549674 149.820523 
L 87.716229 150.370467 
L 86.804996 150.97174 
L 85.666588 151.722912 
L 84.836995 152.270314 
L 83.953548 152.853252 
L 82.923465 153.532947 
L 82.459199 153.83929 
L 81.655351 154.369706 
L 80.855539 154.897457 
L 79.476119 155.80766 
L 79.00679 156.117344 
L 78.228949 156.630599 
L 76.773551 157.590935 
L 76.229265 157.950079 
L 74.798532 158.894141 
L 73.958242 159.448602 
L 73.037107 160.056408 
L 72.957707 160.1088 
L 71.246924 161.237651 
L 71.02115 161.386627 
L 70.141253 161.967222 
L 69.251026 162.554633 
L 68.447731 163.084684 
L 67.613431 163.635192 
L 66.707449 164.232999 
L 65.453385 165.060487 
L 64.607373 165.618723 
L 63.178959 166.561255 
L 62.658705 166.904542 
L 61.645166 167.57332 
L 60.528924 168.309867 
L 60.121563 168.578662 
L 58.781165 169.463116 
L 58.638768 169.557076 
L 57.709369 170.170335 
L 56.873933 170.721593 
L 55.254157 171.790394 
L 54.518994 172.275487 
L 53.527797 172.929523 
L 52.536114 173.58388 
L 52.211159 173.7983 
L 50.816247 174.718725 
L 50.089239 175.198438 
L 49.493286 175.591674 
L 48.112929 176.502495 
L 47.634354 176.818281 
L 46.335062 177.675611 
L 45.650305 178.127445 
L 44.643223 178.791963 
L 43.823426 179.332901 
L 42.632647 180.11863 
L 42.270773 180.357411 
L 41.532642 180.844463 
L 40.416873 181.580697 
L 39.255686 182.3469 
L 38.391776 182.916946 
L 37.916294 183.230691 
L 36.602353 184.097688 
L 35.949627 184.528386 
L 35.387194 184.899504 
L 34.344051 185.587817 
L 33.3079 186.271515 
L 32.343602 186.907802 
L 31.573343 187.416053 
L 30.825533 187.909492 
L 29.289829 188.922818 
L 28.386968 189.518566 
L 27.857841 189.867708 
L 27.24057 190.275011 
L 26.100839 191.027056 
L 26.100839 191.027056 
L 26.769367 189.267535 
L 27.591548 187.117258 
L 28.674024 184.309184 
L 29.303516 182.688207 
L 30.31703 180.096898 
L 31.059887 178.212121 
L 31.802745 176.339635 
L 32.009353 175.821033 
L 32.942092 173.491619 
L 34.224502 170.320577 
L 35.2833 167.730071 
L 35.568585 167.03635 
L 36.311524 165.238267 
L 37.054463 163.452479 
L 37.534788 162.304475 
L 38.264803 160.569537 
L 38.994817 158.846469 
L 39.334197 158.049466 
L 40.748154 154.756526 
L 41.170662 153.781193 
L 41.819648 152.290798 
L 42.887691 149.858461 
L 43.993629 147.366598 
L 44.904431 145.334867 
L 45.422032 144.188483 
L 46.61486 141.569329 
L 47.959545 138.654735 
L 48.664085 137.143728 
L 49.37986 135.619948 
L 50.174552 133.941534 
L 50.985347 132.243606 
L 52.172909 129.7831 
L 52.916729 128.25798 
L 54.214327 125.6269 
L 55.029355 123.99348 
L 55.800101 122.462418 
L 56.725493 120.641638 
L 56.983255 120.137867 
L 58.188534 117.801907 
L 58.895531 116.446727 
L 60.259249 113.864184 
L 60.523926 113.367751 
L 61.521616 111.510494 
L 62.62375 109.484581 
L 63.541475 107.818288 
L 64.409736 106.259073 
L 65.030861 105.153966 
L 65.99633 103.453261 
L 66.981033 101.74006 
L 67.744022 100.427451 
L 68.531889 99.085649 
L 69.319756 97.757674 
L 69.678281 97.157946 
L 70.932795 95.081975 
L 71.672998 93.873528 
L 72.609549 92.362016 
L 73.140496 91.513789 
L 74.345259 89.612383 
L 75.309103 88.114482 
L 76.058221 86.964575 
L 77.332198 85.037706 
L 77.736717 84.43344 
L 78.415931 83.427033 
L 79.465654 81.891848 
L 80.476585 80.436593 
L 81.544267 78.924359 
L 82.078108 78.177765 
L 83.020598 76.875155 
L 84.273883 75.173646 
L 84.949649 74.270716 
L 86.313913 72.47884 
L 87.212322 71.321473 
L 87.679881 70.726258 
L 88.954965 69.127786 
L 89.199409 68.825483 
L 90.077618 67.750383 
L 91.21229 66.386759 
L 92.315572 65.088354 
L 92.70751 64.633626 
L 94.157119 62.981513 
L 94.721649 62.350783 
L 95.906963 61.049571 
L 96.315629 60.608201 
L 97.220598 59.64405 
L 98.389796 58.425397 
L 99.631822 57.164188 
L 100.587415 56.217223 
L 101.535337 55.297953 
L 101.964649 54.888203 
L 102.766026 54.134324 
L 104.13905 52.875929 
L 104.843815 52.24631 
L 105.654406 51.535827 
L 106.91557 50.459517 
L 107.823515 49.706585 
L 107.996912 49.56488 
L 109.196267 48.603069 
L 110.308434 47.739808 
L 110.767144 47.391784 
L 111.908297 46.546319 
L 112.754699 45.937966 
L 113.573707 45.364493 
L 114.830335 44.513643 
L 115.21093 44.262885 
L 116.422114 43.48636 
L 116.893934 43.192705 
L 118.011172 42.517123 
L 118.795921 42.059215 
L 119.691612 41.553334 
L 120.379426 41.176991 
L 121.600549 40.534802 
L 122.749508 39.960891 
L 123.736825 39.49121 
L 124.51245 39.137461 
L 125.103393 38.876937 
L 126.081514 38.462811 
L 127.417005 37.931789 
L 127.612139 37.857526 
L 128.746095 37.442752 
L 129.963872 37.029213 
L 130.47175 36.866505 
L 131.207572 36.640963 
L 132.318292 36.32335 
L 133.389626 36.043033 
L 133.772275 35.949108 
L 134.670931 35.741347 
L 135.553791 35.554754 
L 136.43671 35.385511 
L 137.57226 35.193368 
L 138.295535 35.085957 
L 139.109058 34.979067 
L 139.922581 34.886918 
L 140.769394 34.806656 
L 141.264238 34.767148 
L 142.256575 34.704355 
L 143.266507 34.662969 
L 144.391415 34.643615 
L 145.201064 34.647129 
L 145.988971 34.664566 
L 146.261136 34.673802 
L 146.999788 34.707185 
L 147.73844 34.752719 
L 148.059926 34.776333 
L 149.165021 34.875062 
L 150.132205 34.98379 
L 150.984195 35.096829 
L 152.126039 35.273679 
L 152.9076 35.411469 
L 153.40497 35.50624 
L 154.247789 35.679414 
L 155.090608 35.868409 
L 155.793298 36.038075 
L 156.522844 36.225863 
L 157.103296 36.383742 
L 158.135958 36.683169 
L 159.58573 37.14362 
L 160.014194 37.288664 
L 161.215092 37.716982 
L 162.283557 38.12507 
L 162.78877 38.326884 
L 163.533885 38.634905 
L 164.461867 39.035813 
L 165.331574 39.428955 
L 166.706536 40.084865 
L 166.948792 40.204793 
L 168.178989 40.833974 
L 168.641788 41.079396 
L 169.377175 41.479186 
L 170.112562 41.89102 
L 170.504993 42.11572 
L 171.853757 42.914154 
L 172.365084 43.227439 
L 173.50254 43.945233 
L 174.25634 44.436796 
L 175.228125 45.089185 
L 175.781121 45.469819 
L 176.95913 46.303365 
L 178.257652 47.257999 
L 179.273473 48.030981 
L 179.806756 48.445978 
L 180.271579 48.812868 
L 181.635762 49.917419 
L 182.207197 50.392416 
L 183.224365 51.255917 
L 183.836122 51.786352 
L 184.691561 52.542052 
L 185.509548 53.279912 
L 186.327536 54.032676 
L 187.012009 54.674023 
L 187.966647 55.585939 
L 188.488247 56.092772 
L 189.125474 56.720182 
L 189.94765 57.543055 
L 190.769827 58.380984 
L 191.610174 59.252991 
L 191.919894 59.578346 
L 193.156881 60.899086 
L 194.142986 61.97637 
L 194.964904 62.890836 
L 195.682221 63.70122 
L 196.817952 65.00774 
L 197.466372 65.766552 
L 198.650947 67.176978 
L 199.696903 68.448339 
L 199.961102 68.773328 
L 201.279605 70.418448 
L 201.660507 70.900915 
L 202.722393 72.263008 
z
" style="fill:#cde0eb;opacity:0.5;"/>
   </g>
   <g id="matplotlib.axis_1">
    <g id="xtick_1">
     <g id="line2d_1">
      <defs>
       <path d="M 0 0 
L 0 3.5 
" id="mc04b6d2f3e" style="stroke:#000000;stroke-width:0.8;"/>
      </defs>
      <g>
       <use style="stroke:#000000;stroke-width:0.8;" x="26.100839" xlink:href="#mc04b6d2f3e" y="112.83509"/>
      </g>
     </g>
     <g id="text_1">
      <!-- -2 -->
      <defs>
       <path d="M 4.890625 31.390625 
L 31.203125 31.390625 
L 31.203125 23.390625 
L 4.890625 23.390625 
z
" id="DejaVuSans-45"/>
       <path d="M 19.1875 8.296875 
L 53.609375 8.296875 
L 53.609375 0 
L 7.328125 0 
L 7.328125 8.296875 
Q 12.9375 14.109375 22.625 23.890625 
Q 32.328125 33.6875 34.8125 36.53125 
Q 39.546875 41.84375 41.421875 45.53125 
Q 43.3125 49.21875 43.3125 52.78125 
Q 43.3125 58.59375 39.234375 62.25 
Q 35.15625 65.921875 28.609375 65.921875 
Q 23.96875 65.921875 18.8125 64.3125 
Q 13.671875 62.703125 7.8125 59.421875 
L 7.8125 69.390625 
Q 13.765625 71.78125 18.9375 73 
Q 24.125 74.21875 28.421875 74.21875 
Q 39.75 74.21875 46.484375 68.546875 
Q 53.21875 62.890625 53.21875 53.421875 
Q 53.21875 48.921875 51.53125 44.890625 
Q 49.859375 40.875 45.40625 35.40625 
Q 44.1875 33.984375 37.640625 27.21875 
Q 31.109375 20.453125 19.1875 8.296875 
z
" id="DejaVuSans-50"/>
      </defs>
      <g transform="translate(21.115683 127.433528)scale(0.1 -0.1)">
       <use xlink:href="#DejaVuSans-45"/>
       <use x="36.083984" xlink:href="#DejaVuSans-50"/>
      </g>
     </g>
    </g>
    <g id="xtick_2">
     <g id="line2d_2">
      <g>
       <use style="stroke:#000000;stroke-width:0.8;" x="203.851675" xlink:href="#mc04b6d2f3e" y="112.83509"/>
      </g>
     </g>
     <g id="text_2">
      <!-- 1 -->
      <defs>
       <path d="M 12.40625 8.296875 
L 28.515625 8.296875 
L 28.515625 63.921875 
L 10.984375 60.40625 
L 10.984375 69.390625 
L 28.421875 72.90625 
L 38.28125 72.90625 
L 38.28125 8.296875 
L 54.390625 8.296875 
L 54.390625 0 
L 12.40625 0 
z
" id="DejaVuSans-49"/>
      </defs>
      <g transform="translate(200.670425 127.433528)scale(0.1 -0.1)">
       <use xlink:href="#DejaVuSans-49"/>
      </g>
     </g>
    </g>
    <g id="text_3">
     <!-- $x$ -->
     <defs>
      <path d="M 7.8125 2.875 
Q 9.578125 1.515625 12.796875 1.515625 
Q 15.921875 1.515625 18.3125 4.515625 
Q 20.703125 7.515625 21.578125 11.078125 
L 26.125 28.8125 
Q 27.203125 33.640625 27.203125 35.40625 
Q 27.203125 37.890625 25.8125 39.75 
Q 24.421875 41.609375 21.921875 41.609375 
Q 18.75 41.609375 15.96875 39.625 
Q 13.1875 37.640625 11.28125 34.59375 
Q 9.375 31.546875 8.59375 28.421875 
Q 8.40625 27.78125 7.8125 27.78125 
L 6.59375 27.78125 
Q 5.8125 27.78125 5.8125 28.71875 
L 5.8125 29 
Q 6.78125 32.71875 9.125 36.25 
Q 11.46875 39.796875 14.859375 41.984375 
Q 18.265625 44.1875 22.125 44.1875 
Q 25.78125 44.1875 28.734375 42.234375 
Q 31.6875 40.28125 32.90625 36.921875 
Q 34.625 39.984375 37.28125 42.078125 
Q 39.9375 44.1875 43.109375 44.1875 
Q 45.265625 44.1875 47.5 43.421875 
Q 49.75 42.671875 51.171875 41.109375 
Q 52.59375 39.546875 52.59375 37.203125 
Q 52.59375 34.671875 50.953125 32.828125 
Q 49.3125 31 46.78125 31 
Q 45.171875 31 44.09375 32.03125 
Q 43.015625 33.0625 43.015625 34.625 
Q 43.015625 36.71875 44.453125 38.296875 
Q 45.90625 39.890625 47.90625 40.1875 
Q 46.09375 41.609375 42.921875 41.609375 
Q 39.703125 41.609375 37.328125 38.625 
Q 34.96875 35.640625 33.984375 31.984375 
L 29.59375 14.3125 
Q 28.515625 10.296875 28.515625 7.71875 
Q 28.515625 5.171875 29.953125 3.34375 
Q 31.390625 1.515625 33.796875 1.515625 
Q 38.484375 1.515625 42.15625 5.640625 
Q 45.84375 9.765625 47.015625 14.703125 
Q 47.21875 15.28125 47.796875 15.28125 
L 49.03125 15.28125 
Q 49.421875 15.28125 49.65625 15.015625 
Q 49.90625 14.75 49.90625 14.40625 
Q 49.90625 14.3125 49.8125 14.109375 
Q 48.390625 8.15625 43.84375 3.515625 
Q 39.3125 -1.125 33.59375 -1.125 
Q 29.9375 -1.125 26.984375 0.84375 
Q 24.03125 2.828125 22.796875 6.203125 
Q 21.234375 3.265625 18.46875 1.0625 
Q 15.71875 -1.125 12.59375 -1.125 
Q 10.453125 -1.125 8.171875 -0.359375 
Q 5.90625 0.390625 4.484375 1.953125 
Q 3.078125 3.515625 3.078125 5.90625 
Q 3.078125 8.25 4.703125 10.171875 
Q 6.34375 12.109375 8.796875 12.109375 
Q 10.453125 12.109375 11.578125 11.109375 
Q 12.703125 10.109375 12.703125 8.5 
Q 12.703125 6.390625 11.296875 4.828125 
Q 9.90625 3.265625 7.8125 2.875 
z
" id="Cmmi10-120"/>
     </defs>
     <g transform="translate(227.79 112.83509)scale(0.16 -0.16)">
      <use transform="translate(0 0.8125)" xlink:href="#Cmmi10-120"/>
     </g>
    </g>
   </g>
   <g id="matplotlib.axis_2">
    <g id="ytick_1">
     <g id="line2d_3">
      <defs>
       <path d="M 0 0 
L -3.5 0 
" id="mfa40691f34" style="stroke:#000000;stroke-width:0.8;"/>
      </defs>
      <g>
       <use style="stroke:#000000;stroke-width:0.8;" x="144.601396" xlink:href="#mfa40691f34" y="191.027056"/>
      </g>
     </g>
     <g id="text_4">
      <!-- -2 -->
      <g transform="translate(127.631084 194.826275)scale(0.1 -0.1)">
       <use xlink:href="#DejaVuSans-45"/>
       <use x="36.083984" xlink:href="#DejaVuSans-50"/>
      </g>
     </g>
    </g>
    <g id="ytick_2">
     <g id="line2d_4">
      <g>
       <use style="stroke:#000000;stroke-width:0.8;" x="144.601396" xlink:href="#mfa40691f34" y="73.739107"/>
      </g>
     </g>
     <g id="text_5">
      <!-- 1 -->
      <g transform="translate(131.238896 77.538326)scale(0.1 -0.1)">
       <use xlink:href="#DejaVuSans-49"/>
      </g>
     </g>
    </g>
    <g id="text_6">
     <!-- $y$ -->
     <defs>
      <path d="M 8.40625 -14.3125 
Q 10.5 -17.921875 15.71875 -17.921875 
Q 20.453125 -17.921875 23.921875 -14.59375 
Q 27.390625 -11.28125 29.515625 -6.5625 
Q 31.640625 -1.859375 32.8125 3.078125 
Q 28.375 -1.125 23.1875 -1.125 
Q 19.234375 -1.125 16.453125 0.234375 
Q 13.671875 1.609375 12.125 4.3125 
Q 10.59375 7.03125 10.59375 10.890625 
Q 10.59375 14.15625 11.46875 17.59375 
Q 12.359375 21.046875 13.9375 25.265625 
Q 15.53125 29.5 16.703125 32.625 
Q 18.015625 36.28125 18.015625 38.625 
Q 18.015625 41.609375 15.828125 41.609375 
Q 11.859375 41.609375 9.296875 37.53125 
Q 6.734375 33.453125 5.515625 28.421875 
Q 5.328125 27.78125 4.6875 27.78125 
L 3.515625 27.78125 
Q 2.6875 27.78125 2.6875 28.71875 
L 2.6875 29 
Q 4.296875 34.96875 7.609375 39.578125 
Q 10.9375 44.1875 16.015625 44.1875 
Q 19.578125 44.1875 22.046875 41.84375 
Q 24.515625 39.5 24.515625 35.890625 
Q 24.515625 34.03125 23.6875 31.984375 
Q 23.25 30.765625 21.6875 26.65625 
Q 20.125 22.5625 19.28125 19.875 
Q 18.453125 17.1875 17.921875 14.59375 
Q 17.390625 12.015625 17.390625 9.421875 
Q 17.390625 6.109375 18.796875 3.8125 
Q 20.21875 1.515625 23.296875 1.515625 
Q 29.5 1.515625 34.421875 9.078125 
L 42 39.890625 
Q 42.328125 41.21875 43.546875 42.15625 
Q 44.78125 43.109375 46.1875 43.109375 
Q 47.40625 43.109375 48.3125 42.328125 
Q 49.21875 41.546875 49.21875 40.28125 
Q 49.21875 39.703125 49.125 39.5 
L 39.203125 -0.296875 
Q 37.890625 -5.421875 34.375 -10.109375 
Q 30.859375 -14.796875 25.90625 -17.65625 
Q 20.953125 -20.515625 15.578125 -20.515625 
Q 12.984375 -20.515625 10.4375 -19.5 
Q 7.90625 -18.5 6.34375 -16.5 
Q 4.78125 -14.5 4.78125 -11.8125 
Q 4.78125 -9.078125 6.390625 -7.078125 
Q 8.015625 -5.078125 10.6875 -5.078125 
Q 12.3125 -5.078125 13.40625 -6.078125 
Q 14.5 -7.078125 14.5 -8.6875 
Q 14.5 -10.984375 12.78125 -12.6875 
Q 11.078125 -14.40625 8.796875 -14.40625 
Q 8.6875 -14.359375 8.59375 -14.328125 
Q 8.5 -14.3125 8.40625 -14.3125 
z
" id="Cmmi10-121"/>
     </defs>
     <g transform="translate(140.601396 19.325)scale(0.16 -0.16)">
      <use transform="translate(0 0.8125)" xlink:href="#Cmmi10-121"/>
     </g>
    </g>
   </g>
   <g id="line2d_5">
    <path clip-path="url(#pb6fcc4aa53)" d="M 26.100839 191.027056 
L 31.059887 178.212121 
L 36.311524 165.238267 
L 41.170662 153.781193 
L 45.422032 144.188483 
L 50.174552 133.941534 
L 55.029355 123.99348 
L 58.895531 116.446727 
L 63.541475 107.818288 
L 67.744022 100.427451 
L 71.672998 93.873528 
L 76.058221 86.964575 
L 80.476585 80.436593 
L 84.949649 74.270716 
L 89.199409 68.825483 
L 92.70751 64.633626 
L 97.220598 59.64405 
L 101.535337 55.297953 
L 104.843815 52.24631 
L 107.996912 49.56488 
L 111.908297 46.546319 
L 115.21093 44.262885 
L 118.795921 42.059215 
L 121.600549 40.534802 
L 125.103393 38.876937 
L 128.746095 37.442752 
L 132.318292 36.32335 
L 135.553791 35.554754 
L 139.109058 34.979067 
L 142.256575 34.704355 
L 145.201064 34.647129 
L 148.059926 34.776333 
L 150.984195 35.096829 
L 154.247789 35.679414 
L 157.103296 36.383742 
L 160.014194 37.288664 
L 163.533885 38.634905 
L 166.948792 40.204793 
L 170.504993 42.11572 
L 174.25634 44.436796 
L 176.95913 46.303365 
L 180.271579 48.812868 
L 183.836122 51.786352 
L 187.012009 54.674023 
L 190.769827 58.380984 
L 194.964904 62.890836 
L 198.650947 67.176978 
L 202.722393 72.263008 
L 203.851675 73.739107 
L 203.851675 73.739107 
" style="fill:none;stroke:#0000cc;stroke-linecap:square;stroke-width:1.5;"/>
   </g>
   <g id="line2d_6">
    <path clip-path="url(#pb6fcc4aa53)" d="M 26.100839 191.027056 
L 203.851675 73.739107 
L 203.851675 73.739107 
" style="fill:none;stroke:#3ccc00;stroke-linecap:square;stroke-width:1.5;"/>
   </g>
   <g id="line2d_7">
    <path clip-path="url(#pb6fcc4aa53)" d="M 11.288269 200.801052 
L 215.701731 65.919911 
L 215.701731 65.919911 
" style="fill:none;stroke:#0000ff;stroke-linecap:square;stroke-width:1.5;"/>
   </g>
   <g id="line2d_8">
    <path clip-path="url(#pb6fcc4aa53)" d="M 11.288269 232.566538 
L 17.022215 215.906875 
L 22.838701 199.755585 
L 27.882335 186.360359 
L 32.727718 174.02528 
L 37.762321 161.762452 
L 42.810958 150.032363 
L 47.232888 140.224757 
L 51.868156 130.411519 
L 56.280162 121.515481 
L 60.242207 113.896202 
L 65.221585 104.816354 
L 69.976515 96.661251 
L 73.718429 90.597637 
L 78.430018 83.406269 
L 82.619555 77.427017 
L 86.71873 71.955113 
L 90.334455 67.439211 
L 94.328282 62.789529 
L 97.825652 59.009602 
L 101.210272 55.610937 
L 104.59478 52.467527 
L 108.23548 49.37101 
L 110.969622 47.239654 
L 114.716404 44.589334 
L 117.638477 42.739397 
L 121.567141 40.55193 
L 124.770185 39.022879 
L 127.432998 37.925671 
L 131.117734 36.667854 
L 134.405395 35.800864 
L 137.582034 35.191839 
L 140.44698 34.835332 
L 143.777628 34.650681 
L 146.516628 34.683974 
L 149.36677 34.896022 
L 152.287829 35.301086 
L 155.817588 36.044137 
L 159.309513 37.052283 
L 162.072164 38.042313 
L 165.843448 39.668219 
L 169.06078 41.305703 
L 172.312924 43.195214 
L 175.99684 45.620148 
L 179.769144 48.416501 
L 183.890958 51.834305 
L 187.98074 55.599554 
L 191.455815 59.091637 
L 195.758325 63.78787 
L 199.685651 68.434532 
L 203.26477 72.968411 
L 207.592429 78.831578 
L 211.969151 85.185481 
L 215.701731 90.94134 
L 215.701731 90.94134 
" style="fill:none;stroke:#ff0000;stroke-linecap:square;stroke-width:1.5;"/>
   </g>
   <g id="patch_4">
    <path d="M 144.601396 236.525 
L 144.601396 30.685 
" style="fill:none;stroke:#000000;stroke-linecap:square;stroke-linejoin:miter;stroke-width:0.8;"/>
   </g>
   <g id="patch_5">
    <path d="M 7.2 112.83509 
L 219.79 112.83509 
" style="fill:none;stroke:#000000;stroke-linecap:square;stroke-linejoin:miter;stroke-width:0.8;"/>
   </g>
   <g id="text_7">
    <!-- $y=2-x^2$ -->
    <defs>
     <path d="M 7.515625 13.28125 
Q 6.6875 13.28125 6.140625 13.90625 
Q 5.609375 14.546875 5.609375 15.28125 
Q 5.609375 16.109375 6.140625 16.6875 
Q 6.6875 17.28125 7.515625 17.28125 
L 70.3125 17.28125 
Q 71.046875 17.28125 71.578125 16.6875 
Q 72.125 16.109375 72.125 15.28125 
Q 72.125 14.546875 71.578125 13.90625 
Q 71.046875 13.28125 70.3125 13.28125 
z
M 7.515625 32.71875 
Q 6.6875 32.71875 6.140625 33.296875 
Q 5.609375 33.890625 5.609375 34.71875 
Q 5.609375 35.453125 6.140625 36.078125 
Q 6.6875 36.71875 7.515625 36.71875 
L 70.3125 36.71875 
Q 71.046875 36.71875 71.578125 36.078125 
Q 72.125 35.453125 72.125 34.71875 
Q 72.125 33.890625 71.578125 33.296875 
Q 71.046875 32.71875 70.3125 32.71875 
z
" id="Cmr10-61"/>
     <path d="M 4.984375 0 
L 4.984375 2.6875 
Q 4.984375 2.9375 5.171875 3.21875 
L 20.703125 20.40625 
Q 24.21875 24.21875 26.40625 26.796875 
Q 28.609375 29.390625 30.75 32.765625 
Q 32.90625 36.140625 34.15625 39.625 
Q 35.40625 43.109375 35.40625 47.015625 
Q 35.40625 51.125 33.890625 54.859375 
Q 32.375 58.59375 29.375 60.84375 
Q 26.375 63.09375 22.125 63.09375 
Q 17.78125 63.09375 14.3125 60.46875 
Q 10.84375 57.859375 9.421875 53.71875 
Q 9.8125 53.8125 10.5 53.8125 
Q 12.75 53.8125 14.328125 52.296875 
Q 15.921875 50.78125 15.921875 48.390625 
Q 15.921875 46.09375 14.328125 44.5 
Q 12.75 42.921875 10.5 42.921875 
Q 8.15625 42.921875 6.5625 44.546875 
Q 4.984375 46.1875 4.984375 48.390625 
Q 4.984375 52.15625 6.390625 55.4375 
Q 7.8125 58.734375 10.46875 61.296875 
Q 13.140625 63.875 16.484375 65.234375 
Q 19.828125 66.609375 23.578125 66.609375 
Q 29.296875 66.609375 34.21875 64.1875 
Q 39.15625 61.765625 42.03125 57.34375 
Q 44.921875 52.9375 44.921875 47.015625 
Q 44.921875 42.671875 43.015625 38.765625 
Q 41.109375 34.859375 38.125 31.65625 
Q 35.15625 28.46875 30.515625 24.40625 
Q 25.875 20.359375 24.421875 19 
L 13.09375 8.109375 
L 22.703125 8.109375 
Q 29.78125 8.109375 34.546875 8.21875 
Q 39.3125 8.34375 39.59375 8.59375 
Q 40.765625 9.859375 42 17.828125 
L 44.921875 17.828125 
L 42.09375 0 
z
" id="Cmr10-50"/>
     <path d="M 10.203125 23 
Q 9.375 23 8.828125 23.625 
Q 8.296875 24.265625 8.296875 25 
Q 8.296875 25.734375 8.828125 26.359375 
Q 9.375 27 10.203125 27 
L 67.578125 27 
Q 68.359375 27 68.875 26.359375 
Q 69.390625 25.734375 69.390625 25 
Q 69.390625 24.265625 68.875 23.625 
Q 68.359375 23 67.578125 23 
z
" id="Cmsy10-161"/>
    </defs>
    <g style="fill:#ff0000;" transform="translate(29.925978 71.32375)scale(0.12 -0.12)">
     <use transform="translate(0 0.109375)" xlink:href="#Cmmi10-121"/>
     <use transform="translate(66.582031 0.109375)" xlink:href="#Cmr10-61"/>
     <use transform="translate(161.826172 0.109375)" xlink:href="#Cmr10-50"/>
     <use transform="translate(229.384766 0.109375)" xlink:href="#Cmsy10-161"/>
     <use transform="translate(324.628906 0.109375)" xlink:href="#Cmmi10-120"/>
     <use transform="translate(388.012266 38.373438)scale(0.7)" xlink:href="#Cmr10-50"/>
    </g>
   </g>
   <g id="text_8">
    <!-- $y=x$ -->
    <g style="fill:#0000ff;" transform="translate(72.211118 180.630337)scale(0.12 -0.12)">
     <use transform="translate(0 0.8125)" xlink:href="#Cmmi10-121"/>
     <use transform="translate(66.582031 0.8125)" xlink:href="#Cmr10-61"/>
     <use transform="translate(161.826172 0.8125)" xlink:href="#Cmmi10-120"/>
    </g>
   </g>
  </g>
 </g>
 <defs>
  <clipPath id="pb6fcc4aa53">
   <rect height="205.84" width="212.59" x="7.2" y="30.685"/>
  </clipPath>
 </defs>
</svg>
