<?xml version="1.0" encoding="utf-8" standalone="no"?>
<!DOCTYPE svg PUBLIC "-//W3C//DTD SVG 1.1//EN"
  "http://www.w3.org/Graphics/SVG/1.1/DTD/svg11.dtd">
<!-- Created with matplotlib (https://matplotlib.org/) -->
<svg height="207.725pt" version="1.1" viewBox="0 0 208.426673 207.725" width="208.426673pt" xmlns="http://www.w3.org/2000/svg" xmlns:xlink="http://www.w3.org/1999/xlink">
 <defs>
  <style type="text/css">
*{stroke-linecap:butt;stroke-linejoin:round;}
  </style>
 </defs>
 <g id="figure_1">
  <g id="patch_1">
   <path d="M 0 207.725 
L 208.426673 207.725 
L 208.426673 0 
L 0 0 
z
" style="fill:#ffffff;"/>
  </g>
  <g id="axes_1">
   <g id="patch_2">
    <path d="M 21.037443 200.525 
L 183.946673 200.525 
L 183.946673 30.685 
L 21.037443 30.685 
z
" style="fill:#ffffff;"/>
   </g>
   <g id="patch_3">
    <path clip-path="url(#pf5d114e8f5)" d="M 163.408971 54.364615 
L 162.757687 54.555806 
L 162.475323 54.638836 
L 161.631262 54.887542 
L 161.155047 55.028197 
L 160.64942 55.177808 
L 160.168636 55.320325 
L 159.825092 55.422315 
L 159.248672 55.59373 
L 158.753617 55.741241 
L 158.389938 55.84978 
L 157.729001 56.047411 
L 157.015903 56.261187 
L 156.332047 56.466737 
L 155.840826 56.614715 
L 155.350663 56.762649 
L 155.03124 56.859201 
L 154.635494 56.978987 
L 154.083609 57.146338 
L 153.36775 57.363942 
L 152.730438 57.558178 
L 152.359216 57.671538 
L 151.770228 57.851735 
L 151.31647 57.990843 
L 150.72428 58.172764 
L 150.091621 58.367588 
L 149.975717 58.403333 
L 149.133643 58.663526 
L 148.45563 58.873664 
L 148.113075 58.980051 
L 147.56495 59.150587 
L 146.929504 59.348766 
L 146.752533 59.40405 
L 145.831446 59.692434 
L 145.427107 59.819374 
L 145.253803 59.873846 
L 144.504124 60.109934 
L 144.08272 60.242965 
L 143.243948 60.50845 
L 142.717682 60.675499 
L 142.47843 60.751566 
L 142.078867 60.878773 
L 141.340272 61.114486 
L 140.877557 61.262533 
L 140.381016 61.421731 
L 139.655313 61.655013 
L 139.364285 61.748772 
L 138.59328 61.997737 
L 138.313901 62.088158 
L 137.953065 62.205106 
L 136.927154 62.538625 
L 136.470026 62.687724 
L 136.303916 62.741978 
L 135.563937 62.984157 
L 134.903461 63.200997 
L 134.543871 63.319325 
L 134.124977 63.457411 
L 133.697056 63.598746 
L 132.83701 63.88364 
L 132.364008 64.040804 
L 131.821772 64.221396 
L 131.488385 64.332657 
L 130.622133 64.622561 
L 130.143502 64.783248 
L 129.867763 64.875984 
L 129.137839 65.122057 
L 129.025196 65.160107 
L 128.464463 65.349826 
L 127.922425 65.533705 
L 127.24143 65.765405 
L 126.862458 65.894678 
L 126.280396 66.093692 
L 125.813497 66.253741 
L 125.06533 66.510974 
L 124.601323 66.670987 
L 124.101514 66.843761 
L 123.565947 67.029376 
L 122.917522 67.254776 
L 122.486918 67.404868 
L 122.061237 67.553567 
L 121.248374 67.838417 
L 121.03585 67.913088 
L 120.121836 68.235168 
L 119.66832 68.395547 
L 119.351391 68.50785 
L 118.999596 68.632727 
L 118.421666 68.83838 
L 117.878649 69.032184 
L 117.277071 69.247545 
L 116.674077 69.464113 
L 116.22217 69.626881 
L 115.397766 69.924847 
L 114.966969 70.081086 
L 114.760182 70.156214 
L 114.093549 70.398995 
L 113.356694 70.6684 
L 113.218279 70.71913 
L 112.725708 70.899983 
L 111.729231 71.267395 
L 111.625817 71.305644 
L 110.764501 71.625099 
L 110.186801 71.840254 
L 109.962258 71.924076 
L 109.307343 72.169185 
L 108.69345 72.399799 
L 108.378797 72.518325 
L 107.578537 72.820777 
L 107.349023 72.907787 
L 106.938287 73.0638 
L 106.368039 73.281045 
L 105.884806 73.46573 
L 105.215766 73.722333 
L 104.612879 73.954472 
L 104.247842 74.095451 
L 103.474464 74.395199 
L 103.285752 74.468561 
L 102.572332 74.746702 
L 101.764927 75.063015 
L 101.622968 75.118799 
L 100.826283 75.432818 
L 100.279546 75.649264 
L 99.835632 75.825576 
L 99.589091 75.923719 
L 98.809242 76.235224 
L 98.450346 76.379129 
L 98.058153 76.536783 
L 97.404642 76.800414 
L 96.89146 77.008261 
L 96.0271 77.360005 
L 95.598044 77.535392 
L 95.41653 77.609748 
L 94.43716 78.012589 
L 94.137497 78.136408 
L 93.395757 78.444037 
L 93.134302 78.552865 
L 92.460491 78.834287 
L 91.899486 79.069656 
L 91.485597 79.243928 
L 90.897028 79.492676 
L 90.362935 79.719352 
L 90.199501 79.788898 
L 89.20079 80.215763 
L 89.034911 80.286979 
L 88.313607 80.597716 
L 87.727135 80.851658 
L 87.087585 81.129922 
L 86.851127 81.233161 
L 86.194706 81.520784 
L 85.934947 81.635022 
L 85.228935 81.946735 
L 84.472132 82.282882 
L 84.386983 82.320834 
L 83.58519 82.679527 
L 82.900823 82.987608 
L 82.431054 83.200123 
L 82.173656 83.316929 
L 81.303549 83.71371 
L 81.026427 83.840715 
L 80.710768 83.985759 
L 79.812187 84.400885 
L 79.326896 84.626475 
L 78.707199 84.915991 
L 78.432046 85.045066 
L 77.966342 85.264278 
L 77.488543 85.490172 
L 76.813952 85.810836 
L 76.057969 86.17264 
L 75.864189 86.265804 
L 75.088857 86.640322 
L 74.552965 86.900849 
L 74.389927 86.980386 
L 73.610636 87.362352 
L 73.226013 87.551982 
L 72.70652 87.809292 
L 72.245735 88.038678 
L 71.586417 88.368817 
L 70.957782 88.685737 
L 70.428339 88.954305 
L 69.801219 89.274418 
L 69.35369 89.504206 
L 68.804645 89.787678 
L 68.275012 90.062785 
L 68.136738 90.13488 
L 67.488492 90.474392 
L 66.875626 90.797719 
L 66.411851 91.043936 
L 66.033407 91.245853 
L 65.244505 91.669725 
L 64.723716 91.951776 
L 64.10231 92.2907 
L 63.792774 92.460509 
L 63.025529 92.884296 
L 62.661144 93.087029 
L 61.983127 93.466828 
L 61.810143 93.564271 
L 60.890254 94.086254 
L 60.411368 94.360583 
L 59.873168 94.671061 
L 59.499952 94.88774 
L 58.979977 95.191538 
L 58.979977 176.845385 
L 59.392562 176.36148 
L 60.010986 175.636154 
L 60.451441 175.119561 
L 61.265925 174.164284 
L 61.659377 173.702819 
L 62.245267 173.015651 
L 62.723303 172.454981 
L 63.28399 171.797372 
L 63.945744 171.021226 
L 64.375422 170.517274 
L 64.942235 169.852481 
L 65.077166 169.694225 
L 65.779245 168.870783 
L 66.305161 168.253957 
L 66.765821 167.713667 
L 67.373205 167.001289 
L 67.935659 166.341609 
L 68.479056 165.704278 
L 69.154565 164.912 
L 69.682626 164.292658 
L 70.060151 163.849873 
L 70.635004 163.17565 
L 71.127301 162.598254 
L 71.476778 162.188365 
L 72.349601 161.164665 
L 72.574458 160.900939 
L 73.354807 159.985697 
L 73.566802 159.737056 
L 74.251967 158.933452 
L 74.590526 158.536369 
L 75.120335 157.914976 
L 75.655679 157.287093 
L 76.143683 156.714731 
L 76.690712 156.073142 
L 77.324856 155.329378 
L 77.706402 154.881877 
L 78.273 154.217337 
L 78.743693 153.665279 
L 79.252584 153.06842 
L 80.079718 152.098306 
L 80.420019 151.699181 
L 80.95556 151.071064 
L 81.759947 150.127631 
L 82.165891 149.651514 
L 82.410424 149.364711 
L 83.332322 148.283452 
L 83.391665 148.21385 
L 84.116744 147.363433 
L 84.458552 146.962539 
L 85.071263 146.243914 
L 85.570571 145.658296 
L 86.06315 145.080568 
L 86.730616 144.297722 
L 87.140184 143.817356 
L 87.987568 142.823492 
L 88.507619 142.213544 
L 89.148059 141.462396 
L 89.627334 140.900273 
L 90.040454 140.41574 
L 90.311683 140.097627 
L 90.975088 139.319544 
L 91.364268 138.863089 
L 92.17026 137.917773 
L 92.67118 137.330263 
L 93.017667 136.923881 
L 93.75827 136.055257 
L 94.254502 135.473245 
L 94.661696 134.995663 
L 94.956922 134.649404 
L 95.830579 133.624724 
L 96.154809 133.244447 
L 96.979059 132.277716 
L 97.40522 131.777888 
L 97.746395 131.377737 
L 98.22058 130.821583 
L 98.990887 129.91812 
L 99.503002 129.317481 
L 100.153127 128.554973 
L 100.614452 128.013904 
L 101.068321 127.481578 
L 101.363047 127.135905 
L 102.156312 126.205514 
L 102.445476 125.866365 
L 103.228296 124.948226 
L 103.600324 124.511889 
L 104.269055 123.72756 
L 104.673932 123.252695 
L 105.155689 122.68766 
L 105.44582 122.347376 
L 106.112227 121.565773 
L 106.769012 120.795455 
L 107.174944 120.319354 
L 107.920836 119.444524 
L 108.393623 118.890011 
L 109.087513 118.076174 
L 109.22893 117.910312 
L 110.080691 116.911314 
L 110.354622 116.590031 
L 110.992617 115.841751 
L 111.671677 115.045307 
L 111.913938 114.761168 
L 112.586837 113.971951 
L 113.25749 113.185368 
L 113.596631 112.787602 
L 114.137436 112.153312 
L 114.459123 111.776018 
L 115.328809 110.755997 
L 115.821748 110.177848 
L 116.400737 109.498774 
L 116.659323 109.195488 
L 117.292079 108.453353 
L 117.584338 108.110574 
L 118.265273 107.311931 
L 118.841957 106.63556 
L 119.081057 106.355129 
L 119.635061 105.705359 
L 120.54115 104.642642 
L 121.022549 104.078028 
L 121.308631 103.742492 
L 122.1418 102.765301 
L 122.225865 102.666704 
L 123.113583 101.625534 
L 123.621259 101.0301 
L 124.21332 100.335695 
L 124.481901 100.020685 
L 125.275151 99.090314 
L 125.621183 98.684466 
L 126.103649 98.1186 
L 126.686939 97.434481 
L 127.383221 96.617839 
L 127.773195 96.160453 
L 128.129778 95.742231 
L 128.827634 94.923742 
L 129.432828 94.213933 
L 130.051241 93.48862 
L 130.503874 92.957745 
L 130.92345 92.46564 
L 131.239682 92.094743 
L 131.853932 91.374313 
L 132.502509 90.613621 
L 132.716547 90.362584 
L 133.349652 89.62004 
L 134.160474 88.669058 
L 134.324691 88.476454 
L 135.147381 87.511553 
L 135.397707 87.217955 
L 135.977837 86.537543 
L 136.62299 85.780867 
L 137.411116 84.856505 
L 137.502634 84.749167 
L 138.416618 83.67719 
L 138.78439 83.245844 
L 139.152465 82.814142 
L 139.967492 81.858229 
L 140.232677 81.547204 
L 140.744161 80.947304 
L 141.169892 80.44798 
L 141.848751 79.651772 
L 142.402042 79.002838 
L 142.819423 78.513308 
L 143.485222 77.732419 
L 144.002772 77.125404 
L 144.646977 76.36984 
L 145.050503 75.89656 
L 145.540321 75.322071 
L 146.083916 74.684509 
L 146.733613 73.922505 
L 146.90026 73.727051 
L 147.731997 72.751538 
L 147.999079 72.438288 
L 148.492747 71.859283 
L 149.391859 70.80475 
L 149.714124 70.426777 
L 150.384221 69.640846 
L 150.910625 69.023447 
L 151.388103 68.463432 
L 151.701967 68.095312 
L 152.18975 67.52321 
L 152.852762 66.745589 
L 153.234537 66.29782 
L 154.083816 65.301733 
L 154.740183 64.531905 
L 154.895249 64.350034 
L 155.293089 63.883423 
L 156.11551 62.918837 
L 156.507477 62.459113 
L 156.900118 61.9986 
L 157.507914 61.28574 
L 158.095527 60.59655 
L 158.46061 60.168359 
L 159.348285 59.127239 
L 159.727988 58.6819 
L 160.291016 58.021546 
L 160.818321 57.40309 
L 161.304699 56.832635 
L 162.047089 55.961915 
L 162.16633 55.822062 
L 162.896408 54.965781 
z
" style="fill:#cde0eb;opacity:0.5;"/>
   </g>
   <g id="patch_4">
    <path clip-path="url(#pf5d114e8f5)" d="M 24.170313 136.018462 
L 24.170313 136.018462 
L 24.17438 135.57711 
L 24.178448 135.394296 
L 24.182516 135.254018 
L 24.186584 135.135758 
L 24.190652 135.031569 
L 24.19472 134.937375 
L 24.198788 134.850755 
L 24.202856 134.77013 
L 24.210992 134.622785 
L 24.219128 134.489574 
L 24.227264 134.367075 
L 24.2354 134.253055 
L 24.243536 134.145965 
L 24.251672 134.044677 
L 24.259808 133.948338 
L 24.267943 133.856288 
L 24.284215 133.683048 
L 24.300487 133.521799 
L 24.313259 133.402188 
L 24.32603 133.287812 
L 24.351574 133.07235 
L 24.377117 132.871607 
L 24.40266 132.682923 
L 24.428204 132.504355 
L 24.453747 132.334433 
L 24.47929 132.17201 
L 24.504833 132.016173 
L 24.532734 131.852609 
L 24.560635 131.695228 
L 24.588536 131.543379 
L 24.616437 131.396516 
L 24.644338 131.254178 
L 24.672239 131.115971 
L 24.728041 130.850633 
L 24.779506 130.61746 
L 24.830971 130.393944 
L 24.882436 130.178978 
L 24.933901 129.971649 
L 25.009912 129.677826 
L 25.085922 129.397029 
L 25.15213 129.161809 
L 25.218338 128.934395 
L 25.290604 128.694226 
L 25.362871 128.461685 
L 25.456264 128.171365 
L 25.549657 127.891409 
L 25.615945 127.698416 
L 25.682234 127.509799 
L 25.810378 127.156552 
L 25.938522 126.816855 
L 26.03389 126.571971 
L 26.129258 126.333276 
L 26.210799 126.133759 
L 26.364058 125.769264 
L 26.517317 125.417295 
L 26.632739 125.159749 
L 26.804295 124.787857 
L 26.88217 124.623045 
L 27.031413 124.313681 
L 27.180656 124.012285 
L 27.291644 123.79296 
L 27.468292 123.451778 
L 27.658125 123.095165 
L 27.811678 122.813752 
L 27.994126 122.486989 
L 28.177167 122.166907 
L 28.364125 121.847438 
L 28.608601 121.440242 
L 28.69365 121.301226 
L 28.912026 120.950157 
L 29.099558 120.655074 
L 29.264013 120.400892 
L 29.469647 120.088769 
L 29.50927 120.029327 
L 29.811531 119.582951 
L 29.887023 119.473344 
L 30.125565 119.131682 
L 30.224494 118.991998 
L 30.431293 118.703644 
L 30.617923 118.447475 
L 30.90367 118.062339 
L 31.04327 117.877156 
L 31.084981 117.82219 
L 31.330595 117.501837 
L 31.440985 117.359648 
L 31.729455 116.993096 
L 31.864043 116.824474 
L 32.023547 116.626532 
L 32.16179 116.456596 
L 32.402767 116.16385 
L 32.492049 116.056477 
L 32.780105 115.713926 
L 32.983557 115.475425 
L 33.08871 115.353236 
L 33.259916 115.155824 
L 33.478576 114.906379 
L 33.534693 114.842836 
L 33.844574 114.495321 
L 33.940214 114.389193 
L 34.119652 114.191471 
L 34.320987 113.971732 
L 34.48367 113.795765 
L 34.675328 113.590227 
L 34.91733 113.333361 
L 34.964606 113.28352 
L 35.166326 113.072072 
L 35.280709 112.953034 
L 35.468081 112.759353 
L 35.660028 112.562602 
L 35.960576 112.257802 
L 35.978917 112.239329 
L 36.246855 111.971067 
L 36.339683 111.878822 
L 36.565271 111.656106 
L 36.694424 111.52951 
L 36.900226 111.329123 
L 37.028602 111.204944 
L 37.212179 111.028442 
L 37.508419 110.746217 
L 37.566206 110.691531 
L 37.812621 110.45965 
L 37.970949 110.311764 
L 38.12932 110.164684 
L 38.252839 110.05055 
L 38.46776 109.853146 
L 38.72982 109.614441 
L 38.793595 109.556675 
L 39.056592 109.31978 
L 39.294483 109.107295 
L 39.361484 109.047752 
L 39.545663 108.884747 
L 39.669961 108.775291 
L 39.88571 108.586338 
L 40.152861 108.354158 
L 40.268484 108.254271 
L 40.477962 108.074215 
L 40.692863 107.890693 
L 40.766702 107.827912 
L 40.96746 107.657922 
L 41.192217 107.46881 
L 41.269206 107.404319 
L 41.442238 107.259904 
L 41.686479 107.057281 
L 41.907424 106.875198 
L 42.06971 106.742178 
L 42.159942 106.668479 
L 42.412589 106.463102 
L 42.602156 106.309934 
L 42.681936 106.245709 
L 42.902524 106.068846 
L 43.027107 105.969417 
L 43.170992 105.854992 
L 43.473885 105.615522 
L 43.522079 105.577593 
L 43.831437 105.335243 
L 43.865374 105.308773 
L 44.038052 105.174442 
L 44.245553 105.013792 
L 44.478314 104.834569 
L 44.65779 104.697075 
L 44.821802 104.571954 
L 44.93095 104.488962 
L 45.238786 104.256065 
L 45.392189 104.140641 
L 45.426971 104.114528 
L 45.715208 103.89895 
L 45.891047 103.768145 
L 46.072041 103.634056 
L 46.292938 103.471154 
L 46.367941 103.416028 
L 46.573989 103.265062 
L 46.696894 103.175344 
L 46.952294 102.989686 
L 47.140172 102.853775 
L 47.279542 102.753313 
L 47.505016 102.591425 
L 47.606733 102.518649 
L 47.735789 102.42654 
L 48.03734 102.212298 
L 48.14193 102.138305 
L 48.312859 102.017729 
L 48.544886 101.854734 
L 48.649047 101.781815 
L 48.863613 101.632094 
L 49.020418 101.523088 
L 49.113825 101.458318 
L 49.415963 101.249637 
L 49.559386 101.151014 
L 49.750121 101.020289 
L 49.860058 100.945161 
L 49.982794 100.861478 
L 50.272597 100.664671 
L 50.458086 100.539277 
L 50.558599 100.471513 
L 50.708066 100.370983 
L 50.871847 100.261151 
L 51.125825 100.091497 
L 51.273423 99.99327 
L 51.435947 99.885419 
L 51.551391 99.809005 
L 51.84839 99.613155 
L 52.046003 99.483425 
L 52.085408 99.457611 
L 52.373457 99.269464 
L 52.594362 99.125824 
L 52.685911 99.066459 
L 52.826803 98.975284 
L 53.052584 98.829641 
L 53.21465 98.725449 
L 53.42765 98.588952 
L 53.533706 98.521174 
L 53.721284 98.401595 
L 53.935386 98.265571 
L 54.100832 98.160793 
L 54.321625 98.021415 
L 54.429143 97.953728 
L 54.548243 97.878889 
L 54.844399 97.693428 
L 54.897001 97.660581 
L 55.188989 97.478758 
L 55.229343 97.453698 
L 55.419622 97.335747 
L 55.662556 97.185677 
L 55.915808 97.029849 
L 55.934887 97.018135 
L 56.235168 96.834227 
L 56.292573 96.799167 
L 56.587302 96.619655 
L 56.643199 96.585701 
L 56.815841 96.481018 
L 57.087541 96.316829 
L 57.208553 96.24392 
L 57.40437 96.126223 
L 57.512195 96.061561 
L 57.760535 95.913032 
L 57.93303 95.810188 
L 58.073285 95.726759 
L 58.290227 95.598053 
L 58.436115 95.511731 
L 58.548758 95.445207 
L 58.883571 95.248113 
L 58.979977 95.191538 
L 58.979977 136.018462 
z
" style="fill:#cde0eb;opacity:0.5;"/>
   </g>
   <g id="patch_5">
    <path clip-path="url(#pf5d114e8f5)" d="M 24.170313 136.018462 
L 24.170313 136.018462 
L 24.177292 136.596586 
L 24.184272 136.836052 
L 24.191252 137.019802 
L 24.198232 137.174709 
L 24.205212 137.311186 
L 24.212192 137.43457 
L 24.219172 137.548034 
L 24.226152 137.653643 
L 24.233131 137.752833 
L 24.240111 137.84665 
L 24.254071 138.021142 
L 24.268031 138.181603 
L 24.281991 138.330957 
L 24.29595 138.471234 
L 24.30991 138.603911 
L 24.32387 138.730103 
L 24.33783 138.850679 
L 24.35179 138.966327 
L 24.365749 139.077606 
L 24.393669 139.288825 
L 24.412934 139.426943 
L 24.432198 139.559679 
L 24.451463 139.687616 
L 24.470727 139.81124 
L 24.509257 140.047124 
L 24.547786 140.26994 
L 24.57406 140.415413 
L 24.600334 140.556225 
L 24.652882 140.82549 
L 24.696782 141.039381 
L 24.740681 141.244525 
L 24.784581 141.441915 
L 24.828481 141.632368 
L 24.889186 141.885554 
L 24.949891 142.128258 
L 25.010596 142.361681 
L 25.071302 142.586815 
L 25.127583 142.788856 
L 25.183864 142.98504 
L 25.240144 143.175849 
L 25.296425 143.361701 
L 25.395013 143.676395 
L 25.471354 143.911465 
L 25.547695 144.139734 
L 25.671628 144.497228 
L 25.79556 144.840247 
L 25.880666 145.068275 
L 25.965771 145.290696 
L 26.029713 145.45436 
L 26.112554 145.662264 
L 26.195394 145.86578 
L 26.339301 146.209661 
L 26.483207 146.542312 
L 26.576667 146.752831 
L 26.684776 146.991311 
L 26.792886 147.224717 
L 26.920636 147.49441 
L 27.063663 147.789024 
L 27.206689 148.076442 
L 27.393675 148.442172 
L 27.540671 148.722295 
L 27.634079 148.897133 
L 27.766671 149.141313 
L 27.899263 149.381032 
L 28.012908 149.583126 
L 28.116372 149.764531 
L 28.273203 150.03503 
L 28.430034 150.300407 
L 28.516315 150.444321 
L 28.632017 150.635087 
L 28.922354 151.103167 
L 29.15039 151.460861 
L 29.232757 151.58804 
L 29.484194 151.970003 
L 29.652183 152.220182 
L 29.737685 152.346044 
L 30.008121 152.737899 
L 30.169852 152.967915 
L 30.227975 153.049819 
L 30.463274 153.377444 
L 30.642693 153.623166 
L 30.782003 153.811617 
L 30.925946 154.004262 
L 31.204147 154.370859 
L 31.352234 154.563044 
L 31.500697 154.753738 
L 31.776082 155.102413 
L 31.843826 155.187215 
L 31.967617 155.341213 
L 32.214762 155.645053 
L 32.370867 155.834569 
L 32.589222 156.096656 
L 32.678992 156.203418 
L 32.993676 156.573288 
L 33.068911 156.660735 
L 33.288954 156.914396 
L 33.43742 157.083819 
L 33.657274 157.332233 
L 33.82103 157.515396 
L 33.980044 157.691774 
L 34.139546 157.867262 
L 34.366336 158.114385 
L 34.472719 158.229357 
L 34.637233 158.405992 
L 34.874912 158.65875 
L 35.077763 158.872258 
L 35.248123 159.05004 
L 35.340411 159.145777 
L 35.509889 159.320566 
L 35.770493 159.586807 
L 35.874174 159.691899 
L 36.08398 159.903143 
L 36.179512 159.998714 
L 36.334528 160.152988 
L 36.631017 160.445343 
L 36.805152 160.615431 
L 36.892019 160.69984 
L 37.170584 160.968599 
L 37.363635 161.153168 
L 37.51761 161.299413 
L 37.680048 161.452783 
L 37.740262 161.509401 
L 38.040296 161.789665 
L 38.2278 161.963277 
L 38.302998 162.032578 
L 38.475926 162.191249 
L 38.754074 162.444466 
L 38.935001 162.607882 
L 38.998516 162.665012 
L 39.144312 162.795691 
L 39.309631 162.943101 
L 39.555678 163.161011 
L 39.815579 163.389307 
L 39.958469 163.514014 
L 40.092352 163.630348 
L 40.254799 163.770848 
L 40.46389 163.95065 
L 40.627174 164.09026 
L 40.723683 164.172452 
L 41.031199 164.43276 
L 41.160023 164.541102 
L 41.327844 164.681626 
L 41.423624 164.761519 
L 41.729305 165.015025 
L 41.816443 165.086885 
L 41.970186 165.21324 
L 42.256844 165.447385 
L 42.420693 165.580385 
L 42.614699 165.737095 
L 42.67682 165.787099 
L 42.885093 165.95414 
L 43.138309 166.155978 
L 43.169945 166.1811 
L 43.420287 166.379164 
L 43.567234 166.494824 
L 43.818339 166.691457 
L 43.882493 166.741493 
L 44.026734 166.853694 
L 44.328905 167.08743 
L 44.533294 167.244537 
L 44.552435 167.25921 
L 44.838254 167.477493 
L 45.06912 167.652707 
L 45.11045 167.683972 
L 45.308286 167.833204 
L 45.455763 167.943995 
L 45.6034 168.054521 
L 45.815039 168.212302 
L 46.109616 168.430635 
L 46.261109 168.542347 
L 46.337355 168.598426 
L 46.640845 168.820695 
L 46.651356 168.828366 
L 46.831593 168.959627 
L 47.124778 169.172033 
L 47.254273 169.265418 
L 47.435057 169.395352 
L 47.573979 169.494857 
L 47.86594 169.703018 
L 47.997948 169.796716 
L 48.123855 169.885842 
L 48.292523 170.004871 
L 48.494729 170.14702 
L 48.598961 170.220064 
L 48.773748 170.342202 
L 48.927408 170.449219 
L 49.231412 170.65997 
L 49.430517 170.797307 
L 49.451614 170.811827 
L 49.694014 170.978231 
L 49.929822 171.139353 
L 50.027571 171.205926 
L 50.193577 171.318698 
L 50.410919 171.465803 
L 50.54866 171.558715 
L 50.785412 171.71785 
L 50.945318 171.824932 
L 51.033358 171.883752 
L 51.279246 172.047523 
L 51.508286 172.199405 
L 51.600589 172.260434 
L 51.729607 172.345566 
L 52.025836 172.54028 
L 52.168714 172.633825 
L 52.399953 172.784717 
L 52.560599 172.889182 
L 52.745931 173.009332 
L 52.790309 173.038044 
L 53.063154 173.214087 
L 53.168566 173.281877 
L 53.445564 173.459428 
L 53.470606 173.475438 
L 53.800456 173.685685 
L 53.862032 173.724804 
L 53.997376 173.810645 
L 54.175211 173.923139 
L 54.355195 174.036655 
L 54.525649 174.143848 
L 54.747319 174.282801 
L 54.916833 174.388719 
L 55.135637 174.525006 
L 55.295594 174.624334 
L 55.395315 174.686128 
L 55.71528 174.883739 
L 55.849603 174.966398 
L 56.007556 175.063375 
L 56.255197 175.214933 
L 56.437242 175.325973 
L 56.605401 175.428265 
L 56.791743 175.54131 
L 56.871763 175.589754 
L 57.096402 175.725437 
L 57.247456 175.816414 
L 57.350819 175.878548 
L 57.521159 175.980732 
L 57.759534 176.123293 
L 57.994169 176.263124 
L 58.098708 176.325268 
L 58.280292 176.432985 
L 58.383108 176.493849 
L 58.608375 176.626881 
L 58.721625 176.693597 
L 58.979977 176.845385 
L 58.979977 136.018462 
z
" style="fill:#cde0eb;opacity:0.5;"/>
   </g>
   <g id="matplotlib.axis_1">
    <g id="xtick_1">
     <g id="line2d_1">
      <defs>
       <path d="M 0 0 
L 0 3.5 
" id="m37172cad7a" style="stroke:#000000;stroke-width:0.8;"/>
      </defs>
      <g>
       <use style="stroke:#000000;stroke-width:0.8;" x="24.170313" xlink:href="#m37172cad7a" y="136.018462"/>
      </g>
     </g>
    </g>
    <g id="xtick_2">
     <g id="line2d_2">
      <g>
       <use style="stroke:#000000;stroke-width:0.8;" x="163.408971" xlink:href="#m37172cad7a" y="136.018462"/>
      </g>
     </g>
     <g id="text_1">
      <!-- 4 -->
      <defs>
       <path d="M 37.796875 64.3125 
L 12.890625 25.390625 
L 37.796875 25.390625 
z
M 35.203125 72.90625 
L 47.609375 72.90625 
L 47.609375 25.390625 
L 58.015625 25.390625 
L 58.015625 17.1875 
L 47.609375 17.1875 
L 47.609375 0 
L 37.796875 0 
L 37.796875 17.1875 
L 4.890625 17.1875 
L 4.890625 26.703125 
z
" id="DejaVuSans-52"/>
      </defs>
      <g transform="translate(160.227721 150.616899)scale(0.1 -0.1)">
       <use xlink:href="#DejaVuSans-52"/>
      </g>
     </g>
    </g>
    <g id="text_2">
     <!-- $x$ -->
     <defs>
      <path d="M 7.8125 2.875 
Q 9.578125 1.515625 12.796875 1.515625 
Q 15.921875 1.515625 18.3125 4.515625 
Q 20.703125 7.515625 21.578125 11.078125 
L 26.125 28.8125 
Q 27.203125 33.640625 27.203125 35.40625 
Q 27.203125 37.890625 25.8125 39.75 
Q 24.421875 41.609375 21.921875 41.609375 
Q 18.75 41.609375 15.96875 39.625 
Q 13.1875 37.640625 11.28125 34.59375 
Q 9.375 31.546875 8.59375 28.421875 
Q 8.40625 27.78125 7.8125 27.78125 
L 6.59375 27.78125 
Q 5.8125 27.78125 5.8125 28.71875 
L 5.8125 29 
Q 6.78125 32.71875 9.125 36.25 
Q 11.46875 39.796875 14.859375 41.984375 
Q 18.265625 44.1875 22.125 44.1875 
Q 25.78125 44.1875 28.734375 42.234375 
Q 31.6875 40.28125 32.90625 36.921875 
Q 34.625 39.984375 37.28125 42.078125 
Q 39.9375 44.1875 43.109375 44.1875 
Q 45.265625 44.1875 47.5 43.421875 
Q 49.75 42.671875 51.171875 41.109375 
Q 52.59375 39.546875 52.59375 37.203125 
Q 52.59375 34.671875 50.953125 32.828125 
Q 49.3125 31 46.78125 31 
Q 45.171875 31 44.09375 32.03125 
Q 43.015625 33.0625 43.015625 34.625 
Q 43.015625 36.71875 44.453125 38.296875 
Q 45.90625 39.890625 47.90625 40.1875 
Q 46.09375 41.609375 42.921875 41.609375 
Q 39.703125 41.609375 37.328125 38.625 
Q 34.96875 35.640625 33.984375 31.984375 
L 29.59375 14.3125 
Q 28.515625 10.296875 28.515625 7.71875 
Q 28.515625 5.171875 29.953125 3.34375 
Q 31.390625 1.515625 33.796875 1.515625 
Q 38.484375 1.515625 42.15625 5.640625 
Q 45.84375 9.765625 47.015625 14.703125 
Q 47.21875 15.28125 47.796875 15.28125 
L 49.03125 15.28125 
Q 49.421875 15.28125 49.65625 15.015625 
Q 49.90625 14.75 49.90625 14.40625 
Q 49.90625 14.3125 49.8125 14.109375 
Q 48.390625 8.15625 43.84375 3.515625 
Q 39.3125 -1.125 33.59375 -1.125 
Q 29.9375 -1.125 26.984375 0.84375 
Q 24.03125 2.828125 22.796875 6.203125 
Q 21.234375 3.265625 18.46875 1.0625 
Q 15.71875 -1.125 12.59375 -1.125 
Q 10.453125 -1.125 8.171875 -0.359375 
Q 5.90625 0.390625 4.484375 1.953125 
Q 3.078125 3.515625 3.078125 5.90625 
Q 3.078125 8.25 4.703125 10.171875 
Q 6.34375 12.109375 8.796875 12.109375 
Q 10.453125 12.109375 11.578125 11.109375 
Q 12.703125 10.109375 12.703125 8.5 
Q 12.703125 6.390625 11.296875 4.828125 
Q 9.90625 3.265625 7.8125 2.875 
z
" id="Cmmi10-120"/>
     </defs>
     <g transform="translate(191.946673 136.018462)scale(0.16 -0.16)">
      <use transform="translate(0 0.8125)" xlink:href="#Cmmi10-120"/>
     </g>
    </g>
   </g>
   <g id="matplotlib.axis_2">
    <g id="ytick_1">
     <g id="line2d_3">
      <defs>
       <path d="M 0 0 
L -3.5 0 
" id="me584d159a1" style="stroke:#000000;stroke-width:0.8;"/>
      </defs>
      <g>
       <use style="stroke:#000000;stroke-width:0.8;" x="24.170313" xlink:href="#me584d159a1" y="176.845385"/>
      </g>
     </g>
     <g id="text_3">
      <!-- -1 -->
      <defs>
       <path d="M 4.890625 31.390625 
L 31.203125 31.390625 
L 31.203125 23.390625 
L 4.890625 23.390625 
z
" id="DejaVuSans-45"/>
       <path d="M 12.40625 8.296875 
L 28.515625 8.296875 
L 28.515625 63.921875 
L 10.984375 60.40625 
L 10.984375 69.390625 
L 28.421875 72.90625 
L 38.28125 72.90625 
L 38.28125 8.296875 
L 54.390625 8.296875 
L 54.390625 0 
L 12.40625 0 
z
" id="DejaVuSans-49"/>
      </defs>
      <g transform="translate(7.2 180.644603)scale(0.1 -0.1)">
       <use xlink:href="#DejaVuSans-45"/>
       <use x="36.083984" xlink:href="#DejaVuSans-49"/>
      </g>
     </g>
    </g>
    <g id="ytick_2">
     <g id="line2d_4">
      <g>
       <use style="stroke:#000000;stroke-width:0.8;" x="24.170313" xlink:href="#me584d159a1" y="54.364615"/>
      </g>
     </g>
     <g id="text_4">
      <!-- 2 -->
      <defs>
       <path d="M 19.1875 8.296875 
L 53.609375 8.296875 
L 53.609375 0 
L 7.328125 0 
L 7.328125 8.296875 
Q 12.9375 14.109375 22.625 23.890625 
Q 32.328125 33.6875 34.8125 36.53125 
Q 39.546875 41.84375 41.421875 45.53125 
Q 43.3125 49.21875 43.3125 52.78125 
Q 43.3125 58.59375 39.234375 62.25 
Q 35.15625 65.921875 28.609375 65.921875 
Q 23.96875 65.921875 18.8125 64.3125 
Q 13.671875 62.703125 7.8125 59.421875 
L 7.8125 69.390625 
Q 13.765625 71.78125 18.9375 73 
Q 24.125 74.21875 28.421875 74.21875 
Q 39.75 74.21875 46.484375 68.546875 
Q 53.21875 62.890625 53.21875 53.421875 
Q 53.21875 48.921875 51.53125 44.890625 
Q 49.859375 40.875 45.40625 35.40625 
Q 44.1875 33.984375 37.640625 27.21875 
Q 31.109375 20.453125 19.1875 8.296875 
z
" id="DejaVuSans-50"/>
      </defs>
      <g transform="translate(10.807813 58.163834)scale(0.1 -0.1)">
       <use xlink:href="#DejaVuSans-50"/>
      </g>
     </g>
    </g>
    <g id="text_5">
     <!-- $y$ -->
     <defs>
      <path d="M 8.40625 -14.3125 
Q 10.5 -17.921875 15.71875 -17.921875 
Q 20.453125 -17.921875 23.921875 -14.59375 
Q 27.390625 -11.28125 29.515625 -6.5625 
Q 31.640625 -1.859375 32.8125 3.078125 
Q 28.375 -1.125 23.1875 -1.125 
Q 19.234375 -1.125 16.453125 0.234375 
Q 13.671875 1.609375 12.125 4.3125 
Q 10.59375 7.03125 10.59375 10.890625 
Q 10.59375 14.15625 11.46875 17.59375 
Q 12.359375 21.046875 13.9375 25.265625 
Q 15.53125 29.5 16.703125 32.625 
Q 18.015625 36.28125 18.015625 38.625 
Q 18.015625 41.609375 15.828125 41.609375 
Q 11.859375 41.609375 9.296875 37.53125 
Q 6.734375 33.453125 5.515625 28.421875 
Q 5.328125 27.78125 4.6875 27.78125 
L 3.515625 27.78125 
Q 2.6875 27.78125 2.6875 28.71875 
L 2.6875 29 
Q 4.296875 34.96875 7.609375 39.578125 
Q 10.9375 44.1875 16.015625 44.1875 
Q 19.578125 44.1875 22.046875 41.84375 
Q 24.515625 39.5 24.515625 35.890625 
Q 24.515625 34.03125 23.6875 31.984375 
Q 23.25 30.765625 21.6875 26.65625 
Q 20.125 22.5625 19.28125 19.875 
Q 18.453125 17.1875 17.921875 14.59375 
Q 17.390625 12.015625 17.390625 9.421875 
Q 17.390625 6.109375 18.796875 3.8125 
Q 20.21875 1.515625 23.296875 1.515625 
Q 29.5 1.515625 34.421875 9.078125 
L 42 39.890625 
Q 42.328125 41.21875 43.546875 42.15625 
Q 44.78125 43.109375 46.1875 43.109375 
Q 47.40625 43.109375 48.3125 42.328125 
Q 49.21875 41.546875 49.21875 40.28125 
Q 49.21875 39.703125 49.125 39.5 
L 39.203125 -0.296875 
Q 37.890625 -5.421875 34.375 -10.109375 
Q 30.859375 -14.796875 25.90625 -17.65625 
Q 20.953125 -20.515625 15.578125 -20.515625 
Q 12.984375 -20.515625 10.4375 -19.5 
Q 7.90625 -18.5 6.34375 -16.5 
Q 4.78125 -14.5 4.78125 -11.8125 
Q 4.78125 -9.078125 6.390625 -7.078125 
Q 8.015625 -5.078125 10.6875 -5.078125 
Q 12.3125 -5.078125 13.40625 -6.078125 
Q 14.5 -7.078125 14.5 -8.6875 
Q 14.5 -10.984375 12.78125 -12.6875 
Q 11.078125 -14.40625 8.796875 -14.40625 
Q 8.6875 -14.359375 8.59375 -14.328125 
Q 8.5 -14.3125 8.40625 -14.3125 
z
" id="Cmmi10-121"/>
     </defs>
     <g transform="translate(20.170313 19.325)scale(0.16 -0.16)">
      <use transform="translate(0 0.8125)" xlink:href="#Cmmi10-121"/>
     </g>
    </g>
   </g>
   <g id="line2d_5">
    <path clip-path="url(#pf5d114e8f5)" d="M 24.170313 136.018462 
L 24.322435 133.319523 
L 24.70274 130.96921 
L 25.299995 128.663593 
L 26.034813 126.569633 
L 27.075043 124.224772 
L 28.406376 121.776233 
L 29.682442 119.772087 
L 31.852819 116.838479 
L 34.274992 114.021738 
L 37.405953 110.843477 
L 40.369653 108.167166 
L 43.176477 105.850638 
L 46.92397 103.010223 
L 51.498397 99.844062 
L 56.723535 96.536954 
L 62.400528 93.232617 
L 68.14822 90.128889 
L 74.638851 86.859002 
L 81.782 83.495159 
L 90.519096 79.652981 
L 99.260977 76.054585 
L 108.891646 72.325254 
L 119.618339 68.413245 
L 131.048826 64.479615 
L 143.768306 60.342373 
L 157.735426 56.045487 
L 172.666684 51.693791 
L 177.332837 50.379185 
L 177.332837 50.379185 
" style="fill:none;stroke:#ff0000;stroke-linecap:square;stroke-width:1.5;"/>
   </g>
   <g id="line2d_6">
    <path clip-path="url(#pf5d114e8f5)" d="M 24.170313 136.018462 
L 24.311868 138.621977 
L 24.687389 140.994392 
L 25.272139 143.282084 
L 26.053241 145.513869 
L 27.191849 148.046938 
L 28.651628 150.667176 
L 30.20247 153.013927 
L 32.238829 155.674391 
L 34.621862 158.389548 
L 37.389275 161.17758 
L 40.562825 164.035323 
L 44.100956 166.91127 
L 48.163276 169.913699 
L 52.390275 172.778415 
L 57.525407 175.983277 
L 62.907508 179.087068 
L 69.013564 182.357314 
L 75.997275 185.835122 
L 76.38481 186.021026 
L 76.38481 186.021026 
" style="fill:none;stroke:#ff0000;stroke-linecap:square;stroke-width:1.5;"/>
   </g>
   <g id="line2d_7">
    <path clip-path="url(#pf5d114e8f5)" d="M 41.575145 197.258846 
L 180.813804 33.951154 
L 180.813804 33.951154 
" style="fill:none;stroke:#0000ff;stroke-linecap:square;stroke-width:1.5;"/>
   </g>
   <g id="line2d_8">
    <path clip-path="url(#pf5d114e8f5)" d="M 58.979977 176.845385 
L 163.408971 54.364615 
L 163.408971 54.364615 
" style="fill:none;stroke:#0000ff;stroke-linecap:square;stroke-width:1.5;"/>
   </g>
   <g id="line2d_9">
    <path clip-path="url(#pf5d114e8f5)" d="M 24.170313 136.018462 
L 24.300487 133.521799 
L 24.644338 131.254178 
L 25.218338 128.934395 
L 26.03389 126.571971 
L 27.031413 124.313681 
L 28.364125 121.847438 
L 29.887023 119.473344 
L 31.864043 116.824474 
L 34.119652 114.191471 
L 36.694424 111.52951 
L 39.669961 108.775291 
L 43.170992 105.854992 
L 47.140172 102.853775 
L 51.551391 99.809005 
L 56.587302 96.619655 
L 58.979977 95.191538 
L 58.979977 95.191538 
" style="fill:none;stroke:#ff0000;stroke-linecap:square;stroke-width:1.5;"/>
   </g>
   <g id="line2d_10">
    <path clip-path="url(#pf5d114e8f5)" d="M 24.170313 136.018462 
L 24.30991 138.603911 
L 24.652882 140.82549 
L 25.240144 143.175849 
L 26.029713 145.45436 
L 27.063663 147.789024 
L 28.430034 150.300407 
L 30.008121 152.737899 
L 31.967617 155.341213 
L 34.366336 158.114385 
L 36.892019 160.69984 
L 39.958469 163.514014 
L 43.420287 166.379164 
L 47.254273 169.265418 
L 51.729607 172.345566 
L 56.791743 175.54131 
L 58.979977 176.845385 
L 58.979977 176.845385 
" style="fill:none;stroke:#ff0000;stroke-linecap:square;stroke-width:1.5;"/>
   </g>
   <g id="patch_6">
    <path d="M 24.170313 200.525 
L 24.170313 30.685 
" style="fill:none;stroke:#000000;stroke-linecap:square;stroke-linejoin:miter;stroke-width:0.8;"/>
   </g>
   <g id="patch_7">
    <path d="M 21.037443 136.018462 
L 183.946673 136.018462 
" style="fill:none;stroke:#000000;stroke-linecap:square;stroke-linejoin:miter;stroke-width:0.8;"/>
   </g>
   <g id="text_6">
    <!-- $x=y^2$ -->
    <defs>
     <path d="M 7.515625 13.28125 
Q 6.6875 13.28125 6.140625 13.90625 
Q 5.609375 14.546875 5.609375 15.28125 
Q 5.609375 16.109375 6.140625 16.6875 
Q 6.6875 17.28125 7.515625 17.28125 
L 70.3125 17.28125 
Q 71.046875 17.28125 71.578125 16.6875 
Q 72.125 16.109375 72.125 15.28125 
Q 72.125 14.546875 71.578125 13.90625 
Q 71.046875 13.28125 70.3125 13.28125 
z
M 7.515625 32.71875 
Q 6.6875 32.71875 6.140625 33.296875 
Q 5.609375 33.890625 5.609375 34.71875 
Q 5.609375 35.453125 6.140625 36.078125 
Q 6.6875 36.71875 7.515625 36.71875 
L 70.3125 36.71875 
Q 71.046875 36.71875 71.578125 36.078125 
Q 72.125 35.453125 72.125 34.71875 
Q 72.125 33.890625 71.578125 33.296875 
Q 71.046875 32.71875 70.3125 32.71875 
z
" id="Cmr10-61"/>
     <path d="M 4.984375 0 
L 4.984375 2.6875 
Q 4.984375 2.9375 5.171875 3.21875 
L 20.703125 20.40625 
Q 24.21875 24.21875 26.40625 26.796875 
Q 28.609375 29.390625 30.75 32.765625 
Q 32.90625 36.140625 34.15625 39.625 
Q 35.40625 43.109375 35.40625 47.015625 
Q 35.40625 51.125 33.890625 54.859375 
Q 32.375 58.59375 29.375 60.84375 
Q 26.375 63.09375 22.125 63.09375 
Q 17.78125 63.09375 14.3125 60.46875 
Q 10.84375 57.859375 9.421875 53.71875 
Q 9.8125 53.8125 10.5 53.8125 
Q 12.75 53.8125 14.328125 52.296875 
Q 15.921875 50.78125 15.921875 48.390625 
Q 15.921875 46.09375 14.328125 44.5 
Q 12.75 42.921875 10.5 42.921875 
Q 8.15625 42.921875 6.5625 44.546875 
Q 4.984375 46.1875 4.984375 48.390625 
Q 4.984375 52.15625 6.390625 55.4375 
Q 7.8125 58.734375 10.46875 61.296875 
Q 13.140625 63.875 16.484375 65.234375 
Q 19.828125 66.609375 23.578125 66.609375 
Q 29.296875 66.609375 34.21875 64.1875 
Q 39.15625 61.765625 42.03125 57.34375 
Q 44.921875 52.9375 44.921875 47.015625 
Q 44.921875 42.671875 43.015625 38.765625 
Q 41.109375 34.859375 38.125 31.65625 
Q 35.15625 28.46875 30.515625 24.40625 
Q 25.875 20.359375 24.421875 19 
L 13.09375 8.109375 
L 22.703125 8.109375 
Q 29.78125 8.109375 34.546875 8.21875 
Q 39.3125 8.34375 39.59375 8.59375 
Q 40.765625 9.859375 42 17.828125 
L 44.921875 17.828125 
L 42.09375 0 
z
" id="Cmr10-50"/>
    </defs>
    <g style="fill:#ff0000;" transform="translate(77.769642 58.204615)scale(0.12 -0.12)">
     <use transform="translate(0 0.109375)" xlink:href="#Cmmi10-120"/>
     <use transform="translate(74.638672 0.109375)" xlink:href="#Cmr10-61"/>
     <use transform="translate(169.882812 0.109375)" xlink:href="#Cmmi10-121"/>
     <use transform="translate(225.209531 38.373438)scale(0.7)" xlink:href="#Cmr10-50"/>
    </g>
   </g>
   <g id="text_7">
    <!-- $x=y+2$ -->
    <defs>
     <path d="M 7.515625 23 
Q 6.6875 23 6.140625 23.625 
Q 5.609375 24.265625 5.609375 25 
Q 5.609375 25.734375 6.140625 26.359375 
Q 6.6875 27 7.515625 27 
L 36.921875 27 
L 36.921875 56.5 
Q 36.921875 57.28125 37.5 57.78125 
Q 38.09375 58.296875 38.921875 58.296875 
Q 39.65625 58.296875 40.28125 57.78125 
Q 40.921875 57.28125 40.921875 56.5 
L 40.921875 27 
L 70.3125 27 
Q 71.046875 27 71.578125 26.359375 
Q 72.125 25.734375 72.125 25 
Q 72.125 24.265625 71.578125 23.625 
Q 71.046875 23 70.3125 23 
L 40.921875 23 
L 40.921875 -6.5 
Q 40.921875 -7.28125 40.28125 -7.78125 
Q 39.65625 -8.296875 38.921875 -8.296875 
Q 38.09375 -8.296875 37.5 -7.78125 
Q 36.921875 -7.28125 36.921875 -6.5 
L 36.921875 23 
z
" id="Cmr10-43"/>
    </defs>
    <g style="fill:#0000ff;" transform="translate(88.274474 180.13226)scale(0.12 -0.12)">
     <use transform="translate(0 0.390625)" xlink:href="#Cmmi10-120"/>
     <use transform="translate(74.638672 0.390625)" xlink:href="#Cmr10-61"/>
     <use transform="translate(169.882812 0.390625)" xlink:href="#Cmmi10-121"/>
     <use transform="translate(236.464844 0.390625)" xlink:href="#Cmr10-43"/>
     <use transform="translate(331.708984 0.390625)" xlink:href="#Cmr10-50"/>
    </g>
   </g>
  </g>
 </g>
 <defs>
  <clipPath id="pf5d114e8f5">
   <rect height="169.84" width="162.909231" x="21.037443" y="30.685"/>
  </clipPath>
 </defs>
</svg>
