<?xml version="1.0" encoding="utf-8" standalone="no"?>
<!DOCTYPE svg PUBLIC "-//W3C//DTD SVG 1.1//EN"
  "http://www.w3.org/Graphics/SVG/1.1/DTD/svg11.dtd">
<!-- Created with matplotlib (https://matplotlib.org/) -->
<svg height="207.725pt" version="1.1" viewBox="0 0 208.426673 207.725" width="208.426673pt" xmlns="http://www.w3.org/2000/svg" xmlns:xlink="http://www.w3.org/1999/xlink">
 <defs>
  <style type="text/css">
*{stroke-linecap:butt;stroke-linejoin:round;}
  </style>
 </defs>
 <g id="figure_1">
  <g id="patch_1">
   <path d="M 0 207.725 
L 208.426673 207.725 
L 208.426673 0 
L 0 0 
z
" style="fill:#ffffff;"/>
  </g>
  <g id="axes_1">
   <g id="patch_2">
    <path d="M 21.037443 200.525 
L 183.946673 200.525 
L 183.946673 30.685 
L 21.037443 30.685 
z
" style="fill:#ffffff;"/>
   </g>
   <g id="patch_3">
    <path clip-path="url(#pe2918ffb4c)" d="M 163.408971 54.364615 
L 163.005667 54.482956 
L 162.235638 54.709383 
L 161.965578 54.788943 
L 161.461964 54.937518 
L 161.032008 55.064578 
L 160.202843 55.310177 
L 159.947588 55.385934 
L 159.381383 55.554232 
L 158.905939 55.695825 
L 158.387911 55.850385 
L 157.461694 56.127478 
L 156.877253 56.30282 
L 156.534251 56.405905 
L 155.91348 56.592811 
L 155.768121 56.63664 
L 154.89405 56.900706 
L 154.503993 57.018831 
L 153.897479 57.20286 
L 153.541911 57.310946 
L 153.174582 57.422764 
L 152.406858 57.65698 
L 151.843027 57.82944 
L 151.163392 58.037828 
L 150.889394 58.121998 
L 150.250225 58.318701 
L 149.533648 58.53982 
L 149.081144 58.679777 
L 148.791977 58.769348 
L 148.082649 58.989507 
L 147.752465 59.092203 
L 147.369375 59.211527 
L 146.621339 59.445059 
L 146.258364 59.558634 
L 145.506999 59.794275 
L 145.233639 59.880187 
L 144.596682 60.080746 
L 144.219164 60.199866 
L 143.262356 60.502614 
L 142.770993 60.65856 
L 142.258029 60.821708 
L 141.920096 60.929381 
L 141.116184 61.186147 
L 141.015717 61.218298 
L 140.363273 61.427425 
L 139.557657 61.686461 
L 139.347739 61.754106 
L 138.852159 61.914049 
L 138.041107 62.176554 
L 137.685092 62.292077 
L 137.112458 62.478272 
L 136.592081 62.647884 
L 136.252844 62.758667 
L 135.477012 63.012658 
L 134.901298 63.201708 
L 134.766496 63.246044 
L 134.188263 63.436533 
L 133.438724 63.684201 
L 133.024545 63.821422 
L 132.410352 64.02539 
L 131.964388 64.173854 
L 131.401874 64.361557 
L 130.84965 64.546305 
L 130.159235 64.77796 
L 129.66781 64.943308 
L 129.374597 65.042147 
L 128.577718 65.311466 
L 128.372876 65.380862 
L 127.675306 65.617696 
L 126.971829 65.857345 
L 126.435346 66.040657 
L 126.338431 66.073823 
L 125.879876 66.230964 
L 125.093385 66.501311 
L 124.488983 66.709784 
L 124.127624 66.834725 
L 123.788074 66.952332 
L 123.13632 67.178637 
L 122.652448 67.347132 
L 121.751108 67.662105 
L 121.322116 67.812527 
L 120.765094 68.008338 
L 120.146439 68.226478 
L 119.917263 68.307465 
L 119.2423 68.546549 
L 118.928601 68.657956 
L 118.192922 68.919951 
L 117.900168 69.024493 
L 117.263136 69.252542 
L 116.77623 69.427375 
L 115.927677 69.733166 
L 115.808432 69.776251 
L 115.150807 70.014367 
L 114.576257 70.223108 
L 114.182804 70.366437 
L 113.374826 70.661757 
L 113.243387 70.709925 
L 112.677052 70.917875 
L 112.073677 71.140159 
L 111.440387 71.374286 
L 110.96914 71.549057 
L 110.320285 71.790476 
L 110.029281 71.899045 
L 109.319567 72.164602 
L 108.62245 72.426525 
L 108.047592 72.643326 
L 107.696484 72.776109 
L 107.487467 72.855288 
L 106.817025 73.109934 
L 106.229774 73.333832 
L 105.646923 73.556847 
L 105.376118 73.660735 
L 104.593597 73.961911 
L 103.950173 74.21065 
L 103.614099 74.340971 
L 103.252184 74.48162 
L 102.336597 74.838885 
L 101.808972 75.045717 
L 101.596787 75.129093 
L 100.743494 75.465544 
L 100.684519 75.488866 
L 99.864787 75.81398 
L 99.323773 76.029517 
L 98.747517 76.259949 
L 98.12218 76.511016 
L 97.624606 76.711548 
L 97.140722 76.907215 
L 96.902976 77.003589 
L 96.105515 77.328008 
L 95.720506 77.485279 
L 95.049284 77.76048 
L 94.893655 77.824474 
L 93.925915 78.223993 
L 93.744471 78.299207 
L 93.115044 78.560889 
L 92.384212 78.866233 
L 92.254185 78.92073 
L 91.438835 79.263651 
L 91.042943 79.430906 
L 90.59104 79.62243 
L 90.20103 79.788247 
L 89.43932 80.113515 
L 89.090064 80.26329 
L 88.524086 80.506862 
L 87.998709 80.733922 
L 87.286557 81.0432 
L 86.666712 81.313813 
L 86.120806 81.55326 
L 85.924872 81.639458 
L 84.971535 82.060829 
L 84.494354 82.272981 
L 84.187845 82.409697 
L 83.564164 82.688966 
L 83.250199 82.830107 
L 82.635721 83.10743 
L 81.924015 83.430462 
L 81.338512 83.697708 
L 81.137511 83.789768 
L 80.39829 84.129741 
L 79.841016 84.387515 
L 79.311545 84.633626 
L 79.158944 84.704779 
L 78.552441 84.988548 
L 77.958808 85.267832 
L 77.542601 85.464564 
L 76.665532 85.881662 
L 76.327799 86.043202 
L 75.664024 86.362222 
L 75.419421 86.4803 
L 74.508507 86.922525 
L 74.028547 87.157143 
L 73.710859 87.31306 
L 73.209736 87.560024 
L 72.729518 87.797872 
L 71.848063 88.23753 
L 71.834706 88.244224 
L 70.953024 88.688143 
L 70.609673 88.862148 
L 70.190541 89.075432 
L 69.588692 89.383401 
L 68.841559 89.768565 
L 68.396757 89.999401 
L 67.894986 90.2612 
L 67.436058 90.501965 
L 66.888686 90.790805 
L 66.572969 90.958246 
L 65.910117 91.311831 
L 65.038928 91.780848 
L 64.810413 91.904698 
L 64.034536 92.327824 
L 63.804304 92.454172 
L 63.197876 92.788739 
L 62.798013 93.010768 
L 62.177421 93.357647 
L 61.516511 93.73019 
L 60.964272 94.044013 
L 60.451854 94.337321 
L 59.932483 94.636729 
L 59.520253 94.875924 
L 58.979977 95.191538 
L 58.979977 176.845385 
L 59.711169 175.987798 
L 60.174619 175.444235 
L 60.356332 175.231111 
L 61.208849 174.231226 
L 61.590052 173.784128 
L 62.367686 172.87207 
L 62.57127 172.633295 
L 63.182182 171.916779 
L 63.44696 171.606232 
L 64.404746 170.482881 
L 64.841501 169.970628 
L 65.369392 169.351484 
L 66.02578 168.581632 
L 66.487738 168.039819 
L 66.843956 167.622025 
L 67.223318 167.177085 
L 67.860513 166.429744 
L 68.205654 166.024942 
L 68.705391 165.438819 
L 69.618876 164.367428 
L 69.743679 164.221051 
L 70.441406 163.402713 
L 71.197031 162.51647 
L 71.387039 162.293617 
L 72.247812 161.284049 
L 72.533311 160.949198 
L 73.153811 160.221437 
L 73.830005 159.428356 
L 74.238678 158.949039 
L 74.846251 158.236439 
L 75.370723 157.621306 
L 75.838089 157.073151 
L 76.305383 156.52508 
L 76.734562 156.021712 
L 77.123423 155.565632 
L 77.930466 154.619082 
L 78.632124 153.796134 
L 78.865792 153.522074 
L 79.678413 152.568981 
L 80.024889 152.162614 
L 80.52088 151.580885 
L 80.958016 151.068184 
L 81.478882 150.457281 
L 82.264855 149.535443 
L 82.679929 149.048619 
L 83.165863 148.478685 
L 83.605524 147.963024 
L 84.0416 147.451567 
L 84.470082 146.949016 
L 85.017105 146.307434 
L 85.550862 145.681412 
L 86.406692 144.677641 
L 86.767429 144.254546 
L 87.101911 143.862245 
L 87.947758 142.870184 
L 88.614263 142.088465 
L 89.025877 141.6057 
L 89.404533 141.161588 
L 89.946482 140.525956 
L 90.414516 139.977018 
L 90.757223 139.575069 
L 91.37365 138.852085 
L 91.787021 138.367259 
L 92.31963 137.742582 
L 92.926112 137.031263 
L 93.610816 136.2282 
L 93.982404 135.792378 
L 94.757499 134.883299 
L 95.010702 134.586327 
L 95.744834 133.725292 
L 95.991768 133.435673 
L 96.985636 132.270002 
L 97.176312 132.046366 
L 97.77687 131.341994 
L 98.538738 130.448428 
L 98.696291 130.263641 
L 99.482279 129.341785 
L 99.708994 129.07588 
L 100.2566 128.433614 
L 101.175292 127.356115 
L 101.420497 127.068523 
L 102.109508 126.260409 
L 102.615822 125.666573 
L 102.973473 125.247098 
L 103.372532 124.779057 
L 104.108464 123.91591 
L 104.802713 123.101652 
L 105.383979 122.419908 
L 105.428127 122.368128 
L 106.19246 121.471671 
L 106.940319 120.594536 
L 107.067906 120.444894 
L 107.722168 119.677535 
L 108.427284 118.850531 
L 108.635029 118.606876 
L 109.594836 117.481155 
L 109.9514 117.062954 
L 110.31148 116.640631 
L 111.140557 115.668237 
L 111.232541 115.560353 
L 112.237256 114.381961 
L 112.756704 113.77272 
L 113.04939 113.429441 
L 113.395725 113.023237 
L 113.892294 112.44083 
L 114.703175 111.48978 
L 114.99197 111.151063 
L 115.434174 110.632418 
L 116.02201 109.942968 
L 116.565701 109.305294 
L 117.104209 108.673698 
L 117.617067 108.072187 
L 118.223905 107.360449 
L 118.75831 106.733667 
L 119.282496 106.118869 
L 120.004139 105.272481 
L 120.594295 104.58031 
L 120.902336 104.219021 
L 121.379108 103.659834 
L 122.021029 102.906949 
L 122.731492 102.073674 
L 122.79575 101.998308 
L 123.519875 101.14901 
L 124.107793 100.459462 
L 124.541514 99.950768 
L 125.14755 99.239971 
L 125.585616 98.726181 
L 125.905175 98.351383 
L 126.85522 97.237111 
L 127.314902 96.697967 
L 127.869523 96.047474 
L 128.051027 95.834594 
L 129.036254 94.679059 
L 129.519848 94.11187 
L 129.652036 93.956833 
L 130.36854 93.116473 
L 130.96646 92.415195 
L 131.620916 91.647609 
L 131.756775 91.488265 
L 132.599703 90.499627 
L 133.174588 89.825367 
L 133.404639 89.555548 
L 134.237735 88.578442 
L 134.77121 87.952749 
L 135.17044 87.484508 
L 135.629616 86.945958 
L 136.338879 86.114091 
L 136.856866 85.506563 
L 137.14442 85.169302 
L 137.843387 84.349511 
L 138.171008 83.965257 
L 138.802348 83.224782 
L 139.292606 82.649777 
L 139.602064 82.286826 
L 140.31925 81.445666 
L 140.905482 80.758097 
L 141.515169 80.043018 
L 142.007131 79.466014 
L 142.285284 79.13978 
L 143.130089 78.14894 
L 143.286332 77.965688 
L 143.836606 77.320293 
L 144.710137 76.295763 
L 145.048277 75.899171 
L 145.724721 75.105796 
L 146.041697 74.734027 
L 146.660793 74.007912 
L 146.936058 73.685065 
L 147.785686 72.688569 
L 148.448901 71.910709 
L 148.536171 71.808354 
L 149.202955 71.026308 
L 149.525142 70.648427 
L 150.302033 69.737241 
L 150.721382 69.245403 
L 151.368751 68.486129 
L 151.629718 68.18005 
L 152.645476 66.988707 
L 152.97549 66.601647 
L 153.447605 66.04792 
L 153.917835 65.496406 
L 154.443973 64.879318 
L 155.221771 63.967069 
L 155.791932 63.298349 
L 155.978811 63.079166 
L 156.469415 62.503755 
L 157.167751 61.684704 
L 157.754157 60.996931 
L 157.950098 60.767118 
L 158.568547 60.041764 
L 159.327761 59.15131 
L 159.556386 58.883166 
L 160.391195 57.904049 
L 160.608872 57.648745 
L 161.421486 56.695661 
L 162.05445 55.953281 
L 162.561873 55.358144 
L 162.633324 55.274342 
z
" style="fill:#cde0eb;opacity:0.5;"/>
   </g>
   <g id="patch_4">
    <path clip-path="url(#pe2918ffb4c)" d="M 24.170313 136.018462 
L 24.170313 136.018462 
L 24.176845 135.459184 
L 24.183377 135.227524 
L 24.189909 135.049765 
L 24.196441 134.899907 
L 24.202974 134.76788 
L 24.209506 134.648518 
L 24.216038 134.538753 
L 24.22257 134.436587 
L 24.229102 134.34063 
L 24.235635 134.249872 
L 24.248699 134.081069 
L 24.261764 133.925838 
L 24.274828 133.781353 
L 24.287892 133.64565 
L 24.300957 133.517298 
L 24.314021 133.395219 
L 24.327086 133.278574 
L 24.34015 133.166696 
L 24.353215 133.059045 
L 24.379343 132.854712 
L 24.400275 132.700086 
L 24.421207 132.552351 
L 24.442139 132.410661 
L 24.463071 132.274328 
L 24.495214 132.074138 
L 24.527357 131.883629 
L 24.5595 131.701519 
L 24.591643 131.526786 
L 24.623787 131.358601 
L 24.65593 131.196278 
L 24.688073 131.039243 
L 24.720216 130.887013 
L 24.758799 130.710043 
L 24.797383 130.538786 
L 24.835966 130.372722 
L 24.874549 130.211404 
L 24.943266 129.934681 
L 25.011984 129.670008 
L 25.061328 129.486565 
L 25.110672 129.308136 
L 25.160016 129.134329 
L 25.20936 128.964804 
L 25.265228 128.777654 
L 25.321096 128.595221 
L 25.385648 128.389861 
L 25.4502 128.189887 
L 25.514753 127.994895 
L 25.579305 127.804531 
L 25.651857 127.59571 
L 25.724408 127.391942 
L 25.79553 127.196757 
L 25.866652 127.005798 
L 26.005173 126.645039 
L 26.143693 126.297659 
L 26.266255 126.000337 
L 26.372268 125.750105 
L 26.47828 125.505826 
L 26.640039 125.143664 
L 26.728358 124.950927 
L 26.892145 124.602107 
L 27.055932 124.263633 
L 27.184117 124.005384 
L 27.313164 123.750888 
L 27.473885 123.441125 
L 27.629411 123.148472 
L 27.765022 122.89862 
L 28.013659 122.452471 
L 28.173176 122.173806 
L 28.401653 121.784174 
L 28.546803 121.54209 
L 28.695145 121.298795 
L 28.840495 121.064245 
L 28.996732 120.816162 
L 29.263051 120.402368 
L 29.355895 120.260664 
L 29.567835 119.941871 
L 29.700025 119.746197 
L 29.94012 119.396687 
L 30.109744 119.154129 
L 30.277514 118.917606 
L 30.542829 118.550098 
L 30.615754 118.450432 
L 30.873785 118.102231 
L 31.015339 117.914054 
L 31.23781 117.6222 
L 31.33574 117.495187 
L 31.485907 117.302095 
L 31.754057 116.962162 
L 31.896447 116.784096 
L 32.029539 116.619136 
L 32.228515 116.375099 
L 32.38363 116.18694 
L 32.505272 116.040624 
L 32.699282 115.809453 
L 32.890002 115.584751 
L 33.022618 115.429951 
L 33.251535 115.165445 
L 33.361413 115.039669 
L 33.540891 114.835828 
L 33.734917 114.617651 
L 34.036684 114.28267 
L 34.144991 114.163695 
L 34.231176 114.06948 
L 34.545224 113.729546 
L 34.7255 113.536733 
L 34.861355 113.392515 
L 34.969401 113.278471 
L 35.111833 113.129 
L 35.363698 112.867051 
L 35.488508 112.738336 
L 35.669942 112.552484 
L 35.921971 112.296734 
L 36.016869 112.201147 
L 36.326141 111.892257 
L 36.445227 111.774367 
L 36.620384 111.602004 
L 36.748366 111.476829 
L 36.873877 111.354688 
L 37.173653 111.065379 
L 37.325676 110.919939 
L 37.377651 110.870407 
L 37.709171 110.556741 
L 37.766874 110.502539 
L 37.94215 110.3386 
L 38.090652 110.200518 
L 38.413109 109.9032 
L 38.462091 109.858333 
L 38.759689 109.587371 
L 38.862758 109.494171 
L 39.020455 109.352205 
L 39.198334 109.192973 
L 39.416941 108.998567 
L 39.647165 108.795332 
L 39.779961 108.67879 
L 39.937873 108.54085 
L 40.16606 108.342737 
L 40.253447 108.267242 
L 40.414166 108.128927 
L 40.568053 107.997133 
L 40.708661 107.87725 
L 40.910252 107.706258 
L 41.115825 107.532946 
L 41.290205 107.386754 
L 41.488742 107.221213 
L 41.634585 107.100214 
L 41.873529 106.903058 
L 41.945619 106.843837 
L 42.216273 106.622564 
L 42.367601 106.499569 
L 42.48161 106.407242 
L 42.69689 106.233686 
L 42.953754 106.02792 
L 43.088353 105.920658 
L 43.251261 105.791346 
L 43.463056 105.624051 
L 43.571984 105.538367 
L 43.79358 105.364798 
L 44.019467 105.188872 
L 44.128696 105.104162 
L 44.305728 104.967358 
L 44.402779 104.892617 
L 44.61663 104.728554 
L 44.742632 104.632289 
L 44.932159 104.488044 
L 45.2231 104.267891 
L 45.384539 104.146387 
L 45.552593 104.020394 
L 45.606674 103.979955 
L 45.882792 103.774273 
L 46.086197 103.623592 
L 46.257046 103.497567 
L 46.3774 103.409082 
L 46.546521 103.285148 
L 46.779303 103.115324 
L 46.911034 103.019608 
L 47.032678 102.931467 
L 47.306904 102.733626 
L 47.451487 102.629787 
L 47.534159 102.570558 
L 47.837904 102.353838 
L 48.002998 102.236627 
L 48.139674 102.1399 
L 48.353456 101.989154 
L 48.522092 101.870713 
L 48.644506 101.784992 
L 48.774252 101.69437 
L 49.014994 101.526853 
L 49.209222 101.392293 
L 49.392275 101.265952 
L 49.597253 101.125022 
L 49.762997 101.011481 
L 49.820614 100.972098 
L 50.096431 100.784175 
L 50.216156 100.702914 
L 50.354843 100.609016 
L 50.593924 100.447728 
L 50.742481 100.347876 
L 50.860751 100.268581 
L 51.163758 100.066227 
L 51.269038 99.996185 
L 51.38819 99.917077 
L 51.682355 99.722514 
L 51.781519 99.65716 
L 52.008381 99.508088 
L 52.136531 99.424148 
L 52.410809 99.245137 
L 52.460998 99.212475 
L 52.661036 99.08258 
L 52.815444 98.982626 
L 53.117584 98.787818 
L 53.201745 98.733735 
L 53.422315 98.592365 
L 53.608641 98.473358 
L 53.756774 98.379014 
L 53.935813 98.2653 
L 54.008843 98.219014 
L 54.222758 98.083763 
L 54.492821 97.913696 
L 54.671847 97.801375 
L 54.715848 97.773819 
L 54.944075 97.631209 
L 55.20559 97.468447 
L 55.372625 97.364846 
L 55.402515 97.346336 
L 55.67703 97.176755 
L 55.905799 97.035995 
L 55.968821 96.997308 
L 56.220483 96.8432 
L 56.30128 96.793851 
L 56.445768 96.705757 
L 56.639385 96.588017 
L 56.873874 96.445892 
L 57.101937 96.308149 
L 57.304512 96.186199 
L 57.367186 96.148545 
L 57.5189 96.057544 
L 57.770209 95.907258 
L 57.887421 95.837355 
L 58.151725 95.680175 
L 58.289098 95.598722 
L 58.435283 95.512224 
L 58.628249 95.398326 
L 58.782251 95.307656 
L 58.979977 95.191538 
L 58.979977 136.018462 
z
" style="fill:#cde0eb;opacity:0.5;"/>
   </g>
   <g id="patch_5">
    <path clip-path="url(#pe2918ffb4c)" d="M 24.170313 136.018462 
L 24.170313 136.018462 
L 24.174853 136.484745 
L 24.179394 136.677886 
L 24.183934 136.826088 
L 24.188475 136.951028 
L 24.193015 137.061102 
L 24.197556 137.160617 
L 24.202096 137.252131 
L 24.206637 137.33731 
L 24.211177 137.417311 
L 24.215718 137.492978 
L 24.224799 137.633714 
L 24.23388 137.763133 
L 24.242961 137.883594 
L 24.252042 137.996734 
L 24.261123 138.103743 
L 24.270204 138.205524 
L 24.279285 138.302773 
L 24.297447 138.4858 
L 24.315609 138.656158 
L 24.338766 138.858578 
L 24.361922 139.047502 
L 24.385078 139.225315 
L 24.408234 139.393773 
L 24.431391 139.554215 
L 24.454547 139.707685 
L 24.477703 139.855022 
L 24.500859 139.996905 
L 24.536091 140.203561 
L 24.571323 140.400482 
L 24.606554 140.588926 
L 24.641786 140.769902 
L 24.673421 140.926722 
L 24.705056 141.078684 
L 24.768327 141.369678 
L 24.831597 141.645645 
L 24.894868 141.908696 
L 24.954228 142.145229 
L 25.013588 142.372964 
L 25.072948 142.592815 
L 25.132308 142.805548 
L 25.138602 142.827714 
L 25.203986 143.053856 
L 25.26937 143.272951 
L 25.334753 143.485621 
L 25.400137 143.692399 
L 25.510586 144.029585 
L 25.621035 144.353141 
L 25.7233 144.641905 
L 25.79656 144.84296 
L 25.869819 145.039535 
L 25.94575 145.238855 
L 26.021681 145.433956 
L 26.173542 145.812507 
L 26.273747 146.054474 
L 26.448063 146.462051 
L 26.586347 146.774401 
L 26.770324 147.176411 
L 26.918507 147.489969 
L 27.062861 147.787393 
L 27.222895 148.108576 
L 27.382929 148.421445 
L 27.464669 148.578242 
L 27.61746 148.866199 
L 27.79587 149.194478 
L 27.962823 149.494434 
L 28.200891 149.910962 
L 28.351815 150.168672 
L 28.51276 150.438421 
L 28.661409 150.683153 
L 28.932856 151.119827 
L 28.992332 151.213828 
L 29.220023 151.568446 
L 29.342738 151.756255 
L 29.658721 152.22984 
L 29.814094 152.457705 
L 29.931025 152.627131 
L 30.159357 152.953083 
L 30.305073 153.157859 
L 30.476816 153.396112 
L 30.588456 153.54925 
L 30.740942 153.75628 
L 31.058236 154.179509 
L 31.198567 154.363578 
L 31.412122 154.640202 
L 31.540946 154.805102 
L 31.660243 154.956527 
L 31.924047 155.287152 
L 31.979295 155.355678 
L 32.129968 155.541341 
L 32.305408 155.755322 
L 32.546552 156.045709 
L 32.767348 156.307949 
L 32.898638 156.462288 
L 33.026918 156.611972 
L 33.25078 156.870611 
L 33.399727 157.040935 
L 33.631481 157.303239 
L 33.800799 157.492852 
L 33.987296 157.699783 
L 34.16023 157.889917 
L 34.385543 158.135186 
L 34.48027 158.237495 
L 34.74402 158.519905 
L 34.909915 158.695735 
L 35.037612 158.830156 
L 35.228818 159.029963 
L 35.421732 159.22981 
L 35.615684 159.429015 
L 35.714698 159.530059 
L 35.829057 159.646225 
L 36.085222 159.904388 
L 36.207 160.026143 
L 36.389664 160.207623 
L 36.639573 160.453728 
L 36.73076 160.542912 
L 36.978766 160.783847 
L 37.067651 160.869628 
L 37.317413 161.109101 
L 37.536163 161.316977 
L 37.725919 161.495926 
L 37.848582 161.610938 
L 38.043487 161.792629 
L 38.228225 161.963669 
L 38.421498 162.141412 
L 38.527824 162.23868 
L 38.602709 162.30697 
L 38.90706 162.582711 
L 39.098662 162.754843 
L 39.271222 162.908924 
L 39.40856 163.030928 
L 39.598314 163.198594 
L 39.691582 163.280627 
L 39.910284 163.472024 
L 40.05599 163.598801 
L 40.290931 163.802002 
L 40.379577 163.878286 
L 40.528286 164.005792 
L 40.868 164.294913 
L 40.929009 164.346522 
L 41.183585 164.560872 
L 41.299966 164.65833 
L 41.419249 164.757874 
L 41.739752 165.023649 
L 41.759278 165.039762 
L 42.059574 165.286454 
L 42.162368 165.370422 
L 42.386381 165.552583 
L 42.553399 165.687669 
L 42.642045 165.759118 
L 42.898356 165.964745 
L 43.078114 166.108119 
L 43.168212 166.179725 
L 43.326274 166.304935 
L 43.631848 166.545542 
L 43.779415 166.66106 
L 44.014491 166.844186 
L 44.125594 166.930359 
L 44.309636 167.072578 
L 44.445715 167.177315 
L 44.576319 167.277509 
L 44.80552 167.452571 
L 44.973549 167.580292 
L 45.112749 167.685711 
L 45.29922 167.82638 
L 45.452975 167.941904 
L 45.737032 168.154236 
L 45.895062 168.271759 
L 45.982722 168.336765 
L 46.249791 168.534014 
L 46.429602 168.666146 
L 46.585721 168.780435 
L 46.736715 168.890595 
L 46.965717 169.056966 
L 47.12633 169.173154 
L 47.205696 169.230417 
L 47.369791 169.348502 
L 47.665376 169.560159 
L 47.804942 169.659635 
L 47.924127 169.744351 
L 48.142129 169.898758 
L 48.247677 169.973264 
L 48.548188 170.184502 
L 48.647336 170.253911 
L 48.858107 170.400996 
L 49.069433 170.547838 
L 49.257723 170.67815 
L 49.280482 170.693867 
L 49.547078 170.877456 
L 49.640282 170.941413 
L 49.968636 171.165802 
L 49.974392 171.169723 
L 50.292356 171.385631 
L 50.475627 171.509481 
L 50.635971 171.617485 
L 50.671668 171.641485 
L 50.846145 171.758558 
L 51.164562 171.971232 
L 51.256163 172.03218 
L 51.481013 172.181353 
L 51.564344 172.236482 
L 51.894551 172.454113 
L 51.898348 172.456609 
L 52.079183 172.575235 
L 52.250739 172.687421 
L 52.5165 172.860534 
L 52.742871 173.007351 
L 52.833669 173.066076 
L 53.100241 173.237951 
L 53.120858 173.251211 
L 53.29861 173.365337 
L 53.613329 173.566554 
L 53.730247 173.641032 
L 53.855184 173.720455 
L 54.022154 173.826339 
L 54.259891 173.976589 
L 54.420537 174.077782 
L 54.670453 174.234674 
L 54.705147 174.256404 
L 55.008774 174.446046 
L 55.068373 174.483161 
L 55.343978 174.654329 
L 55.453649 174.722231 
L 55.680832 174.862512 
L 55.905013 175.000445 
L 55.945838 175.025511 
L 56.110706 175.126574 
L 56.369611 175.284757 
L 56.468602 175.34507 
L 56.660164 175.461521 
L 56.852819 175.578291 
L 57.133859 175.748016 
L 57.204704 175.790686 
L 57.419137 175.919563 
L 57.580724 176.016403 
L 57.723909 176.10202 
L 57.886369 176.198941 
L 58.140513 176.350093 
L 58.249707 176.414862 
L 58.475527 176.54848 
L 58.620209 176.633857 
L 58.873502 176.782897 
L 58.979977 176.845385 
L 58.979977 136.018462 
z
" style="fill:#cde0eb;opacity:0.5;"/>
   </g>
   <g id="matplotlib.axis_1">
    <g id="xtick_1">
     <g id="line2d_1">
      <defs>
       <path d="M 0 0 
L 0 3.5 
" id="m047adc14ec" style="stroke:#000000;stroke-width:0.8;"/>
      </defs>
      <g>
       <use style="stroke:#000000;stroke-width:0.8;" x="24.170313" xlink:href="#m047adc14ec" y="136.018462"/>
      </g>
     </g>
    </g>
    <g id="xtick_2">
     <g id="line2d_2">
      <g>
       <use style="stroke:#000000;stroke-width:0.8;" x="163.408971" xlink:href="#m047adc14ec" y="136.018462"/>
      </g>
     </g>
     <g id="text_1">
      <!-- 4 -->
      <defs>
       <path d="M 37.796875 64.3125 
L 12.890625 25.390625 
L 37.796875 25.390625 
z
M 35.203125 72.90625 
L 47.609375 72.90625 
L 47.609375 25.390625 
L 58.015625 25.390625 
L 58.015625 17.1875 
L 47.609375 17.1875 
L 47.609375 0 
L 37.796875 0 
L 37.796875 17.1875 
L 4.890625 17.1875 
L 4.890625 26.703125 
z
" id="DejaVuSans-52"/>
      </defs>
      <g transform="translate(160.227721 150.616899)scale(0.1 -0.1)">
       <use xlink:href="#DejaVuSans-52"/>
      </g>
     </g>
    </g>
    <g id="text_2">
     <!-- $x$ -->
     <defs>
      <path d="M 7.8125 2.875 
Q 9.578125 1.515625 12.796875 1.515625 
Q 15.921875 1.515625 18.3125 4.515625 
Q 20.703125 7.515625 21.578125 11.078125 
L 26.125 28.8125 
Q 27.203125 33.640625 27.203125 35.40625 
Q 27.203125 37.890625 25.8125 39.75 
Q 24.421875 41.609375 21.921875 41.609375 
Q 18.75 41.609375 15.96875 39.625 
Q 13.1875 37.640625 11.28125 34.59375 
Q 9.375 31.546875 8.59375 28.421875 
Q 8.40625 27.78125 7.8125 27.78125 
L 6.59375 27.78125 
Q 5.8125 27.78125 5.8125 28.71875 
L 5.8125 29 
Q 6.78125 32.71875 9.125 36.25 
Q 11.46875 39.796875 14.859375 41.984375 
Q 18.265625 44.1875 22.125 44.1875 
Q 25.78125 44.1875 28.734375 42.234375 
Q 31.6875 40.28125 32.90625 36.921875 
Q 34.625 39.984375 37.28125 42.078125 
Q 39.9375 44.1875 43.109375 44.1875 
Q 45.265625 44.1875 47.5 43.421875 
Q 49.75 42.671875 51.171875 41.109375 
Q 52.59375 39.546875 52.59375 37.203125 
Q 52.59375 34.671875 50.953125 32.828125 
Q 49.3125 31 46.78125 31 
Q 45.171875 31 44.09375 32.03125 
Q 43.015625 33.0625 43.015625 34.625 
Q 43.015625 36.71875 44.453125 38.296875 
Q 45.90625 39.890625 47.90625 40.1875 
Q 46.09375 41.609375 42.921875 41.609375 
Q 39.703125 41.609375 37.328125 38.625 
Q 34.96875 35.640625 33.984375 31.984375 
L 29.59375 14.3125 
Q 28.515625 10.296875 28.515625 7.71875 
Q 28.515625 5.171875 29.953125 3.34375 
Q 31.390625 1.515625 33.796875 1.515625 
Q 38.484375 1.515625 42.15625 5.640625 
Q 45.84375 9.765625 47.015625 14.703125 
Q 47.21875 15.28125 47.796875 15.28125 
L 49.03125 15.28125 
Q 49.421875 15.28125 49.65625 15.015625 
Q 49.90625 14.75 49.90625 14.40625 
Q 49.90625 14.3125 49.8125 14.109375 
Q 48.390625 8.15625 43.84375 3.515625 
Q 39.3125 -1.125 33.59375 -1.125 
Q 29.9375 -1.125 26.984375 0.84375 
Q 24.03125 2.828125 22.796875 6.203125 
Q 21.234375 3.265625 18.46875 1.0625 
Q 15.71875 -1.125 12.59375 -1.125 
Q 10.453125 -1.125 8.171875 -0.359375 
Q 5.90625 0.390625 4.484375 1.953125 
Q 3.078125 3.515625 3.078125 5.90625 
Q 3.078125 8.25 4.703125 10.171875 
Q 6.34375 12.109375 8.796875 12.109375 
Q 10.453125 12.109375 11.578125 11.109375 
Q 12.703125 10.109375 12.703125 8.5 
Q 12.703125 6.390625 11.296875 4.828125 
Q 9.90625 3.265625 7.8125 2.875 
z
" id="Cmmi10-120"/>
     </defs>
     <g transform="translate(191.946673 136.018462)scale(0.16 -0.16)">
      <use transform="translate(0 0.8125)" xlink:href="#Cmmi10-120"/>
     </g>
    </g>
   </g>
   <g id="matplotlib.axis_2">
    <g id="ytick_1">
     <g id="line2d_3">
      <defs>
       <path d="M 0 0 
L -3.5 0 
" id="me5d7175511" style="stroke:#000000;stroke-width:0.8;"/>
      </defs>
      <g>
       <use style="stroke:#000000;stroke-width:0.8;" x="24.170313" xlink:href="#me5d7175511" y="176.845385"/>
      </g>
     </g>
     <g id="text_3">
      <!-- -1 -->
      <defs>
       <path d="M 4.890625 31.390625 
L 31.203125 31.390625 
L 31.203125 23.390625 
L 4.890625 23.390625 
z
" id="DejaVuSans-45"/>
       <path d="M 12.40625 8.296875 
L 28.515625 8.296875 
L 28.515625 63.921875 
L 10.984375 60.40625 
L 10.984375 69.390625 
L 28.421875 72.90625 
L 38.28125 72.90625 
L 38.28125 8.296875 
L 54.390625 8.296875 
L 54.390625 0 
L 12.40625 0 
z
" id="DejaVuSans-49"/>
      </defs>
      <g transform="translate(7.2 180.644603)scale(0.1 -0.1)">
       <use xlink:href="#DejaVuSans-45"/>
       <use x="36.083984" xlink:href="#DejaVuSans-49"/>
      </g>
     </g>
    </g>
    <g id="ytick_2">
     <g id="line2d_4">
      <g>
       <use style="stroke:#000000;stroke-width:0.8;" x="24.170313" xlink:href="#me5d7175511" y="54.364615"/>
      </g>
     </g>
     <g id="text_4">
      <!-- 2 -->
      <defs>
       <path d="M 19.1875 8.296875 
L 53.609375 8.296875 
L 53.609375 0 
L 7.328125 0 
L 7.328125 8.296875 
Q 12.9375 14.109375 22.625 23.890625 
Q 32.328125 33.6875 34.8125 36.53125 
Q 39.546875 41.84375 41.421875 45.53125 
Q 43.3125 49.21875 43.3125 52.78125 
Q 43.3125 58.59375 39.234375 62.25 
Q 35.15625 65.921875 28.609375 65.921875 
Q 23.96875 65.921875 18.8125 64.3125 
Q 13.671875 62.703125 7.8125 59.421875 
L 7.8125 69.390625 
Q 13.765625 71.78125 18.9375 73 
Q 24.125 74.21875 28.421875 74.21875 
Q 39.75 74.21875 46.484375 68.546875 
Q 53.21875 62.890625 53.21875 53.421875 
Q 53.21875 48.921875 51.53125 44.890625 
Q 49.859375 40.875 45.40625 35.40625 
Q 44.1875 33.984375 37.640625 27.21875 
Q 31.109375 20.453125 19.1875 8.296875 
z
" id="DejaVuSans-50"/>
      </defs>
      <g transform="translate(10.807813 58.163834)scale(0.1 -0.1)">
       <use xlink:href="#DejaVuSans-50"/>
      </g>
     </g>
    </g>
    <g id="text_5">
     <!-- $y$ -->
     <defs>
      <path d="M 8.40625 -14.3125 
Q 10.5 -17.921875 15.71875 -17.921875 
Q 20.453125 -17.921875 23.921875 -14.59375 
Q 27.390625 -11.28125 29.515625 -6.5625 
Q 31.640625 -1.859375 32.8125 3.078125 
Q 28.375 -1.125 23.1875 -1.125 
Q 19.234375 -1.125 16.453125 0.234375 
Q 13.671875 1.609375 12.125 4.3125 
Q 10.59375 7.03125 10.59375 10.890625 
Q 10.59375 14.15625 11.46875 17.59375 
Q 12.359375 21.046875 13.9375 25.265625 
Q 15.53125 29.5 16.703125 32.625 
Q 18.015625 36.28125 18.015625 38.625 
Q 18.015625 41.609375 15.828125 41.609375 
Q 11.859375 41.609375 9.296875 37.53125 
Q 6.734375 33.453125 5.515625 28.421875 
Q 5.328125 27.78125 4.6875 27.78125 
L 3.515625 27.78125 
Q 2.6875 27.78125 2.6875 28.71875 
L 2.6875 29 
Q 4.296875 34.96875 7.609375 39.578125 
Q 10.9375 44.1875 16.015625 44.1875 
Q 19.578125 44.1875 22.046875 41.84375 
Q 24.515625 39.5 24.515625 35.890625 
Q 24.515625 34.03125 23.6875 31.984375 
Q 23.25 30.765625 21.6875 26.65625 
Q 20.125 22.5625 19.28125 19.875 
Q 18.453125 17.1875 17.921875 14.59375 
Q 17.390625 12.015625 17.390625 9.421875 
Q 17.390625 6.109375 18.796875 3.8125 
Q 20.21875 1.515625 23.296875 1.515625 
Q 29.5 1.515625 34.421875 9.078125 
L 42 39.890625 
Q 42.328125 41.21875 43.546875 42.15625 
Q 44.78125 43.109375 46.1875 43.109375 
Q 47.40625 43.109375 48.3125 42.328125 
Q 49.21875 41.546875 49.21875 40.28125 
Q 49.21875 39.703125 49.125 39.5 
L 39.203125 -0.296875 
Q 37.890625 -5.421875 34.375 -10.109375 
Q 30.859375 -14.796875 25.90625 -17.65625 
Q 20.953125 -20.515625 15.578125 -20.515625 
Q 12.984375 -20.515625 10.4375 -19.5 
Q 7.90625 -18.5 6.34375 -16.5 
Q 4.78125 -14.5 4.78125 -11.8125 
Q 4.78125 -9.078125 6.390625 -7.078125 
Q 8.015625 -5.078125 10.6875 -5.078125 
Q 12.3125 -5.078125 13.40625 -6.078125 
Q 14.5 -7.078125 14.5 -8.6875 
Q 14.5 -10.984375 12.78125 -12.6875 
Q 11.078125 -14.40625 8.796875 -14.40625 
Q 8.6875 -14.359375 8.59375 -14.328125 
Q 8.5 -14.3125 8.40625 -14.3125 
z
" id="Cmmi10-121"/>
     </defs>
     <g transform="translate(20.170313 19.325)scale(0.16 -0.16)">
      <use transform="translate(0 0.8125)" xlink:href="#Cmmi10-121"/>
     </g>
    </g>
   </g>
   <g id="line2d_5">
    <path clip-path="url(#pe2918ffb4c)" d="M 24.170313 136.018462 
L 24.345244 133.124248 
L 24.730093 130.841136 
L 25.429792 128.252553 
L 26.251362 126.035995 
L 27.536691 123.322131 
L 28.728336 121.244907 
L 30.253087 118.951839 
L 32.292394 116.297395 
L 34.923239 113.327126 
L 38.050992 110.237323 
L 40.818527 107.783931 
L 44.38109 104.909305 
L 48.652797 101.779193 
L 53.335847 98.647721 
L 57.902704 95.82825 
L 63.171326 92.803446 
L 69.968136 89.189002 
L 76.934262 85.753497 
L 84.988072 82.053492 
L 93.349563 78.46325 
L 103.080063 74.548624 
L 113.294827 70.69107 
L 124.072741 66.853721 
L 136.615575 62.640218 
L 149.563802 58.530502 
L 164.026369 54.183785 
L 177.332837 50.379185 
L 177.332837 50.379185 
" style="fill:none;stroke:#ff0000;stroke-linecap:square;stroke-width:1.5;"/>
   </g>
   <g id="line2d_6">
    <path clip-path="url(#pe2918ffb4c)" d="M 24.170313 136.018462 
L 24.320907 138.703813 
L 24.681475 140.965853 
L 25.231274 143.146114 
L 26.097666 145.625232 
L 27.174138 148.011634 
L 28.508723 150.431716 
L 30.081391 152.842495 
L 31.945779 155.314135 
L 34.195035 157.927984 
L 36.694281 160.507273 
L 39.606489 163.205794 
L 43.12573 166.145983 
L 46.991737 169.075817 
L 51.191833 171.989388 
L 56.053865 175.091761 
L 61.615399 178.362683 
L 67.719072 181.683584 
L 74.517924 185.11899 
L 76.38481 186.021026 
L 76.38481 186.021026 
" style="fill:none;stroke:#ff0000;stroke-linecap:square;stroke-width:1.5;"/>
   </g>
   <g id="line2d_7">
    <path clip-path="url(#pe2918ffb4c)" d="M 41.575145 197.258846 
L 180.813804 33.951154 
L 180.813804 33.951154 
" style="fill:none;stroke:#0000ff;stroke-linecap:square;stroke-width:1.5;"/>
   </g>
   <g id="line2d_8">
    <path clip-path="url(#pe2918ffb4c)" d="M 58.979977 176.845385 
L 163.408971 54.364615 
L 163.408971 54.364615 
" style="fill:none;stroke:#0000ff;stroke-linecap:square;stroke-width:1.5;"/>
   </g>
   <g id="line2d_9">
    <path clip-path="url(#pe2918ffb4c)" d="M 24.170313 136.018462 
L 24.300957 133.517298 
L 24.65593 131.196278 
L 25.20936 128.964804 
L 26.005173 126.645039 
L 27.055932 124.263633 
L 28.401653 121.784174 
L 29.94012 119.396687 
L 31.896447 116.784096 
L 34.144991 114.163695 
L 36.748366 111.476829 
L 39.779961 108.67879 
L 43.251261 105.791346 
L 47.032678 102.931467 
L 51.38819 99.917077 
L 56.30128 96.793851 
L 58.979977 95.191538 
L 58.979977 95.191538 
" style="fill:none;stroke:#ff0000;stroke-linecap:square;stroke-width:1.5;"/>
   </g>
   <g id="line2d_10">
    <path clip-path="url(#pe2918ffb4c)" d="M 24.170313 136.018462 
L 24.297447 138.4858 
L 24.641786 140.769902 
L 25.203986 143.053856 
L 26.021681 145.433956 
L 27.062861 147.787393 
L 28.351815 150.168672 
L 29.931025 152.627131 
L 31.924047 155.287152 
L 34.16023 157.889917 
L 36.73076 160.542912 
L 39.691582 163.280627 
L 43.168212 166.179725 
L 46.965717 169.056966 
L 51.256163 172.03218 
L 56.110706 175.126574 
L 58.979977 176.845385 
L 58.979977 176.845385 
" style="fill:none;stroke:#ff0000;stroke-linecap:square;stroke-width:1.5;"/>
   </g>
   <g id="patch_6">
    <path d="M 24.170313 200.525 
L 24.170313 30.685 
" style="fill:none;stroke:#000000;stroke-linecap:square;stroke-linejoin:miter;stroke-width:0.8;"/>
   </g>
   <g id="patch_7">
    <path d="M 21.037443 136.018462 
L 183.946673 136.018462 
" style="fill:none;stroke:#000000;stroke-linecap:square;stroke-linejoin:miter;stroke-width:0.8;"/>
   </g>
   <g id="text_6">
    <!-- $x=y^2$ -->
    <defs>
     <path d="M 7.515625 13.28125 
Q 6.6875 13.28125 6.140625 13.90625 
Q 5.609375 14.546875 5.609375 15.28125 
Q 5.609375 16.109375 6.140625 16.6875 
Q 6.6875 17.28125 7.515625 17.28125 
L 70.3125 17.28125 
Q 71.046875 17.28125 71.578125 16.6875 
Q 72.125 16.109375 72.125 15.28125 
Q 72.125 14.546875 71.578125 13.90625 
Q 71.046875 13.28125 70.3125 13.28125 
z
M 7.515625 32.71875 
Q 6.6875 32.71875 6.140625 33.296875 
Q 5.609375 33.890625 5.609375 34.71875 
Q 5.609375 35.453125 6.140625 36.078125 
Q 6.6875 36.71875 7.515625 36.71875 
L 70.3125 36.71875 
Q 71.046875 36.71875 71.578125 36.078125 
Q 72.125 35.453125 72.125 34.71875 
Q 72.125 33.890625 71.578125 33.296875 
Q 71.046875 32.71875 70.3125 32.71875 
z
" id="Cmr10-61"/>
     <path d="M 4.984375 0 
L 4.984375 2.6875 
Q 4.984375 2.9375 5.171875 3.21875 
L 20.703125 20.40625 
Q 24.21875 24.21875 26.40625 26.796875 
Q 28.609375 29.390625 30.75 32.765625 
Q 32.90625 36.140625 34.15625 39.625 
Q 35.40625 43.109375 35.40625 47.015625 
Q 35.40625 51.125 33.890625 54.859375 
Q 32.375 58.59375 29.375 60.84375 
Q 26.375 63.09375 22.125 63.09375 
Q 17.78125 63.09375 14.3125 60.46875 
Q 10.84375 57.859375 9.421875 53.71875 
Q 9.8125 53.8125 10.5 53.8125 
Q 12.75 53.8125 14.328125 52.296875 
Q 15.921875 50.78125 15.921875 48.390625 
Q 15.921875 46.09375 14.328125 44.5 
Q 12.75 42.921875 10.5 42.921875 
Q 8.15625 42.921875 6.5625 44.546875 
Q 4.984375 46.1875 4.984375 48.390625 
Q 4.984375 52.15625 6.390625 55.4375 
Q 7.8125 58.734375 10.46875 61.296875 
Q 13.140625 63.875 16.484375 65.234375 
Q 19.828125 66.609375 23.578125 66.609375 
Q 29.296875 66.609375 34.21875 64.1875 
Q 39.15625 61.765625 42.03125 57.34375 
Q 44.921875 52.9375 44.921875 47.015625 
Q 44.921875 42.671875 43.015625 38.765625 
Q 41.109375 34.859375 38.125 31.65625 
Q 35.15625 28.46875 30.515625 24.40625 
Q 25.875 20.359375 24.421875 19 
L 13.09375 8.109375 
L 22.703125 8.109375 
Q 29.78125 8.109375 34.546875 8.21875 
Q 39.3125 8.34375 39.59375 8.59375 
Q 40.765625 9.859375 42 17.828125 
L 44.921875 17.828125 
L 42.09375 0 
z
" id="Cmr10-50"/>
    </defs>
    <g style="fill:#ff0000;" transform="translate(77.769642 58.204615)scale(0.12 -0.12)">
     <use transform="translate(0 0.109375)" xlink:href="#Cmmi10-120"/>
     <use transform="translate(74.638672 0.109375)" xlink:href="#Cmr10-61"/>
     <use transform="translate(169.882812 0.109375)" xlink:href="#Cmmi10-121"/>
     <use transform="translate(225.209531 38.373438)scale(0.7)" xlink:href="#Cmr10-50"/>
    </g>
   </g>
   <g id="text_7">
    <!-- $x=y+2$ -->
    <defs>
     <path d="M 7.515625 23 
Q 6.6875 23 6.140625 23.625 
Q 5.609375 24.265625 5.609375 25 
Q 5.609375 25.734375 6.140625 26.359375 
Q 6.6875 27 7.515625 27 
L 36.921875 27 
L 36.921875 56.5 
Q 36.921875 57.28125 37.5 57.78125 
Q 38.09375 58.296875 38.921875 58.296875 
Q 39.65625 58.296875 40.28125 57.78125 
Q 40.921875 57.28125 40.921875 56.5 
L 40.921875 27 
L 70.3125 27 
Q 71.046875 27 71.578125 26.359375 
Q 72.125 25.734375 72.125 25 
Q 72.125 24.265625 71.578125 23.625 
Q 71.046875 23 70.3125 23 
L 40.921875 23 
L 40.921875 -6.5 
Q 40.921875 -7.28125 40.28125 -7.78125 
Q 39.65625 -8.296875 38.921875 -8.296875 
Q 38.09375 -8.296875 37.5 -7.78125 
Q 36.921875 -7.28125 36.921875 -6.5 
L 36.921875 23 
z
" id="Cmr10-43"/>
    </defs>
    <g style="fill:#0000ff;" transform="translate(88.274474 180.13226)scale(0.12 -0.12)">
     <use transform="translate(0 0.390625)" xlink:href="#Cmmi10-120"/>
     <use transform="translate(74.638672 0.390625)" xlink:href="#Cmr10-61"/>
     <use transform="translate(169.882812 0.390625)" xlink:href="#Cmmi10-121"/>
     <use transform="translate(236.464844 0.390625)" xlink:href="#Cmr10-43"/>
     <use transform="translate(331.708984 0.390625)" xlink:href="#Cmr10-50"/>
    </g>
   </g>
  </g>
 </g>
 <defs>
  <clipPath id="pe2918ffb4c">
   <rect height="169.84" width="162.909231" x="21.037443" y="30.685"/>
  </clipPath>
 </defs>
</svg>
