<?xml version="1.0" encoding="utf-8" standalone="no"?>
<!DOCTYPE svg PUBLIC "-//W3C//DTD SVG 1.1//EN"
  "http://www.w3.org/Graphics/SVG/1.1/DTD/svg11.dtd">
<!-- Created with matplotlib (https://matplotlib.org/) -->
<svg height="243.937038pt" version="1.1" viewBox="0 0 244.226212 243.937038" width="244.226212pt" xmlns="http://www.w3.org/2000/svg" xmlns:xlink="http://www.w3.org/1999/xlink">
 <defs>
  <style type="text/css">
*{stroke-linecap:butt;stroke-linejoin:round;}
  </style>
 </defs>
 <g id="figure_1">
  <g id="patch_1">
   <path d="M 0 243.937038 
L 244.226212 243.937038 
L 244.226212 0 
L 0 0 
z
" style="fill:#ffffff;"/>
  </g>
  <g id="axes_1">
   <g id="patch_2">
    <path d="M 29.33831 234.856538 
L 219.746212 234.856538 
L 219.746212 30.685 
L 29.33831 30.685 
z
" style="fill:#ffffff;"/>
   </g>
   <g id="patch_3">
    <path clip-path="url(#pbaab414ac9)" d="M 197.306622 145.726409 
L 196.513925 146.120581 
L 195.76883 146.491083 
L 195.265576 146.741328 
L 194.674836 147.035076 
L 193.829903 147.455223 
L 192.848949 147.943007 
L 192.121851 148.30456 
L 191.909141 148.410331 
L 190.620424 149.051151 
L 190.409747 149.155911 
L 189.873814 149.422407 
L 189.000126 149.856852 
L 188.378117 150.166149 
L 187.662422 150.522032 
L 186.494292 151.10289 
L 186.140596 151.278767 
L 185.425168 151.634517 
L 184.645587 152.022167 
L 184.201479 152.243001 
L 183.160951 152.760409 
L 182.096256 153.289833 
L 181.494264 153.589177 
L 181.287342 153.69207 
L 180.555331 154.056065 
L 179.670682 154.495961 
L 178.987566 154.835644 
L 178.435859 155.109983 
L 177.2958 155.676882 
L 176.48246 156.08132 
L 176.157436 156.242939 
L 175.225042 156.706576 
L 174.512235 157.061023 
L 173.966446 157.332419 
L 173.04105 157.792577 
L 172.787209 157.9188 
L 171.523017 158.547426 
L 171.062969 158.776187 
L 170.68229 158.965481 
L 169.779935 159.414181 
L 169.272505 159.666503 
L 168.605469 159.99819 
L 167.788585 160.404389 
L 166.550079 161.020242 
L 166.475536 161.057309 
L 165.195649 161.693739 
L 164.532782 162.023352 
L 164.032101 162.272319 
L 163.619414 162.477529 
L 162.884029 162.843202 
L 162.234797 163.166036 
L 161.003676 163.778217 
L 160.663634 163.947304 
L 159.465525 164.543069 
L 158.97355 164.787706 
L 158.077886 165.23308 
L 157.992275 165.27565 
L 157.151851 165.693555 
L 155.994384 166.26911 
L 155.849323 166.341242 
L 155.113745 166.707012 
L 153.954612 167.283396 
L 153.562621 167.478316 
L 152.421137 168.045924 
L 152.17455 168.16854 
L 151.23454 168.635965 
L 150.458182 169.022013 
L 149.953067 169.273183 
L 149.293455 169.601178 
L 148.405607 170.042665 
L 147.950891 170.268775 
L 147.066801 170.708393 
L 146.614239 170.933431 
L 145.331554 171.571252 
L 145.190762 171.641261 
L 144.153625 172.156983 
L 143.447257 172.508228 
L 143.107445 172.6772 
L 142.223516 173.116739 
L 141.631826 173.410959 
L 140.428952 174.009094 
L 140.048194 174.198428 
L 139.540893 174.450685 
L 138.416414 175.009837 
L 137.717616 175.357318 
L 137.402867 175.513828 
L 136.496978 175.964286 
L 135.893501 176.264368 
L 135.031134 176.693184 
L 134.369096 177.022385 
L 133.601873 177.40389 
L 133.153266 177.626963 
L 132.480291 177.961602 
L 131.153382 178.621414 
L 130.690851 178.85141 
L 130.273668 179.058856 
L 129.211292 179.587127 
L 128.494992 179.94331 
L 128.176341 180.101761 
L 127.088581 180.642655 
L 126.227084 181.071039 
L 125.72171 181.322338 
L 125.217396 181.573111 
L 124.180623 182.088651 
L 123.528349 182.412997 
L 123.316402 182.518388 
L 122.62651 182.861441 
L 121.358349 183.49204 
L 120.635442 183.851508 
L 119.917311 184.208602 
L 119.785153 184.274319 
L 118.516003 184.905409 
L 118.041985 185.141117 
L 117.619151 185.351373 
L 116.377951 185.968566 
L 115.692945 186.309188 
L 115.41027 186.449749 
L 114.590586 186.857341 
L 113.617343 187.341291 
L 112.982303 187.657067 
L 112.319309 187.986744 
L 111.399858 188.443945 
L 111.064816 188.610546 
L 110.490793 188.895982 
L 109.310107 189.483084 
L 108.81224 189.73065 
L 108.260327 190.005092 
L 107.335167 190.465132 
L 106.990261 190.636638 
L 106.13793 191.060464 
L 105.338544 191.457962 
L 104.626085 191.812235 
L 103.964711 192.141107 
L 103.295863 192.473695 
L 102.793092 192.7237 
L 101.495994 193.368688 
L 101.246511 193.492744 
L 100.292636 193.967063 
L 99.316011 194.452695 
L 99.102042 194.559092 
L 98.353615 194.93125 
L 97.697572 195.257471 
L 96.49507 195.855421 
L 95.873679 196.16441 
L 95.712149 196.244732 
L 94.622471 196.786579 
L 94.309225 196.942342 
L 93.202164 197.492833 
L 92.677754 197.753598 
L 91.740712 198.219547 
L 91.393395 198.392252 
L 90.72075 198.726728 
L 89.75107 199.208906 
L 88.975622 199.594501 
L 88.622788 199.769949 
L 87.285267 200.435038 
L 87.202559 200.476164 
L 86.431126 200.859763 
L 85.303733 201.420365 
L 84.752669 201.694384 
L 84.063399 202.037127 
L 83.676143 202.229691 
L 82.878503 202.626322 
L 82.16316 202.982029 
L 81.393213 203.364889 
L 80.358814 203.879249 
L 79.947698 204.083678 
L 79.066038 204.522087 
L 78.264366 204.920723 
L 77.798794 205.152231 
L 76.66279 205.717114 
L 76.296358 205.899323 
L 75.293518 206.39799 
L 74.66585 206.710101 
L 73.890173 207.09581 
L 73.15359 207.46208 
L 73.010217 207.533373 
L 72.038948 208.01634 
L 71.608319 208.230473 
L 70.590326 208.736674 
L 69.958504 209.050851 
L 69.274774 209.390839 
L 68.755604 209.648998 
L 67.773079 210.137564 
L 67.30222 210.3717 
L 66.490713 210.775226 
L 65.639666 211.198413 
L 65.132752 211.450478 
L 63.905876 212.060548 
L 63.831222 212.09767 
L 63.131012 212.445853 
L 61.955086 213.030588 
L 61.487357 213.263168 
L 60.914944 213.547803 
L 59.790966 214.106706 
L 58.95203 214.523871 
L 58.699026 214.649679 
L 57.604032 215.194169 
L 56.978251 215.505342 
L 56.472375 215.756891 
L 56.472375 145.726409 
L 57.195819 146.440337 
L 57.793439 147.021733 
L 58.576249 147.771846 
L 59.257089 148.413693 
L 60.229115 149.313031 
L 61.042755 150.050437 
L 61.311799 150.291188 
L 61.872606 150.78809 
L 62.563633 151.39121 
L 63.182338 151.922624 
L 63.801043 152.44593 
L 64.563232 153.079446 
L 65.107454 153.524261 
L 65.463087 153.811546 
L 66.231279 154.422955 
L 66.887352 154.935231 
L 67.959442 155.752716 
L 68.719047 156.317188 
L 69.083839 156.583926 
L 69.734461 157.052665 
L 70.317466 157.465071 
L 70.90047 157.870277 
L 71.603384 158.349249 
L 72.252003 158.781938 
L 73.031395 159.290077 
L 73.60557 159.656188 
L 74.505278 160.215822 
L 74.725792 160.35037 
L 75.824881 161.005619 
L 76.612616 161.459503 
L 76.820274 161.576963 
L 77.410342 161.905746 
L 78.080282 162.270093 
L 78.708198 162.602952 
L 79.336115 162.927459 
L 79.523929 163.022899 
L 80.414917 163.465481 
L 81.05095 163.771131 
L 81.629132 164.041545 
L 82.207314 164.304876 
L 82.732776 164.538053 
L 83.030999 164.66779 
L 83.733865 164.966107 
L 84.726568 165.369609 
L 85.288646 165.588819 
L 86.263212 165.953037 
L 86.69523 166.108055 
L 87.635552 166.431796 
L 88.39382 166.679216 
L 89.327425 166.967116 
L 89.498497 167.017869 
L 90.3478 167.260655 
L 90.914158 167.414065 
L 91.98025 167.684403 
L 92.453813 167.796766 
L 93.171853 167.958072 
L 94.060474 168.142577 
L 94.400528 168.208756 
L 95.042394 168.326998 
L 95.684259 168.436511 
L 96.162166 168.512381 
L 96.463526 168.557737 
L 97.206211 168.661299 
L 98.350642 168.798006 
L 99.114836 168.873842 
L 99.741134 168.92677 
L 100.216586 168.961401 
L 100.913827 169.003526 
L 101.807501 169.042459 
L 102.206359 169.054375 
L 102.821097 169.06614 
L 103.435836 169.069899 
L 103.881561 169.067618 
L 104.926345 169.045776 
L 104.970512 169.044343 
L 106.10505 168.993374 
L 106.86939 168.943662 
L 107.593184 168.885178 
L 108.129974 168.834637 
L 108.872975 168.754608 
L 109.435383 168.686254 
L 109.974635 168.614422 
L 111.108468 168.443294 
L 111.364799 168.400832 
L 112.035549 168.283133 
L 112.706298 168.155903 
L 113.261133 168.043457 
L 114.119454 167.856658 
L 114.185629 167.841608 
L 114.772009 167.704196 
L 115.35839 167.559501 
L 116.080919 167.371191 
L 116.877632 167.150727 
L 117.470932 166.977815 
L 117.865633 166.858653 
L 118.981628 166.503869 
L 119.544451 166.314934 
L 120.341196 166.036001 
L 121.011752 165.790823 
L 121.531625 165.594184 
L 122.184668 165.339062 
L 122.99375 165.01045 
L 123.369183 164.853255 
L 124.030942 164.568906 
L 124.6927 164.275279 
L 124.81693 164.219124 
L 125.519712 163.895287 
L 126.609214 163.37257 
L 127.280617 163.037923 
L 128.208778 162.559575 
L 128.310874 162.505844 
L 129.124856 162.069559 
L 129.723422 161.739779 
L 130.321988 161.402409 
L 130.542069 161.276456 
L 131.154194 160.92074 
L 131.76632 160.557085 
L 132.049202 160.386348 
L 132.686333 159.995589 
L 133.63547 159.397526 
L 134.401788 158.900735 
L 134.796786 158.639806 
L 135.441731 158.206661 
L 136.086676 157.764705 
L 136.389269 157.554311 
L 137.483216 156.777509 
L 138.183784 156.266725 
L 138.221082 156.23924 
L 138.894894 155.737622 
L 139.568707 155.226385 
L 140.202853 154.736459 
L 140.813147 154.256915 
L 141.519177 153.692302 
L 142.079573 153.236635 
L 142.838984 152.60853 
L 143.48832 152.061778 
L 144.338963 151.332007 
L 144.623924 151.084109 
L 145.327 150.465121 
L 146.335433 149.559015 
L 146.936073 149.009085 
L 147.727657 148.272659 
L 148.271402 147.759112 
L 149.087399 146.97668 
L 149.61432 146.463937 
L 150.258704 145.828898 
L 151.23735 144.84762 
L 152.087706 143.978502 
L 152.978805 143.051306 
L 153.450259 142.553949 
L 154.478657 141.45271 
L 154.551618 141.37373 
L 155.487308 140.350854 
L 156.265947 139.485523 
L 156.887679 138.785347 
L 157.408511 138.192497 
L 157.994351 137.518785 
L 158.58019 136.837801 
L 158.851098 136.520438 
L 159.720476 135.491477 
L 160.239147 134.869973 
L 160.877713 134.096976 
L 161.51628 133.31534 
L 162.187615 132.484279 
L 162.786636 131.734677 
L 163.597662 130.707662 
L 164.19376 129.94393 
L 164.485851 129.56695 
L 165.524532 128.211759 
L 165.883415 127.738202 
L 166.911456 126.366573 
L 167.4072 125.697141 
L 167.977076 124.921171 
L 168.716966 123.903439 
L 169.480122 122.841554 
L 170.158174 121.887734 
L 170.739899 121.061656 
L 171.321624 120.228409 
L 171.536842 119.918319 
L 172.325123 118.774175 
L 173.391725 117.205105 
L 173.954257 116.367861 
L 174.542962 115.484486 
L 175.131926 114.593373 
L 175.72089 113.694912 
L 175.824363 113.536306 
L 176.440714 112.586846 
L 177.057066 111.629339 
L 177.24867 111.33004 
L 178.217451 109.80483 
L 178.910672 108.701248 
L 179.748218 107.354325 
L 180.104574 106.776735 
L 180.712455 105.785258 
L 181.320335 104.785954 
L 181.865065 103.883814 
L 182.511245 102.805508 
L 182.929553 102.102745 
L 183.70887 100.783596 
L 184.576054 99.30059 
L 185.346412 97.969806 
L 186.065189 96.716792 
L 186.572656 95.825555 
L 187.512975 94.159701 
L 188.172017 92.980989 
L 188.935752 91.60352 
L 189.644349 90.314448 
L 190.043785 89.583109 
L 190.604622 88.550554 
L 191.497904 86.892174 
L 192.527858 84.959082 
L 192.8708 84.310437 
L 193.454253 83.201161 
L 194.073799 82.015368 
L 194.693345 80.821443 
L 195.364162 79.519547 
L 195.826763 78.616195 
L 196.61029 77.075806 
L 197.306622 75.695926 
z
" style="fill:#cde0eb;opacity:0.5;"/>
   </g>
   <g id="matplotlib.axis_1">
    <g id="xtick_1">
     <g id="line2d_1">
      <defs>
       <path d="M 0 0 
L 0 3.5 
" id="me260e44f37" style="stroke:#000000;stroke-width:0.8;"/>
      </defs>
      <g>
       <use style="stroke:#000000;stroke-width:0.8;" x="197.306622" xlink:href="#me260e44f37" y="192.413397"/>
      </g>
     </g>
     <g id="text_1">
      <!-- 2 -->
      <defs>
       <path d="M 19.1875 8.296875 
L 53.609375 8.296875 
L 53.609375 0 
L 7.328125 0 
L 7.328125 8.296875 
Q 12.9375 14.109375 22.625 23.890625 
Q 32.328125 33.6875 34.8125 36.53125 
Q 39.546875 41.84375 41.421875 45.53125 
Q 43.3125 49.21875 43.3125 52.78125 
Q 43.3125 58.59375 39.234375 62.25 
Q 35.15625 65.921875 28.609375 65.921875 
Q 23.96875 65.921875 18.8125 64.3125 
Q 13.671875 62.703125 7.8125 59.421875 
L 7.8125 69.390625 
Q 13.765625 71.78125 18.9375 73 
Q 24.125 74.21875 28.421875 74.21875 
Q 39.75 74.21875 46.484375 68.546875 
Q 53.21875 62.890625 53.21875 53.421875 
Q 53.21875 48.921875 51.53125 44.890625 
Q 49.859375 40.875 45.40625 35.40625 
Q 44.1875 33.984375 37.640625 27.21875 
Q 31.109375 20.453125 19.1875 8.296875 
z
" id="DejaVuSans-50"/>
      </defs>
      <g transform="translate(194.125372 207.011835)scale(0.1 -0.1)">
       <use xlink:href="#DejaVuSans-50"/>
      </g>
     </g>
    </g>
    <g id="text_2">
     <!-- $x$ -->
     <defs>
      <path d="M 7.8125 2.875 
Q 9.578125 1.515625 12.796875 1.515625 
Q 15.921875 1.515625 18.3125 4.515625 
Q 20.703125 7.515625 21.578125 11.078125 
L 26.125 28.8125 
Q 27.203125 33.640625 27.203125 35.40625 
Q 27.203125 37.890625 25.8125 39.75 
Q 24.421875 41.609375 21.921875 41.609375 
Q 18.75 41.609375 15.96875 39.625 
Q 13.1875 37.640625 11.28125 34.59375 
Q 9.375 31.546875 8.59375 28.421875 
Q 8.40625 27.78125 7.8125 27.78125 
L 6.59375 27.78125 
Q 5.8125 27.78125 5.8125 28.71875 
L 5.8125 29 
Q 6.78125 32.71875 9.125 36.25 
Q 11.46875 39.796875 14.859375 41.984375 
Q 18.265625 44.1875 22.125 44.1875 
Q 25.78125 44.1875 28.734375 42.234375 
Q 31.6875 40.28125 32.90625 36.921875 
Q 34.625 39.984375 37.28125 42.078125 
Q 39.9375 44.1875 43.109375 44.1875 
Q 45.265625 44.1875 47.5 43.421875 
Q 49.75 42.671875 51.171875 41.109375 
Q 52.59375 39.546875 52.59375 37.203125 
Q 52.59375 34.671875 50.953125 32.828125 
Q 49.3125 31 46.78125 31 
Q 45.171875 31 44.09375 32.03125 
Q 43.015625 33.0625 43.015625 34.625 
Q 43.015625 36.71875 44.453125 38.296875 
Q 45.90625 39.890625 47.90625 40.1875 
Q 46.09375 41.609375 42.921875 41.609375 
Q 39.703125 41.609375 37.328125 38.625 
Q 34.96875 35.640625 33.984375 31.984375 
L 29.59375 14.3125 
Q 28.515625 10.296875 28.515625 7.71875 
Q 28.515625 5.171875 29.953125 3.34375 
Q 31.390625 1.515625 33.796875 1.515625 
Q 38.484375 1.515625 42.15625 5.640625 
Q 45.84375 9.765625 47.015625 14.703125 
Q 47.21875 15.28125 47.796875 15.28125 
L 49.03125 15.28125 
Q 49.421875 15.28125 49.65625 15.015625 
Q 49.90625 14.75 49.90625 14.40625 
Q 49.90625 14.3125 49.8125 14.109375 
Q 48.390625 8.15625 43.84375 3.515625 
Q 39.3125 -1.125 33.59375 -1.125 
Q 29.9375 -1.125 26.984375 0.84375 
Q 24.03125 2.828125 22.796875 6.203125 
Q 21.234375 3.265625 18.46875 1.0625 
Q 15.71875 -1.125 12.59375 -1.125 
Q 10.453125 -1.125 8.171875 -0.359375 
Q 5.90625 0.390625 4.484375 1.953125 
Q 3.078125 3.515625 3.078125 5.90625 
Q 3.078125 8.25 4.703125 10.171875 
Q 6.34375 12.109375 8.796875 12.109375 
Q 10.453125 12.109375 11.578125 11.109375 
Q 12.703125 10.109375 12.703125 8.5 
Q 12.703125 6.390625 11.296875 4.828125 
Q 9.90625 3.265625 7.8125 2.875 
z
" id="Cmmi10-120"/>
     </defs>
     <g transform="translate(227.746212 192.413397)scale(0.16 -0.16)">
      <use transform="translate(0 0.8125)" xlink:href="#Cmmi10-120"/>
     </g>
    </g>
   </g>
   <g id="matplotlib.axis_2">
    <g id="ytick_1">
     <g id="line2d_2">
      <defs>
       <path d="M 0 0 
L -3.5 0 
" id="m5d5ff0b1b4" style="stroke:#000000;stroke-width:0.8;"/>
      </defs>
      <g>
       <use style="stroke:#000000;stroke-width:0.8;" x="103.417124" xlink:href="#m5d5ff0b1b4" y="215.756891"/>
      </g>
     </g>
     <g id="text_3">
      <!-- -1 -->
      <defs>
       <path d="M 4.890625 31.390625 
L 31.203125 31.390625 
L 31.203125 23.390625 
L 4.890625 23.390625 
z
" id="DejaVuSans-45"/>
       <path d="M 12.40625 8.296875 
L 28.515625 8.296875 
L 28.515625 63.921875 
L 10.984375 60.40625 
L 10.984375 69.390625 
L 28.421875 72.90625 
L 38.28125 72.90625 
L 38.28125 8.296875 
L 54.390625 8.296875 
L 54.390625 0 
L 12.40625 0 
z
" id="DejaVuSans-49"/>
      </defs>
      <g transform="translate(86.446811 219.55611)scale(0.1 -0.1)">
       <use xlink:href="#DejaVuSans-45"/>
       <use x="36.083984" xlink:href="#DejaVuSans-49"/>
      </g>
     </g>
    </g>
    <g id="ytick_2">
     <g id="line2d_3">
      <g>
       <use style="stroke:#000000;stroke-width:0.8;" x="103.417124" xlink:href="#m5d5ff0b1b4" y="145.726409"/>
      </g>
     </g>
     <g id="text_4">
      <!-- 2 -->
      <g transform="translate(90.054624 149.525627)scale(0.1 -0.1)">
       <use xlink:href="#DejaVuSans-50"/>
      </g>
     </g>
    </g>
    <g id="text_5">
     <!-- $y$ -->
     <defs>
      <path d="M 8.40625 -14.3125 
Q 10.5 -17.921875 15.71875 -17.921875 
Q 20.453125 -17.921875 23.921875 -14.59375 
Q 27.390625 -11.28125 29.515625 -6.5625 
Q 31.640625 -1.859375 32.8125 3.078125 
Q 28.375 -1.125 23.1875 -1.125 
Q 19.234375 -1.125 16.453125 0.234375 
Q 13.671875 1.609375 12.125 4.3125 
Q 10.59375 7.03125 10.59375 10.890625 
Q 10.59375 14.15625 11.46875 17.59375 
Q 12.359375 21.046875 13.9375 25.265625 
Q 15.53125 29.5 16.703125 32.625 
Q 18.015625 36.28125 18.015625 38.625 
Q 18.015625 41.609375 15.828125 41.609375 
Q 11.859375 41.609375 9.296875 37.53125 
Q 6.734375 33.453125 5.515625 28.421875 
Q 5.328125 27.78125 4.6875 27.78125 
L 3.515625 27.78125 
Q 2.6875 27.78125 2.6875 28.71875 
L 2.6875 29 
Q 4.296875 34.96875 7.609375 39.578125 
Q 10.9375 44.1875 16.015625 44.1875 
Q 19.578125 44.1875 22.046875 41.84375 
Q 24.515625 39.5 24.515625 35.890625 
Q 24.515625 34.03125 23.6875 31.984375 
Q 23.25 30.765625 21.6875 26.65625 
Q 20.125 22.5625 19.28125 19.875 
Q 18.453125 17.1875 17.921875 14.59375 
Q 17.390625 12.015625 17.390625 9.421875 
Q 17.390625 6.109375 18.796875 3.8125 
Q 20.21875 1.515625 23.296875 1.515625 
Q 29.5 1.515625 34.421875 9.078125 
L 42 39.890625 
Q 42.328125 41.21875 43.546875 42.15625 
Q 44.78125 43.109375 46.1875 43.109375 
Q 47.40625 43.109375 48.3125 42.328125 
Q 49.21875 41.546875 49.21875 40.28125 
Q 49.21875 39.703125 49.125 39.5 
L 39.203125 -0.296875 
Q 37.890625 -5.421875 34.375 -10.109375 
Q 30.859375 -14.796875 25.90625 -17.65625 
Q 20.953125 -20.515625 15.578125 -20.515625 
Q 12.984375 -20.515625 10.4375 -19.5 
Q 7.90625 -18.5 6.34375 -16.5 
Q 4.78125 -14.5 4.78125 -11.8125 
Q 4.78125 -9.078125 6.390625 -7.078125 
Q 8.015625 -5.078125 10.6875 -5.078125 
Q 12.3125 -5.078125 13.40625 -6.078125 
Q 14.5 -7.078125 14.5 -8.6875 
Q 14.5 -10.984375 12.78125 -12.6875 
Q 11.078125 -14.40625 8.796875 -14.40625 
Q 8.6875 -14.359375 8.59375 -14.328125 
Q 8.5 -14.3125 8.40625 -14.3125 
z
" id="Cmmi10-121"/>
     </defs>
     <g transform="translate(99.417124 19.325)scale(0.16 -0.16)">
      <use transform="translate(0 0.8125)" xlink:href="#Cmmi10-121"/>
     </g>
    </g>
   </g>
   <g id="line2d_4">
    <path clip-path="url(#pbaab414ac9)" d="M 56.472375 145.726409 
L 60.229115 149.313031 
L 63.801043 152.44593 
L 66.887352 154.935231 
L 70.90047 157.870277 
L 74.725792 160.35037 
L 78.708198 162.602952 
L 82.207314 164.304876 
L 85.288646 165.588819 
L 88.39382 166.679216 
L 91.98025 167.684403 
L 95.042394 168.326998 
L 98.350642 168.798006 
L 101.807501 169.042459 
L 104.970512 169.044343 
L 108.129974 168.834637 
L 111.364799 168.400832 
L 114.772009 167.704196 
L 117.865633 166.858653 
L 121.531625 165.594184 
L 124.81693 164.219124 
L 128.310874 162.505844 
L 132.049202 160.386348 
L 135.441731 158.206661 
L 138.894894 155.737622 
L 142.838984 152.60853 
L 146.335433 149.559015 
L 150.258704 145.828898 
L 154.551618 141.37373 
L 158.851098 136.520438 
L 162.786636 131.734677 
L 166.911456 126.366573 
L 171.321624 120.228409 
L 175.131926 114.593373 
L 179.748218 107.354325 
L 183.70887 100.783596 
L 188.172017 92.980989 
L 192.8708 84.310437 
L 197.306622 75.695926 
L 197.306622 75.695926 
" style="fill:none;stroke:#0000cc;stroke-linecap:square;stroke-width:1.5;"/>
   </g>
   <g id="line2d_5">
    <path clip-path="url(#pbaab414ac9)" d="M 56.472375 215.756891 
L 197.306622 145.726409 
L 197.306622 145.726409 
" style="fill:none;stroke:#3ccc00;stroke-linecap:square;stroke-width:1.5;"/>
   </g>
   <g id="line2d_6">
    <path clip-path="url(#pbaab414ac9)" d="M 44.736187 221.592765 
L 216.084521 136.389011 
L 216.084521 136.389011 
" style="fill:none;stroke:#0000ff;stroke-linecap:square;stroke-width:1.5;"/>
   </g>
   <g id="line2d_7">
    <path clip-path="url(#pbaab414ac9)" d="M 44.736187 132.595693 
L 48.592462 137.232052 
L 52.388124 141.487891 
L 56.54112 145.794726 
L 60.694979 149.736963 
L 64.780802 153.258028 
L 68.460006 156.126065 
L 72.028493 158.633843 
L 75.353748 160.727875 
L 78.785322 162.64326 
L 82.208172 164.305261 
L 85.648093 165.725495 
L 89.181247 166.923258 
L 92.101815 167.7137 
L 95.774576 168.45122 
L 98.948104 168.858351 
L 102.081378 169.051004 
L 105.554566 169.02151 
L 108.27657 168.819773 
L 111.541442 168.37076 
L 115.067311 167.632238 
L 118.7507 166.579448 
L 122.368036 165.265802 
L 125.986354 163.674482 
L 128.807347 162.24141 
L 132.312642 160.22582 
L 135.213393 158.36102 
L 139.15004 155.545168 
L 143.240782 152.271263 
L 146.46408 149.441872 
L 150.427775 145.660822 
L 154.440079 141.494425 
L 157.978116 137.537552 
L 162.174016 132.501209 
L 166.236293 127.26991 
L 170.26107 121.742139 
L 174.916877 114.919597 
L 179.653982 107.506615 
L 184.251638 99.857251 
L 188.327458 92.701638 
L 193.503542 83.10712 
L 198.109539 74.092079 
L 202.865703 64.31147 
L 207.812372 53.630709 
L 212.885731 42.137937 
L 216.084521 34.611376 
L 216.084521 34.611376 
" style="fill:none;stroke:#ff0000;stroke-linecap:square;stroke-width:1.5;"/>
   </g>
   <g id="line2d_8">
    <path clip-path="url(#pbaab414ac9)" d="M 56.472375 215.756891 
L 56.472375 145.726409 
" style="fill:none;stroke:#000000;stroke-linecap:square;"/>
   </g>
   <g id="line2d_9">
    <path clip-path="url(#pbaab414ac9)" d="M 197.306622 145.726409 
L 197.306622 75.695926 
" style="fill:none;stroke:#000000;stroke-linecap:square;"/>
   </g>
   <g id="line2d_10">
    <path clip-path="url(#pbaab414ac9)" d="M 197.306622 192.413397 
L 197.306622 145.726409 
" style="fill:none;stroke:#d3d3d3;stroke-dasharray:3.7,1.6;stroke-dashoffset:0;"/>
   </g>
   <g id="patch_4">
    <path d="M 103.417124 234.856538 
L 103.417124 30.685 
" style="fill:none;stroke:#000000;stroke-linecap:square;stroke-linejoin:miter;stroke-width:0.8;"/>
   </g>
   <g id="patch_5">
    <path d="M 29.33831 192.413397 
L 219.746212 192.413397 
" style="fill:none;stroke:#000000;stroke-linecap:square;stroke-linejoin:miter;stroke-width:0.8;"/>
   </g>
   <g id="text_6">
    <!-- $y=2-x^2$ -->
    <defs>
     <path d="M 7.515625 13.28125 
Q 6.6875 13.28125 6.140625 13.90625 
Q 5.609375 14.546875 5.609375 15.28125 
Q 5.609375 16.109375 6.140625 16.6875 
Q 6.6875 17.28125 7.515625 17.28125 
L 70.3125 17.28125 
Q 71.046875 17.28125 71.578125 16.6875 
Q 72.125 16.109375 72.125 15.28125 
Q 72.125 14.546875 71.578125 13.90625 
Q 71.046875 13.28125 70.3125 13.28125 
z
M 7.515625 32.71875 
Q 6.6875 32.71875 6.140625 33.296875 
Q 5.609375 33.890625 5.609375 34.71875 
Q 5.609375 35.453125 6.140625 36.078125 
Q 6.6875 36.71875 7.515625 36.71875 
L 70.3125 36.71875 
Q 71.046875 36.71875 71.578125 36.078125 
Q 72.125 35.453125 72.125 34.71875 
Q 72.125 33.890625 71.578125 33.296875 
Q 71.046875 32.71875 70.3125 32.71875 
z
" id="Cmr10-61"/>
     <path d="M 4.984375 0 
L 4.984375 2.6875 
Q 4.984375 2.9375 5.171875 3.21875 
L 20.703125 20.40625 
Q 24.21875 24.21875 26.40625 26.796875 
Q 28.609375 29.390625 30.75 32.765625 
Q 32.90625 36.140625 34.15625 39.625 
Q 35.40625 43.109375 35.40625 47.015625 
Q 35.40625 51.125 33.890625 54.859375 
Q 32.375 58.59375 29.375 60.84375 
Q 26.375 63.09375 22.125 63.09375 
Q 17.78125 63.09375 14.3125 60.46875 
Q 10.84375 57.859375 9.421875 53.71875 
Q 9.8125 53.8125 10.5 53.8125 
Q 12.75 53.8125 14.328125 52.296875 
Q 15.921875 50.78125 15.921875 48.390625 
Q 15.921875 46.09375 14.328125 44.5 
Q 12.75 42.921875 10.5 42.921875 
Q 8.15625 42.921875 6.5625 44.546875 
Q 4.984375 46.1875 4.984375 48.390625 
Q 4.984375 52.15625 6.390625 55.4375 
Q 7.8125 58.734375 10.46875 61.296875 
Q 13.140625 63.875 16.484375 65.234375 
Q 19.828125 66.609375 23.578125 66.609375 
Q 29.296875 66.609375 34.21875 64.1875 
Q 39.15625 61.765625 42.03125 57.34375 
Q 44.921875 52.9375 44.921875 47.015625 
Q 44.921875 42.671875 43.015625 38.765625 
Q 41.109375 34.859375 38.125 31.65625 
Q 35.15625 28.46875 30.515625 24.40625 
Q 25.875 20.359375 24.421875 19 
L 13.09375 8.109375 
L 22.703125 8.109375 
Q 29.78125 8.109375 34.546875 8.21875 
Q 39.3125 8.34375 39.59375 8.59375 
Q 40.765625 9.859375 42 17.828125 
L 44.921875 17.828125 
L 42.09375 0 
z
" id="Cmr10-50"/>
     <path d="M 10.203125 23 
Q 9.375 23 8.828125 23.625 
Q 8.296875 24.265625 8.296875 25 
Q 8.296875 25.734375 8.828125 26.359375 
Q 9.375 27 10.203125 27 
L 67.578125 27 
Q 68.359375 27 68.875 26.359375 
Q 69.390625 25.734375 69.390625 25 
Q 69.390625 24.265625 68.875 23.625 
Q 68.359375 23 67.578125 23 
z
" id="Cmsy10-161"/>
    </defs>
    <g style="fill:#ff0000;" transform="translate(7.2 125.289174)scale(0.12 -0.12)">
     <use transform="translate(0 0.109375)" xlink:href="#Cmmi10-121"/>
     <use transform="translate(66.582031 0.109375)" xlink:href="#Cmr10-61"/>
     <use transform="translate(161.826172 0.109375)" xlink:href="#Cmr10-50"/>
     <use transform="translate(229.384766 0.109375)" xlink:href="#Cmsy10-161"/>
     <use transform="translate(324.628906 0.109375)" xlink:href="#Cmmi10-120"/>
     <use transform="translate(388.012266 38.373438)scale(0.7)" xlink:href="#Cmr10-50"/>
    </g>
   </g>
   <g id="text_7">
    <!-- $y=x$ -->
    <g style="fill:#0000ff;" transform="translate(43.332375 234.217038)scale(0.12 -0.12)">
     <use transform="translate(0 0.8125)" xlink:href="#Cmmi10-121"/>
     <use transform="translate(66.582031 0.8125)" xlink:href="#Cmr10-61"/>
     <use transform="translate(161.826172 0.8125)" xlink:href="#Cmmi10-120"/>
    </g>
   </g>
  </g>
 </g>
 <defs>
  <clipPath id="pbaab414ac9">
   <rect height="204.171538" width="190.407902" x="29.33831" y="30.685"/>
  </clipPath>
 </defs>
</svg>
