<?xml version="1.0" encoding="utf-8" standalone="no"?>
<!DOCTYPE svg PUBLIC "-//W3C//DTD SVG 1.1//EN"
  "http://www.w3.org/Graphics/SVG/1.1/DTD/svg11.dtd">
<!-- Created with matplotlib (https://matplotlib.org/) -->
<svg height="244.636004pt" version="1.1" viewBox="0 0 244.68 244.636004" width="244.68pt" xmlns="http://www.w3.org/2000/svg" xmlns:xlink="http://www.w3.org/1999/xlink">
 <defs>
  <style type="text/css">
*{stroke-linecap:butt;stroke-linejoin:round;}
  </style>
 </defs>
 <g id="figure_1">
  <g id="patch_1">
   <path d="M 0 244.636004 
L 244.68 244.636004 
L 244.68 0 
L 0 0 
z
" style="fill:#ffffff;"/>
  </g>
  <g id="axes_1">
   <g id="patch_2">
    <path d="M 7.2 219.399038 
L 215.56 219.399038 
L 215.56 38.4275 
L 7.2 38.4275 
z
" style="fill:#ffffff;"/>
   </g>
   <g id="patch_3">
    <path clip-path="url(#p405b441f30)" d="M 173.649751 133.056391 
L 173.266473 133.641885 
L 172.598513 134.657298 
L 171.781589 135.890591 
L 171.666994 136.062839 
L 170.938757 137.153113 
L 170.242166 138.188997 
L 169.917291 138.669766 
L 169.367308 139.480264 
L 168.595589 140.610322 
L 168.277845 141.073162 
L 167.808505 141.754211 
L 167.019622 142.891931 
L 166.480269 143.66472 
L 165.95525 144.413021 
L 165.691212 144.787879 
L 164.82674 146.008286 
L 164.66675 146.232992 
L 163.63144 147.67834 
L 163.235892 148.226547 
L 162.578261 149.133095 
L 162.290096 149.528404 
L 161.546005 150.543736 
L 160.955855 151.343449 
L 160.609748 151.81017 
L 160.041002 152.573439 
L 159.287357 153.577805 
L 159.100247 153.825918 
L 158.229404 154.974174 
L 157.61183 155.781985 
L 157.438061 156.008311 
L 156.892825 156.715683 
L 156.266133 157.523544 
L 155.706408 158.240387 
L 155.378077 158.658822 
L 154.402124 159.893613 
L 153.812595 160.632974 
L 153.533288 160.981554 
L 152.699455 162.015634 
L 152.269642 162.54483 
L 151.845373 163.064639 
L 151.507549 163.476718 
L 150.679848 164.479536 
L 150.082146 165.197674 
L 149.619938 165.749555 
L 149.428566 165.97717 
L 148.520568 167.050083 
L 148.159777 167.473169 
L 147.724966 167.98061 
L 147.056167 168.755908 
L 146.665378 169.206002 
L 145.764399 170.235485 
L 145.601562 170.420323 
L 144.957854 171.147335 
L 144.136629 172.066337 
L 143.790844 172.450441 
L 142.988634 173.335043 
L 142.457678 173.91553 
L 141.922221 174.496903 
L 141.484733 174.968899 
L 140.821454 175.679337 
L 140.229651 176.30797 
L 140.071681 176.474934 
L 139.155507 177.436317 
L 138.927432 177.673802 
L 138.107326 178.521673 
L 137.631797 179.008947 
L 137.142579 179.506915 
L 136.813061 179.84042 
L 136.280161 180.376521 
L 135.69484 180.960734 
L 134.747472 181.896048 
L 134.288603 182.344519 
L 133.8758 182.745426 
L 133.51927 183.089744 
L 132.709068 183.865514 
L 132.47719 184.085831 
L 131.711465 184.80798 
L 131.163742 185.31945 
L 130.498815 185.93467 
L 130.070456 186.327698 
L 129.601733 186.754789 
L 128.88543 187.401473 
L 128.321514 187.905481 
L 127.688236 188.466124 
L 127.51288 188.620366 
L 127.111519 188.971763 
L 126.51348 189.491133 
L 125.752512 190.144693 
L 125.087291 190.709317 
L 124.929827 190.842053 
L 124.32391 191.349551 
L 123.321608 192.177661 
L 123.010264 192.432005 
L 122.667075 192.710778 
L 121.849482 193.368205 
L 121.25535 193.840019 
L 120.86058 194.150758 
L 120.187159 194.675751 
L 119.711954 195.04236 
L 119.123981 195.491551 
L 118.704204 195.809256 
L 118.212839 196.177979 
L 117.735493 196.532915 
L 116.828591 197.198383 
L 116.551925 197.399082 
L 116.047251 197.762396 
L 115.539862 198.124036 
L 114.729152 198.694317 
L 114.069051 199.151796 
L 113.701555 199.403818 
L 113.452152 199.573767 
L 112.824722 199.997425 
L 112.265488 200.370347 
L 111.391167 200.944527 
L 110.829614 201.307611 
L 110.378447 201.596094 
L 109.981306 201.847651 
L 109.626366 202.070592 
L 108.631818 202.685792 
L 108.118907 202.997602 
L 108.019969 203.057321 
L 107.131542 203.587377 
L 106.811378 203.77566 
L 106.130949 204.170999 
L 105.651178 204.44582 
L 105.136981 204.736749 
L 104.742258 204.957546 
L 103.831474 205.458612 
L 103.496502 205.639948 
L 102.782183 206.021346 
L 102.516045 206.161602 
L 101.706195 206.58224 
L 101.50735 206.684104 
L 100.522424 207.18042 
L 100.144411 207.367265 
L 99.428467 207.71561 
L 99.170852 207.839181 
L 98.551392 208.132481 
L 97.926247 208.422976 
L 97.226242 208.741703 
L 96.973249 208.855193 
L 96.171162 209.20902 
L 95.860508 209.343617 
L 95.102681 209.666241 
L 94.828765 209.780856 
L 94.007942 210.117966 
L 93.391696 210.364799 
L 93.24257 210.423724 
L 92.83415 210.583497 
L 92.176463 210.835828 
L 91.632953 211.03974 
L 90.851061 211.325766 
L 90.486838 211.456054 
L 89.986292 211.632049 
L 89.489033 211.803382 
L 88.93422 211.990421 
L 88.357386 212.180272 
L 87.691258 212.393663 
L 87.365464 212.495745 
L 86.564672 212.740288 
L 85.793177 212.967313 
L 85.270948 213.116215 
L 85.10349 213.163145 
L 84.267516 213.391503 
L 83.946477 213.476575 
L 83.049634 213.706511 
L 82.758443 213.778723 
L 82.070975 213.944454 
L 81.461637 214.085768 
L 81.228778 214.138385 
L 80.483995 214.301533 
L 80.301804 214.34025 
L 79.389584 214.527048 
L 78.803654 214.640828 
L 78.200621 214.752864 
L 77.929847 214.801498 
L 77.30777 214.909308 
L 76.610182 215.023699 
L 76.323939 215.068647 
L 75.674172 215.166383 
L 75.031777 215.257145 
L 74.706805 215.300838 
L 74.312287 215.351876 
L 73.372288 215.464619 
L 73.220973 215.481601 
L 72.464517 215.561645 
L 71.946532 215.611792 
L 71.222197 215.675557 
L 71.02704 215.69147 
L 70.083983 215.760779 
L 69.544625 215.79477 
L 69.091037 215.820173 
L 68.640261 215.842538 
L 68.273264 215.858626 
L 67.721014 215.879248 
L 67.049318 215.898523 
L 66.329181 215.912105 
L 66.140656 215.91445 
L 65.354532 215.918817 
L 65.354532 91.625178 
L 66.061932 91.354543 
L 66.657246 91.12679 
L 67.014776 90.990007 
L 67.338201 90.866272 
L 68.131643 90.56272 
L 68.451953 90.440177 
L 69.154488 90.171403 
L 69.576359 90.010006 
L 70.173059 89.781722 
L 70.753655 89.5596 
L 71.087741 89.431786 
L 71.978239 89.091103 
L 72.271598 88.97887 
L 72.783859 88.782891 
L 73.725694 88.422567 
L 73.972112 88.328293 
L 74.404129 88.163014 
L 75.073648 87.906872 
L 75.709515 87.663604 
L 76.471632 87.372036 
L 76.788068 87.250974 
L 77.442572 87.000577 
L 77.923373 86.816633 
L 78.637796 86.543312 
L 78.769102 86.493078 
L 79.731957 86.124711 
L 80.066238 85.996824 
L 80.652538 85.772519 
L 81.135173 85.587874 
L 81.779559 85.341347 
L 82.416782 85.097561 
L 82.985668 84.879918 
L 83.488787 84.687437 
L 83.809546 84.564722 
L 84.542403 84.284348 
L 85.203439 84.031451 
L 85.48555 83.923522 
L 85.776777 83.812105 
L 86.572459 83.507696 
L 87.275906 83.238574 
L 87.7581 83.054097 
L 88.069262 82.935054 
L 88.787164 82.660402 
L 89.212876 82.497534 
L 89.670486 82.322463 
L 90.56343 81.980844 
L 90.798196 81.891028 
L 91.486665 81.627636 
L 91.990914 81.434722 
L 92.658542 81.179303 
L 93.215826 80.966099 
L 93.494903 80.859331 
L 94.250853 80.570122 
L 94.765538 80.373216 
L 95.31597 80.162634 
L 96.006819 79.898331 
L 96.271326 79.797137 
L 96.944037 79.539773 
L 97.233667 79.428967 
L 97.766287 79.2252 
L 98.727861 78.857324 
L 98.869992 78.802948 
L 99.571144 78.534704 
L 100.390217 78.221345 
L 100.720743 78.094894 
L 101.091413 77.953084 
L 102.008975 77.602046 
L 102.249699 77.509951 
L 102.938451 77.246451 
L 103.473814 77.041634 
L 103.801563 76.916244 
L 104.502121 76.648227 
L 104.866095 76.50898 
L 105.823842 76.142568 
L 105.995613 76.076852 
L 106.834023 75.756096 
L 107.342634 75.561514 
L 107.751796 75.404978 
L 108.340196 75.17987 
L 109.157587 74.867155 
L 109.528568 74.725226 
L 110.148508 74.488052 
L 110.658581 74.29291 
L 111.29311 74.050154 
L 111.511838 73.966474 
L 112.326537 73.654789 
L 112.565226 73.563472 
L 113.372749 73.254533 
L 113.605248 73.165584 
L 114.580085 72.792634 
L 114.957793 72.648132 
L 115.160164 72.57071 
L 115.981284 72.256569 
L 116.555192 72.037005 
L 117.314902 71.746358 
L 117.723646 71.589982 
L 117.959017 71.499934 
L 118.694139 71.218694 
L 119.069882 71.074943 
L 119.92886 70.746319 
L 120.357685 70.58226 
L 120.689397 70.455355 
L 121.31856 70.214652 
L 121.700804 70.068414 
L 122.248061 69.859046 
L 123.230704 69.48311 
L 123.615106 69.336047 
L 124.126443 69.140422 
L 124.657829 68.937126 
L 125.047178 68.78817 
L 125.689413 68.542466 
L 126.190494 68.350764 
L 127.003813 68.039607 
L 127.406966 67.88537 
L 128.117111 67.613686 
L 128.350696 67.524321 
L 128.847742 67.334163 
L 129.650339 67.027108 
L 130.048216 66.87489 
L 130.500925 66.701694 
L 131.345132 66.37872 
L 131.767875 66.216989 
L 132.436227 65.961293 
L 132.740523 65.844877 
L 133.630954 65.504218 
L 133.954725 65.380351 
L 134.23666 65.272489 
L 134.924601 65.009299 
L 135.726089 64.702669 
L 136.121152 64.551527 
L 136.800671 64.291559 
L 136.937115 64.239359 
L 137.506695 64.021451 
L 138.350047 63.698804 
L 138.682726 63.571529 
L 139.332781 63.322833 
L 140.087066 63.034261 
L 140.674551 62.809503 
L 140.965537 62.698179 
L 141.707965 62.414143 
L 141.885031 62.346402 
L 142.452036 62.129479 
L 142.909178 61.954587 
L 143.544734 61.711439 
L 144.076972 61.507817 
L 144.717897 61.262614 
L 145.180306 61.085707 
L 146.001507 60.771535 
L 146.550939 60.561335 
L 147.022888 60.380778 
L 147.303964 60.273245 
L 148.081716 59.975695 
L 148.68672 59.744235 
L 149.293099 59.512249 
L 149.549687 59.414084 
L 150.433126 59.076101 
L 150.674562 58.983733 
L 151.243702 58.765994 
L 151.870241 58.526295 
L 152.657079 58.225269 
L 153.209084 58.014085 
L 153.284421 57.985262 
L 154.313517 57.591554 
L 154.690296 57.447407 
L 155.226657 57.242208 
L 155.740409 57.045659 
L 156.332344 56.819199 
L 157.014587 56.558188 
L 157.216592 56.480906 
L 158.032436 56.168783 
L 158.460206 56.005128 
L 158.846455 55.857358 
L 159.512562 55.602522 
L 160.309322 55.2977 
L 160.597013 55.187636 
L 161.171508 54.967848 
L 161.666575 54.778447 
L 162.244059 54.557515 
L 162.584921 54.427109 
L 163.329675 54.142184 
L 163.926968 53.913673 
L 164.632292 53.643833 
L 165.12534 53.455204 
L 165.27833 53.396674 
L 165.992583 53.123417 
L 166.726746 52.842544 
L 167.339199 52.608234 
L 167.70466 52.468417 
L 167.975472 52.364811 
L 168.560416 52.141025 
L 169.298333 51.858715 
L 169.827897 51.656116 
L 170.365804 51.450325 
L 170.981236 51.214876 
L 171.482907 51.022948 
L 172.159675 50.764033 
L 172.531896 50.62163 
L 173.107928 50.401253 
L 173.649751 50.193964 
z
" style="fill:#cde0eb;opacity:0.5;"/>
   </g>
   <g id="matplotlib.axis_1">
    <g id="xtick_1">
     <g id="line2d_1">
      <defs>
       <path d="M 0 0 
L 0 3.5 
" id="mb2d124de5e" style="stroke:#000000;stroke-width:0.8;"/>
      </defs>
      <g>
       <use style="stroke:#000000;stroke-width:0.8;" x="65.354532" xlink:href="#mb2d124de5e" y="215.918817"/>
      </g>
     </g>
    </g>
    <g id="xtick_2">
     <g id="line2d_2">
      <g>
       <use style="stroke:#000000;stroke-width:0.8;" x="173.649751" xlink:href="#mb2d124de5e" y="215.918817"/>
      </g>
     </g>
     <g id="text_1">
      <!-- 2 -->
      <defs>
       <path d="M 19.1875 8.296875 
L 53.609375 8.296875 
L 53.609375 0 
L 7.328125 0 
L 7.328125 8.296875 
Q 12.9375 14.109375 22.625 23.890625 
Q 32.328125 33.6875 34.8125 36.53125 
Q 39.546875 41.84375 41.421875 45.53125 
Q 43.3125 49.21875 43.3125 52.78125 
Q 43.3125 58.59375 39.234375 62.25 
Q 35.15625 65.921875 28.609375 65.921875 
Q 23.96875 65.921875 18.8125 64.3125 
Q 13.671875 62.703125 7.8125 59.421875 
L 7.8125 69.390625 
Q 13.765625 71.78125 18.9375 73 
Q 24.125 74.21875 28.421875 74.21875 
Q 39.75 74.21875 46.484375 68.546875 
Q 53.21875 62.890625 53.21875 53.421875 
Q 53.21875 48.921875 51.53125 44.890625 
Q 49.859375 40.875 45.40625 35.40625 
Q 44.1875 33.984375 37.640625 27.21875 
Q 31.109375 20.453125 19.1875 8.296875 
z
" id="DejaVuSans-50"/>
      </defs>
      <g transform="translate(168.877876 234.316473)scale(0.15 -0.15)">
       <use xlink:href="#DejaVuSans-50"/>
      </g>
     </g>
    </g>
    <g id="text_2">
     <!-- $x$ -->
     <defs>
      <path d="M 7.8125 2.875 
Q 9.578125 1.515625 12.796875 1.515625 
Q 15.921875 1.515625 18.3125 4.515625 
Q 20.703125 7.515625 21.578125 11.078125 
L 26.125 28.8125 
Q 27.203125 33.640625 27.203125 35.40625 
Q 27.203125 37.890625 25.8125 39.75 
Q 24.421875 41.609375 21.921875 41.609375 
Q 18.75 41.609375 15.96875 39.625 
Q 13.1875 37.640625 11.28125 34.59375 
Q 9.375 31.546875 8.59375 28.421875 
Q 8.40625 27.78125 7.8125 27.78125 
L 6.59375 27.78125 
Q 5.8125 27.78125 5.8125 28.71875 
L 5.8125 29 
Q 6.78125 32.71875 9.125 36.25 
Q 11.46875 39.796875 14.859375 41.984375 
Q 18.265625 44.1875 22.125 44.1875 
Q 25.78125 44.1875 28.734375 42.234375 
Q 31.6875 40.28125 32.90625 36.921875 
Q 34.625 39.984375 37.28125 42.078125 
Q 39.9375 44.1875 43.109375 44.1875 
Q 45.265625 44.1875 47.5 43.421875 
Q 49.75 42.671875 51.171875 41.109375 
Q 52.59375 39.546875 52.59375 37.203125 
Q 52.59375 34.671875 50.953125 32.828125 
Q 49.3125 31 46.78125 31 
Q 45.171875 31 44.09375 32.03125 
Q 43.015625 33.0625 43.015625 34.625 
Q 43.015625 36.71875 44.453125 38.296875 
Q 45.90625 39.890625 47.90625 40.1875 
Q 46.09375 41.609375 42.921875 41.609375 
Q 39.703125 41.609375 37.328125 38.625 
Q 34.96875 35.640625 33.984375 31.984375 
L 29.59375 14.3125 
Q 28.515625 10.296875 28.515625 7.71875 
Q 28.515625 5.171875 29.953125 3.34375 
Q 31.390625 1.515625 33.796875 1.515625 
Q 38.484375 1.515625 42.15625 5.640625 
Q 45.84375 9.765625 47.015625 14.703125 
Q 47.21875 15.28125 47.796875 15.28125 
L 49.03125 15.28125 
Q 49.421875 15.28125 49.65625 15.015625 
Q 49.90625 14.75 49.90625 14.40625 
Q 49.90625 14.3125 49.8125 14.109375 
Q 48.390625 8.15625 43.84375 3.515625 
Q 39.3125 -1.125 33.59375 -1.125 
Q 29.9375 -1.125 26.984375 0.84375 
Q 24.03125 2.828125 22.796875 6.203125 
Q 21.234375 3.265625 18.46875 1.0625 
Q 15.71875 -1.125 12.59375 -1.125 
Q 10.453125 -1.125 8.171875 -0.359375 
Q 5.90625 0.390625 4.484375 1.953125 
Q 3.078125 3.515625 3.078125 5.90625 
Q 3.078125 8.25 4.703125 10.171875 
Q 6.34375 12.109375 8.796875 12.109375 
Q 10.453125 12.109375 11.578125 11.109375 
Q 12.703125 10.109375 12.703125 8.5 
Q 12.703125 6.390625 11.296875 4.828125 
Q 9.90625 3.265625 7.8125 2.875 
z
" id="Cmmi10-120"/>
     </defs>
     <g transform="translate(223.56 215.918817)scale(0.24 -0.24)">
      <use transform="translate(0 0.8125)" xlink:href="#Cmmi10-120"/>
     </g>
    </g>
   </g>
   <g id="matplotlib.axis_2">
    <g id="ytick_1">
     <g id="line2d_3">
      <defs>
       <path d="M 0 0 
L -3.5 0 
" id="m1eae72e3d8" style="stroke:#000000;stroke-width:0.8;"/>
      </defs>
      <g>
       <use style="stroke:#000000;stroke-width:0.8;" x="65.354532" xlink:href="#m1eae72e3d8" y="215.918817"/>
      </g>
     </g>
    </g>
    <g id="ytick_2">
     <g id="line2d_4">
      <g>
       <use style="stroke:#000000;stroke-width:0.8;" x="65.354532" xlink:href="#m1eae72e3d8" y="91.625178"/>
      </g>
     </g>
     <g id="text_3">
      <!-- 6 -->
      <defs>
       <path d="M 33.015625 40.375 
Q 26.375 40.375 22.484375 35.828125 
Q 18.609375 31.296875 18.609375 23.390625 
Q 18.609375 15.53125 22.484375 10.953125 
Q 26.375 6.390625 33.015625 6.390625 
Q 39.65625 6.390625 43.53125 10.953125 
Q 47.40625 15.53125 47.40625 23.390625 
Q 47.40625 31.296875 43.53125 35.828125 
Q 39.65625 40.375 33.015625 40.375 
z
M 52.59375 71.296875 
L 52.59375 62.3125 
Q 48.875 64.0625 45.09375 64.984375 
Q 41.3125 65.921875 37.59375 65.921875 
Q 27.828125 65.921875 22.671875 59.328125 
Q 17.53125 52.734375 16.796875 39.40625 
Q 19.671875 43.65625 24.015625 45.921875 
Q 28.375 48.1875 33.59375 48.1875 
Q 44.578125 48.1875 50.953125 41.515625 
Q 57.328125 34.859375 57.328125 23.390625 
Q 57.328125 12.15625 50.6875 5.359375 
Q 44.046875 -1.421875 33.015625 -1.421875 
Q 20.359375 -1.421875 13.671875 8.265625 
Q 6.984375 17.96875 6.984375 36.375 
Q 6.984375 53.65625 15.1875 63.9375 
Q 23.390625 74.21875 37.203125 74.21875 
Q 40.921875 74.21875 44.703125 73.484375 
Q 48.484375 72.75 52.59375 71.296875 
z
" id="DejaVuSans-54"/>
      </defs>
      <g transform="translate(48.810782 97.324006)scale(0.15 -0.15)">
       <use xlink:href="#DejaVuSans-54"/>
      </g>
     </g>
    </g>
    <g id="text_4">
     <!-- $y$ -->
     <defs>
      <path d="M 8.40625 -14.3125 
Q 10.5 -17.921875 15.71875 -17.921875 
Q 20.453125 -17.921875 23.921875 -14.59375 
Q 27.390625 -11.28125 29.515625 -6.5625 
Q 31.640625 -1.859375 32.8125 3.078125 
Q 28.375 -1.125 23.1875 -1.125 
Q 19.234375 -1.125 16.453125 0.234375 
Q 13.671875 1.609375 12.125 4.3125 
Q 10.59375 7.03125 10.59375 10.890625 
Q 10.59375 14.15625 11.46875 17.59375 
Q 12.359375 21.046875 13.9375 25.265625 
Q 15.53125 29.5 16.703125 32.625 
Q 18.015625 36.28125 18.015625 38.625 
Q 18.015625 41.609375 15.828125 41.609375 
Q 11.859375 41.609375 9.296875 37.53125 
Q 6.734375 33.453125 5.515625 28.421875 
Q 5.328125 27.78125 4.6875 27.78125 
L 3.515625 27.78125 
Q 2.6875 27.78125 2.6875 28.71875 
L 2.6875 29 
Q 4.296875 34.96875 7.609375 39.578125 
Q 10.9375 44.1875 16.015625 44.1875 
Q 19.578125 44.1875 22.046875 41.84375 
Q 24.515625 39.5 24.515625 35.890625 
Q 24.515625 34.03125 23.6875 31.984375 
Q 23.25 30.765625 21.6875 26.65625 
Q 20.125 22.5625 19.28125 19.875 
Q 18.453125 17.1875 17.921875 14.59375 
Q 17.390625 12.015625 17.390625 9.421875 
Q 17.390625 6.109375 18.796875 3.8125 
Q 20.21875 1.515625 23.296875 1.515625 
Q 29.5 1.515625 34.421875 9.078125 
L 42 39.890625 
Q 42.328125 41.21875 43.546875 42.15625 
Q 44.78125 43.109375 46.1875 43.109375 
Q 47.40625 43.109375 48.3125 42.328125 
Q 49.21875 41.546875 49.21875 40.28125 
Q 49.21875 39.703125 49.125 39.5 
L 39.203125 -0.296875 
Q 37.890625 -5.421875 34.375 -10.109375 
Q 30.859375 -14.796875 25.90625 -17.65625 
Q 20.953125 -20.515625 15.578125 -20.515625 
Q 12.984375 -20.515625 10.4375 -19.5 
Q 7.90625 -18.5 6.34375 -16.5 
Q 4.78125 -14.5 4.78125 -11.8125 
Q 4.78125 -9.078125 6.390625 -7.078125 
Q 8.015625 -5.078125 10.6875 -5.078125 
Q 12.3125 -5.078125 13.40625 -6.078125 
Q 14.5 -7.078125 14.5 -8.6875 
Q 14.5 -10.984375 12.78125 -12.6875 
Q 11.078125 -14.40625 8.796875 -14.40625 
Q 8.6875 -14.359375 8.59375 -14.328125 
Q 8.5 -14.3125 8.40625 -14.3125 
z
" id="Cmmi10-121"/>
     </defs>
     <g transform="translate(59.354532 25.3875)scale(0.24 -0.24)">
      <use transform="translate(0 0.8125)" xlink:href="#Cmmi10-121"/>
     </g>
    </g>
   </g>
   <g id="line2d_5">
    <path clip-path="url(#p405b441f30)" d="M 65.354532 91.625178 
L 173.649751 50.193964 
L 173.649751 50.193964 
" style="fill:none;stroke:#0000cc;stroke-linecap:square;stroke-width:1.5;"/>
   </g>
   <g id="line2d_6">
    <path clip-path="url(#p405b441f30)" d="M 65.354532 215.918817 
L 69.439388 215.800922 
L 73.570127 215.441928 
L 77.674608 214.846394 
L 81.55823 214.063716 
L 85.783231 212.970185 
L 89.853652 211.678092 
L 94.075021 210.090774 
L 98.368437 208.218069 
L 102.577487 206.129311 
L 106.903727 203.7215 
L 111.190168 201.075 
L 114.965974 198.528689 
L 119.410205 195.273496 
L 123.951438 191.658947 
L 128.38438 187.849516 
L 133.133522 183.460255 
L 137.985745 178.646562 
L 142.607302 173.752351 
L 147.542422 168.192849 
L 152.321643 162.480943 
L 157.620339 155.770892 
L 163.017604 148.528136 
L 168.226001 141.148544 
L 172.912917 134.180135 
L 173.649751 133.056391 
L 173.649751 133.056391 
" style="fill:none;stroke:#3ccc00;stroke-linecap:square;stroke-width:1.5;"/>
   </g>
   <g id="line2d_7">
    <path clip-path="url(#p405b441f30)" d="M 11.206923 195.20321 
L 15.83158 198.590669 
L 19.920943 201.334262 
L 24.283699 204.000742 
L 28.634905 206.392268 
L 32.705062 208.387145 
L 37.252999 210.339267 
L 41.586805 211.927517 
L 46.187856 213.323247 
L 50.598093 214.3803 
L 54.66273 215.111134 
L 59.038238 215.636937 
L 63.438913 215.892889 
L 67.679427 215.880627 
L 71.878354 215.61811 
L 76.307262 215.07123 
L 80.307717 214.339001 
L 84.376716 213.362234 
L 88.622701 212.093534 
L 92.858755 210.573938 
L 96.814646 208.925879 
L 100.52371 207.179781 
L 105.042901 204.789575 
L 109.077986 202.411533 
L 113.778095 199.351485 
L 117.707808 196.553402 
L 122.546128 192.808626 
L 127.365927 188.749289 
L 132.163115 184.383035 
L 137.006198 179.645132 
L 141.95054 174.466257 
L 146.342205 169.576587 
L 151.592613 163.373109 
L 156.178417 157.636175 
L 161.83946 150.144244 
L 166.949357 142.99284 
L 172.414653 134.935691 
L 177.900521 126.423745 
L 182.394823 119.133413 
L 187.917684 109.783743 
L 193.280199 100.293094 
L 195.308794 96.596923 
L 195.308794 96.596923 
" style="fill:none;stroke:#0000ff;stroke-linecap:square;stroke-width:1.5;"/>
   </g>
   <g id="line2d_8">
    <path clip-path="url(#p405b441f30)" d="M 11.206923 112.340784 
L 195.308794 41.907722 
L 195.308794 41.907722 
" style="fill:none;stroke:#ff0000;stroke-linecap:square;stroke-width:1.5;"/>
   </g>
   <g id="line2d_9">
    <path clip-path="url(#p405b441f30)" d="M 65.354532 215.918817 
L 65.354532 91.625178 
" style="fill:none;stroke:#000000;stroke-linecap:square;"/>
   </g>
   <g id="line2d_10">
    <path clip-path="url(#p405b441f30)" d="M 173.649751 133.056391 
L 173.649751 50.193964 
" style="fill:none;stroke:#000000;stroke-linecap:square;"/>
   </g>
   <g id="line2d_11">
    <path clip-path="url(#p405b441f30)" d="M 65.354532 215.918817 
L 65.354532 215.918817 
" style="fill:none;stroke:#d3d3d3;stroke-dasharray:3.7,1.6;stroke-dashoffset:0;"/>
   </g>
   <g id="line2d_12">
    <path clip-path="url(#p405b441f30)" d="M 173.649751 215.918817 
L 173.649751 133.056391 
" style="fill:none;stroke:#d3d3d3;stroke-dasharray:3.7,1.6;stroke-dashoffset:0;"/>
   </g>
   <g id="patch_4">
    <path d="M 65.354532 219.399038 
L 65.354532 38.4275 
" style="fill:none;stroke:#000000;stroke-linecap:square;stroke-linejoin:miter;stroke-width:0.8;"/>
   </g>
   <g id="patch_5">
    <path d="M 7.2 215.918817 
L 215.56 215.918817 
" style="fill:none;stroke:#000000;stroke-linecap:square;stroke-linejoin:miter;stroke-width:0.8;"/>
   </g>
   <g id="text_5">
    <!-- $y=x+6$ -->
    <defs>
     <path d="M 7.515625 13.28125 
Q 6.6875 13.28125 6.140625 13.90625 
Q 5.609375 14.546875 5.609375 15.28125 
Q 5.609375 16.109375 6.140625 16.6875 
Q 6.6875 17.28125 7.515625 17.28125 
L 70.3125 17.28125 
Q 71.046875 17.28125 71.578125 16.6875 
Q 72.125 16.109375 72.125 15.28125 
Q 72.125 14.546875 71.578125 13.90625 
Q 71.046875 13.28125 70.3125 13.28125 
z
M 7.515625 32.71875 
Q 6.6875 32.71875 6.140625 33.296875 
Q 5.609375 33.890625 5.609375 34.71875 
Q 5.609375 35.453125 6.140625 36.078125 
Q 6.6875 36.71875 7.515625 36.71875 
L 70.3125 36.71875 
Q 71.046875 36.71875 71.578125 36.078125 
Q 72.125 35.453125 72.125 34.71875 
Q 72.125 33.890625 71.578125 33.296875 
Q 71.046875 32.71875 70.3125 32.71875 
z
" id="Cmr10-61"/>
     <path d="M 7.515625 23 
Q 6.6875 23 6.140625 23.625 
Q 5.609375 24.265625 5.609375 25 
Q 5.609375 25.734375 6.140625 26.359375 
Q 6.6875 27 7.515625 27 
L 36.921875 27 
L 36.921875 56.5 
Q 36.921875 57.28125 37.5 57.78125 
Q 38.09375 58.296875 38.921875 58.296875 
Q 39.65625 58.296875 40.28125 57.78125 
Q 40.921875 57.28125 40.921875 56.5 
L 40.921875 27 
L 70.3125 27 
Q 71.046875 27 71.578125 26.359375 
Q 72.125 25.734375 72.125 25 
Q 72.125 24.265625 71.578125 23.625 
Q 71.046875 23 70.3125 23 
L 40.921875 23 
L 40.921875 -6.5 
Q 40.921875 -7.28125 40.28125 -7.78125 
Q 39.65625 -8.296875 38.921875 -8.296875 
Q 38.09375 -8.296875 37.5 -7.78125 
Q 36.921875 -7.28125 36.921875 -6.5 
L 36.921875 23 
z
" id="Cmr10-43"/>
     <path d="M 25 -2.203125 
Q 18.796875 -2.203125 14.640625 1.09375 
Q 10.5 4.390625 8.21875 9.640625 
Q 5.953125 14.890625 5.078125 20.65625 
Q 4.203125 26.421875 4.203125 32.328125 
Q 4.203125 40.234375 7.28125 48.1875 
Q 10.359375 56.15625 16.328125 61.375 
Q 22.3125 66.609375 30.515625 66.609375 
Q 33.9375 66.609375 36.890625 65.3125 
Q 39.84375 64.015625 41.53125 61.5 
Q 43.21875 58.984375 43.21875 55.421875 
Q 43.21875 53.375 41.828125 51.984375 
Q 40.4375 50.59375 38.375 50.59375 
Q 36.421875 50.59375 35 52 
Q 33.59375 53.421875 33.59375 55.421875 
Q 33.59375 57.375 35 58.78125 
Q 36.421875 60.203125 38.375 60.203125 
L 38.921875 60.203125 
Q 37.640625 62.015625 35.328125 62.859375 
Q 33.015625 63.71875 30.515625 63.71875 
Q 27.484375 63.71875 24.921875 62.390625 
Q 22.359375 61.078125 20.3125 58.828125 
Q 18.265625 56.59375 16.890625 53.875 
Q 15.53125 51.171875 14.765625 47.703125 
Q 14.015625 44.234375 13.8125 41.203125 
Q 13.625 38.1875 13.625 33.59375 
Q 15.375 37.703125 18.59375 40.3125 
Q 21.828125 42.921875 25.875 42.921875 
Q 30.328125 42.921875 33.984375 41.109375 
Q 37.640625 39.3125 40.28125 36.109375 
Q 42.921875 32.90625 44.3125 28.796875 
Q 45.703125 24.703125 45.703125 20.515625 
Q 45.703125 14.65625 43.09375 9.34375 
Q 40.484375 4.046875 35.734375 0.921875 
Q 31 -2.203125 25 -2.203125 
z
M 25 0.984375 
Q 28.859375 0.984375 31.203125 2.734375 
Q 33.546875 4.5 34.640625 7.390625 
Q 35.75 10.296875 36.015625 13.25 
Q 36.28125 16.21875 36.28125 20.515625 
Q 36.28125 26.171875 35.734375 30.171875 
Q 35.203125 34.1875 32.8125 37.234375 
Q 30.421875 40.28125 25.484375 40.28125 
Q 21.4375 40.28125 18.828125 37.546875 
Q 16.21875 34.8125 15.015625 30.640625 
Q 13.8125 26.46875 13.8125 22.609375 
Q 13.8125 21.296875 13.921875 20.609375 
Q 13.921875 20.453125 13.890625 20.359375 
Q 13.875 20.265625 13.8125 20.125 
Q 13.8125 15.828125 14.6875 11.421875 
Q 15.578125 7.03125 18.0625 4 
Q 20.5625 0.984375 25 0.984375 
z
" id="Cmr10-54"/>
    </defs>
    <g style="fill:#ff0000;" transform="translate(90.852141 54.302558)scale(0.15 -0.15)">
     <use transform="translate(0 0.390625)" xlink:href="#Cmmi10-121"/>
     <use transform="translate(66.582031 0.390625)" xlink:href="#Cmr10-61"/>
     <use transform="translate(161.826172 0.390625)" xlink:href="#Cmmi10-120"/>
     <use transform="translate(236.464844 0.390625)" xlink:href="#Cmr10-43"/>
     <use transform="translate(331.708984 0.390625)" xlink:href="#Cmr10-54"/>
    </g>
   </g>
   <g id="text_6">
    <!-- $y=x^2$ -->
    <defs>
     <path d="M 4.984375 0 
L 4.984375 2.6875 
Q 4.984375 2.9375 5.171875 3.21875 
L 20.703125 20.40625 
Q 24.21875 24.21875 26.40625 26.796875 
Q 28.609375 29.390625 30.75 32.765625 
Q 32.90625 36.140625 34.15625 39.625 
Q 35.40625 43.109375 35.40625 47.015625 
Q 35.40625 51.125 33.890625 54.859375 
Q 32.375 58.59375 29.375 60.84375 
Q 26.375 63.09375 22.125 63.09375 
Q 17.78125 63.09375 14.3125 60.46875 
Q 10.84375 57.859375 9.421875 53.71875 
Q 9.8125 53.8125 10.5 53.8125 
Q 12.75 53.8125 14.328125 52.296875 
Q 15.921875 50.78125 15.921875 48.390625 
Q 15.921875 46.09375 14.328125 44.5 
Q 12.75 42.921875 10.5 42.921875 
Q 8.15625 42.921875 6.5625 44.546875 
Q 4.984375 46.1875 4.984375 48.390625 
Q 4.984375 52.15625 6.390625 55.4375 
Q 7.8125 58.734375 10.46875 61.296875 
Q 13.140625 63.875 16.484375 65.234375 
Q 19.828125 66.609375 23.578125 66.609375 
Q 29.296875 66.609375 34.21875 64.1875 
Q 39.15625 61.765625 42.03125 57.34375 
Q 44.921875 52.9375 44.921875 47.015625 
Q 44.921875 42.671875 43.015625 38.765625 
Q 41.109375 34.859375 38.125 31.65625 
Q 35.15625 28.46875 30.515625 24.40625 
Q 25.875 20.359375 24.421875 19 
L 13.09375 8.109375 
L 22.703125 8.109375 
Q 29.78125 8.109375 34.546875 8.21875 
Q 39.3125 8.34375 39.59375 8.59375 
Q 40.765625 9.859375 42 17.828125 
L 44.921875 17.828125 
L 42.09375 0 
z
" id="Cmr10-50"/>
    </defs>
    <g style="fill:#0000ff;" transform="translate(191.528077 137.856391)scale(0.15 -0.15)">
     <use transform="translate(0 0.109375)" xlink:href="#Cmmi10-121"/>
     <use transform="translate(66.582031 0.109375)" xlink:href="#Cmr10-61"/>
     <use transform="translate(161.826172 0.109375)" xlink:href="#Cmmi10-120"/>
     <use transform="translate(225.209531 38.373438)scale(0.7)" xlink:href="#Cmr10-50"/>
    </g>
   </g>
  </g>
 </g>
 <defs>
  <clipPath id="p405b441f30">
   <rect height="180.971538" width="208.36" x="7.2" y="38.4275"/>
  </clipPath>
 </defs>
</svg>
