<?xml version="1.0" encoding="utf-8" standalone="no"?>
<!DOCTYPE svg PUBLIC "-//W3C//DTD SVG 1.1//EN"
  "http://www.w3.org/Graphics/SVG/1.1/DTD/svg11.dtd">
<!-- Created with matplotlib (https://matplotlib.org/) -->
<svg height="244.636004pt" version="1.1" viewBox="0 0 193.263053 244.636004" width="193.263053pt" xmlns="http://www.w3.org/2000/svg" xmlns:xlink="http://www.w3.org/1999/xlink">
 <defs>
  <style type="text/css">
*{stroke-linecap:butt;stroke-linejoin:round;}
  </style>
 </defs>
 <g id="figure_1">
  <g id="patch_1">
   <path d="M 0 244.636004 
L 193.263053 244.636004 
L 193.263053 0 
L 0 0 
z
" style="fill:#ffffff;"/>
  </g>
  <g id="axes_1">
   <g id="patch_2">
    <path d="M 19.365822 219.399038 
L 164.143053 219.399038 
L 164.143053 38.4275 
L 19.365822 38.4275 
z
" style="fill:#ffffff;"/>
   </g>
   <g id="patch_3">
    <path clip-path="url(#pf74a9c44cc)" d="M 161.358876 41.907722 
L 160.849537 44.440475 
L 160.340197 46.945479 
L 160.030269 48.456257 
L 159.543603 50.808092 
L 159.056937 53.135067 
L 158.422591 56.131138 
L 157.933818 58.411294 
L 157.470275 60.551121 
L 157.006732 62.66907 
L 156.408954 65.368294 
L 155.910037 67.593681 
L 155.322767 70.181448 
L 154.491824 73.78491 
L 154.051897 75.665416 
L 153.61197 77.5272 
L 153.165103 79.399317 
L 152.718236 81.252375 
L 152.294775 82.990905 
L 151.619404 85.728755 
L 150.954318 88.383365 
L 150.171282 91.45649 
L 149.742774 93.114521 
L 148.95733 96.110581 
L 148.316275 98.514963 
L 147.690517 100.826885 
L 147.064758 103.104493 
L 146.868915 103.810319 
L 146.303264 105.830354 
L 145.737614 107.822966 
L 145.137663 109.90672 
L 144.440134 112.291341 
L 143.579587 115.177574 
L 142.978034 117.159046 
L 142.704803 118.049332 
L 142.083742 120.050571 
L 141.462682 122.020962 
L 140.997048 123.4782 
L 140.28457 125.675043 
L 139.663448 127.558044 
L 139.169359 129.034759 
L 138.675271 130.492887 
L 138.30022 131.587403 
L 137.447053 134.038018 
L 136.891884 135.603728 
L 136.078316 137.857485 
L 135.560026 139.268308 
L 134.983584 140.814869 
L 134.399503 142.357933 
L 133.718476 144.12695 
L 133.169211 145.530306 
L 132.619945 146.912986 
L 132.087064 148.234854 
L 131.273284 150.216764 
L 130.812633 151.319172 
L 130.18964 152.787949 
L 129.566648 154.231536 
L 128.908601 155.729318 
L 128.564281 156.502066 
L 127.599132 158.628493 
L 127.404446 159.050413 
L 126.61873 160.729566 
L 125.685396 162.675557 
L 124.994374 164.082827 
L 123.986015 166.08607 
L 123.554077 166.92617 
L 122.923687 168.133129 
L 122.372822 169.169449 
L 121.736553 170.345352 
L 121.044993 171.598133 
L 119.999153 173.443413 
L 119.228839 174.765245 
L 118.53646 175.926796 
L 117.642597 177.389789 
L 117.207219 178.087657 
L 116.643738 178.976735 
L 115.773705 180.318609 
L 115.099243 181.333427 
L 114.232897 182.604944 
L 113.623466 183.47815 
L 113.315023 183.913494 
L 112.407439 185.169089 
L 111.396451 186.523845 
L 110.868141 187.213723 
L 110.257224 187.996252 
L 109.84674 188.512983 
L 108.657571 189.969513 
L 108.264484 190.437959 
L 107.476764 191.357574 
L 106.67681 192.265767 
L 106.009978 193.003376 
L 105.447922 193.611573 
L 104.790719 194.307283 
L 104.131015 194.989146 
L 103.313969 195.811119 
L 102.539632 196.56755 
L 102.197052 196.895309 
L 101.05321 197.959578 
L 100.251611 198.678343 
L 100.130365 198.785151 
L 99.361927 199.450592 
L 98.568328 200.117279 
L 97.774622 200.763602 
L 96.751427 201.567301 
L 96.352355 201.871933 
L 95.920507 202.196093 
L 94.615668 203.141536 
L 94.13899 203.474428 
L 93.262091 204.06978 
L 93.143353 204.148721 
L 92.271519 204.716328 
L 91.281627 205.335632 
L 90.650306 205.716958 
L 90.052581 206.068405 
L 89.530416 206.367923 
L 88.547961 206.912894 
L 87.895325 207.26179 
L 87.091414 207.677507 
L 86.405668 208.020128 
L 85.486776 208.462351 
L 85.030313 208.67499 
L 84.708128 208.822316 
L 83.898727 209.182519 
L 82.82578 209.638657 
L 82.333734 209.839906 
L 81.533513 210.156823 
L 81.193038 210.287836 
L 79.910231 210.761487 
L 79.305476 210.974109 
L 78.513605 211.242496 
L 78.419517 211.273643 
L 77.696954 211.507683 
L 76.729528 211.807051 
L 76.152306 211.978252 
L 75.384803 212.197541 
L 74.727524 212.377948 
L 74.16056 212.528226 
L 73.497013 212.697971 
L 72.792682 212.87109 
L 72.058145 213.0441 
L 71.07602 213.263791 
L 70.100117 213.46937 
L 69.437833 213.601919 
L 69.099699 213.66748 
L 68.324745 213.812482 
L 67.727337 213.919392 
L 66.709184 214.092155 
L 66.324566 214.154411 
L 65.842417 214.23019 
L 64.868196 214.375835 
L 63.864419 214.515828 
L 63.234056 214.59873 
L 62.500935 214.690462 
L 61.751233 214.779239 
L 61.255529 214.835234 
L 60.740489 214.891202 
L 59.972411 214.970603 
L 58.953351 215.068739 
L 58.584802 215.102281 
L 58.098689 215.144994 
L 57.062461 215.230432 
L 56.123135 215.30158 
L 55.714092 215.330774 
L 55.027982 215.377402 
L 54.272902 215.425452 
L 53.951967 215.444875 
L 52.947739 215.501962 
L 51.922933 215.554737 
L 51.853008 215.558146 
L 50.761638 215.608303 
L 49.825425 215.646993 
L 49.650836 215.653788 
L 48.976949 215.678826 
L 47.825867 215.71744 
L 47.487355 215.727851 
L 46.577512 215.753839 
L 45.659026 215.777287 
L 45.341043 215.78479 
L 44.286508 215.807555 
L 43.92719 215.814605 
L 42.820274 215.834231 
L 42.449038 215.840146 
L 41.853321 215.848983 
L 40.8258 215.862449 
L 40.121935 215.870479 
L 39.762301 215.874233 
L 38.87357 215.882573 
L 37.921456 215.890149 
L 37.271768 215.894588 
L 36.587964 215.898682 
L 35.980733 215.901862 
L 35.352109 215.90474 
L 34.477434 215.908116 
L 33.741847 215.910451 
L 33.411562 215.911364 
L 32.545275 215.913406 
L 32.172798 215.914141 
L 31.215277 215.915687 
L 30.83623 215.916179 
L 29.940662 215.91711 
L 28.959874 215.91782 
L 28.723747 215.917951 
L 27.703145 215.918376 
L 26.986572 215.918563 
L 26.210982 215.918691 
L 25.709005 215.918742 
L 25.062081 215.918783 
L 24.523162 215.918802 
L 23.742512 215.918814 
L 22.673313 215.918817 
L 22.15 215.918817 
L 22.15 215.918817 
L 22.575367 215.387107 
L 23.814004 213.838811 
L 24.17546 213.386992 
L 25.148757 212.17037 
L 25.584806 211.625309 
L 26.403939 210.601393 
L 27.35749 209.409454 
L 27.919554 208.706874 
L 28.635921 207.811416 
L 29.391168 206.867357 
L 29.865602 206.274314 
L 30.83952 205.056917 
L 31.258561 204.533115 
L 31.618156 204.083622 
L 32.491931 202.991403 
L 33.441159 201.804868 
L 34.121367 200.954607 
L 34.580822 200.380289 
L 35.644509 199.05068 
L 36.182992 198.377576 
L 36.532232 197.941027 
L 37.335216 196.937297 
L 38.267325 195.77216 
L 38.712011 195.216303 
L 39.717299 193.959693 
L 40.090787 193.492833 
L 40.73927 192.682229 
L 41.445544 191.799386 
L 42.501031 190.480028 
L 42.860536 190.030646 
L 43.56324 189.152267 
L 44.600824 187.855287 
L 45.572401 186.640815 
L 45.884986 186.250083 
L 46.925042 184.950014 
L 47.655374 184.037099 
L 48.001754 183.604124 
L 48.592459 182.865743 
L 49.17627 182.13598 
L 49.951969 181.166355 
L 50.517874 180.458974 
L 51.459225 179.282285 
L 51.974557 178.638121 
L 53.162201 177.153566 
L 53.661424 176.529536 
L 54.155044 175.912512 
L 55.024699 174.825443 
L 55.843483 173.801963 
L 56.731838 172.691519 
L 57.187758 172.121619 
L 57.840693 171.305451 
L 58.832113 170.066175 
L 59.062671 169.777978 
L 59.864093 168.776201 
L 60.366621 168.14804 
L 61.253846 167.039009 
L 62.197468 165.859481 
L 62.538816 165.432796 
L 63.591268 164.117232 
L 63.878761 163.757866 
L 65.017785 162.334086 
L 65.637034 161.560024 
L 66.543743 160.426638 
L 66.601734 160.35415 
L 67.678058 159.008744 
L 68.57306 157.889991 
L 69.207244 157.097262 
L 69.684711 156.500428 
L 70.221188 155.829831 
L 70.870691 155.017953 
L 71.805997 153.84882 
L 72.696173 152.7361 
L 73.269344 152.019637 
L 73.620506 151.580684 
L 74.388426 150.620784 
L 75.247342 149.547139 
L 76.283763 148.251613 
L 76.662025 147.778786 
L 77.095537 147.236895 
L 78.282835 145.752773 
L 79.122434 144.703274 
L 79.617963 144.083863 
L 80.273791 143.264078 
L 80.898443 142.483263 
L 81.813223 141.339788 
L 82.490913 140.492675 
L 83.048494 139.795699 
L 83.943595 138.676823 
L 84.667419 137.772043 
L 85.252612 137.040552 
L 86.03692 136.060166 
L 86.46281 135.527805 
L 87.052472 134.790727 
L 87.956762 133.660363 
L 88.591696 132.866697 
L 89.24566 132.049241 
L 89.794 131.363816 
L 90.925874 129.948974 
L 91.38306 129.377491 
L 91.932348 128.690881 
L 92.675698 127.761694 
L 93.812414 126.340799 
L 94.378014 125.6338 
L 95.066807 124.772808 
L 95.482541 124.25314 
L 96.617269 122.83473 
L 96.742126 122.678659 
L 97.61441 121.588305 
L 98.150489 120.918205 
L 99.40204 119.353767 
L 99.483112 119.252427 
L 100.155535 118.411898 
L 101.313425 116.964535 
L 101.637999 116.558818 
L 102.407229 115.59728 
L 103.583482 114.126964 
L 104.097512 113.484426 
L 104.465596 113.024322 
L 105.410409 111.843305 
L 106.321964 110.703862 
L 106.644953 110.300125 
L 107.404794 109.350325 
L 108.49212 107.991166 
L 108.814655 107.587997 
L 109.760869 106.40523 
L 110.425434 105.574524 
L 110.879005 105.00756 
L 111.6263 104.073441 
L 112.344913 103.175175 
L 113.131525 102.191911 
L 113.913296 101.214696 
L 114.793916 100.113922 
L 115.061649 99.779255 
L 115.561832 99.154026 
L 116.55664 97.910516 
L 116.995031 97.362528 
L 118.288992 95.745077 
L 118.421751 95.579127 
L 119.6147 94.087941 
L 120.246765 93.29786 
L 120.947867 92.421483 
L 121.14924 92.169767 
L 122.038338 91.058395 
L 123.029174 89.819849 
L 123.30896 89.470116 
L 124.229914 88.318924 
L 124.877111 87.509928 
L 125.779267 86.382233 
L 126.259266 85.782234 
L 126.761189 85.154831 
L 127.433612 84.314301 
L 128.181033 83.380025 
L 129.397645 81.85926 
L 130.186732 80.872901 
L 130.82085 80.080254 
L 131.113282 79.714715 
L 131.82376 78.826616 
L 132.53453 77.938154 
L 133.333094 76.939949 
L 133.860472 76.280726 
L 135.06784 74.771516 
L 135.55868 74.157967 
L 136.355866 73.161484 
L 136.907069 72.47248 
L 137.508724 71.720411 
L 138.156027 70.911283 
L 139.284405 69.50081 
L 139.481996 69.253821 
L 140.551758 67.916619 
L 140.966233 67.398525 
L 141.987006 66.122559 
L 142.661503 65.279438 
L 143.012467 64.840733 
L 144.184184 63.376086 
L 144.524569 62.950605 
L 145.486582 61.748089 
L 145.653436 61.539522 
L 146.734961 60.187616 
L 147.138646 59.683009 
L 147.871904 58.766436 
L 148.430084 58.068711 
L 149.810706 56.342934 
L 150.373301 55.63969 
L 151.014133 54.83865 
L 151.794969 53.862606 
L 152.399748 53.106631 
L 153.129454 52.194499 
L 153.984446 51.125759 
L 154.469577 50.519346 
L 154.982636 49.878021 
L 155.995394 48.612074 
L 156.245301 48.29969 
L 157.073742 47.264139 
L 158.074863 46.012737 
L 158.245292 45.799701 
L 159.340113 44.431175 
L 160.07654 43.510642 
L 160.918945 42.457635 
z
" style="fill:#cde0eb;opacity:0.5;"/>
   </g>
   <g id="matplotlib.axis_1">
    <g id="xtick_1">
     <g id="line2d_1">
      <defs>
       <path d="M 0 0 
L 0 3.5 
" id="mb02b812d8c" style="stroke:#000000;stroke-width:0.8;"/>
      </defs>
      <g>
       <use style="stroke:#000000;stroke-width:0.8;" x="22.010791" xlink:href="#mb02b812d8c" y="215.918817"/>
      </g>
     </g>
     <g id="text_1">
      <!-- $c$ -->
      <defs>
       <path d="M 11.71875 11.921875 
Q 11.71875 7.5625 13.9375 4.53125 
Q 16.15625 1.515625 20.3125 1.515625 
Q 26.265625 1.515625 31.75 4.25 
Q 37.25 6.984375 40.71875 11.8125 
Q 41.015625 12.109375 41.5 12.109375 
Q 42 12.109375 42.5 11.546875 
Q 43.015625 10.984375 43.015625 10.5 
Q 43.015625 10.109375 42.828125 9.90625 
Q 39.15625 4.78125 32.953125 1.828125 
Q 26.765625 -1.125 20.125 -1.125 
Q 15.328125 -1.125 11.671875 1.140625 
Q 8.015625 3.421875 6 7.21875 
Q 4 11.03125 4 15.828125 
Q 4 22.5625 7.765625 29.203125 
Q 11.53125 35.84375 17.78125 40.015625 
Q 24.03125 44.1875 30.90625 44.1875 
Q 35.40625 44.1875 38.984375 42.015625 
Q 42.578125 39.84375 42.578125 35.59375 
Q 42.578125 32.859375 40.984375 30.921875 
Q 39.40625 29 36.71875 29 
Q 35.109375 29 34 30 
Q 32.90625 31 32.90625 32.625 
Q 32.90625 34.96875 34.609375 36.625 
Q 36.328125 38.28125 38.625 38.28125 
L 38.8125 38.28125 
Q 37.640625 39.984375 35.421875 40.796875 
Q 33.203125 41.609375 30.8125 41.609375 
Q 24.953125 41.609375 20.546875 36.59375 
Q 16.15625 31.59375 13.9375 24.625 
Q 11.71875 17.671875 11.71875 11.921875 
z
" id="Cmmi10-99"/>
      </defs>
      <g transform="translate(18.710791 234.316473)scale(0.15 -0.15)">
       <use transform="translate(0 0.8125)" xlink:href="#Cmmi10-99"/>
      </g>
     </g>
    </g>
    <g id="xtick_2">
     <g id="line2d_2">
      <g>
       <use style="stroke:#000000;stroke-width:0.8;" x="22.289209" xlink:href="#mb02b812d8c" y="215.918817"/>
      </g>
     </g>
     <g id="text_2">
      <!-- $c$ -->
      <g transform="translate(18.989209 234.316473)scale(0.15 -0.15)">
       <use transform="translate(0 0.8125)" xlink:href="#Cmmi10-99"/>
      </g>
     </g>
    </g>
    <g id="text_3">
     <!-- $x$ -->
     <defs>
      <path d="M 7.8125 2.875 
Q 9.578125 1.515625 12.796875 1.515625 
Q 15.921875 1.515625 18.3125 4.515625 
Q 20.703125 7.515625 21.578125 11.078125 
L 26.125 28.8125 
Q 27.203125 33.640625 27.203125 35.40625 
Q 27.203125 37.890625 25.8125 39.75 
Q 24.421875 41.609375 21.921875 41.609375 
Q 18.75 41.609375 15.96875 39.625 
Q 13.1875 37.640625 11.28125 34.59375 
Q 9.375 31.546875 8.59375 28.421875 
Q 8.40625 27.78125 7.8125 27.78125 
L 6.59375 27.78125 
Q 5.8125 27.78125 5.8125 28.71875 
L 5.8125 29 
Q 6.78125 32.71875 9.125 36.25 
Q 11.46875 39.796875 14.859375 41.984375 
Q 18.265625 44.1875 22.125 44.1875 
Q 25.78125 44.1875 28.734375 42.234375 
Q 31.6875 40.28125 32.90625 36.921875 
Q 34.625 39.984375 37.28125 42.078125 
Q 39.9375 44.1875 43.109375 44.1875 
Q 45.265625 44.1875 47.5 43.421875 
Q 49.75 42.671875 51.171875 41.109375 
Q 52.59375 39.546875 52.59375 37.203125 
Q 52.59375 34.671875 50.953125 32.828125 
Q 49.3125 31 46.78125 31 
Q 45.171875 31 44.09375 32.03125 
Q 43.015625 33.0625 43.015625 34.625 
Q 43.015625 36.71875 44.453125 38.296875 
Q 45.90625 39.890625 47.90625 40.1875 
Q 46.09375 41.609375 42.921875 41.609375 
Q 39.703125 41.609375 37.328125 38.625 
Q 34.96875 35.640625 33.984375 31.984375 
L 29.59375 14.3125 
Q 28.515625 10.296875 28.515625 7.71875 
Q 28.515625 5.171875 29.953125 3.34375 
Q 31.390625 1.515625 33.796875 1.515625 
Q 38.484375 1.515625 42.15625 5.640625 
Q 45.84375 9.765625 47.015625 14.703125 
Q 47.21875 15.28125 47.796875 15.28125 
L 49.03125 15.28125 
Q 49.421875 15.28125 49.65625 15.015625 
Q 49.90625 14.75 49.90625 14.40625 
Q 49.90625 14.3125 49.8125 14.109375 
Q 48.390625 8.15625 43.84375 3.515625 
Q 39.3125 -1.125 33.59375 -1.125 
Q 29.9375 -1.125 26.984375 0.84375 
Q 24.03125 2.828125 22.796875 6.203125 
Q 21.234375 3.265625 18.46875 1.0625 
Q 15.71875 -1.125 12.59375 -1.125 
Q 10.453125 -1.125 8.171875 -0.359375 
Q 5.90625 0.390625 4.484375 1.953125 
Q 3.078125 3.515625 3.078125 5.90625 
Q 3.078125 8.25 4.703125 10.171875 
Q 6.34375 12.109375 8.796875 12.109375 
Q 10.453125 12.109375 11.578125 11.109375 
Q 12.703125 10.109375 12.703125 8.5 
Q 12.703125 6.390625 11.296875 4.828125 
Q 9.90625 3.265625 7.8125 2.875 
z
" id="Cmmi10-120"/>
     </defs>
     <g transform="translate(172.143053 215.918817)scale(0.24 -0.24)">
      <use transform="translate(0 0.8125)" xlink:href="#Cmmi10-120"/>
     </g>
    </g>
   </g>
   <g id="matplotlib.axis_2">
    <g id="ytick_1">
     <g id="line2d_3">
      <defs>
       <path d="M 0 0 
L -3.5 0 
" id="m5b9c3efc06" style="stroke:#000000;stroke-width:0.8;"/>
      </defs>
      <g>
       <use style="stroke:#000000;stroke-width:0.8;" x="22.15" xlink:href="#m5b9c3efc06" y="215.918817"/>
      </g>
     </g>
    </g>
    <g id="ytick_2">
     <g id="line2d_4">
      <g>
       <use style="stroke:#000000;stroke-width:0.8;" x="22.15" xlink:href="#m5b9c3efc06" y="41.907722"/>
      </g>
     </g>
     <g id="text_4">
      <!-- $d$ -->
      <defs>
       <path d="M 17.390625 -1.125 
Q 11.078125 -1.125 7.4375 3.640625 
Q 3.8125 8.40625 3.8125 14.890625 
Q 3.8125 21.296875 7.125 28.171875 
Q 10.453125 35.0625 16.09375 39.625 
Q 21.734375 44.1875 28.21875 44.1875 
Q 31.15625 44.1875 33.515625 42.546875 
Q 35.890625 40.921875 37.203125 38.1875 
L 42.828125 60.5 
Q 43.21875 62.203125 43.3125 63.1875 
Q 43.3125 64.796875 36.8125 64.796875 
Q 35.796875 64.796875 35.796875 66.109375 
Q 35.84375 66.359375 36.015625 66.984375 
Q 36.1875 67.625 36.453125 67.96875 
Q 36.71875 68.3125 37.203125 68.3125 
L 50.6875 69.390625 
Q 51.90625 69.390625 51.90625 68.109375 
L 37.5 10.59375 
Q 36.8125 8.9375 36.8125 5.8125 
Q 36.8125 1.515625 39.703125 1.515625 
Q 42.828125 1.515625 44.453125 5.484375 
Q 46.09375 9.46875 47.21875 14.703125 
Q 47.40625 15.28125 48 15.28125 
L 49.21875 15.28125 
Q 49.609375 15.28125 49.84375 14.9375 
Q 50.09375 14.59375 50.09375 14.3125 
Q 48.34375 7.328125 46.265625 3.09375 
Q 44.1875 -1.125 39.5 -1.125 
Q 36.140625 -1.125 33.546875 0.84375 
Q 30.953125 2.828125 30.328125 6.109375 
Q 23.875 -1.125 17.390625 -1.125 
z
M 17.484375 1.515625 
Q 21.09375 1.515625 24.484375 4.21875 
Q 27.875 6.9375 30.328125 10.59375 
Q 30.421875 10.6875 30.421875 10.984375 
L 35.890625 33.015625 
Q 35.296875 36.53125 33.296875 39.0625 
Q 31.296875 41.609375 27.984375 41.609375 
Q 24.609375 41.609375 21.703125 38.84375 
Q 18.796875 36.078125 16.796875 32.328125 
Q 14.84375 28.328125 13.0625 21.34375 
Q 11.28125 14.359375 11.28125 10.5 
Q 11.28125 7.03125 12.765625 4.265625 
Q 14.265625 1.515625 17.484375 1.515625 
z
" id="Cmmi10-100"/>
      </defs>
      <g transform="translate(7.2 47.60655)scale(0.15 -0.15)">
       <use transform="translate(0 0.609375)" xlink:href="#Cmmi10-100"/>
      </g>
     </g>
    </g>
    <g id="text_5">
     <!-- $y$ -->
     <defs>
      <path d="M 8.40625 -14.3125 
Q 10.5 -17.921875 15.71875 -17.921875 
Q 20.453125 -17.921875 23.921875 -14.59375 
Q 27.390625 -11.28125 29.515625 -6.5625 
Q 31.640625 -1.859375 32.8125 3.078125 
Q 28.375 -1.125 23.1875 -1.125 
Q 19.234375 -1.125 16.453125 0.234375 
Q 13.671875 1.609375 12.125 4.3125 
Q 10.59375 7.03125 10.59375 10.890625 
Q 10.59375 14.15625 11.46875 17.59375 
Q 12.359375 21.046875 13.9375 25.265625 
Q 15.53125 29.5 16.703125 32.625 
Q 18.015625 36.28125 18.015625 38.625 
Q 18.015625 41.609375 15.828125 41.609375 
Q 11.859375 41.609375 9.296875 37.53125 
Q 6.734375 33.453125 5.515625 28.421875 
Q 5.328125 27.78125 4.6875 27.78125 
L 3.515625 27.78125 
Q 2.6875 27.78125 2.6875 28.71875 
L 2.6875 29 
Q 4.296875 34.96875 7.609375 39.578125 
Q 10.9375 44.1875 16.015625 44.1875 
Q 19.578125 44.1875 22.046875 41.84375 
Q 24.515625 39.5 24.515625 35.890625 
Q 24.515625 34.03125 23.6875 31.984375 
Q 23.25 30.765625 21.6875 26.65625 
Q 20.125 22.5625 19.28125 19.875 
Q 18.453125 17.1875 17.921875 14.59375 
Q 17.390625 12.015625 17.390625 9.421875 
Q 17.390625 6.109375 18.796875 3.8125 
Q 20.21875 1.515625 23.296875 1.515625 
Q 29.5 1.515625 34.421875 9.078125 
L 42 39.890625 
Q 42.328125 41.21875 43.546875 42.15625 
Q 44.78125 43.109375 46.1875 43.109375 
Q 47.40625 43.109375 48.3125 42.328125 
Q 49.21875 41.546875 49.21875 40.28125 
Q 49.21875 39.703125 49.125 39.5 
L 39.203125 -0.296875 
Q 37.890625 -5.421875 34.375 -10.109375 
Q 30.859375 -14.796875 25.90625 -17.65625 
Q 20.953125 -20.515625 15.578125 -20.515625 
Q 12.984375 -20.515625 10.4375 -19.5 
Q 7.90625 -18.5 6.34375 -16.5 
Q 4.78125 -14.5 4.78125 -11.8125 
Q 4.78125 -9.078125 6.390625 -7.078125 
Q 8.015625 -5.078125 10.6875 -5.078125 
Q 12.3125 -5.078125 13.40625 -6.078125 
Q 14.5 -7.078125 14.5 -8.6875 
Q 14.5 -10.984375 12.78125 -12.6875 
Q 11.078125 -14.40625 8.796875 -14.40625 
Q 8.6875 -14.359375 8.59375 -14.328125 
Q 8.5 -14.3125 8.40625 -14.3125 
z
" id="Cmmi10-121"/>
     </defs>
     <g transform="translate(16.15 25.3875)scale(0.24 -0.24)">
      <use transform="translate(0 0.8125)" xlink:href="#Cmmi10-121"/>
     </g>
    </g>
   </g>
   <g id="line2d_5">
    <path clip-path="url(#pf74a9c44cc)" d="M 22.15 215.918817 
L 161.358876 41.907722 
L 161.358876 41.907722 
" style="fill:none;stroke:#ff0000;stroke-linecap:square;stroke-width:1.5;"/>
   </g>
   <g id="line2d_6">
    <path clip-path="url(#pf74a9c44cc)" d="M 22.15 215.918817 
L 43.592621 215.820863 
L 51.748122 215.563213 
L 58.309973 215.126641 
L 63.707771 214.536784 
L 68.528461 213.775065 
L 72.425705 212.958474 
L 76.488097 211.879323 
L 79.888113 210.769382 
L 83.639219 209.295048 
L 86.632327 207.908088 
L 90.055118 206.066933 
L 93.324757 204.027958 
L 96.691031 201.613719 
L 99.967261 198.928049 
L 102.852503 196.264531 
L 105.267627 193.804079 
L 108.146875 190.576873 
L 110.846073 187.242273 
L 113.892953 183.094168 
L 116.410968 179.339396 
L 119.267439 174.699753 
L 122.338894 169.232719 
L 124.736101 164.601571 
L 128.109314 157.511697 
L 131.235525 150.307652 
L 134.098372 143.144128 
L 136.765065 135.958215 
L 139.905752 126.827012 
L 142.879618 117.480419 
L 146.285523 105.893265 
L 149.436224 94.290459 
L 152.571997 81.854681 
L 155.640143 68.787194 
L 159.001317 53.399434 
L 161.358876 41.907722 
L 161.358876 41.907722 
" style="fill:none;stroke:#0000ff;stroke-linecap:square;stroke-width:1.5;"/>
   </g>
   <g id="line2d_7">
    <path clip-path="url(#pf74a9c44cc)" d="M 22.15 215.918817 
L 22.15 215.918817 
" style="fill:none;stroke:#000000;stroke-linecap:square;"/>
   </g>
   <g id="line2d_8">
    <path clip-path="url(#pf74a9c44cc)" d="M 161.358876 41.907722 
L 161.358876 41.907722 
" style="fill:none;stroke:#000000;stroke-linecap:square;"/>
   </g>
   <g id="line2d_9">
    <path clip-path="url(#pf74a9c44cc)" d="M 22.15 215.918817 
L 22.15 215.918817 
" style="fill:none;stroke:#d3d3d3;stroke-dasharray:3.7,1.6;stroke-dashoffset:0;"/>
   </g>
   <g id="line2d_10">
    <path clip-path="url(#pf74a9c44cc)" d="M 22.15 41.907722 
L 161.358876 41.907722 
" style="fill:none;stroke:#d3d3d3;stroke-dasharray:3.7,1.6;stroke-dashoffset:0;"/>
   </g>
   <g id="patch_4">
    <path d="M 22.15 219.399038 
L 22.15 38.4275 
" style="fill:none;stroke:#000000;stroke-linecap:square;stroke-linejoin:miter;stroke-width:0.8;"/>
   </g>
   <g id="patch_5">
    <path d="M 19.365822 215.918817 
L 164.143053 215.918817 
" style="fill:none;stroke:#000000;stroke-linecap:square;stroke-linejoin:miter;stroke-width:0.8;"/>
   </g>
   <g id="text_6">
    <!-- $x=f(y)$ -->
    <defs>
     <path d="M 7.515625 13.28125 
Q 6.6875 13.28125 6.140625 13.90625 
Q 5.609375 14.546875 5.609375 15.28125 
Q 5.609375 16.109375 6.140625 16.6875 
Q 6.6875 17.28125 7.515625 17.28125 
L 70.3125 17.28125 
Q 71.046875 17.28125 71.578125 16.6875 
Q 72.125 16.109375 72.125 15.28125 
Q 72.125 14.546875 71.578125 13.90625 
Q 71.046875 13.28125 70.3125 13.28125 
z
M 7.515625 32.71875 
Q 6.6875 32.71875 6.140625 33.296875 
Q 5.609375 33.890625 5.609375 34.71875 
Q 5.609375 35.453125 6.140625 36.078125 
Q 6.6875 36.71875 7.515625 36.71875 
L 70.3125 36.71875 
Q 71.046875 36.71875 71.578125 36.078125 
Q 72.125 35.453125 72.125 34.71875 
Q 72.125 33.890625 71.578125 33.296875 
Q 71.046875 32.71875 70.3125 32.71875 
z
" id="Cmr10-61"/>
     <path d="M 9.71875 -16.5 
Q 11.578125 -17.921875 14.203125 -17.921875 
Q 17.78125 -17.921875 20.015625 -10.015625 
Q 20.953125 -6.203125 25.09375 15.09375 
L 29.6875 39.59375 
L 21.09375 39.59375 
Q 20.125 39.59375 20.125 40.921875 
Q 20.515625 43.109375 21.390625 43.109375 
L 30.328125 43.109375 
L 31.5 49.609375 
Q 32.078125 52.640625 32.5625 54.8125 
Q 33.0625 56.984375 33.625 58.828125 
Q 34.1875 60.6875 35.296875 62.984375 
Q 37.015625 66.265625 39.921875 68.390625 
Q 42.828125 70.515625 46.1875 70.515625 
Q 48.390625 70.515625 50.46875 69.703125 
Q 52.546875 68.890625 53.859375 67.28125 
Q 55.171875 65.671875 55.171875 63.484375 
Q 55.171875 60.9375 53.484375 59.046875 
Q 51.8125 57.171875 49.421875 57.171875 
Q 47.796875 57.171875 46.65625 58.171875 
Q 45.515625 59.1875 45.515625 60.796875 
Q 45.515625 62.984375 47 64.625 
Q 48.484375 66.265625 50.6875 66.5 
Q 48.828125 67.921875 46.09375 67.921875 
Q 44.578125 67.921875 43.234375 66.5 
Q 41.890625 65.09375 41.5 63.484375 
Q 40.875 60.9375 38.71875 49.703125 
L 37.5 43.109375 
L 47.796875 43.109375 
Q 48.78125 43.109375 48.78125 41.796875 
Q 48.734375 41.546875 48.578125 40.9375 
Q 48.4375 40.328125 48.171875 39.953125 
Q 47.90625 39.59375 47.515625 39.59375 
L 36.8125 39.59375 
L 32.171875 15.1875 
Q 31.296875 9.859375 30.140625 4.359375 
Q 29 -1.125 26.921875 -6.90625 
Q 24.859375 -12.703125 21.625 -16.609375 
Q 18.40625 -20.515625 14.015625 -20.515625 
Q 10.640625 -20.515625 7.984375 -18.578125 
Q 5.328125 -16.65625 5.328125 -13.484375 
Q 5.328125 -10.9375 6.953125 -9.046875 
Q 8.59375 -7.171875 11.078125 -7.171875 
Q 12.75 -7.171875 13.859375 -8.171875 
Q 14.984375 -9.1875 14.984375 -10.796875 
Q 14.984375 -12.9375 13.390625 -14.71875 
Q 11.8125 -16.5 9.71875 -16.5 
z
" id="Cmmi10-102"/>
     <path d="M 31 -24.8125 
Q 25.4375 -20.40625 21.40625 -14.71875 
Q 17.390625 -9.03125 14.8125 -2.578125 
Q 12.25 3.859375 10.984375 10.890625 
Q 9.71875 17.921875 9.71875 25 
Q 9.71875 32.171875 10.984375 39.203125 
Q 12.25 46.234375 14.859375 52.734375 
Q 17.484375 59.234375 21.53125 64.890625 
Q 25.59375 70.5625 31 74.8125 
Q 31 75 31.5 75 
L 32.421875 75 
Q 32.71875 75 32.953125 74.734375 
Q 33.203125 74.46875 33.203125 74.125 
Q 33.203125 73.6875 33.015625 73.484375 
Q 28.125 68.703125 24.875 63.234375 
Q 21.625 57.765625 19.640625 51.578125 
Q 17.671875 45.40625 16.796875 38.78125 
Q 15.921875 32.171875 15.921875 25 
Q 15.921875 -6.78125 32.90625 -23.296875 
Q 33.203125 -23.578125 33.203125 -24.125 
Q 33.203125 -24.359375 32.9375 -24.671875 
Q 32.671875 -25 32.421875 -25 
L 31.5 -25 
Q 31 -25 31 -24.8125 
z
" id="Cmr10-40"/>
     <path d="M 6.5 -25 
Q 5.609375 -25 5.609375 -24.125 
Q 5.609375 -23.6875 5.8125 -23.484375 
Q 22.90625 -6.78125 22.90625 25 
Q 22.90625 56.78125 6 73.296875 
Q 5.609375 73.53125 5.609375 74.125 
Q 5.609375 74.46875 5.875 74.734375 
Q 6.15625 75 6.5 75 
L 7.421875 75 
Q 7.71875 75 7.90625 74.8125 
Q 15.09375 69.140625 19.875 61.03125 
Q 24.65625 52.9375 26.875 43.75 
Q 29.109375 34.578125 29.109375 25 
Q 29.109375 17.921875 27.90625 11.0625 
Q 26.703125 4.203125 24.09375 -2.453125 
Q 21.484375 -9.125 17.484375 -14.765625 
Q 13.484375 -20.40625 7.90625 -24.8125 
Q 7.71875 -25 7.421875 -25 
z
" id="Cmr10-41"/>
    </defs>
    <g style="fill:#ff0000;" transform="translate(24.041771 132.663274)scale(0.15 -0.15)">
     <use xlink:href="#Cmmi10-120"/>
     <use transform="translate(74.638672 0)" xlink:href="#Cmr10-61"/>
     <use transform="translate(169.882812 0)" xlink:href="#Cmmi10-102"/>
     <use transform="translate(218.759766 0)" xlink:href="#Cmr10-40"/>
     <use transform="translate(257.578125 0)" xlink:href="#Cmmi10-121"/>
     <use transform="translate(306.601562 0)" xlink:href="#Cmr10-41"/>
    </g>
   </g>
   <g id="text_7">
    <!-- $x=g(y)$ -->
    <defs>
     <path d="M 1.421875 -14.3125 
Q 1.421875 -11.859375 3.09375 -10.03125 
Q 4.78125 -8.203125 7.171875 -8.203125 
Q 8.796875 -8.203125 9.890625 -9.203125 
Q 10.984375 -10.203125 10.984375 -11.8125 
Q 10.984375 -13.625 9.953125 -15.0625 
Q 8.9375 -16.5 7.328125 -17.09375 
Q 10.015625 -17.921875 15.71875 -17.921875 
Q 20.3125 -17.921875 24.125 -14.375 
Q 27.9375 -10.84375 29.109375 -6.203125 
L 31.984375 5.515625 
Q 26.5625 0 20.703125 0 
Q 16.40625 0 13.34375 2.1875 
Q 10.296875 4.390625 8.6875 8.046875 
Q 7.078125 11.71875 7.078125 15.828125 
Q 7.078125 20.40625 8.953125 25.4375 
Q 10.84375 30.46875 14.234375 34.765625 
Q 17.625 39.0625 22.015625 41.625 
Q 26.421875 44.1875 31.296875 44.1875 
Q 34.234375 44.1875 36.578125 42.578125 
Q 38.921875 40.96875 40.28125 38.28125 
Q 41.265625 42.1875 44.578125 42.1875 
Q 45.84375 42.1875 46.71875 41.421875 
Q 47.609375 40.671875 47.609375 39.40625 
Q 47.609375 39.109375 47.578125 38.953125 
Q 47.5625 38.8125 47.515625 38.625 
L 36.078125 -6.78125 
Q 35.296875 -9.90625 33.203125 -12.5 
Q 31.109375 -15.09375 28.265625 -16.828125 
Q 25.4375 -18.5625 22.0625 -19.53125 
Q 18.703125 -20.515625 15.578125 -20.515625 
Q 9.859375 -20.515625 5.640625 -19.40625 
Q 1.421875 -18.3125 1.421875 -14.3125 
z
M 20.90625 2.59375 
Q 27.296875 2.59375 33.5 11.375 
L 39.015625 33.203125 
Q 38.328125 36.671875 36.28125 39.140625 
Q 34.234375 41.609375 31.109375 41.609375 
Q 27.78125 41.609375 24.828125 38.890625 
Q 21.875 36.1875 19.921875 32.421875 
Q 18.0625 28.8125 16.328125 22.046875 
Q 14.59375 15.28125 14.59375 11.375 
Q 14.59375 7.953125 16.15625 5.265625 
Q 17.71875 2.59375 20.90625 2.59375 
z
" id="Cmmi10-103"/>
    </defs>
    <g style="fill:#0000ff;" transform="translate(121.562989 193.567152)scale(0.15 -0.15)">
     <use xlink:href="#Cmmi10-120"/>
     <use transform="translate(74.638672 0)" xlink:href="#Cmr10-61"/>
     <use transform="translate(169.882812 0)" xlink:href="#Cmmi10-103"/>
     <use transform="translate(217.587891 0)" xlink:href="#Cmr10-40"/>
     <use transform="translate(256.40625 0)" xlink:href="#Cmmi10-121"/>
     <use transform="translate(305.429688 0)" xlink:href="#Cmr10-41"/>
    </g>
   </g>
  </g>
 </g>
 <defs>
  <clipPath id="pf74a9c44cc">
   <rect height="180.971538" width="144.777231" x="19.365822" y="38.4275"/>
  </clipPath>
 </defs>
</svg>
