<?xml version="1.0" encoding="utf-8" standalone="no"?>
<!DOCTYPE svg PUBLIC "-//W3C//DTD SVG 1.1//EN"
  "http://www.w3.org/Graphics/SVG/1.1/DTD/svg11.dtd">
<!-- Created with matplotlib (https://matplotlib.org/) -->
<svg height="205.288482pt" version="1.1" viewBox="0 0 243.975144 205.288482" width="243.975144pt" xmlns="http://www.w3.org/2000/svg" xmlns:xlink="http://www.w3.org/1999/xlink">
 <defs>
  <style type="text/css">
*{stroke-linecap:butt;stroke-linejoin:round;}
  </style>
 </defs>
 <g id="figure_1">
  <g id="patch_1">
   <path d="M 0 205.288482 
L 243.975144 205.288482 
L 243.975144 0 
L 0 0 
z
" style="fill:#ffffff;"/>
  </g>
  <g id="axes_1">
   <g id="patch_2">
    <path d="M 7.2 179.279997 
L 214.855144 179.279997 
L 214.855144 38.4275 
L 7.2 38.4275 
z
" style="fill:#ffffff;"/>
   </g>
   <g id="patch_3">
    <path clip-path="url(#p7fbcb86a21)" d="M 210.861776 110.015159 
L 209.95418 111.219787 
L 209.258527 112.13566 
L 207.785238 114.054005 
L 206.451766 115.765303 
L 206.137385 116.165301 
L 204.366612 118.393663 
L 204.094161 118.732801 
L 203.010386 120.072034 
L 201.500841 121.911255 
L 200.394791 123.23954 
L 199.408968 124.409672 
L 198.56047 125.406411 
L 197.784702 126.309299 
L 196.535041 127.74683 
L 195.983791 128.374326 
L 195.053948 129.423581 
L 194.128706 130.456182 
L 192.3431 132.416654 
L 191.808459 132.99537 
L 191.082031 133.775565 
L 190.088935 134.830763 
L 188.563778 136.425647 
L 188.10907 136.895131 
L 186.903578 138.126433 
L 185.300605 139.733664 
L 184.274327 140.744648 
L 183.860946 141.147896 
L 182.958438 142.020348 
L 181.765099 143.157244 
L 180.336475 144.493284 
L 179.535523 145.230404 
L 179.25101 145.49018 
L 177.525563 147.042452 
L 176.251364 148.163242 
L 175.998112 148.383421 
L 175.110433 149.148409 
L 174.160663 149.955252 
L 172.669651 151.197587 
L 171.509622 152.143606 
L 170.400133 153.031594 
L 170.088609 153.277968 
L 168.776257 154.301635 
L 168.100288 154.819933 
L 166.919216 155.71087 
L 166.011531 156.382918 
L 164.707049 157.329484 
L 163.269224 158.346478 
L 162.934916 158.578982 
L 162.006022 159.217173 
L 160.842626 160.000223 
L 159.628436 160.798184 
L 158.210714 161.704988 
L 157.965513 161.859101 
L 156.248323 162.915879 
L 155.524453 163.349558 
L 154.859709 163.741649 
L 154.171146 164.141567 
L 152.69648 164.976753 
L 152.051084 165.333139 
L 150.818323 165.998407 
L 149.630036 166.620462 
L 148.557259 167.165852 
L 147.260643 167.804524 
L 147.073381 167.894908 
L 145.650244 168.566494 
L 144.497877 169.090483 
L 144.075412 169.278138 
L 143.082016 169.710003 
L 141.431619 170.398353 
L 140.96675 170.585675 
L 139.221178 171.263298 
L 138.208112 171.637904 
L 137.277673 171.96988 
L 136.376238 172.280482 
L 135.413015 172.600379 
L 134.803484 172.79641 
L 133.764873 173.119006 
L 132.823339 173.398999 
L 131.111709 173.877679 
L 130.159558 174.127023 
L 129.258175 174.351916 
L 128.459776 174.542052 
L 127.722897 174.709983 
L 126.083068 175.057666 
L 125.82988 175.108147 
L 124.970998 175.273015 
L 123.781717 175.485039 
L 122.221682 175.73452 
L 121.952617 175.774263 
L 120.922823 175.917438 
L 119.674781 176.071972 
L 118.446487 176.20375 
L 117.242103 176.313398 
L 116.674578 176.358351 
L 115.652801 176.42844 
L 114.19082 176.504477 
L 113.923402 176.515297 
L 112.609339 176.554587 
L 111.117899 176.57124 
L 110.339377 176.568132 
L 109.970531 176.563834 
L 108.36183 176.523842 
L 107.885704 176.505377 
L 106.858091 176.455205 
L 105.431578 176.362181 
L 104.229499 176.262691 
L 103.225141 176.164768 
L 102.155809 176.045702 
L 101.327352 175.942958 
L 100.729399 175.863105 
L 99.607444 175.700389 
L 98.725393 175.560662 
L 97.947708 175.428849 
L 96.033393 175.06997 
L 95.539416 174.969419 
L 94.453001 174.736811 
L 93.103043 174.425813 
L 92.35811 174.243777 
L 91.787157 174.099239 
L 90.679157 173.806324 
L 88.993711 173.329313 
L 88.022939 173.037348 
L 87.089459 172.744729 
L 86.14953 172.43833 
L 85.01082 172.051325 
L 84.907763 172.015445 
L 83.78536 171.615491 
L 82.325408 171.070079 
L 81.366046 170.69618 
L 80.114303 170.189847 
L 79.138978 169.78082 
L 78.231151 169.388685 
L 77.474533 169.053455 
L 76.095752 168.422905 
L 75.024729 167.915579 
L 74.034183 167.432738 
L 73.034562 166.932188 
L 71.933758 166.365532 
L 71.795509 166.293223 
L 69.897525 165.274694 
L 69.568641 165.093312 
L 68.755589 164.638707 
L 67.246372 163.77145 
L 66.585056 163.381846 
L 64.99875 162.423489 
L 64.185135 161.918909 
L 63.179907 161.283287 
L 62.164627 160.627611 
L 61.407692 160.129819 
L 60.529317 159.54257 
L 59.428442 158.792016 
L 58.588534 158.208499 
L 57.487046 157.428971 
L 56.323533 156.587951 
L 55.628506 156.076939 
L 53.979331 154.838584 
L 53.804397 154.705097 
L 52.378367 153.601684 
L 51.491925 152.902097 
L 50.701583 152.269503 
L 49.140025 150.995101 
L 47.960557 150.010936 
L 47.318843 149.467677 
L 46.235089 148.53771 
L 45.368825 147.783092 
L 44.048058 146.613257 
L 43.41559 146.044816 
L 42.02432 144.775587 
L 41.729966 144.50374 
L 40.212806 143.084234 
L 39.580629 142.483675 
L 38.297186 141.248003 
L 37.690686 140.656423 
L 36.661968 139.64178 
L 34.982127 137.954539 
L 34.22396 137.180688 
L 33.339578 136.268311 
L 32.257719 135.138001 
L 31.396911 134.227476 
L 29.755652 132.464 
L 29.468899 132.152202 
L 28.400511 130.980833 
L 26.749591 129.140803 
L 26.706209 129.09196 
L 24.798539 126.919333 
L 24.526387 126.60542 
L 23.152864 125.006039 
L 22.339356 124.046881 
L 21.530357 123.084272 
L 20.232457 121.521672 
L 19.270211 120.348658 
L 17.796639 118.528349 
L 17.698263 118.405792 
L 16.368329 116.736275 
L 15.027374 115.029007 
L 14.106514 113.842684 
L 13.013192 112.419476 
L 12.112491 111.235014 
L 11.193368 110.015159 
L 11.193368 76.737091 
L 11.956045 75.731811 
L 12.949833 74.456581 
L 13.982188 73.173023 
L 14.637426 72.379906 
L 15.292664 71.603398 
L 16.356759 70.377459 
L 17.069393 69.580521 
L 17.769578 68.816156 
L 18.610379 67.922519 
L 19.451181 67.055102 
L 19.722342 66.780911 
L 20.689252 65.825069 
L 21.656163 64.903124 
L 22.520091 64.107749 
L 22.755548 63.895584 
L 23.463008 63.269902 
L 24.170469 62.661808 
L 24.950036 62.011935 
L 25.691134 61.413599 
L 26.432232 60.834073 
L 27.32057 60.163966 
L 27.910029 59.733963 
L 28.7876 59.115235 
L 29.448617 58.665986 
L 30.109633 58.231043 
L 30.919148 57.717707 
L 32.095652 57.009155 
L 32.865287 56.569405 
L 33.634922 56.148236 
L 34.242001 55.829012 
L 35.279277 55.309806 
L 36.262656 54.847789 
L 37.532008 54.294259 
L 37.792884 54.186413 
L 38.789707 53.792687 
L 39.548723 53.51223 
L 40.307739 53.2483 
L 41.481617 52.872247 
L 42.783662 52.500097 
L 43.095428 52.417911 
L 44.032668 52.186751 
L 45.246208 51.922484 
L 46.355374 51.714972 
L 47.785303 51.494487 
L 48.038448 51.460895 
L 49.380515 51.309705 
L 50.133949 51.24442 
L 51.088985 51.181582 
L 51.923272 51.144656 
L 53.244706 51.119861 
L 54.355115 51.130374 
L 55.783077 51.185037 
L 56.17964 51.208288 
L 57.160725 51.280635 
L 58.573587 51.421283 
L 58.906037 51.460527 
L 60.021465 51.609005 
L 60.866989 51.738555 
L 61.712512 51.882496 
L 62.62034 52.05279 
L 63.118003 52.152956 
L 64.427379 52.439119 
L 65.459548 52.687343 
L 66.46614 52.948185 
L 67.372537 53.198579 
L 68.097497 53.409225 
L 69.234609 53.75781 
L 70.018416 54.01075 
L 70.943132 54.322149 
L 71.867848 54.647304 
L 72.473694 54.867641 
L 73.715634 55.336975 
L 74.47874 55.63686 
L 75.63016 56.105454 
L 76.329838 56.399442 
L 77.766836 57.024459 
L 78.364619 57.29265 
L 79.716397 57.916254 
L 80.586718 58.329965 
L 81.36205 58.706325 
L 82.120714 59.081522 
L 83.657741 59.861944 
L 84.099398 60.091058 
L 85.263807 60.705121 
L 86.567308 61.409137 
L 87.051469 61.674926 
L 88.516732 62.492865 
L 89.444904 63.021104 
L 90.310302 63.520346 
L 91.69381 64.331308 
L 92.278017 64.67827 
L 93.685779 65.52474 
L 94.498666 66.019873 
L 95.280953 66.500508 
L 96.920282 67.520025 
L 97.183267 67.68504 
L 98.59977 68.58028 
L 99.012047 68.842773 
L 100.278316 69.653998 
L 101.841248 70.664728 
L 102.169891 70.878455 
L 103.266233 71.594137 
L 104.656827 72.507223 
L 105.104946 72.802569 
L 106.723044 73.872741 
L 107.997502 74.718905 
L 108.256703 74.891268 
L 109.835114 75.942232 
L 110.259602 76.225141 
L 111.988461 77.377624 
L 112.263138 77.560675 
L 113.605975 78.45488 
L 114.520048 79.062559 
L 115.089998 79.440891 
L 116.829268 80.591826 
L 117.879973 81.283836 
L 118.433065 81.646921 
L 119.255839 82.185339 
L 120.350595 82.898237 
L 121.940613 83.925518 
L 122.280408 84.143672 
L 124.013764 85.248066 
L 124.794783 85.740694 
L 125.541618 86.208611 
L 126.493018 86.799967 
L 127.283682 87.287155 
L 128.371706 87.950861 
L 129.61636 88.699978 
L 130.851579 89.431992 
L 132.045379 90.127932 
L 132.482363 90.379708 
L 133.795633 91.126342 
L 134.737115 91.651957 
L 135.339583 91.983901 
L 136.280532 92.495221 
L 137.964555 93.387714 
L 138.706075 93.771095 
L 139.883887 94.367424 
L 140.239569 94.544379 
L 141.79187 95.299062 
L 142.562587 95.662803 
L 143.259132 95.985076 
L 144.981443 96.754714 
L 145.242241 96.867782 
L 147.046335 97.623978 
L 147.622138 97.855537 
L 148.420456 98.168509 
L 149.830065 98.69765 
L 150.96042 99.099663 
L 151.761452 99.37219 
L 152.718604 99.684057 
L 154.078921 100.100829 
L 154.502091 100.224007 
L 155.321068 100.453496 
L 156.958471 100.876349 
L 157.912081 101.099956 
L 158.638091 101.258741 
L 159.696057 101.472053 
L 160.22449 101.570441 
L 161.382658 101.766712 
L 162.871448 101.979106 
L 163.909883 102.100029 
L 164.823586 102.187514 
L 166.156479 102.282727 
L 166.725152 102.311441 
L 167.545864 102.340119 
L 168.98554 102.353383 
L 170.189246 102.327518 
L 170.465164 102.316767 
L 171.400914 102.266736 
L 172.274832 102.200857 
L 173.14875 102.116206 
L 173.495362 102.077373 
L 174.490095 101.949144 
L 175.312865 101.824056 
L 176.135635 101.681504 
L 177.184512 101.474098 
L 177.775955 101.344296 
L 178.611711 101.14488 
L 179.753506 100.841773 
L 180.537823 100.612767 
L 181.28926 100.377267 
L 182.040696 100.125845 
L 183.150496 99.725034 
L 183.376319 99.63913 
L 184.533621 99.175546 
L 185.550851 98.735465 
L 186.311676 98.386105 
L 187.0725 98.019256 
L 187.310489 97.900885 
L 188.065868 97.513663 
L 188.821247 97.108799 
L 190.017557 96.431092 
L 190.574118 96.100378 
L 191.32105 95.640993 
L 192.067981 95.163629 
L 192.613777 94.803346 
L 193.578687 94.142499 
L 194.370324 93.577304 
L 195.161961 92.991148 
L 195.379539 92.826347 
L 196.386745 92.042508 
L 197.321634 91.283858 
L 198.256522 90.494939 
L 199.278783 89.597258 
L 200.264985 88.696169 
L 200.539981 88.438713 
L 201.719552 87.303452 
L 202.500884 86.523628 
L 203.282217 85.721394 
L 203.825022 85.150773 
L 204.605251 84.311324 
L 205.450543 83.376065 
L 206.295835 82.41373 
L 206.944968 81.656183 
L 207.581525 80.897561 
L 208.274747 80.053544 
L 208.967969 79.190772 
L 209.928241 77.9644 
L 210.861776 76.737091 
z
" style="fill:#cde0eb;opacity:0.5;"/>
   </g>
   <g id="matplotlib.axis_1">
    <g id="xtick_1">
     <g id="line2d_1">
      <defs>
       <path d="M 0 0 
L 0 3.5 
" id="m92820d88c0" style="stroke:#000000;stroke-width:0.8;"/>
      </defs>
      <g>
       <use style="stroke:#000000;stroke-width:0.8;" x="11.193368" xlink:href="#m92820d88c0" y="176.571295"/>
      </g>
     </g>
     <g id="text_1">
      <!-- $a$ -->
      <defs>
       <path d="M 17.390625 -1.125 
Q 11.078125 -1.125 7.4375 3.640625 
Q 3.8125 8.40625 3.8125 14.890625 
Q 3.8125 21.296875 7.125 28.171875 
Q 10.453125 35.0625 16.09375 39.625 
Q 21.734375 44.1875 28.21875 44.1875 
Q 31.203125 44.1875 33.546875 42.578125 
Q 35.890625 40.96875 37.203125 38.1875 
Q 38.328125 42.1875 41.609375 42.1875 
Q 42.875 42.1875 43.71875 41.421875 
Q 44.578125 40.671875 44.578125 39.40625 
Q 44.578125 39.109375 44.546875 38.953125 
Q 44.53125 38.8125 44.484375 38.625 
L 37.5 10.6875 
Q 36.8125 7.71875 36.8125 5.8125 
Q 36.8125 1.515625 39.703125 1.515625 
Q 42.828125 1.515625 44.453125 5.484375 
Q 46.09375 9.46875 47.21875 14.703125 
Q 47.40625 15.28125 48 15.28125 
L 49.21875 15.28125 
Q 49.609375 15.28125 49.84375 14.9375 
Q 50.09375 14.59375 50.09375 14.3125 
Q 48.34375 7.328125 46.265625 3.09375 
Q 44.1875 -1.125 39.5 -1.125 
Q 36.140625 -1.125 33.546875 0.84375 
Q 30.953125 2.828125 30.328125 6.109375 
Q 23.875 -1.125 17.390625 -1.125 
z
M 17.484375 1.515625 
Q 21.09375 1.515625 24.484375 4.21875 
Q 27.875 6.9375 30.328125 10.59375 
Q 30.421875 10.6875 30.421875 10.890625 
L 35.796875 32.625 
L 35.890625 32.90625 
Q 35.296875 36.46875 33.3125 39.03125 
Q 31.34375 41.609375 27.984375 41.609375 
Q 24.609375 41.609375 21.703125 38.84375 
Q 18.796875 36.078125 16.796875 32.328125 
Q 14.84375 28.328125 13.0625 21.34375 
Q 11.28125 14.359375 11.28125 10.5 
Q 11.28125 7.03125 12.765625 4.265625 
Q 14.265625 1.515625 17.484375 1.515625 
z
" id="Cmmi10-97"/>
      </defs>
      <g transform="translate(7.218368 194.968951)scale(0.15 -0.15)">
       <use transform="translate(0 0.8125)" xlink:href="#Cmmi10-97"/>
      </g>
     </g>
    </g>
    <g id="xtick_2">
     <g id="line2d_2">
      <g>
       <use style="stroke:#000000;stroke-width:0.8;" x="210.861776" xlink:href="#m92820d88c0" y="176.571295"/>
      </g>
     </g>
     <g id="text_2">
      <!-- $b$ -->
      <defs>
       <path d="M 17.28125 -1.125 
Q 11.234375 -1.125 7.859375 3.609375 
Q 4.5 8.34375 4.5 14.703125 
Q 4.5 15.625 4.953125 18.328125 
Q 5.421875 21.046875 5.421875 21.6875 
L 15.09375 60.5 
Q 15.484375 62.203125 15.578125 63.1875 
Q 15.578125 64.796875 9.078125 64.796875 
Q 8.109375 64.796875 8.109375 66.109375 
Q 8.15625 66.359375 8.328125 66.984375 
Q 8.5 67.625 8.765625 67.96875 
Q 9.03125 68.3125 9.515625 68.3125 
L 23 69.390625 
Q 24.21875 69.390625 24.21875 68.109375 
L 16.796875 38.625 
Q 22.46875 44.1875 28.21875 44.1875 
Q 32.46875 44.1875 35.515625 41.9375 
Q 38.578125 39.703125 40.09375 36.03125 
Q 41.609375 32.375 41.609375 28.21875 
Q 41.609375 23.390625 39.71875 18.234375 
Q 37.84375 13.09375 34.515625 8.671875 
Q 31.203125 4.25 26.75 1.5625 
Q 22.3125 -1.125 17.28125 -1.125 
z
M 17.484375 1.515625 
Q 20.90625 1.515625 23.875 4.375 
Q 26.859375 7.234375 28.71875 10.796875 
Q 30.71875 14.796875 32.453125 21.65625 
Q 34.1875 28.515625 34.1875 32.625 
Q 34.1875 36.1875 32.6875 38.890625 
Q 31.203125 41.609375 27.984375 41.609375 
Q 24.359375 41.609375 21.0625 38.9375 
Q 17.78125 36.28125 15.28125 32.625 
L 12.5 21.296875 
Q 10.890625 14.984375 10.796875 11.1875 
Q 10.796875 7.421875 12.421875 4.46875 
Q 14.0625 1.515625 17.484375 1.515625 
z
" id="Cmmi10-98"/>
      </defs>
      <g transform="translate(207.636776 194.968951)scale(0.15 -0.15)">
       <use transform="translate(0 0.609375)" xlink:href="#Cmmi10-98"/>
      </g>
     </g>
    </g>
    <g id="text_3">
     <!-- $x$ -->
     <defs>
      <path d="M 7.8125 2.875 
Q 9.578125 1.515625 12.796875 1.515625 
Q 15.921875 1.515625 18.3125 4.515625 
Q 20.703125 7.515625 21.578125 11.078125 
L 26.125 28.8125 
Q 27.203125 33.640625 27.203125 35.40625 
Q 27.203125 37.890625 25.8125 39.75 
Q 24.421875 41.609375 21.921875 41.609375 
Q 18.75 41.609375 15.96875 39.625 
Q 13.1875 37.640625 11.28125 34.59375 
Q 9.375 31.546875 8.59375 28.421875 
Q 8.40625 27.78125 7.8125 27.78125 
L 6.59375 27.78125 
Q 5.8125 27.78125 5.8125 28.71875 
L 5.8125 29 
Q 6.78125 32.71875 9.125 36.25 
Q 11.46875 39.796875 14.859375 41.984375 
Q 18.265625 44.1875 22.125 44.1875 
Q 25.78125 44.1875 28.734375 42.234375 
Q 31.6875 40.28125 32.90625 36.921875 
Q 34.625 39.984375 37.28125 42.078125 
Q 39.9375 44.1875 43.109375 44.1875 
Q 45.265625 44.1875 47.5 43.421875 
Q 49.75 42.671875 51.171875 41.109375 
Q 52.59375 39.546875 52.59375 37.203125 
Q 52.59375 34.671875 50.953125 32.828125 
Q 49.3125 31 46.78125 31 
Q 45.171875 31 44.09375 32.03125 
Q 43.015625 33.0625 43.015625 34.625 
Q 43.015625 36.71875 44.453125 38.296875 
Q 45.90625 39.890625 47.90625 40.1875 
Q 46.09375 41.609375 42.921875 41.609375 
Q 39.703125 41.609375 37.328125 38.625 
Q 34.96875 35.640625 33.984375 31.984375 
L 29.59375 14.3125 
Q 28.515625 10.296875 28.515625 7.71875 
Q 28.515625 5.171875 29.953125 3.34375 
Q 31.390625 1.515625 33.796875 1.515625 
Q 38.484375 1.515625 42.15625 5.640625 
Q 45.84375 9.765625 47.015625 14.703125 
Q 47.21875 15.28125 47.796875 15.28125 
L 49.03125 15.28125 
Q 49.421875 15.28125 49.65625 15.015625 
Q 49.90625 14.75 49.90625 14.40625 
Q 49.90625 14.3125 49.8125 14.109375 
Q 48.390625 8.15625 43.84375 3.515625 
Q 39.3125 -1.125 33.59375 -1.125 
Q 29.9375 -1.125 26.984375 0.84375 
Q 24.03125 2.828125 22.796875 6.203125 
Q 21.234375 3.265625 18.46875 1.0625 
Q 15.71875 -1.125 12.59375 -1.125 
Q 10.453125 -1.125 8.171875 -0.359375 
Q 5.90625 0.390625 4.484375 1.953125 
Q 3.078125 3.515625 3.078125 5.90625 
Q 3.078125 8.25 4.703125 10.171875 
Q 6.34375 12.109375 8.796875 12.109375 
Q 10.453125 12.109375 11.578125 11.109375 
Q 12.703125 10.109375 12.703125 8.5 
Q 12.703125 6.390625 11.296875 4.828125 
Q 9.90625 3.265625 7.8125 2.875 
z
" id="Cmmi10-120"/>
     </defs>
     <g transform="translate(222.855144 176.571295)scale(0.24 -0.24)">
      <use transform="translate(0 0.8125)" xlink:href="#Cmmi10-120"/>
     </g>
    </g>
   </g>
   <g id="matplotlib.axis_2">
    <g id="text_4">
     <!-- $y$ -->
     <defs>
      <path d="M 8.40625 -14.3125 
Q 10.5 -17.921875 15.71875 -17.921875 
Q 20.453125 -17.921875 23.921875 -14.59375 
Q 27.390625 -11.28125 29.515625 -6.5625 
Q 31.640625 -1.859375 32.8125 3.078125 
Q 28.375 -1.125 23.1875 -1.125 
Q 19.234375 -1.125 16.453125 0.234375 
Q 13.671875 1.609375 12.125 4.3125 
Q 10.59375 7.03125 10.59375 10.890625 
Q 10.59375 14.15625 11.46875 17.59375 
Q 12.359375 21.046875 13.9375 25.265625 
Q 15.53125 29.5 16.703125 32.625 
Q 18.015625 36.28125 18.015625 38.625 
Q 18.015625 41.609375 15.828125 41.609375 
Q 11.859375 41.609375 9.296875 37.53125 
Q 6.734375 33.453125 5.515625 28.421875 
Q 5.328125 27.78125 4.6875 27.78125 
L 3.515625 27.78125 
Q 2.6875 27.78125 2.6875 28.71875 
L 2.6875 29 
Q 4.296875 34.96875 7.609375 39.578125 
Q 10.9375 44.1875 16.015625 44.1875 
Q 19.578125 44.1875 22.046875 41.84375 
Q 24.515625 39.5 24.515625 35.890625 
Q 24.515625 34.03125 23.6875 31.984375 
Q 23.25 30.765625 21.6875 26.65625 
Q 20.125 22.5625 19.28125 19.875 
Q 18.453125 17.1875 17.921875 14.59375 
Q 17.390625 12.015625 17.390625 9.421875 
Q 17.390625 6.109375 18.796875 3.8125 
Q 20.21875 1.515625 23.296875 1.515625 
Q 29.5 1.515625 34.421875 9.078125 
L 42 39.890625 
Q 42.328125 41.21875 43.546875 42.15625 
Q 44.78125 43.109375 46.1875 43.109375 
Q 47.40625 43.109375 48.3125 42.328125 
Q 49.21875 41.546875 49.21875 40.28125 
Q 49.21875 39.703125 49.125 39.5 
L 39.203125 -0.296875 
Q 37.890625 -5.421875 34.375 -10.109375 
Q 30.859375 -14.796875 25.90625 -17.65625 
Q 20.953125 -20.515625 15.578125 -20.515625 
Q 12.984375 -20.515625 10.4375 -19.5 
Q 7.90625 -18.5 6.34375 -16.5 
Q 4.78125 -14.5 4.78125 -11.8125 
Q 4.78125 -9.078125 6.390625 -7.078125 
Q 8.015625 -5.078125 10.6875 -5.078125 
Q 12.3125 -5.078125 13.40625 -6.078125 
Q 14.5 -7.078125 14.5 -8.6875 
Q 14.5 -10.984375 12.78125 -12.6875 
Q 11.078125 -14.40625 8.796875 -14.40625 
Q 8.6875 -14.359375 8.59375 -14.328125 
Q 8.5 -14.3125 8.40625 -14.3125 
z
" id="Cmmi10-121"/>
     </defs>
     <g transform="translate(105.027572 25.3875)scale(0.24 -0.24)">
      <use transform="translate(0 0.8125)" xlink:href="#Cmmi10-121"/>
     </g>
    </g>
   </g>
   <g id="line2d_3">
    <path clip-path="url(#p7fbcb86a21)" d="M 11.193368 76.737091 
L 14.637426 72.379906 
L 17.769578 68.816156 
L 20.689252 65.825069 
L 23.463008 63.269902 
L 26.432232 60.834073 
L 29.448617 58.665986 
L 32.095652 57.009155 
L 35.279277 55.309806 
L 37.792884 54.186413 
L 40.307739 53.2483 
L 43.095428 52.417911 
L 46.355374 51.714972 
L 50.133949 51.24442 
L 53.244706 51.119861 
L 56.17964 51.208288 
L 58.906037 51.460527 
L 62.62034 52.05279 
L 65.459548 52.687343 
L 69.234609 53.75781 
L 72.473694 54.867641 
L 76.329838 56.399442 
L 81.36205 58.706325 
L 85.263807 60.705121 
L 90.310302 63.520346 
L 96.920282 67.520025 
L 103.266233 71.594137 
L 128.371706 87.950861 
L 133.795633 91.126342 
L 138.706075 93.771095 
L 143.259132 95.985076 
L 147.622138 97.855537 
L 151.761452 99.37219 
L 155.321068 100.453496 
L 159.696057 101.472053 
L 162.871448 101.979106 
L 166.156479 102.282727 
L 168.98554 102.353383 
L 172.274832 102.200857 
L 175.312865 101.824056 
L 178.611711 101.14488 
L 182.040696 100.125845 
L 184.533621 99.175546 
L 187.310489 97.900885 
L 190.017557 96.431092 
L 192.613777 94.803346 
L 195.379539 92.826347 
L 198.256522 90.494939 
L 200.539981 88.438713 
L 203.825022 85.150773 
L 206.944968 81.656183 
L 209.928241 77.9644 
L 210.861776 76.737091 
L 210.861776 76.737091 
" style="fill:none;stroke:#ff0000;stroke-linecap:square;stroke-width:1.5;"/>
   </g>
   <g id="line2d_4">
    <path clip-path="url(#p7fbcb86a21)" d="M 11.193368 110.015159 
L 16.639893 117.0791 
L 20.928342 122.362276 
L 26.561766 128.929157 
L 31.011444 133.816537 
L 36.433262 139.414283 
L 41.489728 144.281014 
L 46.511755 148.776608 
L 51.317813 152.763454 
L 56.07777 156.407993 
L 59.989823 159.176777 
L 65.394909 162.665974 
L 70.06443 165.36619 
L 74.237889 167.533105 
L 79.009222 169.725447 
L 83.612727 171.552482 
L 87.204944 172.781561 
L 91.432776 174.007337 
L 95.070065 174.870862 
L 99.747408 175.721605 
L 104.086146 176.249539 
L 108.42051 176.525908 
L 112.600082 176.554782 
L 116.365581 176.381017 
L 120.718262 175.944192 
L 124.441188 175.369802 
L 128.711988 174.482909 
L 133.162878 173.299392 
L 137.559029 171.870714 
L 141.561368 170.345555 
L 146.374715 168.227992 
L 150.514482 166.159258 
L 155.426961 163.407432 
L 159.920751 160.607875 
L 164.484681 157.488573 
L 169.731909 153.55848 
L 173.965936 150.119187 
L 178.255123 146.390966 
L 183.902902 141.107072 
L 188.34779 136.648998 
L 192.707102 132.020461 
L 197.64296 126.473398 
L 202.439485 120.771195 
L 207.535113 114.376809 
L 210.861776 110.015159 
L 210.861776 110.015159 
" style="fill:none;stroke:#0000ff;stroke-linecap:square;stroke-width:1.5;"/>
   </g>
   <g id="line2d_5">
    <path clip-path="url(#p7fbcb86a21)" d="M 11.193368 110.015159 
L 11.193368 76.737091 
" style="fill:none;stroke:#000000;stroke-linecap:square;"/>
   </g>
   <g id="line2d_6">
    <path clip-path="url(#p7fbcb86a21)" d="M 210.861776 110.015159 
L 210.861776 76.737091 
" style="fill:none;stroke:#000000;stroke-linecap:square;"/>
   </g>
   <g id="line2d_7">
    <path clip-path="url(#p7fbcb86a21)" d="M 11.193368 176.571295 
L 11.193368 110.015159 
" style="fill:none;stroke:#d3d3d3;stroke-dasharray:3.7,1.6;stroke-dashoffset:0;"/>
   </g>
   <g id="line2d_8">
    <path clip-path="url(#p7fbcb86a21)" d="M 210.861776 176.571295 
L 210.861776 110.015159 
" style="fill:none;stroke:#d3d3d3;stroke-dasharray:3.7,1.6;stroke-dashoffset:0;"/>
   </g>
   <g id="patch_4">
    <path d="M 111.027572 179.279997 
L 111.027572 38.4275 
" style="fill:none;stroke:#000000;stroke-linecap:square;stroke-linejoin:miter;stroke-width:0.8;"/>
   </g>
   <g id="patch_5">
    <path d="M 7.2 176.571295 
L 214.855144 176.571295 
" style="fill:none;stroke:#000000;stroke-linecap:square;stroke-linejoin:miter;stroke-width:0.8;"/>
   </g>
   <g id="text_5">
    <!-- $y=f(x)$ -->
    <defs>
     <path d="M 7.515625 13.28125 
Q 6.6875 13.28125 6.140625 13.90625 
Q 5.609375 14.546875 5.609375 15.28125 
Q 5.609375 16.109375 6.140625 16.6875 
Q 6.6875 17.28125 7.515625 17.28125 
L 70.3125 17.28125 
Q 71.046875 17.28125 71.578125 16.6875 
Q 72.125 16.109375 72.125 15.28125 
Q 72.125 14.546875 71.578125 13.90625 
Q 71.046875 13.28125 70.3125 13.28125 
z
M 7.515625 32.71875 
Q 6.6875 32.71875 6.140625 33.296875 
Q 5.609375 33.890625 5.609375 34.71875 
Q 5.609375 35.453125 6.140625 36.078125 
Q 6.6875 36.71875 7.515625 36.71875 
L 70.3125 36.71875 
Q 71.046875 36.71875 71.578125 36.078125 
Q 72.125 35.453125 72.125 34.71875 
Q 72.125 33.890625 71.578125 33.296875 
Q 71.046875 32.71875 70.3125 32.71875 
z
" id="Cmr10-61"/>
     <path d="M 9.71875 -16.5 
Q 11.578125 -17.921875 14.203125 -17.921875 
Q 17.78125 -17.921875 20.015625 -10.015625 
Q 20.953125 -6.203125 25.09375 15.09375 
L 29.6875 39.59375 
L 21.09375 39.59375 
Q 20.125 39.59375 20.125 40.921875 
Q 20.515625 43.109375 21.390625 43.109375 
L 30.328125 43.109375 
L 31.5 49.609375 
Q 32.078125 52.640625 32.5625 54.8125 
Q 33.0625 56.984375 33.625 58.828125 
Q 34.1875 60.6875 35.296875 62.984375 
Q 37.015625 66.265625 39.921875 68.390625 
Q 42.828125 70.515625 46.1875 70.515625 
Q 48.390625 70.515625 50.46875 69.703125 
Q 52.546875 68.890625 53.859375 67.28125 
Q 55.171875 65.671875 55.171875 63.484375 
Q 55.171875 60.9375 53.484375 59.046875 
Q 51.8125 57.171875 49.421875 57.171875 
Q 47.796875 57.171875 46.65625 58.171875 
Q 45.515625 59.1875 45.515625 60.796875 
Q 45.515625 62.984375 47 64.625 
Q 48.484375 66.265625 50.6875 66.5 
Q 48.828125 67.921875 46.09375 67.921875 
Q 44.578125 67.921875 43.234375 66.5 
Q 41.890625 65.09375 41.5 63.484375 
Q 40.875 60.9375 38.71875 49.703125 
L 37.5 43.109375 
L 47.796875 43.109375 
Q 48.78125 43.109375 48.78125 41.796875 
Q 48.734375 41.546875 48.578125 40.9375 
Q 48.4375 40.328125 48.171875 39.953125 
Q 47.90625 39.59375 47.515625 39.59375 
L 36.8125 39.59375 
L 32.171875 15.1875 
Q 31.296875 9.859375 30.140625 4.359375 
Q 29 -1.125 26.921875 -6.90625 
Q 24.859375 -12.703125 21.625 -16.609375 
Q 18.40625 -20.515625 14.015625 -20.515625 
Q 10.640625 -20.515625 7.984375 -18.578125 
Q 5.328125 -16.65625 5.328125 -13.484375 
Q 5.328125 -10.9375 6.953125 -9.046875 
Q 8.59375 -7.171875 11.078125 -7.171875 
Q 12.75 -7.171875 13.859375 -8.171875 
Q 14.984375 -9.1875 14.984375 -10.796875 
Q 14.984375 -12.9375 13.390625 -14.71875 
Q 11.8125 -16.5 9.71875 -16.5 
z
" id="Cmmi10-102"/>
     <path d="M 31 -24.8125 
Q 25.4375 -20.40625 21.40625 -14.71875 
Q 17.390625 -9.03125 14.8125 -2.578125 
Q 12.25 3.859375 10.984375 10.890625 
Q 9.71875 17.921875 9.71875 25 
Q 9.71875 32.171875 10.984375 39.203125 
Q 12.25 46.234375 14.859375 52.734375 
Q 17.484375 59.234375 21.53125 64.890625 
Q 25.59375 70.5625 31 74.8125 
Q 31 75 31.5 75 
L 32.421875 75 
Q 32.71875 75 32.953125 74.734375 
Q 33.203125 74.46875 33.203125 74.125 
Q 33.203125 73.6875 33.015625 73.484375 
Q 28.125 68.703125 24.875 63.234375 
Q 21.625 57.765625 19.640625 51.578125 
Q 17.671875 45.40625 16.796875 38.78125 
Q 15.921875 32.171875 15.921875 25 
Q 15.921875 -6.78125 32.90625 -23.296875 
Q 33.203125 -23.578125 33.203125 -24.125 
Q 33.203125 -24.359375 32.9375 -24.671875 
Q 32.671875 -25 32.421875 -25 
L 31.5 -25 
Q 31 -25 31 -24.8125 
z
" id="Cmr10-40"/>
     <path d="M 6.5 -25 
Q 5.609375 -25 5.609375 -24.125 
Q 5.609375 -23.6875 5.8125 -23.484375 
Q 22.90625 -6.78125 22.90625 25 
Q 22.90625 56.78125 6 73.296875 
Q 5.609375 73.53125 5.609375 74.125 
Q 5.609375 74.46875 5.875 74.734375 
Q 6.15625 75 6.5 75 
L 7.421875 75 
Q 7.71875 75 7.90625 74.8125 
Q 15.09375 69.140625 19.875 61.03125 
Q 24.65625 52.9375 26.875 43.75 
Q 29.109375 34.578125 29.109375 25 
Q 29.109375 17.921875 27.90625 11.0625 
Q 26.703125 4.203125 24.09375 -2.453125 
Q 21.484375 -9.125 17.484375 -14.765625 
Q 13.484375 -20.40625 7.90625 -24.8125 
Q 7.71875 -25 7.421875 -25 
z
" id="Cmr10-41"/>
    </defs>
    <g style="fill:#ff0000;" transform="translate(49.401792 44.886202)scale(0.15 -0.15)">
     <use xlink:href="#Cmmi10-121"/>
     <use transform="translate(66.582031 0)" xlink:href="#Cmr10-61"/>
     <use transform="translate(161.826172 0)" xlink:href="#Cmmi10-102"/>
     <use transform="translate(210.703125 0)" xlink:href="#Cmr10-40"/>
     <use transform="translate(249.521484 0)" xlink:href="#Cmmi10-120"/>
     <use transform="translate(306.601562 0)" xlink:href="#Cmr10-41"/>
    </g>
   </g>
   <g id="text_6">
    <!-- $y=g(x)$ -->
    <defs>
     <path d="M 1.421875 -14.3125 
Q 1.421875 -11.859375 3.09375 -10.03125 
Q 4.78125 -8.203125 7.171875 -8.203125 
Q 8.796875 -8.203125 9.890625 -9.203125 
Q 10.984375 -10.203125 10.984375 -11.8125 
Q 10.984375 -13.625 9.953125 -15.0625 
Q 8.9375 -16.5 7.328125 -17.09375 
Q 10.015625 -17.921875 15.71875 -17.921875 
Q 20.3125 -17.921875 24.125 -14.375 
Q 27.9375 -10.84375 29.109375 -6.203125 
L 31.984375 5.515625 
Q 26.5625 0 20.703125 0 
Q 16.40625 0 13.34375 2.1875 
Q 10.296875 4.390625 8.6875 8.046875 
Q 7.078125 11.71875 7.078125 15.828125 
Q 7.078125 20.40625 8.953125 25.4375 
Q 10.84375 30.46875 14.234375 34.765625 
Q 17.625 39.0625 22.015625 41.625 
Q 26.421875 44.1875 31.296875 44.1875 
Q 34.234375 44.1875 36.578125 42.578125 
Q 38.921875 40.96875 40.28125 38.28125 
Q 41.265625 42.1875 44.578125 42.1875 
Q 45.84375 42.1875 46.71875 41.421875 
Q 47.609375 40.671875 47.609375 39.40625 
Q 47.609375 39.109375 47.578125 38.953125 
Q 47.5625 38.8125 47.515625 38.625 
L 36.078125 -6.78125 
Q 35.296875 -9.90625 33.203125 -12.5 
Q 31.109375 -15.09375 28.265625 -16.828125 
Q 25.4375 -18.5625 22.0625 -19.53125 
Q 18.703125 -20.515625 15.578125 -20.515625 
Q 9.859375 -20.515625 5.640625 -19.40625 
Q 1.421875 -18.3125 1.421875 -14.3125 
z
M 20.90625 2.59375 
Q 27.296875 2.59375 33.5 11.375 
L 39.015625 33.203125 
Q 38.328125 36.671875 36.28125 39.140625 
Q 34.234375 41.609375 31.109375 41.609375 
Q 27.78125 41.609375 24.828125 38.890625 
Q 21.875 36.1875 19.921875 32.421875 
Q 18.0625 28.8125 16.328125 22.046875 
Q 14.59375 15.28125 14.59375 11.375 
Q 14.59375 7.953125 16.15625 5.265625 
Q 17.71875 2.59375 20.90625 2.59375 
z
" id="Cmmi10-103"/>
    </defs>
    <g style="fill:#0000ff;" transform="translate(155.036515 170.337874)scale(0.15 -0.15)">
     <use xlink:href="#Cmmi10-121"/>
     <use transform="translate(66.582031 0)" xlink:href="#Cmr10-61"/>
     <use transform="translate(161.826172 0)" xlink:href="#Cmmi10-103"/>
     <use transform="translate(209.53125 0)" xlink:href="#Cmr10-40"/>
     <use transform="translate(248.349609 0)" xlink:href="#Cmmi10-120"/>
     <use transform="translate(305.429688 0)" xlink:href="#Cmr10-41"/>
    </g>
   </g>
  </g>
 </g>
 <defs>
  <clipPath id="p7fbcb86a21">
   <rect height="140.852497" width="207.655144" x="7.2" y="38.4275"/>
  </clipPath>
 </defs>
</svg>
