<?xml version="1.0" encoding="utf-8" standalone="no"?>
<!DOCTYPE svg PUBLIC "-//W3C//DTD SVG 1.1//EN"
  "http://www.w3.org/Graphics/SVG/1.1/DTD/svg11.dtd">
<!-- Created with matplotlib (https://matplotlib.org/) -->
<svg height="244.636004pt" version="1.1" viewBox="0 0 193.263053 244.636004" width="193.263053pt" xmlns="http://www.w3.org/2000/svg" xmlns:xlink="http://www.w3.org/1999/xlink">
 <defs>
  <style type="text/css">
*{stroke-linecap:butt;stroke-linejoin:round;}
  </style>
 </defs>
 <g id="figure_1">
  <g id="patch_1">
   <path d="M 0 244.636004 
L 193.263053 244.636004 
L 193.263053 0 
L 0 0 
z
" style="fill:#ffffff;"/>
  </g>
  <g id="axes_1">
   <g id="patch_2">
    <path d="M 19.365822 219.399038 
L 164.143053 219.399038 
L 164.143053 38.4275 
L 19.365822 38.4275 
z
" style="fill:#ffffff;"/>
   </g>
   <g id="patch_3">
    <path clip-path="url(#p9ad1926112)" d="M 161.358876 41.907722 
L 160.883436 44.27277 
L 160.325185 47.018895 
L 159.766933 49.731936 
L 159.255957 52.186451 
L 158.636933 55.123447 
L 157.951971 58.327049 
L 157.506883 60.382929 
L 157.061795 62.418628 
L 156.393013 65.439783 
L 156.055102 66.949189 
L 155.553245 69.169933 
L 155.051387 71.365756 
L 154.613824 73.260077 
L 153.991932 75.92029 
L 153.406649 78.389755 
L 152.821366 80.826406 
L 152.046686 84.001589 
L 151.237005 87.260067 
L 150.751491 89.184783 
L 150.409586 90.52718 
L 149.544634 93.875563 
L 148.837902 96.56129 
L 148.379348 98.280015 
L 147.920794 99.980112 
L 147.261033 102.393775 
L 146.575336 104.862177 
L 145.940722 107.11062 
L 145.435598 108.87573 
L 144.930475 110.619276 
L 144.80675 111.043074 
L 144.267258 112.876075 
L 143.727765 114.684942 
L 143.450728 115.604513 
L 142.69791 118.071714 
L 142.17112 119.770886 
L 141.644331 121.447831 
L 141.243241 122.709849 
L 140.652365 124.545937 
L 139.818806 127.089848 
L 138.928494 129.747899 
L 138.458752 131.126047 
L 137.653652 133.449557 
L 137.117102 134.971293 
L 136.60817 136.395144 
L 136.099239 137.800128 
L 135.416869 139.654599 
L 134.723317 141.505428 
L 134.193476 142.896513 
L 133.67878 144.229072 
L 133.164083 145.543309 
L 132.871134 146.283216 
L 131.99999 148.449033 
L 131.407974 149.89178 
L 130.850248 151.229677 
L 130.038409 153.140684 
L 129.203557 155.061383 
L 128.794392 155.986465 
L 128.154215 157.412633 
L 127.514038 158.813195 
L 126.737117 160.478973 
L 126.235698 161.534525 
L 125.400784 163.258596 
L 125.256704 163.551919 
L 124.489787 165.092661 
L 123.893934 166.266063 
L 123.298081 167.419029 
L 123.071834 167.851511 
L 122.281845 169.338965 
L 121.299063 171.14092 
L 120.548586 172.481332 
L 119.773632 173.833647 
L 119.607105 174.120069 
L 118.679026 175.68966 
L 117.712601 177.276684 
L 117.463901 177.677379 
L 116.692064 178.901106 
L 115.576251 180.617987 
L 115.099153 181.333562 
L 114.580354 182.099276 
L 114.049345 182.869773 
L 112.993375 184.362792 
L 112.450607 185.110221 
L 111.958727 185.77603 
L 111.274466 186.684228 
L 110.402176 187.812047 
L 109.394297 189.074187 
L 108.85212 189.735292 
L 108.438793 190.231022 
L 107.149114 191.732662 
L 106.631527 192.316412 
L 105.940529 193.079191 
L 105.711985 193.327361 
L 104.466879 194.644049 
L 103.897529 195.226564 
L 103.636738 195.489353 
L 102.801953 196.313729 
L 102.240621 196.853857 
L 101.028974 197.981633 
L 100.759762 198.225259 
L 99.559102 199.281727 
L 98.770009 199.949805 
L 98.366815 200.283293 
L 97.933488 200.635853 
L 96.659559 201.637863 
L 96.025122 202.118086 
L 95.288487 202.660355 
L 94.604544 203.14938 
L 93.87935 203.65299 
L 93.187758 204.119246 
L 92.919647 204.296376 
L 91.761578 205.03866 
L 91.667148 205.097577 
L 90.705498 205.684039 
L 89.666764 206.290381 
L 89.410645 206.435651 
L 88.601338 206.8839 
L 88.026862 207.192301 
L 87.419715 207.509589 
L 86.789535 207.829681 
L 85.956885 208.238495 
L 85.204552 208.594366 
L 84.177191 209.060182 
L 83.826823 209.213841 
L 83.096933 209.525641 
L 81.994963 209.975626 
L 81.897002 210.014444 
L 80.776822 210.444944 
L 80.181178 210.664033 
L 79.68198 210.842526 
L 78.589969 211.217101 
L 78.459239 211.260512 
L 77.448322 211.586132 
L 76.383971 211.910197 
L 76.037335 212.011703 
L 75.45369 212.178242 
L 74.807124 212.356457 
L 74.122418 212.538161 
L 73.401699 212.721819 
L 72.805437 212.868018 
L 71.995835 213.05843 
L 70.833868 213.315964 
L 70.231449 213.442424 
L 69.817312 213.526647 
L 69.134757 213.660748 
L 68.194476 213.836152 
L 67.70771 213.922834 
L 67.157744 214.017483 
L 65.877069 214.224827 
L 65.388873 214.299221 
L 64.805574 214.384862 
L 63.932705 214.506619 
L 63.285658 214.592085 
L 62.997317 214.628895 
L 62.307387 214.713861 
L 61.002244 214.863036 
L 60.297176 214.937614 
L 59.943212 214.973528 
L 58.993376 215.065035 
L 58.733453 215.088874 
L 57.892926 215.162559 
L 56.799954 215.250904 
L 56.632336 215.263734 
L 55.947474 215.314247 
L 55.03192 215.377143 
L 54.647152 215.402055 
L 53.969926 215.443803 
L 52.842657 215.507622 
L 52.318972 215.534976 
L 51.784998 215.561438 
L 50.994075 215.598089 
L 49.916614 215.643393 
L 49.623081 215.654856 
L 49.031756 215.676859 
L 47.995074 215.712079 
L 47.27009 215.734318 
L 46.607658 215.753023 
L 45.792805 215.774038 
L 45.554331 215.779791 
L 44.265486 215.807977 
L 43.915226 215.814834 
L 42.921673 215.832559 
L 42.722346 215.835823 
L 41.615736 215.85229 
L 41.161178 215.85829 
L 40.453185 215.866815 
L 39.723765 215.874622 
L 38.778024 215.883395 
L 37.976873 215.889744 
L 37.611987 215.892333 
L 37.069609 215.895858 
L 36.302283 215.900229 
L 35.413002 215.904479 
L 34.802812 215.906941 
L 33.835104 215.910178 
L 33.625327 215.910782 
L 32.594332 215.913303 
L 31.896168 215.914636 
L 30.902929 215.916097 
L 30.298285 215.916774 
L 30.13231 215.916935 
L 29.186988 215.91768 
L 28.35328 215.91813 
L 27.485612 215.918441 
L 26.992129 215.918562 
L 26.072102 215.918707 
L 25.960089 215.918719 
L 25.26006 215.918773 
L 23.940995 215.918812 
L 23.212066 215.918816 
L 22.602895 215.918817 
L 22.15 215.918817 
L 22.15 215.918817 
L 22.767883 215.146463 
L 23.27526 214.512241 
L 24.254317 213.288421 
L 24.856193 212.536075 
L 25.832485 211.31571 
L 26.236027 210.811282 
L 26.753433 210.164526 
L 27.547881 209.171466 
L 28.510726 207.967909 
L 28.934082 207.438714 
L 29.594062 206.613739 
L 30.873214 205.014799 
L 31.165549 204.64938 
L 32.130256 203.443496 
L 32.391644 203.116761 
L 33.272295 202.015948 
L 34.062964 201.027612 
L 34.675968 200.261356 
L 35.278785 199.507835 
L 36.306439 198.223268 
L 37.070022 197.268789 
L 37.885398 196.249569 
L 38.382234 195.628524 
L 38.709482 195.219464 
L 39.803763 193.851613 
L 40.349702 193.169189 
L 41.284138 192.001145 
L 41.930136 191.193647 
L 42.582769 190.377855 
L 43.304159 189.476118 
L 43.907615 188.721798 
L 44.731078 187.69247 
L 45.024393 187.325826 
L 45.958271 186.158478 
L 46.94411 184.926179 
L 47.024934 184.825149 
L 48.096663 183.485488 
L 48.707834 182.721524 
L 49.122704 182.202937 
L 50.073867 181.013982 
L 51.136091 179.686203 
L 51.822313 178.828425 
L 51.968704 178.645437 
L 52.90483 177.475279 
L 53.404487 176.850708 
L 54.493481 175.489465 
L 54.741015 175.180048 
L 55.957446 173.659509 
L 56.45304 173.040016 
L 56.93002 172.443792 
L 57.929844 171.194012 
L 58.792004 170.116311 
L 59.224205 169.576061 
L 60.096506 168.485684 
L 60.500185 167.981086 
L 61.268322 167.020914 
L 62.086192 165.998577 
L 62.465414 165.524549 
L 63.619069 164.08248 
L 64.029664 163.569237 
L 64.91075 162.467879 
L 65.735119 161.437418 
L 65.972077 161.14122 
L 66.655357 160.287121 
L 67.693024 158.990037 
L 68.570123 157.893663 
L 69.272719 157.015418 
L 69.693855 156.488998 
L 70.373713 155.639176 
L 70.827866 155.071484 
L 71.682522 154.003164 
L 72.583048 152.877507 
L 73.153343 152.164638 
L 73.881079 151.254968 
L 74.63697 150.310103 
L 75.094695 149.737948 
L 76.352521 148.165666 
L 76.545218 147.924794 
L 77.691171 146.492353 
L 78.22833 145.820904 
L 78.749384 145.169586 
L 79.654995 144.037572 
L 79.891195 143.742323 
L 80.692061 142.74124 
L 81.380763 141.880363 
L 82.396603 140.610563 
L 83.222618 139.578044 
L 83.920987 138.705082 
L 84.38144 138.129517 
L 84.814056 137.588746 
L 85.668203 136.521062 
L 86.243946 135.801384 
L 86.914047 134.963758 
L 87.929993 133.693825 
L 88.697568 132.734357 
L 89.021763 132.329113 
L 89.888106 131.246184 
L 90.586831 130.372777 
L 91.706362 128.973364 
L 92.352545 128.165635 
L 92.994571 127.363103 
L 93.612399 126.590818 
L 94.120802 125.955314 
L 95.14977 124.669105 
L 95.883979 123.751343 
L 96.388843 123.120263 
L 97.126009 122.198806 
L 97.640531 121.555653 
L 98.711625 120.216786 
L 99.204315 119.600923 
L 99.829994 118.818825 
L 100.271232 118.267277 
L 101.100306 117.230934 
L 101.825841 116.324016 
L 102.897241 114.984765 
L 103.068775 114.770348 
L 104.12821 113.446054 
L 104.565004 112.900061 
L 105.40719 111.847329 
L 106.288359 110.745868 
L 107.123379 109.702093 
L 107.320084 109.456211 
L 108.43389 108.063954 
L 109.060835 107.280273 
L 109.274743 107.012887 
L 110.490827 105.492783 
L 110.845815 105.049047 
L 111.733072 103.939977 
L 112.269066 103.269984 
L 113.008176 102.346096 
L 113.760753 101.405375 
L 114.645311 100.299678 
L 115.18185 99.629005 
L 116.196134 98.361149 
L 116.788286 97.620959 
L 116.987738 97.371645 
L 118.24617 95.798604 
L 118.374141 95.63864 
L 119.248666 94.545484 
L 120.124967 93.450108 
L 120.463405 93.02706 
L 121.259653 92.03175 
L 122.138131 90.933653 
L 122.844778 90.050344 
L 123.275769 89.511605 
L 124.31993 88.206404 
L 125.030942 87.317639 
L 125.619187 86.582333 
L 126.473696 85.514197 
L 127.324433 84.450776 
L 127.527104 84.197436 
L 128.220869 83.33023 
L 128.877899 82.508942 
L 129.992628 81.115532 
L 130.252622 80.790539 
L 131.557688 79.159207 
L 132.073798 78.514069 
L 132.344578 78.175594 
L 133.528823 76.695287 
L 134.079081 76.007465 
L 135.062461 74.778241 
L 135.275266 74.512235 
L 136.08336 73.502116 
L 136.649292 72.794701 
L 137.440716 71.805422 
L 138.617766 70.334109 
L 139.258183 69.533588 
L 139.679643 69.006763 
L 140.223431 68.327028 
L 140.738752 67.682877 
L 141.648705 66.545435 
L 142.713399 65.214568 
L 143.201012 64.605051 
L 144.213833 63.339026 
L 144.34671 63.17293 
L 145.428365 61.82086 
L 146.231966 60.816359 
L 146.666435 60.273273 
L 147.145052 59.675002 
L 148.214686 58.33796 
L 148.510729 57.967905 
L 149.758531 56.408153 
L 150.250273 55.793476 
L 151.042088 54.803706 
L 151.539889 54.181455 
L 152.587897 52.871446 
L 152.79975 52.606629 
L 153.42153 51.829404 
L 154.682218 50.253543 
L 155.310661 49.46799 
L 155.598816 49.107797 
L 156.26838 48.270842 
L 157.329413 46.94455 
L 157.642472 46.553226 
L 158.595228 45.362281 
L 159.450248 44.293506 
L 159.831568 43.816857 
L 160.857904 42.533937 
z
" style="fill:#cde0eb;opacity:0.5;"/>
   </g>
   <g id="matplotlib.axis_1">
    <g id="xtick_1">
     <g id="line2d_1">
      <defs>
       <path d="M 0 0 
L 0 3.5 
" id="m429d40b4cb" style="stroke:#000000;stroke-width:0.8;"/>
      </defs>
      <g>
       <use style="stroke:#000000;stroke-width:0.8;" x="22.010791" xlink:href="#m429d40b4cb" y="215.918817"/>
      </g>
     </g>
     <g id="text_1">
      <!-- $c$ -->
      <defs>
       <path d="M 11.71875 11.921875 
Q 11.71875 7.5625 13.9375 4.53125 
Q 16.15625 1.515625 20.3125 1.515625 
Q 26.265625 1.515625 31.75 4.25 
Q 37.25 6.984375 40.71875 11.8125 
Q 41.015625 12.109375 41.5 12.109375 
Q 42 12.109375 42.5 11.546875 
Q 43.015625 10.984375 43.015625 10.5 
Q 43.015625 10.109375 42.828125 9.90625 
Q 39.15625 4.78125 32.953125 1.828125 
Q 26.765625 -1.125 20.125 -1.125 
Q 15.328125 -1.125 11.671875 1.140625 
Q 8.015625 3.421875 6 7.21875 
Q 4 11.03125 4 15.828125 
Q 4 22.5625 7.765625 29.203125 
Q 11.53125 35.84375 17.78125 40.015625 
Q 24.03125 44.1875 30.90625 44.1875 
Q 35.40625 44.1875 38.984375 42.015625 
Q 42.578125 39.84375 42.578125 35.59375 
Q 42.578125 32.859375 40.984375 30.921875 
Q 39.40625 29 36.71875 29 
Q 35.109375 29 34 30 
Q 32.90625 31 32.90625 32.625 
Q 32.90625 34.96875 34.609375 36.625 
Q 36.328125 38.28125 38.625 38.28125 
L 38.8125 38.28125 
Q 37.640625 39.984375 35.421875 40.796875 
Q 33.203125 41.609375 30.8125 41.609375 
Q 24.953125 41.609375 20.546875 36.59375 
Q 16.15625 31.59375 13.9375 24.625 
Q 11.71875 17.671875 11.71875 11.921875 
z
" id="Cmmi10-99"/>
      </defs>
      <g transform="translate(18.710791 234.316473)scale(0.15 -0.15)">
       <use transform="translate(0 0.8125)" xlink:href="#Cmmi10-99"/>
      </g>
     </g>
    </g>
    <g id="xtick_2">
     <g id="line2d_2">
      <g>
       <use style="stroke:#000000;stroke-width:0.8;" x="22.289209" xlink:href="#m429d40b4cb" y="215.918817"/>
      </g>
     </g>
     <g id="text_2">
      <!-- $c$ -->
      <g transform="translate(18.989209 234.316473)scale(0.15 -0.15)">
       <use transform="translate(0 0.8125)" xlink:href="#Cmmi10-99"/>
      </g>
     </g>
    </g>
    <g id="text_3">
     <!-- $x$ -->
     <defs>
      <path d="M 7.8125 2.875 
Q 9.578125 1.515625 12.796875 1.515625 
Q 15.921875 1.515625 18.3125 4.515625 
Q 20.703125 7.515625 21.578125 11.078125 
L 26.125 28.8125 
Q 27.203125 33.640625 27.203125 35.40625 
Q 27.203125 37.890625 25.8125 39.75 
Q 24.421875 41.609375 21.921875 41.609375 
Q 18.75 41.609375 15.96875 39.625 
Q 13.1875 37.640625 11.28125 34.59375 
Q 9.375 31.546875 8.59375 28.421875 
Q 8.40625 27.78125 7.8125 27.78125 
L 6.59375 27.78125 
Q 5.8125 27.78125 5.8125 28.71875 
L 5.8125 29 
Q 6.78125 32.71875 9.125 36.25 
Q 11.46875 39.796875 14.859375 41.984375 
Q 18.265625 44.1875 22.125 44.1875 
Q 25.78125 44.1875 28.734375 42.234375 
Q 31.6875 40.28125 32.90625 36.921875 
Q 34.625 39.984375 37.28125 42.078125 
Q 39.9375 44.1875 43.109375 44.1875 
Q 45.265625 44.1875 47.5 43.421875 
Q 49.75 42.671875 51.171875 41.109375 
Q 52.59375 39.546875 52.59375 37.203125 
Q 52.59375 34.671875 50.953125 32.828125 
Q 49.3125 31 46.78125 31 
Q 45.171875 31 44.09375 32.03125 
Q 43.015625 33.0625 43.015625 34.625 
Q 43.015625 36.71875 44.453125 38.296875 
Q 45.90625 39.890625 47.90625 40.1875 
Q 46.09375 41.609375 42.921875 41.609375 
Q 39.703125 41.609375 37.328125 38.625 
Q 34.96875 35.640625 33.984375 31.984375 
L 29.59375 14.3125 
Q 28.515625 10.296875 28.515625 7.71875 
Q 28.515625 5.171875 29.953125 3.34375 
Q 31.390625 1.515625 33.796875 1.515625 
Q 38.484375 1.515625 42.15625 5.640625 
Q 45.84375 9.765625 47.015625 14.703125 
Q 47.21875 15.28125 47.796875 15.28125 
L 49.03125 15.28125 
Q 49.421875 15.28125 49.65625 15.015625 
Q 49.90625 14.75 49.90625 14.40625 
Q 49.90625 14.3125 49.8125 14.109375 
Q 48.390625 8.15625 43.84375 3.515625 
Q 39.3125 -1.125 33.59375 -1.125 
Q 29.9375 -1.125 26.984375 0.84375 
Q 24.03125 2.828125 22.796875 6.203125 
Q 21.234375 3.265625 18.46875 1.0625 
Q 15.71875 -1.125 12.59375 -1.125 
Q 10.453125 -1.125 8.171875 -0.359375 
Q 5.90625 0.390625 4.484375 1.953125 
Q 3.078125 3.515625 3.078125 5.90625 
Q 3.078125 8.25 4.703125 10.171875 
Q 6.34375 12.109375 8.796875 12.109375 
Q 10.453125 12.109375 11.578125 11.109375 
Q 12.703125 10.109375 12.703125 8.5 
Q 12.703125 6.390625 11.296875 4.828125 
Q 9.90625 3.265625 7.8125 2.875 
z
" id="Cmmi10-120"/>
     </defs>
     <g transform="translate(172.143053 215.918817)scale(0.24 -0.24)">
      <use transform="translate(0 0.8125)" xlink:href="#Cmmi10-120"/>
     </g>
    </g>
   </g>
   <g id="matplotlib.axis_2">
    <g id="ytick_1">
     <g id="line2d_3">
      <defs>
       <path d="M 0 0 
L -3.5 0 
" id="mb27a2d5f84" style="stroke:#000000;stroke-width:0.8;"/>
      </defs>
      <g>
       <use style="stroke:#000000;stroke-width:0.8;" x="22.15" xlink:href="#mb27a2d5f84" y="215.918817"/>
      </g>
     </g>
    </g>
    <g id="ytick_2">
     <g id="line2d_4">
      <g>
       <use style="stroke:#000000;stroke-width:0.8;" x="22.15" xlink:href="#mb27a2d5f84" y="41.907722"/>
      </g>
     </g>
     <g id="text_4">
      <!-- $d$ -->
      <defs>
       <path d="M 17.390625 -1.125 
Q 11.078125 -1.125 7.4375 3.640625 
Q 3.8125 8.40625 3.8125 14.890625 
Q 3.8125 21.296875 7.125 28.171875 
Q 10.453125 35.0625 16.09375 39.625 
Q 21.734375 44.1875 28.21875 44.1875 
Q 31.15625 44.1875 33.515625 42.546875 
Q 35.890625 40.921875 37.203125 38.1875 
L 42.828125 60.5 
Q 43.21875 62.203125 43.3125 63.1875 
Q 43.3125 64.796875 36.8125 64.796875 
Q 35.796875 64.796875 35.796875 66.109375 
Q 35.84375 66.359375 36.015625 66.984375 
Q 36.1875 67.625 36.453125 67.96875 
Q 36.71875 68.3125 37.203125 68.3125 
L 50.6875 69.390625 
Q 51.90625 69.390625 51.90625 68.109375 
L 37.5 10.59375 
Q 36.8125 8.9375 36.8125 5.8125 
Q 36.8125 1.515625 39.703125 1.515625 
Q 42.828125 1.515625 44.453125 5.484375 
Q 46.09375 9.46875 47.21875 14.703125 
Q 47.40625 15.28125 48 15.28125 
L 49.21875 15.28125 
Q 49.609375 15.28125 49.84375 14.9375 
Q 50.09375 14.59375 50.09375 14.3125 
Q 48.34375 7.328125 46.265625 3.09375 
Q 44.1875 -1.125 39.5 -1.125 
Q 36.140625 -1.125 33.546875 0.84375 
Q 30.953125 2.828125 30.328125 6.109375 
Q 23.875 -1.125 17.390625 -1.125 
z
M 17.484375 1.515625 
Q 21.09375 1.515625 24.484375 4.21875 
Q 27.875 6.9375 30.328125 10.59375 
Q 30.421875 10.6875 30.421875 10.984375 
L 35.890625 33.015625 
Q 35.296875 36.53125 33.296875 39.0625 
Q 31.296875 41.609375 27.984375 41.609375 
Q 24.609375 41.609375 21.703125 38.84375 
Q 18.796875 36.078125 16.796875 32.328125 
Q 14.84375 28.328125 13.0625 21.34375 
Q 11.28125 14.359375 11.28125 10.5 
Q 11.28125 7.03125 12.765625 4.265625 
Q 14.265625 1.515625 17.484375 1.515625 
z
" id="Cmmi10-100"/>
      </defs>
      <g transform="translate(7.2 47.60655)scale(0.15 -0.15)">
       <use transform="translate(0 0.609375)" xlink:href="#Cmmi10-100"/>
      </g>
     </g>
    </g>
    <g id="text_5">
     <!-- $y$ -->
     <defs>
      <path d="M 8.40625 -14.3125 
Q 10.5 -17.921875 15.71875 -17.921875 
Q 20.453125 -17.921875 23.921875 -14.59375 
Q 27.390625 -11.28125 29.515625 -6.5625 
Q 31.640625 -1.859375 32.8125 3.078125 
Q 28.375 -1.125 23.1875 -1.125 
Q 19.234375 -1.125 16.453125 0.234375 
Q 13.671875 1.609375 12.125 4.3125 
Q 10.59375 7.03125 10.59375 10.890625 
Q 10.59375 14.15625 11.46875 17.59375 
Q 12.359375 21.046875 13.9375 25.265625 
Q 15.53125 29.5 16.703125 32.625 
Q 18.015625 36.28125 18.015625 38.625 
Q 18.015625 41.609375 15.828125 41.609375 
Q 11.859375 41.609375 9.296875 37.53125 
Q 6.734375 33.453125 5.515625 28.421875 
Q 5.328125 27.78125 4.6875 27.78125 
L 3.515625 27.78125 
Q 2.6875 27.78125 2.6875 28.71875 
L 2.6875 29 
Q 4.296875 34.96875 7.609375 39.578125 
Q 10.9375 44.1875 16.015625 44.1875 
Q 19.578125 44.1875 22.046875 41.84375 
Q 24.515625 39.5 24.515625 35.890625 
Q 24.515625 34.03125 23.6875 31.984375 
Q 23.25 30.765625 21.6875 26.65625 
Q 20.125 22.5625 19.28125 19.875 
Q 18.453125 17.1875 17.921875 14.59375 
Q 17.390625 12.015625 17.390625 9.421875 
Q 17.390625 6.109375 18.796875 3.8125 
Q 20.21875 1.515625 23.296875 1.515625 
Q 29.5 1.515625 34.421875 9.078125 
L 42 39.890625 
Q 42.328125 41.21875 43.546875 42.15625 
Q 44.78125 43.109375 46.1875 43.109375 
Q 47.40625 43.109375 48.3125 42.328125 
Q 49.21875 41.546875 49.21875 40.28125 
Q 49.21875 39.703125 49.125 39.5 
L 39.203125 -0.296875 
Q 37.890625 -5.421875 34.375 -10.109375 
Q 30.859375 -14.796875 25.90625 -17.65625 
Q 20.953125 -20.515625 15.578125 -20.515625 
Q 12.984375 -20.515625 10.4375 -19.5 
Q 7.90625 -18.5 6.34375 -16.5 
Q 4.78125 -14.5 4.78125 -11.8125 
Q 4.78125 -9.078125 6.390625 -7.078125 
Q 8.015625 -5.078125 10.6875 -5.078125 
Q 12.3125 -5.078125 13.40625 -6.078125 
Q 14.5 -7.078125 14.5 -8.6875 
Q 14.5 -10.984375 12.78125 -12.6875 
Q 11.078125 -14.40625 8.796875 -14.40625 
Q 8.6875 -14.359375 8.59375 -14.328125 
Q 8.5 -14.3125 8.40625 -14.3125 
z
" id="Cmmi10-121"/>
     </defs>
     <g transform="translate(16.15 25.3875)scale(0.24 -0.24)">
      <use transform="translate(0 0.8125)" xlink:href="#Cmmi10-121"/>
     </g>
    </g>
   </g>
   <g id="line2d_5">
    <path clip-path="url(#p9ad1926112)" d="M 22.15 215.918817 
L 161.358876 41.907722 
L 161.358876 41.907722 
" style="fill:none;stroke:#ff0000;stroke-linecap:square;stroke-width:1.5;"/>
   </g>
   <g id="line2d_6">
    <path clip-path="url(#p9ad1926112)" d="M 22.15 215.918817 
L 43.640679 215.819982 
L 51.987481 215.55157 
L 57.96698 215.156272 
L 63.104381 214.615318 
L 67.679563 213.927762 
L 71.618857 213.143984 
L 75.004706 212.302688 
L 79.181597 211.016839 
L 83.174616 209.492983 
L 86.648141 207.900226 
L 90.036512 206.077726 
L 92.618227 204.493122 
L 95.810755 202.277575 
L 98.758424 199.959461 
L 101.601599 197.455071 
L 104.41024 194.702542 
L 107.645688 191.162497 
L 110.166035 188.111669 
L 113.355448 183.856687 
L 115.872277 180.168446 
L 119.068223 175.036923 
L 121.709469 170.39491 
L 124.780669 164.512336 
L 127.441503 158.970285 
L 130.840866 151.252008 
L 134.011142 143.370686 
L 136.860013 135.692927 
L 139.483306 128.098609 
L 142.808764 117.711301 
L 145.462483 108.78233 
L 148.634219 97.327029 
L 151.883761 84.662182 
L 154.643038 73.134183 
L 158.11047 57.590036 
L 161.358876 41.907722 
L 161.358876 41.907722 
" style="fill:none;stroke:#0000ff;stroke-linecap:square;stroke-width:1.5;"/>
   </g>
   <g id="line2d_7">
    <path clip-path="url(#p9ad1926112)" d="M 22.15 215.918817 
L 22.15 215.918817 
" style="fill:none;stroke:#000000;stroke-linecap:square;"/>
   </g>
   <g id="line2d_8">
    <path clip-path="url(#p9ad1926112)" d="M 161.358876 41.907722 
L 161.358876 41.907722 
" style="fill:none;stroke:#000000;stroke-linecap:square;"/>
   </g>
   <g id="line2d_9">
    <path clip-path="url(#p9ad1926112)" d="M 22.15 215.918817 
L 22.15 215.918817 
" style="fill:none;stroke:#d3d3d3;stroke-dasharray:3.7,1.6;stroke-dashoffset:0;"/>
   </g>
   <g id="line2d_10">
    <path clip-path="url(#p9ad1926112)" d="M 22.15 41.907722 
L 161.358876 41.907722 
" style="fill:none;stroke:#d3d3d3;stroke-dasharray:3.7,1.6;stroke-dashoffset:0;"/>
   </g>
   <g id="patch_4">
    <path d="M 22.15 219.399038 
L 22.15 38.4275 
" style="fill:none;stroke:#000000;stroke-linecap:square;stroke-linejoin:miter;stroke-width:0.8;"/>
   </g>
   <g id="patch_5">
    <path d="M 19.365822 215.918817 
L 164.143053 215.918817 
" style="fill:none;stroke:#000000;stroke-linecap:square;stroke-linejoin:miter;stroke-width:0.8;"/>
   </g>
   <g id="text_6">
    <!-- $x=f(y)$ -->
    <defs>
     <path d="M 7.515625 13.28125 
Q 6.6875 13.28125 6.140625 13.90625 
Q 5.609375 14.546875 5.609375 15.28125 
Q 5.609375 16.109375 6.140625 16.6875 
Q 6.6875 17.28125 7.515625 17.28125 
L 70.3125 17.28125 
Q 71.046875 17.28125 71.578125 16.6875 
Q 72.125 16.109375 72.125 15.28125 
Q 72.125 14.546875 71.578125 13.90625 
Q 71.046875 13.28125 70.3125 13.28125 
z
M 7.515625 32.71875 
Q 6.6875 32.71875 6.140625 33.296875 
Q 5.609375 33.890625 5.609375 34.71875 
Q 5.609375 35.453125 6.140625 36.078125 
Q 6.6875 36.71875 7.515625 36.71875 
L 70.3125 36.71875 
Q 71.046875 36.71875 71.578125 36.078125 
Q 72.125 35.453125 72.125 34.71875 
Q 72.125 33.890625 71.578125 33.296875 
Q 71.046875 32.71875 70.3125 32.71875 
z
" id="Cmr10-61"/>
     <path d="M 9.71875 -16.5 
Q 11.578125 -17.921875 14.203125 -17.921875 
Q 17.78125 -17.921875 20.015625 -10.015625 
Q 20.953125 -6.203125 25.09375 15.09375 
L 29.6875 39.59375 
L 21.09375 39.59375 
Q 20.125 39.59375 20.125 40.921875 
Q 20.515625 43.109375 21.390625 43.109375 
L 30.328125 43.109375 
L 31.5 49.609375 
Q 32.078125 52.640625 32.5625 54.8125 
Q 33.0625 56.984375 33.625 58.828125 
Q 34.1875 60.6875 35.296875 62.984375 
Q 37.015625 66.265625 39.921875 68.390625 
Q 42.828125 70.515625 46.1875 70.515625 
Q 48.390625 70.515625 50.46875 69.703125 
Q 52.546875 68.890625 53.859375 67.28125 
Q 55.171875 65.671875 55.171875 63.484375 
Q 55.171875 60.9375 53.484375 59.046875 
Q 51.8125 57.171875 49.421875 57.171875 
Q 47.796875 57.171875 46.65625 58.171875 
Q 45.515625 59.1875 45.515625 60.796875 
Q 45.515625 62.984375 47 64.625 
Q 48.484375 66.265625 50.6875 66.5 
Q 48.828125 67.921875 46.09375 67.921875 
Q 44.578125 67.921875 43.234375 66.5 
Q 41.890625 65.09375 41.5 63.484375 
Q 40.875 60.9375 38.71875 49.703125 
L 37.5 43.109375 
L 47.796875 43.109375 
Q 48.78125 43.109375 48.78125 41.796875 
Q 48.734375 41.546875 48.578125 40.9375 
Q 48.4375 40.328125 48.171875 39.953125 
Q 47.90625 39.59375 47.515625 39.59375 
L 36.8125 39.59375 
L 32.171875 15.1875 
Q 31.296875 9.859375 30.140625 4.359375 
Q 29 -1.125 26.921875 -6.90625 
Q 24.859375 -12.703125 21.625 -16.609375 
Q 18.40625 -20.515625 14.015625 -20.515625 
Q 10.640625 -20.515625 7.984375 -18.578125 
Q 5.328125 -16.65625 5.328125 -13.484375 
Q 5.328125 -10.9375 6.953125 -9.046875 
Q 8.59375 -7.171875 11.078125 -7.171875 
Q 12.75 -7.171875 13.859375 -8.171875 
Q 14.984375 -9.1875 14.984375 -10.796875 
Q 14.984375 -12.9375 13.390625 -14.71875 
Q 11.8125 -16.5 9.71875 -16.5 
z
" id="Cmmi10-102"/>
     <path d="M 31 -24.8125 
Q 25.4375 -20.40625 21.40625 -14.71875 
Q 17.390625 -9.03125 14.8125 -2.578125 
Q 12.25 3.859375 10.984375 10.890625 
Q 9.71875 17.921875 9.71875 25 
Q 9.71875 32.171875 10.984375 39.203125 
Q 12.25 46.234375 14.859375 52.734375 
Q 17.484375 59.234375 21.53125 64.890625 
Q 25.59375 70.5625 31 74.8125 
Q 31 75 31.5 75 
L 32.421875 75 
Q 32.71875 75 32.953125 74.734375 
Q 33.203125 74.46875 33.203125 74.125 
Q 33.203125 73.6875 33.015625 73.484375 
Q 28.125 68.703125 24.875 63.234375 
Q 21.625 57.765625 19.640625 51.578125 
Q 17.671875 45.40625 16.796875 38.78125 
Q 15.921875 32.171875 15.921875 25 
Q 15.921875 -6.78125 32.90625 -23.296875 
Q 33.203125 -23.578125 33.203125 -24.125 
Q 33.203125 -24.359375 32.9375 -24.671875 
Q 32.671875 -25 32.421875 -25 
L 31.5 -25 
Q 31 -25 31 -24.8125 
z
" id="Cmr10-40"/>
     <path d="M 6.5 -25 
Q 5.609375 -25 5.609375 -24.125 
Q 5.609375 -23.6875 5.8125 -23.484375 
Q 22.90625 -6.78125 22.90625 25 
Q 22.90625 56.78125 6 73.296875 
Q 5.609375 73.53125 5.609375 74.125 
Q 5.609375 74.46875 5.875 74.734375 
Q 6.15625 75 6.5 75 
L 7.421875 75 
Q 7.71875 75 7.90625 74.8125 
Q 15.09375 69.140625 19.875 61.03125 
Q 24.65625 52.9375 26.875 43.75 
Q 29.109375 34.578125 29.109375 25 
Q 29.109375 17.921875 27.90625 11.0625 
Q 26.703125 4.203125 24.09375 -2.453125 
Q 21.484375 -9.125 17.484375 -14.765625 
Q 13.484375 -20.40625 7.90625 -24.8125 
Q 7.71875 -25 7.421875 -25 
z
" id="Cmr10-41"/>
    </defs>
    <g style="fill:#ff0000;" transform="translate(24.041771 150.064384)scale(0.15 -0.15)">
     <use xlink:href="#Cmmi10-120"/>
     <use transform="translate(74.638672 0)" xlink:href="#Cmr10-61"/>
     <use transform="translate(169.882812 0)" xlink:href="#Cmmi10-102"/>
     <use transform="translate(218.759766 0)" xlink:href="#Cmr10-40"/>
     <use transform="translate(257.578125 0)" xlink:href="#Cmmi10-121"/>
     <use transform="translate(306.601562 0)" xlink:href="#Cmr10-41"/>
    </g>
   </g>
   <g id="text_7">
    <!-- $x=g(y)$ -->
    <defs>
     <path d="M 1.421875 -14.3125 
Q 1.421875 -11.859375 3.09375 -10.03125 
Q 4.78125 -8.203125 7.171875 -8.203125 
Q 8.796875 -8.203125 9.890625 -9.203125 
Q 10.984375 -10.203125 10.984375 -11.8125 
Q 10.984375 -13.625 9.953125 -15.0625 
Q 8.9375 -16.5 7.328125 -17.09375 
Q 10.015625 -17.921875 15.71875 -17.921875 
Q 20.3125 -17.921875 24.125 -14.375 
Q 27.9375 -10.84375 29.109375 -6.203125 
L 31.984375 5.515625 
Q 26.5625 0 20.703125 0 
Q 16.40625 0 13.34375 2.1875 
Q 10.296875 4.390625 8.6875 8.046875 
Q 7.078125 11.71875 7.078125 15.828125 
Q 7.078125 20.40625 8.953125 25.4375 
Q 10.84375 30.46875 14.234375 34.765625 
Q 17.625 39.0625 22.015625 41.625 
Q 26.421875 44.1875 31.296875 44.1875 
Q 34.234375 44.1875 36.578125 42.578125 
Q 38.921875 40.96875 40.28125 38.28125 
Q 41.265625 42.1875 44.578125 42.1875 
Q 45.84375 42.1875 46.71875 41.421875 
Q 47.609375 40.671875 47.609375 39.40625 
Q 47.609375 39.109375 47.578125 38.953125 
Q 47.5625 38.8125 47.515625 38.625 
L 36.078125 -6.78125 
Q 35.296875 -9.90625 33.203125 -12.5 
Q 31.109375 -15.09375 28.265625 -16.828125 
Q 25.4375 -18.5625 22.0625 -19.53125 
Q 18.703125 -20.515625 15.578125 -20.515625 
Q 9.859375 -20.515625 5.640625 -19.40625 
Q 1.421875 -18.3125 1.421875 -14.3125 
z
M 20.90625 2.59375 
Q 27.296875 2.59375 33.5 11.375 
L 39.015625 33.203125 
Q 38.328125 36.671875 36.28125 39.140625 
Q 34.234375 41.609375 31.109375 41.609375 
Q 27.78125 41.609375 24.828125 38.890625 
Q 21.875 36.1875 19.921875 32.421875 
Q 18.0625 28.8125 16.328125 22.046875 
Q 14.59375 15.28125 14.59375 11.375 
Q 14.59375 7.953125 16.15625 5.265625 
Q 17.71875 2.59375 20.90625 2.59375 
z
" id="Cmmi10-103"/>
    </defs>
    <g style="fill:#0000ff;" transform="translate(107.642102 193.567152)scale(0.15 -0.15)">
     <use xlink:href="#Cmmi10-120"/>
     <use transform="translate(74.638672 0)" xlink:href="#Cmr10-61"/>
     <use transform="translate(169.882812 0)" xlink:href="#Cmmi10-103"/>
     <use transform="translate(217.587891 0)" xlink:href="#Cmr10-40"/>
     <use transform="translate(256.40625 0)" xlink:href="#Cmmi10-121"/>
     <use transform="translate(305.429688 0)" xlink:href="#Cmr10-41"/>
    </g>
   </g>
  </g>
 </g>
 <defs>
  <clipPath id="p9ad1926112">
   <rect height="180.971538" width="144.777231" x="19.365822" y="38.4275"/>
  </clipPath>
 </defs>
</svg>
