<?xml version="1.0" encoding="utf-8" standalone="no"?>
<!DOCTYPE svg PUBLIC "-//W3C//DTD SVG 1.1//EN"
  "http://www.w3.org/Graphics/SVG/1.1/DTD/svg11.dtd">
<!-- Created with matplotlib (https://matplotlib.org/) -->
<svg height="337.325pt" version="1.1" viewBox="0 0 453.07 337.325" width="453.07pt" xmlns="http://www.w3.org/2000/svg" xmlns:xlink="http://www.w3.org/1999/xlink">
 <defs>
  <style type="text/css">
*{stroke-linecap:butt;stroke-linejoin:round;}
  </style>
 </defs>
 <g id="figure_1">
  <g id="patch_1">
   <path d="M 0 337.325 
L 453.07 337.325 
L 453.07 0 
L 0 0 
z
" style="fill:#ffffff;"/>
  </g>
  <g id="axes_1">
   <g id="patch_2">
    <path d="M 7.2 330.125 
L 428.59 330.125 
L 428.59 30.685 
L 7.2 30.685 
z
" style="fill:#ffffff;"/>
   </g>
   <g id="matplotlib.axis_1">
    <g id="xtick_1">
     <g id="line2d_1">
      <defs>
       <path d="M 0 0 
L 0 3.5 
" id="mde873151f9" style="stroke:#000000;stroke-width:0.8;"/>
      </defs>
      <g>
       <use style="stroke:#000000;stroke-width:0.8;" x="15.303654" xlink:href="#mde873151f9" y="180.405"/>
      </g>
     </g>
     <g id="text_1">
      <!-- -3 -->
      <defs>
       <path d="M 4.890625 31.390625 
L 31.203125 31.390625 
L 31.203125 23.390625 
L 4.890625 23.390625 
z
" id="DejaVuSans-45"/>
       <path d="M 40.578125 39.3125 
Q 47.65625 37.796875 51.625 33 
Q 55.609375 28.21875 55.609375 21.1875 
Q 55.609375 10.40625 48.1875 4.484375 
Q 40.765625 -1.421875 27.09375 -1.421875 
Q 22.515625 -1.421875 17.65625 -0.515625 
Q 12.796875 0.390625 7.625 2.203125 
L 7.625 11.71875 
Q 11.71875 9.328125 16.59375 8.109375 
Q 21.484375 6.890625 26.8125 6.890625 
Q 36.078125 6.890625 40.9375 10.546875 
Q 45.796875 14.203125 45.796875 21.1875 
Q 45.796875 27.640625 41.28125 31.265625 
Q 36.765625 34.90625 28.71875 34.90625 
L 20.21875 34.90625 
L 20.21875 43.015625 
L 29.109375 43.015625 
Q 36.375 43.015625 40.234375 45.921875 
Q 44.09375 48.828125 44.09375 54.296875 
Q 44.09375 59.90625 40.109375 62.90625 
Q 36.140625 65.921875 28.71875 65.921875 
Q 24.65625 65.921875 20.015625 65.03125 
Q 15.375 64.15625 9.8125 62.3125 
L 9.8125 71.09375 
Q 15.4375 72.65625 20.34375 73.4375 
Q 25.25 74.21875 29.59375 74.21875 
Q 40.828125 74.21875 47.359375 69.109375 
Q 53.90625 64.015625 53.90625 55.328125 
Q 53.90625 49.265625 50.4375 45.09375 
Q 46.96875 40.921875 40.578125 39.3125 
z
" id="DejaVuSans-51"/>
      </defs>
      <g transform="translate(10.318498 195.003437)scale(0.1 -0.1)">
       <use xlink:href="#DejaVuSans-45"/>
       <use x="36.083984" xlink:href="#DejaVuSans-51"/>
      </g>
     </g>
    </g>
    <g id="xtick_2">
     <g id="line2d_2">
      <g>
       <use style="stroke:#000000;stroke-width:0.8;" x="82.834103" xlink:href="#mde873151f9" y="180.405"/>
      </g>
     </g>
     <g id="text_2">
      <!-- -2 -->
      <defs>
       <path d="M 19.1875 8.296875 
L 53.609375 8.296875 
L 53.609375 0 
L 7.328125 0 
L 7.328125 8.296875 
Q 12.9375 14.109375 22.625 23.890625 
Q 32.328125 33.6875 34.8125 36.53125 
Q 39.546875 41.84375 41.421875 45.53125 
Q 43.3125 49.21875 43.3125 52.78125 
Q 43.3125 58.59375 39.234375 62.25 
Q 35.15625 65.921875 28.609375 65.921875 
Q 23.96875 65.921875 18.8125 64.3125 
Q 13.671875 62.703125 7.8125 59.421875 
L 7.8125 69.390625 
Q 13.765625 71.78125 18.9375 73 
Q 24.125 74.21875 28.421875 74.21875 
Q 39.75 74.21875 46.484375 68.546875 
Q 53.21875 62.890625 53.21875 53.421875 
Q 53.21875 48.921875 51.53125 44.890625 
Q 49.859375 40.875 45.40625 35.40625 
Q 44.1875 33.984375 37.640625 27.21875 
Q 31.109375 20.453125 19.1875 8.296875 
z
" id="DejaVuSans-50"/>
      </defs>
      <g transform="translate(77.848946 195.003437)scale(0.1 -0.1)">
       <use xlink:href="#DejaVuSans-45"/>
       <use x="36.083984" xlink:href="#DejaVuSans-50"/>
      </g>
     </g>
    </g>
    <g id="xtick_3">
     <g id="line2d_3">
      <g>
       <use style="stroke:#000000;stroke-width:0.8;" x="150.364551" xlink:href="#mde873151f9" y="180.405"/>
      </g>
     </g>
     <g id="text_3">
      <!-- -1 -->
      <defs>
       <path d="M 12.40625 8.296875 
L 28.515625 8.296875 
L 28.515625 63.921875 
L 10.984375 60.40625 
L 10.984375 69.390625 
L 28.421875 72.90625 
L 38.28125 72.90625 
L 38.28125 8.296875 
L 54.390625 8.296875 
L 54.390625 0 
L 12.40625 0 
z
" id="DejaVuSans-49"/>
      </defs>
      <g transform="translate(145.379395 195.003437)scale(0.1 -0.1)">
       <use xlink:href="#DejaVuSans-45"/>
       <use x="36.083984" xlink:href="#DejaVuSans-49"/>
      </g>
     </g>
    </g>
    <g id="xtick_4">
     <g id="line2d_4">
      <g>
       <use style="stroke:#000000;stroke-width:0.8;" x="217.895" xlink:href="#mde873151f9" y="180.405"/>
      </g>
     </g>
    </g>
    <g id="xtick_5">
     <g id="line2d_5">
      <g>
       <use style="stroke:#000000;stroke-width:0.8;" x="285.425449" xlink:href="#mde873151f9" y="180.405"/>
      </g>
     </g>
     <g id="text_4">
      <!-- 1 -->
      <g transform="translate(282.244199 195.003437)scale(0.1 -0.1)">
       <use xlink:href="#DejaVuSans-49"/>
      </g>
     </g>
    </g>
    <g id="xtick_6">
     <g id="line2d_6">
      <g>
       <use style="stroke:#000000;stroke-width:0.8;" x="352.955897" xlink:href="#mde873151f9" y="180.405"/>
      </g>
     </g>
     <g id="text_5">
      <!-- 2 -->
      <g transform="translate(349.774647 195.003437)scale(0.1 -0.1)">
       <use xlink:href="#DejaVuSans-50"/>
      </g>
     </g>
    </g>
    <g id="xtick_7">
     <g id="line2d_7">
      <g>
       <use style="stroke:#000000;stroke-width:0.8;" x="420.486346" xlink:href="#mde873151f9" y="180.405"/>
      </g>
     </g>
     <g id="text_6">
      <!-- 3 -->
      <g transform="translate(417.305096 195.003437)scale(0.1 -0.1)">
       <use xlink:href="#DejaVuSans-51"/>
      </g>
     </g>
    </g>
    <g id="xtick_8">
     <g id="line2d_8">
      <defs>
       <path d="M 0 0 
L 0 2 
" id="m29f8d4b87f" style="stroke:#000000;stroke-width:0.6;"/>
      </defs>
      <g>
       <use style="stroke:#000000;stroke-width:0.6;" x="28.809744" xlink:href="#m29f8d4b87f" y="180.405"/>
      </g>
     </g>
    </g>
    <g id="xtick_9">
     <g id="line2d_9">
      <g>
       <use style="stroke:#000000;stroke-width:0.6;" x="42.315833" xlink:href="#m29f8d4b87f" y="180.405"/>
      </g>
     </g>
    </g>
    <g id="xtick_10">
     <g id="line2d_10">
      <g>
       <use style="stroke:#000000;stroke-width:0.6;" x="55.821923" xlink:href="#m29f8d4b87f" y="180.405"/>
      </g>
     </g>
    </g>
    <g id="xtick_11">
     <g id="line2d_11">
      <g>
       <use style="stroke:#000000;stroke-width:0.6;" x="69.328013" xlink:href="#m29f8d4b87f" y="180.405"/>
      </g>
     </g>
    </g>
    <g id="xtick_12">
     <g id="line2d_12">
      <g>
       <use style="stroke:#000000;stroke-width:0.6;" x="96.340192" xlink:href="#m29f8d4b87f" y="180.405"/>
      </g>
     </g>
    </g>
    <g id="xtick_13">
     <g id="line2d_13">
      <g>
       <use style="stroke:#000000;stroke-width:0.6;" x="109.846282" xlink:href="#m29f8d4b87f" y="180.405"/>
      </g>
     </g>
    </g>
    <g id="xtick_14">
     <g id="line2d_14">
      <g>
       <use style="stroke:#000000;stroke-width:0.6;" x="123.352372" xlink:href="#m29f8d4b87f" y="180.405"/>
      </g>
     </g>
    </g>
    <g id="xtick_15">
     <g id="line2d_15">
      <g>
       <use style="stroke:#000000;stroke-width:0.6;" x="136.858462" xlink:href="#m29f8d4b87f" y="180.405"/>
      </g>
     </g>
    </g>
    <g id="xtick_16">
     <g id="line2d_16">
      <g>
       <use style="stroke:#000000;stroke-width:0.6;" x="163.870641" xlink:href="#m29f8d4b87f" y="180.405"/>
      </g>
     </g>
    </g>
    <g id="xtick_17">
     <g id="line2d_17">
      <g>
       <use style="stroke:#000000;stroke-width:0.6;" x="177.376731" xlink:href="#m29f8d4b87f" y="180.405"/>
      </g>
     </g>
    </g>
    <g id="xtick_18">
     <g id="line2d_18">
      <g>
       <use style="stroke:#000000;stroke-width:0.6;" x="190.882821" xlink:href="#m29f8d4b87f" y="180.405"/>
      </g>
     </g>
    </g>
    <g id="xtick_19">
     <g id="line2d_19">
      <g>
       <use style="stroke:#000000;stroke-width:0.6;" x="204.38891" xlink:href="#m29f8d4b87f" y="180.405"/>
      </g>
     </g>
    </g>
    <g id="xtick_20">
     <g id="line2d_20">
      <g>
       <use style="stroke:#000000;stroke-width:0.6;" x="231.40109" xlink:href="#m29f8d4b87f" y="180.405"/>
      </g>
     </g>
    </g>
    <g id="xtick_21">
     <g id="line2d_21">
      <g>
       <use style="stroke:#000000;stroke-width:0.6;" x="244.907179" xlink:href="#m29f8d4b87f" y="180.405"/>
      </g>
     </g>
    </g>
    <g id="xtick_22">
     <g id="line2d_22">
      <g>
       <use style="stroke:#000000;stroke-width:0.6;" x="258.413269" xlink:href="#m29f8d4b87f" y="180.405"/>
      </g>
     </g>
    </g>
    <g id="xtick_23">
     <g id="line2d_23">
      <g>
       <use style="stroke:#000000;stroke-width:0.6;" x="271.919359" xlink:href="#m29f8d4b87f" y="180.405"/>
      </g>
     </g>
    </g>
    <g id="xtick_24">
     <g id="line2d_24">
      <g>
       <use style="stroke:#000000;stroke-width:0.6;" x="298.931538" xlink:href="#m29f8d4b87f" y="180.405"/>
      </g>
     </g>
    </g>
    <g id="xtick_25">
     <g id="line2d_25">
      <g>
       <use style="stroke:#000000;stroke-width:0.6;" x="312.437628" xlink:href="#m29f8d4b87f" y="180.405"/>
      </g>
     </g>
    </g>
    <g id="xtick_26">
     <g id="line2d_26">
      <g>
       <use style="stroke:#000000;stroke-width:0.6;" x="325.943718" xlink:href="#m29f8d4b87f" y="180.405"/>
      </g>
     </g>
    </g>
    <g id="xtick_27">
     <g id="line2d_27">
      <g>
       <use style="stroke:#000000;stroke-width:0.6;" x="339.449808" xlink:href="#m29f8d4b87f" y="180.405"/>
      </g>
     </g>
    </g>
    <g id="xtick_28">
     <g id="line2d_28">
      <g>
       <use style="stroke:#000000;stroke-width:0.6;" x="366.461987" xlink:href="#m29f8d4b87f" y="180.405"/>
      </g>
     </g>
    </g>
    <g id="xtick_29">
     <g id="line2d_29">
      <g>
       <use style="stroke:#000000;stroke-width:0.6;" x="379.968077" xlink:href="#m29f8d4b87f" y="180.405"/>
      </g>
     </g>
    </g>
    <g id="xtick_30">
     <g id="line2d_30">
      <g>
       <use style="stroke:#000000;stroke-width:0.6;" x="393.474167" xlink:href="#m29f8d4b87f" y="180.405"/>
      </g>
     </g>
    </g>
    <g id="xtick_31">
     <g id="line2d_31">
      <g>
       <use style="stroke:#000000;stroke-width:0.6;" x="406.980256" xlink:href="#m29f8d4b87f" y="180.405"/>
      </g>
     </g>
    </g>
    <g id="text_7">
     <!-- $x$ -->
     <defs>
      <path d="M 7.8125 2.875 
Q 9.578125 1.515625 12.796875 1.515625 
Q 15.921875 1.515625 18.3125 4.515625 
Q 20.703125 7.515625 21.578125 11.078125 
L 26.125 28.8125 
Q 27.203125 33.640625 27.203125 35.40625 
Q 27.203125 37.890625 25.8125 39.75 
Q 24.421875 41.609375 21.921875 41.609375 
Q 18.75 41.609375 15.96875 39.625 
Q 13.1875 37.640625 11.28125 34.59375 
Q 9.375 31.546875 8.59375 28.421875 
Q 8.40625 27.78125 7.8125 27.78125 
L 6.59375 27.78125 
Q 5.8125 27.78125 5.8125 28.71875 
L 5.8125 29 
Q 6.78125 32.71875 9.125 36.25 
Q 11.46875 39.796875 14.859375 41.984375 
Q 18.265625 44.1875 22.125 44.1875 
Q 25.78125 44.1875 28.734375 42.234375 
Q 31.6875 40.28125 32.90625 36.921875 
Q 34.625 39.984375 37.28125 42.078125 
Q 39.9375 44.1875 43.109375 44.1875 
Q 45.265625 44.1875 47.5 43.421875 
Q 49.75 42.671875 51.171875 41.109375 
Q 52.59375 39.546875 52.59375 37.203125 
Q 52.59375 34.671875 50.953125 32.828125 
Q 49.3125 31 46.78125 31 
Q 45.171875 31 44.09375 32.03125 
Q 43.015625 33.0625 43.015625 34.625 
Q 43.015625 36.71875 44.453125 38.296875 
Q 45.90625 39.890625 47.90625 40.1875 
Q 46.09375 41.609375 42.921875 41.609375 
Q 39.703125 41.609375 37.328125 38.625 
Q 34.96875 35.640625 33.984375 31.984375 
L 29.59375 14.3125 
Q 28.515625 10.296875 28.515625 7.71875 
Q 28.515625 5.171875 29.953125 3.34375 
Q 31.390625 1.515625 33.796875 1.515625 
Q 38.484375 1.515625 42.15625 5.640625 
Q 45.84375 9.765625 47.015625 14.703125 
Q 47.21875 15.28125 47.796875 15.28125 
L 49.03125 15.28125 
Q 49.421875 15.28125 49.65625 15.015625 
Q 49.90625 14.75 49.90625 14.40625 
Q 49.90625 14.3125 49.8125 14.109375 
Q 48.390625 8.15625 43.84375 3.515625 
Q 39.3125 -1.125 33.59375 -1.125 
Q 29.9375 -1.125 26.984375 0.84375 
Q 24.03125 2.828125 22.796875 6.203125 
Q 21.234375 3.265625 18.46875 1.0625 
Q 15.71875 -1.125 12.59375 -1.125 
Q 10.453125 -1.125 8.171875 -0.359375 
Q 5.90625 0.390625 4.484375 1.953125 
Q 3.078125 3.515625 3.078125 5.90625 
Q 3.078125 8.25 4.703125 10.171875 
Q 6.34375 12.109375 8.796875 12.109375 
Q 10.453125 12.109375 11.578125 11.109375 
Q 12.703125 10.109375 12.703125 8.5 
Q 12.703125 6.390625 11.296875 4.828125 
Q 9.90625 3.265625 7.8125 2.875 
z
" id="Cmmi10-120"/>
     </defs>
     <g transform="translate(436.59 180.405)scale(0.16 -0.16)">
      <use transform="translate(0 0.8125)" xlink:href="#Cmmi10-120"/>
     </g>
    </g>
   </g>
   <g id="matplotlib.axis_2">
    <g id="ytick_1">
     <g id="line2d_32">
      <defs>
       <path d="M 0 0 
L -3.5 0 
" id="m44ef694bed" style="stroke:#000000;stroke-width:0.8;"/>
      </defs>
      <g>
       <use style="stroke:#000000;stroke-width:0.8;" x="217.895" xlink:href="#m44ef694bed" y="293.316011"/>
      </g>
     </g>
     <g id="text_8">
      <!-- -4 -->
      <defs>
       <path d="M 37.796875 64.3125 
L 12.890625 25.390625 
L 37.796875 25.390625 
z
M 35.203125 72.90625 
L 47.609375 72.90625 
L 47.609375 25.390625 
L 58.015625 25.390625 
L 58.015625 17.1875 
L 47.609375 17.1875 
L 47.609375 0 
L 37.796875 0 
L 37.796875 17.1875 
L 4.890625 17.1875 
L 4.890625 26.703125 
z
" id="DejaVuSans-52"/>
      </defs>
      <g transform="translate(200.924687 297.115229)scale(0.1 -0.1)">
       <use xlink:href="#DejaVuSans-45"/>
       <use x="36.083984" xlink:href="#DejaVuSans-52"/>
      </g>
     </g>
    </g>
    <g id="ytick_2">
     <g id="line2d_33">
      <g>
       <use style="stroke:#000000;stroke-width:0.8;" x="217.895" xlink:href="#m44ef694bed" y="236.860505"/>
      </g>
     </g>
     <g id="text_9">
      <!-- -2 -->
      <g transform="translate(200.924687 240.659724)scale(0.1 -0.1)">
       <use xlink:href="#DejaVuSans-45"/>
       <use x="36.083984" xlink:href="#DejaVuSans-50"/>
      </g>
     </g>
    </g>
    <g id="ytick_3">
     <g id="line2d_34">
      <g>
       <use style="stroke:#000000;stroke-width:0.8;" x="217.895" xlink:href="#m44ef694bed" y="180.405"/>
      </g>
     </g>
    </g>
    <g id="ytick_4">
     <g id="line2d_35">
      <g>
       <use style="stroke:#000000;stroke-width:0.8;" x="217.895" xlink:href="#m44ef694bed" y="123.949495"/>
      </g>
     </g>
     <g id="text_10">
      <!-- 2 -->
      <g transform="translate(204.5325 127.748713)scale(0.1 -0.1)">
       <use xlink:href="#DejaVuSans-50"/>
      </g>
     </g>
    </g>
    <g id="ytick_5">
     <g id="line2d_36">
      <g>
       <use style="stroke:#000000;stroke-width:0.8;" x="217.895" xlink:href="#m44ef694bed" y="67.493989"/>
      </g>
     </g>
     <g id="text_11">
      <!-- 4 -->
      <g transform="translate(204.5325 71.293208)scale(0.1 -0.1)">
       <use xlink:href="#DejaVuSans-52"/>
      </g>
     </g>
    </g>
    <g id="ytick_6">
     <g id="line2d_37">
      <defs>
       <path d="M 0 0 
L -2 0 
" id="m29e2a82bbf" style="stroke:#000000;stroke-width:0.6;"/>
      </defs>
      <g>
       <use style="stroke:#000000;stroke-width:0.6;" x="217.895" xlink:href="#m29e2a82bbf" y="321.543763"/>
      </g>
     </g>
    </g>
    <g id="ytick_7">
     <g id="line2d_38">
      <g>
       <use style="stroke:#000000;stroke-width:0.6;" x="217.895" xlink:href="#m29e2a82bbf" y="307.429887"/>
      </g>
     </g>
    </g>
    <g id="ytick_8">
     <g id="line2d_39">
      <g>
       <use style="stroke:#000000;stroke-width:0.6;" x="217.895" xlink:href="#m29e2a82bbf" y="279.202134"/>
      </g>
     </g>
    </g>
    <g id="ytick_9">
     <g id="line2d_40">
      <g>
       <use style="stroke:#000000;stroke-width:0.6;" x="217.895" xlink:href="#m29e2a82bbf" y="265.088258"/>
      </g>
     </g>
    </g>
    <g id="ytick_10">
     <g id="line2d_41">
      <g>
       <use style="stroke:#000000;stroke-width:0.6;" x="217.895" xlink:href="#m29e2a82bbf" y="250.974382"/>
      </g>
     </g>
    </g>
    <g id="ytick_11">
     <g id="line2d_42">
      <g>
       <use style="stroke:#000000;stroke-width:0.6;" x="217.895" xlink:href="#m29e2a82bbf" y="222.746629"/>
      </g>
     </g>
    </g>
    <g id="ytick_12">
     <g id="line2d_43">
      <g>
       <use style="stroke:#000000;stroke-width:0.6;" x="217.895" xlink:href="#m29e2a82bbf" y="208.632753"/>
      </g>
     </g>
    </g>
    <g id="ytick_13">
     <g id="line2d_44">
      <g>
       <use style="stroke:#000000;stroke-width:0.6;" x="217.895" xlink:href="#m29e2a82bbf" y="194.518876"/>
      </g>
     </g>
    </g>
    <g id="ytick_14">
     <g id="line2d_45">
      <g>
       <use style="stroke:#000000;stroke-width:0.6;" x="217.895" xlink:href="#m29e2a82bbf" y="166.291124"/>
      </g>
     </g>
    </g>
    <g id="ytick_15">
     <g id="line2d_46">
      <g>
       <use style="stroke:#000000;stroke-width:0.6;" x="217.895" xlink:href="#m29e2a82bbf" y="152.177247"/>
      </g>
     </g>
    </g>
    <g id="ytick_16">
     <g id="line2d_47">
      <g>
       <use style="stroke:#000000;stroke-width:0.6;" x="217.895" xlink:href="#m29e2a82bbf" y="138.063371"/>
      </g>
     </g>
    </g>
    <g id="ytick_17">
     <g id="line2d_48">
      <g>
       <use style="stroke:#000000;stroke-width:0.6;" x="217.895" xlink:href="#m29e2a82bbf" y="109.835618"/>
      </g>
     </g>
    </g>
    <g id="ytick_18">
     <g id="line2d_49">
      <g>
       <use style="stroke:#000000;stroke-width:0.6;" x="217.895" xlink:href="#m29e2a82bbf" y="95.721742"/>
      </g>
     </g>
    </g>
    <g id="ytick_19">
     <g id="line2d_50">
      <g>
       <use style="stroke:#000000;stroke-width:0.6;" x="217.895" xlink:href="#m29e2a82bbf" y="81.607866"/>
      </g>
     </g>
    </g>
    <g id="ytick_20">
     <g id="line2d_51">
      <g>
       <use style="stroke:#000000;stroke-width:0.6;" x="217.895" xlink:href="#m29e2a82bbf" y="53.380113"/>
      </g>
     </g>
    </g>
    <g id="ytick_21">
     <g id="line2d_52">
      <g>
       <use style="stroke:#000000;stroke-width:0.6;" x="217.895" xlink:href="#m29e2a82bbf" y="39.266237"/>
      </g>
     </g>
    </g>
    <g id="text_12">
     <!-- $y$ -->
     <defs>
      <path d="M 8.40625 -14.3125 
Q 10.5 -17.921875 15.71875 -17.921875 
Q 20.453125 -17.921875 23.921875 -14.59375 
Q 27.390625 -11.28125 29.515625 -6.5625 
Q 31.640625 -1.859375 32.8125 3.078125 
Q 28.375 -1.125 23.1875 -1.125 
Q 19.234375 -1.125 16.453125 0.234375 
Q 13.671875 1.609375 12.125 4.3125 
Q 10.59375 7.03125 10.59375 10.890625 
Q 10.59375 14.15625 11.46875 17.59375 
Q 12.359375 21.046875 13.9375 25.265625 
Q 15.53125 29.5 16.703125 32.625 
Q 18.015625 36.28125 18.015625 38.625 
Q 18.015625 41.609375 15.828125 41.609375 
Q 11.859375 41.609375 9.296875 37.53125 
Q 6.734375 33.453125 5.515625 28.421875 
Q 5.328125 27.78125 4.6875 27.78125 
L 3.515625 27.78125 
Q 2.6875 27.78125 2.6875 28.71875 
L 2.6875 29 
Q 4.296875 34.96875 7.609375 39.578125 
Q 10.9375 44.1875 16.015625 44.1875 
Q 19.578125 44.1875 22.046875 41.84375 
Q 24.515625 39.5 24.515625 35.890625 
Q 24.515625 34.03125 23.6875 31.984375 
Q 23.25 30.765625 21.6875 26.65625 
Q 20.125 22.5625 19.28125 19.875 
Q 18.453125 17.1875 17.921875 14.59375 
Q 17.390625 12.015625 17.390625 9.421875 
Q 17.390625 6.109375 18.796875 3.8125 
Q 20.21875 1.515625 23.296875 1.515625 
Q 29.5 1.515625 34.421875 9.078125 
L 42 39.890625 
Q 42.328125 41.21875 43.546875 42.15625 
Q 44.78125 43.109375 46.1875 43.109375 
Q 47.40625 43.109375 48.3125 42.328125 
Q 49.21875 41.546875 49.21875 40.28125 
Q 49.21875 39.703125 49.125 39.5 
L 39.203125 -0.296875 
Q 37.890625 -5.421875 34.375 -10.109375 
Q 30.859375 -14.796875 25.90625 -17.65625 
Q 20.953125 -20.515625 15.578125 -20.515625 
Q 12.984375 -20.515625 10.4375 -19.5 
Q 7.90625 -18.5 6.34375 -16.5 
Q 4.78125 -14.5 4.78125 -11.8125 
Q 4.78125 -9.078125 6.390625 -7.078125 
Q 8.015625 -5.078125 10.6875 -5.078125 
Q 12.3125 -5.078125 13.40625 -6.078125 
Q 14.5 -7.078125 14.5 -8.6875 
Q 14.5 -10.984375 12.78125 -12.6875 
Q 11.078125 -14.40625 8.796875 -14.40625 
Q 8.6875 -14.359375 8.59375 -14.328125 
Q 8.5 -14.3125 8.40625 -14.3125 
z
" id="Cmmi10-121"/>
     </defs>
     <g transform="translate(213.895 19.325)scale(0.16 -0.16)">
      <use transform="translate(0 0.8125)" xlink:href="#Cmmi10-121"/>
     </g>
    </g>
   </g>
   <g id="line2d_53">
    <path clip-path="url(#p4afa689793)" d="M 44.996845 338.325 
L 49.451209 326.427964 
L 54.339172 314.081237 
L 59.197046 302.520313 
L 63.521321 292.807484 
L 68.201532 282.891035 
L 72.822425 273.690061 
L 76.937754 265.974375 
L 81.305207 258.26437 
L 85.840721 250.763014 
L 89.544058 245.008094 
L 94.279816 238.117728 
L 98.35615 232.594528 
L 101.781942 228.234885 
L 106.153124 223.033889 
L 110.54547 218.201935 
L 114.58621 214.092436 
L 118.46678 210.43706 
L 122.881892 206.611361 
L 126.191627 203.966995 
L 129.799882 201.293712 
L 133.277764 198.916118 
L 138.334824 195.791624 
L 142.731335 193.379182 
L 146.997667 191.292943 
L 151.980931 189.154646 
L 155.917821 187.678636 
L 161.492078 185.887277 
L 166.84721 184.469311 
L 171.653005 183.426105 
L 177.336238 182.443498 
L 183.440621 181.654653 
L 187.448951 181.267281 
L 193.5328 180.84678 
L 203.434891 180.497378 
L 213.729992 180.407208 
L 232.158475 180.316339 
L 241.724778 179.991557 
L 247.468786 179.614727 
L 253.943824 178.973704 
L 259.068242 178.27244 
L 264.930055 177.225776 
L 270.746875 175.894369 
L 275.11895 174.679813 
L 280.439959 172.929623 
L 285.569868 170.935253 
L 290.469262 168.726044 
L 294.394364 166.726779 
L 298.715557 164.275472 
L 301.987919 162.235858 
L 306.750093 158.971005 
L 310.789519 155.912878 
L 314.825093 152.580202 
L 319.285116 148.559871 
L 323.574597 144.344679 
L 327.889522 139.744818 
L 332.032995 134.974568 
L 335.331297 130.921184 
L 339.216624 125.84545 
L 343.026935 120.541704 
L 346.424981 115.53118 
L 350.886818 108.537769 
L 355.03655 101.598271 
L 359.065539 94.446592 
L 363.658437 85.780862 
L 368.31568 76.418063 
L 373.320982 65.688206 
L 378.216357 54.50368 
L 382.071539 45.201035 
L 387.063844 32.488274 
L 391.56195 20.372691 
L 396.703802 5.733189 
L 398.971737 -1 
L 398.971737 -1 
" style="fill:none;stroke:#0000ff;stroke-linecap:square;"/>
   </g>
   <g id="line2d_54">
    <path clip-path="url(#p4afa689793)" d="M 35.253784 338.325 
L 38.837006 327.580357 
L 43.935241 313.020385 
L 48.26347 301.310978 
L 53.286002 288.452456 
L 58.444593 276.037807 
L 62.571032 266.668307 
L 67.624301 255.853446 
L 71.91387 247.225975 
L 76.27197 238.964869 
L 80.66244 231.140973 
L 84.88125 224.08004 
L 88.635052 218.162681 
L 92.466828 212.466711 
L 95.976152 207.546504 
L 100.192881 201.997851 
L 103.453638 197.970891 
L 107.561505 193.214499 
L 111.964713 188.494802 
L 116.656491 183.879736 
L 121.04033 179.937144 
L 124.232645 177.281735 
L 128.620642 173.916087 
L 133.651996 170.443845 
L 137.073412 168.307392 
L 142.274342 165.389519 
L 147.050677 163.040786 
L 152.576429 160.691885 
L 156.79808 159.145343 
L 162.532407 157.36173 
L 167.873317 156.001363 
L 173.825068 154.792317 
L 178.05049 154.109935 
L 184.599512 153.304996 
L 190.903271 152.778073 
L 198.919376 152.386006 
L 207.804297 152.208639 
L 236.637819 151.976078 
L 244.520204 151.600567 
L 249.297616 151.231111 
L 255.646144 150.533457 
L 262.469377 149.471346 
L 268.330207 148.257505 
L 273.056763 147.048981 
L 278.17659 145.484411 
L 282.773623 143.833503 
L 287.261025 141.97968 
L 291.435431 140.025614 
L 295.915335 137.666841 
L 300.740323 134.804835 
L 305.381499 131.71849 
L 310.043011 128.270855 
L 313.675337 125.330898 
L 318.281588 121.268371 
L 322.063194 117.642081 
L 326.146097 113.419988 
L 330.169619 108.935732 
L 334.331339 103.946747 
L 338.526443 98.543553 
L 342.657027 92.843277 
L 346.756578 86.800023 
L 350.310609 81.240104 
L 354.681659 73.980737 
L 358.567601 67.125216 
L 362.886518 59.048463 
L 367.374258 50.130552 
L 372.034558 40.285392 
L 376.528242 30.211258 
L 380.761873 20.18318 
L 384.527426 10.814592 
L 389.043858 -1 
L 389.043858 -1 
" style="fill:none;stroke:#ff0000;stroke-linecap:square;"/>
   </g>
   <g id="line2d_55">
    <path clip-path="url(#p4afa689793)" d="M 26.452772 338.325 
L 30.693337 324.389891 
L 35.55078 309.188375 
L 39.230139 298.199812 
L 44.289181 283.812868 
L 48.953568 271.270493 
L 53.249419 260.315581 
L 58.209015 248.359855 
L 62.846676 237.832094 
L 66.552212 229.860558 
L 70.875368 221.041201 
L 75.6562 211.87409 
L 79.880131 204.271357 
L 84.042339 197.221346 
L 88.024424 190.874504 
L 92.117086 184.744697 
L 96.169277 179.056046 
L 99.589251 174.540544 
L 104.109122 168.960762 
L 107.965678 164.537414 
L 111.817286 160.418893 
L 115.529362 156.722686 
L 118.811943 153.669873 
L 122.04661 150.853108 
L 126.015837 147.647251 
L 131.063227 143.952357 
L 135.169288 141.246769 
L 138.983121 138.963041 
L 142.752671 136.912631 
L 146.854062 134.903733 
L 151.393161 132.935302 
L 157.092767 130.817249 
L 161.989647 129.287959 
L 166.705983 128.047632 
L 170.314127 127.240688 
L 176.611419 126.099246 
L 183.35334 125.208669 
L 189.540362 124.646006 
L 195.548675 124.290432 
L 205.870897 124.002609 
L 221.578349 123.947968 
L 232.831661 123.847679 
L 241.716897 123.536461 
L 248.11278 123.106463 
L 253.274317 122.596474 
L 260.283457 121.622481 
L 264.807726 120.795012 
L 271.159935 119.332277 
L 276.391997 117.833644 
L 281.147281 116.217621 
L 285.499862 114.509105 
L 289.507119 112.728904 
L 294.333339 110.303982 
L 298.348435 108.038772 
L 302.213952 105.633448 
L 306.227744 102.891292 
L 310.412257 99.754564 
L 314.990013 95.982428 
L 318.331114 92.994849 
L 322.332067 89.146218 
L 326.977053 84.292843 
L 330.660509 80.13831 
L 335.249198 74.569387 
L 339.983688 68.348517 
L 344.299273 62.241504 
L 347.484001 57.458847 
L 352.334846 49.709119 
L 357.150098 41.442751 
L 360.883339 34.627584 
L 365.047943 26.593432 
L 369.117166 18.291467 
L 373.709519 8.370235 
L 377.809773 -1 
L 377.809773 -1 
" style="fill:none;stroke:#008000;stroke-linecap:square;"/>
   </g>
   <g id="line2d_56">
    <path clip-path="url(#p4afa689793)" d="M 55.982426 338.325 
L 59.912017 329.105017 
L 64.665737 318.553906 
L 68.881688 309.72814 
L 73.393641 300.820231 
L 77.994957 292.291178 
L 82.567803 284.352891 
L 86.837323 277.409802 
L 91.262811 270.675138 
L 95.369035 264.833298 
L 98.728231 260.336453 
L 102.409079 255.691815 
L 106.847786 250.471546 
L 110.711366 246.254726 
L 114.919754 241.99495 
L 119.69637 237.564351 
L 123.453185 234.369231 
L 127.709975 231.04366 
L 131.639947 228.239691 
L 136.342903 225.204242 
L 141.383337 222.317572 
L 145.705533 220.126924 
L 150.431061 218.01423 
L 155.577237 216.026961 
L 159.646975 214.670845 
L 164.726699 213.224886 
L 170.143396 211.959502 
L 174.566449 211.118052 
L 180.163052 210.274037 
L 185.360937 209.684887 
L 191.707364 209.181465 
L 199.610984 208.819507 
L 210.71229 208.644075 
L 233.236939 208.522422 
L 241.548131 208.228436 
L 248.6708 207.74215 
L 253.476318 207.256424 
L 259.935696 206.362544 
L 266.084686 205.2136 
L 271.377985 203.958598 
L 276.264145 202.556915 
L 281.461408 200.785111 
L 285.638467 199.134179 
L 289.453039 197.437563 
L 293.942877 195.195285 
L 297.827065 193.029353 
L 301.866511 190.542191 
L 305.461061 188.118128 
L 309.709912 184.984677 
L 313.698049 181.767302 
L 317.487809 178.451304 
L 322.077134 174.08372 
L 325.792114 170.254462 
L 329.116564 166.596583 
L 333.799137 161.060583 
L 337.693205 156.102792 
L 341.852194 150.439672 
L 345.964317 144.453978 
L 350.01594 138.168134 
L 354.229541 131.209067 
L 358.84763 123.071785 
L 362.755165 115.756845 
L 366.28085 108.809066 
L 371.205259 98.537195 
L 374.826497 90.549994 
L 379.723193 79.147982 
L 384.49143 67.361689 
L 388.710134 56.355449 
L 393.241708 43.911744 
L 397.000827 33.089036 
L 401.573042 19.299078 
L 405.881916 5.659406 
L 407.914887 -1 
L 407.914887 -1 
" style="fill:none;stroke:#ff00ff;stroke-linecap:square;"/>
   </g>
   <g id="line2d_57">
    <path clip-path="url(#p4afa689793)" d="M 68.703433 338.325 
L 72.947504 329.904488 
L 76.969529 322.372025 
L 81.130221 315.019497 
L 85.30737 308.07447 
L 88.799632 302.594212 
L 92.78731 296.689011 
L 97.338111 290.394819 
L 102.139708 284.249632 
L 106.386708 279.222621 
L 110.448276 274.760197 
L 115.384435 269.773093 
L 119.859909 265.647798 
L 124.294225 261.915509 
L 128.056964 259.013726 
L 132.18283 256.099555 
L 136.406653 253.393163 
L 141.002532 250.750675 
L 145.63454 248.38862 
L 150.63476 246.15726 
L 154.727725 244.561247 
L 159.617675 242.907714 
L 163.955509 241.655373 
L 167.958314 240.66516 
L 174.199005 239.409571 
L 179.945858 238.530296 
L 187.174058 237.746354 
L 193.946381 237.280165 
L 202.296649 236.976461 
L 211.911657 236.86705 
L 234.031945 236.732119 
L 240.736516 236.496397 
L 248.694339 235.967857 
L 255.784312 235.1986 
L 260.93725 234.424148 
L 266.615654 233.327084 
L 270.922854 232.304667 
L 276.611964 230.675403 
L 280.363854 229.412384 
L 284.90832 227.665763 
L 289.643756 225.575565 
L 293.796375 223.500548 
L 297.766359 221.292629 
L 301.446915 219.03978 
L 305.200949 216.528152 
L 308.419263 214.195744 
L 313.427929 210.221659 
L 316.548856 207.524678 
L 320.983247 203.388355 
L 325.75806 198.518541 
L 329.671129 194.192402 
L 333.503809 189.651057 
L 336.926995 185.332032 
L 341.091699 179.731934 
L 345.542351 173.314016 
L 350.096531 166.266862 
L 354.253834 159.395425 
L 358.263401 152.359047 
L 362.641229 144.203573 
L 366.651374 136.28716 
L 371.014434 127.175543 
L 375.452627 117.358709 
L 379.790909 107.213119 
L 383.745393 97.478837 
L 388.52221 85.085237 
L 393.407028 71.673152 
L 397.691203 59.279018 
L 402.543274 44.510636 
L 407.28705 29.301597 
L 411.505537 15.120983 
L 416.088153 -1 
L 416.088153 -1 
" style="fill:none;stroke:#000000;stroke-linecap:square;"/>
   </g>
   <g id="patch_3">
    <path d="M 217.895 330.125 
L 217.895 30.685 
" style="fill:none;stroke:#000000;stroke-linecap:square;stroke-linejoin:miter;stroke-width:0.8;"/>
   </g>
   <g id="patch_4">
    <path d="M 7.2 180.405 
L 428.59 180.405 
" style="fill:none;stroke:#000000;stroke-linecap:square;stroke-linejoin:miter;stroke-width:0.8;"/>
   </g>
   <g id="text_13">
    <!-- $C=0$ -->
    <defs>
     <path d="M 14.59375 21.578125 
Q 14.59375 15.578125 16.90625 11.015625 
Q 19.234375 6.453125 23.65625 3.875 
Q 28.078125 1.3125 34.078125 1.3125 
Q 40.375 1.3125 46.203125 4.53125 
Q 52.046875 7.765625 56.171875 13.15625 
Q 60.296875 18.5625 61.8125 24.609375 
Q 62.015625 25.203125 62.59375 25.203125 
L 63.8125 25.203125 
Q 64.203125 25.203125 64.453125 24.921875 
Q 64.703125 24.65625 64.703125 24.3125 
Q 64.703125 24.21875 64.59375 24.03125 
Q 62.890625 17.09375 57.984375 11.015625 
Q 53.078125 4.9375 46.234375 1.359375 
Q 39.40625 -2.203125 32.171875 -2.203125 
Q 24.359375 -2.203125 18.15625 1.3125 
Q 11.96875 4.828125 8.515625 11.078125 
Q 5.078125 17.328125 5.078125 25.203125 
Q 5.078125 33.59375 8.828125 41.8125 
Q 12.59375 50.046875 18.9375 56.46875 
Q 25.296875 62.890625 33.421875 66.703125 
Q 41.546875 70.515625 49.90625 70.515625 
Q 53.21875 70.515625 56.25 69.5 
Q 59.28125 68.5 61.859375 66.453125 
Q 64.453125 64.40625 66.109375 61.71875 
L 74.03125 70.3125 
Q 74.03125 70.515625 74.515625 70.515625 
L 75.09375 70.515625 
Q 75.484375 70.515625 75.734375 70.171875 
Q 75.984375 69.828125 75.984375 69.484375 
L 69.1875 42.484375 
Q 69.1875 41.796875 68.40625 41.796875 
L 66.609375 41.796875 
Q 65.828125 41.796875 65.828125 42.921875 
Q 66.21875 45.125 66.21875 48.1875 
Q 66.21875 53.078125 64.546875 57.390625 
Q 62.890625 61.71875 59.390625 64.359375 
Q 55.90625 67 50.875 67 
Q 42.71875 67 35.9375 62.890625 
Q 29.15625 58.796875 24.4375 52.125 
Q 19.734375 45.453125 17.15625 37.328125 
Q 14.59375 29.203125 14.59375 21.578125 
z
" id="Cmmi10-67"/>
     <path d="M 7.515625 13.28125 
Q 6.6875 13.28125 6.140625 13.90625 
Q 5.609375 14.546875 5.609375 15.28125 
Q 5.609375 16.109375 6.140625 16.6875 
Q 6.6875 17.28125 7.515625 17.28125 
L 70.3125 17.28125 
Q 71.046875 17.28125 71.578125 16.6875 
Q 72.125 16.109375 72.125 15.28125 
Q 72.125 14.546875 71.578125 13.90625 
Q 71.046875 13.28125 70.3125 13.28125 
z
M 7.515625 32.71875 
Q 6.6875 32.71875 6.140625 33.296875 
Q 5.609375 33.890625 5.609375 34.71875 
Q 5.609375 35.453125 6.140625 36.078125 
Q 6.6875 36.71875 7.515625 36.71875 
L 70.3125 36.71875 
Q 71.046875 36.71875 71.578125 36.078125 
Q 72.125 35.453125 72.125 34.71875 
Q 72.125 33.890625 71.578125 33.296875 
Q 71.046875 32.71875 70.3125 32.71875 
z
" id="Cmr10-61"/>
     <path d="M 25 -2.203125 
Q 12.75 -2.203125 8.328125 7.875 
Q 3.90625 17.96875 3.90625 31.890625 
Q 3.90625 40.578125 5.484375 48.234375 
Q 7.078125 55.90625 11.78125 61.25 
Q 16.5 66.609375 25 66.609375 
Q 31.59375 66.609375 35.78125 63.375 
Q 39.984375 60.15625 42.1875 55.046875 
Q 44.390625 49.953125 45.1875 44.109375 
Q 46 38.28125 46 31.890625 
Q 46 23.296875 44.40625 15.796875 
Q 42.828125 8.296875 38.1875 3.046875 
Q 33.546875 -2.203125 25 -2.203125 
z
M 25 0.390625 
Q 30.5625 0.390625 33.296875 6.09375 
Q 36.03125 11.8125 36.671875 18.75 
Q 37.3125 25.6875 37.3125 33.5 
Q 37.3125 41.015625 36.671875 47.359375 
Q 36.03125 53.71875 33.3125 58.859375 
Q 30.609375 64.015625 25 64.015625 
Q 19.34375 64.015625 16.609375 58.828125 
Q 13.875 53.65625 13.234375 47.328125 
Q 12.59375 41.015625 12.59375 33.5 
Q 12.59375 27.9375 12.859375 23 
Q 13.140625 18.0625 14.3125 12.8125 
Q 15.484375 7.5625 18.09375 3.96875 
Q 20.703125 0.390625 25 0.390625 
z
" id="Cmr10-48"/>
    </defs>
    <g style="fill:#0000ff;" transform="translate(218.327612 174.858874)scale(0.14 -0.14)">
     <use transform="translate(0 0.484375)" xlink:href="#Cmmi10-67"/>
     <use transform="translate(88.945312 0.484375)" xlink:href="#Cmr10-61"/>
     <use transform="translate(184.189453 0.484375)" xlink:href="#Cmr10-48"/>
    </g>
   </g>
   <g id="text_14">
    <!-- $C=1$ -->
    <defs>
     <path d="M 9.28125 0 
L 9.28125 3.515625 
Q 21.78125 3.515625 21.78125 6.6875 
L 21.78125 59.1875 
Q 16.609375 56.6875 8.6875 56.6875 
L 8.6875 60.203125 
Q 20.953125 60.203125 27.203125 66.609375 
L 28.609375 66.609375 
Q 28.953125 66.609375 29.265625 66.328125 
Q 29.59375 66.0625 29.59375 65.71875 
L 29.59375 6.6875 
Q 29.59375 3.515625 42.09375 3.515625 
L 42.09375 0 
z
" id="Cmr10-49"/>
    </defs>
    <g style="fill:#0000ff;" transform="translate(167.679776 146.631121)scale(0.14 -0.14)">
     <use transform="translate(0 0.484375)" xlink:href="#Cmmi10-67"/>
     <use transform="translate(88.945312 0.484375)" xlink:href="#Cmr10-61"/>
     <use transform="translate(184.189453 0.484375)" xlink:href="#Cmr10-49"/>
    </g>
   </g>
   <g id="text_15">
    <!-- $C=2$ -->
    <defs>
     <path d="M 4.984375 0 
L 4.984375 2.6875 
Q 4.984375 2.9375 5.171875 3.21875 
L 20.703125 20.40625 
Q 24.21875 24.21875 26.40625 26.796875 
Q 28.609375 29.390625 30.75 32.765625 
Q 32.90625 36.140625 34.15625 39.625 
Q 35.40625 43.109375 35.40625 47.015625 
Q 35.40625 51.125 33.890625 54.859375 
Q 32.375 58.59375 29.375 60.84375 
Q 26.375 63.09375 22.125 63.09375 
Q 17.78125 63.09375 14.3125 60.46875 
Q 10.84375 57.859375 9.421875 53.71875 
Q 9.8125 53.8125 10.5 53.8125 
Q 12.75 53.8125 14.328125 52.296875 
Q 15.921875 50.78125 15.921875 48.390625 
Q 15.921875 46.09375 14.328125 44.5 
Q 12.75 42.921875 10.5 42.921875 
Q 8.15625 42.921875 6.5625 44.546875 
Q 4.984375 46.1875 4.984375 48.390625 
Q 4.984375 52.15625 6.390625 55.4375 
Q 7.8125 58.734375 10.46875 61.296875 
Q 13.140625 63.875 16.484375 65.234375 
Q 19.828125 66.609375 23.578125 66.609375 
Q 29.296875 66.609375 34.21875 64.1875 
Q 39.15625 61.765625 42.03125 57.34375 
Q 44.921875 52.9375 44.921875 47.015625 
Q 44.921875 42.671875 43.015625 38.765625 
Q 41.109375 34.859375 38.125 31.65625 
Q 35.15625 28.46875 30.515625 24.40625 
Q 25.875 20.359375 24.421875 19 
L 13.09375 8.109375 
L 22.703125 8.109375 
Q 29.78125 8.109375 34.546875 8.21875 
Q 39.3125 8.34375 39.59375 8.59375 
Q 40.765625 9.859375 42 17.828125 
L 44.921875 17.828125 
L 42.09375 0 
z
" id="Cmr10-50"/>
    </defs>
    <g style="fill:#0000ff;" transform="translate(106.902372 137.221871)scale(0.14 -0.14)">
     <use transform="translate(0 0.484375)" xlink:href="#Cmmi10-67"/>
     <use transform="translate(88.945312 0.484375)" xlink:href="#Cmr10-61"/>
     <use transform="translate(184.189453 0.484375)" xlink:href="#Cmr10-50"/>
    </g>
   </g>
   <g id="text_16">
    <!-- $C=-1$ -->
    <defs>
     <path d="M 10.203125 23 
Q 9.375 23 8.828125 23.625 
Q 8.296875 24.265625 8.296875 25 
Q 8.296875 25.734375 8.828125 26.359375 
Q 9.375 27 10.203125 27 
L 67.578125 27 
Q 68.359375 27 68.875 26.359375 
Q 69.390625 25.734375 69.390625 25 
Q 69.390625 24.265625 68.875 23.625 
Q 68.359375 23 67.578125 23 
z
" id="Cmsy10-161"/>
    </defs>
    <g style="fill:#0000ff;" transform="translate(227.370224 199.972165)scale(0.14 -0.14)">
     <use transform="translate(0 0.484375)" xlink:href="#Cmmi10-67"/>
     <use transform="translate(88.945312 0.484375)" xlink:href="#Cmr10-61"/>
     <use transform="translate(201.748047 0.484375)" xlink:href="#Cmsy10-161"/>
     <use transform="translate(296.992188 0.484375)" xlink:href="#Cmr10-49"/>
    </g>
   </g>
   <g id="text_17">
    <!-- $C=-2$ -->
    <g style="fill:#0000ff;" transform="translate(220.617179 232.656374)scale(0.14 -0.14)">
     <use transform="translate(0 0.484375)" xlink:href="#Cmmi10-67"/>
     <use transform="translate(88.945312 0.484375)" xlink:href="#Cmr10-61"/>
     <use transform="translate(201.748047 0.484375)" xlink:href="#Cmsy10-161"/>
     <use transform="translate(296.992188 0.484375)" xlink:href="#Cmr10-50"/>
    </g>
   </g>
  </g>
 </g>
 <defs>
  <clipPath id="p4afa689793">
   <rect height="299.44" width="421.39" x="7.2" y="30.685"/>
  </clipPath>
 </defs>
</svg>
