<?xml version="1.0" encoding="utf-8" standalone="no"?>
<!DOCTYPE svg PUBLIC "-//W3C//DTD SVG 1.1//EN"
  "http://www.w3.org/Graphics/SVG/1.1/DTD/svg11.dtd">
<!-- Created with matplotlib (https://matplotlib.org/) -->
<svg height="337.325pt" version="1.1" viewBox="0 0 453.07 337.325" width="453.07pt" xmlns="http://www.w3.org/2000/svg" xmlns:xlink="http://www.w3.org/1999/xlink">
 <defs>
  <style type="text/css">
*{stroke-linecap:butt;stroke-linejoin:round;}
  </style>
 </defs>
 <g id="figure_1">
  <g id="patch_1">
   <path d="M 0 337.325 
L 453.07 337.325 
L 453.07 0 
L 0 0 
z
" style="fill:#ffffff;"/>
  </g>
  <g id="axes_1">
   <g id="patch_2">
    <path d="M 7.2 330.125 
L 428.59 330.125 
L 428.59 30.685 
L 7.2 30.685 
z
" style="fill:#ffffff;"/>
   </g>
   <g id="matplotlib.axis_1">
    <g id="xtick_1">
     <g id="line2d_1">
      <defs>
       <path d="M 0 0 
L 0 3.5 
" id="me89ac1850b" style="stroke:#000000;stroke-width:0.8;"/>
      </defs>
      <g>
       <use style="stroke:#000000;stroke-width:0.8;" x="15.303654" xlink:href="#me89ac1850b" y="180.405"/>
      </g>
     </g>
     <g id="text_1">
      <!-- -3 -->
      <defs>
       <path d="M 4.890625 31.390625 
L 31.203125 31.390625 
L 31.203125 23.390625 
L 4.890625 23.390625 
z
" id="DejaVuSans-45"/>
       <path d="M 40.578125 39.3125 
Q 47.65625 37.796875 51.625 33 
Q 55.609375 28.21875 55.609375 21.1875 
Q 55.609375 10.40625 48.1875 4.484375 
Q 40.765625 -1.421875 27.09375 -1.421875 
Q 22.515625 -1.421875 17.65625 -0.515625 
Q 12.796875 0.390625 7.625 2.203125 
L 7.625 11.71875 
Q 11.71875 9.328125 16.59375 8.109375 
Q 21.484375 6.890625 26.8125 6.890625 
Q 36.078125 6.890625 40.9375 10.546875 
Q 45.796875 14.203125 45.796875 21.1875 
Q 45.796875 27.640625 41.28125 31.265625 
Q 36.765625 34.90625 28.71875 34.90625 
L 20.21875 34.90625 
L 20.21875 43.015625 
L 29.109375 43.015625 
Q 36.375 43.015625 40.234375 45.921875 
Q 44.09375 48.828125 44.09375 54.296875 
Q 44.09375 59.90625 40.109375 62.90625 
Q 36.140625 65.921875 28.71875 65.921875 
Q 24.65625 65.921875 20.015625 65.03125 
Q 15.375 64.15625 9.8125 62.3125 
L 9.8125 71.09375 
Q 15.4375 72.65625 20.34375 73.4375 
Q 25.25 74.21875 29.59375 74.21875 
Q 40.828125 74.21875 47.359375 69.109375 
Q 53.90625 64.015625 53.90625 55.328125 
Q 53.90625 49.265625 50.4375 45.09375 
Q 46.96875 40.921875 40.578125 39.3125 
z
" id="DejaVuSans-51"/>
      </defs>
      <g transform="translate(10.318498 195.003437)scale(0.1 -0.1)">
       <use xlink:href="#DejaVuSans-45"/>
       <use x="36.083984" xlink:href="#DejaVuSans-51"/>
      </g>
     </g>
    </g>
    <g id="xtick_2">
     <g id="line2d_2">
      <g>
       <use style="stroke:#000000;stroke-width:0.8;" x="82.834103" xlink:href="#me89ac1850b" y="180.405"/>
      </g>
     </g>
     <g id="text_2">
      <!-- -2 -->
      <defs>
       <path d="M 19.1875 8.296875 
L 53.609375 8.296875 
L 53.609375 0 
L 7.328125 0 
L 7.328125 8.296875 
Q 12.9375 14.109375 22.625 23.890625 
Q 32.328125 33.6875 34.8125 36.53125 
Q 39.546875 41.84375 41.421875 45.53125 
Q 43.3125 49.21875 43.3125 52.78125 
Q 43.3125 58.59375 39.234375 62.25 
Q 35.15625 65.921875 28.609375 65.921875 
Q 23.96875 65.921875 18.8125 64.3125 
Q 13.671875 62.703125 7.8125 59.421875 
L 7.8125 69.390625 
Q 13.765625 71.78125 18.9375 73 
Q 24.125 74.21875 28.421875 74.21875 
Q 39.75 74.21875 46.484375 68.546875 
Q 53.21875 62.890625 53.21875 53.421875 
Q 53.21875 48.921875 51.53125 44.890625 
Q 49.859375 40.875 45.40625 35.40625 
Q 44.1875 33.984375 37.640625 27.21875 
Q 31.109375 20.453125 19.1875 8.296875 
z
" id="DejaVuSans-50"/>
      </defs>
      <g transform="translate(77.848946 195.003437)scale(0.1 -0.1)">
       <use xlink:href="#DejaVuSans-45"/>
       <use x="36.083984" xlink:href="#DejaVuSans-50"/>
      </g>
     </g>
    </g>
    <g id="xtick_3">
     <g id="line2d_3">
      <g>
       <use style="stroke:#000000;stroke-width:0.8;" x="150.364551" xlink:href="#me89ac1850b" y="180.405"/>
      </g>
     </g>
     <g id="text_3">
      <!-- -1 -->
      <defs>
       <path d="M 12.40625 8.296875 
L 28.515625 8.296875 
L 28.515625 63.921875 
L 10.984375 60.40625 
L 10.984375 69.390625 
L 28.421875 72.90625 
L 38.28125 72.90625 
L 38.28125 8.296875 
L 54.390625 8.296875 
L 54.390625 0 
L 12.40625 0 
z
" id="DejaVuSans-49"/>
      </defs>
      <g transform="translate(145.379395 195.003437)scale(0.1 -0.1)">
       <use xlink:href="#DejaVuSans-45"/>
       <use x="36.083984" xlink:href="#DejaVuSans-49"/>
      </g>
     </g>
    </g>
    <g id="xtick_4">
     <g id="line2d_4">
      <g>
       <use style="stroke:#000000;stroke-width:0.8;" x="217.895" xlink:href="#me89ac1850b" y="180.405"/>
      </g>
     </g>
    </g>
    <g id="xtick_5">
     <g id="line2d_5">
      <g>
       <use style="stroke:#000000;stroke-width:0.8;" x="285.425449" xlink:href="#me89ac1850b" y="180.405"/>
      </g>
     </g>
     <g id="text_4">
      <!-- 1 -->
      <g transform="translate(282.244199 195.003437)scale(0.1 -0.1)">
       <use xlink:href="#DejaVuSans-49"/>
      </g>
     </g>
    </g>
    <g id="xtick_6">
     <g id="line2d_6">
      <g>
       <use style="stroke:#000000;stroke-width:0.8;" x="352.955897" xlink:href="#me89ac1850b" y="180.405"/>
      </g>
     </g>
     <g id="text_5">
      <!-- 2 -->
      <g transform="translate(349.774647 195.003437)scale(0.1 -0.1)">
       <use xlink:href="#DejaVuSans-50"/>
      </g>
     </g>
    </g>
    <g id="xtick_7">
     <g id="line2d_7">
      <g>
       <use style="stroke:#000000;stroke-width:0.8;" x="420.486346" xlink:href="#me89ac1850b" y="180.405"/>
      </g>
     </g>
     <g id="text_6">
      <!-- 3 -->
      <g transform="translate(417.305096 195.003437)scale(0.1 -0.1)">
       <use xlink:href="#DejaVuSans-51"/>
      </g>
     </g>
    </g>
    <g id="xtick_8">
     <g id="line2d_8">
      <defs>
       <path d="M 0 0 
L 0 2 
" id="mae4cff2517" style="stroke:#000000;stroke-width:0.6;"/>
      </defs>
      <g>
       <use style="stroke:#000000;stroke-width:0.6;" x="28.809744" xlink:href="#mae4cff2517" y="180.405"/>
      </g>
     </g>
    </g>
    <g id="xtick_9">
     <g id="line2d_9">
      <g>
       <use style="stroke:#000000;stroke-width:0.6;" x="42.315833" xlink:href="#mae4cff2517" y="180.405"/>
      </g>
     </g>
    </g>
    <g id="xtick_10">
     <g id="line2d_10">
      <g>
       <use style="stroke:#000000;stroke-width:0.6;" x="55.821923" xlink:href="#mae4cff2517" y="180.405"/>
      </g>
     </g>
    </g>
    <g id="xtick_11">
     <g id="line2d_11">
      <g>
       <use style="stroke:#000000;stroke-width:0.6;" x="69.328013" xlink:href="#mae4cff2517" y="180.405"/>
      </g>
     </g>
    </g>
    <g id="xtick_12">
     <g id="line2d_12">
      <g>
       <use style="stroke:#000000;stroke-width:0.6;" x="96.340192" xlink:href="#mae4cff2517" y="180.405"/>
      </g>
     </g>
    </g>
    <g id="xtick_13">
     <g id="line2d_13">
      <g>
       <use style="stroke:#000000;stroke-width:0.6;" x="109.846282" xlink:href="#mae4cff2517" y="180.405"/>
      </g>
     </g>
    </g>
    <g id="xtick_14">
     <g id="line2d_14">
      <g>
       <use style="stroke:#000000;stroke-width:0.6;" x="123.352372" xlink:href="#mae4cff2517" y="180.405"/>
      </g>
     </g>
    </g>
    <g id="xtick_15">
     <g id="line2d_15">
      <g>
       <use style="stroke:#000000;stroke-width:0.6;" x="136.858462" xlink:href="#mae4cff2517" y="180.405"/>
      </g>
     </g>
    </g>
    <g id="xtick_16">
     <g id="line2d_16">
      <g>
       <use style="stroke:#000000;stroke-width:0.6;" x="163.870641" xlink:href="#mae4cff2517" y="180.405"/>
      </g>
     </g>
    </g>
    <g id="xtick_17">
     <g id="line2d_17">
      <g>
       <use style="stroke:#000000;stroke-width:0.6;" x="177.376731" xlink:href="#mae4cff2517" y="180.405"/>
      </g>
     </g>
    </g>
    <g id="xtick_18">
     <g id="line2d_18">
      <g>
       <use style="stroke:#000000;stroke-width:0.6;" x="190.882821" xlink:href="#mae4cff2517" y="180.405"/>
      </g>
     </g>
    </g>
    <g id="xtick_19">
     <g id="line2d_19">
      <g>
       <use style="stroke:#000000;stroke-width:0.6;" x="204.38891" xlink:href="#mae4cff2517" y="180.405"/>
      </g>
     </g>
    </g>
    <g id="xtick_20">
     <g id="line2d_20">
      <g>
       <use style="stroke:#000000;stroke-width:0.6;" x="231.40109" xlink:href="#mae4cff2517" y="180.405"/>
      </g>
     </g>
    </g>
    <g id="xtick_21">
     <g id="line2d_21">
      <g>
       <use style="stroke:#000000;stroke-width:0.6;" x="244.907179" xlink:href="#mae4cff2517" y="180.405"/>
      </g>
     </g>
    </g>
    <g id="xtick_22">
     <g id="line2d_22">
      <g>
       <use style="stroke:#000000;stroke-width:0.6;" x="258.413269" xlink:href="#mae4cff2517" y="180.405"/>
      </g>
     </g>
    </g>
    <g id="xtick_23">
     <g id="line2d_23">
      <g>
       <use style="stroke:#000000;stroke-width:0.6;" x="271.919359" xlink:href="#mae4cff2517" y="180.405"/>
      </g>
     </g>
    </g>
    <g id="xtick_24">
     <g id="line2d_24">
      <g>
       <use style="stroke:#000000;stroke-width:0.6;" x="298.931538" xlink:href="#mae4cff2517" y="180.405"/>
      </g>
     </g>
    </g>
    <g id="xtick_25">
     <g id="line2d_25">
      <g>
       <use style="stroke:#000000;stroke-width:0.6;" x="312.437628" xlink:href="#mae4cff2517" y="180.405"/>
      </g>
     </g>
    </g>
    <g id="xtick_26">
     <g id="line2d_26">
      <g>
       <use style="stroke:#000000;stroke-width:0.6;" x="325.943718" xlink:href="#mae4cff2517" y="180.405"/>
      </g>
     </g>
    </g>
    <g id="xtick_27">
     <g id="line2d_27">
      <g>
       <use style="stroke:#000000;stroke-width:0.6;" x="339.449808" xlink:href="#mae4cff2517" y="180.405"/>
      </g>
     </g>
    </g>
    <g id="xtick_28">
     <g id="line2d_28">
      <g>
       <use style="stroke:#000000;stroke-width:0.6;" x="366.461987" xlink:href="#mae4cff2517" y="180.405"/>
      </g>
     </g>
    </g>
    <g id="xtick_29">
     <g id="line2d_29">
      <g>
       <use style="stroke:#000000;stroke-width:0.6;" x="379.968077" xlink:href="#mae4cff2517" y="180.405"/>
      </g>
     </g>
    </g>
    <g id="xtick_30">
     <g id="line2d_30">
      <g>
       <use style="stroke:#000000;stroke-width:0.6;" x="393.474167" xlink:href="#mae4cff2517" y="180.405"/>
      </g>
     </g>
    </g>
    <g id="xtick_31">
     <g id="line2d_31">
      <g>
       <use style="stroke:#000000;stroke-width:0.6;" x="406.980256" xlink:href="#mae4cff2517" y="180.405"/>
      </g>
     </g>
    </g>
    <g id="text_7">
     <!-- $x$ -->
     <defs>
      <path d="M 7.8125 2.875 
Q 9.578125 1.515625 12.796875 1.515625 
Q 15.921875 1.515625 18.3125 4.515625 
Q 20.703125 7.515625 21.578125 11.078125 
L 26.125 28.8125 
Q 27.203125 33.640625 27.203125 35.40625 
Q 27.203125 37.890625 25.8125 39.75 
Q 24.421875 41.609375 21.921875 41.609375 
Q 18.75 41.609375 15.96875 39.625 
Q 13.1875 37.640625 11.28125 34.59375 
Q 9.375 31.546875 8.59375 28.421875 
Q 8.40625 27.78125 7.8125 27.78125 
L 6.59375 27.78125 
Q 5.8125 27.78125 5.8125 28.71875 
L 5.8125 29 
Q 6.78125 32.71875 9.125 36.25 
Q 11.46875 39.796875 14.859375 41.984375 
Q 18.265625 44.1875 22.125 44.1875 
Q 25.78125 44.1875 28.734375 42.234375 
Q 31.6875 40.28125 32.90625 36.921875 
Q 34.625 39.984375 37.28125 42.078125 
Q 39.9375 44.1875 43.109375 44.1875 
Q 45.265625 44.1875 47.5 43.421875 
Q 49.75 42.671875 51.171875 41.109375 
Q 52.59375 39.546875 52.59375 37.203125 
Q 52.59375 34.671875 50.953125 32.828125 
Q 49.3125 31 46.78125 31 
Q 45.171875 31 44.09375 32.03125 
Q 43.015625 33.0625 43.015625 34.625 
Q 43.015625 36.71875 44.453125 38.296875 
Q 45.90625 39.890625 47.90625 40.1875 
Q 46.09375 41.609375 42.921875 41.609375 
Q 39.703125 41.609375 37.328125 38.625 
Q 34.96875 35.640625 33.984375 31.984375 
L 29.59375 14.3125 
Q 28.515625 10.296875 28.515625 7.71875 
Q 28.515625 5.171875 29.953125 3.34375 
Q 31.390625 1.515625 33.796875 1.515625 
Q 38.484375 1.515625 42.15625 5.640625 
Q 45.84375 9.765625 47.015625 14.703125 
Q 47.21875 15.28125 47.796875 15.28125 
L 49.03125 15.28125 
Q 49.421875 15.28125 49.65625 15.015625 
Q 49.90625 14.75 49.90625 14.40625 
Q 49.90625 14.3125 49.8125 14.109375 
Q 48.390625 8.15625 43.84375 3.515625 
Q 39.3125 -1.125 33.59375 -1.125 
Q 29.9375 -1.125 26.984375 0.84375 
Q 24.03125 2.828125 22.796875 6.203125 
Q 21.234375 3.265625 18.46875 1.0625 
Q 15.71875 -1.125 12.59375 -1.125 
Q 10.453125 -1.125 8.171875 -0.359375 
Q 5.90625 0.390625 4.484375 1.953125 
Q 3.078125 3.515625 3.078125 5.90625 
Q 3.078125 8.25 4.703125 10.171875 
Q 6.34375 12.109375 8.796875 12.109375 
Q 10.453125 12.109375 11.578125 11.109375 
Q 12.703125 10.109375 12.703125 8.5 
Q 12.703125 6.390625 11.296875 4.828125 
Q 9.90625 3.265625 7.8125 2.875 
z
" id="Cmmi10-120"/>
     </defs>
     <g transform="translate(436.59 180.405)scale(0.16 -0.16)">
      <use transform="translate(0 0.8125)" xlink:href="#Cmmi10-120"/>
     </g>
    </g>
   </g>
   <g id="matplotlib.axis_2">
    <g id="ytick_1">
     <g id="line2d_32">
      <defs>
       <path d="M 0 0 
L -3.5 0 
" id="md4c5b9a155" style="stroke:#000000;stroke-width:0.8;"/>
      </defs>
      <g>
       <use style="stroke:#000000;stroke-width:0.8;" x="217.895" xlink:href="#md4c5b9a155" y="293.316011"/>
      </g>
     </g>
     <g id="text_8">
      <!-- -4 -->
      <defs>
       <path d="M 37.796875 64.3125 
L 12.890625 25.390625 
L 37.796875 25.390625 
z
M 35.203125 72.90625 
L 47.609375 72.90625 
L 47.609375 25.390625 
L 58.015625 25.390625 
L 58.015625 17.1875 
L 47.609375 17.1875 
L 47.609375 0 
L 37.796875 0 
L 37.796875 17.1875 
L 4.890625 17.1875 
L 4.890625 26.703125 
z
" id="DejaVuSans-52"/>
      </defs>
      <g transform="translate(200.924687 297.115229)scale(0.1 -0.1)">
       <use xlink:href="#DejaVuSans-45"/>
       <use x="36.083984" xlink:href="#DejaVuSans-52"/>
      </g>
     </g>
    </g>
    <g id="ytick_2">
     <g id="line2d_33">
      <g>
       <use style="stroke:#000000;stroke-width:0.8;" x="217.895" xlink:href="#md4c5b9a155" y="236.860505"/>
      </g>
     </g>
     <g id="text_9">
      <!-- -2 -->
      <g transform="translate(200.924687 240.659724)scale(0.1 -0.1)">
       <use xlink:href="#DejaVuSans-45"/>
       <use x="36.083984" xlink:href="#DejaVuSans-50"/>
      </g>
     </g>
    </g>
    <g id="ytick_3">
     <g id="line2d_34">
      <g>
       <use style="stroke:#000000;stroke-width:0.8;" x="217.895" xlink:href="#md4c5b9a155" y="180.405"/>
      </g>
     </g>
    </g>
    <g id="ytick_4">
     <g id="line2d_35">
      <g>
       <use style="stroke:#000000;stroke-width:0.8;" x="217.895" xlink:href="#md4c5b9a155" y="123.949495"/>
      </g>
     </g>
     <g id="text_10">
      <!-- 2 -->
      <g transform="translate(204.5325 127.748713)scale(0.1 -0.1)">
       <use xlink:href="#DejaVuSans-50"/>
      </g>
     </g>
    </g>
    <g id="ytick_5">
     <g id="line2d_36">
      <g>
       <use style="stroke:#000000;stroke-width:0.8;" x="217.895" xlink:href="#md4c5b9a155" y="67.493989"/>
      </g>
     </g>
     <g id="text_11">
      <!-- 4 -->
      <g transform="translate(204.5325 71.293208)scale(0.1 -0.1)">
       <use xlink:href="#DejaVuSans-52"/>
      </g>
     </g>
    </g>
    <g id="ytick_6">
     <g id="line2d_37">
      <defs>
       <path d="M 0 0 
L -2 0 
" id="m4a15bcd5b9" style="stroke:#000000;stroke-width:0.6;"/>
      </defs>
      <g>
       <use style="stroke:#000000;stroke-width:0.6;" x="217.895" xlink:href="#m4a15bcd5b9" y="321.543763"/>
      </g>
     </g>
    </g>
    <g id="ytick_7">
     <g id="line2d_38">
      <g>
       <use style="stroke:#000000;stroke-width:0.6;" x="217.895" xlink:href="#m4a15bcd5b9" y="307.429887"/>
      </g>
     </g>
    </g>
    <g id="ytick_8">
     <g id="line2d_39">
      <g>
       <use style="stroke:#000000;stroke-width:0.6;" x="217.895" xlink:href="#m4a15bcd5b9" y="279.202134"/>
      </g>
     </g>
    </g>
    <g id="ytick_9">
     <g id="line2d_40">
      <g>
       <use style="stroke:#000000;stroke-width:0.6;" x="217.895" xlink:href="#m4a15bcd5b9" y="265.088258"/>
      </g>
     </g>
    </g>
    <g id="ytick_10">
     <g id="line2d_41">
      <g>
       <use style="stroke:#000000;stroke-width:0.6;" x="217.895" xlink:href="#m4a15bcd5b9" y="250.974382"/>
      </g>
     </g>
    </g>
    <g id="ytick_11">
     <g id="line2d_42">
      <g>
       <use style="stroke:#000000;stroke-width:0.6;" x="217.895" xlink:href="#m4a15bcd5b9" y="222.746629"/>
      </g>
     </g>
    </g>
    <g id="ytick_12">
     <g id="line2d_43">
      <g>
       <use style="stroke:#000000;stroke-width:0.6;" x="217.895" xlink:href="#m4a15bcd5b9" y="208.632753"/>
      </g>
     </g>
    </g>
    <g id="ytick_13">
     <g id="line2d_44">
      <g>
       <use style="stroke:#000000;stroke-width:0.6;" x="217.895" xlink:href="#m4a15bcd5b9" y="194.518876"/>
      </g>
     </g>
    </g>
    <g id="ytick_14">
     <g id="line2d_45">
      <g>
       <use style="stroke:#000000;stroke-width:0.6;" x="217.895" xlink:href="#m4a15bcd5b9" y="166.291124"/>
      </g>
     </g>
    </g>
    <g id="ytick_15">
     <g id="line2d_46">
      <g>
       <use style="stroke:#000000;stroke-width:0.6;" x="217.895" xlink:href="#m4a15bcd5b9" y="152.177247"/>
      </g>
     </g>
    </g>
    <g id="ytick_16">
     <g id="line2d_47">
      <g>
       <use style="stroke:#000000;stroke-width:0.6;" x="217.895" xlink:href="#m4a15bcd5b9" y="138.063371"/>
      </g>
     </g>
    </g>
    <g id="ytick_17">
     <g id="line2d_48">
      <g>
       <use style="stroke:#000000;stroke-width:0.6;" x="217.895" xlink:href="#m4a15bcd5b9" y="109.835618"/>
      </g>
     </g>
    </g>
    <g id="ytick_18">
     <g id="line2d_49">
      <g>
       <use style="stroke:#000000;stroke-width:0.6;" x="217.895" xlink:href="#m4a15bcd5b9" y="95.721742"/>
      </g>
     </g>
    </g>
    <g id="ytick_19">
     <g id="line2d_50">
      <g>
       <use style="stroke:#000000;stroke-width:0.6;" x="217.895" xlink:href="#m4a15bcd5b9" y="81.607866"/>
      </g>
     </g>
    </g>
    <g id="ytick_20">
     <g id="line2d_51">
      <g>
       <use style="stroke:#000000;stroke-width:0.6;" x="217.895" xlink:href="#m4a15bcd5b9" y="53.380113"/>
      </g>
     </g>
    </g>
    <g id="ytick_21">
     <g id="line2d_52">
      <g>
       <use style="stroke:#000000;stroke-width:0.6;" x="217.895" xlink:href="#m4a15bcd5b9" y="39.266237"/>
      </g>
     </g>
    </g>
    <g id="text_12">
     <!-- $y$ -->
     <defs>
      <path d="M 8.40625 -14.3125 
Q 10.5 -17.921875 15.71875 -17.921875 
Q 20.453125 -17.921875 23.921875 -14.59375 
Q 27.390625 -11.28125 29.515625 -6.5625 
Q 31.640625 -1.859375 32.8125 3.078125 
Q 28.375 -1.125 23.1875 -1.125 
Q 19.234375 -1.125 16.453125 0.234375 
Q 13.671875 1.609375 12.125 4.3125 
Q 10.59375 7.03125 10.59375 10.890625 
Q 10.59375 14.15625 11.46875 17.59375 
Q 12.359375 21.046875 13.9375 25.265625 
Q 15.53125 29.5 16.703125 32.625 
Q 18.015625 36.28125 18.015625 38.625 
Q 18.015625 41.609375 15.828125 41.609375 
Q 11.859375 41.609375 9.296875 37.53125 
Q 6.734375 33.453125 5.515625 28.421875 
Q 5.328125 27.78125 4.6875 27.78125 
L 3.515625 27.78125 
Q 2.6875 27.78125 2.6875 28.71875 
L 2.6875 29 
Q 4.296875 34.96875 7.609375 39.578125 
Q 10.9375 44.1875 16.015625 44.1875 
Q 19.578125 44.1875 22.046875 41.84375 
Q 24.515625 39.5 24.515625 35.890625 
Q 24.515625 34.03125 23.6875 31.984375 
Q 23.25 30.765625 21.6875 26.65625 
Q 20.125 22.5625 19.28125 19.875 
Q 18.453125 17.1875 17.921875 14.59375 
Q 17.390625 12.015625 17.390625 9.421875 
Q 17.390625 6.109375 18.796875 3.8125 
Q 20.21875 1.515625 23.296875 1.515625 
Q 29.5 1.515625 34.421875 9.078125 
L 42 39.890625 
Q 42.328125 41.21875 43.546875 42.15625 
Q 44.78125 43.109375 46.1875 43.109375 
Q 47.40625 43.109375 48.3125 42.328125 
Q 49.21875 41.546875 49.21875 40.28125 
Q 49.21875 39.703125 49.125 39.5 
L 39.203125 -0.296875 
Q 37.890625 -5.421875 34.375 -10.109375 
Q 30.859375 -14.796875 25.90625 -17.65625 
Q 20.953125 -20.515625 15.578125 -20.515625 
Q 12.984375 -20.515625 10.4375 -19.5 
Q 7.90625 -18.5 6.34375 -16.5 
Q 4.78125 -14.5 4.78125 -11.8125 
Q 4.78125 -9.078125 6.390625 -7.078125 
Q 8.015625 -5.078125 10.6875 -5.078125 
Q 12.3125 -5.078125 13.40625 -6.078125 
Q 14.5 -7.078125 14.5 -8.6875 
Q 14.5 -10.984375 12.78125 -12.6875 
Q 11.078125 -14.40625 8.796875 -14.40625 
Q 8.6875 -14.359375 8.59375 -14.328125 
Q 8.5 -14.3125 8.40625 -14.3125 
z
" id="Cmmi10-121"/>
     </defs>
     <g transform="translate(213.895 19.325)scale(0.16 -0.16)">
      <use transform="translate(0 0.8125)" xlink:href="#Cmmi10-121"/>
     </g>
    </g>
   </g>
   <g id="line2d_53">
    <path clip-path="url(#pbed5a78b59)" d="M 44.995877 338.325 
L 49.665132 325.872327 
L 54.006311 314.899055 
L 58.463877 304.220626 
L 62.411028 295.250246 
L 66.932509 285.519664 
L 71.009059 277.232079 
L 75.532105 268.559923 
L 79.429012 261.517068 
L 83.394469 254.745956 
L 87.32833 248.411923 
L 91.730301 241.76279 
L 95.745531 236.08906 
L 100.209957 230.203924 
L 104.343651 225.138516 
L 107.963925 220.994861 
L 111.751053 216.942753 
L 116.658455 212.105644 
L 121.154333 208.066987 
L 124.802852 205.053773 
L 128.814159 202.002777 
L 132.390941 199.504251 
L 136.305799 196.999118 
L 140.673115 194.474457 
L 144.667907 192.401968 
L 149.063853 190.368483 
L 153.235207 188.664601 
L 157.146283 187.254636 
L 162.609987 185.567718 
L 167.271016 184.368922 
L 172.634569 183.237776 
L 178.140953 182.324553 
L 183.138354 181.687832 
L 189.934793 181.072847 
L 197.158935 180.677418 
L 206.130093 180.454753 
L 218.703192 180.404984 
L 232.332853 180.313047 
L 241.65789 179.995028 
L 247.396594 179.620501 
L 254.46284 178.910988 
L 260.144198 178.100846 
L 265.67201 177.072938 
L 269.47315 176.21269 
L 275.389323 174.598278 
L 280.696647 172.837207 
L 285.809554 170.834278 
L 289.434386 169.218563 
L 293.886601 166.997342 
L 298.303163 164.521121 
L 302.988289 161.579692 
L 306.964162 158.815716 
L 311.239644 155.555117 
L 315.935546 151.612902 
L 319.422665 148.43009 
L 323.809778 144.103396 
L 328.560327 138.996371 
L 331.709521 135.359733 
L 335.701852 130.451284 
L 340.260563 124.424886 
L 344.589965 118.270299 
L 348.395726 112.501068 
L 352.251934 106.301897 
L 356.210089 99.55783 
L 359.756323 93.178558 
L 364.543394 84.046934 
L 368.6137 75.798768 
L 372.854455 66.71811 
L 377.855814 55.351181 
L 381.773936 45.934956 
L 386.189524 34.769888 
L 389.945833 24.798948 
L 394.971781 10.760026 
L 398.971796 -1 
L 398.971796 -1 
" style="fill:none;stroke:#0000ff;stroke-linecap:square;"/>
   </g>
   <g id="line2d_54">
    <path clip-path="url(#pbed5a78b59)" d="M 35.254869 338.325 
L 39.178147 326.579732 
L 43.465357 314.327272 
L 48.505503 300.673529 
L 52.558481 290.267336 
L 56.853132 279.783672 
L 61.495383 269.063435 
L 65.781942 259.713681 
L 70.005194 251.003166 
L 74.693998 241.89829 
L 79.348528 233.430837 
L 83.947403 225.605115 
L 88.514551 218.347395 
L 92.857507 211.905102 
L 97.000432 206.16267 
L 101.688757 200.12238 
L 105.35829 195.722297 
L 109.114137 191.506314 
L 113.287571 187.15112 
L 117.322099 183.25854 
L 121.523798 179.52351 
L 125.057083 176.624626 
L 128.548911 173.96853 
L 133.763223 170.371588 
L 137.876469 167.831339 
L 142.459041 165.292945 
L 146.443971 163.322287 
L 150.951601 161.343238 
L 155.073414 159.752251 
L 160.015186 158.101554 
L 164.109398 156.931193 
L 168.775039 155.798261 
L 174.890241 154.607244 
L 179.219285 153.944795 
L 183.853951 153.382463 
L 189.793468 152.855273 
L 197.94202 152.419953 
L 207.471457 152.211849 
L 238.739198 151.900546 
L 246.068608 151.493991 
L 252.970297 150.858808 
L 258.399601 150.146905 
L 263.2648 149.323886 
L 268.663588 148.17926 
L 274.13273 146.742999 
L 277.628889 145.665186 
L 282.064749 144.10402 
L 286.826061 142.170313 
L 291.145219 140.168909 
L 296.164907 137.527147 
L 299.838872 135.365781 
L 303.456477 133.039493 
L 308.052774 129.78665 
L 311.98492 126.727385 
L 316.536453 122.852484 
L 320.047764 119.608091 
L 324.034963 115.643608 
L 328.041083 111.348758 
L 332.260816 106.474233 
L 336.43733 101.282083 
L 340.757873 95.511824 
L 345.260975 89.050063 
L 349.77543 82.096745 
L 353.272222 76.373105 
L 358.006707 68.13853 
L 361.866124 61.000872 
L 366.107683 52.702636 
L 370.611937 43.354984 
L 374.611388 34.579397 
L 379.650882 22.865973 
L 384.688461 10.404355 
L 389.045651 -1 
L 389.045651 -1 
" style="fill:none;stroke:#ff0000;stroke-linecap:square;"/>
   </g>
   <g id="line2d_55">
    <path clip-path="url(#pbed5a78b59)" d="M 26.452658 338.325 
L 30.438363 325.210023 
L 35.44066 309.524182 
L 39.777903 296.602033 
L 44.804962 282.392241 
L 49.552725 269.708608 
L 54.411442 257.448608 
L 59.029062 246.453 
L 63.560874 236.265603 
L 67.786965 227.289376 
L 71.828671 219.164739 
L 75.649871 211.885828 
L 79.734873 204.525237 
L 84.34932 196.718372 
L 88.520495 190.110523 
L 92.357068 184.397371 
L 96.411751 178.727389 
L 100.227764 173.725817 
L 104.163073 168.896766 
L 108.932523 163.475875 
L 113.568836 158.642016 
L 117.693306 154.6879 
L 121.981511 150.907963 
L 126.38661 147.361515 
L 130.086385 144.635066 
L 134.208888 141.856226 
L 138.940762 138.987231 
L 142.628496 136.977003 
L 147.901851 134.426152 
L 152.523575 132.484818 
L 156.483359 131.025827 
L 161.418426 129.453276 
L 165.569072 128.326801 
L 171.981545 126.906663 
L 177.062013 126.029621 
L 181.861801 125.37893 
L 187.885767 124.775192 
L 194.580718 124.336683 
L 202.989904 124.050667 
L 212.886023 123.953334 
L 233.698108 123.828912 
L 241.599003 123.542563 
L 247.859991 123.127444 
L 252.956164 122.632648 
L 259.237786 121.790481 
L 265.626331 120.626981 
L 270.761092 119.435222 
L 274.090143 118.527582 
L 279.187905 116.914128 
L 283.781084 115.210988 
L 287.951467 113.444379 
L 292.353524 111.337046 
L 296.611068 109.047435 
L 299.614525 107.275731 
L 303.236317 104.959092 
L 308.363022 101.326952 
L 313.097542 97.586073 
L 317.739196 93.538921 
L 321.503187 89.968322 
L 325.805515 85.556902 
L 330.142596 80.739194 
L 333.941685 76.201586 
L 337.855434 71.20584 
L 341.492808 66.261101 
L 345.962806 59.772991 
L 350.31772 53.000923 
L 354.475761 46.105569 
L 359.379322 37.416628 
L 363.421176 29.786666 
L 367.707438 21.218911 
L 372.485261 11.073256 
L 377.115579 0.623753 
L 377.809142 -1 
L 377.809142 -1 
" style="fill:none;stroke:#008000;stroke-linecap:square;"/>
   </g>
   <g id="line2d_56">
    <path clip-path="url(#pbed5a78b59)" d="M 55.983579 338.325 
L 59.360984 330.370013 
L 63.471682 321.1437 
L 68.347886 310.818483 
L 73.090798 301.40106 
L 77.728667 292.769802 
L 82.220671 284.937084 
L 85.873483 278.938414 
L 89.834896 272.797678 
L 94.061379 266.651969 
L 98.028138 261.253081 
L 101.710801 256.550606 
L 106.011561 251.423863 
L 110.345418 246.641392 
L 115.013514 241.903904 
L 118.83131 238.335707 
L 122.858792 234.858232 
L 126.465346 231.984392 
L 131.163754 228.566222 
L 135.688281 225.606514 
L 139.562619 223.317961 
L 143.519487 221.203065 
L 148.722333 218.74528 
L 154.083339 216.571579 
L 158.843438 214.924196 
L 163.169702 213.640248 
L 168.280486 212.364243 
L 173.798153 211.252617 
L 179.030829 210.426265 
L 183.651301 209.859622 
L 190.4583 209.263785 
L 195.807086 208.961998 
L 204.7599 208.701993 
L 216.803589 208.632792 
L 232.255242 208.542275 
L 241.427397 208.234595 
L 249.563975 207.662336 
L 255.532238 207.003797 
L 260.81523 206.217057 
L 265.390559 205.359232 
L 271.148883 204.018408 
L 275.994913 202.640604 
L 281.580642 200.740868 
L 285.219551 199.309305 
L 289.138392 197.584594 
L 294.059361 195.133443 
L 298.344142 192.724577 
L 302.480777 190.142273 
L 307.033357 186.993113 
L 310.639687 184.258952 
L 314.621258 180.983124 
L 318.756194 177.283409 
L 322.39227 173.769253 
L 326.708789 169.267962 
L 330.669899 164.810623 
L 334.187664 160.580572 
L 338.38473 155.187856 
L 342.683391 149.261161 
L 346.409374 143.782562 
L 350.749307 136.988219 
L 355.450316 129.110572 
L 360.276972 120.442385 
L 364.893054 111.583789 
L 369.677355 101.796167 
L 374.441313 91.417353 
L 378.944621 81.007898 
L 383.725764 69.300568 
L 388.527112 56.844402 
L 392.987655 44.626681 
L 397.884562 30.477718 
L 402.546926 16.27147 
L 406.775839 2.750055 
L 407.915583 -1 
L 407.915583 -1 
" style="fill:none;stroke:#ff00ff;stroke-linecap:square;"/>
   </g>
   <g id="line2d_57">
    <path clip-path="url(#pbed5a78b59)" d="M 68.702721 338.325 
L 71.801949 332.128016 
L 75.476374 325.119 
L 79.802873 317.317331 
L 83.280394 311.390776 
L 87.699841 304.288563 
L 91.807593 298.105596 
L 96.135425 292.013045 
L 100.82419 285.883745 
L 104.935489 280.898198 
L 108.641057 276.704925 
L 113.225075 271.8971 
L 118.121469 267.206555 
L 122.351681 263.508045 
L 126.528877 260.1635 
L 129.653929 257.853213 
L 134.303596 254.70651 
L 137.790267 252.565243 
L 142.038038 250.197024 
L 146.260062 248.091826 
L 150.773865 246.099698 
L 155.47573 244.290905 
L 159.984695 242.79418 
L 164.743913 241.44818 
L 168.006107 240.654247 
L 173.869151 239.467735 
L 180.103549 238.509567 
L 187.346577 237.731514 
L 193.441226 237.307285 
L 201.770158 236.988603 
L 212.867392 236.864388 
L 234.441057 236.722104 
L 242.52925 236.40376 
L 249.975434 235.851771 
L 255.145922 235.281196 
L 260.89311 234.431635 
L 266.474946 233.357609 
L 270.871675 232.317845 
L 276.547248 230.695831 
L 281.085672 229.151203 
L 286.007701 227.205768 
L 290.477957 225.177351 
L 295.059114 222.822601 
L 298.927424 220.603796 
L 303.81166 217.483427 
L 307.890739 214.590414 
L 311.430364 211.857993 
L 315.300391 208.624379 
L 319.134121 205.157441 
L 323.171197 201.211558 
L 327.427526 196.710515 
L 331.490288 192.075039 
L 335.54132 187.110723 
L 340.055662 181.161137 
L 344.520834 174.827461 
L 348.027557 169.529665 
L 351.905137 163.329738 
L 355.909446 156.539381 
L 359.857573 149.447162 
L 363.764231 142.030184 
L 367.671439 134.20396 
L 371.742008 125.604541 
L 376.043416 116.009385 
L 380.297534 105.992179 
L 385.432347 93.182251 
L 389.788532 81.680861 
L 393.608251 71.104342 
L 398.09341 58.084591 
L 402.533337 44.541686 
L 407.029963 30.145691 
L 411.237966 16.039049 
L 416.087493 -1 
L 416.087493 -1 
" style="fill:none;stroke:#000000;stroke-linecap:square;"/>
   </g>
   <g id="patch_3">
    <path d="M 217.895 330.125 
L 217.895 30.685 
" style="fill:none;stroke:#000000;stroke-linecap:square;stroke-linejoin:miter;stroke-width:0.8;"/>
   </g>
   <g id="patch_4">
    <path d="M 7.2 180.405 
L 428.59 180.405 
" style="fill:none;stroke:#000000;stroke-linecap:square;stroke-linejoin:miter;stroke-width:0.8;"/>
   </g>
   <g id="text_13">
    <!-- $C=0$ -->
    <defs>
     <path d="M 14.59375 21.578125 
Q 14.59375 15.578125 16.90625 11.015625 
Q 19.234375 6.453125 23.65625 3.875 
Q 28.078125 1.3125 34.078125 1.3125 
Q 40.375 1.3125 46.203125 4.53125 
Q 52.046875 7.765625 56.171875 13.15625 
Q 60.296875 18.5625 61.8125 24.609375 
Q 62.015625 25.203125 62.59375 25.203125 
L 63.8125 25.203125 
Q 64.203125 25.203125 64.453125 24.921875 
Q 64.703125 24.65625 64.703125 24.3125 
Q 64.703125 24.21875 64.59375 24.03125 
Q 62.890625 17.09375 57.984375 11.015625 
Q 53.078125 4.9375 46.234375 1.359375 
Q 39.40625 -2.203125 32.171875 -2.203125 
Q 24.359375 -2.203125 18.15625 1.3125 
Q 11.96875 4.828125 8.515625 11.078125 
Q 5.078125 17.328125 5.078125 25.203125 
Q 5.078125 33.59375 8.828125 41.8125 
Q 12.59375 50.046875 18.9375 56.46875 
Q 25.296875 62.890625 33.421875 66.703125 
Q 41.546875 70.515625 49.90625 70.515625 
Q 53.21875 70.515625 56.25 69.5 
Q 59.28125 68.5 61.859375 66.453125 
Q 64.453125 64.40625 66.109375 61.71875 
L 74.03125 70.3125 
Q 74.03125 70.515625 74.515625 70.515625 
L 75.09375 70.515625 
Q 75.484375 70.515625 75.734375 70.171875 
Q 75.984375 69.828125 75.984375 69.484375 
L 69.1875 42.484375 
Q 69.1875 41.796875 68.40625 41.796875 
L 66.609375 41.796875 
Q 65.828125 41.796875 65.828125 42.921875 
Q 66.21875 45.125 66.21875 48.1875 
Q 66.21875 53.078125 64.546875 57.390625 
Q 62.890625 61.71875 59.390625 64.359375 
Q 55.90625 67 50.875 67 
Q 42.71875 67 35.9375 62.890625 
Q 29.15625 58.796875 24.4375 52.125 
Q 19.734375 45.453125 17.15625 37.328125 
Q 14.59375 29.203125 14.59375 21.578125 
z
" id="Cmmi10-67"/>
     <path d="M 7.515625 13.28125 
Q 6.6875 13.28125 6.140625 13.90625 
Q 5.609375 14.546875 5.609375 15.28125 
Q 5.609375 16.109375 6.140625 16.6875 
Q 6.6875 17.28125 7.515625 17.28125 
L 70.3125 17.28125 
Q 71.046875 17.28125 71.578125 16.6875 
Q 72.125 16.109375 72.125 15.28125 
Q 72.125 14.546875 71.578125 13.90625 
Q 71.046875 13.28125 70.3125 13.28125 
z
M 7.515625 32.71875 
Q 6.6875 32.71875 6.140625 33.296875 
Q 5.609375 33.890625 5.609375 34.71875 
Q 5.609375 35.453125 6.140625 36.078125 
Q 6.6875 36.71875 7.515625 36.71875 
L 70.3125 36.71875 
Q 71.046875 36.71875 71.578125 36.078125 
Q 72.125 35.453125 72.125 34.71875 
Q 72.125 33.890625 71.578125 33.296875 
Q 71.046875 32.71875 70.3125 32.71875 
z
" id="Cmr10-61"/>
     <path d="M 25 -2.203125 
Q 12.75 -2.203125 8.328125 7.875 
Q 3.90625 17.96875 3.90625 31.890625 
Q 3.90625 40.578125 5.484375 48.234375 
Q 7.078125 55.90625 11.78125 61.25 
Q 16.5 66.609375 25 66.609375 
Q 31.59375 66.609375 35.78125 63.375 
Q 39.984375 60.15625 42.1875 55.046875 
Q 44.390625 49.953125 45.1875 44.109375 
Q 46 38.28125 46 31.890625 
Q 46 23.296875 44.40625 15.796875 
Q 42.828125 8.296875 38.1875 3.046875 
Q 33.546875 -2.203125 25 -2.203125 
z
M 25 0.390625 
Q 30.5625 0.390625 33.296875 6.09375 
Q 36.03125 11.8125 36.671875 18.75 
Q 37.3125 25.6875 37.3125 33.5 
Q 37.3125 41.015625 36.671875 47.359375 
Q 36.03125 53.71875 33.3125 58.859375 
Q 30.609375 64.015625 25 64.015625 
Q 19.34375 64.015625 16.609375 58.828125 
Q 13.875 53.65625 13.234375 47.328125 
Q 12.59375 41.015625 12.59375 33.5 
Q 12.59375 27.9375 12.859375 23 
Q 13.140625 18.0625 14.3125 12.8125 
Q 15.484375 7.5625 18.09375 3.96875 
Q 20.703125 0.390625 25 0.390625 
z
" id="Cmr10-48"/>
    </defs>
    <g style="fill:#0000ff;" transform="translate(218.327612 174.858874)scale(0.14 -0.14)">
     <use transform="translate(0 0.484375)" xlink:href="#Cmmi10-67"/>
     <use transform="translate(88.945312 0.484375)" xlink:href="#Cmr10-61"/>
     <use transform="translate(184.189453 0.484375)" xlink:href="#Cmr10-48"/>
    </g>
   </g>
   <g id="text_14">
    <!-- $C=1$ -->
    <defs>
     <path d="M 9.28125 0 
L 9.28125 3.515625 
Q 21.78125 3.515625 21.78125 6.6875 
L 21.78125 59.1875 
Q 16.609375 56.6875 8.6875 56.6875 
L 8.6875 60.203125 
Q 20.953125 60.203125 27.203125 66.609375 
L 28.609375 66.609375 
Q 28.953125 66.609375 29.265625 66.328125 
Q 29.59375 66.0625 29.59375 65.71875 
L 29.59375 6.6875 
Q 29.59375 3.515625 42.09375 3.515625 
L 42.09375 0 
z
" id="Cmr10-49"/>
    </defs>
    <g style="fill:#0000ff;" transform="translate(167.679776 146.631121)scale(0.14 -0.14)">
     <use transform="translate(0 0.484375)" xlink:href="#Cmmi10-67"/>
     <use transform="translate(88.945312 0.484375)" xlink:href="#Cmr10-61"/>
     <use transform="translate(184.189453 0.484375)" xlink:href="#Cmr10-49"/>
    </g>
   </g>
   <g id="text_15">
    <!-- $C=2$ -->
    <defs>
     <path d="M 4.984375 0 
L 4.984375 2.6875 
Q 4.984375 2.9375 5.171875 3.21875 
L 20.703125 20.40625 
Q 24.21875 24.21875 26.40625 26.796875 
Q 28.609375 29.390625 30.75 32.765625 
Q 32.90625 36.140625 34.15625 39.625 
Q 35.40625 43.109375 35.40625 47.015625 
Q 35.40625 51.125 33.890625 54.859375 
Q 32.375 58.59375 29.375 60.84375 
Q 26.375 63.09375 22.125 63.09375 
Q 17.78125 63.09375 14.3125 60.46875 
Q 10.84375 57.859375 9.421875 53.71875 
Q 9.8125 53.8125 10.5 53.8125 
Q 12.75 53.8125 14.328125 52.296875 
Q 15.921875 50.78125 15.921875 48.390625 
Q 15.921875 46.09375 14.328125 44.5 
Q 12.75 42.921875 10.5 42.921875 
Q 8.15625 42.921875 6.5625 44.546875 
Q 4.984375 46.1875 4.984375 48.390625 
Q 4.984375 52.15625 6.390625 55.4375 
Q 7.8125 58.734375 10.46875 61.296875 
Q 13.140625 63.875 16.484375 65.234375 
Q 19.828125 66.609375 23.578125 66.609375 
Q 29.296875 66.609375 34.21875 64.1875 
Q 39.15625 61.765625 42.03125 57.34375 
Q 44.921875 52.9375 44.921875 47.015625 
Q 44.921875 42.671875 43.015625 38.765625 
Q 41.109375 34.859375 38.125 31.65625 
Q 35.15625 28.46875 30.515625 24.40625 
Q 25.875 20.359375 24.421875 19 
L 13.09375 8.109375 
L 22.703125 8.109375 
Q 29.78125 8.109375 34.546875 8.21875 
Q 39.3125 8.34375 39.59375 8.59375 
Q 40.765625 9.859375 42 17.828125 
L 44.921875 17.828125 
L 42.09375 0 
z
" id="Cmr10-50"/>
    </defs>
    <g style="fill:#0000ff;" transform="translate(106.902372 137.221871)scale(0.14 -0.14)">
     <use transform="translate(0 0.484375)" xlink:href="#Cmmi10-67"/>
     <use transform="translate(88.945312 0.484375)" xlink:href="#Cmr10-61"/>
     <use transform="translate(184.189453 0.484375)" xlink:href="#Cmr10-50"/>
    </g>
   </g>
   <g id="text_16">
    <!-- $C=-1$ -->
    <defs>
     <path d="M 10.203125 23 
Q 9.375 23 8.828125 23.625 
Q 8.296875 24.265625 8.296875 25 
Q 8.296875 25.734375 8.828125 26.359375 
Q 9.375 27 10.203125 27 
L 67.578125 27 
Q 68.359375 27 68.875 26.359375 
Q 69.390625 25.734375 69.390625 25 
Q 69.390625 24.265625 68.875 23.625 
Q 68.359375 23 67.578125 23 
z
" id="Cmsy10-161"/>
    </defs>
    <g style="fill:#0000ff;" transform="translate(227.370224 199.972165)scale(0.14 -0.14)">
     <use transform="translate(0 0.484375)" xlink:href="#Cmmi10-67"/>
     <use transform="translate(88.945312 0.484375)" xlink:href="#Cmr10-61"/>
     <use transform="translate(201.748047 0.484375)" xlink:href="#Cmsy10-161"/>
     <use transform="translate(296.992188 0.484375)" xlink:href="#Cmr10-49"/>
    </g>
   </g>
   <g id="text_17">
    <!-- $C=-2$ -->
    <g style="fill:#0000ff;" transform="translate(220.617179 232.656374)scale(0.14 -0.14)">
     <use transform="translate(0 0.484375)" xlink:href="#Cmmi10-67"/>
     <use transform="translate(88.945312 0.484375)" xlink:href="#Cmr10-61"/>
     <use transform="translate(201.748047 0.484375)" xlink:href="#Cmsy10-161"/>
     <use transform="translate(296.992188 0.484375)" xlink:href="#Cmr10-50"/>
    </g>
   </g>
  </g>
 </g>
 <defs>
  <clipPath id="pbed5a78b59">
   <rect height="299.44" width="421.39" x="7.2" y="30.685"/>
  </clipPath>
 </defs>
</svg>
