<?xml version="1.0" standalone="no"?>
<!DOCTYPE svg PUBLIC "-//W3C//DTD SVG 20010904//EN"
 "http://www.w3.org/TR/2001/REC-SVG-20010904/DTD/svg10.dtd">
<svg version="1.0" xmlns="http://www.w3.org/2000/svg"
 width="270.000000pt" height="141.000000pt" viewBox="0 0 270.000000 141.000000"
 preserveAspectRatio="xMidYMid meet">
<metadata>
Created by potrace 1.16, written by Peter Selinger 2001-2019
</metadata>
<g transform="translate(0.000000,141.000000) scale(0.100000,-0.100000)"
fill="#000000" stroke="none">
<path d="M1108 952 c-367 -251 -763 -522 -880 -602 -116 -80 -213 -151 -216
-158 -3 -10 177 -12 890 -10 l893 3 3 613 c2 486 0 612 -10 611 -7 0 -313
-206 -680 -457z m672 -162 l0 -590 -620 0 c-488 0 -621 3 -624 12 -2 7 -8 43
-14 80 -5 37 -24 94 -40 127 l-30 60 657 449 c361 248 659 451 664 451 4 1 7
-264 7 -589z m-1321 -367 c27 -54 51 -140 51 -185 l0 -38 -227 0 c-197 0 -225
2 -213 14 21 20 353 246 362 246 4 0 16 -17 27 -37z"/>
<path d="M579 464 c-7 -9 -15 -41 -17 -72 -5 -72 18 -109 62 -98 34 8 49 46
43 110 -6 68 -54 100 -88 60z"/>
<path d="M1976 878 c-8 -29 -18 -65 -22 -80 -8 -37 -24 -26 -24 17 0 55 -8 65
-51 65 -47 0 -52 -17 -7 -22 l33 -3 12 -80 c14 -95 11 -85 22 -85 4 0 21 50
36 110 l29 110 338 0 c288 0 338 -2 338 -14 0 -8 5 -18 10 -21 6 -4 10 7 10
24 l0 31 -355 0 -354 0 -15 -52z"/>
</g>
</svg>
