<?xml version="1.0" encoding="UTF-8"?>
<svg version="1.1" xmlns="http://www.w3.org/2000/svg" width="270" height="141">
<path d="M0 0 C89.1 0 178.2 0 270 0 C270 46.53 270 93.06 270 141 C180.9 141 91.8 141 0 141 C0 94.47 0 47.94 0 0 Z " fill="#FDFDFD" transform="translate(0,0)"/>
<path d="M0 0 C58.41 0 116.82 0 177 0 C173.85894837 3.14105163 171.39580536 5.20494709 167.75 7.5625 C163.06436409 10.63375715 158.42132123 13.75224375 153.8125 16.9375 C146.79153544 21.78058923 139.74285538 26.58217087 132.6875 31.375 C122.86704005 38.04720739 113.05971881 44.73811839 103.26513672 51.44824219 C91.5858805 59.44925022 79.89715506 67.43622515 68.19873047 75.40917969 C62.2329675 79.47574542 56.2707752 83.54747162 50.3125 87.625 C49.53890137 88.15424072 48.76530273 88.68348145 47.96826172 89.22875977 C44.08706919 91.8846334 40.20796586 94.54348963 36.33203125 97.20703125 C27.71307937 103.12557493 19.06433003 108.9976743 10.375 114.8125 C9.45541504 115.42988037 8.53583008 116.04726074 7.58837891 116.68334961 C6.74194824 117.24803955 5.89551758 117.81272949 5.0234375 118.39453125 C3.89301025 119.15020386 3.89301025 119.15020386 2.73974609 119.92114258 C1 121 1 121 0 121 C0 81.07 0 41.14 0 0 Z " fill="#FEFEFE" transform="translate(0,0)"/>
<path d="M0 0 C0.66 0 1.32 0 2 0 C2 38.94 2 77.88 2 118 C-39.25 118 -80.5 118 -123 118 C-123.33 114.37 -123.66 110.74 -124 107 C-125.03091064 103.28188266 -125.03091064 103.28188266 -126.4375 100.0625 C-127.08525391 98.47115234 -127.08525391 98.47115234 -127.74609375 96.84765625 C-128.76938058 94.52374317 -129.85456702 92.2644679 -131 90 C-108.06555373 73.97970047 -108.06555373 73.97970047 -98.81640625 67.875 C-95.52009953 65.68051009 -92.25883863 63.43700447 -89 61.1875 C-81.3614785 55.91675799 -73.68236341 50.70648991 -66 45.5 C-57.23957492 39.56200317 -48.49023957 33.60916947 -39.77734375 27.6015625 C-35.35970216 24.555808 -30.92954993 21.52839731 -26.5 18.5 C-23.33310377 16.33366874 -20.16650605 14.16690153 -17 12 C-16.21334961 11.46181641 -15.42669922 10.92363281 -14.61621094 10.36914062 C-12.36834489 8.83058454 -10.12151602 7.29052643 -7.875 5.75 C-7.19373047 5.28400391 -6.51246094 4.81800781 -5.81054688 4.33789062 C-2.76571936 2.343216 -2.76571936 2.343216 0 0 Z " fill="#FCFCFC" transform="translate(176,3)"/>
<path d="M0 0 C29.7 0 59.4 0 90 0 C90 15.51 90 31.02 90 47 C66.57 47 43.14 47 19 47 C17.68 52.61 16.36 58.22 15 64 C11.99382731 60.99382731 12.40414684 58.17618402 12 54 C8.04 53.505 8.04 53.505 4 53 C4 53.66 4 54.32 4 55 C2.02 55.495 2.02 55.495 0 56 C0 37.52 0 19.04 0 0 Z " fill="#FEFEFE" transform="translate(180,0)"/>
<path d="M0 0 C0 40.59 0 81.18 0 123 C-59.07 123 -118.14 123 -179 123 C-179 122.01 -179 121.02 -179 120 C-177.3737793 118.58056641 -177.3737793 118.58056641 -175.07421875 117.1015625 C-173.79973877 116.26902954 -173.79973877 116.26902954 -172.49951172 115.41967773 C-171.57154785 114.82743408 -170.64358398 114.23519043 -169.6875 113.625 C-167.74538747 112.35915586 -165.80399544 111.0922057 -163.86328125 109.82421875 C-162.38529053 108.86394775 -162.38529053 108.86394775 -160.87744141 107.88427734 C-156.66868978 105.12819852 -152.51894686 102.28973638 -148.375 99.4375 C-146.80598958 98.36067708 -145.23697917 97.28385417 -143.66796875 96.20703125 C-142.89630371 95.67674316 -142.12463867 95.14645508 -141.32958984 94.60009766 C-137.45220894 91.93688717 -133.56981907 89.28100437 -129.6875 86.625 C-128.91132324 86.09382568 -128.13514648 85.56265137 -127.33544922 85.01538086 C-120.29551148 80.19892254 -113.24726511 75.39468478 -106.19873047 70.59082031 C-100.23296775 66.52425475 -94.27069941 62.45263886 -88.3125 58.375 C-87.53600098 57.84358398 -86.75950195 57.31216797 -85.95947266 56.76464844 C-82.12996555 54.1434072 -78.30109238 51.52124265 -74.47265625 48.8984375 C-65.43130784 42.70615618 -56.37679735 36.53364766 -47.3125 30.375 C-40.34393683 25.63979604 -33.37879828 20.90010126 -26.4375 16.125 C-25.82148926 15.70226807 -25.20547852 15.27953613 -24.57080078 14.84399414 C-21.22537716 12.54507169 -17.89588788 10.22541067 -14.578125 7.88671875 C-13.47706421 7.11593994 -13.47706421 7.11593994 -12.35375977 6.32958984 C-10.94391158 5.34223532 -9.53792023 4.34934289 -8.13647461 3.35009766 C-3.33753655 0 -3.33753655 0 0 0 Z M-8.86328125 6.48046875 C-14.86442883 10.92391738 -21.00013536 15.13383298 -27.1875 19.3125 C-29.4146057 20.82081349 -31.64085235 22.33039322 -33.8671875 23.83984375 C-34.9303418 24.56026855 -35.99349609 25.28069336 -37.08886719 26.02294922 C-40.67433182 28.45796202 -44.24602175 30.91230343 -47.8125 33.375 C-55.18036922 38.45784018 -62.59071194 43.47785741 -70 48.5 C-78.07680823 53.97470526 -86.14873733 59.45550329 -94.1809082 64.99560547 C-99.83505173 68.89371482 -105.51099492 72.75954768 -111.1875 76.625 C-119.14992131 82.04789563 -127.09376513 87.49547044 -135 93 C-134.66226563 93.72445312 -134.32453125 94.44890625 -133.9765625 95.1953125 C-129.71322929 104.43664172 -127.95746131 110.46792558 -127 121 C-85.75 121 -44.5 121 -2 121 C-2 82.06 -2 43.12 -2 3 C-5.027538 3 -6.4648824 4.67715316 -8.86328125 6.48046875 Z " fill="#353334" transform="translate(180,0)"/>
<path d="M0 0 C3 1 3 1 4.09765625 2.85546875 C5.0806496 5.23136767 6.05683643 7.60797664 7 10 C7.4125 10.969375 7.825 11.93875 8.25 12.9375 C9 16 9 16 9 26 C-5.85 26 -20.7 26 -36 26 C-32.24643118 22.24643118 -28.83535644 19.31136423 -24.4921875 16.42578125 C-23.884888 16.01587448 -23.2775885 15.60596771 -22.65188599 15.18363953 C-20.72973267 13.88800255 -18.80250492 12.60015824 -16.875 11.3125 C-15.57387503 10.43735978 -14.27309047 9.56171321 -12.97265625 8.68554688 C-8.65569128 5.77946309 -4.32998386 2.88665591 0 0 Z " fill="#F6F5F5" transform="translate(42,95)"/>
<path d="M0 0 C0.33 0.99 0.66 1.98 1 3 C-8.30659863 9.40550719 -17.62202259 15.79787726 -26.94873047 22.17407227 C-31.1714806 25.06178175 -35.38995625 27.95544093 -39.6015625 30.859375 C-48.32506059 36.87302049 -57.09414683 42.81893541 -65.86453247 48.76385498 C-73.31874961 53.817075 -80.76415349 58.88210053 -88.17871094 63.9934082 C-101.38461053 73.09405684 -114.61630142 82.16224123 -128 91 C-127.66226563 91.72445312 -127.32453125 92.44890625 -126.9765625 93.1953125 C-122.76656346 102.32103295 -120.67663016 108.90367505 -121 119 C-121.66 119 -122.32 119 -123 119 C-123.01417969 118.42894531 -123.02835938 117.85789062 -123.04296875 117.26953125 C-123.53337714 108.93258868 -126.27722607 101.44554786 -130 94 C-133.66995071 95.33935632 -136.69716958 96.98562166 -139.9140625 99.1953125 C-140.83558105 99.8255835 -141.75709961 100.45585449 -142.70654297 101.10522461 C-143.66963379 101.77175049 -144.63272461 102.43827637 -145.625 103.125 C-146.60742676 103.79990479 -147.58985352 104.47480957 -148.60205078 105.17016602 C-155.14392424 109.67766978 -161.64020547 114.23776151 -168 119 C-168.99 118.34 -169.98 117.68 -171 117 C-163.05859375 111.56640625 -155.1171875 106.1328125 -147.17578125 100.69921875 C-146.40298828 100.17046143 -145.63019531 99.6417041 -144.83398438 99.09692383 C-143.26368781 98.02251903 -141.69337502 96.94813794 -140.12304688 95.8737793 C-136.20014614 93.18983728 -132.27751002 90.50551033 -128.35546875 87.8203125 C-118.97693831 81.40011045 -109.59047423 74.99167758 -100.19873047 68.59082031 C-94.23296775 64.52425475 -88.27069941 60.45263886 -82.3125 56.375 C-81.53600098 55.84358398 -80.75950195 55.31216797 -79.95947266 54.76464844 C-76.12996555 52.1434072 -72.30109238 49.52124265 -68.47265625 46.8984375 C-59.43130777 40.70615613 -50.3767853 34.53366547 -41.3125 28.375 C-27.49409742 18.98490469 -13.72865005 9.52072478 0 0 Z " fill="#3B3939" transform="translate(174,2)"/>
<path d="M0 0 C23.43 0 46.86 0 71 0 C71 2.31 71 4.62 71 7 C70.34 7 69.68 7 69 7 C69 5.68 69 4.36 69 3 C46.56 3 24.12 3 1 3 C0.67 5.97 0.34 8.94 0 12 C-0.61997691 14.37284335 -1.3016922 16.73099224 -2.0625 19.0625 C-2.42472656 20.18785156 -2.78695312 21.31320313 -3.16015625 22.47265625 C-3.43730469 23.30667969 -3.71445313 24.14070313 -4 25 C-4.99 25 -5.98 25 -7 25 C-7.99250545 19.29309366 -8.10477512 13.78591511 -8 8 C-10.31 8 -12.62 8 -15 8 C-15 7.34 -15 6.68 -15 6 C-8.84765625 5.90234375 -8.84765625 5.90234375 -7 6 C-4.95301586 8.04698414 -5.29954307 12.30411241 -5 15 C-3.35 10.05 -1.7 5.1 0 0 Z " fill="#5F5E5C" transform="translate(199,47)"/>
<path d="M0 0 C0.99 0 1.98 0 3 0 C3 40.26 3 80.52 3 122 C2.34 122 1.68 122 1 122 C1 82.73 1 43.46 1 3 C0.01 3.33 -0.98 3.66 -2 4 C-1.34 2.68 -0.68 1.36 0 0 Z " fill="#22211F" transform="translate(177,0)"/>
<path d="M0 0 C2.875 0.3125 2.875 0.3125 6 1 C8.83966847 5.2595027 8.50927592 9.00272999 8 14 C6.8125 17.125 6.8125 17.125 5 19 C2.5 19.5625 2.5 19.5625 0 19 C-2.95239027 15.94166271 -3.40952749 13.68933562 -3.375 9.5 C-3.38273437 8.5615625 -3.39046875 7.623125 -3.3984375 6.65625 C-2.94552484 3.63683226 -2.00855276 2.25297982 0 0 Z " fill="#33302D" transform="translate(59,93)"/>
<path d="M0 0 C0.66 0.33 1.32 0.66 2 1 C1.47458553 8.7498635 -0.55591476 15.6450086 -3 23 C-3.99 23 -4.98 23 -6 23 C-6.99250545 17.29309366 -7.10477512 11.78591511 -7 6 C-9.31 6 -11.62 6 -14 6 C-14 5.34 -14 4.68 -14 4 C-7.84765625 3.90234375 -7.84765625 3.90234375 -6 4 C-3.95301586 6.04698414 -4.29954307 10.30411241 -4 13 C-2.68 8.71 -1.36 4.42 0 0 Z " fill="#403D3B" transform="translate(198,49)"/>
<path d="M0 0 C0.9075 0.103125 1.815 0.20625 2.75 0.3125 C2.42 3.9425 2.09 7.5725 1.75 11.3125 C-1.22 11.3125 -4.19 11.3125 -7.25 11.3125 C-7.5934538 7.62037163 -7.471621 5.70459869 -5.625 2.4375 C-3.25 0.3125 -3.25 0.3125 0 0 Z " fill="#61605E" transform="translate(99.25,129.6875)"/>
<path d="M0 0 C1.0725 0.103125 2.145 0.20625 3.25 0.3125 C2.59 3.6125 1.93 6.9125 1.25 10.3125 C-2.18399845 11.45716615 -4.05785102 11.3125 -7.75 11.3125 C-8.08975517 7.66013197 -7.95830209 5.69577585 -6.1875 2.4375 C-3.75 0.3125 -3.75 0.3125 0 0 Z " fill="#F1EFF0" transform="translate(249.75,62.6875)"/>
<path d="M0 0 C3.125 0.375 3.125 0.375 6 1 C7.09658936 4.28976808 6.79953138 5.71303767 6 9 C3.69 9 1.38 9 -1 9 C-1 8.34 -1 7.68 -1 7 C-1.66 7 -2.32 7 -3 7 C-2.25 2.25 -2.25 2.25 0 0 Z " fill="#575553" transform="translate(59,93)"/>
<path d="M0 0 C3.73758459 3.73758459 4.86500195 8.85656154 5.19140625 14.0390625 C5.18796918 16.69935192 5.13407605 19.34330784 5 22 C4.34 22 3.68 22 3 22 C2.96261719 21.39414063 2.92523438 20.78828125 2.88671875 20.1640625 C2.43972745 14.46711459 1.38737471 9.43495789 -0.4765625 4.03125 C-1 2 -1 2 0 0 Z " fill="#3C3B3A" transform="translate(48,99)"/>
<path d="M0 0 C0.9075 0.185625 1.815 0.37125 2.75 0.5625 C5.68314324 0.95734621 7.2644657 0.94691572 10 0 C10 0.66 10 1.32 10 2 C9.01 2.33 8.02 2.66 7 3 C6.67 4.98 6.34 6.96 6 9 C6.99 8.67 7.98 8.34 9 8 C8.67 8.99 8.34 9.98 8 11 C6.68 10.67 5.36 10.34 4 10 C3.54427083 7.98177083 3.08854167 5.96354167 2.6328125 3.9453125 C2.09525572 1.79280036 2.09525572 1.79280036 0 0 Z " fill="#656463" transform="translate(207,63)"/>
<path d="M0 0 C2.97 0 5.94 0 9 0 C9 0.66 9 1.32 9 2 C8.01 2 7.02 2 6 2 C6.33 4.97 6.66 7.94 7 11 C6.01 11 5.02 11 4 11 C4 10.01 4 9.02 4 8 C3.34 8 2.68 8 2 8 C2.04125 7.236875 2.0825 6.47375 2.125 5.6875 C2.22080824 2.77281584 2.22080824 2.77281584 0 0 Z " fill="#656465" transform="translate(77,41)"/>
<path d="M0 0 C1.98 0 3.96 0 6 0 C5.6875 2.875 5.6875 2.875 5 6 C4.01 6.66 3.02 7.32 2 8 C0 6 0 6 -0.125 2.875 C-0.08375 1.92625 -0.0425 0.9775 0 0 Z " fill="#E7E5E3" transform="translate(59,103)"/>
<path d="M0 0 C-0.33 3.3 -0.66 6.6 -1 10 C-2.32 9.67 -3.64 9.34 -5 9 C-5.36666667 3.5 -5.36666667 3.5 -3.625 1.125 C-2 0 -2 0 0 0 Z " fill="#EBEAE8" transform="translate(99,131)"/>
<path d="M0 0 C0.33 0.99 0.66 1.98 1 3 C-4.445 6.96 -4.445 6.96 -10 11 C-10.99 10.34 -11.98 9.68 -13 9 C-8.71 6.03 -4.42 3.06 0 0 Z " fill="#3F3D3C" transform="translate(16,110)"/>
<path d="M0 0 C0.99 0.66 1.98 1.32 3 2 C3.1875 5.125 3.1875 5.125 3 8 C1.35 8 -0.3 8 -2 8 C-2.125 5.125 -2.125 5.125 -2 2 C-1.34 1.34 -0.68 0.68 0 0 Z " fill="#F0EFED" transform="translate(61,94)"/>
<path d="M0 0 C1.32 0.33 2.64 0.66 4 1 C3.38125 1.20625 2.7625 1.4125 2.125 1.625 C-0.84653645 3.54775888 -1.13024659 5.66594527 -2 9 C-1.01 9.33 -0.02 9.66 1 10 C-0.65 10.33 -2.3 10.66 -4 11 C-4.36630156 7.06225823 -4.30233203 5.43460229 -2 2.125 C-1.34 1.42375 -0.68 0.7225 0 0 Z " fill="#595859" transform="translate(246,63)"/>
<path d="M0 0 C0.66 0 1.32 0 2 0 C2 0.66 2 1.32 2 2 C4.31 2 6.62 2 9 2 C9 2.33 9 2.66 9 3 C6.69 3 4.38 3 2 3 C2 4.98 2 6.96 2 9 C1.34 8.67 0.68 8.34 0 8 C0 5.36 0 2.72 0 0 Z " fill="#272624" transform="translate(56,100)"/>
<path d="M0 0 C0.66 0 1.32 0 2 0 C1.34 3.3 0.68 6.6 0 10 C-0.99 10.33 -1.98 10.66 -3 11 C-4 8 -4 8 -3.22265625 5.95703125 C-2.83980469 5.24933594 -2.45695313 4.54164062 -2.0625 3.8125 C-1.68222656 3.09707031 -1.30195313 2.38164063 -0.91015625 1.64453125 C-0.60980469 1.10183594 -0.30945313 0.55914062 0 0 Z " fill="#424142" transform="translate(251,63)"/>
<path d="M0 0 C0.33 0.99 0.66 1.98 1 3 C-1.64 4.65 -4.28 6.3 -7 8 C-7.66 7.34 -8.32 6.68 -9 6 C-6.03 4.02 -3.06 2.04 0 0 Z " fill="#403F3E" transform="translate(174,2)"/>
<path d="M0 0 C1.1700097 3.91736581 0.69584017 6.97959015 0 11 C-0.99 11 -1.98 11 -3 11 C-4 8 -4 8 -3.22265625 5.95703125 C-2.83980469 5.24933594 -2.45695312 4.54164063 -2.0625 3.8125 C-1.68222656 3.09707031 -1.30195312 2.38164062 -0.91015625 1.64453125 C-0.60980469 1.10183594 -0.30945313 0.55914062 0 0 Z " fill="#3B3A38" transform="translate(101,130)"/>
<path d="M0 0 C0.66 0.33 1.32 0.66 2 1 C1.67 3.97 1.34 6.94 1 10 C0.01 9.67 -0.98 9.34 -2 9 C-1.34 6.03 -0.68 3.06 0 0 Z " fill="#585657" transform="translate(198,49)"/>
<path d="M0 0 C0.33 1.32 0.66 2.64 1 4 C-0.98 4.33 -2.96 4.66 -5 5 C-5.33 4.01 -5.66 3.02 -6 2 C-2.25 0 -2.25 0 0 0 Z " fill="#BCBBBA" transform="translate(211,70)"/>
<path d="M0 0 C0.33 0 0.66 0 1 0 C1.66 2.31 2.32 4.62 3 7 C3.99 6.67 4.98 6.34 6 6 C6 6.99 6 7.98 6 9 C3.625 9.1875 3.625 9.1875 1 9 C-1 6 -1 6 -0.625 2.8125 C-0.41875 1.884375 -0.2125 0.95625 0 0 Z " fill="#595856" transform="translate(58,103)"/>
<path d="M0 0 C0.99 0.33 1.98 0.66 3 1 C-1.75 4.875 -1.75 4.875 -4 6 C-4.66 5.34 -5.32 4.68 -6 4 C-3.1875 1.9375 -3.1875 1.9375 0 0 Z " fill="#434240" transform="translate(67,75)"/>
<path d="M0 0 C1.98 0 3.96 0 6 0 C3.63707344 2.52588702 2.33537489 3.88820837 -1 5 C-0.67 3.35 -0.34 1.7 0 0 Z " fill="#F1F0EE" transform="translate(171,0)"/>
<path d="M0 0 C0.66 0 1.32 0 2 0 C1.67 2.64 1.34 5.28 1 8 C0.67 7.34 0.34 6.68 0 6 C-0.66 6 -1.32 6 -2 6 C-1.125 1.125 -1.125 1.125 0 0 Z " fill="#4B4A48" transform="translate(58,94)"/>
<path d="M0 0 C0.99 0.33 1.98 0.66 3 1 C0.69 2.65 -1.62 4.3 -4 6 C-4 5.01 -4 4.02 -4 3 C-2.1875 1.25 -2.1875 1.25 0 0 Z " fill="#363533" transform="translate(164,9)"/>
<path d="M0 0 C2.39223697 2.39223697 2.6758631 3.67759676 3 7 C2.01 8.485 2.01 8.485 1 10 C0.63720544 8.71073008 0.28503302 7.41846728 -0.0625 6.125 C-0.35833984 5.04605469 -0.35833984 5.04605469 -0.66015625 3.9453125 C-1 2 -1 2 0 0 Z " fill="#4C4B49" transform="translate(48,99)"/>
</svg>
