<?xml version="1.0" encoding="utf-8" standalone="no"?>
<!DOCTYPE svg PUBLIC "-//W3C//DTD SVG 1.1//EN"
  "http://www.w3.org/Graphics/SVG/1.1/DTD/svg11.dtd">
<!-- Created with matplotlib (https://matplotlib.org/) -->
<svg height="337.325pt" version="1.1" viewBox="0 0 453.07 337.325" width="453.07pt" xmlns="http://www.w3.org/2000/svg" xmlns:xlink="http://www.w3.org/1999/xlink">
 <defs>
  <style type="text/css">
*{stroke-linecap:butt;stroke-linejoin:round;}
  </style>
 </defs>
 <g id="figure_1">
  <g id="patch_1">
   <path d="M 0 337.325 
L 453.07 337.325 
L 453.07 0 
L 0 0 
z
" style="fill:#ffffff;"/>
  </g>
  <g id="axes_1">
   <g id="patch_2">
    <path d="M 7.2 330.125 
L 428.59 330.125 
L 428.59 30.685 
L 7.2 30.685 
z
" style="fill:#ffffff;"/>
   </g>
   <g id="matplotlib.axis_1">
    <g id="xtick_1">
     <g id="line2d_1">
      <defs>
       <path d="M 0 0 
L 0 3.5 
" id="m927627c5af" style="stroke:#000000;stroke-width:0.8;"/>
      </defs>
      <g>
       <use style="stroke:#000000;stroke-width:0.8;" x="15.303654" xlink:href="#m927627c5af" y="180.405"/>
      </g>
     </g>
     <g id="text_1">
      <!-- -3 -->
      <defs>
       <path d="M 4.890625 31.390625 
L 31.203125 31.390625 
L 31.203125 23.390625 
L 4.890625 23.390625 
z
" id="DejaVuSans-45"/>
       <path d="M 40.578125 39.3125 
Q 47.65625 37.796875 51.625 33 
Q 55.609375 28.21875 55.609375 21.1875 
Q 55.609375 10.40625 48.1875 4.484375 
Q 40.765625 -1.421875 27.09375 -1.421875 
Q 22.515625 -1.421875 17.65625 -0.515625 
Q 12.796875 0.390625 7.625 2.203125 
L 7.625 11.71875 
Q 11.71875 9.328125 16.59375 8.109375 
Q 21.484375 6.890625 26.8125 6.890625 
Q 36.078125 6.890625 40.9375 10.546875 
Q 45.796875 14.203125 45.796875 21.1875 
Q 45.796875 27.640625 41.28125 31.265625 
Q 36.765625 34.90625 28.71875 34.90625 
L 20.21875 34.90625 
L 20.21875 43.015625 
L 29.109375 43.015625 
Q 36.375 43.015625 40.234375 45.921875 
Q 44.09375 48.828125 44.09375 54.296875 
Q 44.09375 59.90625 40.109375 62.90625 
Q 36.140625 65.921875 28.71875 65.921875 
Q 24.65625 65.921875 20.015625 65.03125 
Q 15.375 64.15625 9.8125 62.3125 
L 9.8125 71.09375 
Q 15.4375 72.65625 20.34375 73.4375 
Q 25.25 74.21875 29.59375 74.21875 
Q 40.828125 74.21875 47.359375 69.109375 
Q 53.90625 64.015625 53.90625 55.328125 
Q 53.90625 49.265625 50.4375 45.09375 
Q 46.96875 40.921875 40.578125 39.3125 
z
" id="DejaVuSans-51"/>
      </defs>
      <g transform="translate(10.318498 195.003437)scale(0.1 -0.1)">
       <use xlink:href="#DejaVuSans-45"/>
       <use x="36.083984" xlink:href="#DejaVuSans-51"/>
      </g>
     </g>
    </g>
    <g id="xtick_2">
     <g id="line2d_2">
      <g>
       <use style="stroke:#000000;stroke-width:0.8;" x="82.834103" xlink:href="#m927627c5af" y="180.405"/>
      </g>
     </g>
     <g id="text_2">
      <!-- -2 -->
      <defs>
       <path d="M 19.1875 8.296875 
L 53.609375 8.296875 
L 53.609375 0 
L 7.328125 0 
L 7.328125 8.296875 
Q 12.9375 14.109375 22.625 23.890625 
Q 32.328125 33.6875 34.8125 36.53125 
Q 39.546875 41.84375 41.421875 45.53125 
Q 43.3125 49.21875 43.3125 52.78125 
Q 43.3125 58.59375 39.234375 62.25 
Q 35.15625 65.921875 28.609375 65.921875 
Q 23.96875 65.921875 18.8125 64.3125 
Q 13.671875 62.703125 7.8125 59.421875 
L 7.8125 69.390625 
Q 13.765625 71.78125 18.9375 73 
Q 24.125 74.21875 28.421875 74.21875 
Q 39.75 74.21875 46.484375 68.546875 
Q 53.21875 62.890625 53.21875 53.421875 
Q 53.21875 48.921875 51.53125 44.890625 
Q 49.859375 40.875 45.40625 35.40625 
Q 44.1875 33.984375 37.640625 27.21875 
Q 31.109375 20.453125 19.1875 8.296875 
z
" id="DejaVuSans-50"/>
      </defs>
      <g transform="translate(77.848946 195.003437)scale(0.1 -0.1)">
       <use xlink:href="#DejaVuSans-45"/>
       <use x="36.083984" xlink:href="#DejaVuSans-50"/>
      </g>
     </g>
    </g>
    <g id="xtick_3">
     <g id="line2d_3">
      <g>
       <use style="stroke:#000000;stroke-width:0.8;" x="150.364551" xlink:href="#m927627c5af" y="180.405"/>
      </g>
     </g>
     <g id="text_3">
      <!-- -1 -->
      <defs>
       <path d="M 12.40625 8.296875 
L 28.515625 8.296875 
L 28.515625 63.921875 
L 10.984375 60.40625 
L 10.984375 69.390625 
L 28.421875 72.90625 
L 38.28125 72.90625 
L 38.28125 8.296875 
L 54.390625 8.296875 
L 54.390625 0 
L 12.40625 0 
z
" id="DejaVuSans-49"/>
      </defs>
      <g transform="translate(145.379395 195.003437)scale(0.1 -0.1)">
       <use xlink:href="#DejaVuSans-45"/>
       <use x="36.083984" xlink:href="#DejaVuSans-49"/>
      </g>
     </g>
    </g>
    <g id="xtick_4">
     <g id="line2d_4">
      <g>
       <use style="stroke:#000000;stroke-width:0.8;" x="217.895" xlink:href="#m927627c5af" y="180.405"/>
      </g>
     </g>
    </g>
    <g id="xtick_5">
     <g id="line2d_5">
      <g>
       <use style="stroke:#000000;stroke-width:0.8;" x="285.425449" xlink:href="#m927627c5af" y="180.405"/>
      </g>
     </g>
     <g id="text_4">
      <!-- 1 -->
      <g transform="translate(282.244199 195.003437)scale(0.1 -0.1)">
       <use xlink:href="#DejaVuSans-49"/>
      </g>
     </g>
    </g>
    <g id="xtick_6">
     <g id="line2d_6">
      <g>
       <use style="stroke:#000000;stroke-width:0.8;" x="352.955897" xlink:href="#m927627c5af" y="180.405"/>
      </g>
     </g>
     <g id="text_5">
      <!-- 2 -->
      <g transform="translate(349.774647 195.003437)scale(0.1 -0.1)">
       <use xlink:href="#DejaVuSans-50"/>
      </g>
     </g>
    </g>
    <g id="xtick_7">
     <g id="line2d_7">
      <g>
       <use style="stroke:#000000;stroke-width:0.8;" x="420.486346" xlink:href="#m927627c5af" y="180.405"/>
      </g>
     </g>
     <g id="text_6">
      <!-- 3 -->
      <g transform="translate(417.305096 195.003437)scale(0.1 -0.1)">
       <use xlink:href="#DejaVuSans-51"/>
      </g>
     </g>
    </g>
    <g id="xtick_8">
     <g id="line2d_8">
      <defs>
       <path d="M 0 0 
L 0 2 
" id="m6150738b5b" style="stroke:#000000;stroke-width:0.6;"/>
      </defs>
      <g>
       <use style="stroke:#000000;stroke-width:0.6;" x="28.809744" xlink:href="#m6150738b5b" y="180.405"/>
      </g>
     </g>
    </g>
    <g id="xtick_9">
     <g id="line2d_9">
      <g>
       <use style="stroke:#000000;stroke-width:0.6;" x="42.315833" xlink:href="#m6150738b5b" y="180.405"/>
      </g>
     </g>
    </g>
    <g id="xtick_10">
     <g id="line2d_10">
      <g>
       <use style="stroke:#000000;stroke-width:0.6;" x="55.821923" xlink:href="#m6150738b5b" y="180.405"/>
      </g>
     </g>
    </g>
    <g id="xtick_11">
     <g id="line2d_11">
      <g>
       <use style="stroke:#000000;stroke-width:0.6;" x="69.328013" xlink:href="#m6150738b5b" y="180.405"/>
      </g>
     </g>
    </g>
    <g id="xtick_12">
     <g id="line2d_12">
      <g>
       <use style="stroke:#000000;stroke-width:0.6;" x="96.340192" xlink:href="#m6150738b5b" y="180.405"/>
      </g>
     </g>
    </g>
    <g id="xtick_13">
     <g id="line2d_13">
      <g>
       <use style="stroke:#000000;stroke-width:0.6;" x="109.846282" xlink:href="#m6150738b5b" y="180.405"/>
      </g>
     </g>
    </g>
    <g id="xtick_14">
     <g id="line2d_14">
      <g>
       <use style="stroke:#000000;stroke-width:0.6;" x="123.352372" xlink:href="#m6150738b5b" y="180.405"/>
      </g>
     </g>
    </g>
    <g id="xtick_15">
     <g id="line2d_15">
      <g>
       <use style="stroke:#000000;stroke-width:0.6;" x="136.858462" xlink:href="#m6150738b5b" y="180.405"/>
      </g>
     </g>
    </g>
    <g id="xtick_16">
     <g id="line2d_16">
      <g>
       <use style="stroke:#000000;stroke-width:0.6;" x="163.870641" xlink:href="#m6150738b5b" y="180.405"/>
      </g>
     </g>
    </g>
    <g id="xtick_17">
     <g id="line2d_17">
      <g>
       <use style="stroke:#000000;stroke-width:0.6;" x="177.376731" xlink:href="#m6150738b5b" y="180.405"/>
      </g>
     </g>
    </g>
    <g id="xtick_18">
     <g id="line2d_18">
      <g>
       <use style="stroke:#000000;stroke-width:0.6;" x="190.882821" xlink:href="#m6150738b5b" y="180.405"/>
      </g>
     </g>
    </g>
    <g id="xtick_19">
     <g id="line2d_19">
      <g>
       <use style="stroke:#000000;stroke-width:0.6;" x="204.38891" xlink:href="#m6150738b5b" y="180.405"/>
      </g>
     </g>
    </g>
    <g id="xtick_20">
     <g id="line2d_20">
      <g>
       <use style="stroke:#000000;stroke-width:0.6;" x="231.40109" xlink:href="#m6150738b5b" y="180.405"/>
      </g>
     </g>
    </g>
    <g id="xtick_21">
     <g id="line2d_21">
      <g>
       <use style="stroke:#000000;stroke-width:0.6;" x="244.907179" xlink:href="#m6150738b5b" y="180.405"/>
      </g>
     </g>
    </g>
    <g id="xtick_22">
     <g id="line2d_22">
      <g>
       <use style="stroke:#000000;stroke-width:0.6;" x="258.413269" xlink:href="#m6150738b5b" y="180.405"/>
      </g>
     </g>
    </g>
    <g id="xtick_23">
     <g id="line2d_23">
      <g>
       <use style="stroke:#000000;stroke-width:0.6;" x="271.919359" xlink:href="#m6150738b5b" y="180.405"/>
      </g>
     </g>
    </g>
    <g id="xtick_24">
     <g id="line2d_24">
      <g>
       <use style="stroke:#000000;stroke-width:0.6;" x="298.931538" xlink:href="#m6150738b5b" y="180.405"/>
      </g>
     </g>
    </g>
    <g id="xtick_25">
     <g id="line2d_25">
      <g>
       <use style="stroke:#000000;stroke-width:0.6;" x="312.437628" xlink:href="#m6150738b5b" y="180.405"/>
      </g>
     </g>
    </g>
    <g id="xtick_26">
     <g id="line2d_26">
      <g>
       <use style="stroke:#000000;stroke-width:0.6;" x="325.943718" xlink:href="#m6150738b5b" y="180.405"/>
      </g>
     </g>
    </g>
    <g id="xtick_27">
     <g id="line2d_27">
      <g>
       <use style="stroke:#000000;stroke-width:0.6;" x="339.449808" xlink:href="#m6150738b5b" y="180.405"/>
      </g>
     </g>
    </g>
    <g id="xtick_28">
     <g id="line2d_28">
      <g>
       <use style="stroke:#000000;stroke-width:0.6;" x="366.461987" xlink:href="#m6150738b5b" y="180.405"/>
      </g>
     </g>
    </g>
    <g id="xtick_29">
     <g id="line2d_29">
      <g>
       <use style="stroke:#000000;stroke-width:0.6;" x="379.968077" xlink:href="#m6150738b5b" y="180.405"/>
      </g>
     </g>
    </g>
    <g id="xtick_30">
     <g id="line2d_30">
      <g>
       <use style="stroke:#000000;stroke-width:0.6;" x="393.474167" xlink:href="#m6150738b5b" y="180.405"/>
      </g>
     </g>
    </g>
    <g id="xtick_31">
     <g id="line2d_31">
      <g>
       <use style="stroke:#000000;stroke-width:0.6;" x="406.980256" xlink:href="#m6150738b5b" y="180.405"/>
      </g>
     </g>
    </g>
    <g id="text_7">
     <!-- $x$ -->
     <defs>
      <path d="M 7.8125 2.875 
Q 9.578125 1.515625 12.796875 1.515625 
Q 15.921875 1.515625 18.3125 4.515625 
Q 20.703125 7.515625 21.578125 11.078125 
L 26.125 28.8125 
Q 27.203125 33.640625 27.203125 35.40625 
Q 27.203125 37.890625 25.8125 39.75 
Q 24.421875 41.609375 21.921875 41.609375 
Q 18.75 41.609375 15.96875 39.625 
Q 13.1875 37.640625 11.28125 34.59375 
Q 9.375 31.546875 8.59375 28.421875 
Q 8.40625 27.78125 7.8125 27.78125 
L 6.59375 27.78125 
Q 5.8125 27.78125 5.8125 28.71875 
L 5.8125 29 
Q 6.78125 32.71875 9.125 36.25 
Q 11.46875 39.796875 14.859375 41.984375 
Q 18.265625 44.1875 22.125 44.1875 
Q 25.78125 44.1875 28.734375 42.234375 
Q 31.6875 40.28125 32.90625 36.921875 
Q 34.625 39.984375 37.28125 42.078125 
Q 39.9375 44.1875 43.109375 44.1875 
Q 45.265625 44.1875 47.5 43.421875 
Q 49.75 42.671875 51.171875 41.109375 
Q 52.59375 39.546875 52.59375 37.203125 
Q 52.59375 34.671875 50.953125 32.828125 
Q 49.3125 31 46.78125 31 
Q 45.171875 31 44.09375 32.03125 
Q 43.015625 33.0625 43.015625 34.625 
Q 43.015625 36.71875 44.453125 38.296875 
Q 45.90625 39.890625 47.90625 40.1875 
Q 46.09375 41.609375 42.921875 41.609375 
Q 39.703125 41.609375 37.328125 38.625 
Q 34.96875 35.640625 33.984375 31.984375 
L 29.59375 14.3125 
Q 28.515625 10.296875 28.515625 7.71875 
Q 28.515625 5.171875 29.953125 3.34375 
Q 31.390625 1.515625 33.796875 1.515625 
Q 38.484375 1.515625 42.15625 5.640625 
Q 45.84375 9.765625 47.015625 14.703125 
Q 47.21875 15.28125 47.796875 15.28125 
L 49.03125 15.28125 
Q 49.421875 15.28125 49.65625 15.015625 
Q 49.90625 14.75 49.90625 14.40625 
Q 49.90625 14.3125 49.8125 14.109375 
Q 48.390625 8.15625 43.84375 3.515625 
Q 39.3125 -1.125 33.59375 -1.125 
Q 29.9375 -1.125 26.984375 0.84375 
Q 24.03125 2.828125 22.796875 6.203125 
Q 21.234375 3.265625 18.46875 1.0625 
Q 15.71875 -1.125 12.59375 -1.125 
Q 10.453125 -1.125 8.171875 -0.359375 
Q 5.90625 0.390625 4.484375 1.953125 
Q 3.078125 3.515625 3.078125 5.90625 
Q 3.078125 8.25 4.703125 10.171875 
Q 6.34375 12.109375 8.796875 12.109375 
Q 10.453125 12.109375 11.578125 11.109375 
Q 12.703125 10.109375 12.703125 8.5 
Q 12.703125 6.390625 11.296875 4.828125 
Q 9.90625 3.265625 7.8125 2.875 
z
" id="Cmmi10-120"/>
     </defs>
     <g transform="translate(436.59 180.405)scale(0.16 -0.16)">
      <use transform="translate(0 0.8125)" xlink:href="#Cmmi10-120"/>
     </g>
    </g>
   </g>
   <g id="matplotlib.axis_2">
    <g id="ytick_1">
     <g id="line2d_32">
      <defs>
       <path d="M 0 0 
L -3.5 0 
" id="mc8a48a3ce4" style="stroke:#000000;stroke-width:0.8;"/>
      </defs>
      <g>
       <use style="stroke:#000000;stroke-width:0.8;" x="217.895" xlink:href="#mc8a48a3ce4" y="293.316011"/>
      </g>
     </g>
     <g id="text_8">
      <!-- -4 -->
      <defs>
       <path d="M 37.796875 64.3125 
L 12.890625 25.390625 
L 37.796875 25.390625 
z
M 35.203125 72.90625 
L 47.609375 72.90625 
L 47.609375 25.390625 
L 58.015625 25.390625 
L 58.015625 17.1875 
L 47.609375 17.1875 
L 47.609375 0 
L 37.796875 0 
L 37.796875 17.1875 
L 4.890625 17.1875 
L 4.890625 26.703125 
z
" id="DejaVuSans-52"/>
      </defs>
      <g transform="translate(200.924687 297.115229)scale(0.1 -0.1)">
       <use xlink:href="#DejaVuSans-45"/>
       <use x="36.083984" xlink:href="#DejaVuSans-52"/>
      </g>
     </g>
    </g>
    <g id="ytick_2">
     <g id="line2d_33">
      <g>
       <use style="stroke:#000000;stroke-width:0.8;" x="217.895" xlink:href="#mc8a48a3ce4" y="236.860505"/>
      </g>
     </g>
     <g id="text_9">
      <!-- -2 -->
      <g transform="translate(200.924687 240.659724)scale(0.1 -0.1)">
       <use xlink:href="#DejaVuSans-45"/>
       <use x="36.083984" xlink:href="#DejaVuSans-50"/>
      </g>
     </g>
    </g>
    <g id="ytick_3">
     <g id="line2d_34">
      <g>
       <use style="stroke:#000000;stroke-width:0.8;" x="217.895" xlink:href="#mc8a48a3ce4" y="180.405"/>
      </g>
     </g>
    </g>
    <g id="ytick_4">
     <g id="line2d_35">
      <g>
       <use style="stroke:#000000;stroke-width:0.8;" x="217.895" xlink:href="#mc8a48a3ce4" y="123.949495"/>
      </g>
     </g>
     <g id="text_10">
      <!-- 2 -->
      <g transform="translate(204.5325 127.748713)scale(0.1 -0.1)">
       <use xlink:href="#DejaVuSans-50"/>
      </g>
     </g>
    </g>
    <g id="ytick_5">
     <g id="line2d_36">
      <g>
       <use style="stroke:#000000;stroke-width:0.8;" x="217.895" xlink:href="#mc8a48a3ce4" y="67.493989"/>
      </g>
     </g>
     <g id="text_11">
      <!-- 4 -->
      <g transform="translate(204.5325 71.293208)scale(0.1 -0.1)">
       <use xlink:href="#DejaVuSans-52"/>
      </g>
     </g>
    </g>
    <g id="ytick_6">
     <g id="line2d_37">
      <defs>
       <path d="M 0 0 
L -2 0 
" id="mf319d04fe9" style="stroke:#000000;stroke-width:0.6;"/>
      </defs>
      <g>
       <use style="stroke:#000000;stroke-width:0.6;" x="217.895" xlink:href="#mf319d04fe9" y="321.543763"/>
      </g>
     </g>
    </g>
    <g id="ytick_7">
     <g id="line2d_38">
      <g>
       <use style="stroke:#000000;stroke-width:0.6;" x="217.895" xlink:href="#mf319d04fe9" y="307.429887"/>
      </g>
     </g>
    </g>
    <g id="ytick_8">
     <g id="line2d_39">
      <g>
       <use style="stroke:#000000;stroke-width:0.6;" x="217.895" xlink:href="#mf319d04fe9" y="279.202134"/>
      </g>
     </g>
    </g>
    <g id="ytick_9">
     <g id="line2d_40">
      <g>
       <use style="stroke:#000000;stroke-width:0.6;" x="217.895" xlink:href="#mf319d04fe9" y="265.088258"/>
      </g>
     </g>
    </g>
    <g id="ytick_10">
     <g id="line2d_41">
      <g>
       <use style="stroke:#000000;stroke-width:0.6;" x="217.895" xlink:href="#mf319d04fe9" y="250.974382"/>
      </g>
     </g>
    </g>
    <g id="ytick_11">
     <g id="line2d_42">
      <g>
       <use style="stroke:#000000;stroke-width:0.6;" x="217.895" xlink:href="#mf319d04fe9" y="222.746629"/>
      </g>
     </g>
    </g>
    <g id="ytick_12">
     <g id="line2d_43">
      <g>
       <use style="stroke:#000000;stroke-width:0.6;" x="217.895" xlink:href="#mf319d04fe9" y="208.632753"/>
      </g>
     </g>
    </g>
    <g id="ytick_13">
     <g id="line2d_44">
      <g>
       <use style="stroke:#000000;stroke-width:0.6;" x="217.895" xlink:href="#mf319d04fe9" y="194.518876"/>
      </g>
     </g>
    </g>
    <g id="ytick_14">
     <g id="line2d_45">
      <g>
       <use style="stroke:#000000;stroke-width:0.6;" x="217.895" xlink:href="#mf319d04fe9" y="166.291124"/>
      </g>
     </g>
    </g>
    <g id="ytick_15">
     <g id="line2d_46">
      <g>
       <use style="stroke:#000000;stroke-width:0.6;" x="217.895" xlink:href="#mf319d04fe9" y="152.177247"/>
      </g>
     </g>
    </g>
    <g id="ytick_16">
     <g id="line2d_47">
      <g>
       <use style="stroke:#000000;stroke-width:0.6;" x="217.895" xlink:href="#mf319d04fe9" y="138.063371"/>
      </g>
     </g>
    </g>
    <g id="ytick_17">
     <g id="line2d_48">
      <g>
       <use style="stroke:#000000;stroke-width:0.6;" x="217.895" xlink:href="#mf319d04fe9" y="109.835618"/>
      </g>
     </g>
    </g>
    <g id="ytick_18">
     <g id="line2d_49">
      <g>
       <use style="stroke:#000000;stroke-width:0.6;" x="217.895" xlink:href="#mf319d04fe9" y="95.721742"/>
      </g>
     </g>
    </g>
    <g id="ytick_19">
     <g id="line2d_50">
      <g>
       <use style="stroke:#000000;stroke-width:0.6;" x="217.895" xlink:href="#mf319d04fe9" y="81.607866"/>
      </g>
     </g>
    </g>
    <g id="ytick_20">
     <g id="line2d_51">
      <g>
       <use style="stroke:#000000;stroke-width:0.6;" x="217.895" xlink:href="#mf319d04fe9" y="53.380113"/>
      </g>
     </g>
    </g>
    <g id="ytick_21">
     <g id="line2d_52">
      <g>
       <use style="stroke:#000000;stroke-width:0.6;" x="217.895" xlink:href="#mf319d04fe9" y="39.266237"/>
      </g>
     </g>
    </g>
    <g id="text_12">
     <!-- $y$ -->
     <defs>
      <path d="M 8.40625 -14.3125 
Q 10.5 -17.921875 15.71875 -17.921875 
Q 20.453125 -17.921875 23.921875 -14.59375 
Q 27.390625 -11.28125 29.515625 -6.5625 
Q 31.640625 -1.859375 32.8125 3.078125 
Q 28.375 -1.125 23.1875 -1.125 
Q 19.234375 -1.125 16.453125 0.234375 
Q 13.671875 1.609375 12.125 4.3125 
Q 10.59375 7.03125 10.59375 10.890625 
Q 10.59375 14.15625 11.46875 17.59375 
Q 12.359375 21.046875 13.9375 25.265625 
Q 15.53125 29.5 16.703125 32.625 
Q 18.015625 36.28125 18.015625 38.625 
Q 18.015625 41.609375 15.828125 41.609375 
Q 11.859375 41.609375 9.296875 37.53125 
Q 6.734375 33.453125 5.515625 28.421875 
Q 5.328125 27.78125 4.6875 27.78125 
L 3.515625 27.78125 
Q 2.6875 27.78125 2.6875 28.71875 
L 2.6875 29 
Q 4.296875 34.96875 7.609375 39.578125 
Q 10.9375 44.1875 16.015625 44.1875 
Q 19.578125 44.1875 22.046875 41.84375 
Q 24.515625 39.5 24.515625 35.890625 
Q 24.515625 34.03125 23.6875 31.984375 
Q 23.25 30.765625 21.6875 26.65625 
Q 20.125 22.5625 19.28125 19.875 
Q 18.453125 17.1875 17.921875 14.59375 
Q 17.390625 12.015625 17.390625 9.421875 
Q 17.390625 6.109375 18.796875 3.8125 
Q 20.21875 1.515625 23.296875 1.515625 
Q 29.5 1.515625 34.421875 9.078125 
L 42 39.890625 
Q 42.328125 41.21875 43.546875 42.15625 
Q 44.78125 43.109375 46.1875 43.109375 
Q 47.40625 43.109375 48.3125 42.328125 
Q 49.21875 41.546875 49.21875 40.28125 
Q 49.21875 39.703125 49.125 39.5 
L 39.203125 -0.296875 
Q 37.890625 -5.421875 34.375 -10.109375 
Q 30.859375 -14.796875 25.90625 -17.65625 
Q 20.953125 -20.515625 15.578125 -20.515625 
Q 12.984375 -20.515625 10.4375 -19.5 
Q 7.90625 -18.5 6.34375 -16.5 
Q 4.78125 -14.5 4.78125 -11.8125 
Q 4.78125 -9.078125 6.390625 -7.078125 
Q 8.015625 -5.078125 10.6875 -5.078125 
Q 12.3125 -5.078125 13.40625 -6.078125 
Q 14.5 -7.078125 14.5 -8.6875 
Q 14.5 -10.984375 12.78125 -12.6875 
Q 11.078125 -14.40625 8.796875 -14.40625 
Q 8.6875 -14.359375 8.59375 -14.328125 
Q 8.5 -14.3125 8.40625 -14.3125 
z
" id="Cmmi10-121"/>
     </defs>
     <g transform="translate(213.895 19.325)scale(0.16 -0.16)">
      <use transform="translate(0 0.8125)" xlink:href="#Cmmi10-121"/>
     </g>
    </g>
   </g>
   <g id="line2d_53">
    <path clip-path="url(#p67a9a39e5d)" d="M 44.99605 338.325 
L 48.828094 328.054492 
L 53.640286 315.802195 
L 58.059405 305.165367 
L 62.422971 295.223784 
L 66.93417 285.516194 
L 70.670616 277.902926 
L 75.293548 269.003829 
L 79.465834 261.452375 
L 83.901661 253.908119 
L 88.013218 247.347335 
L 91.727231 241.767269 
L 95.765355 236.061953 
L 100.021058 230.444109 
L 103.74438 225.850508 
L 107.984528 220.972044 
L 112.589223 216.084005 
L 116.393297 212.355388 
L 121.249001 207.985858 
L 124.709945 205.127646 
L 129.121608 201.779924 
L 133.446787 198.805412 
L 138.365779 195.773672 
L 142.914812 193.284402 
L 146.53789 191.506148 
L 150.59694 189.717446 
L 155.889255 187.688698 
L 160.428779 186.203212 
L 165.874139 184.706191 
L 171.229222 183.509929 
L 176.739743 182.534767 
L 182.700453 181.736933 
L 188.970387 181.144365 
L 195.160779 180.764002 
L 202.653006 180.513189 
L 214.023533 180.406773 
L 232.3849 180.312049 
L 240.894467 180.033286 
L 247.954864 179.575116 
L 252.607441 179.127057 
L 258.587528 178.346266 
L 263.095854 177.583396 
L 268.409234 176.466803 
L 273.159612 175.247995 
L 278.064414 173.749457 
L 282.883238 172.018892 
L 287.811847 169.962568 
L 291.657334 168.143035 
L 295.638332 166.048599 
L 300.359985 163.270758 
L 305.01973 160.198994 
L 309.453944 156.954156 
L 313.027283 154.099904 
L 316.851265 150.798571 
L 320.318788 147.575925 
L 324.101599 143.802508 
L 328.298947 139.289087 
L 332.726593 134.141306 
L 336.779479 129.067866 
L 341.618284 122.540733 
L 346.239027 115.812346 
L 350.080215 109.837491 
L 354.233164 102.975141 
L 358.428917 95.604269 
L 362.461641 88.092521 
L 367.132915 78.851788 
L 371.722515 69.191319 
L 375.152792 61.584149 
L 379.47509 51.514864 
L 383.126813 42.577097 
L 387.424319 31.540688 
L 391.500647 20.5421 
L 396.417578 6.570653 
L 398.971534 -1 
L 398.971534 -1 
" style="fill:none;stroke:#0000ff;stroke-linecap:square;"/>
   </g>
   <g id="line2d_54">
    <path clip-path="url(#p67a9a39e5d)" d="M 35.254147 338.325 
L 39.816497 324.717579 
L 44.847773 310.502457 
L 49.747376 297.431331 
L 54.624933 285.15404 
L 59.336052 273.971952 
L 63.616287 264.372418 
L 67.376279 256.367645 
L 71.550872 247.936787 
L 75.141592 241.059611 
L 79.578204 233.027411 
L 83.514432 226.319463 
L 87.666232 219.657537 
L 92.016242 213.118797 
L 96.188855 207.257213 
L 100.230339 201.9503 
L 103.862451 197.481883 
L 107.984291 192.744553 
L 111.865155 188.597296 
L 116.267775 184.246316 
L 120.786062 180.156348 
L 124.526206 177.046423 
L 128.321727 174.135181 
L 132.53548 171.179804 
L 137.22076 168.219331 
L 141.129858 165.998529 
L 145.161414 163.93329 
L 149.478587 161.961711 
L 154.285972 160.040684 
L 158.341673 158.630434 
L 162.987835 157.234832 
L 166.453658 156.336287 
L 171.011575 155.325823 
L 175.45165 154.513313 
L 181.623891 153.635184 
L 186.467779 153.125609 
L 194.339652 152.576571 
L 200.492415 152.338274 
L 210.47526 152.189728 
L 235.482873 152.011022 
L 242.381661 151.728662 
L 249.881301 151.177367 
L 255.629375 150.535646 
L 261.42938 149.656361 
L 266.157256 148.742625 
L 269.907514 147.878126 
L 275.257166 146.410476 
L 279.91505 144.888507 
L 284.597036 143.110043 
L 289.694772 140.868218 
L 293.6835 138.876805 
L 297.945562 136.50435 
L 302.593896 133.612485 
L 306.993934 130.566307 
L 311.474869 127.139028 
L 315.11016 124.106232 
L 319.169304 120.441119 
L 323.377333 116.318482 
L 328.316906 111.041267 
L 333.026511 105.55011 
L 336.89368 100.692027 
L 340.430381 95.963743 
L 344.801083 89.731415 
L 348.929718 83.436337 
L 353.498968 75.991569 
L 357.387858 69.247173 
L 361.699158 61.31772 
L 366.567493 51.773941 
L 370.603527 43.37296 
L 374.969016 33.772481 
L 379.388573 23.494042 
L 383.705595 12.895894 
L 388.143942 1.409166 
L 389.044888 -1 
L 389.044888 -1 
" style="fill:none;stroke:#ff0000;stroke-linecap:square;"/>
   </g>
   <g id="line2d_55">
    <path clip-path="url(#p67a9a39e5d)" d="M 26.451964 338.325 
L 29.873134 327.03607 
L 35.195279 310.273923 
L 39.143575 298.453211 
L 43.404237 286.270031 
L 47.782868 274.354401 
L 52.000762 263.441734 
L 55.927512 253.76892 
L 60.08936 244.016507 
L 64.481766 234.267048 
L 68.857512 225.094097 
L 73.65746 215.632968 
L 77.302664 208.856022 
L 81.598288 201.30875 
L 86.170739 193.781329 
L 89.521612 188.586489 
L 93.714783 182.457243 
L 98.052189 176.538154 
L 102.284307 171.161251 
L 106.351098 166.352208 
L 109.600833 162.753034 
L 114.518975 157.702747 
L 118.585557 153.874055 
L 122.044575 150.854822 
L 127.052562 146.854083 
L 131.518338 143.63948 
L 135.875865 140.807326 
L 139.954272 138.41553 
L 143.508772 136.52524 
L 148.620097 134.106927 
L 153.519728 132.100541 
L 159.225102 130.119736 
L 164.650812 128.561319 
L 169.162284 127.485541 
L 175.123381 126.340184 
L 180.919117 125.49408 
L 186.583665 124.887404 
L 194.47825 124.341811 
L 201.301594 124.089087 
L 212.269295 123.954935 
L 233.071774 123.842689 
L 240.677981 123.588178 
L 248.571509 123.067484 
L 254.997556 122.388981 
L 260.524 121.58264 
L 266.030686 120.541824 
L 270.877374 119.405369 
L 275.413203 118.135534 
L 280.888816 116.312018 
L 285.465169 114.523631 
L 290.600259 112.207183 
L 295.184294 109.843161 
L 299.179507 107.540595 
L 303.07139 105.06898 
L 307.713833 101.810476 
L 311.797822 98.651152 
L 315.007477 95.967335 
L 318.648394 92.700562 
L 322.369675 89.108605 
L 327.296245 83.943697 
L 330.980307 79.764512 
L 335.041773 74.830764 
L 338.366503 70.52885 
L 343.074711 64.017604 
L 346.579466 58.841471 
L 350.846606 52.147435 
L 355.324646 44.645069 
L 359.606419 36.999276 
L 364.262476 28.144116 
L 368.623811 19.322207 
L 372.942073 10.069652 
L 377.81018 -1 
L 377.81018 -1 
" style="fill:none;stroke:#008000;stroke-linecap:square;"/>
   </g>
   <g id="line2d_56">
    <path clip-path="url(#p67a9a39e5d)" d="M 55.980589 338.325 
L 60.530793 327.694984 
L 65.34625 317.095875 
L 70.424978 306.619509 
L 75.19235 297.420341 
L 79.704866 289.261007 
L 83.345359 283.05517 
L 87.603296 276.210924 
L 91.778882 269.919691 
L 96.433291 263.381515 
L 100.729487 257.775059 
L 104.791321 252.839274 
L 109.444784 247.604278 
L 113.264431 243.62984 
L 117.845656 239.231164 
L 122.664152 235.019696 
L 127.191221 231.432619 
L 131.479362 228.349405 
L 135.933541 225.455045 
L 140.517726 222.787314 
L 144.958366 220.487527 
L 149.458785 218.425715 
L 153.91205 216.635681 
L 157.617021 215.324387 
L 162.737458 213.759842 
L 167.853204 212.461483 
L 174.114841 211.196576 
L 180.583473 210.219783 
L 186.178877 209.60751 
L 194.057536 209.046596 
L 200.684278 208.788512 
L 211.618244 208.640308 
L 234.953713 208.481084 
L 243.441824 208.123343 
L 250.270031 207.595972 
L 256.41656 206.886256 
L 261.898675 206.02946 
L 267.57305 204.886908 
L 272.646547 203.618048 
L 276.928747 202.347002 
L 281.375611 200.816845 
L 285.754722 199.085193 
L 289.4119 197.456861 
L 294.741691 194.767377 
L 297.636136 193.140899 
L 302.106117 190.386889 
L 306.788943 187.170631 
L 311.588069 183.50356 
L 315.905097 179.867474 
L 320.031136 176.079498 
L 324.410946 171.709493 
L 328.438411 167.360827 
L 332.623819 162.493165 
L 336.746006 157.33897 
L 340.389233 152.475859 
L 344.682687 146.361532 
L 348.714845 140.229456 
L 352.937002 133.390335 
L 357.753841 125.04822 
L 362.524777 116.199276 
L 366.595055 108.173595 
L 370.700028 99.622065 
L 375.546763 88.916633 
L 380.214749 77.964456 
L 384.986988 66.097261 
L 388.752085 56.243226 
L 393.148649 44.173863 
L 397.503938 31.605561 
L 402.348344 16.891422 
L 406.668145 3.102017 
L 407.914763 -1 
L 407.914763 -1 
" style="fill:none;stroke:#ff00ff;stroke-linecap:square;"/>
   </g>
   <g id="line2d_57">
    <path clip-path="url(#p67a9a39e5d)" d="M 68.702065 338.325 
L 72.489298 330.78967 
L 77.171581 322.004746 
L 82.093105 313.380271 
L 86.691223 305.867824 
L 91.154348 299.062449 
L 95.005552 293.562707 
L 99.005695 288.203891 
L 103.622706 282.45149 
L 108.076215 277.326111 
L 112.15898 272.978616 
L 116.980246 268.259818 
L 120.940487 264.70634 
L 124.503193 261.748074 
L 128.231263 258.885035 
L 132.792585 255.69187 
L 136.568336 253.29495 
L 139.743604 251.44416 
L 144.396608 248.991311 
L 148.931427 246.881605 
L 154.304993 244.71689 
L 158.241907 243.346178 
L 163.662589 241.733915 
L 169.421949 240.340329 
L 175.159234 239.245188 
L 180.225279 238.493683 
L 185.378861 237.910901 
L 192.874768 237.339058 
L 201.406537 236.997466 
L 209.914383 236.876035 
L 236.10959 236.67587 
L 243.758963 236.331888 
L 250.913957 235.760623 
L 256.725339 235.071673 
L 263.749403 233.914732 
L 268.761904 232.839246 
L 273.731715 231.54168 
L 278.49354 230.061543 
L 283.186553 228.356429 
L 287.944234 226.358643 
L 292.266401 224.292278 
L 296.812125 221.843964 
L 301.376124 219.085039 
L 305.955977 215.99607 
L 309.591027 213.304172 
L 313.269467 210.353997 
L 317.879468 206.32158 
L 322.518623 201.870387 
L 326.770887 197.428283 
L 330.200121 193.583737 
L 334.530091 188.382601 
L 338.487959 183.278125 
L 342.186414 178.195444 
L 346.700188 171.569071 
L 350.070051 166.309273 
L 354.920027 158.254481 
L 358.928234 151.152669 
L 362.728763 144.035372 
L 366.729347 136.128927 
L 370.466618 128.348598 
L 375.196059 117.941552 
L 379.949118 106.832664 
L 384.038036 96.739719 
L 388.028381 86.399229 
L 392.30726 74.758955 
L 396.649733 62.347101 
L 400.975561 49.368461 
L 405.599901 34.799282 
L 410.279205 19.307855 
L 415.27824 1.904276 
L 416.087971 -1 
L 416.087971 -1 
" style="fill:none;stroke:#000000;stroke-linecap:square;"/>
   </g>
   <g id="patch_3">
    <path d="M 217.895 330.125 
L 217.895 30.685 
" style="fill:none;stroke:#000000;stroke-linecap:square;stroke-linejoin:miter;stroke-width:0.8;"/>
   </g>
   <g id="patch_4">
    <path d="M 7.2 180.405 
L 428.59 180.405 
" style="fill:none;stroke:#000000;stroke-linecap:square;stroke-linejoin:miter;stroke-width:0.8;"/>
   </g>
   <g id="text_13">
    <!-- $C=0$ -->
    <defs>
     <path d="M 14.59375 21.578125 
Q 14.59375 15.578125 16.90625 11.015625 
Q 19.234375 6.453125 23.65625 3.875 
Q 28.078125 1.3125 34.078125 1.3125 
Q 40.375 1.3125 46.203125 4.53125 
Q 52.046875 7.765625 56.171875 13.15625 
Q 60.296875 18.5625 61.8125 24.609375 
Q 62.015625 25.203125 62.59375 25.203125 
L 63.8125 25.203125 
Q 64.203125 25.203125 64.453125 24.921875 
Q 64.703125 24.65625 64.703125 24.3125 
Q 64.703125 24.21875 64.59375 24.03125 
Q 62.890625 17.09375 57.984375 11.015625 
Q 53.078125 4.9375 46.234375 1.359375 
Q 39.40625 -2.203125 32.171875 -2.203125 
Q 24.359375 -2.203125 18.15625 1.3125 
Q 11.96875 4.828125 8.515625 11.078125 
Q 5.078125 17.328125 5.078125 25.203125 
Q 5.078125 33.59375 8.828125 41.8125 
Q 12.59375 50.046875 18.9375 56.46875 
Q 25.296875 62.890625 33.421875 66.703125 
Q 41.546875 70.515625 49.90625 70.515625 
Q 53.21875 70.515625 56.25 69.5 
Q 59.28125 68.5 61.859375 66.453125 
Q 64.453125 64.40625 66.109375 61.71875 
L 74.03125 70.3125 
Q 74.03125 70.515625 74.515625 70.515625 
L 75.09375 70.515625 
Q 75.484375 70.515625 75.734375 70.171875 
Q 75.984375 69.828125 75.984375 69.484375 
L 69.1875 42.484375 
Q 69.1875 41.796875 68.40625 41.796875 
L 66.609375 41.796875 
Q 65.828125 41.796875 65.828125 42.921875 
Q 66.21875 45.125 66.21875 48.1875 
Q 66.21875 53.078125 64.546875 57.390625 
Q 62.890625 61.71875 59.390625 64.359375 
Q 55.90625 67 50.875 67 
Q 42.71875 67 35.9375 62.890625 
Q 29.15625 58.796875 24.4375 52.125 
Q 19.734375 45.453125 17.15625 37.328125 
Q 14.59375 29.203125 14.59375 21.578125 
z
" id="Cmmi10-67"/>
     <path d="M 7.515625 13.28125 
Q 6.6875 13.28125 6.140625 13.90625 
Q 5.609375 14.546875 5.609375 15.28125 
Q 5.609375 16.109375 6.140625 16.6875 
Q 6.6875 17.28125 7.515625 17.28125 
L 70.3125 17.28125 
Q 71.046875 17.28125 71.578125 16.6875 
Q 72.125 16.109375 72.125 15.28125 
Q 72.125 14.546875 71.578125 13.90625 
Q 71.046875 13.28125 70.3125 13.28125 
z
M 7.515625 32.71875 
Q 6.6875 32.71875 6.140625 33.296875 
Q 5.609375 33.890625 5.609375 34.71875 
Q 5.609375 35.453125 6.140625 36.078125 
Q 6.6875 36.71875 7.515625 36.71875 
L 70.3125 36.71875 
Q 71.046875 36.71875 71.578125 36.078125 
Q 72.125 35.453125 72.125 34.71875 
Q 72.125 33.890625 71.578125 33.296875 
Q 71.046875 32.71875 70.3125 32.71875 
z
" id="Cmr10-61"/>
     <path d="M 25 -2.203125 
Q 12.75 -2.203125 8.328125 7.875 
Q 3.90625 17.96875 3.90625 31.890625 
Q 3.90625 40.578125 5.484375 48.234375 
Q 7.078125 55.90625 11.78125 61.25 
Q 16.5 66.609375 25 66.609375 
Q 31.59375 66.609375 35.78125 63.375 
Q 39.984375 60.15625 42.1875 55.046875 
Q 44.390625 49.953125 45.1875 44.109375 
Q 46 38.28125 46 31.890625 
Q 46 23.296875 44.40625 15.796875 
Q 42.828125 8.296875 38.1875 3.046875 
Q 33.546875 -2.203125 25 -2.203125 
z
M 25 0.390625 
Q 30.5625 0.390625 33.296875 6.09375 
Q 36.03125 11.8125 36.671875 18.75 
Q 37.3125 25.6875 37.3125 33.5 
Q 37.3125 41.015625 36.671875 47.359375 
Q 36.03125 53.71875 33.3125 58.859375 
Q 30.609375 64.015625 25 64.015625 
Q 19.34375 64.015625 16.609375 58.828125 
Q 13.875 53.65625 13.234375 47.328125 
Q 12.59375 41.015625 12.59375 33.5 
Q 12.59375 27.9375 12.859375 23 
Q 13.140625 18.0625 14.3125 12.8125 
Q 15.484375 7.5625 18.09375 3.96875 
Q 20.703125 0.390625 25 0.390625 
z
" id="Cmr10-48"/>
    </defs>
    <g style="fill:#0000ff;" transform="translate(218.327612 174.858874)scale(0.14 -0.14)">
     <use transform="translate(0 0.484375)" xlink:href="#Cmmi10-67"/>
     <use transform="translate(88.945312 0.484375)" xlink:href="#Cmr10-61"/>
     <use transform="translate(184.189453 0.484375)" xlink:href="#Cmr10-48"/>
    </g>
   </g>
   <g id="text_14">
    <!-- $C=1$ -->
    <defs>
     <path d="M 9.28125 0 
L 9.28125 3.515625 
Q 21.78125 3.515625 21.78125 6.6875 
L 21.78125 59.1875 
Q 16.609375 56.6875 8.6875 56.6875 
L 8.6875 60.203125 
Q 20.953125 60.203125 27.203125 66.609375 
L 28.609375 66.609375 
Q 28.953125 66.609375 29.265625 66.328125 
Q 29.59375 66.0625 29.59375 65.71875 
L 29.59375 6.6875 
Q 29.59375 3.515625 42.09375 3.515625 
L 42.09375 0 
z
" id="Cmr10-49"/>
    </defs>
    <g style="fill:#0000ff;" transform="translate(167.679776 146.631121)scale(0.14 -0.14)">
     <use transform="translate(0 0.484375)" xlink:href="#Cmmi10-67"/>
     <use transform="translate(88.945312 0.484375)" xlink:href="#Cmr10-61"/>
     <use transform="translate(184.189453 0.484375)" xlink:href="#Cmr10-49"/>
    </g>
   </g>
   <g id="text_15">
    <!-- $C=2$ -->
    <defs>
     <path d="M 4.984375 0 
L 4.984375 2.6875 
Q 4.984375 2.9375 5.171875 3.21875 
L 20.703125 20.40625 
Q 24.21875 24.21875 26.40625 26.796875 
Q 28.609375 29.390625 30.75 32.765625 
Q 32.90625 36.140625 34.15625 39.625 
Q 35.40625 43.109375 35.40625 47.015625 
Q 35.40625 51.125 33.890625 54.859375 
Q 32.375 58.59375 29.375 60.84375 
Q 26.375 63.09375 22.125 63.09375 
Q 17.78125 63.09375 14.3125 60.46875 
Q 10.84375 57.859375 9.421875 53.71875 
Q 9.8125 53.8125 10.5 53.8125 
Q 12.75 53.8125 14.328125 52.296875 
Q 15.921875 50.78125 15.921875 48.390625 
Q 15.921875 46.09375 14.328125 44.5 
Q 12.75 42.921875 10.5 42.921875 
Q 8.15625 42.921875 6.5625 44.546875 
Q 4.984375 46.1875 4.984375 48.390625 
Q 4.984375 52.15625 6.390625 55.4375 
Q 7.8125 58.734375 10.46875 61.296875 
Q 13.140625 63.875 16.484375 65.234375 
Q 19.828125 66.609375 23.578125 66.609375 
Q 29.296875 66.609375 34.21875 64.1875 
Q 39.15625 61.765625 42.03125 57.34375 
Q 44.921875 52.9375 44.921875 47.015625 
Q 44.921875 42.671875 43.015625 38.765625 
Q 41.109375 34.859375 38.125 31.65625 
Q 35.15625 28.46875 30.515625 24.40625 
Q 25.875 20.359375 24.421875 19 
L 13.09375 8.109375 
L 22.703125 8.109375 
Q 29.78125 8.109375 34.546875 8.21875 
Q 39.3125 8.34375 39.59375 8.59375 
Q 40.765625 9.859375 42 17.828125 
L 44.921875 17.828125 
L 42.09375 0 
z
" id="Cmr10-50"/>
    </defs>
    <g style="fill:#0000ff;" transform="translate(106.902372 137.221871)scale(0.14 -0.14)">
     <use transform="translate(0 0.484375)" xlink:href="#Cmmi10-67"/>
     <use transform="translate(88.945312 0.484375)" xlink:href="#Cmr10-61"/>
     <use transform="translate(184.189453 0.484375)" xlink:href="#Cmr10-50"/>
    </g>
   </g>
   <g id="text_16">
    <!-- $C=-1$ -->
    <defs>
     <path d="M 10.203125 23 
Q 9.375 23 8.828125 23.625 
Q 8.296875 24.265625 8.296875 25 
Q 8.296875 25.734375 8.828125 26.359375 
Q 9.375 27 10.203125 27 
L 67.578125 27 
Q 68.359375 27 68.875 26.359375 
Q 69.390625 25.734375 69.390625 25 
Q 69.390625 24.265625 68.875 23.625 
Q 68.359375 23 67.578125 23 
z
" id="Cmsy10-161"/>
    </defs>
    <g style="fill:#0000ff;" transform="translate(227.370224 199.972165)scale(0.14 -0.14)">
     <use transform="translate(0 0.484375)" xlink:href="#Cmmi10-67"/>
     <use transform="translate(88.945312 0.484375)" xlink:href="#Cmr10-61"/>
     <use transform="translate(201.748047 0.484375)" xlink:href="#Cmsy10-161"/>
     <use transform="translate(296.992188 0.484375)" xlink:href="#Cmr10-49"/>
    </g>
   </g>
   <g id="text_17">
    <!-- $C=-2$ -->
    <g style="fill:#0000ff;" transform="translate(220.617179 232.656374)scale(0.14 -0.14)">
     <use transform="translate(0 0.484375)" xlink:href="#Cmmi10-67"/>
     <use transform="translate(88.945312 0.484375)" xlink:href="#Cmr10-61"/>
     <use transform="translate(201.748047 0.484375)" xlink:href="#Cmsy10-161"/>
     <use transform="translate(296.992188 0.484375)" xlink:href="#Cmr10-50"/>
    </g>
   </g>
  </g>
 </g>
 <defs>
  <clipPath id="p67a9a39e5d">
   <rect height="299.44" width="421.39" x="7.2" y="30.685"/>
  </clipPath>
 </defs>
</svg>
