<?xml version="1.0" encoding="utf-8" standalone="no"?>
<!DOCTYPE svg PUBLIC "-//W3C//DTD SVG 1.1//EN"
  "http://www.w3.org/Graphics/SVG/1.1/DTD/svg11.dtd">
<!-- Created with matplotlib (https://matplotlib.org/) -->
<svg height="222.755514pt" version="1.1" viewBox="0 0 243.396394 222.755514" width="243.396394pt" xmlns="http://www.w3.org/2000/svg" xmlns:xlink="http://www.w3.org/1999/xlink">
 <defs>
  <style type="text/css">
*{stroke-linecap:butt;stroke-linejoin:round;}
  </style>
 </defs>
 <g id="figure_1">
  <g id="patch_1">
   <path d="M 0 222.755514 
L 243.396394 222.755514 
L 243.396394 0 
L 0 0 
z
" style="fill:#ffffff;"/>
  </g>
  <g id="axes_1">
   <g id="patch_2">
    <path d="M 7.2 202.175279 
L 218.916394 202.175279 
L 218.916394 30.685 
L 7.2 30.685 
z
" style="fill:#ffffff;"/>
   </g>
   <g id="patch_3">
    <path clip-path="url(#p14f800e4f2)" d="M 51.98616 198.877389 
L 51.98616 125.590945 
L 52.510427 127.442466 
L 53.148012 129.601152 
L 53.785598 131.663446 
L 54.246067 133.096114 
L 54.706537 134.483459 
L 55.166679 135.826432 
L 55.726539 137.404538 
L 56.286398 138.92413 
L 56.52848 139.563799 
L 57.296204 141.526079 
L 58.063929 143.392568 
L 58.889261 145.299274 
L 59.488606 146.62296 
L 60.014097 147.74359 
L 60.539588 148.828554 
L 61.093083 149.934415 
L 61.560274 150.839568 
L 62.409097 152.421071 
L 63.365549 154.111295 
L 63.970455 155.133093 
L 64.575361 156.120302 
L 65.016997 156.8201 
L 65.997868 158.314191 
L 66.423034 158.937186 
L 67.090291 159.886368 
L 67.757548 160.802111 
L 68.563568 161.865907 
L 69.318515 162.822374 
L 70.330459 164.047354 
L 70.543706 164.297523 
L 71.409443 165.28597 
L 72.433843 166.401782 
L 72.942951 166.935752 
L 73.901167 167.90567 
L 74.875896 168.847671 
L 75.689865 169.601768 
L 76.473964 170.301648 
L 77.429812 171.121401 
L 78.248268 171.795612 
L 79.209327 172.556398 
L 79.877504 173.066599 
L 80.248175 173.343261 
L 81.415849 174.186304 
L 82.034513 174.616153 
L 83.393173 175.521631 
L 83.544751 175.619495 
L 84.592456 176.279424 
L 85.418523 176.780144 
L 86.548925 177.438807 
L 87.357506 177.892049 
L 88.292924 178.398684 
L 89.147817 178.845829 
L 90.015231 179.284719 
L 90.197048 179.374885 
L 91.624168 180.061489 
L 92.099399 180.282096 
L 92.593698 180.507464 
L 94.013422 181.132455 
L 94.503374 181.340754 
L 94.975851 181.53817 
L 96.28704 182.068888 
L 96.8455 182.287558 
L 97.853459 182.671577 
L 99.015298 183.097906 
L 99.464858 183.258366 
L 100.098555 183.480425 
L 101.059737 183.808309 
L 102.292492 184.213725 
L 102.412278 184.252244 
L 103.217904 184.50741 
L 104.644256 184.943085 
L 105.371121 185.157522 
L 105.769172 185.272863 
L 106.744938 185.549526 
L 107.504046 185.758964 
L 108.507066 186.028211 
L 109.376711 186.255002 
L 109.947669 186.40065 
L 111.184985 186.707757 
L 111.698152 186.83181 
L 112.624472 187.050986 
L 113.164053 187.175909 
L 114.550137 187.487889 
L 115.070254 187.601744 
L 115.890168 187.77779 
L 116.971638 188.003759 
L 117.790817 188.170361 
L 117.904083 188.193095 
L 118.826619 188.375595 
L 119.53437 188.512453 
L 120.468516 188.689032 
L 121.761508 188.926092 
L 122.433206 189.045991 
L 123.520779 189.235579 
L 124.026357 189.32185 
L 124.429628 189.389837 
L 125.410659 189.552228 
L 126.379558 189.708552 
L 127.016445 189.809178 
L 127.869425 189.941371 
L 129.234348 190.146968 
L 129.33753 190.162221 
L 130.30999 190.304033 
L 131.44227 190.464832 
L 132.28534 190.58164 
L 132.872235 190.661524 
L 133.449748 190.73901 
L 134.510726 190.878535 
L 135.644867 191.02375 
L 136.54014 191.135606 
L 137.090841 191.203228 
L 137.918734 191.303232 
L 138.854797 191.413966 
L 139.618889 191.502565 
L 140.749608 191.63081 
L 140.850555 191.642096 
L 141.970979 191.765614 
L 142.884683 191.864016 
L 143.598498 191.939477 
L 144.214866 192.00366 
L 145.065352 192.090771 
L 146.475275 192.231576 
L 147.252931 192.307372 
L 147.805855 192.360477 
L 148.240893 192.401809 
L 149.489861 192.51831 
L 150.427571 192.603723 
L 150.642352 192.623044 
L 151.739235 192.720341 
L 152.794097 192.811784 
L 153.855046 192.901715 
L 154.468107 192.952772 
L 154.854036 192.984578 
L 155.815102 193.06268 
L 156.795134 193.140735 
L 157.777001 193.21737 
L 158.763765 193.292851 
L 159.096844 193.317989 
L 160.092124 193.3921 
L 160.802043 193.444061 
L 161.610539 193.502343 
L 162.754849 193.583243 
L 163.548875 193.63831 
L 164.340087 193.692331 
L 164.865597 193.727751 
L 166.101156 193.809613 
L 166.43623 193.831476 
L 167.246038 193.883736 
L 168.508722 193.963617 
L 168.945453 193.9908 
L 170.01734 194.056568 
L 170.744883 194.100454 
L 171.104164 194.121906 
L 172.211112 194.187097 
L 173.42541 194.257081 
L 173.876444 194.282677 
L 174.51104 194.318332 
L 175.941795 194.397212 
L 176.411963 194.422686 
L 176.913767 194.449636 
L 177.811911 194.497264 
L 178.620598 194.539494 
L 179.714448 194.595651 
L 180.627698 194.641705 
L 181.634738 194.691632 
L 181.758222 194.697694 
L 182.569989 194.737214 
L 183.42263 194.778124 
L 184.850488 194.845288 
L 185.024295 194.85335 
L 186.006121 194.898445 
L 187.283714 194.955998 
L 187.582575 194.969281 
L 188.839227 195.024401 
L 189.168579 195.038654 
L 190.284319 195.086357 
L 190.893665 195.112034 
L 192.157307 195.164459 
L 193.103081 195.202983 
L 193.736532 195.228451 
L 194.423563 195.255775 
L 195.407689 195.294384 
L 196.062815 195.319744 
L 196.781057 195.347239 
L 197.854305 195.387734 
L 198.849999 195.424683 
L 199.566697 195.450916 
L 199.870791 195.461957 
L 201.315768 195.513697 
L 201.671817 195.526266 
L 202.795043 195.565457 
L 203.179278 195.578706 
L 203.951132 195.605081 
L 204.815604 195.634248 
L 205.49054 195.656749 
L 206.45195 195.688399 
L 207.883143 195.734657 
L 207.922958 195.73593 
L 209.025008 195.770846 
L 209.919957 195.798774 
L 210.899739 195.82892 
L 211.741885 195.854478 
L 212.162415 195.867121 
L 213.166905 195.897 
L 214.197903 195.927208 
L 214.844925 195.945932 
L 214.844925 198.877389 
z
" style="fill:#cde0eb;opacity:0.5;"/>
   </g>
   <g id="matplotlib.axis_1">
    <g id="xtick_1">
     <g id="line2d_1">
      <defs>
       <path d="M 0 0 
L 0 3.5 
" id="md676c10e4a" style="stroke:#000000;stroke-width:0.8;"/>
      </defs>
      <g>
       <use style="stroke:#000000;stroke-width:0.8;" x="51.98616" xlink:href="#md676c10e4a" y="198.877389"/>
      </g>
     </g>
     <g id="text_1">
      <!-- 1 -->
      <defs>
       <path d="M 12.40625 8.296875 
L 28.515625 8.296875 
L 28.515625 63.921875 
L 10.984375 60.40625 
L 10.984375 69.390625 
L 28.421875 72.90625 
L 38.28125 72.90625 
L 38.28125 8.296875 
L 54.390625 8.296875 
L 54.390625 0 
L 12.40625 0 
z
" id="DejaVuSans-49"/>
      </defs>
      <g transform="translate(48.80491 213.475827)scale(0.1 -0.1)">
       <use xlink:href="#DejaVuSans-49"/>
      </g>
     </g>
    </g>
    <g id="text_2">
     <!-- $x$ -->
     <defs>
      <path d="M 7.8125 2.875 
Q 9.578125 1.515625 12.796875 1.515625 
Q 15.921875 1.515625 18.3125 4.515625 
Q 20.703125 7.515625 21.578125 11.078125 
L 26.125 28.8125 
Q 27.203125 33.640625 27.203125 35.40625 
Q 27.203125 37.890625 25.8125 39.75 
Q 24.421875 41.609375 21.921875 41.609375 
Q 18.75 41.609375 15.96875 39.625 
Q 13.1875 37.640625 11.28125 34.59375 
Q 9.375 31.546875 8.59375 28.421875 
Q 8.40625 27.78125 7.8125 27.78125 
L 6.59375 27.78125 
Q 5.8125 27.78125 5.8125 28.71875 
L 5.8125 29 
Q 6.78125 32.71875 9.125 36.25 
Q 11.46875 39.796875 14.859375 41.984375 
Q 18.265625 44.1875 22.125 44.1875 
Q 25.78125 44.1875 28.734375 42.234375 
Q 31.6875 40.28125 32.90625 36.921875 
Q 34.625 39.984375 37.28125 42.078125 
Q 39.9375 44.1875 43.109375 44.1875 
Q 45.265625 44.1875 47.5 43.421875 
Q 49.75 42.671875 51.171875 41.109375 
Q 52.59375 39.546875 52.59375 37.203125 
Q 52.59375 34.671875 50.953125 32.828125 
Q 49.3125 31 46.78125 31 
Q 45.171875 31 44.09375 32.03125 
Q 43.015625 33.0625 43.015625 34.625 
Q 43.015625 36.71875 44.453125 38.296875 
Q 45.90625 39.890625 47.90625 40.1875 
Q 46.09375 41.609375 42.921875 41.609375 
Q 39.703125 41.609375 37.328125 38.625 
Q 34.96875 35.640625 33.984375 31.984375 
L 29.59375 14.3125 
Q 28.515625 10.296875 28.515625 7.71875 
Q 28.515625 5.171875 29.953125 3.34375 
Q 31.390625 1.515625 33.796875 1.515625 
Q 38.484375 1.515625 42.15625 5.640625 
Q 45.84375 9.765625 47.015625 14.703125 
Q 47.21875 15.28125 47.796875 15.28125 
L 49.03125 15.28125 
Q 49.421875 15.28125 49.65625 15.015625 
Q 49.90625 14.75 49.90625 14.40625 
Q 49.90625 14.3125 49.8125 14.109375 
Q 48.390625 8.15625 43.84375 3.515625 
Q 39.3125 -1.125 33.59375 -1.125 
Q 29.9375 -1.125 26.984375 0.84375 
Q 24.03125 2.828125 22.796875 6.203125 
Q 21.234375 3.265625 18.46875 1.0625 
Q 15.71875 -1.125 12.59375 -1.125 
Q 10.453125 -1.125 8.171875 -0.359375 
Q 5.90625 0.390625 4.484375 1.953125 
Q 3.078125 3.515625 3.078125 5.90625 
Q 3.078125 8.25 4.703125 10.171875 
Q 6.34375 12.109375 8.796875 12.109375 
Q 10.453125 12.109375 11.578125 11.109375 
Q 12.703125 10.109375 12.703125 8.5 
Q 12.703125 6.390625 11.296875 4.828125 
Q 9.90625 3.265625 7.8125 2.875 
z
" id="Cmmi10-120"/>
     </defs>
     <g transform="translate(226.916394 198.877389)scale(0.16 -0.16)">
      <use transform="translate(0 0.8125)" xlink:href="#Cmmi10-120"/>
     </g>
    </g>
   </g>
   <g id="matplotlib.axis_2">
    <g id="text_3">
     <!-- $y$ -->
     <defs>
      <path d="M 8.40625 -14.3125 
Q 10.5 -17.921875 15.71875 -17.921875 
Q 20.453125 -17.921875 23.921875 -14.59375 
Q 27.390625 -11.28125 29.515625 -6.5625 
Q 31.640625 -1.859375 32.8125 3.078125 
Q 28.375 -1.125 23.1875 -1.125 
Q 19.234375 -1.125 16.453125 0.234375 
Q 13.671875 1.609375 12.125 4.3125 
Q 10.59375 7.03125 10.59375 10.890625 
Q 10.59375 14.15625 11.46875 17.59375 
Q 12.359375 21.046875 13.9375 25.265625 
Q 15.53125 29.5 16.703125 32.625 
Q 18.015625 36.28125 18.015625 38.625 
Q 18.015625 41.609375 15.828125 41.609375 
Q 11.859375 41.609375 9.296875 37.53125 
Q 6.734375 33.453125 5.515625 28.421875 
Q 5.328125 27.78125 4.6875 27.78125 
L 3.515625 27.78125 
Q 2.6875 27.78125 2.6875 28.71875 
L 2.6875 29 
Q 4.296875 34.96875 7.609375 39.578125 
Q 10.9375 44.1875 16.015625 44.1875 
Q 19.578125 44.1875 22.046875 41.84375 
Q 24.515625 39.5 24.515625 35.890625 
Q 24.515625 34.03125 23.6875 31.984375 
Q 23.25 30.765625 21.6875 26.65625 
Q 20.125 22.5625 19.28125 19.875 
Q 18.453125 17.1875 17.921875 14.59375 
Q 17.390625 12.015625 17.390625 9.421875 
Q 17.390625 6.109375 18.796875 3.8125 
Q 20.21875 1.515625 23.296875 1.515625 
Q 29.5 1.515625 34.421875 9.078125 
L 42 39.890625 
Q 42.328125 41.21875 43.546875 42.15625 
Q 44.78125 43.109375 46.1875 43.109375 
Q 47.40625 43.109375 48.3125 42.328125 
Q 49.21875 41.546875 49.21875 40.28125 
Q 49.21875 39.703125 49.125 39.5 
L 39.203125 -0.296875 
Q 37.890625 -5.421875 34.375 -10.109375 
Q 30.859375 -14.796875 25.90625 -17.65625 
Q 20.953125 -20.515625 15.578125 -20.515625 
Q 12.984375 -20.515625 10.4375 -19.5 
Q 7.90625 -18.5 6.34375 -16.5 
Q 4.78125 -14.5 4.78125 -11.8125 
Q 4.78125 -9.078125 6.390625 -7.078125 
Q 8.015625 -5.078125 10.6875 -5.078125 
Q 12.3125 -5.078125 13.40625 -6.078125 
Q 14.5 -7.078125 14.5 -8.6875 
Q 14.5 -10.984375 12.78125 -12.6875 
Q 11.078125 -14.40625 8.796875 -14.40625 
Q 8.6875 -14.359375 8.59375 -14.328125 
Q 8.5 -14.3125 8.40625 -14.3125 
z
" id="Cmmi10-121"/>
     </defs>
     <g transform="translate(7.271469 19.325)scale(0.16 -0.16)">
      <use transform="translate(0 0.8125)" xlink:href="#Cmmi10-121"/>
     </g>
    </g>
   </g>
   <g id="line2d_2">
    <path clip-path="url(#p14f800e4f2)" d="M 51.98616 125.590945 
L 53.785598 131.663446 
L 55.726539 137.404538 
L 57.296204 141.526079 
L 59.488606 146.62296 
L 61.560274 150.839568 
L 63.970455 155.133093 
L 66.423034 158.937186 
L 68.563568 161.865907 
L 70.543706 164.297523 
L 72.942951 166.935752 
L 75.689865 169.601768 
L 78.248268 171.795612 
L 81.415849 174.186304 
L 84.592456 176.279424 
L 88.292924 178.398684 
L 92.099399 180.282096 
L 94.975851 181.53817 
L 99.464858 183.258366 
L 103.217904 184.50741 
L 108.507066 186.028211 
L 113.164053 187.175909 
L 119.53437 188.512453 
L 126.379558 189.708552 
L 133.449748 190.73901 
L 141.970979 191.765614 
L 151.739235 192.720341 
L 163.548875 193.63831 
L 176.913767 194.449636 
L 193.103081 195.202983 
L 212.162415 195.867121 
L 214.844925 195.945932 
L 214.844925 195.945932 
" style="fill:none;stroke:#0000ff;stroke-linecap:square;stroke-width:1.5;"/>
   </g>
   <g id="line2d_3">
    <path clip-path="url(#p14f800e4f2)" d="M 38.414597 33.98289 
L 39.838864 50.015111 
L 41.237362 63.585579 
L 42.751462 76.286922 
L 44.265493 87.279656 
L 45.9867 98.071521 
L 47.483911 106.234877 
L 49.355975 115.11881 
L 51.125528 122.391587 
L 53.045997 129.262388 
L 54.964232 135.240796 
L 56.652819 139.888379 
L 58.817955 145.138451 
L 61.093424 149.935086 
L 63.356212 154.095245 
L 65.707198 157.879844 
L 68.255806 161.465043 
L 69.975817 163.625256 
L 72.814025 166.801783 
L 75.547649 169.472075 
L 78.090673 171.667715 
L 81.465861 174.221475 
L 84.302711 176.099758 
L 88.068416 178.278774 
L 91.209688 179.865862 
L 95.741379 181.851027 
L 100.61575 183.658168 
L 105.630679 185.232898 
L 110.333616 186.497679 
L 116.59563 187.925982 
L 122.423173 189.044216 
L 129.864086 190.23944 
L 138.538849 191.376863 
L 147.217351 192.303932 
L 158.813729 193.296633 
L 172.114142 194.18144 
L 187.343582 194.958664 
L 205.670551 195.662711 
L 214.844925 195.945932 
L 214.844925 195.945932 
" style="fill:none;stroke:#0000ff;stroke-linecap:square;stroke-width:1.5;"/>
   </g>
   <g id="line2d_4"/>
   <g id="patch_4">
    <path d="M 11.271469 202.175279 
L 11.271469 30.685 
" style="fill:none;stroke:#000000;stroke-linecap:square;stroke-linejoin:miter;stroke-width:0.8;"/>
   </g>
   <g id="patch_5">
    <path d="M 7.2 198.877389 
L 218.916394 198.877389 
" style="fill:none;stroke:#000000;stroke-linecap:square;stroke-linejoin:miter;stroke-width:0.8;"/>
   </g>
   <g id="text_4">
    <!-- $y=\dfrac{1}{x^2}$ -->
    <defs>
     <path d="M 7.515625 13.28125 
Q 6.6875 13.28125 6.140625 13.90625 
Q 5.609375 14.546875 5.609375 15.28125 
Q 5.609375 16.109375 6.140625 16.6875 
Q 6.6875 17.28125 7.515625 17.28125 
L 70.3125 17.28125 
Q 71.046875 17.28125 71.578125 16.6875 
Q 72.125 16.109375 72.125 15.28125 
Q 72.125 14.546875 71.578125 13.90625 
Q 71.046875 13.28125 70.3125 13.28125 
z
M 7.515625 32.71875 
Q 6.6875 32.71875 6.140625 33.296875 
Q 5.609375 33.890625 5.609375 34.71875 
Q 5.609375 35.453125 6.140625 36.078125 
Q 6.6875 36.71875 7.515625 36.71875 
L 70.3125 36.71875 
Q 71.046875 36.71875 71.578125 36.078125 
Q 72.125 35.453125 72.125 34.71875 
Q 72.125 33.890625 71.578125 33.296875 
Q 71.046875 32.71875 70.3125 32.71875 
z
" id="Cmr10-61"/>
     <path d="M 9.28125 0 
L 9.28125 3.515625 
Q 21.78125 3.515625 21.78125 6.6875 
L 21.78125 59.1875 
Q 16.609375 56.6875 8.6875 56.6875 
L 8.6875 60.203125 
Q 20.953125 60.203125 27.203125 66.609375 
L 28.609375 66.609375 
Q 28.953125 66.609375 29.265625 66.328125 
Q 29.59375 66.0625 29.59375 65.71875 
L 29.59375 6.6875 
Q 29.59375 3.515625 42.09375 3.515625 
L 42.09375 0 
z
" id="Cmr10-49"/>
     <path d="M 4.984375 0 
L 4.984375 2.6875 
Q 4.984375 2.9375 5.171875 3.21875 
L 20.703125 20.40625 
Q 24.21875 24.21875 26.40625 26.796875 
Q 28.609375 29.390625 30.75 32.765625 
Q 32.90625 36.140625 34.15625 39.625 
Q 35.40625 43.109375 35.40625 47.015625 
Q 35.40625 51.125 33.890625 54.859375 
Q 32.375 58.59375 29.375 60.84375 
Q 26.375 63.09375 22.125 63.09375 
Q 17.78125 63.09375 14.3125 60.46875 
Q 10.84375 57.859375 9.421875 53.71875 
Q 9.8125 53.8125 10.5 53.8125 
Q 12.75 53.8125 14.328125 52.296875 
Q 15.921875 50.78125 15.921875 48.390625 
Q 15.921875 46.09375 14.328125 44.5 
Q 12.75 42.921875 10.5 42.921875 
Q 8.15625 42.921875 6.5625 44.546875 
Q 4.984375 46.1875 4.984375 48.390625 
Q 4.984375 52.15625 6.390625 55.4375 
Q 7.8125 58.734375 10.46875 61.296875 
Q 13.140625 63.875 16.484375 65.234375 
Q 19.828125 66.609375 23.578125 66.609375 
Q 29.296875 66.609375 34.21875 64.1875 
Q 39.15625 61.765625 42.03125 57.34375 
Q 44.921875 52.9375 44.921875 47.015625 
Q 44.921875 42.671875 43.015625 38.765625 
Q 41.109375 34.859375 38.125 31.65625 
Q 35.15625 28.46875 30.515625 24.40625 
Q 25.875 20.359375 24.421875 19 
L 13.09375 8.109375 
L 22.703125 8.109375 
Q 29.78125 8.109375 34.546875 8.21875 
Q 39.3125 8.34375 39.59375 8.59375 
Q 40.765625 9.859375 42 17.828125 
L 44.921875 17.828125 
L 42.09375 0 
z
" id="Cmr10-50"/>
    </defs>
    <g style="fill:#0000ff;" transform="translate(51.343506 105.480012)scale(0.15 -0.15)">
     <use transform="translate(0 0.890625)" xlink:href="#Cmmi10-121"/>
     <use transform="translate(66.582031 0.890625)" xlink:href="#Cmr10-61"/>
     <use transform="translate(188.826172 38.390625)" xlink:href="#Cmr10-49"/>
     <use transform="translate(161.826172 -77.75)" xlink:href="#Cmmi10-120"/>
     <use transform="translate(225.209531 -39.485938)scale(0.7)" xlink:href="#Cmr10-50"/>
     <path d="M 161.826172 13.390625 
L 161.826172 19.640625 
L 266.586875 19.640625 
L 266.586875 13.390625 
L 161.826172 13.390625 
z
"/>
    </g>
   </g>
  </g>
 </g>
 <defs>
  <clipPath id="p14f800e4f2">
   <rect height="171.490279" width="211.716394" x="7.2" y="30.685"/>
  </clipPath>
 </defs>
</svg>
