<?xml version="1.0" encoding="utf-8" standalone="no"?>
<!DOCTYPE svg PUBLIC "-//W3C//DTD SVG 1.1//EN"
  "http://www.w3.org/Graphics/SVG/1.1/DTD/svg11.dtd">
<!-- Created with matplotlib (https://matplotlib.org/) -->
<svg height="280.710403pt" version="1.1" viewBox="0 0 339.312051 280.710403" width="339.312051pt" xmlns="http://www.w3.org/2000/svg" xmlns:xlink="http://www.w3.org/1999/xlink">
 <defs>
  <style type="text/css">
*{stroke-linecap:butt;stroke-linejoin:round;}
  </style>
 </defs>
 <g id="figure_1">
  <g id="patch_1">
   <path d="M 0 280.710403 
L 339.312051 280.710403 
L 339.312051 0 
L 0 0 
z
" style="fill:#ffffff;"/>
  </g>
  <g id="axes_1">
   <g id="patch_2">
    <path d="M 7.2 261.266538 
L 314.642051 261.266538 
L 314.642051 30.685 
L 7.2 30.685 
z
" style="fill:#ffffff;"/>
   </g>
   <g id="patch_3">
    <path clip-path="url(#pf8ee27e9d0)" d="M 62.381907 256.832278 
L 62.381907 109.0236 
L 63.598923 110.849125 
L 64.511454 112.21792 
L 66.263054 114.845321 
L 67.374792 116.512927 
L 68.697043 118.496305 
L 69.529589 119.745123 
L 70.739135 121.559442 
L 72.558612 124.288657 
L 74.03596 126.504679 
L 74.236527 126.805531 
L 75.666915 128.951112 
L 77.631566 131.898088 
L 78.188891 132.734076 
L 79.114459 134.122429 
L 81.528997 137.744236 
L 82.571864 139.308535 
L 83.470069 140.655844 
L 84.844603 142.717644 
L 85.625363 143.888783 
L 87.318959 146.429178 
L 88.695937 148.494645 
L 90.10601 150.609755 
L 91.412275 152.569153 
L 92.299854 153.90052 
L 93.917796 156.327434 
L 94.569824 157.305476 
L 95.870851 159.257016 
L 96.948392 160.873327 
L 98.197632 162.747188 
L 99.553703 164.781294 
L 100.627861 166.392531 
L 102.579301 169.319691 
L 103.540154 170.76097 
L 104.391241 172.037602 
L 105.790782 174.136913 
L 107.247396 176.321834 
L 108.23641 177.805354 
L 109.311888 179.418571 
L 110.346351 180.970266 
L 111.350884 182.477065 
L 113.281708 185.373301 
L 114.21992 186.78062 
L 115.440468 188.611442 
L 117.170748 191.206862 
L 118.445676 193.119254 
L 119.274071 194.361846 
L 120.407424 196.061875 
L 121.611022 197.867273 
L 122.633981 199.401711 
L 124.018695 201.478783 
L 125.681201 203.972542 
L 126.405213 205.058559 
L 128.188954 207.73417 
L 128.619341 208.379751 
L 130.748486 211.573469 
L 132.214691 213.772776 
L 132.666647 214.45071 
L 133.732797 216.049935 
L 135.577553 218.817069 
L 137.021717 220.983315 
L 137.663355 221.945771 
L 139.227783 224.292414 
L 140.651287 226.427671 
L 141.486629 227.680683 
L 143.071511 230.058006 
L 144.058692 231.538778 
L 145.249618 233.325166 
L 145.975893 234.41458 
L 148.123899 237.636588 
L 148.699818 238.500467 
L 149.882678 240.274757 
L 151.730509 243.046504 
L 152.447105 244.121398 
L 154.042793 246.514928 
L 155.700243 249.001104 
L 156.655532 250.434038 
L 157.155761 251.184381 
L 158.830686 253.696768 
L 159.784892 255.128077 
L 160.571562 256.308083 
L 160.76823 256.603084 
L 160.866564 256.750585 
L 160.91573 256.824335 
L 160.964897 256.766471 
L 161.358233 256.176468 
L 162.641272 254.251908 
L 163.565855 252.865035 
L 165.692377 249.675251 
L 166.027981 249.171846 
L 168.220757 245.882681 
L 168.420295 245.583374 
L 169.501897 243.960971 
L 171.688727 240.680727 
L 172.696856 239.168532 
L 174.214275 236.892404 
L 175.142999 235.499318 
L 176.66052 233.223036 
L 177.018324 232.68633 
L 179.276635 229.298863 
L 180.3188 227.735616 
L 181.306411 226.2542 
L 182.321981 224.730845 
L 183.676892 222.698479 
L 185.306943 220.253402 
L 186.166662 218.963823 
L 187.737616 216.607393 
L 188.039613 216.154398 
L 189.49733 213.967822 
L 190.58479 212.336632 
L 192.715225 209.140979 
L 193.574623 207.851883 
L 194.910305 205.848359 
L 196.479955 203.493883 
L 197.271137 202.307111 
L 198.055951 201.129891 
L 200.094574 198.071955 
L 201.525017 195.926292 
L 201.697397 195.667721 
L 203.35626 193.179426 
L 205.156661 190.478825 
L 205.921535 189.331514 
L 207.793539 186.523508 
L 208.905012 184.856298 
L 209.803912 183.507949 
L 211.429561 181.069476 
L 211.862539 180.420008 
L 213.751428 177.586675 
L 215.091867 175.576016 
L 216.098348 174.066295 
L 216.776764 173.048671 
L 218.083351 171.08879 
L 219.899671 168.364309 
L 221.356524 166.17903 
L 222.317528 164.737525 
L 223.404377 163.107251 
L 224.663579 161.218448 
L 225.846949 159.443393 
L 226.567398 158.362719 
L 228.086066 156.084717 
L 229.228946 154.370397 
L 230.730535 152.118014 
L 232.174665 149.951819 
L 233.106921 148.553435 
L 234.486111 146.48465 
L 236.227249 143.872943 
L 236.908534 142.851016 
L 238.105754 141.055186 
L 238.92292 139.829436 
L 240.729489 137.119584 
L 242.444337 134.547312 
L 242.669972 134.208858 
L 244.8755 130.900566 
L 245.444185 130.047539 
L 246.484871 128.486511 
L 248.482988 125.489334 
L 249.058392 124.626228 
L 250.986159 121.734577 
L 251.788047 120.531746 
L 252.481614 119.491396 
L 254.706609 116.153903 
L 255.525377 114.925751 
L 256.153474 113.983606 
L 258.399566 110.614468 
L 258.611694 110.296275 
L 260.890937 106.877411 
L 262.016966 105.188368 
L 263.283744 103.2882 
L 264.614307 101.292356 
L 265.174364 100.45227 
L 266.938183 97.806543 
L 267.361682 97.171294 
L 268.965692 94.765279 
L 269.905574 93.355456 
L 271.458676 91.025802 
L 273.18632 88.434336 
L 274.139384 87.00474 
L 274.767994 86.061825 
L 276.152962 83.984373 
L 278.138966 81.005367 
L 279.576439 78.849157 
L 280.3306 77.717917 
L 281.027634 76.672365 
L 282.520869 74.432513 
L 283.681125 72.692129 
L 285.337045 70.208249 
L 286.383423 68.638683 
L 287.211989 67.395833 
L 289.423119 64.079138 
L 289.888703 63.380762 
L 291.997389 60.217734 
L 292.745512 59.095549 
L 293.540738 57.902709 
L 295.031942 55.665904 
L 296.956483 52.779092 
L 298.110235 51.048463 
L 298.244218 50.847489 
L 300.391254 47.626935 
L 301.781062 45.542224 
L 302.300518 44.763039 
L 303.160869 43.472513 
L 304.944225 40.797479 
L 306.636055 38.259735 
L 308.02314 36.179107 
L 308.729704 35.11926 
L 308.729704 256.832278 
z
" style="fill:#808080;opacity:0.5;"/>
   </g>
   <g id="matplotlib.axis_1">
    <g id="xtick_1">
     <g id="line2d_1">
      <path clip-path="url(#pf8ee27e9d0)" d="M 13.112347 261.266538 
L 13.112347 30.685 
" style="fill:none;stroke:#000000;stroke-dasharray:0.5,0.825;stroke-dashoffset:0;stroke-width:0.5;"/>
     </g>
     <g id="line2d_2">
      <defs>
       <path d="M 0 0 
L 0 3.5 
" id="mae814a0425" style="stroke:#000000;stroke-width:0.8;"/>
      </defs>
      <g>
       <use style="stroke:#000000;stroke-width:0.8;" x="13.112347" xlink:href="#mae814a0425" y="256.832278"/>
      </g>
     </g>
     <g id="text_1">
      <!-- -1 -->
      <defs>
       <path d="M 4.890625 31.390625 
L 31.203125 31.390625 
L 31.203125 23.390625 
L 4.890625 23.390625 
z
" id="DejaVuSans-45"/>
       <path d="M 12.40625 8.296875 
L 28.515625 8.296875 
L 28.515625 63.921875 
L 10.984375 60.40625 
L 10.984375 69.390625 
L 28.421875 72.90625 
L 38.28125 72.90625 
L 38.28125 8.296875 
L 54.390625 8.296875 
L 54.390625 0 
L 12.40625 0 
z
" id="DejaVuSans-49"/>
      </defs>
      <g transform="translate(8.127191 271.430716)scale(0.1 -0.1)">
       <use xlink:href="#DejaVuSans-45"/>
       <use x="36.083984" xlink:href="#DejaVuSans-49"/>
      </g>
     </g>
    </g>
    <g id="xtick_2">
     <g id="line2d_3">
      <path clip-path="url(#pf8ee27e9d0)" d="M 111.651466 261.266538 
L 111.651466 30.685 
" style="fill:none;stroke:#000000;stroke-dasharray:0.5,0.825;stroke-dashoffset:0;stroke-width:0.5;"/>
     </g>
     <g id="line2d_4">
      <g>
       <use style="stroke:#000000;stroke-width:0.8;" x="111.651466" xlink:href="#mae814a0425" y="256.832278"/>
      </g>
     </g>
     <g id="text_2">
      <!-- 1 -->
      <g transform="translate(108.470216 271.430716)scale(0.1 -0.1)">
       <use xlink:href="#DejaVuSans-49"/>
      </g>
     </g>
    </g>
    <g id="xtick_3">
     <g id="line2d_5">
      <path clip-path="url(#pf8ee27e9d0)" d="M 160.921026 261.266538 
L 160.921026 30.685 
" style="fill:none;stroke:#000000;stroke-dasharray:0.5,0.825;stroke-dashoffset:0;stroke-width:0.5;"/>
     </g>
     <g id="line2d_6">
      <g>
       <use style="stroke:#000000;stroke-width:0.8;" x="160.921026" xlink:href="#mae814a0425" y="256.832278"/>
      </g>
     </g>
     <g id="text_3">
      <!-- 2 -->
      <defs>
       <path d="M 19.1875 8.296875 
L 53.609375 8.296875 
L 53.609375 0 
L 7.328125 0 
L 7.328125 8.296875 
Q 12.9375 14.109375 22.625 23.890625 
Q 32.328125 33.6875 34.8125 36.53125 
Q 39.546875 41.84375 41.421875 45.53125 
Q 43.3125 49.21875 43.3125 52.78125 
Q 43.3125 58.59375 39.234375 62.25 
Q 35.15625 65.921875 28.609375 65.921875 
Q 23.96875 65.921875 18.8125 64.3125 
Q 13.671875 62.703125 7.8125 59.421875 
L 7.8125 69.390625 
Q 13.765625 71.78125 18.9375 73 
Q 24.125 74.21875 28.421875 74.21875 
Q 39.75 74.21875 46.484375 68.546875 
Q 53.21875 62.890625 53.21875 53.421875 
Q 53.21875 48.921875 51.53125 44.890625 
Q 49.859375 40.875 45.40625 35.40625 
Q 44.1875 33.984375 37.640625 27.21875 
Q 31.109375 20.453125 19.1875 8.296875 
z
" id="DejaVuSans-50"/>
      </defs>
      <g transform="translate(157.739776 271.430716)scale(0.1 -0.1)">
       <use xlink:href="#DejaVuSans-50"/>
      </g>
     </g>
    </g>
    <g id="xtick_4">
     <g id="line2d_7">
      <path clip-path="url(#pf8ee27e9d0)" d="M 210.190585 261.266538 
L 210.190585 30.685 
" style="fill:none;stroke:#000000;stroke-dasharray:0.5,0.825;stroke-dashoffset:0;stroke-width:0.5;"/>
     </g>
     <g id="line2d_8">
      <g>
       <use style="stroke:#000000;stroke-width:0.8;" x="210.190585" xlink:href="#mae814a0425" y="256.832278"/>
      </g>
     </g>
     <g id="text_4">
      <!-- 3 -->
      <defs>
       <path d="M 40.578125 39.3125 
Q 47.65625 37.796875 51.625 33 
Q 55.609375 28.21875 55.609375 21.1875 
Q 55.609375 10.40625 48.1875 4.484375 
Q 40.765625 -1.421875 27.09375 -1.421875 
Q 22.515625 -1.421875 17.65625 -0.515625 
Q 12.796875 0.390625 7.625 2.203125 
L 7.625 11.71875 
Q 11.71875 9.328125 16.59375 8.109375 
Q 21.484375 6.890625 26.8125 6.890625 
Q 36.078125 6.890625 40.9375 10.546875 
Q 45.796875 14.203125 45.796875 21.1875 
Q 45.796875 27.640625 41.28125 31.265625 
Q 36.765625 34.90625 28.71875 34.90625 
L 20.21875 34.90625 
L 20.21875 43.015625 
L 29.109375 43.015625 
Q 36.375 43.015625 40.234375 45.921875 
Q 44.09375 48.828125 44.09375 54.296875 
Q 44.09375 59.90625 40.109375 62.90625 
Q 36.140625 65.921875 28.71875 65.921875 
Q 24.65625 65.921875 20.015625 65.03125 
Q 15.375 64.15625 9.8125 62.3125 
L 9.8125 71.09375 
Q 15.4375 72.65625 20.34375 73.4375 
Q 25.25 74.21875 29.59375 74.21875 
Q 40.828125 74.21875 47.359375 69.109375 
Q 53.90625 64.015625 53.90625 55.328125 
Q 53.90625 49.265625 50.4375 45.09375 
Q 46.96875 40.921875 40.578125 39.3125 
z
" id="DejaVuSans-51"/>
      </defs>
      <g transform="translate(207.009335 271.430716)scale(0.1 -0.1)">
       <use xlink:href="#DejaVuSans-51"/>
      </g>
     </g>
    </g>
    <g id="text_5">
     <!-- x -->
     <defs>
      <path d="M 54.890625 54.6875 
L 35.109375 28.078125 
L 55.90625 0 
L 45.3125 0 
L 29.390625 21.484375 
L 13.484375 0 
L 2.875 0 
L 24.125 28.609375 
L 4.6875 54.6875 
L 15.28125 54.6875 
L 29.78125 35.203125 
L 44.28125 54.6875 
z
" id="DejaVuSans-120"/>
     </defs>
     <g transform="translate(322.642051 256.832278)scale(0.16 -0.16)">
      <use xlink:href="#DejaVuSans-120"/>
     </g>
    </g>
   </g>
   <g id="matplotlib.axis_2">
    <g id="ytick_1">
     <g id="line2d_9">
      <path clip-path="url(#pf8ee27e9d0)" d="M 7.2 182.927939 
L 314.642051 182.927939 
" style="fill:none;stroke:#000000;stroke-dasharray:0.5,0.825;stroke-dashoffset:0;stroke-width:0.5;"/>
     </g>
     <g id="line2d_10">
      <defs>
       <path d="M 0 0 
L -3.5 0 
" id="m8175a0988e" style="stroke:#000000;stroke-width:0.8;"/>
      </defs>
      <g>
       <use style="stroke:#000000;stroke-width:0.8;" x="62.381907" xlink:href="#m8175a0988e" y="182.927939"/>
      </g>
     </g>
     <g id="text_6">
      <!-- 1 -->
      <g transform="translate(49.019407 186.727158)scale(0.1 -0.1)">
       <use xlink:href="#DejaVuSans-49"/>
      </g>
     </g>
    </g>
    <g id="ytick_2">
     <g id="line2d_11">
      <path clip-path="url(#pf8ee27e9d0)" d="M 7.2 109.0236 
L 314.642051 109.0236 
" style="fill:none;stroke:#000000;stroke-dasharray:0.5,0.825;stroke-dashoffset:0;stroke-width:0.5;"/>
     </g>
     <g id="line2d_12">
      <g>
       <use style="stroke:#000000;stroke-width:0.8;" x="62.381907" xlink:href="#m8175a0988e" y="109.0236"/>
      </g>
     </g>
     <g id="text_7">
      <!-- 2 -->
      <g transform="translate(49.019407 112.822818)scale(0.1 -0.1)">
       <use xlink:href="#DejaVuSans-50"/>
      </g>
     </g>
    </g>
    <g id="ytick_3">
     <g id="line2d_13">
      <path clip-path="url(#pf8ee27e9d0)" d="M 7.2 35.11926 
L 314.642051 35.11926 
" style="fill:none;stroke:#000000;stroke-dasharray:0.5,0.825;stroke-dashoffset:0;stroke-width:0.5;"/>
     </g>
     <g id="line2d_14">
      <g>
       <use style="stroke:#000000;stroke-width:0.8;" x="62.381907" xlink:href="#m8175a0988e" y="35.11926"/>
      </g>
     </g>
     <g id="text_8">
      <!-- 3 -->
      <g transform="translate(49.019407 38.918479)scale(0.1 -0.1)">
       <use xlink:href="#DejaVuSans-51"/>
      </g>
     </g>
    </g>
    <g id="text_9">
     <!-- y -->
     <defs>
      <path d="M 32.171875 -5.078125 
Q 28.375 -14.84375 24.75 -17.8125 
Q 21.140625 -20.796875 15.09375 -20.796875 
L 7.90625 -20.796875 
L 7.90625 -13.28125 
L 13.1875 -13.28125 
Q 16.890625 -13.28125 18.9375 -11.515625 
Q 21 -9.765625 23.484375 -3.21875 
L 25.09375 0.875 
L 2.984375 54.6875 
L 12.5 54.6875 
L 29.59375 11.921875 
L 46.6875 54.6875 
L 56.203125 54.6875 
z
" id="DejaVuSans-121"/>
     </defs>
     <g transform="translate(57.646907 19.3575)scale(0.16 -0.16)">
      <use xlink:href="#DejaVuSans-121"/>
     </g>
    </g>
   </g>
   <g id="line2d_15">
    <path clip-path="url(#pf8ee27e9d0)" d="M 62.381907 109.0236 
L 160.91573 256.824335 
L 160.964897 256.766471 
L 308.729704 35.11926 
L 308.729704 35.11926 
" style="fill:none;stroke:#0000ff;stroke-linecap:square;"/>
   </g>
   <g id="line2d_16">
    <path clip-path="url(#pf8ee27e9d0)" d="M 13.112347 35.11926 
L 13.364569 35.497594 
L 13.506423 35.710374 
L 13.804499 36.157489 
L 14.006601 36.460641 
L 14.427742 37.092352 
L 14.615299 37.373689 
L 14.968918 37.904117 
L 15.030404 37.996346 
L 15.307728 38.412331 
L 15.662585 38.944616 
L 15.947456 39.371923 
L 16.139087 39.659371 
L 16.393674 40.04125 
L 16.548748 40.273861 
L 16.923967 40.83669 
L 17.173377 41.210805 
L 17.385876 41.529553 
L 17.672221 41.959071 
L 17.77889 42.119075 
L 18.125946 42.639659 
L 18.421422 43.082872 
L 18.538041 43.257801 
L 18.694656 43.492723 
L 19.07044 44.0564 
L 19.291665 44.388237 
L 19.492052 44.688817 
L 19.834765 45.202887 
L 19.929788 45.345422 
L 20.315752 45.924368 
L 20.509366 46.214789 
L 20.668202 46.453042 
L 21.082367 47.07429 
L 21.31096 47.417179 
L 21.514153 47.721969 
L 21.729825 48.045478 
L 21.97407 48.411845 
L 22.282502 48.874493 
L 22.505695 49.209282 
L 22.745096 49.568384 
L 22.984987 49.92822 
L 23.261305 50.342697 
L 23.490815 50.686962 
L 23.830825 51.196977 
L 23.958756 51.388874 
L 24.355583 51.984115 
L 24.39279 52.039924 
L 24.869626 52.755178 
L 24.989315 52.934712 
L 25.266595 53.350631 
L 25.484574 53.677601 
L 25.644693 53.917779 
L 26.066127 54.54993 
L 26.313841 54.921501 
L 26.420553 55.081568 
L 26.790741 55.636851 
L 26.857963 55.737684 
" style="fill:none;stroke:#0000ff;stroke-linecap:square;"/>
   </g>
   <g id="line2d_17">
    <path clip-path="url(#pf8ee27e9d0)" d="M 27.679016 56.969264 
L 62.381907 109.0236 
L 62.381907 109.0236 
" style="fill:none;stroke:#0000ff;stroke-linecap:square;"/>
   </g>
   <g id="patch_4">
    <path d="M 62.381907 261.266538 
L 62.381907 30.685 
" style="fill:none;stroke:#000000;stroke-linecap:square;stroke-linejoin:miter;stroke-width:0.8;"/>
   </g>
   <g id="patch_5">
    <path d="M 7.2 256.832278 
L 314.642051 256.832278 
" style="fill:none;stroke:#000000;stroke-linecap:square;stroke-linejoin:miter;stroke-width:0.8;"/>
   </g>
   <g id="text_10">
    <!-- $y=|2x-1|$ -->
    <defs>
     <path d="M 8.40625 -14.3125 
Q 10.5 -17.921875 15.71875 -17.921875 
Q 20.453125 -17.921875 23.921875 -14.59375 
Q 27.390625 -11.28125 29.515625 -6.5625 
Q 31.640625 -1.859375 32.8125 3.078125 
Q 28.375 -1.125 23.1875 -1.125 
Q 19.234375 -1.125 16.453125 0.234375 
Q 13.671875 1.609375 12.125 4.3125 
Q 10.59375 7.03125 10.59375 10.890625 
Q 10.59375 14.15625 11.46875 17.59375 
Q 12.359375 21.046875 13.9375 25.265625 
Q 15.53125 29.5 16.703125 32.625 
Q 18.015625 36.28125 18.015625 38.625 
Q 18.015625 41.609375 15.828125 41.609375 
Q 11.859375 41.609375 9.296875 37.53125 
Q 6.734375 33.453125 5.515625 28.421875 
Q 5.328125 27.78125 4.6875 27.78125 
L 3.515625 27.78125 
Q 2.6875 27.78125 2.6875 28.71875 
L 2.6875 29 
Q 4.296875 34.96875 7.609375 39.578125 
Q 10.9375 44.1875 16.015625 44.1875 
Q 19.578125 44.1875 22.046875 41.84375 
Q 24.515625 39.5 24.515625 35.890625 
Q 24.515625 34.03125 23.6875 31.984375 
Q 23.25 30.765625 21.6875 26.65625 
Q 20.125 22.5625 19.28125 19.875 
Q 18.453125 17.1875 17.921875 14.59375 
Q 17.390625 12.015625 17.390625 9.421875 
Q 17.390625 6.109375 18.796875 3.8125 
Q 20.21875 1.515625 23.296875 1.515625 
Q 29.5 1.515625 34.421875 9.078125 
L 42 39.890625 
Q 42.328125 41.21875 43.546875 42.15625 
Q 44.78125 43.109375 46.1875 43.109375 
Q 47.40625 43.109375 48.3125 42.328125 
Q 49.21875 41.546875 49.21875 40.28125 
Q 49.21875 39.703125 49.125 39.5 
L 39.203125 -0.296875 
Q 37.890625 -5.421875 34.375 -10.109375 
Q 30.859375 -14.796875 25.90625 -17.65625 
Q 20.953125 -20.515625 15.578125 -20.515625 
Q 12.984375 -20.515625 10.4375 -19.5 
Q 7.90625 -18.5 6.34375 -16.5 
Q 4.78125 -14.5 4.78125 -11.8125 
Q 4.78125 -9.078125 6.390625 -7.078125 
Q 8.015625 -5.078125 10.6875 -5.078125 
Q 12.3125 -5.078125 13.40625 -6.078125 
Q 14.5 -7.078125 14.5 -8.6875 
Q 14.5 -10.984375 12.78125 -12.6875 
Q 11.078125 -14.40625 8.796875 -14.40625 
Q 8.6875 -14.359375 8.59375 -14.328125 
Q 8.5 -14.3125 8.40625 -14.3125 
z
" id="Cmmi10-121"/>
     <path d="M 7.515625 13.28125 
Q 6.6875 13.28125 6.140625 13.90625 
Q 5.609375 14.546875 5.609375 15.28125 
Q 5.609375 16.109375 6.140625 16.6875 
Q 6.6875 17.28125 7.515625 17.28125 
L 70.3125 17.28125 
Q 71.046875 17.28125 71.578125 16.6875 
Q 72.125 16.109375 72.125 15.28125 
Q 72.125 14.546875 71.578125 13.90625 
Q 71.046875 13.28125 70.3125 13.28125 
z
M 7.515625 32.71875 
Q 6.6875 32.71875 6.140625 33.296875 
Q 5.609375 33.890625 5.609375 34.71875 
Q 5.609375 35.453125 6.140625 36.078125 
Q 6.6875 36.71875 7.515625 36.71875 
L 70.3125 36.71875 
Q 71.046875 36.71875 71.578125 36.078125 
Q 72.125 35.453125 72.125 34.71875 
Q 72.125 33.890625 71.578125 33.296875 
Q 71.046875 32.71875 70.3125 32.71875 
z
" id="Cmr10-61"/>
     <path d="M 11.921875 -23.1875 
L 11.921875 73.1875 
Q 11.921875 73.96875 12.5 74.484375 
Q 13.09375 75 13.921875 75 
Q 14.65625 75 15.28125 74.484375 
Q 15.921875 73.96875 15.921875 73.1875 
L 15.921875 -23.1875 
Q 15.921875 -23.96875 15.28125 -24.484375 
Q 14.65625 -25 13.921875 -25 
Q 13.09375 -25 12.5 -24.484375 
Q 11.921875 -23.96875 11.921875 -23.1875 
z
" id="Cmsy10-106"/>
     <path d="M 4.984375 0 
L 4.984375 2.6875 
Q 4.984375 2.9375 5.171875 3.21875 
L 20.703125 20.40625 
Q 24.21875 24.21875 26.40625 26.796875 
Q 28.609375 29.390625 30.75 32.765625 
Q 32.90625 36.140625 34.15625 39.625 
Q 35.40625 43.109375 35.40625 47.015625 
Q 35.40625 51.125 33.890625 54.859375 
Q 32.375 58.59375 29.375 60.84375 
Q 26.375 63.09375 22.125 63.09375 
Q 17.78125 63.09375 14.3125 60.46875 
Q 10.84375 57.859375 9.421875 53.71875 
Q 9.8125 53.8125 10.5 53.8125 
Q 12.75 53.8125 14.328125 52.296875 
Q 15.921875 50.78125 15.921875 48.390625 
Q 15.921875 46.09375 14.328125 44.5 
Q 12.75 42.921875 10.5 42.921875 
Q 8.15625 42.921875 6.5625 44.546875 
Q 4.984375 46.1875 4.984375 48.390625 
Q 4.984375 52.15625 6.390625 55.4375 
Q 7.8125 58.734375 10.46875 61.296875 
Q 13.140625 63.875 16.484375 65.234375 
Q 19.828125 66.609375 23.578125 66.609375 
Q 29.296875 66.609375 34.21875 64.1875 
Q 39.15625 61.765625 42.03125 57.34375 
Q 44.921875 52.9375 44.921875 47.015625 
Q 44.921875 42.671875 43.015625 38.765625 
Q 41.109375 34.859375 38.125 31.65625 
Q 35.15625 28.46875 30.515625 24.40625 
Q 25.875 20.359375 24.421875 19 
L 13.09375 8.109375 
L 22.703125 8.109375 
Q 29.78125 8.109375 34.546875 8.21875 
Q 39.3125 8.34375 39.59375 8.59375 
Q 40.765625 9.859375 42 17.828125 
L 44.921875 17.828125 
L 42.09375 0 
z
" id="Cmr10-50"/>
     <path d="M 7.8125 2.875 
Q 9.578125 1.515625 12.796875 1.515625 
Q 15.921875 1.515625 18.3125 4.515625 
Q 20.703125 7.515625 21.578125 11.078125 
L 26.125 28.8125 
Q 27.203125 33.640625 27.203125 35.40625 
Q 27.203125 37.890625 25.8125 39.75 
Q 24.421875 41.609375 21.921875 41.609375 
Q 18.75 41.609375 15.96875 39.625 
Q 13.1875 37.640625 11.28125 34.59375 
Q 9.375 31.546875 8.59375 28.421875 
Q 8.40625 27.78125 7.8125 27.78125 
L 6.59375 27.78125 
Q 5.8125 27.78125 5.8125 28.71875 
L 5.8125 29 
Q 6.78125 32.71875 9.125 36.25 
Q 11.46875 39.796875 14.859375 41.984375 
Q 18.265625 44.1875 22.125 44.1875 
Q 25.78125 44.1875 28.734375 42.234375 
Q 31.6875 40.28125 32.90625 36.921875 
Q 34.625 39.984375 37.28125 42.078125 
Q 39.9375 44.1875 43.109375 44.1875 
Q 45.265625 44.1875 47.5 43.421875 
Q 49.75 42.671875 51.171875 41.109375 
Q 52.59375 39.546875 52.59375 37.203125 
Q 52.59375 34.671875 50.953125 32.828125 
Q 49.3125 31 46.78125 31 
Q 45.171875 31 44.09375 32.03125 
Q 43.015625 33.0625 43.015625 34.625 
Q 43.015625 36.71875 44.453125 38.296875 
Q 45.90625 39.890625 47.90625 40.1875 
Q 46.09375 41.609375 42.921875 41.609375 
Q 39.703125 41.609375 37.328125 38.625 
Q 34.96875 35.640625 33.984375 31.984375 
L 29.59375 14.3125 
Q 28.515625 10.296875 28.515625 7.71875 
Q 28.515625 5.171875 29.953125 3.34375 
Q 31.390625 1.515625 33.796875 1.515625 
Q 38.484375 1.515625 42.15625 5.640625 
Q 45.84375 9.765625 47.015625 14.703125 
Q 47.21875 15.28125 47.796875 15.28125 
L 49.03125 15.28125 
Q 49.421875 15.28125 49.65625 15.015625 
Q 49.90625 14.75 49.90625 14.40625 
Q 49.90625 14.3125 49.8125 14.109375 
Q 48.390625 8.15625 43.84375 3.515625 
Q 39.3125 -1.125 33.59375 -1.125 
Q 29.9375 -1.125 26.984375 0.84375 
Q 24.03125 2.828125 22.796875 6.203125 
Q 21.234375 3.265625 18.46875 1.0625 
Q 15.71875 -1.125 12.59375 -1.125 
Q 10.453125 -1.125 8.171875 -0.359375 
Q 5.90625 0.390625 4.484375 1.953125 
Q 3.078125 3.515625 3.078125 5.90625 
Q 3.078125 8.25 4.703125 10.171875 
Q 6.34375 12.109375 8.796875 12.109375 
Q 10.453125 12.109375 11.578125 11.109375 
Q 12.703125 10.109375 12.703125 8.5 
Q 12.703125 6.390625 11.296875 4.828125 
Q 9.90625 3.265625 7.8125 2.875 
z
" id="Cmmi10-120"/>
     <path d="M 10.203125 23 
Q 9.375 23 8.828125 23.625 
Q 8.296875 24.265625 8.296875 25 
Q 8.296875 25.734375 8.828125 26.359375 
Q 9.375 27 10.203125 27 
L 67.578125 27 
Q 68.359375 27 68.875 26.359375 
Q 69.390625 25.734375 69.390625 25 
Q 69.390625 24.265625 68.875 23.625 
Q 68.359375 23 67.578125 23 
z
" id="Cmsy10-161"/>
     <path d="M 9.28125 0 
L 9.28125 3.515625 
Q 21.78125 3.515625 21.78125 6.6875 
L 21.78125 59.1875 
Q 16.609375 56.6875 8.6875 56.6875 
L 8.6875 60.203125 
Q 20.953125 60.203125 27.203125 66.609375 
L 28.609375 66.609375 
Q 28.953125 66.609375 29.265625 66.328125 
Q 29.59375 66.0625 29.59375 65.71875 
L 29.59375 6.6875 
Q 29.59375 3.515625 42.09375 3.515625 
L 42.09375 0 
z
" id="Cmr10-49"/>
    </defs>
    <g style="fill:#0000ff;" transform="translate(121.881026 149.975769)scale(0.16 -0.16)">
     <use xlink:href="#Cmmi10-121"/>
     <use transform="translate(66.582031 0)" xlink:href="#Cmr10-61"/>
     <use transform="translate(161.826172 0)" xlink:href="#Cmsy10-106"/>
     <use transform="translate(189.511719 0)" xlink:href="#Cmr10-50"/>
     <use transform="translate(239.511719 0)" xlink:href="#Cmmi10-120"/>
     <use transform="translate(314.150391 0)" xlink:href="#Cmsy10-161"/>
     <use transform="translate(409.394531 0)" xlink:href="#Cmr10-49"/>
     <use transform="translate(459.394531 0)" xlink:href="#Cmsy10-106"/>
    </g>
   </g>
  </g>
 </g>
 <defs>
  <clipPath id="pf8ee27e9d0">
   <rect height="230.581538" width="307.442051" x="7.2" y="30.685"/>
  </clipPath>
 </defs>
</svg>
