<?xml version="1.0" encoding="utf-8" standalone="no"?>
<!DOCTYPE svg PUBLIC "-//W3C//DTD SVG 1.1//EN"
  "http://www.w3.org/Graphics/SVG/1.1/DTD/svg11.dtd">
<!-- Created with matplotlib (https://matplotlib.org/) -->
<svg height="247.23524pt" version="1.1" viewBox="0 0 424.77 247.23524" width="424.77pt" xmlns="http://www.w3.org/2000/svg" xmlns:xlink="http://www.w3.org/1999/xlink">
 <defs>
  <style type="text/css">
*{stroke-linecap:butt;stroke-linejoin:round;}
  </style>
 </defs>
 <g id="figure_1">
  <g id="patch_1">
   <path d="M 0 247.23524 
L 424.77 247.23524 
L 424.77 0 
L 0 0 
z
" style="fill:#ffffff;"/>
  </g>
  <g id="axes_1">
   <g id="patch_2">
    <path d="M 7.2 227.135 
L 400.1 227.135 
L 400.1 30.685 
L 7.2 30.685 
z
" style="fill:#ffffff;"/>
   </g>
   <g id="patch_3">
    <path clip-path="url(#p66d4726394)" d="M 77.720513 223.357115 
L 77.720513 97.427628 
L 79.254091 98.961206 
L 80.924024 100.631139 
L 82.03637 101.743485 
L 83.835304 103.54242 
L 85.39932 105.106435 
L 87.046057 106.753173 
L 89.503562 109.210677 
L 90.360494 110.067609 
L 91.605687 111.312802 
L 93.696299 113.403414 
L 95.714278 115.421393 
L 96.43571 116.142825 
L 98.98588 118.692995 
L 99.895759 119.602874 
L 102.093234 121.80035 
L 103.275823 122.982938 
L 104.976261 124.683377 
L 105.47502 125.182135 
L 107.225898 126.933013 
L 108.601284 128.308399 
L 110.27965 129.986765 
L 112.944077 132.651193 
L 114.060727 133.767843 
L 115.287452 134.994568 
L 117.977981 137.685096 
L 118.074398 137.781514 
L 119.929149 139.636264 
L 122.105218 141.812333 
L 123.726272 143.433387 
L 124.449627 144.156743 
L 127.011768 146.718883 
L 128.065891 147.773006 
L 129.70505 149.412165 
L 131.27046 150.977575 
L 133.297655 153.004771 
L 134.159408 153.866524 
L 135.666355 155.373471 
L 137.341786 157.048901 
L 140.196265 159.903381 
L 140.840006 160.547122 
L 143.114806 162.821921 
L 144.709308 164.416423 
L 145.010147 164.717262 
L 147.567633 167.274749 
L 149.438136 169.145251 
L 150.204976 169.912091 
L 152.761731 172.468846 
L 154.088317 173.795432 
L 155.342446 175.049561 
L 157.529603 177.236718 
L 158.348927 178.056043 
L 159.678734 179.385849 
L 161.155462 180.862578 
L 162.458824 182.165939 
L 165.078191 184.785306 
L 167.055557 186.762673 
L 168.307304 188.014419 
L 169.636202 189.343317 
L 170.452983 190.160099 
L 173.307783 193.014899 
L 173.855828 193.562944 
L 176.226576 195.933691 
L 177.028365 196.735481 
L 179.334209 199.041324 
L 180.194087 199.901202 
L 181.612176 201.319292 
L 183.966746 203.673861 
L 185.649474 205.35659 
L 187.005182 206.712298 
L 188.550665 208.257781 
L 189.6845 209.391616 
L 192.374347 212.081462 
L 192.785243 212.492358 
L 194.556725 214.26384 
L 196.458516 216.165631 
L 197.672318 217.379434 
L 198.763296 218.470412 
L 201.123916 220.831032 
L 202.740061 222.447176 
L 203.240179 222.947295 
L 203.490239 223.197354 
L 203.615269 223.322384 
L 203.677783 223.329332 
L 203.740298 223.266817 
L 204.740536 222.266579 
L 205.634041 221.373075 
L 207.314932 219.692184 
L 208.496156 218.510959 
L 210.355375 216.65174 
L 211.522176 215.484939 
L 213.747023 213.260092 
L 215.567116 211.44 
L 217.420878 209.586237 
L 218.583843 208.423272 
L 219.633975 207.373141 
L 221.473362 205.533753 
L 222.648216 204.358899 
L 224.067523 202.939592 
L 226.589711 200.417404 
L 227.485477 199.521638 
L 229.196041 197.811074 
L 231.898075 195.109041 
L 232.755335 194.25178 
L 234.347147 192.659969 
L 235.661292 191.345824 
L 236.758912 190.248203 
L 239.629495 187.37762 
L 240.841252 186.165863 
L 241.974667 185.032448 
L 243.188427 183.818688 
L 245.257782 181.749334 
L 247.622631 179.384484 
L 248.692781 178.314335 
L 249.954934 177.052182 
L 250.982672 176.024444 
L 254.074971 172.932144 
L 254.52345 172.483665 
L 257.20411 169.803005 
L 257.904984 169.102132 
L 259.338321 167.668794 
L 261.099018 165.908098 
L 262.070159 164.936957 
L 265.174553 161.832563 
L 266.728953 160.278163 
L 266.90253 160.104586 
L 268.859385 158.14773 
L 270.433153 156.573962 
L 272.665463 154.341653 
L 274.032784 152.974331 
L 275.324905 151.68221 
L 277.641545 149.365571 
L 279.054571 147.952545 
L 280.219755 146.78736 
L 281.692872 145.314243 
L 282.628069 144.379047 
L 285.152647 141.854469 
L 286.698943 140.308172 
L 287.49688 139.510235 
L 289.535755 137.47136 
L 290.718616 136.288499 
L 293.651516 133.3556 
L 294.011149 132.995966 
L 296.753232 130.253883 
L 297.971854 129.035262 
L 299.225835 127.781281 
L 300.615973 126.391142 
L 301.986587 125.020528 
L 304.520761 122.486354 
L 305.165465 121.84165 
L 307.238703 119.768412 
L 308.231691 118.775424 
L 310.018178 116.988938 
L 311.100812 115.906303 
L 314.024151 112.982965 
L 314.767989 112.239127 
L 316.008078 110.999037 
L 318.569946 108.437169 
L 320.323603 106.683513 
L 321.585575 105.42154 
L 323.139064 103.868051 
L 323.985504 103.021611 
L 325.869747 101.137368 
L 327.688789 99.318326 
L 329.040268 97.966847 
L 331.475776 95.531339 
L 332.386379 94.620736 
L 333.259494 93.747621 
L 335.6872 91.319916 
L 337.37137 89.635746 
L 338.357115 88.65 
L 339.83072 87.176395 
L 342.415795 84.59132 
L 343.714002 83.293113 
L 344.79572 82.211395 
L 346.415395 80.59172 
L 347.630467 79.376648 
L 350.565157 76.441958 
L 351.787985 75.21913 
L 353.461371 73.545744 
L 354.719894 72.287221 
L 356.172126 70.83499 
L 357.882436 69.124679 
L 359.274811 67.732305 
L 361.376861 65.630255 
L 362.124261 64.882854 
L 364.447492 62.559623 
L 366.424266 60.58285 
L 366.729305 60.27781 
L 369.231828 57.775287 
L 370.495433 56.511683 
L 372.204842 54.802273 
L 373.110089 53.897026 
L 374.697522 52.309594 
L 376.366 50.641116 
L 378.441348 48.565768 
L 379.230165 47.77695 
L 381.724907 45.282208 
L 383.66578 43.341336 
L 383.9003 43.106815 
L 385.848792 41.158323 
L 387.08343 39.923685 
L 388.842452 38.164663 
L 390.364125 36.64299 
L 392.544231 34.462885 
L 392.544231 223.357115 
z
" style="fill:#808080;opacity:0.5;"/>
   </g>
   <g id="matplotlib.axis_1">
    <g id="xtick_1">
     <g id="line2d_1">
      <defs>
       <path d="M 0 0 
L 0 3.5 
" id="mb1fb7b645d" style="stroke:#000000;stroke-width:0.8;"/>
      </defs>
      <g>
       <use style="stroke:#000000;stroke-width:0.8;" x="14.755769" xlink:href="#mb1fb7b645d" y="223.357115"/>
      </g>
     </g>
     <g id="text_1">
      <!-- -1 -->
      <defs>
       <path d="M 4.890625 31.390625 
L 31.203125 31.390625 
L 31.203125 23.390625 
L 4.890625 23.390625 
z
" id="DejaVuSans-45"/>
       <path d="M 12.40625 8.296875 
L 28.515625 8.296875 
L 28.515625 63.921875 
L 10.984375 60.40625 
L 10.984375 69.390625 
L 28.421875 72.90625 
L 38.28125 72.90625 
L 38.28125 8.296875 
L 54.390625 8.296875 
L 54.390625 0 
L 12.40625 0 
z
" id="DejaVuSans-49"/>
      </defs>
      <g transform="translate(9.770613 237.955553)scale(0.1 -0.1)">
       <use xlink:href="#DejaVuSans-45"/>
       <use x="36.083984" xlink:href="#DejaVuSans-49"/>
      </g>
     </g>
    </g>
    <g id="xtick_2">
     <g id="line2d_2">
      <g>
       <use style="stroke:#000000;stroke-width:0.8;" x="109.202885" xlink:href="#mb1fb7b645d" y="223.357115"/>
      </g>
     </g>
     <g id="text_2">
      <!-- 0.5 -->
      <defs>
       <path d="M 31.78125 66.40625 
Q 24.171875 66.40625 20.328125 58.90625 
Q 16.5 51.421875 16.5 36.375 
Q 16.5 21.390625 20.328125 13.890625 
Q 24.171875 6.390625 31.78125 6.390625 
Q 39.453125 6.390625 43.28125 13.890625 
Q 47.125 21.390625 47.125 36.375 
Q 47.125 51.421875 43.28125 58.90625 
Q 39.453125 66.40625 31.78125 66.40625 
z
M 31.78125 74.21875 
Q 44.046875 74.21875 50.515625 64.515625 
Q 56.984375 54.828125 56.984375 36.375 
Q 56.984375 17.96875 50.515625 8.265625 
Q 44.046875 -1.421875 31.78125 -1.421875 
Q 19.53125 -1.421875 13.0625 8.265625 
Q 6.59375 17.96875 6.59375 36.375 
Q 6.59375 54.828125 13.0625 64.515625 
Q 19.53125 74.21875 31.78125 74.21875 
z
" id="DejaVuSans-48"/>
       <path d="M 10.6875 12.40625 
L 21 12.40625 
L 21 0 
L 10.6875 0 
z
" id="DejaVuSans-46"/>
       <path d="M 10.796875 72.90625 
L 49.515625 72.90625 
L 49.515625 64.59375 
L 19.828125 64.59375 
L 19.828125 46.734375 
Q 21.96875 47.46875 24.109375 47.828125 
Q 26.265625 48.1875 28.421875 48.1875 
Q 40.625 48.1875 47.75 41.5 
Q 54.890625 34.8125 54.890625 23.390625 
Q 54.890625 11.625 47.5625 5.09375 
Q 40.234375 -1.421875 26.90625 -1.421875 
Q 22.3125 -1.421875 17.546875 -0.640625 
Q 12.796875 0.140625 7.71875 1.703125 
L 7.71875 11.625 
Q 12.109375 9.234375 16.796875 8.0625 
Q 21.484375 6.890625 26.703125 6.890625 
Q 35.15625 6.890625 40.078125 11.328125 
Q 45.015625 15.765625 45.015625 23.390625 
Q 45.015625 31 40.078125 35.4375 
Q 35.15625 39.890625 26.703125 39.890625 
Q 22.75 39.890625 18.8125 39.015625 
Q 14.890625 38.140625 10.796875 36.28125 
z
" id="DejaVuSans-53"/>
      </defs>
      <g transform="translate(101.251322 237.955553)scale(0.1 -0.1)">
       <use xlink:href="#DejaVuSans-48"/>
       <use x="63.623047" xlink:href="#DejaVuSans-46"/>
       <use x="95.410156" xlink:href="#DejaVuSans-53"/>
      </g>
     </g>
    </g>
    <g id="xtick_3">
     <g id="line2d_3">
      <g>
       <use style="stroke:#000000;stroke-width:0.8;" x="140.685256" xlink:href="#mb1fb7b645d" y="223.357115"/>
      </g>
     </g>
     <g id="text_3">
      <!-- 1 -->
      <g transform="translate(137.504006 237.955553)scale(0.1 -0.1)">
       <use xlink:href="#DejaVuSans-49"/>
      </g>
     </g>
    </g>
    <g id="xtick_4">
     <g id="line2d_4">
      <g>
       <use style="stroke:#000000;stroke-width:0.8;" x="203.65" xlink:href="#mb1fb7b645d" y="223.357115"/>
      </g>
     </g>
     <g id="text_4">
      <!-- 2 -->
      <defs>
       <path d="M 19.1875 8.296875 
L 53.609375 8.296875 
L 53.609375 0 
L 7.328125 0 
L 7.328125 8.296875 
Q 12.9375 14.109375 22.625 23.890625 
Q 32.328125 33.6875 34.8125 36.53125 
Q 39.546875 41.84375 41.421875 45.53125 
Q 43.3125 49.21875 43.3125 52.78125 
Q 43.3125 58.59375 39.234375 62.25 
Q 35.15625 65.921875 28.609375 65.921875 
Q 23.96875 65.921875 18.8125 64.3125 
Q 13.671875 62.703125 7.8125 59.421875 
L 7.8125 69.390625 
Q 13.765625 71.78125 18.9375 73 
Q 24.125 74.21875 28.421875 74.21875 
Q 39.75 74.21875 46.484375 68.546875 
Q 53.21875 62.890625 53.21875 53.421875 
Q 53.21875 48.921875 51.53125 44.890625 
Q 49.859375 40.875 45.40625 35.40625 
Q 44.1875 33.984375 37.640625 27.21875 
Q 31.109375 20.453125 19.1875 8.296875 
z
" id="DejaVuSans-50"/>
      </defs>
      <g transform="translate(200.46875 237.955553)scale(0.1 -0.1)">
       <use xlink:href="#DejaVuSans-50"/>
      </g>
     </g>
    </g>
    <g id="text_5">
     <!-- x -->
     <defs>
      <path d="M 54.890625 54.6875 
L 35.109375 28.078125 
L 55.90625 0 
L 45.3125 0 
L 29.390625 21.484375 
L 13.484375 0 
L 2.875 0 
L 24.125 28.609375 
L 4.6875 54.6875 
L 15.28125 54.6875 
L 29.78125 35.203125 
L 44.28125 54.6875 
z
" id="DejaVuSans-120"/>
     </defs>
     <g transform="translate(408.1 223.357115)scale(0.16 -0.16)">
      <use xlink:href="#DejaVuSans-120"/>
     </g>
    </g>
   </g>
   <g id="matplotlib.axis_2">
    <g id="ytick_1">
     <g id="line2d_5">
      <defs>
       <path d="M 0 0 
L -3.5 0 
" id="me769da4d7d" style="stroke:#000000;stroke-width:0.8;"/>
      </defs>
      <g>
       <use style="stroke:#000000;stroke-width:0.8;" x="77.720513" xlink:href="#me769da4d7d" y="160.392372"/>
      </g>
     </g>
     <g id="text_6">
      <!-- 1 -->
      <g transform="translate(64.358013 164.191591)scale(0.1 -0.1)">
       <use xlink:href="#DejaVuSans-49"/>
      </g>
     </g>
    </g>
    <g id="ytick_2">
     <g id="line2d_6">
      <g>
       <use style="stroke:#000000;stroke-width:0.8;" x="77.720513" xlink:href="#me769da4d7d" y="97.427628"/>
      </g>
     </g>
     <g id="text_7">
      <!-- 2 -->
      <g transform="translate(64.358013 101.226847)scale(0.1 -0.1)">
       <use xlink:href="#DejaVuSans-50"/>
      </g>
     </g>
    </g>
    <g id="ytick_3">
     <g id="line2d_7">
      <g>
       <use style="stroke:#000000;stroke-width:0.8;" x="77.720513" xlink:href="#me769da4d7d" y="34.462885"/>
      </g>
     </g>
     <g id="text_8">
      <!-- 3 -->
      <defs>
       <path d="M 40.578125 39.3125 
Q 47.65625 37.796875 51.625 33 
Q 55.609375 28.21875 55.609375 21.1875 
Q 55.609375 10.40625 48.1875 4.484375 
Q 40.765625 -1.421875 27.09375 -1.421875 
Q 22.515625 -1.421875 17.65625 -0.515625 
Q 12.796875 0.390625 7.625 2.203125 
L 7.625 11.71875 
Q 11.71875 9.328125 16.59375 8.109375 
Q 21.484375 6.890625 26.8125 6.890625 
Q 36.078125 6.890625 40.9375 10.546875 
Q 45.796875 14.203125 45.796875 21.1875 
Q 45.796875 27.640625 41.28125 31.265625 
Q 36.765625 34.90625 28.71875 34.90625 
L 20.21875 34.90625 
L 20.21875 43.015625 
L 29.109375 43.015625 
Q 36.375 43.015625 40.234375 45.921875 
Q 44.09375 48.828125 44.09375 54.296875 
Q 44.09375 59.90625 40.109375 62.90625 
Q 36.140625 65.921875 28.71875 65.921875 
Q 24.65625 65.921875 20.015625 65.03125 
Q 15.375 64.15625 9.8125 62.3125 
L 9.8125 71.09375 
Q 15.4375 72.65625 20.34375 73.4375 
Q 25.25 74.21875 29.59375 74.21875 
Q 40.828125 74.21875 47.359375 69.109375 
Q 53.90625 64.015625 53.90625 55.328125 
Q 53.90625 49.265625 50.4375 45.09375 
Q 46.96875 40.921875 40.578125 39.3125 
z
" id="DejaVuSans-51"/>
      </defs>
      <g transform="translate(64.358013 38.262103)scale(0.1 -0.1)">
       <use xlink:href="#DejaVuSans-51"/>
      </g>
     </g>
    </g>
    <g id="text_9">
     <!-- y -->
     <defs>
      <path d="M 32.171875 -5.078125 
Q 28.375 -14.84375 24.75 -17.8125 
Q 21.140625 -20.796875 15.09375 -20.796875 
L 7.90625 -20.796875 
L 7.90625 -13.28125 
L 13.1875 -13.28125 
Q 16.890625 -13.28125 18.9375 -11.515625 
Q 21 -9.765625 23.484375 -3.21875 
L 25.09375 0.875 
L 2.984375 54.6875 
L 12.5 54.6875 
L 29.59375 11.921875 
L 46.6875 54.6875 
L 56.203125 54.6875 
z
" id="DejaVuSans-121"/>
     </defs>
     <g transform="translate(72.985513 19.3575)scale(0.16 -0.16)">
      <use xlink:href="#DejaVuSans-121"/>
     </g>
    </g>
   </g>
   <g id="line2d_8">
    <path clip-path="url(#p66d4726394)" d="M 77.720513 97.427628 
L 203.677783 223.329332 
L 392.544231 34.462885 
L 392.544231 34.462885 
" style="fill:none;stroke:#0000ff;stroke-linecap:square;"/>
   </g>
   <g id="line2d_9">
    <path clip-path="url(#p66d4726394)" d="M 14.755769 34.462885 
L 77.720513 97.427628 
L 77.720513 97.427628 
" style="fill:none;stroke:#0000ff;stroke-linecap:square;"/>
   </g>
   <g id="patch_4">
    <path d="M 77.720513 227.135 
L 77.720513 30.685 
" style="fill:none;stroke:#000000;stroke-linecap:square;stroke-linejoin:miter;stroke-width:0.8;"/>
   </g>
   <g id="patch_5">
    <path d="M 7.2 223.357115 
L 400.1 223.357115 
" style="fill:none;stroke:#000000;stroke-linecap:square;stroke-linejoin:miter;stroke-width:0.8;"/>
   </g>
   <g id="text_10">
    <!-- $y=|2x-1|$ -->
    <defs>
     <path d="M 8.40625 -14.3125 
Q 10.5 -17.921875 15.71875 -17.921875 
Q 20.453125 -17.921875 23.921875 -14.59375 
Q 27.390625 -11.28125 29.515625 -6.5625 
Q 31.640625 -1.859375 32.8125 3.078125 
Q 28.375 -1.125 23.1875 -1.125 
Q 19.234375 -1.125 16.453125 0.234375 
Q 13.671875 1.609375 12.125 4.3125 
Q 10.59375 7.03125 10.59375 10.890625 
Q 10.59375 14.15625 11.46875 17.59375 
Q 12.359375 21.046875 13.9375 25.265625 
Q 15.53125 29.5 16.703125 32.625 
Q 18.015625 36.28125 18.015625 38.625 
Q 18.015625 41.609375 15.828125 41.609375 
Q 11.859375 41.609375 9.296875 37.53125 
Q 6.734375 33.453125 5.515625 28.421875 
Q 5.328125 27.78125 4.6875 27.78125 
L 3.515625 27.78125 
Q 2.6875 27.78125 2.6875 28.71875 
L 2.6875 29 
Q 4.296875 34.96875 7.609375 39.578125 
Q 10.9375 44.1875 16.015625 44.1875 
Q 19.578125 44.1875 22.046875 41.84375 
Q 24.515625 39.5 24.515625 35.890625 
Q 24.515625 34.03125 23.6875 31.984375 
Q 23.25 30.765625 21.6875 26.65625 
Q 20.125 22.5625 19.28125 19.875 
Q 18.453125 17.1875 17.921875 14.59375 
Q 17.390625 12.015625 17.390625 9.421875 
Q 17.390625 6.109375 18.796875 3.8125 
Q 20.21875 1.515625 23.296875 1.515625 
Q 29.5 1.515625 34.421875 9.078125 
L 42 39.890625 
Q 42.328125 41.21875 43.546875 42.15625 
Q 44.78125 43.109375 46.1875 43.109375 
Q 47.40625 43.109375 48.3125 42.328125 
Q 49.21875 41.546875 49.21875 40.28125 
Q 49.21875 39.703125 49.125 39.5 
L 39.203125 -0.296875 
Q 37.890625 -5.421875 34.375 -10.109375 
Q 30.859375 -14.796875 25.90625 -17.65625 
Q 20.953125 -20.515625 15.578125 -20.515625 
Q 12.984375 -20.515625 10.4375 -19.5 
Q 7.90625 -18.5 6.34375 -16.5 
Q 4.78125 -14.5 4.78125 -11.8125 
Q 4.78125 -9.078125 6.390625 -7.078125 
Q 8.015625 -5.078125 10.6875 -5.078125 
Q 12.3125 -5.078125 13.40625 -6.078125 
Q 14.5 -7.078125 14.5 -8.6875 
Q 14.5 -10.984375 12.78125 -12.6875 
Q 11.078125 -14.40625 8.796875 -14.40625 
Q 8.6875 -14.359375 8.59375 -14.328125 
Q 8.5 -14.3125 8.40625 -14.3125 
z
" id="Cmmi10-121"/>
     <path d="M 7.515625 13.28125 
Q 6.6875 13.28125 6.140625 13.90625 
Q 5.609375 14.546875 5.609375 15.28125 
Q 5.609375 16.109375 6.140625 16.6875 
Q 6.6875 17.28125 7.515625 17.28125 
L 70.3125 17.28125 
Q 71.046875 17.28125 71.578125 16.6875 
Q 72.125 16.109375 72.125 15.28125 
Q 72.125 14.546875 71.578125 13.90625 
Q 71.046875 13.28125 70.3125 13.28125 
z
M 7.515625 32.71875 
Q 6.6875 32.71875 6.140625 33.296875 
Q 5.609375 33.890625 5.609375 34.71875 
Q 5.609375 35.453125 6.140625 36.078125 
Q 6.6875 36.71875 7.515625 36.71875 
L 70.3125 36.71875 
Q 71.046875 36.71875 71.578125 36.078125 
Q 72.125 35.453125 72.125 34.71875 
Q 72.125 33.890625 71.578125 33.296875 
Q 71.046875 32.71875 70.3125 32.71875 
z
" id="Cmr10-61"/>
     <path d="M 11.921875 -23.1875 
L 11.921875 73.1875 
Q 11.921875 73.96875 12.5 74.484375 
Q 13.09375 75 13.921875 75 
Q 14.65625 75 15.28125 74.484375 
Q 15.921875 73.96875 15.921875 73.1875 
L 15.921875 -23.1875 
Q 15.921875 -23.96875 15.28125 -24.484375 
Q 14.65625 -25 13.921875 -25 
Q 13.09375 -25 12.5 -24.484375 
Q 11.921875 -23.96875 11.921875 -23.1875 
z
" id="Cmsy10-106"/>
     <path d="M 4.984375 0 
L 4.984375 2.6875 
Q 4.984375 2.9375 5.171875 3.21875 
L 20.703125 20.40625 
Q 24.21875 24.21875 26.40625 26.796875 
Q 28.609375 29.390625 30.75 32.765625 
Q 32.90625 36.140625 34.15625 39.625 
Q 35.40625 43.109375 35.40625 47.015625 
Q 35.40625 51.125 33.890625 54.859375 
Q 32.375 58.59375 29.375 60.84375 
Q 26.375 63.09375 22.125 63.09375 
Q 17.78125 63.09375 14.3125 60.46875 
Q 10.84375 57.859375 9.421875 53.71875 
Q 9.8125 53.8125 10.5 53.8125 
Q 12.75 53.8125 14.328125 52.296875 
Q 15.921875 50.78125 15.921875 48.390625 
Q 15.921875 46.09375 14.328125 44.5 
Q 12.75 42.921875 10.5 42.921875 
Q 8.15625 42.921875 6.5625 44.546875 
Q 4.984375 46.1875 4.984375 48.390625 
Q 4.984375 52.15625 6.390625 55.4375 
Q 7.8125 58.734375 10.46875 61.296875 
Q 13.140625 63.875 16.484375 65.234375 
Q 19.828125 66.609375 23.578125 66.609375 
Q 29.296875 66.609375 34.21875 64.1875 
Q 39.15625 61.765625 42.03125 57.34375 
Q 44.921875 52.9375 44.921875 47.015625 
Q 44.921875 42.671875 43.015625 38.765625 
Q 41.109375 34.859375 38.125 31.65625 
Q 35.15625 28.46875 30.515625 24.40625 
Q 25.875 20.359375 24.421875 19 
L 13.09375 8.109375 
L 22.703125 8.109375 
Q 29.78125 8.109375 34.546875 8.21875 
Q 39.3125 8.34375 39.59375 8.59375 
Q 40.765625 9.859375 42 17.828125 
L 44.921875 17.828125 
L 42.09375 0 
z
" id="Cmr10-50"/>
     <path d="M 7.8125 2.875 
Q 9.578125 1.515625 12.796875 1.515625 
Q 15.921875 1.515625 18.3125 4.515625 
Q 20.703125 7.515625 21.578125 11.078125 
L 26.125 28.8125 
Q 27.203125 33.640625 27.203125 35.40625 
Q 27.203125 37.890625 25.8125 39.75 
Q 24.421875 41.609375 21.921875 41.609375 
Q 18.75 41.609375 15.96875 39.625 
Q 13.1875 37.640625 11.28125 34.59375 
Q 9.375 31.546875 8.59375 28.421875 
Q 8.40625 27.78125 7.8125 27.78125 
L 6.59375 27.78125 
Q 5.8125 27.78125 5.8125 28.71875 
L 5.8125 29 
Q 6.78125 32.71875 9.125 36.25 
Q 11.46875 39.796875 14.859375 41.984375 
Q 18.265625 44.1875 22.125 44.1875 
Q 25.78125 44.1875 28.734375 42.234375 
Q 31.6875 40.28125 32.90625 36.921875 
Q 34.625 39.984375 37.28125 42.078125 
Q 39.9375 44.1875 43.109375 44.1875 
Q 45.265625 44.1875 47.5 43.421875 
Q 49.75 42.671875 51.171875 41.109375 
Q 52.59375 39.546875 52.59375 37.203125 
Q 52.59375 34.671875 50.953125 32.828125 
Q 49.3125 31 46.78125 31 
Q 45.171875 31 44.09375 32.03125 
Q 43.015625 33.0625 43.015625 34.625 
Q 43.015625 36.71875 44.453125 38.296875 
Q 45.90625 39.890625 47.90625 40.1875 
Q 46.09375 41.609375 42.921875 41.609375 
Q 39.703125 41.609375 37.328125 38.625 
Q 34.96875 35.640625 33.984375 31.984375 
L 29.59375 14.3125 
Q 28.515625 10.296875 28.515625 7.71875 
Q 28.515625 5.171875 29.953125 3.34375 
Q 31.390625 1.515625 33.796875 1.515625 
Q 38.484375 1.515625 42.15625 5.640625 
Q 45.84375 9.765625 47.015625 14.703125 
Q 47.21875 15.28125 47.796875 15.28125 
L 49.03125 15.28125 
Q 49.421875 15.28125 49.65625 15.015625 
Q 49.90625 14.75 49.90625 14.40625 
Q 49.90625 14.3125 49.8125 14.109375 
Q 48.390625 8.15625 43.84375 3.515625 
Q 39.3125 -1.125 33.59375 -1.125 
Q 29.9375 -1.125 26.984375 0.84375 
Q 24.03125 2.828125 22.796875 6.203125 
Q 21.234375 3.265625 18.46875 1.0625 
Q 15.71875 -1.125 12.59375 -1.125 
Q 10.453125 -1.125 8.171875 -0.359375 
Q 5.90625 0.390625 4.484375 1.953125 
Q 3.078125 3.515625 3.078125 5.90625 
Q 3.078125 8.25 4.703125 10.171875 
Q 6.34375 12.109375 8.796875 12.109375 
Q 10.453125 12.109375 11.578125 11.109375 
Q 12.703125 10.109375 12.703125 8.5 
Q 12.703125 6.390625 11.296875 4.828125 
Q 9.90625 3.265625 7.8125 2.875 
z
" id="Cmmi10-120"/>
     <path d="M 10.203125 23 
Q 9.375 23 8.828125 23.625 
Q 8.296875 24.265625 8.296875 25 
Q 8.296875 25.734375 8.828125 26.359375 
Q 9.375 27 10.203125 27 
L 67.578125 27 
Q 68.359375 27 68.875 26.359375 
Q 69.390625 25.734375 69.390625 25 
Q 69.390625 24.265625 68.875 23.625 
Q 68.359375 23 67.578125 23 
z
" id="Cmsy10-161"/>
     <path d="M 9.28125 0 
L 9.28125 3.515625 
Q 21.78125 3.515625 21.78125 6.6875 
L 21.78125 59.1875 
Q 16.609375 56.6875 8.6875 56.6875 
L 8.6875 60.203125 
Q 20.953125 60.203125 27.203125 66.609375 
L 28.609375 66.609375 
Q 28.953125 66.609375 29.265625 66.328125 
Q 29.59375 66.0625 29.59375 65.71875 
L 29.59375 6.6875 
Q 29.59375 3.515625 42.09375 3.515625 
L 42.09375 0 
z
" id="Cmr10-49"/>
    </defs>
    <g style="fill:#0000ff;" transform="translate(78.191122 132.41)scale(0.14 -0.14)">
     <use xlink:href="#Cmmi10-121"/>
     <use transform="translate(66.582031 0)" xlink:href="#Cmr10-61"/>
     <use transform="translate(161.826172 0)" xlink:href="#Cmsy10-106"/>
     <use transform="translate(189.511719 0)" xlink:href="#Cmr10-50"/>
     <use transform="translate(239.511719 0)" xlink:href="#Cmmi10-120"/>
     <use transform="translate(314.150391 0)" xlink:href="#Cmsy10-161"/>
     <use transform="translate(409.394531 0)" xlink:href="#Cmr10-49"/>
     <use transform="translate(459.394531 0)" xlink:href="#Cmsy10-106"/>
    </g>
   </g>
  </g>
 </g>
 <defs>
  <clipPath id="p66d4726394">
   <rect height="196.45" width="392.9" x="7.2" y="30.685"/>
  </clipPath>
 </defs>
</svg>
